G04*
G04 #@! TF.GenerationSoftware,Altium Limited,Altium Designer,21.4.1 (30)*
G04*
G04 Layer_Color=8388736*
%FSLAX25Y25*%
%MOIN*%
G70*
G04*
G04 #@! TF.SameCoordinates,A3E2D9BC-5F1E-461B-91C0-85596CD5DA70*
G04*
G04*
G04 #@! TF.FilePolarity,Negative*
G04*
G01*
G75*
%ADD15C,0.02000*%
%ADD46R,0.06404X0.03156*%
%ADD47R,0.06109X0.04337*%
%ADD48R,0.03274X0.04101*%
%ADD49R,0.03156X0.03156*%
%ADD50R,0.06109X0.06109*%
%ADD51R,0.01975X0.03550*%
%ADD52R,0.03550X0.01975*%
%ADD53R,0.03943X0.04140*%
%ADD54R,0.02762X0.02841*%
%ADD55R,0.01778X0.01384*%
%ADD56R,0.05912X0.02762*%
%ADD57R,0.04101X0.03274*%
%ADD58R,0.05912X0.02172*%
%ADD59R,0.06935X0.03510*%
%ADD60R,0.08668X0.05912*%
%ADD61R,0.04140X0.03943*%
%ADD62R,0.04258X0.03392*%
%ADD63R,0.04534X0.03747*%
%ADD64R,0.01975X0.02290*%
%ADD65R,0.02756X0.04882*%
%ADD66R,0.01575X0.04882*%
%ADD67R,0.06109X0.04140*%
%ADD68R,0.06109X0.13195*%
%ADD69R,0.04809X0.03825*%
%ADD70R,0.03392X0.04258*%
%ADD71R,0.04928X0.02762*%
%ADD72R,0.04337X0.06109*%
%ADD73R,0.10294X0.13794*%
%ADD74R,0.01384X0.01778*%
%ADD75R,0.06207X0.02172*%
%ADD76C,0.12400*%
%ADD77C,0.06896*%
%ADD78R,0.06896X0.06896*%
%ADD79C,0.06337*%
%ADD80O,0.03943X0.07093*%
%ADD81O,0.03943X0.08274*%
%ADD82C,0.02762*%
D15*
X-0Y-1102D02*
X2600D01*
X-0D02*
Y-0D01*
X0Y0D02*
Y320000D01*
X1102Y-1102D02*
X320000D01*
X320000Y320000D02*
X320000Y-1102D01*
X-0Y320000D02*
X320000D01*
D46*
X43323Y107500D02*
D03*
X64677Y92500D02*
D03*
Y97500D02*
D03*
Y102500D02*
D03*
Y107500D02*
D03*
X43323Y102500D02*
D03*
Y97500D02*
D03*
Y92500D02*
D03*
D47*
X54000Y272000D02*
D03*
Y264520D02*
D03*
X14000Y264260D02*
D03*
Y271740D02*
D03*
X135000Y264260D02*
D03*
Y271740D02*
D03*
X93882Y264260D02*
D03*
Y271740D02*
D03*
X292000Y263260D02*
D03*
Y270740D02*
D03*
X253000Y264520D02*
D03*
Y272000D02*
D03*
X213000Y264260D02*
D03*
Y271740D02*
D03*
X174000Y263520D02*
D03*
Y271000D02*
D03*
D48*
X112905Y8300D02*
D03*
X118495D02*
D03*
D49*
X136575Y3512D02*
D03*
Y42488D02*
D03*
X183425D02*
D03*
Y3512D02*
D03*
D50*
X152224Y23000D02*
D03*
Y30776D02*
D03*
X160000D02*
D03*
X167776D02*
D03*
Y23000D02*
D03*
Y15224D02*
D03*
X160000D02*
D03*
X152224D02*
D03*
X160000Y23000D02*
D03*
D51*
X178898Y3709D02*
D03*
X175748D02*
D03*
X172598D02*
D03*
X169449D02*
D03*
X166299D02*
D03*
X163150D02*
D03*
X160000D02*
D03*
X156850D02*
D03*
X153701D02*
D03*
X150551D02*
D03*
X147402D02*
D03*
X144252D02*
D03*
X141102D02*
D03*
Y42291D02*
D03*
X144252D02*
D03*
X147402D02*
D03*
X150551D02*
D03*
X153701D02*
D03*
X156850D02*
D03*
X160000D02*
D03*
X163150D02*
D03*
X166299D02*
D03*
X169449D02*
D03*
X172598D02*
D03*
X175748D02*
D03*
X178898D02*
D03*
D52*
X136772Y7252D02*
D03*
Y10402D02*
D03*
Y13551D02*
D03*
Y16701D02*
D03*
Y19850D02*
D03*
Y23000D02*
D03*
Y26150D02*
D03*
Y29299D02*
D03*
Y32449D02*
D03*
Y35598D02*
D03*
Y38748D02*
D03*
X183228D02*
D03*
Y35598D02*
D03*
Y32449D02*
D03*
Y29299D02*
D03*
Y26150D02*
D03*
Y23000D02*
D03*
Y19850D02*
D03*
Y16701D02*
D03*
Y13551D02*
D03*
Y10402D02*
D03*
Y7252D02*
D03*
D53*
X119150Y44000D02*
D03*
X112850D02*
D03*
X97450Y22900D02*
D03*
X91150D02*
D03*
X288150Y63000D02*
D03*
X281850D02*
D03*
X278150Y8000D02*
D03*
X271850D02*
D03*
X288000Y48000D02*
D03*
X281701D02*
D03*
X275150Y63000D02*
D03*
X268850D02*
D03*
X274850Y48000D02*
D03*
X268551D02*
D03*
X65850Y265000D02*
D03*
X72150D02*
D03*
X24850Y264000D02*
D03*
X31150D02*
D03*
X145850D02*
D03*
X152150D02*
D03*
X105732D02*
D03*
X112031D02*
D03*
X302850Y263000D02*
D03*
X309150D02*
D03*
X263850Y264000D02*
D03*
X270150D02*
D03*
X223850D02*
D03*
X230150D02*
D03*
X184850Y263000D02*
D03*
X191150D02*
D03*
X210850Y95000D02*
D03*
X217150D02*
D03*
X23150Y98000D02*
D03*
X16850D02*
D03*
X23150Y80000D02*
D03*
X16850D02*
D03*
X46850Y152000D02*
D03*
X53150D02*
D03*
X82850Y91000D02*
D03*
X89150D02*
D03*
X22150Y106000D02*
D03*
X15850D02*
D03*
Y89000D02*
D03*
X22150D02*
D03*
D54*
X257189Y257000D02*
D03*
X260811D02*
D03*
X57378D02*
D03*
X61000D02*
D03*
X16378Y256000D02*
D03*
X20000D02*
D03*
X140189Y257000D02*
D03*
X143811D02*
D03*
X100260D02*
D03*
X103882D02*
D03*
X292078Y256900D02*
D03*
X295700D02*
D03*
X217189Y257000D02*
D03*
X220811D02*
D03*
X178189D02*
D03*
X181811D02*
D03*
D55*
X78000Y42933D02*
D03*
Y41067D02*
D03*
X308000Y160067D02*
D03*
Y161933D02*
D03*
X244000Y160067D02*
D03*
Y161933D02*
D03*
X220400Y7933D02*
D03*
Y6067D02*
D03*
X248000Y13000D02*
D03*
Y11134D02*
D03*
Y44134D02*
D03*
Y46000D02*
D03*
X96000Y212866D02*
D03*
Y211000D02*
D03*
D56*
X88079Y43740D02*
D03*
Y40000D02*
D03*
Y36260D02*
D03*
X97921D02*
D03*
Y40000D02*
D03*
Y43740D02*
D03*
D57*
X301000Y28795D02*
D03*
Y23205D02*
D03*
X220000Y40205D02*
D03*
Y45795D02*
D03*
D58*
X287661Y21161D02*
D03*
Y23720D02*
D03*
Y26280D02*
D03*
Y28839D02*
D03*
X270339D02*
D03*
Y26280D02*
D03*
Y23720D02*
D03*
Y21161D02*
D03*
D59*
X52126Y292457D02*
D03*
X67874D02*
D03*
Y299543D02*
D03*
X52126D02*
D03*
X132126Y292457D02*
D03*
X147874D02*
D03*
Y299543D02*
D03*
X132126D02*
D03*
X92126Y292457D02*
D03*
X107874D02*
D03*
Y299543D02*
D03*
X92126D02*
D03*
X12126Y292457D02*
D03*
X27874D02*
D03*
Y299543D02*
D03*
X12126D02*
D03*
X290126Y292457D02*
D03*
X305874D02*
D03*
Y299543D02*
D03*
X290126D02*
D03*
X252126Y292457D02*
D03*
X267874D02*
D03*
Y299543D02*
D03*
X252126D02*
D03*
X212126Y292457D02*
D03*
X227874D02*
D03*
Y299543D02*
D03*
X212126D02*
D03*
X172126Y292457D02*
D03*
X187874D02*
D03*
Y299543D02*
D03*
X172126D02*
D03*
D60*
X305913Y184142D02*
D03*
X270087D02*
D03*
X305913Y201858D02*
D03*
X270087D02*
D03*
X243913Y184142D02*
D03*
X208087D02*
D03*
X243913Y201858D02*
D03*
X208087D02*
D03*
D61*
X220000Y27150D02*
D03*
Y20850D02*
D03*
X24000Y45850D02*
D03*
Y52150D02*
D03*
X62000Y45850D02*
D03*
Y52150D02*
D03*
D62*
X209000Y9795D02*
D03*
Y4205D02*
D03*
X239000Y15862D02*
D03*
Y10272D02*
D03*
D63*
X32913Y73000D02*
D03*
X47087D02*
D03*
D64*
X13000Y51598D02*
D03*
Y46402D02*
D03*
X35000D02*
D03*
Y51598D02*
D03*
X48000Y46402D02*
D03*
Y51598D02*
D03*
D65*
X48598Y29701D02*
D03*
X45449D02*
D03*
X26551D02*
D03*
X23402D02*
D03*
D66*
X42890D02*
D03*
X40921D02*
D03*
X38953D02*
D03*
X36984D02*
D03*
X29110D02*
D03*
X31079D02*
D03*
X33047D02*
D03*
X35016D02*
D03*
D67*
X74992Y190984D02*
D03*
Y200000D02*
D03*
Y209016D02*
D03*
D68*
X49008Y200000D02*
D03*
D69*
X97000Y190165D02*
D03*
Y195835D02*
D03*
D70*
X52795Y223000D02*
D03*
X47205D02*
D03*
X118795Y22000D02*
D03*
X113205D02*
D03*
X83205Y109000D02*
D03*
X88795D02*
D03*
X20795Y115000D02*
D03*
X15205D02*
D03*
D71*
X37299Y144520D02*
D03*
Y148260D02*
D03*
Y152000D02*
D03*
X31000D02*
D03*
Y148260D02*
D03*
Y144520D02*
D03*
D72*
X15540Y151000D02*
D03*
X8060D02*
D03*
D73*
X54000Y100000D02*
D03*
D74*
X18267Y167400D02*
D03*
X20133D02*
D03*
D75*
X23433Y132839D02*
D03*
Y130280D02*
D03*
Y127720D02*
D03*
Y125161D02*
D03*
X46567D02*
D03*
Y127720D02*
D03*
Y130280D02*
D03*
Y132839D02*
D03*
D76*
X25800Y236300D02*
D03*
X73300Y69200D02*
D03*
X307700Y52400D02*
D03*
X303400Y237600D02*
D03*
D77*
X23000Y200000D02*
D03*
D78*
X13157D02*
D03*
D79*
X265039Y106000D02*
D03*
X294961D02*
D03*
D80*
X53028Y11000D02*
D03*
X18972D02*
D03*
D81*
X53028Y27417D02*
D03*
X18972D02*
D03*
D82*
X47378Y25488D02*
D03*
X24622D02*
D03*
M02*
