G04*
G04 #@! TF.GenerationSoftware,Altium Limited,Altium Designer,21.4.1 (30)*
G04*
G04 Layer_Color=32896*
%FSLAX25Y25*%
%MOIN*%
G70*
G04*
G04 #@! TF.SameCoordinates,D9FEFEF5-AAB3-451E-8F25-013EF5C99318*
G04*
G04*
G04 #@! TF.FilePolarity,Positive*
G04*
G01*
G75*
%ADD14C,0.01000*%
G36*
X294504Y293675D02*
X294548Y162953D01*
X294154Y162909D01*
X293673Y163215D01*
X293585Y163390D01*
X293279Y163697D01*
X292797Y163828D01*
X292360Y164003D01*
X291966Y164397D01*
X291528Y164572D01*
X290741Y165010D01*
X290478Y165272D01*
X290040Y165447D01*
X289690Y165535D01*
X289209Y165929D01*
X288990Y166147D01*
X288377Y166323D01*
X287765Y166673D01*
X287415Y167023D01*
X286452Y167373D01*
X286014Y167810D01*
X285183Y168117D01*
X285051Y168248D01*
X284876Y168336D01*
X284614Y168598D01*
X284176Y168773D01*
X283607Y168992D01*
X283126Y169474D01*
X282688Y169649D01*
X282207Y169780D01*
X282075Y169911D01*
X281900Y169999D01*
X281725Y170261D01*
X281113Y170524D01*
X280762Y170611D01*
X280281Y171005D01*
X280150Y171136D01*
X279712Y171312D01*
X278924Y171749D01*
X278662Y172012D01*
X277830Y172318D01*
X277305Y172756D01*
X277174Y172887D01*
X276824Y172975D01*
X276255Y173193D01*
X275773Y173675D01*
X275336Y173850D01*
X274986Y173937D01*
X274373Y174375D01*
X274198Y174550D01*
X273629Y174769D01*
X273323Y174900D01*
X272972Y175250D01*
X272360Y175513D01*
X272010Y175600D01*
X271528Y175994D01*
X271309Y176213D01*
X270872Y176388D01*
X270390Y176520D01*
X269822Y177088D01*
X268859Y177438D01*
X268509Y177789D01*
X268334Y177876D01*
X267896Y178051D01*
X267283Y178401D01*
X267021Y178664D01*
X266583Y178839D01*
X266014Y179058D01*
X265883Y179189D01*
X265752Y179233D01*
X265664Y179408D01*
X265533Y179539D01*
X265095Y179714D01*
X264614Y179845D01*
X264307Y180064D01*
X263957Y180414D01*
X263520Y180589D01*
X263169Y180677D01*
X262688Y181071D01*
X262557Y181202D01*
X262119Y181377D01*
X261331Y181815D01*
X261069Y182078D01*
X260106Y182428D01*
X259668Y182865D01*
X259493Y182953D01*
X259056Y183128D01*
X258705Y183215D01*
X258224Y183609D01*
X258005Y183828D01*
X257393Y184003D01*
X256955Y184266D01*
X256605Y184616D01*
X255773Y184922D01*
X255642Y185053D01*
X255467Y185141D01*
X255204Y185404D01*
X254767Y185579D01*
X254198Y185797D01*
X253716Y186279D01*
X253279Y186454D01*
X252797Y186585D01*
X252491Y186804D01*
X252141Y187154D01*
X251703Y187329D01*
X251353Y187417D01*
X250872Y187811D01*
X250653Y188029D01*
X250172Y188161D01*
X249734Y188336D01*
X249428Y188555D01*
X249165Y188817D01*
X248727Y188992D01*
X248115Y189342D01*
X247765Y189692D01*
X247196Y189824D01*
X246758Y189999D01*
X246189Y190568D01*
X245620Y190699D01*
X245182Y190874D01*
X244920Y191137D01*
X244876Y191268D01*
X244701Y191355D01*
X243826Y191706D01*
X243344Y192099D01*
X243213Y192231D01*
X242863Y192318D01*
X242294Y192537D01*
X241813Y193018D01*
X240981Y193325D01*
X240675Y193544D01*
X240412Y193894D01*
X239843Y194025D01*
X239493Y194113D01*
X239362Y194244D01*
X239187Y194331D01*
X238968Y194638D01*
X238487Y194857D01*
X237918Y195075D01*
X237611Y195294D01*
X237349Y195557D01*
X236867Y195688D01*
X236167Y196126D01*
X235948Y196344D01*
X235511Y196519D01*
X235161Y196607D01*
X234986Y196782D01*
X234854Y196826D01*
X234767Y197001D01*
X234548Y197220D01*
X233935Y197395D01*
X233585Y197482D01*
X232972Y198095D01*
X232141Y198401D01*
X231747Y198708D01*
X231572Y198795D01*
X230784Y199145D01*
X230609Y199233D01*
X230128Y199627D01*
X229996Y199758D01*
X229384Y199933D01*
X228771Y200283D01*
X228421Y200633D01*
X227940Y200765D01*
X227458Y201071D01*
X227021Y201509D01*
X226539Y201640D01*
X226101Y201815D01*
X225708Y202209D01*
X225270Y202384D01*
X224701Y202603D01*
X224570Y202734D01*
X224439Y202778D01*
X224351Y202953D01*
X223870Y203172D01*
X223038Y203478D01*
X222557Y203959D01*
X222119Y204134D01*
X221769Y204222D01*
X221287Y204616D01*
X221156Y204747D01*
X220018Y205360D01*
X219843Y205535D01*
X219406Y205710D01*
X218618Y206148D01*
X218355Y206410D01*
X217918Y206585D01*
X217568Y206673D01*
X217130Y206935D01*
X216780Y207285D01*
X216342Y207460D01*
X215992Y207548D01*
X215379Y207986D01*
X215204Y208161D01*
X214767Y208336D01*
X214154Y208686D01*
X213979Y208861D01*
X213804Y208948D01*
X212929Y209298D01*
X212447Y209692D01*
X211966Y209911D01*
X211397Y210130D01*
X210915Y210612D01*
X210740Y210699D01*
X210478Y210787D01*
X209909Y211005D01*
X209778Y211137D01*
X209603Y211224D01*
X209253Y211574D01*
X208771Y211705D01*
X208333Y211881D01*
X207852Y212362D01*
X207020Y212668D01*
X206889Y212800D01*
X206714Y212887D01*
X206452Y213150D01*
X205620Y213456D01*
X205314Y213675D01*
X204964Y214025D01*
X204351Y214200D01*
X203738Y214550D01*
X203388Y214900D01*
X202557Y215207D01*
X202250Y215425D01*
X201988Y215688D01*
X201550Y215863D01*
X200762Y216301D01*
X200500Y216563D01*
X199668Y216870D01*
X199362Y217089D01*
X198924Y217526D01*
X198311Y217876D01*
X198180Y218095D01*
X198618Y218795D01*
X198705Y218970D01*
X198837Y219189D01*
X199362Y219364D01*
X200150Y218927D01*
X200937Y218577D01*
X201506Y218445D01*
X201944Y218270D01*
X202863Y217789D01*
X203213Y217701D01*
X204307Y217307D01*
X205489Y216826D01*
X206189Y216651D01*
X206802Y216301D01*
X207589Y215951D01*
X208508Y215732D01*
X208990Y215425D01*
X209603Y215163D01*
X209953Y215075D01*
X210653Y214988D01*
X211178Y214463D01*
X211791Y214288D01*
X212666Y214375D01*
X212710Y214682D01*
X212491Y214900D01*
X211616Y214988D01*
X211047Y215207D01*
X210959Y215382D01*
X210653Y215688D01*
X210040Y215863D01*
X209471Y215994D01*
X208640Y216563D01*
X208027Y216738D01*
X207458Y216957D01*
X207064Y217264D01*
X206452Y217526D01*
X205358Y217920D01*
X205139Y218139D01*
X203782Y218620D01*
X203476Y218839D01*
X202863Y219102D01*
X202031Y219408D01*
X201900Y219539D01*
X201725Y219627D01*
X201112Y219889D01*
X200281Y220196D01*
X199975Y220414D01*
X199756Y220546D01*
X199581Y221159D01*
Y221421D01*
X199624Y221465D01*
X199756Y221771D01*
X200150Y222253D01*
X200368Y222471D01*
X200456Y223084D01*
X200543Y224134D01*
X200675Y224266D01*
X201200Y224441D01*
X201463Y224353D01*
X202338Y224266D01*
X203782Y224134D01*
X206145Y223784D01*
X206845Y223609D01*
X207283Y223522D01*
X209034Y223434D01*
X210609Y223347D01*
X211309Y223259D01*
X212185Y223172D01*
X212885Y222997D01*
X213891Y222690D01*
X215292Y222603D01*
X217217Y222690D01*
X217830Y222778D01*
X218005Y222865D01*
X218137Y222997D01*
X217918Y223215D01*
X217568Y223303D01*
X216955Y223391D01*
X214854Y223478D01*
X214592Y223566D01*
X214023Y223697D01*
X212929Y224178D01*
X212316Y224266D01*
X210259Y224397D01*
X209559Y224485D01*
X209121Y224572D01*
X208683Y224747D01*
X208333Y224835D01*
X207852Y224966D01*
X207239Y225054D01*
X205620Y225185D01*
X204920Y225272D01*
X204045Y225447D01*
X203563Y225579D01*
X202951Y225754D01*
X202600Y225841D01*
X201463Y225929D01*
X200981Y226235D01*
X200894Y226585D01*
X201025Y227067D01*
X201244Y227636D01*
X201156Y227986D01*
X200981Y228598D01*
X200806Y229299D01*
X200894Y230349D01*
X201112Y230568D01*
X201550Y230743D01*
X202119Y230874D01*
X202557Y230962D01*
X203257Y231049D01*
X204132Y231137D01*
X205182Y231312D01*
X206933Y231662D01*
X207458Y231749D01*
X208158Y231837D01*
X209734Y232012D01*
X210172Y232099D01*
X210522Y232187D01*
X211003Y232318D01*
X211878Y232581D01*
X212491Y232668D01*
X214767Y232843D01*
X215029Y232931D01*
X215511Y233062D01*
X215598Y233237D01*
X215117Y233369D01*
X213191Y233456D01*
X211791Y233369D01*
X211528Y233281D01*
X210697Y233150D01*
X210347Y233062D01*
X209909Y232975D01*
X209209Y232887D01*
X208421Y232800D01*
X207721Y232712D01*
X205708Y232537D01*
X205007Y232450D01*
X204220Y232362D01*
X202425Y232143D01*
X202075Y232056D01*
X201419Y231924D01*
X200762Y231881D01*
X200543Y232012D01*
X200368Y232450D01*
X200193Y234375D01*
X200106Y234638D01*
X199712Y235119D01*
X199581Y235513D01*
X199843Y235951D01*
X199975Y236082D01*
X200543Y236213D01*
X201025Y236520D01*
X201463Y236782D01*
X202163Y236957D01*
X202600Y237132D01*
X202775Y237307D01*
X202951Y237395D01*
X203563Y237657D01*
X204395Y237964D01*
X204526Y238095D01*
X204701Y238183D01*
X205139Y238358D01*
X206233Y238752D01*
X206539Y239058D01*
X206977Y239233D01*
X207677Y239408D01*
X208115Y239583D01*
X208377Y239846D01*
X208552Y239933D01*
X209165Y240196D01*
X209865Y240283D01*
X210259Y240590D01*
X210347Y240765D01*
X210828Y240984D01*
X211747Y241115D01*
X212097Y241377D01*
X212360Y241815D01*
X213147Y241902D01*
X213585Y241990D01*
X213848Y242165D01*
X213935Y242515D01*
X213848Y242690D01*
X213410Y242778D01*
X212666Y242822D01*
X212228Y242559D01*
X212097Y242428D01*
X212010Y242253D01*
X211878Y242121D01*
X211309Y241990D01*
X210522Y241902D01*
X210084Y241727D01*
X209690Y241334D01*
X208990Y241159D01*
X208290Y241071D01*
X207677Y240633D01*
X207064Y240371D01*
X206714Y240283D01*
X206058Y240152D01*
X205751Y239933D01*
X205314Y239671D01*
X204701Y239495D01*
X204351Y239408D01*
X203782Y239189D01*
X202863Y238708D01*
X202163Y238533D01*
X201681Y238401D01*
X201156Y238051D01*
X200587Y237832D01*
X200237Y237745D01*
X199449Y237395D01*
X199012Y237482D01*
X198793Y237876D01*
X198487Y238445D01*
X198311Y238533D01*
X198005Y238839D01*
X197830Y239277D01*
X197567Y239714D01*
X197217Y240065D01*
X197130Y240240D01*
X196780Y241027D01*
X196867Y241640D01*
X196999Y241771D01*
X197174Y241859D01*
X197655Y242253D01*
X198311Y242909D01*
X198487Y242997D01*
X198924Y243434D01*
X199099Y243522D01*
X199274Y243697D01*
X199449Y243784D01*
X199887Y244222D01*
X200062Y244309D01*
X200237Y244485D01*
X200412Y244572D01*
X200762Y244922D01*
X200937Y245010D01*
X201200Y245272D01*
X201375Y245360D01*
X201988Y245973D01*
X202163Y246060D01*
X202951Y246848D01*
X203126Y246935D01*
X203607Y247329D01*
X204088Y247811D01*
X204263Y247898D01*
X204570Y248117D01*
X204657Y248292D01*
X204964Y248598D01*
X205401Y248861D01*
X205620Y249080D01*
X205708Y249255D01*
X205839Y249386D01*
X206452Y249736D01*
X206802Y250261D01*
X207414Y250611D01*
X207633Y250830D01*
X207721Y251005D01*
X207940Y251224D01*
X208508Y251531D01*
X208596Y251793D01*
X208465Y251924D01*
X208115Y251837D01*
X207896Y251706D01*
X207808Y251531D01*
X207589Y251224D01*
X207108Y251093D01*
X206802Y250874D01*
X206583Y250655D01*
X206495Y250480D01*
X206014Y250261D01*
X205839Y250174D01*
X205533Y249868D01*
X205445Y249693D01*
X205314Y249561D01*
X204745Y249342D01*
X204482Y249080D01*
X204395Y248905D01*
X203432Y248292D01*
X203038Y247898D01*
X202863Y247811D01*
X202381Y247417D01*
X202075Y247110D01*
X201900Y247023D01*
X201288Y246585D01*
X200937Y246235D01*
X200325Y245885D01*
X199887Y245447D01*
X199449Y245185D01*
X198968Y244791D01*
X198662Y244485D01*
X198487Y244397D01*
X198311Y244222D01*
X198136Y244134D01*
X197699Y243697D01*
X197524Y243609D01*
X196430Y242778D01*
X196211Y242559D01*
X195861Y242472D01*
X195423Y242559D01*
X195160Y242822D01*
X194985Y242909D01*
X194854Y243040D01*
X194767Y243215D01*
X194460Y243522D01*
X194285Y243609D01*
X193891Y243916D01*
X193804Y244091D01*
X193410Y244572D01*
X192797Y245185D01*
X192622Y245272D01*
X192009Y245710D01*
X191747Y245973D01*
X190784Y246498D01*
X190434Y246848D01*
X189953Y246979D01*
X189515Y247154D01*
X189034Y247636D01*
X188333Y247811D01*
X188158Y247898D01*
X187940Y248117D01*
X188027Y248642D01*
X188465Y249255D01*
X188552Y249605D01*
X188683Y250174D01*
X188771Y250524D01*
X189034Y251224D01*
X189340Y251793D01*
X189515Y252406D01*
X189646Y252887D01*
X189734Y253237D01*
X189909Y253675D01*
X190303Y254331D01*
X190434Y255075D01*
X190522Y255426D01*
X190784Y256126D01*
X190916Y256257D01*
X191003Y256432D01*
X191266Y257045D01*
X191353Y258008D01*
X191791Y258620D01*
X191966Y258795D01*
X192053Y259145D01*
X192141Y260458D01*
X192535Y260940D01*
X192841Y261246D01*
X192929Y261859D01*
X192797Y263040D01*
X192360Y262953D01*
X192141Y262734D01*
X192053Y262384D01*
X191966Y261334D01*
X191659Y261027D01*
X191484Y260940D01*
X191353Y260808D01*
X191178Y260108D01*
X191091Y259496D01*
X190478Y258533D01*
X190390Y258183D01*
X190172Y257264D01*
X189909Y256826D01*
X189734Y256738D01*
X189515Y256257D01*
X189427Y255469D01*
X189077Y254857D01*
X188727Y254069D01*
X188333Y252975D01*
X187940Y252318D01*
X187852Y251706D01*
X187633Y251137D01*
X187414Y250830D01*
X187064Y250043D01*
X186933Y249561D01*
X186758Y249124D01*
X186539Y248817D01*
X186145Y248686D01*
X185445Y248774D01*
X184307Y249299D01*
X182907Y249386D01*
X182557Y249474D01*
X181156Y249561D01*
X180543Y249649D01*
X179581Y249561D01*
X179318Y249474D01*
X176517Y249386D01*
X176255Y249299D01*
X175336Y249167D01*
X174854Y249036D01*
X174023Y248730D01*
X173279Y248511D01*
X172841Y248598D01*
X172447Y248905D01*
X171922Y250043D01*
X171528Y251137D01*
X171047Y252231D01*
X170959Y252581D01*
X170740Y253150D01*
X170609Y253281D01*
X170521Y253456D01*
X170259Y254069D01*
X170171Y254419D01*
X169953Y254988D01*
X169471Y255907D01*
X169340Y256476D01*
X169252Y256826D01*
X169077Y257264D01*
X168684Y257658D01*
X168508Y258358D01*
X168421Y258970D01*
X168114Y259452D01*
X167939Y259539D01*
X167808Y259671D01*
X167633Y260283D01*
X167502Y261115D01*
X167327Y261465D01*
X166977Y261553D01*
X166933Y260371D01*
X167020Y260108D01*
X167108Y259758D01*
X167458Y259408D01*
X167633Y258970D01*
X167852Y257701D01*
X168202Y257176D01*
X168421Y256607D01*
X168552Y256038D01*
X168640Y255601D01*
X168727Y255251D01*
X169121Y254506D01*
X169471Y253281D01*
X169690Y252712D01*
X170084Y251793D01*
X170259Y251181D01*
X170346Y250830D01*
X170478Y250349D01*
X171134Y248905D01*
X171222Y248555D01*
X171134Y247942D01*
X171003Y247811D01*
X169865Y247198D01*
X169077Y246848D01*
X168640Y246585D01*
X168290Y246235D01*
X167852Y246060D01*
X167677Y245973D01*
X167195Y245579D01*
X166977Y245360D01*
X166364Y245010D01*
X166233Y244879D01*
X166145Y244703D01*
X165926Y244485D01*
X165139Y244047D01*
X164701Y243609D01*
X164526Y243522D01*
X164307Y243303D01*
X164220Y243128D01*
X164001Y242822D01*
X163563Y242647D01*
X162950Y242734D01*
X162250Y243434D01*
X162075Y243522D01*
X161462Y243959D01*
X161112Y244309D01*
X160937Y244397D01*
X160325Y244835D01*
X159230Y245666D01*
X158837Y246060D01*
X158662Y246148D01*
X158005Y246629D01*
X157918Y246804D01*
X157786Y246935D01*
X157611Y247023D01*
X156999Y247373D01*
X156561Y247811D01*
X156123Y248073D01*
X155598Y248598D01*
X154985Y248949D01*
X154373Y249561D01*
X153804Y249868D01*
X153716Y250043D01*
X153497Y250261D01*
X152928Y250480D01*
X152666Y250655D01*
X152578Y250830D01*
X152360Y251049D01*
X151703Y251356D01*
X151616Y251531D01*
X151309Y251924D01*
X150828Y252056D01*
X150522Y252274D01*
X150303Y252581D01*
X150171Y252712D01*
X149559Y252887D01*
X149427Y252843D01*
X149515Y252406D01*
X149821Y252099D01*
X150434Y251749D01*
X150740Y251268D01*
X151441Y250918D01*
X151528Y250743D01*
X151834Y250349D01*
X152009Y250261D01*
X152491Y249868D01*
X152578Y249693D01*
X152797Y249474D01*
X153235Y249211D01*
X153760Y248686D01*
X154198Y248423D01*
X154898Y247723D01*
X155073Y247636D01*
X155554Y247242D01*
X155948Y246848D01*
X156123Y246760D01*
X156342Y246629D01*
X156430Y246454D01*
X156824Y246060D01*
X157261Y245797D01*
X157699Y245360D01*
X157874Y245272D01*
X158049Y245097D01*
X158224Y245010D01*
X158924Y244309D01*
X159099Y244222D01*
X159537Y243784D01*
X159712Y243697D01*
X159975Y243434D01*
X160150Y243347D01*
X160281Y243215D01*
X160368Y243040D01*
X160500Y242909D01*
X160675Y242822D01*
X161156Y242428D01*
X161462Y242121D01*
X161637Y242034D01*
X161813Y241859D01*
X161988Y241771D01*
X162294Y241465D01*
X162381Y241115D01*
X162119Y240677D01*
X161944Y240502D01*
X161419Y239539D01*
X161156Y239277D01*
X160981Y238577D01*
X160762Y238008D01*
X160412Y237570D01*
X160237Y237482D01*
X159799Y237307D01*
X159449Y237395D01*
X158837Y237657D01*
X158005Y237964D01*
X157524Y238183D01*
X157086Y238358D01*
X155729Y238839D01*
X155160Y239145D01*
X153541Y239714D01*
X152797Y240108D01*
X152097Y240283D01*
X151616Y240415D01*
X151309Y240633D01*
X150784Y240984D01*
X149953Y241115D01*
X149515Y241202D01*
X149209Y241334D01*
X148771Y241771D01*
X148158Y241859D01*
X147239Y241815D01*
X147502Y241377D01*
X147633Y241246D01*
X148246Y241159D01*
X148946Y240984D01*
X149165Y240765D01*
X149252Y240590D01*
X149384Y240458D01*
X149996Y240283D01*
X150697Y240108D01*
X151572Y239495D01*
X152228Y239364D01*
X152666Y239189D01*
X152972Y238970D01*
X153147Y238795D01*
X153760Y238620D01*
X154460Y238358D01*
X154985Y238008D01*
X156079Y237614D01*
X157174Y237045D01*
X158005Y236738D01*
X159274Y235994D01*
X159581Y235688D01*
X159493Y235075D01*
X159318Y234638D01*
X159230Y234288D01*
X158618Y233325D01*
X158530Y232537D01*
X158311Y232143D01*
X157961Y232056D01*
X157261Y232143D01*
X156999Y232231D01*
X156386Y232318D01*
X155335Y232493D01*
X154723Y232581D01*
X151703Y232800D01*
X150303Y232975D01*
X149252Y233150D01*
X148815Y233237D01*
X148333Y233369D01*
X147983Y233456D01*
X143694Y233544D01*
X142557Y233456D01*
X142513Y233412D01*
X142731Y233018D01*
X143432Y232843D01*
X144263Y232712D01*
X146101Y232625D01*
X147239Y232450D01*
X147939Y232187D01*
X148683Y231968D01*
X149033Y231881D01*
X150959Y231793D01*
X151222Y231706D01*
X152097Y231618D01*
X152360Y231530D01*
X152710Y231443D01*
X153585Y231180D01*
X153935Y231093D01*
X155773Y231005D01*
X156036Y230918D01*
X156692Y230786D01*
X157042Y230699D01*
X157743Y230611D01*
X158049Y230480D01*
X158268Y230261D01*
X158355Y229649D01*
X158268Y228511D01*
X158355Y228248D01*
X158486Y226979D01*
X158530Y226323D01*
X158136Y225841D01*
X157261Y225754D01*
X156648Y225666D01*
X156079Y225535D01*
X155729Y225447D01*
X154854Y225272D01*
X154329Y225185D01*
X153629Y225097D01*
X152841Y225010D01*
X151791Y224835D01*
X151441Y224747D01*
X151003Y224660D01*
X150303Y224485D01*
X149821Y224353D01*
X148421Y224266D01*
X146933Y224091D01*
X146495Y223916D01*
X145882Y223566D01*
X145445Y223391D01*
X143826Y223259D01*
X143125Y223172D01*
X142863Y223084D01*
X142907Y222953D01*
X143257Y222865D01*
X144044Y222778D01*
X144307Y222865D01*
X145051Y222997D01*
X145401Y223084D01*
X146145Y223391D01*
X147195Y223478D01*
X147458Y223391D01*
X149384Y223478D01*
X150565Y223609D01*
X151266Y223697D01*
X152447Y223828D01*
X153060Y223916D01*
X153410Y224003D01*
X154898Y224178D01*
X155248Y224266D01*
X156648Y224353D01*
X157655Y224485D01*
X157961Y224528D01*
X158224Y224441D01*
X158399Y224353D01*
X158618Y224134D01*
X159143Y222384D01*
X159318Y221684D01*
X159230Y220633D01*
X159012Y220414D01*
X158224Y220064D01*
X157524Y219802D01*
X156999Y219452D01*
X156123Y219189D01*
X155335Y218752D01*
X154723Y218489D01*
X154373Y218401D01*
X153935Y218226D01*
X153322Y217789D01*
X152972Y217701D01*
X152403Y217570D01*
X152097Y217439D01*
X151659Y217001D01*
X150959Y216826D01*
X150259Y216563D01*
X149646Y216126D01*
X149033Y215951D01*
X148465Y215819D01*
X148333Y215688D01*
X148158Y215600D01*
X148027Y215469D01*
X147983Y215338D01*
X147808Y215250D01*
X147371Y215075D01*
X146539Y214944D01*
X146233Y214725D01*
X146014Y214419D01*
X145882Y214288D01*
X144657Y214113D01*
X144438Y213894D01*
X144526Y213544D01*
X144657Y213412D01*
X145970Y213500D01*
X146276Y213806D01*
X146364Y213981D01*
X146495Y214113D01*
X147108Y214200D01*
X148071Y214288D01*
X148596Y214813D01*
X149296Y214988D01*
X149909Y215075D01*
X150522Y215425D01*
X150784Y215688D01*
X151134Y215776D01*
X151747Y215863D01*
X152228Y215994D01*
X152360Y216126D01*
X152535Y216213D01*
X153322Y216563D01*
X153935Y216738D01*
X154504Y216957D01*
X155160Y217351D01*
X156386Y217701D01*
X157874Y218401D01*
X158793Y218533D01*
X159274Y219014D01*
X159624Y219102D01*
X160150Y219014D01*
X160500Y218664D01*
X160675Y218577D01*
X160893Y218358D01*
X160937Y218051D01*
X160806Y217745D01*
X160675Y217614D01*
X160325Y217526D01*
X159887Y217351D01*
X159537Y217001D01*
X158662Y216651D01*
X158049Y216038D01*
X157130Y215819D01*
X156473Y215163D01*
X155904Y215032D01*
X155467Y214857D01*
X154985Y214375D01*
X154548Y214200D01*
X154198Y214113D01*
X153716Y213719D01*
X153585Y213587D01*
X153147Y213412D01*
X152797Y213325D01*
X152316Y212931D01*
X152184Y212800D01*
X151747Y212625D01*
X151178Y212406D01*
X151047Y212275D01*
X150872Y212187D01*
X150609Y211924D01*
X150171Y211749D01*
X149427Y211355D01*
X149340Y211180D01*
X149209Y211049D01*
X148771Y210874D01*
X148290Y210743D01*
X147764Y210305D01*
X147283Y210086D01*
X146714Y209868D01*
X146320Y209474D01*
X146145Y209386D01*
X145270Y209036D01*
X145007Y208773D01*
X144832Y208686D01*
X144657Y208511D01*
X144307Y208423D01*
X143694Y208073D01*
X143344Y207723D01*
X142907Y207548D01*
X142425Y207417D01*
X142119Y207198D01*
X141769Y206848D01*
X140937Y206541D01*
X140412Y206104D01*
X139931Y205885D01*
X139362Y205666D01*
X138968Y205272D01*
X138355Y205010D01*
X137742Y204660D01*
X137392Y204310D01*
X136780Y204134D01*
X136342Y203959D01*
X135904Y203522D01*
X135467Y203347D01*
X134985Y203215D01*
X134416Y202646D01*
X133585Y202340D01*
X133279Y202121D01*
X133016Y201859D01*
X131922Y201465D01*
X131659Y201202D01*
X131572Y201027D01*
X131090Y200808D01*
X130609Y200677D01*
X130084Y200239D01*
X129953Y200108D01*
X129602Y200021D01*
X129034Y199802D01*
X128465Y199233D01*
X127983Y199102D01*
X127677Y198970D01*
X127195Y198576D01*
X127064Y198445D01*
X126583Y198314D01*
X126145Y198139D01*
X125882Y197964D01*
X125795Y197789D01*
X125576Y197570D01*
X124963Y197395D01*
X124395Y197088D01*
X124307Y196913D01*
X123913Y196695D01*
X123563Y196607D01*
X122950Y196257D01*
X122600Y195907D01*
X121769Y195600D01*
X121550Y195382D01*
X121375Y195294D01*
X121200Y195119D01*
X120237Y194769D01*
X119712Y194244D01*
X119099Y194069D01*
X118661Y193806D01*
X118311Y193456D01*
X117874Y193281D01*
X117392Y193150D01*
X117261Y193018D01*
X117130Y192975D01*
X117042Y192800D01*
X116911Y192668D01*
X116473Y192493D01*
X116123Y192406D01*
X115554Y192099D01*
X115467Y191924D01*
X115248Y191706D01*
X114635Y191530D01*
X114198Y191268D01*
X113847Y190918D01*
X113410Y190743D01*
X113060Y190655D01*
X112447Y190305D01*
X112097Y189955D01*
X111616Y189824D01*
X111178Y189649D01*
X110784Y189255D01*
X109909Y188905D01*
X109384Y188380D01*
X108946Y188204D01*
X108596Y188117D01*
X108114Y187723D01*
X107896Y187504D01*
X107283Y187329D01*
X106845Y187067D01*
X106408Y186629D01*
X105839Y186498D01*
X105532Y186366D01*
X105007Y185841D01*
X104307Y185666D01*
X103869Y185404D01*
X103432Y184966D01*
X102819Y184791D01*
X102381Y184528D01*
X101944Y184091D01*
X101375Y183959D01*
X100937Y183784D01*
X100762Y183697D01*
X100675Y183522D01*
X100543Y183390D01*
X100368Y183303D01*
X99493Y182953D01*
X99012Y182559D01*
X98880Y182428D01*
X98399Y182296D01*
X97917Y181990D01*
X97786Y181859D01*
X97742Y181727D01*
X97567Y181640D01*
X97130Y181465D01*
X96780Y181377D01*
X96386Y181071D01*
X96298Y180896D01*
X95817Y180677D01*
X95467Y180589D01*
X95029Y180414D01*
X94591Y179977D01*
X94154Y179802D01*
X93585Y179583D01*
X93278Y179277D01*
X93103Y179189D01*
X92491Y178927D01*
X92053Y178664D01*
X91790Y178314D01*
X91353Y178139D01*
X91003Y178051D01*
X90609Y177832D01*
X90521Y177657D01*
X90303Y177438D01*
X89690Y177263D01*
X89121Y177045D01*
X88639Y176563D01*
X87677Y176213D01*
X87327Y175863D01*
X87152Y175776D01*
X86714Y175600D01*
X86276Y175338D01*
X85839Y174900D01*
X85138Y174725D01*
X84701Y174463D01*
X84263Y174025D01*
X83650Y173850D01*
X83038Y173500D01*
X82688Y173150D01*
X82206Y173018D01*
X81769Y172843D01*
X81375Y172450D01*
X80937Y172274D01*
X80368Y172056D01*
X80193Y171968D01*
X80106Y171793D01*
X79537Y171487D01*
X78968Y171268D01*
X78618Y170918D01*
X78574Y170786D01*
X78399Y170699D01*
X77961Y170524D01*
X77480Y170393D01*
X77174Y170174D01*
X77086Y169999D01*
X76911Y169911D01*
X76298Y169649D01*
X75686Y169299D01*
X75423Y169036D01*
X74460Y168686D01*
X74110Y168336D01*
X73935Y168248D01*
X73497Y168073D01*
X72885Y167723D01*
X72666Y167417D01*
X72184Y167198D01*
X71703Y167067D01*
X71178Y166629D01*
X70784Y166410D01*
X70084Y166147D01*
X69602Y165754D01*
X69471Y165622D01*
X68990Y165491D01*
X68552Y165316D01*
X68158Y164922D01*
X67721Y164747D01*
X67108Y164397D01*
X66758Y164047D01*
X66320Y163872D01*
X65488Y163565D01*
X65007Y163347D01*
X64832Y163434D01*
X64788Y164003D01*
X64876Y164266D01*
X64920Y195207D01*
X64701Y195951D01*
X64788Y228598D01*
X64876Y228861D01*
X64788Y260721D01*
X64701Y260983D01*
X64788Y293369D01*
X65270Y293587D01*
X68771Y293500D01*
X121069Y293544D01*
X121900Y293500D01*
X122338Y293675D01*
X122688Y293763D01*
X180193Y293675D01*
X180456Y293587D01*
X181069Y293500D01*
X182075Y293544D01*
X236036Y293500D01*
X236298Y293587D01*
X236911Y293675D01*
X237786Y293763D01*
X294504Y293675D01*
D02*
G37*
G36*
X179362Y224835D02*
X179624Y224397D01*
X179756Y224266D01*
X180193Y224003D01*
X180412Y223434D01*
X180325Y222646D01*
X180237Y222384D01*
X180325Y221946D01*
X180456Y221815D01*
X180894Y221902D01*
X181025Y222034D01*
X181375Y222646D01*
X181681Y222690D01*
X181900Y222471D01*
X181988Y222121D01*
X181900Y221509D01*
X181813Y221246D01*
X181681Y220590D01*
X181463Y220283D01*
X181200Y220021D01*
X181025Y219583D01*
X180850Y218883D01*
X180981Y218139D01*
X181069Y217789D01*
X181156Y217614D01*
X181506Y217526D01*
X181944Y217614D01*
X182075Y217745D01*
X182163Y219058D01*
X182600Y219671D01*
X183213Y220283D01*
X183300Y220633D01*
X183213Y220984D01*
X183038Y221421D01*
X183257Y221815D01*
X183563Y221509D01*
X183694Y221027D01*
X184001Y220458D01*
X183957Y219627D01*
X184132Y219452D01*
X184614Y219583D01*
X184920Y219627D01*
X185401Y219233D01*
X185489Y218883D01*
X185401Y218358D01*
X185226Y217920D01*
X185139Y217220D01*
X185489Y216607D01*
X185532Y216563D01*
X185576Y216520D01*
X185883Y216388D01*
X186364Y216782D01*
X186451Y217132D01*
X186364Y217920D01*
X186276Y218183D01*
X186189Y218533D01*
X186276Y218708D01*
X186583Y218752D01*
X186977Y218358D01*
X187064Y218007D01*
X187152Y216957D01*
X187546Y216826D01*
X188027Y217220D01*
X188246Y217264D01*
X188377Y217132D01*
X188290Y216432D01*
X188115Y216257D01*
X188027Y216082D01*
X187458Y215338D01*
X187283Y215250D01*
X187064Y215032D01*
X186802Y214156D01*
X186889Y213369D01*
X187283Y212887D01*
X187721Y212975D01*
X188202Y213456D01*
X188290Y213631D01*
X188596Y213675D01*
X189077Y213281D01*
X189165Y213018D01*
X189077Y212756D01*
X188815Y212493D01*
X188727Y212318D01*
X188290Y211705D01*
X187808Y211224D01*
X187371Y211049D01*
X186758Y210699D01*
X186539Y210480D01*
X186364Y209868D01*
X186451Y209692D01*
X186583Y209561D01*
X187808Y209649D01*
X188115Y209868D01*
X188158Y209999D01*
X188290Y209955D01*
X188202Y209605D01*
X188027Y209430D01*
X187589Y208642D01*
X187458Y208511D01*
X186845Y208336D01*
X184920Y208161D01*
X184438Y207767D01*
X183913Y207417D01*
X183738Y207242D01*
X183607Y206760D01*
X183432Y206323D01*
X183257Y206060D01*
X182819Y205797D01*
X182775Y205316D01*
X182863Y205053D01*
X183300Y204266D01*
X183476Y204091D01*
X183826Y202953D01*
X183738Y202603D01*
X183300Y201990D01*
X182819Y201771D01*
X181856Y201246D01*
X181244Y200983D01*
X180675Y200852D01*
X180193Y200721D01*
X179843Y200633D01*
X178224Y200765D01*
X177699Y200852D01*
X177261Y201115D01*
X177174Y201290D01*
X176780Y201421D01*
X176211Y201640D01*
X175642Y202384D01*
X175204Y202646D01*
X175161Y203040D01*
X175642Y203522D01*
X176079Y203609D01*
X176211Y203478D01*
X176298Y202953D01*
X176517Y202734D01*
X177392Y202646D01*
X177655Y202209D01*
X178968Y201596D01*
X180719Y201684D01*
X181112Y201990D01*
X181025Y203916D01*
X180937Y204178D01*
X180850Y204528D01*
X180675Y204966D01*
X180543Y205097D01*
X178443Y205010D01*
X177918Y204660D01*
X177743Y204747D01*
X177480Y204835D01*
X176823Y204528D01*
X176517Y204660D01*
X176298Y205228D01*
X176211Y205666D01*
X175905Y205973D01*
X175642Y206060D01*
X175511Y206191D01*
X175423Y206541D01*
X175554Y207023D01*
X175686Y207329D01*
X176079Y207373D01*
X176298Y207242D01*
X176386Y206891D01*
X176517Y206323D01*
X176955Y206148D01*
X177611Y206454D01*
X177786Y206279D01*
X178005Y205710D01*
X178180Y205535D01*
X178443Y205622D01*
X180018Y205710D01*
X180281Y205622D01*
X180762Y205491D01*
X180894Y205360D01*
X181244Y205272D01*
X181638Y205491D01*
X181550Y205754D01*
X181244Y205973D01*
X181112Y206366D01*
X181200Y207417D01*
X181638Y208380D01*
X181769Y209211D01*
X181813Y209780D01*
X181725Y210043D01*
X181638Y210393D01*
X181681Y211312D01*
X181594Y211662D01*
X181112Y212668D01*
X181025Y213018D01*
X181112Y213369D01*
X181813Y213456D01*
X182119Y213675D01*
X182250Y213806D01*
X182338Y213981D01*
X182775Y214331D01*
X182863Y214682D01*
X182775Y215382D01*
X182425Y215994D01*
X181988Y215032D01*
X181594Y214288D01*
X181419Y214200D01*
X181025Y213806D01*
X180981Y213675D01*
X180543Y213762D01*
X180412Y213894D01*
X180237Y214506D01*
X180018Y214900D01*
X179143Y214813D01*
X178837Y214506D01*
X178487Y213719D01*
X177874Y212406D01*
X177743Y211924D01*
X177086Y210830D01*
X176955Y210699D01*
X176430Y210612D01*
X176298Y210480D01*
X176386Y210218D01*
X176692Y210174D01*
X176955Y210261D01*
X177261Y210130D01*
X177436Y209430D01*
X177349Y208117D01*
X177042Y207548D01*
X176692Y207635D01*
X176648Y208029D01*
X176823Y208467D01*
X176605Y208948D01*
X176255Y209036D01*
X176079Y208948D01*
X175686Y208204D01*
X175598Y207854D01*
X175467Y207548D01*
X174767Y207635D01*
X174548Y207767D01*
X174460Y207942D01*
X174241Y208248D01*
X173541Y208423D01*
X171878Y208511D01*
X171090Y209123D01*
X170784Y209430D01*
X170697Y209605D01*
X170521Y209780D01*
X170346Y210305D01*
X170478Y210612D01*
X170653Y210524D01*
X170872Y210305D01*
X170959Y210130D01*
X171090Y209999D01*
X171703Y209911D01*
X172097Y210218D01*
X172141Y210612D01*
X172053Y211049D01*
X171747Y211530D01*
X171616Y211662D01*
X171441Y211749D01*
X171134Y211968D01*
X171047Y212143D01*
X170653Y212625D01*
X170434Y212843D01*
X170259Y213281D01*
X170346Y214506D01*
X170565Y214725D01*
X170872Y214419D01*
X171003Y213937D01*
X171441Y213412D01*
X171703Y213500D01*
X171834Y213631D01*
X171966Y214113D01*
X172010Y214944D01*
X171572Y215907D01*
X171484Y217045D01*
X171572Y217220D01*
X171922Y218007D01*
X172010Y218183D01*
X172228Y218489D01*
X172403Y218577D01*
X172929Y218927D01*
X173060Y218795D01*
X172972Y218183D01*
X173060Y217570D01*
X173629Y217526D01*
X174416Y217964D01*
X174548Y218095D01*
X174635Y219496D01*
X174854Y219802D01*
X175467Y220152D01*
X175598Y220283D01*
X175686Y220458D01*
X176255Y221552D01*
X176605Y221640D01*
X176823Y221421D01*
X176780Y219364D01*
X176955Y219102D01*
X177480Y219189D01*
X177874Y219583D01*
X177961Y219758D01*
X178224Y220196D01*
X178268Y220414D01*
X178093Y220852D01*
X177874Y221334D01*
X177918Y221815D01*
X178268Y221902D01*
X178880Y221990D01*
X179274Y222384D01*
X179449Y222821D01*
X179362Y223872D01*
X179056Y224178D01*
X178880Y224266D01*
X178662Y224485D01*
X178749Y224922D01*
X178968Y225054D01*
X179362Y224835D01*
D02*
G37*
G36*
X189165Y215294D02*
X189077Y214769D01*
Y214682D01*
X188771Y214375D01*
X188508Y214288D01*
X188465Y214682D01*
X188727Y214944D01*
X188815Y215119D01*
X189034Y215338D01*
X189165Y215294D01*
D02*
G37*
G36*
X162644Y206279D02*
X162819Y205841D01*
X162732Y205491D01*
X162557Y205053D01*
X162469Y204703D01*
X162557Y204266D01*
X162688Y204134D01*
X163301Y204047D01*
X163607Y203828D01*
X163694Y203653D01*
X163826Y203522D01*
X164176Y203609D01*
X164482Y203916D01*
X164570Y204091D01*
X164876Y204397D01*
X165489Y204310D01*
X165970Y204003D01*
X166276Y203347D01*
X166452Y203259D01*
X166758Y202953D01*
X166670Y202340D01*
X166364Y202034D01*
X165926Y201859D01*
X165883Y202078D01*
X166058Y202515D01*
X166145Y202865D01*
X166058Y203215D01*
X165489Y203259D01*
X165095Y202953D01*
X165007Y202778D01*
X164788Y202559D01*
X164088Y202296D01*
X163957Y202165D01*
X164044Y201815D01*
X164263Y201596D01*
X164745Y201465D01*
X165182Y201290D01*
X165270Y200940D01*
X164876Y200458D01*
X164701Y200371D01*
X163913Y200021D01*
X163607Y200152D01*
X163519Y200502D01*
X163563Y201071D01*
X163432Y201377D01*
X162907Y201727D01*
X162732Y201903D01*
X162819Y202253D01*
X162950Y202384D01*
X163519Y202603D01*
X163607Y202865D01*
X163519Y203215D01*
X163082Y203303D01*
X162775Y203434D01*
X162557Y203653D01*
X162469Y204178D01*
X161988Y204222D01*
X161462Y204047D01*
X161200Y203609D01*
X159712Y204310D01*
X159099Y204222D01*
X158880Y204003D01*
X158793Y203828D01*
X158486Y203522D01*
X157874Y203347D01*
X157524Y203434D01*
X157392Y203566D01*
X157305Y204091D01*
X157086Y204310D01*
X156736Y204222D01*
X156605Y204091D01*
X156692Y203566D01*
X156824Y203434D01*
X156999Y203347D01*
X157130Y203215D01*
X157042Y202778D01*
X156911Y202646D01*
X156211Y202384D01*
X155379Y201815D01*
X155292Y201640D01*
X155029Y201027D01*
X154898Y200546D01*
X154241Y199277D01*
X153804Y198314D01*
X153891Y197789D01*
X154154Y197351D01*
X154373Y197132D01*
X154548Y197045D01*
X154942Y196651D01*
X155073Y196169D01*
X154810Y195819D01*
X154373Y195557D01*
X154241Y195163D01*
X153979Y194288D01*
X154066Y193412D01*
X154504Y192712D01*
X154592Y192362D01*
X154548Y192143D01*
X153935Y192056D01*
X153454Y191924D01*
X153147Y191706D01*
X152841Y191399D01*
X152928Y190962D01*
X153104Y190524D01*
X152885Y190217D01*
X152228Y189999D01*
X152184Y189517D01*
X152228Y188948D01*
X152009Y188905D01*
X151747Y188992D01*
X151397Y189080D01*
X150915Y188948D01*
X150609Y188730D01*
X150084Y188380D01*
X148508Y188467D01*
X148246Y188555D01*
X147108Y188467D01*
X146495Y188555D01*
X146364Y188686D01*
X146451Y189211D01*
X146583Y189342D01*
X148333Y189430D01*
X148771Y189605D01*
X149296Y189692D01*
X149384Y190130D01*
X149559Y190568D01*
X149865Y190874D01*
X149953Y191224D01*
X149690Y191662D01*
X149515Y191837D01*
X149427Y192187D01*
X149777Y192537D01*
X149690Y192887D01*
X149296Y192931D01*
X149077Y192712D01*
X149033Y192318D01*
X148246Y191968D01*
X147896Y191881D01*
X147458Y191968D01*
X147283Y192143D01*
X146889Y192274D01*
X146977Y192800D01*
X147195Y193018D01*
X147546Y192931D01*
X148158Y192668D01*
X148465Y192887D01*
X148683Y193368D01*
X149121Y193544D01*
X149734Y193719D01*
X150303Y193850D01*
X150609Y194069D01*
X150915Y194375D01*
X151003Y194550D01*
X151090Y194813D01*
X151134Y195207D01*
X151047Y195644D01*
X150872Y195819D01*
X149865Y195951D01*
X149515Y196038D01*
X148946Y196344D01*
X147896Y196257D01*
X147633Y196169D01*
X147458D01*
X147283Y196257D01*
X147239Y196476D01*
X147458Y196870D01*
X147633Y196957D01*
X147896Y197045D01*
X148246Y197132D01*
X149033Y197045D01*
X149471Y196870D01*
X150084Y196957D01*
X150259Y197132D01*
X150390Y197176D01*
X150303Y197351D01*
X149865Y197439D01*
X149690Y197526D01*
X149777Y197964D01*
X150215Y198401D01*
X150303Y199014D01*
X150215Y199714D01*
X148990Y200327D01*
X148508Y200458D01*
X147195Y200371D01*
X146714Y200765D01*
X146583Y201071D01*
X147020Y201246D01*
X148683Y201158D01*
X148946Y201071D01*
X149909Y201158D01*
X150040Y201290D01*
X149953Y201727D01*
X149865Y201990D01*
X149953Y202165D01*
X150215Y202428D01*
X150259Y202646D01*
X149909Y203172D01*
X149734Y203259D01*
X149121Y203522D01*
X148683Y203697D01*
X148640Y203916D01*
X149209Y203959D01*
X149471Y203872D01*
X149821Y203784D01*
X151047Y203697D01*
X151309Y203609D01*
X151659Y203697D01*
X151791Y203828D01*
X151878Y204353D01*
X152009Y204572D01*
X152360Y204660D01*
X152753Y204616D01*
X152885Y204134D01*
X153060Y203959D01*
X153235Y204047D01*
X153279Y204441D01*
X153016Y205053D01*
X153322Y205447D01*
X154285Y205360D01*
X154898Y205097D01*
X156211Y205185D01*
X156999Y205535D01*
X157611Y205885D01*
X158049Y206323D01*
X158399Y206410D01*
X159012Y206498D01*
X159537Y206323D01*
X159668Y206191D01*
X159975Y205622D01*
X161112Y205447D01*
X161375Y205185D01*
X161594Y205228D01*
X161681Y205491D01*
X161594Y205754D01*
X161506Y206366D01*
X161594Y206629D01*
X162075Y206673D01*
X162644Y206279D01*
D02*
G37*
G36*
X146014Y201202D02*
X145882Y201071D01*
X145620Y201158D01*
X145576Y201202D01*
X145707Y201333D01*
X145882D01*
X146014Y201202D01*
D02*
G37*
G36*
X213629Y201246D02*
X213673Y201202D01*
X213541Y201071D01*
X213104Y200983D01*
X212841Y201158D01*
X213279Y201333D01*
X213454D01*
X213629Y201246D01*
D02*
G37*
G36*
X159624Y201684D02*
X159931Y201377D01*
X160018Y201027D01*
X159799Y200633D01*
X159537Y200546D01*
X159449D01*
X159012Y200633D01*
X158530Y201027D01*
X158618Y201640D01*
X158837Y201859D01*
X159187Y201946D01*
X159624Y201684D01*
D02*
G37*
G36*
X197567Y206629D02*
X197655Y206366D01*
X197567Y206104D01*
X197480Y205316D01*
X197786Y205010D01*
X198180Y204966D01*
X198487Y205272D01*
X198662Y205360D01*
X199449Y205973D01*
X199712Y206323D01*
X200150Y206498D01*
X201112Y206410D01*
X201288Y206235D01*
X201419Y206191D01*
X201506Y206016D01*
X201725Y205710D01*
X202338Y205535D01*
X203301Y205097D01*
X203651Y205010D01*
X203913Y205097D01*
X204613Y205272D01*
X205839Y205360D01*
X206058Y205141D01*
X206145Y204966D01*
X206276Y204835D01*
X206714Y204660D01*
X207108Y204441D01*
X207196Y204091D01*
X207108Y203653D01*
X207020Y203390D01*
X207064Y203172D01*
X207414Y203259D01*
X207765Y203609D01*
X208465Y203784D01*
X209690Y203872D01*
X209953Y203959D01*
X210347Y203916D01*
X210259Y203653D01*
X209559Y203390D01*
X209384Y203215D01*
X209296Y203040D01*
X208902Y202559D01*
X208683Y202165D01*
X208771Y201815D01*
X209165Y201684D01*
X209515Y202034D01*
X210040Y201946D01*
X210172Y201815D01*
X210040Y201684D01*
X209603Y201509D01*
X209471Y201377D01*
X209559Y201027D01*
X209778Y200808D01*
X210390Y200896D01*
X210653Y201158D01*
X211003Y201246D01*
X211222Y201290D01*
X212010Y201202D01*
X212360Y201115D01*
X212535Y201027D01*
X212272Y200590D01*
X211966Y200283D01*
X210915Y200371D01*
X210828Y200458D01*
X210565Y200371D01*
X210215Y200283D01*
X209384Y200152D01*
X209209Y200064D01*
X209165Y199671D01*
X209253Y198970D01*
X209340Y198620D01*
X209384Y197701D01*
X209121Y197088D01*
X209209Y196913D01*
X209603Y196870D01*
X210215Y197132D01*
X211090Y197045D01*
X211266Y197132D01*
X211528Y197045D01*
X211703Y196957D01*
X211835Y196826D01*
X212053Y196344D01*
X212491Y196169D01*
X212622Y196038D01*
X212666Y195732D01*
X212491Y195294D01*
X212316Y195207D01*
X212185Y195338D01*
X212010Y195775D01*
X211922Y196213D01*
X211791Y196344D01*
X210959Y196301D01*
X210478Y196344D01*
X210215Y196257D01*
X209734Y196126D01*
X209340Y195994D01*
X208990Y195907D01*
X207983Y195688D01*
X207808Y195600D01*
X207896Y195163D01*
X208333Y194725D01*
X208421Y194550D01*
X208815Y193981D01*
X208990Y193894D01*
X209427Y193719D01*
X209997Y193587D01*
X210347Y193412D01*
X210434Y193062D01*
X210522Y192887D01*
X210653Y192756D01*
X210872Y192712D01*
X210915Y192756D01*
X211003Y192668D01*
X211090Y192756D01*
X211178Y192668D01*
X211266Y192756D01*
X211528Y192668D01*
X212141Y192581D01*
X213060Y191662D01*
X213147Y191487D01*
X213498Y190962D01*
X213541Y190830D01*
X214417Y190743D01*
X214679Y190655D01*
X215511Y190524D01*
X215817Y190393D01*
X215861Y190261D01*
X215467Y190130D01*
X213891Y190217D01*
X213673Y190349D01*
X213410Y190787D01*
X212666Y191005D01*
X212228Y191268D01*
X212097Y191399D01*
X212010Y191749D01*
X211922Y192012D01*
X211791Y192143D01*
X211178Y191881D01*
X210478Y191968D01*
X210215Y192056D01*
X209646Y191749D01*
X209559Y191574D01*
X209384Y191137D01*
X209340Y190918D01*
X209427Y190568D01*
X209690Y190305D01*
X209865Y190217D01*
X210084Y190086D01*
X210172Y189911D01*
X210478Y189605D01*
X210828Y189517D01*
X211441Y189342D01*
X211791Y189255D01*
X212754Y189167D01*
X212885Y189036D01*
X213016Y188555D01*
X213279Y188467D01*
X213979Y188642D01*
X214504Y188555D01*
X214810Y188248D01*
X214898Y188073D01*
X215292Y187942D01*
X216123Y188073D01*
X216561Y188161D01*
X217480Y188204D01*
X217699Y187986D01*
X217611Y187723D01*
X216955Y187329D01*
X215554Y187417D01*
X215292Y187504D01*
X214854Y187417D01*
X214723Y187023D01*
X214504Y186454D01*
X214417Y186366D01*
X214198Y186935D01*
X214067Y187417D01*
X213104Y187942D01*
X212841Y188380D01*
X211966Y188467D01*
X211616Y188555D01*
X210478Y188467D01*
X210215Y188380D01*
X209603Y188292D01*
X209165Y188380D01*
X208859Y188686D01*
X208771Y188861D01*
X208377Y188992D01*
X207327Y188905D01*
X207020Y189123D01*
X206933Y189474D01*
X206802Y189955D01*
X206627Y190130D01*
X206101Y190217D01*
X205883Y190436D01*
X205839Y190743D01*
X206014Y191005D01*
X206189Y191093D01*
X206233Y191312D01*
X205795Y191749D01*
X205751Y191881D01*
X205139Y192056D01*
X204526Y192143D01*
X204263Y192056D01*
X203957Y191749D01*
X203870Y191574D01*
X203651Y191355D01*
X203301Y191268D01*
X203082Y191137D01*
X203169Y190874D01*
X203563Y190830D01*
X203826Y190918D01*
X204263Y190830D01*
X204351Y190130D01*
X204570Y189824D01*
X205007Y189649D01*
X205182Y189298D01*
X205051Y189167D01*
X204613Y189255D01*
X204395Y189474D01*
X204307Y189649D01*
X204176Y189780D01*
X203388Y190130D01*
X202775Y190042D01*
X202513Y189955D01*
X201638Y190042D01*
X201375Y189955D01*
X200412Y190042D01*
X200018Y190349D01*
X199756Y190787D01*
X199537Y191005D01*
X199099Y191268D01*
X199012Y191618D01*
X198924Y192056D01*
X198793Y192537D01*
X198880Y192800D01*
X199274Y192931D01*
X200500Y193018D01*
X201419Y193587D01*
X201594Y194288D01*
X201681Y194813D01*
X201856Y195250D01*
X201769Y195425D01*
X201331Y196388D01*
X201069Y196826D01*
X200894Y197001D01*
X200718Y197614D01*
X200806Y197964D01*
X200937Y198095D01*
X201375Y198008D01*
X201506Y197876D01*
X201681Y197176D01*
X202119Y196563D01*
X202206Y196213D01*
X202163Y195207D01*
X202644Y194725D01*
X202732Y194550D01*
X203038Y194244D01*
X203213Y194156D01*
X203432Y193938D01*
X203519Y193587D01*
X203432Y193062D01*
X203082Y192887D01*
X203126Y192668D01*
X203563Y192581D01*
X204176Y192843D01*
X204657Y192975D01*
X205139Y193281D01*
X205358Y193500D01*
X205445Y193675D01*
X205533Y193938D01*
X205445Y194375D01*
X205139Y194594D01*
X204832Y194900D01*
X204657Y195688D01*
X204045Y196038D01*
X203957Y196301D01*
X204176Y196607D01*
X204526Y196695D01*
X204701Y196607D01*
X204789Y196082D01*
X204876Y195907D01*
X205489Y195994D01*
X205708Y196213D01*
X205620Y196651D01*
X205489Y196782D01*
X204920Y197001D01*
X204832Y197264D01*
X204920Y198751D01*
X204832Y199014D01*
X204745Y199364D01*
X204789Y200371D01*
X204176Y200721D01*
X204045Y201115D01*
X203826Y201684D01*
X203213Y202034D01*
X203082Y202165D01*
X202994Y202340D01*
X202863Y202471D01*
X202425Y202646D01*
X202250Y202734D01*
X202119Y202865D01*
X202031Y203128D01*
X202294Y203566D01*
X202557Y203828D01*
X202644Y204091D01*
X202513Y204310D01*
X202163Y204397D01*
X201725Y204134D01*
X201375Y203609D01*
X200937Y203434D01*
X200587Y203522D01*
X200106Y203916D01*
X200018Y204091D01*
X199624Y204222D01*
X198837Y204134D01*
X198574Y203872D01*
X198224Y203784D01*
X198049Y203872D01*
X197786Y204134D01*
X196999Y204047D01*
X196517Y203653D01*
X196386Y203522D01*
X195554Y203128D01*
X195467Y202778D01*
Y202690D01*
X195511Y202559D01*
X195992Y202428D01*
X196255Y202165D01*
X196167Y201727D01*
X196036Y201596D01*
X195861Y201509D01*
X195642Y201377D01*
X195554Y201027D01*
X195511Y200021D01*
X194635Y200108D01*
X194329Y200414D01*
X194417Y201202D01*
X194635Y201421D01*
X195073Y201596D01*
X195292Y201815D01*
X195336Y202384D01*
X195248Y202559D01*
X194373Y202646D01*
X194023Y202997D01*
X193673Y203084D01*
X193104Y203215D01*
X192929Y203653D01*
X193191Y204091D01*
X193935Y204310D01*
X194373Y204222D01*
X194810Y203784D01*
X195073Y203697D01*
X195686Y203959D01*
X196036Y204047D01*
X196430Y204266D01*
X196517Y204878D01*
X196430Y205141D01*
X196342Y205491D01*
X196430Y206191D01*
X196649Y206498D01*
X197261Y206673D01*
X197567Y206629D01*
D02*
G37*
G36*
X186189Y200239D02*
X186276Y199889D01*
X186058Y199320D01*
X185883Y199145D01*
X185270Y198795D01*
X184920Y198445D01*
X184482Y198270D01*
X184132Y198182D01*
X183476Y198051D01*
X183038Y197439D01*
X181287Y197351D01*
X180631Y197307D01*
X180368Y197395D01*
X180018Y197482D01*
X179581Y197657D01*
X179143Y197482D01*
X178793Y197395D01*
X177349Y197351D01*
X176167Y197482D01*
X175817Y197570D01*
X175467Y197920D01*
X174373Y198314D01*
X173935Y198576D01*
X173760Y199189D01*
X173716Y199583D01*
X173016Y199671D01*
X172885Y199802D01*
X172797Y200064D01*
X172885Y200327D01*
X172972Y200502D01*
X173191Y200721D01*
X173716Y200633D01*
X173804Y200283D01*
X173891Y199758D01*
X174154Y199846D01*
X174635Y200327D01*
X174679Y200458D01*
X175029Y200546D01*
X175467Y200458D01*
X175686Y200239D01*
X175598Y199889D01*
X175511Y199627D01*
X175598Y199014D01*
X175992Y198445D01*
X176780Y198533D01*
X177174Y198839D01*
X177086Y199452D01*
X177217Y199583D01*
X177830Y199758D01*
X178705Y199671D01*
X179099Y199364D01*
X178837Y198751D01*
X178924Y198401D01*
X179143Y198182D01*
X179493Y198095D01*
X179843Y198182D01*
X180456Y198533D01*
X180587Y198664D01*
X180368Y198883D01*
X179931Y199145D01*
X179799Y199277D01*
X179887Y199452D01*
X180106Y199671D01*
X180368Y199758D01*
X180456D01*
X180806Y199846D01*
X181069Y199758D01*
X181638Y199539D01*
X181944Y199408D01*
X182075Y199277D01*
X182163Y198751D01*
X182469Y198445D01*
X183082Y198270D01*
X183344Y198358D01*
X183388Y199714D01*
X183300Y199977D01*
X183344Y200283D01*
X183782Y200458D01*
X184307Y200371D01*
X184745Y199933D01*
X185095Y200021D01*
X185401Y200327D01*
X185489Y200677D01*
X185401Y200852D01*
X185532Y200896D01*
X186189Y200239D01*
D02*
G37*
G36*
X200543Y201727D02*
X200894Y201377D01*
X200806Y200940D01*
X200500Y200721D01*
X200281Y200502D01*
X200368Y200064D01*
X200675Y199758D01*
X201288Y199671D01*
X201769Y199714D01*
X202206Y199627D01*
X202644Y199364D01*
X202732Y199014D01*
X202644Y198664D01*
X202513Y198533D01*
X201900Y198620D01*
X201463Y199058D01*
X200500Y198795D01*
X199712Y198445D01*
X199187Y198533D01*
X199056Y198664D01*
X199143Y199102D01*
X199362Y199320D01*
X199537Y199408D01*
X199668Y199539D01*
X199843Y199977D01*
X199931Y200239D01*
X199843Y200414D01*
X199800Y200458D01*
X199624Y200633D01*
X199143Y200765D01*
X198968Y200852D01*
X198880Y201202D01*
X199099Y201509D01*
X199712Y201771D01*
X200062Y201859D01*
X200543Y201727D01*
D02*
G37*
G36*
X191572Y198795D02*
X191659D01*
X191791Y198664D01*
X191703Y198401D01*
X191484Y198358D01*
X191266Y198576D01*
X191353Y198839D01*
X191484Y198883D01*
X191572Y198795D01*
D02*
G37*
G36*
X168158Y198751D02*
X168071Y198489D01*
X167589Y198358D01*
X167327Y198445D01*
X167283Y198576D01*
X167502Y198795D01*
X167852Y198883D01*
X168027D01*
X168158Y198751D01*
D02*
G37*
G36*
X159099Y199846D02*
X159449Y199495D01*
X159887Y199408D01*
X160150Y199495D01*
X160368Y199539D01*
X160237Y198970D01*
X160062Y198533D01*
X159449Y198270D01*
X159099Y198358D01*
X159012Y198708D01*
X158837Y198970D01*
X158486Y199058D01*
X158049Y198795D01*
X157786Y198708D01*
X157611D01*
X157568Y198751D01*
X156692Y198839D01*
X156780Y199277D01*
X157174Y199671D01*
X158311Y199758D01*
X158486Y199933D01*
X159099Y199846D01*
D02*
G37*
G36*
X198443Y197264D02*
X198355Y196826D01*
X198311Y196782D01*
X197961Y196870D01*
X197918Y197439D01*
X198224Y197482D01*
X198443Y197264D01*
D02*
G37*
G36*
X185926D02*
X185970Y197220D01*
X186014Y196913D01*
X185883Y196782D01*
X184789Y196826D01*
X184876Y197176D01*
X185270Y197307D01*
X185926Y197264D01*
D02*
G37*
G36*
X174023D02*
X174329Y197045D01*
X174373Y197001D01*
X174329Y196782D01*
X173979Y196695D01*
X173497Y196826D01*
X173235Y197088D01*
X173322Y197264D01*
X173672Y197351D01*
X174023Y197264D01*
D02*
G37*
G36*
X161681Y197701D02*
X161156Y196826D01*
X161025Y196695D01*
X160762Y196607D01*
X160543Y196826D01*
X160631Y197088D01*
Y197176D01*
X160937Y197482D01*
X161112Y197570D01*
X161550Y197745D01*
X161681Y197701D01*
D02*
G37*
G36*
X166452Y198358D02*
X166977Y198270D01*
X167020Y197964D01*
X166670Y197351D01*
X166495Y197001D01*
X166758Y196388D01*
X166802Y196082D01*
X166670Y195775D01*
X166276Y195644D01*
X165708Y195425D01*
X165576Y195294D01*
X165401Y195207D01*
X165139Y195119D01*
X164526Y195294D01*
X164001Y195382D01*
X163388Y195644D01*
X162688Y195557D01*
X161462Y194857D01*
X160850Y194594D01*
X160412Y194681D01*
X160281Y194813D01*
X160193Y194988D01*
Y195075D01*
X160150Y195294D01*
X160281Y195600D01*
X160500Y195819D01*
X161112Y195907D01*
X161375Y195994D01*
X161988Y196432D01*
X162863Y196519D01*
X164657Y196476D01*
X165007Y196563D01*
X165270Y196826D01*
X165357Y197176D01*
X165445Y198664D01*
X165839Y198795D01*
X166452Y198358D01*
D02*
G37*
G36*
X184176Y196301D02*
X184351Y195863D01*
X184263Y195513D01*
X184132Y195469D01*
X183826Y195688D01*
X183738Y196038D01*
X183782Y196344D01*
X184132D01*
X184176Y196301D01*
D02*
G37*
G36*
X174898Y195513D02*
X174854Y195469D01*
X174810Y195513D01*
Y195600D01*
X174854Y195644D01*
X174898Y195513D01*
D02*
G37*
G36*
X149077Y195863D02*
X148990Y195425D01*
X148858Y195294D01*
X148377Y195163D01*
X148071Y195294D01*
X148027Y195425D01*
X148071Y195469D01*
X148290Y195775D01*
X148421Y195907D01*
X149077Y195863D01*
D02*
G37*
G36*
X211397Y195600D02*
X211528Y195119D01*
X211266Y195031D01*
X211003Y195119D01*
X210565Y195382D01*
X210434Y195513D01*
X210522Y195688D01*
X210653Y195819D01*
X211090D01*
X211397Y195600D01*
D02*
G37*
G36*
X146977Y195775D02*
X147064Y194988D01*
Y194900D01*
X147108Y194769D01*
X147414Y194725D01*
X147371Y194594D01*
X147064Y194638D01*
X146320Y194594D01*
X146189Y194725D01*
X146101Y195075D01*
X146189Y195338D01*
X146276Y195513D01*
X146495Y195732D01*
X146845Y195819D01*
X146977Y195775D01*
D02*
G37*
G36*
X212403Y194944D02*
X212535Y194900D01*
X212491Y194594D01*
X211966Y194506D01*
X211747Y194725D01*
X211835Y194900D01*
X211878Y194944D01*
X211966D01*
X212316Y195119D01*
X212403Y194944D01*
D02*
G37*
G36*
X193629Y198926D02*
X193804Y198314D01*
X193716Y197964D01*
X193804Y196913D01*
X194110Y196607D01*
X194548Y196432D01*
X196561Y196519D01*
X196649D01*
X197655Y196388D01*
X197961Y196169D01*
X198311Y195819D01*
X198880Y195600D01*
X199056Y195425D01*
X198968Y195075D01*
X198574Y194594D01*
X198311Y194506D01*
X197086Y195207D01*
X196561Y195557D01*
X195773Y195644D01*
X195511Y195557D01*
X194548Y195119D01*
X194066Y195250D01*
X193673Y195469D01*
X193323Y195557D01*
X192622Y195644D01*
X192491Y195775D01*
X192403Y196038D01*
X192578Y196476D01*
X192666Y196826D01*
X192578Y197176D01*
X192228Y197701D01*
X192141Y198051D01*
X192272Y198182D01*
X192447Y198270D01*
X192754Y198576D01*
X192841Y198751D01*
X192972Y198970D01*
X193323Y199058D01*
X193629Y198926D01*
D02*
G37*
G36*
X213716Y194331D02*
X214679Y193806D01*
X214723Y193675D01*
X214679Y193631D01*
X214635Y193587D01*
X213979Y193544D01*
X213716Y193631D01*
X213147Y193938D01*
X213060Y194288D01*
X213104Y194419D01*
X213716Y194331D01*
D02*
G37*
G36*
X145970Y194244D02*
X146101Y194113D01*
X146058Y193806D01*
X145620Y193631D01*
X145270Y193544D01*
X144176Y193587D01*
X144263Y193762D01*
X144964Y194025D01*
X145095Y194156D01*
X145182D01*
X145226Y194200D01*
X145707Y194331D01*
X145970Y194244D01*
D02*
G37*
G36*
X193935Y194419D02*
X194154Y194200D01*
X194241Y194025D01*
X194373Y193894D01*
X195292Y194025D01*
X195336Y194069D01*
X195423D01*
X196123Y193981D01*
X196605Y193587D01*
X196474Y193456D01*
X195861Y193368D01*
X194810Y193456D01*
X194285Y193806D01*
X193848Y193631D01*
X193498Y193544D01*
X193366Y193675D01*
X193279Y194200D01*
X193410Y194419D01*
X193760Y194506D01*
X193935Y194419D01*
D02*
G37*
G36*
X164088Y193981D02*
X164176D01*
X164307Y193850D01*
X164220Y193500D01*
X164001Y193281D01*
X163519Y193412D01*
X163082Y193675D01*
X163169Y193938D01*
X163563Y194069D01*
X164088Y193981D01*
D02*
G37*
G36*
X162557Y193500D02*
X162513Y193281D01*
X162469Y193237D01*
X162381Y193062D01*
X162250Y192843D01*
X161813Y192931D01*
X161681Y193150D01*
X161988Y193544D01*
X162294Y193587D01*
X162557Y193500D01*
D02*
G37*
G36*
X189384Y194681D02*
X189996Y194331D01*
X190128Y193938D01*
Y193850D01*
X190040Y193587D01*
X189690Y193500D01*
X189384Y193368D01*
X189252Y192887D01*
X189165Y192537D01*
X188815Y192012D01*
X188727Y191749D01*
X189165Y191137D01*
X189296Y190655D01*
X189515Y190349D01*
X189646Y190217D01*
X189821Y190130D01*
X190040Y189911D01*
X190084Y189780D01*
X190522Y189605D01*
X190872Y189517D01*
X191484Y189430D01*
X191791Y189211D01*
X191966Y188773D01*
X191922Y188642D01*
X191572Y188730D01*
X190478Y188598D01*
X190303Y188511D01*
X190259Y187854D01*
X189996Y187942D01*
X189646Y188292D01*
X189121Y188380D01*
X188683Y188117D01*
X188333Y187592D01*
X188202Y187636D01*
X188027Y188248D01*
X187940Y188598D01*
X188027Y188773D01*
X188465Y188948D01*
X188946Y189167D01*
X189559Y189255D01*
X189602Y189561D01*
X189209Y189955D01*
X188771Y190130D01*
X188508Y190042D01*
X187983Y189517D01*
X187765Y189474D01*
X187458Y189605D01*
X187152Y189911D01*
X187196Y191268D01*
X187021Y191530D01*
X186670Y191618D01*
X186276Y191399D01*
X186058Y190830D01*
X185883Y190568D01*
X185620Y190655D01*
X185489Y190787D01*
X185576Y191574D01*
X186101Y192099D01*
X186276Y192537D01*
X186583Y192843D01*
X187108Y192931D01*
X187414Y192274D01*
X187721Y192231D01*
X188115Y192624D01*
X188027Y192887D01*
X187677Y192975D01*
X187458Y193018D01*
X187283Y192931D01*
X187152Y193062D01*
X187239Y193850D01*
X187371Y193981D01*
X187808Y194156D01*
X187983Y194244D01*
X188202Y194463D01*
X188246Y194594D01*
X188421Y194681D01*
X188683Y194769D01*
X189384Y194681D01*
D02*
G37*
G36*
X163257Y191749D02*
X163213Y191618D01*
X162994Y191662D01*
Y191749D01*
X163126Y191881D01*
X163257Y191749D01*
D02*
G37*
G36*
X154023Y191355D02*
X154066Y191224D01*
X154023Y191180D01*
X153935D01*
X153760Y191268D01*
X153716Y191312D01*
X153848Y191443D01*
X154023Y191355D01*
D02*
G37*
G36*
X146977Y192012D02*
X147064Y191749D01*
X147239Y191399D01*
X147108Y191180D01*
X146758Y191093D01*
X146145Y191180D01*
X146014Y191049D01*
X145795Y190480D01*
X145532Y190217D01*
X144657Y190130D01*
X143344Y190217D01*
X143213Y190349D01*
X143344Y190480D01*
X144570Y190568D01*
X144876Y190787D01*
X144920Y190830D01*
X145095Y190918D01*
X145270Y191093D01*
X145707Y191268D01*
X145882Y191355D01*
X146320Y192056D01*
X146583Y192143D01*
X146802Y192187D01*
X146977Y192012D01*
D02*
G37*
G36*
X191047Y193106D02*
X191091Y193062D01*
Y192975D01*
X191266Y192537D01*
X191353Y192099D01*
X191703Y191574D01*
X191616Y191137D01*
X191484Y191005D01*
X190959Y191093D01*
X190828Y191224D01*
X190740Y191574D01*
X190522Y192143D01*
X190478Y192887D01*
X190697Y193193D01*
X191047Y193106D01*
D02*
G37*
G36*
X168421Y192624D02*
X168508Y192449D01*
X168859Y192099D01*
X168771Y191837D01*
X168421Y191487D01*
X168246Y191137D01*
X168202Y191093D01*
X167852Y191005D01*
X167458Y191224D01*
X167371Y191574D01*
X167633Y192012D01*
X167808Y192187D01*
X167896Y192712D01*
X168114Y192931D01*
X168421Y192624D01*
D02*
G37*
G36*
X194460Y192056D02*
X194592Y191924D01*
X194504Y191487D01*
X194154Y190962D01*
X193935Y190568D01*
X193673Y190655D01*
X193498Y190743D01*
X193366Y191137D01*
X193541Y191574D01*
X193629Y191749D01*
Y191837D01*
X193848Y192143D01*
X194154Y192187D01*
X194460Y192056D01*
D02*
G37*
G36*
X170609Y194900D02*
X171003Y194156D01*
X171572Y194025D01*
X171747Y193938D01*
X171834Y193587D01*
X172097Y193150D01*
X172578Y192843D01*
X172797Y192624D01*
X172885Y192449D01*
X173104Y192231D01*
X173279Y192143D01*
X173497Y191662D01*
X173410Y190611D01*
X173191Y190305D01*
X172885Y190349D01*
X172797Y190699D01*
X172710Y191224D01*
X172316Y191793D01*
X171966Y191881D01*
X171484Y191574D01*
X171397Y191399D01*
X171309Y191137D01*
X171397Y190962D01*
X171747Y190611D01*
X171834Y190261D01*
X171747Y189911D01*
X171397Y189824D01*
X170959Y189649D01*
X170784Y189211D01*
X170740Y188817D01*
X170828Y188642D01*
X170872Y188598D01*
X171047Y188161D01*
X170959Y187198D01*
X170740Y186979D01*
X170521Y187023D01*
X170346Y187636D01*
X170259Y188073D01*
X170040Y188292D01*
X169690Y188380D01*
X169252Y188467D01*
X169121Y188598D01*
X169077Y188817D01*
X168465Y188730D01*
X168202Y188642D01*
X167589Y188730D01*
X167283Y188948D01*
X167371Y189211D01*
X167589Y189430D01*
X168508Y189561D01*
X168946Y189649D01*
X168990Y189692D01*
X169209Y189561D01*
X169296Y189123D01*
X169778Y189080D01*
X170171Y189298D01*
X170084Y189736D01*
X169559Y189824D01*
X169384Y189911D01*
X169471Y190261D01*
X169865Y190655D01*
X170303Y190918D01*
X170434Y191049D01*
X170521Y191924D01*
X170434Y192187D01*
X170171Y192624D01*
X170040Y192756D01*
X169865Y192843D01*
X169734Y192975D01*
X169471Y193412D01*
X169034Y193675D01*
X169121Y194025D01*
X169778Y194681D01*
X170390Y194944D01*
X170609Y194900D01*
D02*
G37*
G36*
X165664Y192143D02*
X165795Y192012D01*
X165708Y190436D01*
X165576Y190305D01*
X165314D01*
X165051Y190393D01*
X164920Y190787D01*
X164832Y191487D01*
X164745Y191749D01*
X164832Y192012D01*
X165314Y192231D01*
X165664Y192143D01*
D02*
G37*
G36*
X228158Y190918D02*
X229121Y190480D01*
X230171Y190393D01*
X230565Y189999D01*
X230653Y189824D01*
X230784Y189692D01*
X230959Y189605D01*
X231266Y189298D01*
X231353Y187986D01*
X231528Y187460D01*
X231660Y187329D01*
X231835Y187242D01*
X232053Y187110D01*
X232185Y186629D01*
X232097Y186366D01*
X231660Y186104D01*
X231616Y185972D01*
X231922Y185666D01*
X232535Y185754D01*
X232972Y185929D01*
X234023Y185841D01*
X234154Y185710D01*
X234329Y185010D01*
X234460Y184878D01*
X234898Y184703D01*
X235248Y184616D01*
X235817Y184485D01*
X235730Y184222D01*
X235467Y183609D01*
X235379Y182909D01*
X235161Y182690D01*
X234548Y182603D01*
X233979Y182909D01*
X233935Y183128D01*
X234110Y183303D01*
X234460Y183390D01*
X234679Y183609D01*
X234592Y183872D01*
X234460Y184003D01*
X234198Y184091D01*
X233410Y183740D01*
X232622Y183653D01*
X232403Y183434D01*
X232316Y183259D01*
X232053Y182646D01*
X232141Y181771D01*
X232097Y181202D01*
X231572Y181290D01*
X231266Y181596D01*
X231178Y182209D01*
X231266Y182471D01*
X231441Y183172D01*
X231528Y183784D01*
X232010Y184003D01*
X232185Y184091D01*
X232316Y184222D01*
X232228Y184572D01*
X232097Y184703D01*
X231572Y184616D01*
X231441Y184485D01*
X231266Y184047D01*
X231047Y183828D01*
X230434Y183478D01*
X230390Y183259D01*
X230740Y182471D01*
X230653Y182209D01*
X230565Y181859D01*
X230653Y181596D01*
X230740Y181071D01*
X231266Y180721D01*
X231441Y180546D01*
X231528Y180371D01*
X231747Y180152D01*
X232622Y180064D01*
X232797Y179977D01*
X233016Y179758D01*
X232929Y179408D01*
X232710Y179189D01*
X232360Y179102D01*
X231747Y179189D01*
X231528Y179320D01*
X231178Y179933D01*
X231047Y180064D01*
X230872Y180152D01*
X230347Y180502D01*
X229646Y180414D01*
X229121Y180064D01*
X228508Y179889D01*
X228158Y179802D01*
X227765Y180021D01*
X227546Y180502D01*
X227371Y180589D01*
X227108Y180677D01*
X226495Y181027D01*
X226233Y181290D01*
X225883Y181377D01*
X225183Y181465D01*
X224964Y181946D01*
X225051Y182384D01*
X225270Y182603D01*
X225445Y182690D01*
X225576Y182822D01*
X225314Y183434D01*
X225533Y183740D01*
X226758Y183916D01*
X226889Y184047D01*
X226977Y184485D01*
X227283Y184791D01*
X227633Y184878D01*
X228071Y184791D01*
X228290Y184572D01*
X228377Y184309D01*
X228290Y184047D01*
X228202Y183697D01*
X228290Y183172D01*
X228684Y183040D01*
X229034Y183128D01*
X229165Y183259D01*
X229034Y186104D01*
X228859Y186279D01*
X228508Y186366D01*
X228421D01*
X227983Y186454D01*
X227502Y186060D01*
X227414Y185885D01*
X227196Y185666D01*
X226758Y185491D01*
X226627Y185360D01*
X226539Y185010D01*
X226145Y184878D01*
X225708Y184966D01*
X225576Y185272D01*
X225795Y185491D01*
X226495Y185579D01*
X226627Y185710D01*
X226539Y186323D01*
X226408Y186454D01*
X226058Y186541D01*
X225445Y186454D01*
X225226Y186235D01*
X225183Y186104D01*
X224920Y186016D01*
X224482Y186191D01*
X224220Y186104D01*
X224001Y185797D01*
X223870Y185666D01*
X223519Y185754D01*
X223388Y186498D01*
X222819Y186716D01*
X222600Y186935D01*
X222469Y187504D01*
X222338Y187986D01*
X222425Y188773D01*
X222338Y189036D01*
X222425Y189386D01*
X222688Y189824D01*
X222994Y190042D01*
X223257Y190305D01*
X223694Y190480D01*
X224307Y190217D01*
X224745Y190305D01*
X225183Y190480D01*
X226058Y190568D01*
X226495Y190655D01*
X227108Y190918D01*
X227458Y191005D01*
X228158Y190918D01*
D02*
G37*
G36*
X164132Y190086D02*
X164088Y190042D01*
X163957Y190086D01*
X164088Y190217D01*
X164132Y190086D01*
D02*
G37*
G36*
X158793Y198051D02*
X158705Y197789D01*
X158443Y197526D01*
X158268Y196913D01*
X158049Y196519D01*
X157874Y196432D01*
X157568Y196126D01*
X157480Y195775D01*
X157436Y194419D01*
X157568Y194113D01*
X157699Y193981D01*
X157874Y193894D01*
X158093Y193762D01*
X158180Y193587D01*
X158355Y193412D01*
X158399Y193281D01*
X158837Y193106D01*
X159537Y193018D01*
X159975Y192843D01*
X160412Y192756D01*
X160456Y192624D01*
X160018Y192012D01*
X159931Y191049D01*
X159624Y190743D01*
X159449Y190655D01*
X159318Y190524D01*
X159230Y190349D01*
X158924Y190042D01*
X158574Y189955D01*
X156386Y190042D01*
X156123Y190130D01*
X155686D01*
X155423Y190042D01*
X154723Y189342D01*
X154373Y189255D01*
X154154Y189211D01*
X153979Y189298D01*
X154241Y189736D01*
X154417Y189911D01*
X154679Y190524D01*
X154767Y190874D01*
X154985Y191180D01*
X155117Y191224D01*
X155204Y191399D01*
X155292Y191662D01*
X155248Y192318D01*
X155335Y192843D01*
X155423Y193193D01*
X155598Y193631D01*
X155817Y193938D01*
X155992Y194025D01*
X156079Y194200D01*
X156254Y194375D01*
X156517Y194813D01*
X156867Y195600D01*
X157042Y196038D01*
X157392Y196826D01*
X157480Y197176D01*
X157786Y197482D01*
X158224Y197745D01*
X158574Y198095D01*
X158793Y198051D01*
D02*
G37*
G36*
X167108Y188773D02*
X167195Y188161D01*
X167108Y187898D01*
X167064Y187679D01*
X166364Y187854D01*
X166145Y187898D01*
Y187986D01*
X166233Y188511D01*
X166452Y188730D01*
X166802Y188817D01*
X167108Y188773D01*
D02*
G37*
G36*
X143082Y188117D02*
X143344Y188029D01*
X143694Y187942D01*
X143869Y187854D01*
X143957D01*
X144001Y187636D01*
X143869Y187504D01*
X143519Y187417D01*
X142907Y187329D01*
X141769Y187417D01*
X141287Y187811D01*
X141506Y188117D01*
X141856Y188204D01*
X143082Y188117D01*
D02*
G37*
G36*
X146058Y188467D02*
X146189Y188073D01*
X145795Y187592D01*
X145095Y187242D01*
X145007D01*
X144745Y187154D01*
X144438Y187460D01*
X144351Y187811D01*
X144482Y188292D01*
X144657Y188467D01*
X145270Y188555D01*
X146058Y188467D01*
D02*
G37*
G36*
X218793Y187592D02*
X218837Y187198D01*
X218705Y187067D01*
X218443Y187154D01*
X218399Y187373D01*
X218355Y187417D01*
X218312Y187460D01*
X218530Y187679D01*
X218793Y187592D01*
D02*
G37*
G36*
X169121Y187986D02*
X169034Y186935D01*
X168815Y186541D01*
X168202Y186629D01*
X167589Y186891D01*
X167152Y187154D01*
X167108Y187460D01*
X167327Y187504D01*
X167677Y187154D01*
X167939Y187067D01*
X168421Y187460D01*
X168552Y187854D01*
X168596Y187898D01*
X168684Y188073D01*
X168815Y188204D01*
X169034Y188248D01*
X169121Y187986D01*
D02*
G37*
G36*
X193191Y188161D02*
X193279Y187986D01*
X193454Y187548D01*
Y187110D01*
X193410Y187067D01*
X193147Y186979D01*
X192885Y187067D01*
X192754Y187198D01*
X192535Y187767D01*
X192403Y188073D01*
X192228Y188423D01*
X192622Y188467D01*
X193191Y188161D01*
D02*
G37*
G36*
X166014Y187592D02*
X166058Y187110D01*
X166014Y187067D01*
X165970Y187023D01*
X165883Y186848D01*
X165839Y186804D01*
X165620Y186935D01*
X165708Y187548D01*
X165839Y187679D01*
X166014Y187592D01*
D02*
G37*
G36*
X140675Y187285D02*
X140587Y186673D01*
X140456Y186541D01*
X140324Y186673D01*
X140237Y187285D01*
X140281Y187329D01*
X140324Y187373D01*
X140543Y187417D01*
X140675Y187285D01*
D02*
G37*
G36*
X179931Y188117D02*
X180150Y187898D01*
X180237Y187023D01*
X180150Y186848D01*
X179581Y186541D01*
X179230Y186454D01*
X178880Y186541D01*
X178705Y186716D01*
X178662Y186760D01*
X178749Y187373D01*
X179143Y187854D01*
X179493Y188204D01*
X179931Y188117D01*
D02*
G37*
G36*
X132403Y190918D02*
X132929Y190568D01*
X134066Y190480D01*
X134329Y190393D01*
X134942Y190305D01*
X135292Y190393D01*
X135992Y190305D01*
X136211Y190174D01*
X136298Y189999D01*
X136648Y189386D01*
X136823Y189211D01*
X136911Y189036D01*
X137086Y188598D01*
X136998Y187811D01*
X136867Y187679D01*
X136692Y187592D01*
X136473Y187373D01*
X136342Y186891D01*
X136167Y186629D01*
X135686Y186498D01*
X135511Y186323D01*
X135379Y185841D01*
X135117Y185754D01*
X134591Y185841D01*
X133979Y186279D01*
X133279Y186454D01*
X132403Y186366D01*
X131966Y186191D01*
X130303Y186279D01*
X130128Y186191D01*
X130084Y185710D01*
X130171Y185447D01*
X130084Y184747D01*
X129909Y184309D01*
X129821Y183959D01*
Y183872D01*
X129909Y183172D01*
X130040Y183040D01*
X130653Y183128D01*
X130872Y183347D01*
X130784Y183872D01*
X130609Y184309D01*
X130696Y184660D01*
X131090Y184791D01*
X132141Y184703D01*
X132360Y184134D01*
X132666Y183828D01*
X133891Y183740D01*
X134285Y183084D01*
X134198Y182384D01*
X133760Y181596D01*
X133279Y181115D01*
X132929Y181027D01*
X131834Y180633D01*
X131659Y180458D01*
X131353Y179889D01*
X130740Y179802D01*
X130478Y179889D01*
X130040Y180064D01*
X129427Y180502D01*
X128465Y180064D01*
X128027Y179889D01*
X127721Y179583D01*
X127633Y179408D01*
X127414Y179189D01*
X127064Y179102D01*
X126451Y179189D01*
X126145Y179408D01*
X126058Y179758D01*
X126276Y179977D01*
X126627Y180064D01*
X127283Y180196D01*
X127589Y180327D01*
X127939Y180852D01*
X128158Y181071D01*
X128202Y181290D01*
X127939Y181377D01*
X127108Y181421D01*
X127020Y182034D01*
X127108Y182384D01*
X127152Y182690D01*
X126933Y182909D01*
X126845Y183084D01*
X126670Y183259D01*
X126583Y183434D01*
X126451Y183565D01*
X126014Y183740D01*
X125445Y183872D01*
X125095Y183959D01*
X124526Y184003D01*
X124220Y183784D01*
X124263Y183390D01*
X124745Y183259D01*
X125051Y183303D01*
X125270Y183172D01*
X125182Y182996D01*
X125051Y182865D01*
X123826Y182690D01*
X123694Y182822D01*
X123651Y184178D01*
X123869Y184485D01*
X124176Y184703D01*
X124570Y185097D01*
X124657Y185272D01*
X124963Y185754D01*
X125138Y185841D01*
X125401Y185929D01*
X126451Y185841D01*
X126714Y185754D01*
X127239Y185841D01*
X127371Y186147D01*
X127239Y186366D01*
X126933Y186498D01*
X127020Y186673D01*
X127239Y186716D01*
X127327Y186366D01*
X127414Y186279D01*
X127808Y186498D01*
X127896Y186848D01*
X127808Y187285D01*
X127633Y187723D01*
X127721Y188773D01*
X128114Y189255D01*
X128289Y189430D01*
X128465Y189517D01*
X128683Y189824D01*
X129077Y190305D01*
X129778Y190480D01*
X130215Y190655D01*
X130696Y190787D01*
X131528Y190918D01*
X131791Y191005D01*
X132403Y190918D01*
D02*
G37*
G36*
X124132Y186235D02*
X124088Y186191D01*
X124044Y186323D01*
X124088Y186366D01*
X124132Y186235D01*
D02*
G37*
G36*
X235948Y186104D02*
X236080Y185972D01*
X236036Y185754D01*
X235948D01*
X235598Y185841D01*
X235467Y186060D01*
X235598Y186191D01*
X235948Y186104D01*
D02*
G37*
G36*
X192797Y186629D02*
X192841Y185797D01*
X192710Y185666D01*
X192535Y185754D01*
X192447Y185841D01*
X192403Y185885D01*
X192447Y186716D01*
X192797Y186629D01*
D02*
G37*
G36*
X180981Y185579D02*
X181156Y185491D01*
X181287Y185360D01*
X181375Y185185D01*
X181594Y184966D01*
X182469Y184878D01*
X182863Y184572D01*
X182950Y184397D01*
X183082Y184178D01*
X183651Y183872D01*
X183738Y183697D01*
X184045Y183303D01*
X184220Y183215D01*
X184438Y182996D01*
X184745Y182165D01*
X185226Y181684D01*
X185314Y181333D01*
X185401Y179933D01*
X185357Y179889D01*
X185314Y179845D01*
X185357Y178401D01*
X185270Y178051D01*
X185139Y177745D01*
X184526Y177132D01*
X184438Y176782D01*
X184045Y176301D01*
X183826Y176082D01*
X183563Y175644D01*
X183082Y175338D01*
X182775Y175031D01*
X182688Y174856D01*
X182206Y174725D01*
X181681Y174638D01*
X181069Y174200D01*
X180719Y174112D01*
X180106Y174025D01*
X178443Y174112D01*
X178005Y174200D01*
X177655Y174550D01*
X177217Y174725D01*
X176473Y174856D01*
X176298Y174944D01*
X176036Y175382D01*
X175905Y175513D01*
X175467Y175776D01*
X175248Y175994D01*
X175161Y176257D01*
X174942Y176476D01*
X174635Y176607D01*
X174460Y177045D01*
X174373Y177832D01*
X173979Y178314D01*
X173760Y178795D01*
X173672Y179145D01*
X173760Y180108D01*
X173848Y180371D01*
X173935Y181246D01*
X174066Y181377D01*
X174198Y181421D01*
X174285Y181771D01*
X174373Y182384D01*
X174548Y182822D01*
X174767Y183040D01*
X174942Y183128D01*
X175161Y183347D01*
X175379Y183828D01*
X175554Y183916D01*
X176123Y184309D01*
X176386Y184747D01*
X177174Y184835D01*
X177480Y184966D01*
X177699Y185185D01*
X177918Y185579D01*
X178268Y185666D01*
X179318Y185491D01*
X180325Y185622D01*
X180719Y185666D01*
X180981Y185579D01*
D02*
G37*
G36*
X212710Y186060D02*
X212797Y185797D01*
X212579Y185491D01*
X211966Y185404D01*
X211441Y185491D01*
X211397Y185885D01*
X211791Y186366D01*
X212316D01*
X212710Y186060D01*
D02*
G37*
G36*
X194723Y186191D02*
X194942Y185972D01*
X194854Y185447D01*
X194635Y185404D01*
X194241Y185710D01*
Y186060D01*
Y186147D01*
X194373Y186279D01*
X194723Y186191D01*
D02*
G37*
G36*
X161637Y186716D02*
X161856Y186235D01*
X161769Y185535D01*
X161637Y185404D01*
X161287Y185316D01*
X160981Y185622D01*
X160893Y186147D01*
X160981Y186410D01*
X161069Y186585D01*
X161244Y186760D01*
X161287Y186804D01*
X161637Y186716D01*
D02*
G37*
G36*
X144788Y186410D02*
X144920Y185929D01*
X145007Y185579D01*
X145051Y185447D01*
X144920Y185316D01*
X144526Y185535D01*
X144438Y186147D01*
Y186235D01*
X144570Y186454D01*
X144788Y186410D01*
D02*
G37*
G36*
X192053Y187285D02*
X192141Y187023D01*
X192009Y186891D01*
X191484Y186804D01*
X191091Y186498D01*
X191003Y185885D01*
X191091Y185622D01*
X191003Y185185D01*
X190784Y185141D01*
X190478Y185447D01*
X190390Y186323D01*
X190478Y186585D01*
X190872Y187242D01*
X191047Y187329D01*
X191484Y187504D01*
X191747D01*
X192053Y187285D01*
D02*
G37*
G36*
X168421Y185622D02*
X168508Y185272D01*
X168290Y184966D01*
X168071Y184922D01*
X167896Y185010D01*
X167808Y185360D01*
X168027Y185666D01*
X168114D01*
X168158Y185710D01*
X168202Y185754D01*
X168421Y185622D01*
D02*
G37*
G36*
X166408Y185885D02*
X166320Y185010D01*
X166189Y184878D01*
X165970Y184922D01*
Y185097D01*
Y185185D01*
X166058Y185535D01*
X166276Y185929D01*
X166408Y185885D01*
D02*
G37*
G36*
X142119Y185491D02*
X142250Y185097D01*
X142163Y184572D01*
X141944Y184353D01*
X141594Y184266D01*
X140718Y184353D01*
X140631Y184441D01*
X140587Y184485D01*
X140412Y184660D01*
X140456Y185053D01*
X141025Y184922D01*
X141068Y184878D01*
X141550Y185272D01*
X141769Y185579D01*
X142119Y185491D01*
D02*
G37*
G36*
X219406Y186104D02*
X219537Y185972D01*
X219449Y185447D01*
X218837Y184835D01*
Y184747D01*
X218793Y184703D01*
X218662Y184572D01*
X218574Y184397D01*
X218355Y184178D01*
X217568Y184266D01*
X217130Y184703D01*
X216955Y184791D01*
X216736Y185010D01*
X216780Y185316D01*
X217130Y185229D01*
X217349Y184922D01*
X217480Y184791D01*
X218093Y184878D01*
X218662Y185272D01*
X218837Y185710D01*
X219056Y186191D01*
X219406Y186104D01*
D02*
G37*
G36*
X132885Y185797D02*
X133322Y185622D01*
X133410Y185272D01*
X133322Y185010D01*
X133191Y184878D01*
X132491Y184703D01*
X132316Y184791D01*
X132185Y184922D01*
X132272Y185622D01*
X132403Y185754D01*
X132753Y185841D01*
X132841D01*
X132885Y185797D01*
D02*
G37*
G36*
X237174Y185053D02*
X237436Y184791D01*
X237611Y184703D01*
X237743Y184572D01*
X237699Y184441D01*
X237480Y184397D01*
X236342Y184572D01*
X236473Y184878D01*
X236517Y184922D01*
X236736Y185141D01*
X237174Y185053D01*
D02*
G37*
G36*
X195248Y184878D02*
X195292Y184397D01*
X195248Y184353D01*
X195160D01*
X195073Y184266D01*
X194767Y184485D01*
X194679Y184835D01*
X194810Y185141D01*
X195248Y184878D01*
D02*
G37*
G36*
X214460Y185272D02*
X214110Y184922D01*
X214067Y184878D01*
X213454Y184441D01*
X213016Y184266D01*
X212228Y184178D01*
X211835Y184485D01*
X211878Y184791D01*
X212228Y184878D01*
X212754Y184966D01*
X213716Y185491D01*
X214198Y185885D01*
X214417Y185929D01*
X214460Y185272D01*
D02*
G37*
G36*
X193541Y184835D02*
X193454Y184222D01*
X193410Y184178D01*
X193323D01*
X193191Y184222D01*
X193104Y184572D01*
X193191Y184922D01*
X193410Y184966D01*
X193541Y184835D01*
D02*
G37*
G36*
X121944Y184660D02*
X121856Y184485D01*
X121637Y184266D01*
X121462D01*
X121375Y184178D01*
X120937Y184441D01*
X120893Y184485D01*
X121112Y184703D01*
X121944Y184660D01*
D02*
G37*
G36*
X164613Y186104D02*
X164832Y185885D01*
X164570Y185447D01*
X164395Y185185D01*
Y185097D01*
X164438Y184703D01*
X164351Y184353D01*
X164088Y184091D01*
X163738Y184178D01*
X163694Y184922D01*
X163870Y185360D01*
X163957Y186060D01*
X164088Y186191D01*
X164613Y186104D01*
D02*
G37*
G36*
X147371Y186191D02*
X148158Y185579D01*
X148202Y185185D01*
X148071Y184966D01*
X147633Y184703D01*
X147414Y184485D01*
X147327Y184309D01*
X147108Y184091D01*
X146495Y184178D01*
X146058Y184353D01*
X145707Y184441D01*
X145489Y184572D01*
X145314Y185010D01*
X145445Y185141D01*
X146058Y185491D01*
X146101Y185535D01*
X146495Y186016D01*
X146933Y186279D01*
X147371Y186191D01*
D02*
G37*
G36*
X236080Y182471D02*
X236123Y182428D01*
X236430Y182121D01*
X236386Y181990D01*
X235861Y182078D01*
X235730Y182209D01*
X235773Y182515D01*
X236080Y182471D01*
D02*
G37*
G36*
X123519Y182296D02*
Y182209D01*
X123476Y182078D01*
X123125Y181990D01*
X122950Y182078D01*
X122907Y182121D01*
X123038Y182253D01*
X123388Y182340D01*
X123519Y182296D01*
D02*
G37*
G36*
X202907Y185447D02*
X202951Y185229D01*
X202732Y184922D01*
X202513Y184703D01*
X202338Y184616D01*
X202031Y184309D01*
X201944Y183959D01*
X201769Y182909D01*
X202163Y182865D01*
X202338Y182953D01*
X202732Y182646D01*
X202951Y182253D01*
X203519Y182034D01*
X203432Y181771D01*
X203301Y181640D01*
X202469Y181684D01*
X201988Y181552D01*
X201638Y181640D01*
X201419Y181859D01*
X201244Y182296D01*
X200718Y182822D01*
X200631Y183172D01*
Y183259D01*
X200587Y183303D01*
X200543Y183784D01*
X200894Y184397D01*
X201025Y184528D01*
X201200Y184616D01*
X201681Y185097D01*
X201769Y185272D01*
X202163Y185491D01*
X202907Y185447D01*
D02*
G37*
G36*
X156999Y185404D02*
X157480Y185010D01*
X158093Y184660D01*
X158180Y184485D01*
X158530Y183872D01*
X158705Y183697D01*
X158749Y183478D01*
X158530Y183172D01*
X158355Y182996D01*
X158224Y182428D01*
X157918Y181946D01*
X157436Y181727D01*
X157086Y181640D01*
X156824Y181727D01*
X156473Y182078D01*
X156123Y181815D01*
X156079Y181771D01*
X155598Y181727D01*
X155379Y181946D01*
X155467Y182121D01*
X155861Y182253D01*
X156473Y182340D01*
X156648Y182515D01*
X157042Y182734D01*
X157130Y183084D01*
X157042Y183609D01*
X157130Y183872D01*
X157042Y184485D01*
X156911Y184703D01*
X156736Y184791D01*
X156254Y185185D01*
X156298Y185491D01*
X156999Y185404D01*
D02*
G37*
G36*
X171834Y181946D02*
X171747Y181684D01*
X171528Y181552D01*
X171309Y181684D01*
X171222Y181946D01*
X171265Y181990D01*
X171309Y182034D01*
X171441Y182165D01*
X171834Y181946D01*
D02*
G37*
G36*
X234635Y181027D02*
X234854Y180808D01*
X235029Y180371D01*
X235292Y180108D01*
X235248Y179714D01*
X235073Y179627D01*
X234898Y179452D01*
X234460Y179539D01*
X234417Y179758D01*
X234679Y180021D01*
X234635Y180327D01*
X234460D01*
X233454Y180283D01*
X232710Y180414D01*
X232316Y180808D01*
X232228Y181071D01*
X233323Y181115D01*
X233585Y181027D01*
X233935Y181115D01*
X234635Y181027D01*
D02*
G37*
G36*
X126627D02*
X126670Y180808D01*
X126495Y180633D01*
X126451Y180502D01*
X126276Y180414D01*
X126014Y180327D01*
X125664Y180239D01*
X125226D01*
X125182Y180283D01*
X124832Y180371D01*
X124395Y180546D01*
X124482Y180983D01*
X124876Y181115D01*
X125489Y181027D01*
X125751Y181115D01*
X126627Y181027D01*
D02*
G37*
G36*
X159230Y180896D02*
X159406Y180546D01*
Y180458D01*
X159318Y180196D01*
X159012Y180064D01*
X158705Y180283D01*
X158618Y180546D01*
X158880Y180983D01*
X159012Y181027D01*
X159230Y180896D01*
D02*
G37*
G36*
X199406Y182822D02*
X199449Y182428D01*
X199362Y182078D01*
X199012Y181902D01*
X198968Y181859D01*
X198705Y181596D01*
X198618Y181246D01*
X198880Y180808D01*
X199099Y180589D01*
X199449Y180502D01*
X200062Y180414D01*
X200106Y180371D01*
X199887Y180152D01*
X199537Y180064D01*
X198705Y180021D01*
X198355Y180108D01*
X198180Y180283D01*
X197874Y181115D01*
X197436Y181552D01*
X197086Y181640D01*
X196911Y181727D01*
X196867Y181771D01*
X197743Y181859D01*
X198180Y182121D01*
X198530Y182734D01*
X198749Y182953D01*
X199143Y182996D01*
X199406Y182822D01*
D02*
G37*
G36*
X187108Y180414D02*
X187152Y180371D01*
Y180283D01*
X187064Y180108D01*
X186933Y179977D01*
X186451Y180021D01*
X186539Y180371D01*
X186670Y180502D01*
X187108Y180414D01*
D02*
G37*
G36*
X160806Y182734D02*
X161025Y182253D01*
X161200Y182165D01*
X161637Y181902D01*
X161769Y181771D01*
X161681Y181158D01*
X161287Y180677D01*
X161069Y180458D01*
X160981Y180283D01*
X160675Y179977D01*
X160062Y180064D01*
X160018Y180108D01*
X159975Y180152D01*
X159931Y180458D01*
X160456Y180983D01*
X160543Y181333D01*
X160456Y181771D01*
X160062Y181902D01*
X159887Y181990D01*
X159756Y182121D01*
X159668Y182471D01*
X159931Y182909D01*
X160500Y182953D01*
X160806Y182734D01*
D02*
G37*
G36*
X172491Y180414D02*
X172622Y180283D01*
X172535Y180021D01*
X172403Y179889D01*
X171966Y179977D01*
X171878D01*
X171747Y180196D01*
X171878Y180414D01*
X172228Y180502D01*
X172491Y180414D01*
D02*
G37*
G36*
X152666Y180196D02*
X152578Y179845D01*
X152447Y179714D01*
X152184Y179802D01*
X152141Y179933D01*
Y180021D01*
X152360Y180239D01*
X152666Y180196D01*
D02*
G37*
G36*
X124263Y180327D02*
X124307Y180283D01*
Y180196D01*
X124482Y179583D01*
X124395Y179408D01*
X124263Y179277D01*
X123738Y179364D01*
X123519Y179583D01*
X123432Y179933D01*
X123519Y180196D01*
X123651Y180327D01*
X124001Y180414D01*
X124263Y180327D01*
D02*
G37*
G36*
X207546Y179233D02*
X207502Y179014D01*
X207458Y179058D01*
X207371Y179320D01*
X207414Y179364D01*
X207546Y179233D01*
D02*
G37*
G36*
X206276Y180502D02*
X206758Y180108D01*
X206670Y179758D01*
X206101Y179014D01*
X205883Y179058D01*
X205795Y179408D01*
X205883Y179758D01*
X205926Y179802D01*
X206014Y180239D01*
X206101Y180589D01*
X206276Y180502D01*
D02*
G37*
G36*
X195292Y180458D02*
X195467Y179845D01*
X195773Y179014D01*
X195817Y178795D01*
X195598Y178751D01*
X194985Y179102D01*
X194679Y179408D01*
X194504Y179758D01*
Y179845D01*
X194417Y180108D01*
X194504Y180283D01*
X194635Y180414D01*
X194985Y180502D01*
X195292Y180458D01*
D02*
G37*
G36*
X163826Y181027D02*
X164220Y180721D01*
X164307Y180546D01*
X164657Y180196D01*
X164701Y180064D01*
X164745Y180021D01*
X164570Y179583D01*
X163651Y178664D01*
X163213Y178751D01*
X163169Y179233D01*
X163519Y179758D01*
X163607Y180371D01*
X163432Y180983D01*
X163476Y181115D01*
X163826Y181027D01*
D02*
G37*
G36*
X239318Y178533D02*
X239274Y178401D01*
X238924Y178489D01*
X238880Y178533D01*
X239099Y178576D01*
X239187D01*
X239318Y178533D01*
D02*
G37*
G36*
X236036Y179364D02*
X236167Y179233D01*
X236298Y178751D01*
X236036Y178489D01*
X235773D01*
X235730Y178445D01*
X235686Y178401D01*
X235292Y178620D01*
X235379Y179233D01*
X235598Y179452D01*
X236036Y179364D01*
D02*
G37*
G36*
X228771Y178576D02*
X228815Y178358D01*
X228421Y178314D01*
X228377Y178358D01*
Y178445D01*
X228596Y178664D01*
X228771Y178576D01*
D02*
G37*
G36*
X141112Y178445D02*
X141068Y178314D01*
X141025Y178445D01*
X141068Y178489D01*
X141112Y178445D01*
D02*
G37*
G36*
X123869Y179058D02*
X123782Y178620D01*
X123738Y178576D01*
X123694Y178533D01*
X123563Y178401D01*
X123213Y178314D01*
X122819Y178533D01*
X122907Y178883D01*
X123388Y179102D01*
X123694Y179145D01*
X123869Y179058D01*
D02*
G37*
G36*
X131003Y178401D02*
X131134Y178270D01*
X131090Y178139D01*
X130828Y178226D01*
X130784Y178270D01*
X130609Y178358D01*
X130653Y178489D01*
X131003Y178401D01*
D02*
G37*
G36*
X153935Y178576D02*
X154066Y178445D01*
X153979Y178095D01*
X153585Y178051D01*
X153366Y178270D01*
Y178445D01*
X153410Y178489D01*
X153497Y178664D01*
X153935Y178576D01*
D02*
G37*
G36*
X158968Y178095D02*
X158880Y177920D01*
X158837Y177876D01*
X158749Y177964D01*
X158662D01*
X158268Y178007D01*
X158355Y178182D01*
X158749Y178226D01*
X158968Y178095D01*
D02*
G37*
G36*
X131484Y177832D02*
Y177657D01*
Y177570D01*
X131440Y177438D01*
X131309Y177482D01*
X131222Y177832D01*
X131265Y177964D01*
X131484Y177832D01*
D02*
G37*
G36*
X227765Y177482D02*
X227721Y177176D01*
X227546Y177263D01*
X227502Y177307D01*
X227546Y177526D01*
X227765Y177482D01*
D02*
G37*
G36*
X219406Y178314D02*
X219449Y177920D01*
X219056Y177438D01*
X218837Y177220D01*
X218749Y177045D01*
X218574Y176870D01*
X218530Y176738D01*
X218093Y176563D01*
X217743Y176476D01*
X216517Y176563D01*
X216036Y176957D01*
X215948Y177307D01*
X216167Y177351D01*
X216605Y177176D01*
X216955Y177088D01*
X217830Y177176D01*
X218662Y177745D01*
X218837Y177920D01*
X218924Y178095D01*
X219099Y178358D01*
X219143Y178401D01*
X219406Y178314D01*
D02*
G37*
G36*
X198793Y177832D02*
X198705Y177395D01*
X198574Y177263D01*
X198487D01*
X198443Y177220D01*
X197874Y177001D01*
X197349Y176913D01*
X196561Y176476D01*
X196430Y176344D01*
X196342Y176169D01*
X196123Y175951D01*
X195336Y176038D01*
X194898Y176213D01*
X194723Y176301D01*
X194592Y176695D01*
X194679Y177220D01*
X194898Y177263D01*
X195336Y177088D01*
X195686Y177001D01*
X196298Y177088D01*
X196517Y177307D01*
X196605Y177482D01*
X196736Y177614D01*
X197174Y177789D01*
X198049Y177876D01*
X198793Y177832D01*
D02*
G37*
G36*
X168290Y179539D02*
X168596Y179233D01*
X168508Y178270D01*
X168421Y178007D01*
X168290Y177351D01*
X168071Y177045D01*
X167852Y176826D01*
X167064Y176738D01*
X166758Y176432D01*
X166495Y175994D01*
X166276Y175776D01*
X166101Y175688D01*
X165708Y174856D01*
X165357Y174506D01*
X165270Y174331D01*
X164963Y174025D01*
X164482Y174069D01*
X164570Y174506D01*
X165007Y174944D01*
X165095Y175294D01*
X165182Y175732D01*
X164745Y175907D01*
X164701Y175951D01*
X164351Y176038D01*
X163913Y176213D01*
X162732Y175644D01*
X162469Y174944D01*
X162163Y174638D01*
X161988Y174550D01*
X161462Y174200D01*
X161156Y174244D01*
X161244Y174419D01*
X161375Y174550D01*
X161550Y174638D01*
X161681Y175031D01*
X161769Y175382D01*
X161813Y175776D01*
X162425Y175863D01*
X162557Y175994D01*
X162600Y176738D01*
X162513Y176913D01*
X161375Y177001D01*
X161200Y177176D01*
X161025Y177263D01*
X160806Y177482D01*
X160893Y177657D01*
X161025Y177789D01*
X162425Y177701D01*
X162557Y177570D01*
X162644Y177220D01*
X162688Y177001D01*
X163038Y176913D01*
X163870Y177045D01*
X164220Y177132D01*
X164657Y177307D01*
X165051Y177701D01*
X165489Y177876D01*
X165839Y177964D01*
X166276Y178139D01*
X166408Y178270D01*
X166233Y178970D01*
X166320Y179495D01*
X166452Y179627D01*
X168290Y179539D01*
D02*
G37*
G36*
X208202Y177351D02*
X208246Y177307D01*
Y177220D01*
X208202Y176913D01*
X207852Y176826D01*
X207502Y176913D01*
X207458Y177132D01*
X207589Y177263D01*
X208027Y177438D01*
X208202Y177351D01*
D02*
G37*
G36*
X151878Y177132D02*
X151791Y176870D01*
X151659Y176738D01*
X151397D01*
X151222Y176826D01*
X151090Y176957D01*
X151178Y177307D01*
X151572Y177438D01*
X151878Y177132D01*
D02*
G37*
G36*
X214592Y177001D02*
X214898Y176782D01*
X214985Y176520D01*
X214854Y176388D01*
X213891Y176476D01*
X213760Y176607D01*
Y176695D01*
Y176782D01*
X213848Y176957D01*
X214242Y177088D01*
X214592Y177001D01*
D02*
G37*
G36*
X141244Y177176D02*
X141856Y177088D01*
X142338Y177220D01*
X142819Y177438D01*
X143038Y177395D01*
X143125Y177045D01*
X143038Y176432D01*
X142381Y176388D01*
X142119Y176476D01*
X141725Y176520D01*
X141681Y176563D01*
X141025Y176695D01*
X140587Y176870D01*
X140412Y177045D01*
X140324Y177395D01*
X140412Y177570D01*
X140631Y177614D01*
X141244Y177176D01*
D02*
G37*
G36*
X201594Y176695D02*
X201638Y176651D01*
X202031Y176344D01*
X201988Y176126D01*
X201112Y176213D01*
X200894Y176432D01*
X201112Y176738D01*
X201594Y176695D01*
D02*
G37*
G36*
X154898Y176213D02*
X154942Y176169D01*
X154854Y176082D01*
X154810Y176038D01*
X154504Y176169D01*
X154548Y176301D01*
X154898Y176213D01*
D02*
G37*
G36*
X130959Y176870D02*
X130872Y176344D01*
X130696Y176169D01*
X130653Y176038D01*
X130390Y176126D01*
X129909Y176520D01*
X129734Y176695D01*
X129821Y176870D01*
X130478Y176913D01*
X130565D01*
X130959Y176870D01*
D02*
G37*
G36*
X204920Y176432D02*
X204964Y176388D01*
X205095Y176257D01*
X205007Y176082D01*
X204876Y175951D01*
X204263Y176038D01*
X204220Y176257D01*
X204438Y176476D01*
X204920Y176432D01*
D02*
G37*
G36*
X199362Y176651D02*
X199493Y176520D01*
X199581Y175907D01*
X199012Y175863D01*
X198749Y175951D01*
X197786Y175863D01*
X197392Y175557D01*
X197480Y175031D01*
X197918Y174594D01*
X198005Y174244D01*
X197786Y174025D01*
X197349Y174112D01*
X197217Y174244D01*
X196867Y174856D01*
X196605Y175119D01*
X196561Y175513D01*
X196736Y175688D01*
X197174Y175951D01*
X197305Y176082D01*
X197392Y176257D01*
X197611Y176476D01*
X198180Y176607D01*
X198662Y176738D01*
X198924D01*
X199362Y176651D01*
D02*
G37*
G36*
X161287D02*
X161594Y176344D01*
X161681Y175907D01*
X160762Y175863D01*
X160500Y175951D01*
X160412D01*
X160368Y175994D01*
X160106Y176169D01*
X160193Y176520D01*
X160325Y176651D01*
X160937Y176738D01*
X161287Y176651D01*
D02*
G37*
G36*
X157611Y176738D02*
X157743Y176607D01*
X157655Y176257D01*
X157524Y176038D01*
X157086Y175863D01*
X156911Y175951D01*
X156867Y176169D01*
X157130Y176607D01*
X157349Y176826D01*
X157436D01*
X157611Y176738D01*
D02*
G37*
G36*
X139012Y175907D02*
X138968Y175776D01*
X138749Y175819D01*
X138793Y175951D01*
X138968D01*
X139012Y175907D01*
D02*
G37*
G36*
X159012Y176476D02*
X159143Y176344D01*
X159230Y176169D01*
X159318Y175907D01*
Y175819D01*
X159230Y175382D01*
X159012Y175338D01*
X158880Y175469D01*
X158705Y175907D01*
X158618Y176344D01*
X158749Y176563D01*
X159012Y176476D01*
D02*
G37*
G36*
X229253Y176782D02*
X229034Y176563D01*
X228859Y176476D01*
X228552Y176257D01*
X228465Y175994D01*
Y175907D01*
X228508Y175425D01*
X228421Y175250D01*
X228290Y175294D01*
X228202Y175644D01*
X228290Y175907D01*
X228377Y176607D01*
X228859Y176826D01*
X229253Y176782D01*
D02*
G37*
G36*
X206408Y175294D02*
X206101Y175250D01*
X206058Y175382D01*
X206101Y175425D01*
X206364Y175513D01*
X206408Y175294D01*
D02*
G37*
G36*
X200018Y175732D02*
X200193Y175557D01*
X200106Y175119D01*
X199975Y175075D01*
X199756Y175294D01*
X199668Y175732D01*
X199975Y175776D01*
X200018Y175732D01*
D02*
G37*
G36*
X152972Y175776D02*
X153060D01*
X153279Y175644D01*
X153366Y175382D01*
X153235Y175163D01*
X152885Y175075D01*
X152360Y175163D01*
X152228Y175294D01*
X152316Y175732D01*
X152447Y175863D01*
X152972Y175776D01*
D02*
G37*
G36*
X131047Y175469D02*
X130959Y175119D01*
X130478Y175075D01*
X130434Y175207D01*
Y175294D01*
X130522Y175732D01*
X130653Y175863D01*
X131047Y175469D01*
D02*
G37*
G36*
X226977Y178970D02*
X226889Y178095D01*
X226495Y177964D01*
X226058Y177789D01*
X225926Y177395D01*
X225839Y176344D01*
X225751Y176169D01*
X226014Y175557D01*
X225926Y175031D01*
X225533Y174900D01*
X225095Y174988D01*
X225007Y175075D01*
X224964Y175119D01*
X224832Y175600D01*
X224920Y176038D01*
X225051Y176432D01*
X225007Y177263D01*
X225095Y177701D01*
X225314Y178007D01*
X225620Y178226D01*
X225839Y178533D01*
X226145Y178839D01*
X226758Y179014D01*
X226977Y178970D01*
D02*
G37*
G36*
X145095Y177001D02*
X145357Y176738D01*
X145489Y176695D01*
X145576Y176344D01*
X145489Y175994D01*
X145576Y175644D01*
Y175557D01*
X145489Y175031D01*
X145095Y174900D01*
X144657Y174988D01*
X144526Y175119D01*
X144613Y175469D01*
X144745Y175600D01*
X144920Y175688D01*
X145051Y175994D01*
X144832Y176301D01*
X144351Y176520D01*
X144263Y176782D01*
X144395Y177001D01*
X144745Y177088D01*
X145095Y177001D01*
D02*
G37*
G36*
X133366Y178751D02*
X133585Y178533D01*
X133716Y178051D01*
X133891Y177614D01*
X134023Y177482D01*
X134110Y177307D01*
X134285Y177132D01*
X134460Y176695D01*
X134548Y176082D01*
X134460Y175382D01*
X134154Y175075D01*
X133804Y174988D01*
X133541Y174900D01*
X133060Y174769D01*
X132972Y175031D01*
X133060Y175382D01*
X133104Y175600D01*
X133541Y175688D01*
X133760Y175907D01*
X133672Y176432D01*
X133322Y176957D01*
X133104Y177526D01*
X132622Y178007D01*
X132578Y178314D01*
X132622Y178358D01*
X132710Y178620D01*
X132841Y178751D01*
X133191Y178839D01*
X133366Y178751D01*
D02*
G37*
G36*
X213147Y175031D02*
X213104Y174813D01*
X212754Y174725D01*
X212579Y174813D01*
X212535Y174856D01*
X212622Y175031D01*
X212929Y175163D01*
X213147Y175031D01*
D02*
G37*
G36*
X203388Y175513D02*
X203519Y175119D01*
X203563Y174725D01*
X203476D01*
X203432Y174769D01*
X203126Y174900D01*
X202907Y175119D01*
X202819Y175469D01*
X202863Y175600D01*
X203388Y175513D01*
D02*
G37*
G36*
X156473Y175425D02*
X156517Y175382D01*
X156298Y174988D01*
X156123Y174900D01*
X155686Y174725D01*
X155598D01*
X155554Y175119D01*
X155773Y175513D01*
X156167Y175557D01*
X156473Y175425D01*
D02*
G37*
G36*
X147064Y174856D02*
X146933Y174725D01*
X146758D01*
X146626Y174856D01*
X146714Y175119D01*
X147020Y175163D01*
X147064Y174856D01*
D02*
G37*
G36*
X220544Y175863D02*
X220587Y175819D01*
X220675Y175644D01*
X220806Y175513D01*
X220981Y175425D01*
X221112Y175031D01*
X221025Y174681D01*
X220894Y174550D01*
X220544Y174463D01*
X220500Y174594D01*
X220675Y175031D01*
X220587Y175469D01*
X220237Y175819D01*
X220281Y175951D01*
X220544Y175863D01*
D02*
G37*
G36*
X203870Y174506D02*
X203913Y174463D01*
X203957Y174419D01*
X203913Y174375D01*
X203782Y174506D01*
X203826Y174550D01*
X203870Y174506D01*
D02*
G37*
G36*
X229471Y174463D02*
X229559D01*
X229603Y174244D01*
X229209Y174112D01*
X228902Y174156D01*
X228815Y174419D01*
X228946Y174550D01*
X229471Y174463D01*
D02*
G37*
G36*
X192622Y179539D02*
X192841Y179320D01*
X192797Y178226D01*
X193016Y177920D01*
X193716Y177745D01*
X194154Y177482D01*
X194066Y177220D01*
X193760Y177001D01*
X193716Y176607D01*
X193848Y176476D01*
X194023Y176388D01*
X194241Y176169D01*
X194198Y175163D01*
X194592Y174506D01*
X194504Y174069D01*
X194198Y174025D01*
X193891Y174244D01*
X193804Y174419D01*
X193366Y175031D01*
X193191Y175207D01*
X193016Y175644D01*
X192797Y176213D01*
X192622Y176476D01*
X192272Y176563D01*
X191484Y176651D01*
X191178Y176957D01*
X191003Y177395D01*
X190653Y178182D01*
X190478Y178795D01*
X190434Y179189D01*
X190522Y179539D01*
X190697Y179627D01*
X190784D01*
X192622Y179539D01*
D02*
G37*
G36*
X139624Y174681D02*
X139712Y174331D01*
X139624Y174156D01*
X139493Y174025D01*
X138968Y174112D01*
X138924Y174156D01*
X138749Y174331D01*
X138837Y174506D01*
X139055Y174725D01*
X139406Y174813D01*
X139624Y174681D01*
D02*
G37*
G36*
X132097Y173369D02*
X131966Y173150D01*
X131616Y173062D01*
X131572Y173544D01*
X131659Y173631D01*
Y173719D01*
X131747Y173894D01*
X132053Y174200D01*
X132097Y173369D01*
D02*
G37*
G36*
X142294Y174550D02*
X142338Y174156D01*
X142163Y173981D01*
X142075Y173806D01*
X141900Y173631D01*
X141550Y173018D01*
X141200Y172931D01*
X140806Y172887D01*
X140587Y173106D01*
X140675Y173806D01*
X140893Y174025D01*
X141506Y174375D01*
X141594Y174463D01*
X141638Y174506D01*
X142031Y174638D01*
X142294Y174550D01*
D02*
G37*
G36*
X223651Y173193D02*
Y173106D01*
X223563Y172931D01*
X223432Y172800D01*
X223213Y172843D01*
X223301Y173369D01*
X223432Y173412D01*
X223651Y173193D01*
D02*
G37*
G36*
X148333Y173762D02*
X148596Y173587D01*
X148640Y173544D01*
X148727Y173281D01*
X148115Y172493D01*
X147896Y172274D01*
X147458Y172099D01*
X147020Y171837D01*
X146845Y171662D01*
X146495Y171574D01*
X146058Y171487D01*
X145751Y170830D01*
X145357Y170699D01*
X145182Y170786D01*
X145051Y170918D01*
X144876Y171618D01*
X143913Y171880D01*
X143519Y172274D01*
X142731Y172187D01*
X142338Y171968D01*
X142425Y171618D01*
X142907Y171399D01*
X143082Y171312D01*
X143213Y171180D01*
X143125Y170918D01*
X142994Y170786D01*
X142644Y170699D01*
X142294Y170786D01*
X141988Y171093D01*
X141900Y171268D01*
X141725Y171443D01*
X141638Y171793D01*
X141900Y172056D01*
X141988Y172406D01*
X142119Y172625D01*
X142469Y172712D01*
X143432Y172625D01*
X143694Y172537D01*
X144132Y172625D01*
X144570Y172800D01*
X145445Y172887D01*
X145707Y172800D01*
X146933Y172887D01*
X147414Y173281D01*
X147808Y173850D01*
X148333Y173762D01*
D02*
G37*
G36*
X136998Y173281D02*
X136911Y172843D01*
X136780Y172712D01*
X136648Y172843D01*
X136736Y173281D01*
X136780Y173325D01*
X136867Y173412D01*
X136998Y173281D01*
D02*
G37*
G36*
X130784Y173456D02*
X130872Y173281D01*
X131090Y173062D01*
X131178D01*
X131309Y172931D01*
X131178Y172712D01*
X130828Y172625D01*
X130215Y172712D01*
X130084Y173018D01*
X130171Y173281D01*
X130259Y173631D01*
X130565Y173675D01*
X130784Y173456D01*
D02*
G37*
G36*
X227064Y174681D02*
X227196Y174112D01*
X227371Y173675D01*
X227546Y173325D01*
X228071Y173412D01*
X228333Y173500D01*
X228640Y173369D01*
X228727Y173193D01*
X228815Y173106D01*
X228859Y173062D01*
X228902Y172756D01*
X228771Y172625D01*
X228421Y172537D01*
X227983Y172712D01*
X227765Y172843D01*
X227677Y173018D01*
X227633Y173062D01*
X227546Y172975D01*
X227152Y173106D01*
X227064Y173456D01*
X226627Y174244D01*
X226452Y174681D01*
X226539Y174856D01*
X226846Y174900D01*
X227064Y174681D01*
D02*
G37*
G36*
X217918Y174200D02*
X218355Y173937D01*
X218443Y173587D01*
X218530Y173150D01*
X218749Y172931D01*
X218924Y172493D01*
X218837Y172318D01*
X218705Y172187D01*
X218618D01*
X218399Y172406D01*
X218312Y172668D01*
X218180Y172800D01*
X217830Y172887D01*
X217392Y173062D01*
X217261Y173456D01*
X217174Y174069D01*
X217261Y174244D01*
X217655Y174287D01*
X217918Y174200D01*
D02*
G37*
G36*
X211703Y173762D02*
X211922Y173281D01*
X212010Y173106D01*
X212228Y172887D01*
X212491D01*
X212754Y172800D01*
X213673Y172843D01*
X214373Y172756D01*
X215204Y172712D01*
X215467Y172800D01*
X216517Y172712D01*
X216911Y172493D01*
X216867Y172099D01*
X216517Y172187D01*
X216255Y172274D01*
X215861Y172318D01*
X215554Y172099D01*
X215423Y171968D01*
X215336Y171793D01*
X215204Y171662D01*
X214854Y171574D01*
X214285Y171705D01*
X213716Y172012D01*
X213279Y171924D01*
X212841Y171662D01*
X212535Y171618D01*
X212185Y171705D01*
X211878Y171924D01*
X211703Y172099D01*
X211266Y172274D01*
X210828Y172537D01*
X210609Y172756D01*
X210434Y173193D01*
X210522Y173544D01*
X211090Y173762D01*
X211441Y173850D01*
X211703Y173762D01*
D02*
G37*
G36*
X137174Y172056D02*
X137130Y171924D01*
X136955Y172012D01*
X136911Y172056D01*
X136955Y172099D01*
X137042D01*
X137174Y172056D01*
D02*
G37*
G36*
X222688Y172143D02*
Y171793D01*
X222644Y171749D01*
X222425Y171705D01*
X222119Y171924D01*
X222075Y171968D01*
X222294Y172187D01*
X222688Y172143D01*
D02*
G37*
G36*
X133541Y171749D02*
X133672Y171618D01*
X133629Y171399D01*
X133454D01*
X133410Y171443D01*
X133235Y171618D01*
X133191Y171837D01*
X133541Y171749D01*
D02*
G37*
G36*
X179668Y172975D02*
X180237Y172581D01*
X180150Y171880D01*
X179887Y171443D01*
X179756Y171312D01*
X179143Y171662D01*
X178837Y171968D01*
X178662Y172406D01*
Y172581D01*
Y172668D01*
X178793Y172975D01*
X179143Y173062D01*
X179668Y172975D01*
D02*
G37*
G36*
X226758Y172099D02*
X226802Y171705D01*
Y171618D01*
X226714Y171355D01*
X226583Y171224D01*
X225795Y171312D01*
X225751Y171530D01*
X226145Y172099D01*
X226495Y172187D01*
X226758Y172099D01*
D02*
G37*
G36*
X132753Y172537D02*
X132972Y172318D01*
X133016Y172012D01*
X132972Y171968D01*
X132929Y171924D01*
X132666Y171837D01*
X132535Y171705D01*
X132272Y171268D01*
X132141Y171136D01*
X131966Y171224D01*
X131834Y171618D01*
X131922Y171968D01*
X132097Y172143D01*
X132185Y172318D01*
X132491Y172625D01*
X132753Y172537D01*
D02*
G37*
G36*
X213848Y171180D02*
X213629Y170874D01*
X213279Y170961D01*
X213235Y171005D01*
Y171093D01*
X213322Y171355D01*
X213541Y171399D01*
X213848Y171180D01*
D02*
G37*
G36*
X228465Y170830D02*
X228333Y170786D01*
X228290Y170918D01*
X228333Y170961D01*
X228421D01*
X228465Y170830D01*
D02*
G37*
G36*
X217611Y171618D02*
X217261Y171268D01*
X217217Y171224D01*
X216780Y170786D01*
X216430Y170699D01*
X216080Y170786D01*
X215861Y171005D01*
X215905Y171224D01*
X216342Y171399D01*
X216692Y171487D01*
X216911Y171618D01*
X216999Y171793D01*
X217392Y171837D01*
X217611Y171618D01*
D02*
G37*
G36*
X227108Y170699D02*
X227327Y170480D01*
X227239Y170130D01*
X227108Y169999D01*
X227021D01*
X226583Y170086D01*
X226539Y170480D01*
X226846Y170786D01*
X227108Y170699D01*
D02*
G37*
G36*
X225051Y170480D02*
X225139Y170130D01*
Y169955D01*
Y169867D01*
X225226Y169605D01*
X225314Y169430D01*
X225489Y169255D01*
X225620Y168773D01*
X225489Y168467D01*
X225358Y168336D01*
X224657Y168423D01*
X224439Y168642D01*
X224351Y168817D01*
X224132Y169036D01*
X223738Y168729D01*
X223782Y167723D01*
X223607Y167635D01*
X223257Y167985D01*
X222382Y168336D01*
X222075Y168642D01*
X221988Y168817D01*
X221856Y168948D01*
X221419Y169123D01*
X221200Y169342D01*
X221638Y170130D01*
X221769Y170261D01*
X222119Y170349D01*
X222425Y170130D01*
X222600Y169692D01*
X222688Y169517D01*
X222819Y169386D01*
X223432Y169474D01*
X223913Y169867D01*
X224001Y170043D01*
X224307Y170349D01*
X224745Y170524D01*
X225051Y170480D01*
D02*
G37*
G36*
X134416Y170874D02*
X134810Y170480D01*
X134898Y170305D01*
X135336Y169955D01*
X135248Y169605D01*
X134898Y169517D01*
X134723Y169342D01*
X134854Y168861D01*
X134898Y168554D01*
X134679Y168248D01*
X133716Y168336D01*
X133497Y168467D01*
X133410Y168817D01*
X133629Y169386D01*
X133672Y169605D01*
Y169692D01*
X133935Y170130D01*
X134066Y170961D01*
X134416Y170874D01*
D02*
G37*
G36*
X137261Y170305D02*
X137349Y170130D01*
X137830Y169649D01*
X138005Y169561D01*
X138136Y169255D01*
X137830Y168948D01*
X137349Y168817D01*
X136780Y168248D01*
X136342Y168073D01*
X136211Y168029D01*
X136167Y167985D01*
X135729Y168073D01*
X135598Y168204D01*
X135686Y169080D01*
X136080Y169474D01*
X136255Y169561D01*
X136473Y169780D01*
X136780Y170349D01*
X137042Y170436D01*
X137261Y170305D01*
D02*
G37*
G36*
X139449Y166541D02*
X139143Y166498D01*
X139099Y166541D01*
Y166629D01*
X139318Y166673D01*
X139449Y166541D01*
D02*
G37*
%LPC*%
G36*
X193498Y264966D02*
X193235Y264879D01*
X193104Y264747D01*
X193016Y263960D01*
X192929Y263697D01*
X192885Y263128D01*
X193366Y263259D01*
X193541Y263434D01*
X193629Y264047D01*
X193541Y264397D01*
Y264485D01*
X193498Y264966D01*
D02*
G37*
G36*
X166452Y263303D02*
X166320Y263259D01*
X166233Y262909D01*
X166320Y262209D01*
X166364Y262165D01*
X166452D01*
X166539Y262078D01*
X166583Y263084D01*
X166452Y263303D01*
D02*
G37*
G36*
X209165Y252537D02*
X209077Y252450D01*
X209034Y252406D01*
X209253Y252362D01*
X209384Y252493D01*
X209165Y252537D01*
D02*
G37*
G36*
X215029Y243522D02*
X214942D01*
X214417Y243434D01*
X214198Y243215D01*
X214285Y242865D01*
X214854Y242822D01*
X215117Y242909D01*
X215423Y243040D01*
X215511Y243303D01*
X215029Y243522D01*
D02*
G37*
G36*
X146058Y242647D02*
X145970D01*
X145532Y242559D01*
X145489Y242340D01*
X145620Y242209D01*
X145970Y242121D01*
X146845Y242034D01*
X147064Y242078D01*
X146977Y242340D01*
X146758Y242559D01*
X146058Y242647D01*
D02*
G37*
G36*
X141331Y234156D02*
X140718Y234069D01*
X140587Y233938D01*
X140718Y233806D01*
X141331Y233719D01*
X141988Y233763D01*
X141900Y233938D01*
X141769Y234069D01*
X141594D01*
X141331Y234156D01*
D02*
G37*
G36*
X214242Y214025D02*
X213410Y213981D01*
X213366Y213937D01*
X213322Y213806D01*
X213541Y213587D01*
X213979Y213500D01*
X214242Y213587D01*
X214417Y213675D01*
X214460Y213806D01*
X214242Y214025D01*
D02*
G37*
G36*
X143519Y213237D02*
X143169Y213150D01*
X142950Y212931D01*
X142994Y212887D01*
X143038Y212843D01*
X143169Y212712D01*
X143782Y212800D01*
X143913Y212931D01*
X143869Y213150D01*
X143519Y213237D01*
D02*
G37*
G36*
X179756Y220852D02*
X179624Y220721D01*
X179581Y220327D01*
X179668Y220239D01*
X180062Y220458D01*
Y220721D01*
X180018Y220765D01*
X179756Y220852D01*
D02*
G37*
G36*
X179230Y220152D02*
X178749Y219933D01*
X178662Y219320D01*
X178749Y218795D01*
X179143Y218314D01*
X179318Y218226D01*
X179756Y218051D01*
X179887Y218095D01*
X179931Y218139D01*
X180150Y218358D01*
X180237Y218708D01*
X180150Y218970D01*
X179624Y219496D01*
X179406Y220064D01*
X179230Y220152D01*
D02*
G37*
G36*
X176079Y219014D02*
X175905Y218927D01*
X175773Y218795D01*
X175861Y218270D01*
X176255Y217526D01*
X176780Y217614D01*
X176867D01*
X177174Y217920D01*
X177086Y218358D01*
X176692Y218839D01*
X176430Y218927D01*
X176079Y219014D01*
D02*
G37*
G36*
X183782Y218489D02*
X183519Y218401D01*
X183388Y218270D01*
X183476Y217657D01*
X183694Y217439D01*
X184132Y217526D01*
X184263Y217657D01*
X184351Y218007D01*
X184220Y218314D01*
X184176Y218358D01*
X183782Y218489D01*
D02*
G37*
G36*
X178093Y217701D02*
X177874Y217570D01*
X177699Y216870D01*
Y216782D01*
Y216695D01*
X177786Y216082D01*
X177918Y215951D01*
X178793Y216038D01*
X179012Y216170D01*
X179056Y216476D01*
X178880Y216913D01*
X178443Y217614D01*
X178093Y217701D01*
D02*
G37*
G36*
X173891Y216738D02*
X173497Y216432D01*
X173585Y215907D01*
X173891Y215600D01*
X174373Y215469D01*
X174854Y215425D01*
X174898Y215644D01*
X174416Y216563D01*
X174373Y216607D01*
X173891Y216738D01*
D02*
G37*
G36*
X180806Y216213D02*
X180543Y216126D01*
X180500Y216082D01*
Y215994D01*
X180412Y215732D01*
X180500Y215294D01*
X180719Y215250D01*
X180937Y215469D01*
X181025Y215819D01*
X180806Y216213D01*
D02*
G37*
G36*
X177392Y215513D02*
X177261Y215469D01*
X177174Y215119D01*
X177261Y214944D01*
X177392Y214900D01*
X177524Y215032D01*
Y215294D01*
Y215382D01*
X177392Y215513D01*
D02*
G37*
G36*
X185095Y215776D02*
X185007D01*
X184657Y215688D01*
X184526Y215557D01*
X184614Y214769D01*
X184832Y214550D01*
X185182Y214463D01*
X185532Y214550D01*
X185576Y215207D01*
X185270Y215688D01*
X185095Y215776D01*
D02*
G37*
G36*
X173366Y214375D02*
X173016Y214288D01*
X172797Y214069D01*
Y213806D01*
X172754Y213762D01*
X172710Y213544D01*
X172929Y213150D01*
X173454Y213237D01*
X173585Y213631D01*
X173497Y214244D01*
X173366Y214375D01*
D02*
G37*
G36*
X175467Y215250D02*
X175161Y215207D01*
X175073Y214069D01*
X174898Y213894D01*
X174810Y213631D01*
X175161Y213281D01*
X175248Y212931D01*
X175336Y212668D01*
X175905Y212625D01*
X176036Y212756D01*
X175773Y213193D01*
X175336Y213456D01*
X175423Y213806D01*
X175598Y213894D01*
X175642Y213937D01*
X175992Y214025D01*
X176123Y214156D01*
X176211Y214506D01*
X176123Y214857D01*
X175817Y215163D01*
X175467Y215250D01*
D02*
G37*
G36*
X175029Y212450D02*
X174679Y212362D01*
X174548Y211968D01*
X174679Y211749D01*
X175117Y211837D01*
X175161Y212231D01*
X175117Y212275D01*
X175073Y212318D01*
X175029Y212450D01*
D02*
G37*
G36*
X176079Y212537D02*
X176036Y211881D01*
X176079Y211837D01*
X176123Y211793D01*
X176167Y211662D01*
X176517Y211749D01*
X176648Y212143D01*
X176430Y212450D01*
X176079Y212537D01*
D02*
G37*
G36*
X185970Y212450D02*
X185751Y212318D01*
Y212231D01*
X185576Y211793D01*
X185664Y211180D01*
X185883Y211137D01*
X186189Y211443D01*
X186451Y212056D01*
X186408Y212275D01*
X185970Y212450D01*
D02*
G37*
G36*
X175817Y211487D02*
X175379Y211399D01*
X175336Y211355D01*
X175554Y211049D01*
X175817D01*
X175861Y211093D01*
X175948Y211355D01*
X175817Y211487D01*
D02*
G37*
G36*
X175029Y209999D02*
X174723Y209780D01*
X174679Y209736D01*
X174635Y209167D01*
X174854Y208861D01*
X175161Y208817D01*
X175642Y209123D01*
X175773Y209255D01*
X175817Y209474D01*
X175686Y209780D01*
X175029Y209999D01*
D02*
G37*
G36*
X153848Y196870D02*
X153410Y196782D01*
X153279Y196388D01*
X153366Y196038D01*
X153760Y195907D01*
X153979Y195951D01*
X154023Y195994D01*
X154066Y196563D01*
X153848Y196870D01*
D02*
G37*
G36*
X150784Y190743D02*
X150653Y190611D01*
Y190524D01*
Y190436D01*
X150872Y190393D01*
X151090Y190524D01*
X151003Y190699D01*
X150784Y190743D01*
D02*
G37*
G36*
X205314Y200808D02*
X205051Y200721D01*
X205007Y200590D01*
X205226Y200546D01*
X205314Y200633D01*
X205358Y200677D01*
X205314Y200808D01*
D02*
G37*
G36*
X202250Y193456D02*
X202206Y193325D01*
X202250Y193281D01*
X202294Y193412D01*
X202250Y193456D01*
D02*
G37*
G36*
X208115Y191881D02*
X208027D01*
X207983Y191837D01*
X208027Y191530D01*
X208202Y191618D01*
X208246Y191749D01*
X208115Y191881D01*
D02*
G37*
G36*
X188596Y193631D02*
X188552Y193587D01*
X188596Y193544D01*
X188640Y193587D01*
X188596Y193631D01*
D02*
G37*
G36*
X188508Y193544D02*
X188465Y193500D01*
X188508Y193456D01*
X188552Y193500D01*
X188508Y193544D01*
D02*
G37*
G36*
Y191530D02*
X188071Y191443D01*
X187940Y191312D01*
Y190962D01*
X187983Y190918D01*
X188158Y190655D01*
X188421Y190568D01*
X188552Y190962D01*
X188508Y191530D01*
D02*
G37*
G36*
X171441Y193018D02*
X170915Y192931D01*
X170872Y192712D01*
X171090Y192406D01*
X171441Y192318D01*
X171659Y192537D01*
Y192624D01*
X171572Y192887D01*
X171441Y193018D01*
D02*
G37*
G36*
X230084Y189342D02*
X229734Y189255D01*
X229603Y189123D01*
X229690Y188511D01*
X229996Y188029D01*
X230434Y188117D01*
X230478Y188248D01*
Y188336D01*
X230347Y188817D01*
X230259Y189167D01*
X230084Y189342D01*
D02*
G37*
G36*
X223782Y189517D02*
X223432Y189430D01*
X223257Y188380D01*
X223213Y187986D01*
X223388Y187548D01*
X223476Y186760D01*
X223607Y186629D01*
X224088Y186673D01*
Y186760D01*
X224176Y186935D01*
X223738Y187898D01*
X223826Y188948D01*
X223913Y189211D01*
X223782Y189517D01*
D02*
G37*
G36*
X231309Y187329D02*
X231047Y187242D01*
X230915Y186848D01*
X231134Y186454D01*
X231353Y186498D01*
X231441Y186848D01*
Y187023D01*
X231397Y187067D01*
X231309Y187329D01*
D02*
G37*
G36*
X230434Y185754D02*
X230303Y185622D01*
X230434Y185404D01*
X230522D01*
X230653Y185447D01*
X230565Y185710D01*
X230434Y185754D01*
D02*
G37*
G36*
X228771Y181552D02*
X228377Y181509D01*
X228421Y181290D01*
X228815Y181333D01*
Y181509D01*
X228771Y181552D01*
D02*
G37*
G36*
X156736Y193456D02*
X156298Y193368D01*
X156167Y193237D01*
X156079Y192800D01*
X156211Y192668D01*
X156692Y192712D01*
X156736Y192756D01*
X156867Y192887D01*
X156955Y193237D01*
X156736Y193456D01*
D02*
G37*
G36*
X158749Y191793D02*
X158355Y191749D01*
X158268Y191574D01*
Y191487D01*
X158355Y191312D01*
X158749Y191268D01*
X158880Y191662D01*
X158749Y191793D01*
D02*
G37*
G36*
X156123Y191268D02*
X155992Y191137D01*
X156079Y190962D01*
X156211Y190830D01*
X156298D01*
X156473Y190743D01*
X156780Y190962D01*
X156692Y191224D01*
X156123Y191268D01*
D02*
G37*
G36*
X135292Y189605D02*
X135160Y189474D01*
X135117Y189255D01*
X135248Y188948D01*
X135554Y188905D01*
X135773Y189036D01*
X135686Y189386D01*
X135642Y189430D01*
X135598Y189474D01*
X135292Y189605D01*
D02*
G37*
G36*
X128902Y188992D02*
X128771Y188861D01*
X128727Y188817D01*
X128508Y188598D01*
X128333Y188161D01*
X128421Y187723D01*
X128727Y187679D01*
X128946Y187898D01*
X129165Y188467D01*
X129340Y188905D01*
X129384Y188948D01*
X128902Y188992D01*
D02*
G37*
G36*
X134942Y187417D02*
X134810Y187285D01*
X134723Y187023D01*
Y186935D01*
X134942Y186716D01*
X135248Y186673D01*
X135423Y186760D01*
X135336Y187373D01*
X134942Y187417D01*
D02*
G37*
G36*
X127239Y184791D02*
X126714Y184703D01*
X126583Y184309D01*
X126670Y184134D01*
X126802Y184003D01*
X127239Y184091D01*
X127414Y184266D01*
X127458Y184309D01*
X127371Y184660D01*
X127239Y184791D01*
D02*
G37*
G36*
X128289Y183828D02*
X128071Y183609D01*
X127808Y183172D01*
X127677Y183040D01*
X127502Y182953D01*
X127371Y182822D01*
X127458Y182559D01*
X127589Y182428D01*
X127808Y182384D01*
X127852Y182428D01*
X127939D01*
X128158Y182646D01*
X128246Y182822D01*
X128377Y182953D01*
X128640Y183040D01*
X128771Y183172D01*
X128683Y183609D01*
X128552Y183740D01*
X128289Y183828D01*
D02*
G37*
G36*
X130303Y181640D02*
X130215D01*
X130084Y181509D01*
X130128Y181290D01*
X130478Y181202D01*
X130740Y181290D01*
X130784Y181421D01*
X130653Y181552D01*
X130303Y181640D01*
D02*
G37*
G36*
X180543Y184266D02*
X179624Y184222D01*
X179143Y184266D01*
X178662Y183872D01*
X178268Y183740D01*
X177305Y183653D01*
X176692Y183303D01*
X176648Y183259D01*
X176298Y182734D01*
X176386Y182559D01*
X177042Y182515D01*
X177305Y182603D01*
X178443Y182515D01*
X178574Y182384D01*
X178924Y181771D01*
X179143Y181552D01*
X179712Y181246D01*
X179799Y180633D01*
X179887Y179845D01*
X180325Y178883D01*
X180412Y178708D01*
X180587Y178533D01*
X180631Y178401D01*
X180762Y178358D01*
X180806Y178226D01*
X180981Y178139D01*
X181244Y177876D01*
X181856Y177701D01*
X182469Y177789D01*
X182950Y178182D01*
X183738Y178708D01*
X183826Y179058D01*
X184088Y179933D01*
X184176Y180283D01*
X184045Y180765D01*
X183738Y181158D01*
X183651Y181333D01*
X183388Y181946D01*
X183257Y182515D01*
X182994Y182778D01*
X182557Y183040D01*
X182250Y183522D01*
X181856Y183653D01*
X181331Y183740D01*
X180543Y184266D01*
D02*
G37*
G36*
X177130Y179802D02*
X177086Y179758D01*
X177130Y179714D01*
X177174Y179758D01*
X177130Y179802D01*
D02*
G37*
%LPD*%
G36*
X182732Y180852D02*
X183038Y180546D01*
X183125Y179671D01*
X183038Y179058D01*
X182907Y178839D01*
X182863Y178795D01*
X182732Y178664D01*
X182119Y178576D01*
X181331Y178664D01*
X181112Y178883D01*
X181025Y179058D01*
X180850Y179233D01*
X180762Y179583D01*
X180850Y180546D01*
X181156Y180852D01*
X182031Y180940D01*
X182732Y180852D01*
D02*
G37*
%LPC*%
G36*
X147108Y185666D02*
X146758D01*
X146583Y185579D01*
X146451Y185447D01*
X146539Y185097D01*
X146933Y184966D01*
X147239Y185010D01*
X147327Y185360D01*
X147108Y185666D01*
D02*
G37*
G36*
X165576Y177001D02*
X165139Y176826D01*
X165007Y176607D01*
X165095Y176344D01*
X165182Y175907D01*
X165314Y175776D01*
X165576Y175863D01*
X165751D01*
X165795Y175907D01*
X166058Y176520D01*
X165970Y176870D01*
X165576Y177001D01*
D02*
G37*
%LPD*%
D14*
X140543Y99200D02*
X135212D01*
X140543Y104532D01*
Y105865D01*
X139210Y107197D01*
X136545D01*
X135212Y105865D01*
X143209D02*
X144542Y107197D01*
X147208D01*
X148541Y105865D01*
Y100533D01*
X147208Y99200D01*
X144542D01*
X143209Y100533D01*
Y105865D01*
X156538Y99200D02*
X151207D01*
X156538Y104532D01*
Y105865D01*
X155205Y107197D01*
X152539D01*
X151207Y105865D01*
X164535Y107197D02*
X159204D01*
Y103199D01*
X161870Y104532D01*
X163203D01*
X164535Y103199D01*
Y100533D01*
X163203Y99200D01*
X160537D01*
X159204Y100533D01*
X175199Y107197D02*
Y101866D01*
X177865Y99200D01*
X180530Y101866D01*
Y107197D01*
X183196Y99200D02*
X185862D01*
X184529D01*
Y107197D01*
X183196Y105865D01*
X189861Y99200D02*
Y100533D01*
X191193D01*
Y99200D01*
X189861D01*
X196525Y105865D02*
X197858Y107197D01*
X200524D01*
X201857Y105865D01*
Y100533D01*
X200524Y99200D01*
X197858D01*
X196525Y100533D01*
Y105865D01*
X204523Y99200D02*
X207188D01*
X205855D01*
Y107197D01*
X204523Y105865D01*
X108421Y124897D02*
Y123565D01*
X111087Y120899D01*
X113753Y123565D01*
Y124897D01*
X111087Y120899D02*
Y116900D01*
X116419D02*
Y122232D01*
X119085Y124897D01*
X121750Y122232D01*
Y116900D01*
Y120899D01*
X116419D01*
X124416Y116900D02*
Y124897D01*
X129748Y116900D01*
Y124897D01*
X137745Y123565D02*
X136412Y124897D01*
X133747D01*
X132414Y123565D01*
Y118233D01*
X133747Y116900D01*
X136412D01*
X137745Y118233D01*
Y120899D01*
X135079D01*
X140411Y124897D02*
X145743D01*
X143077D01*
Y116900D01*
X153740Y123565D02*
X152407Y124897D01*
X149741D01*
X148408Y123565D01*
Y122232D01*
X149741Y120899D01*
X152407D01*
X153740Y119566D01*
Y118233D01*
X152407Y116900D01*
X149741D01*
X148408Y118233D01*
X161737Y124897D02*
X156406D01*
Y116900D01*
X161737D01*
X156406Y120899D02*
X159072D01*
X172401Y116900D02*
Y124897D01*
X176399D01*
X177732Y123565D01*
Y120899D01*
X176399Y119566D01*
X172401D01*
X175066D02*
X177732Y116900D01*
X180398Y124897D02*
X183064D01*
X181731D01*
Y116900D01*
X180398D01*
X183064D01*
X187063Y124897D02*
Y119566D01*
X189728Y116900D01*
X192394Y119566D01*
Y124897D01*
X200392D02*
X195060D01*
Y116900D01*
X200392D01*
X195060Y120899D02*
X197726D01*
X203057Y116900D02*
Y124897D01*
X207056D01*
X208389Y123565D01*
Y120899D01*
X207056Y119566D01*
X203057D01*
X205723D02*
X208389Y116900D01*
X219052Y124897D02*
X224384D01*
X221718D01*
Y116900D01*
X231048Y124897D02*
X228382D01*
X227050Y123565D01*
Y118233D01*
X228382Y116900D01*
X231048D01*
X232381Y118233D01*
Y123565D01*
X231048Y124897D01*
X235047D02*
Y123565D01*
X237713Y120899D01*
X240379Y123565D01*
Y124897D01*
X237713Y120899D02*
Y116900D01*
X68034Y149796D02*
Y137800D01*
Y141799D01*
X76032Y149796D01*
X70034Y143798D01*
X76032Y137800D01*
X86028Y149796D02*
X82030D01*
X80030Y147797D01*
Y139799D01*
X82030Y137800D01*
X86028D01*
X88028Y139799D01*
Y147797D01*
X86028Y149796D01*
X92027Y137800D02*
Y149796D01*
X100024Y137800D01*
Y149796D01*
X112020Y147797D02*
X110021Y149796D01*
X106022D01*
X104023Y147797D01*
Y139799D01*
X106022Y137800D01*
X110021D01*
X112020Y139799D01*
Y143798D01*
X108021D01*
X116019Y137800D02*
Y149796D01*
X122017D01*
X124016Y147797D01*
Y143798D01*
X122017Y141799D01*
X116019D01*
X134013Y149796D02*
X130014D01*
X128015Y147797D01*
Y139799D01*
X130014Y137800D01*
X134013D01*
X136012Y139799D01*
Y147797D01*
X134013Y149796D01*
X152007D02*
Y137800D01*
X158005D01*
X160004Y139799D01*
Y141799D01*
X158005Y143798D01*
X152007D01*
X158005D01*
X160004Y145797D01*
Y147797D01*
X158005Y149796D01*
X152007D01*
X164003D02*
Y137800D01*
Y143798D01*
X172001D01*
Y149796D01*
Y137800D01*
X175999Y149796D02*
Y139799D01*
X177999Y137800D01*
X181997D01*
X183997Y139799D01*
Y149796D01*
X199992D02*
Y137800D01*
X207989D01*
X217986Y149796D02*
X213987D01*
X211988Y147797D01*
Y139799D01*
X213987Y137800D01*
X217986D01*
X219985Y139799D01*
Y147797D01*
X217986Y149796D01*
X223984D02*
Y137800D01*
X229982D01*
X231981Y139799D01*
Y141799D01*
X229982Y143798D01*
X223984D01*
X229982D01*
X231981Y145797D01*
Y147797D01*
X229982Y149796D01*
X223984D01*
X243977Y147797D02*
X241978Y149796D01*
X237979D01*
X235980Y147797D01*
Y145797D01*
X237979Y143798D01*
X241978D01*
X243977Y141799D01*
Y139799D01*
X241978Y137800D01*
X237979D01*
X235980Y139799D01*
X247976Y137800D02*
Y145797D01*
X251975Y149796D01*
X255974Y145797D01*
Y137800D01*
Y143798D01*
X247976D01*
X259972Y137800D02*
Y149796D01*
X267970Y137800D01*
Y149796D01*
X279966Y147797D02*
X277966Y149796D01*
X273968D01*
X271968Y147797D01*
Y139799D01*
X273968Y137800D01*
X277966D01*
X279966Y139799D01*
Y143798D01*
X275967D01*
X13542Y47030D02*
Y40366D01*
X14875Y39033D01*
X17541D01*
X18874Y40366D01*
Y47030D01*
X26871Y45697D02*
X25538Y47030D01*
X22872D01*
X21539Y45697D01*
Y44365D01*
X22872Y43032D01*
X25538D01*
X26871Y41699D01*
Y40366D01*
X25538Y39033D01*
X22872D01*
X21539Y40366D01*
X29537Y47030D02*
Y39033D01*
X33536D01*
X34868Y40366D01*
Y41699D01*
X33536Y43032D01*
X29537D01*
X33536D01*
X34868Y44365D01*
Y45697D01*
X33536Y47030D01*
X29537D01*
X37534Y37700D02*
X42866D01*
X50863Y45697D02*
X49530Y47030D01*
X46865D01*
X45532Y45697D01*
Y40366D01*
X46865Y39033D01*
X49530D01*
X50863Y40366D01*
X53529Y47030D02*
Y39033D01*
Y43032D01*
X58861D01*
Y47030D01*
Y39033D01*
X66858Y45697D02*
X65525Y47030D01*
X62859D01*
X61526Y45697D01*
Y40366D01*
X62859Y39033D01*
X65525D01*
X66858Y40366D01*
Y43032D01*
X64192D01*
X296500Y94800D02*
X292501D01*
X266700Y94199D02*
X262701D01*
X264701Y96199D02*
Y92200D01*
X243744Y13697D02*
X238412D01*
Y9699D01*
X241078D01*
X238412D01*
Y5700D01*
X246410D02*
Y13697D01*
X250408D01*
X251741Y12365D01*
Y9699D01*
X250408Y8366D01*
X246410D01*
X249076D02*
X251741Y5700D01*
X259739Y13697D02*
X254407D01*
Y5700D01*
X259739D01*
X254407Y9699D02*
X257073D01*
X267736Y13697D02*
X262404D01*
Y5700D01*
X267736D01*
X262404Y9699D02*
X265070D01*
X278399Y13697D02*
X283731D01*
X281065D01*
Y5700D01*
X286397Y13697D02*
X289063D01*
X287730D01*
Y5700D01*
X286397D01*
X289063D01*
X293061Y13697D02*
Y5700D01*
X297060D01*
X298393Y7033D01*
Y8366D01*
X297060Y9699D01*
X293061D01*
X297060D01*
X298393Y11032D01*
Y12365D01*
X297060Y13697D01*
X293061D01*
X306390D02*
X301059D01*
Y5700D01*
X306390D01*
X301059Y9699D02*
X303725D01*
X309056Y13697D02*
X314388D01*
X311722D01*
Y5700D01*
M02*
