G04*
G04 #@! TF.GenerationSoftware,Altium Limited,Altium Designer,21.4.1 (30)*
G04*
G04 Layer_Color=32896*
%FSLAX25Y25*%
%MOIN*%
G70*
G04*
G04 #@! TF.SameCoordinates,A3E2D9BC-5F1E-461B-91C0-85596CD5DA70*
G04*
G04*
G04 #@! TF.FilePolarity,Positive*
G04*
G01*
G75*
%ADD14C,0.01000*%
%ADD15C,0.02000*%
G36*
X47646Y304854D02*
X47603Y174131D01*
X47996Y174087D01*
X48478Y174394D01*
X48565Y174569D01*
X48872Y174875D01*
X49353Y175006D01*
X49791Y175181D01*
X50185Y175575D01*
X50622Y175750D01*
X51410Y176188D01*
X51673Y176451D01*
X52110Y176626D01*
X52460Y176713D01*
X52942Y177107D01*
X53161Y177326D01*
X53773Y177501D01*
X54386Y177851D01*
X54736Y178201D01*
X55699Y178551D01*
X56137Y178989D01*
X56968Y179295D01*
X57099Y179427D01*
X57274Y179514D01*
X57537Y179777D01*
X57975Y179952D01*
X58543Y180171D01*
X59025Y180652D01*
X59462Y180827D01*
X59944Y180958D01*
X60075Y181090D01*
X60250Y181177D01*
X60425Y181440D01*
X61038Y181702D01*
X61388Y181790D01*
X61870Y182184D01*
X62001Y182315D01*
X62438Y182490D01*
X63226Y182928D01*
X63489Y183190D01*
X64320Y183497D01*
X64846Y183934D01*
X64977Y184066D01*
X65327Y184153D01*
X65896Y184372D01*
X66377Y184853D01*
X66815Y185028D01*
X67165Y185116D01*
X67778Y185554D01*
X67953Y185729D01*
X68522Y185947D01*
X68828Y186079D01*
X69178Y186429D01*
X69791Y186691D01*
X70141Y186779D01*
X70622Y187173D01*
X70841Y187392D01*
X71279Y187567D01*
X71760Y187698D01*
X72329Y188267D01*
X73292Y188617D01*
X73642Y188967D01*
X73817Y189055D01*
X74255Y189230D01*
X74867Y189580D01*
X75130Y189842D01*
X75568Y190017D01*
X76136Y190236D01*
X76268Y190367D01*
X76399Y190411D01*
X76487Y190586D01*
X76618Y190718D01*
X77056Y190893D01*
X77537Y191024D01*
X77843Y191243D01*
X78193Y191593D01*
X78631Y191768D01*
X78981Y191856D01*
X79463Y192249D01*
X79594Y192381D01*
X80032Y192556D01*
X80819Y192993D01*
X81082Y193256D01*
X82045Y193606D01*
X82482Y194044D01*
X82657Y194131D01*
X83095Y194306D01*
X83445Y194394D01*
X83926Y194788D01*
X84145Y195007D01*
X84758Y195182D01*
X85196Y195444D01*
X85546Y195794D01*
X86377Y196101D01*
X86509Y196232D01*
X86684Y196319D01*
X86946Y196582D01*
X87384Y196757D01*
X87953Y196976D01*
X88434Y197457D01*
X88872Y197632D01*
X89353Y197764D01*
X89660Y197982D01*
X90010Y198333D01*
X90447Y198508D01*
X90797Y198595D01*
X91279Y198989D01*
X91498Y199208D01*
X91979Y199339D01*
X92417Y199514D01*
X92723Y199733D01*
X92986Y199996D01*
X93423Y200171D01*
X94036Y200521D01*
X94386Y200871D01*
X94955Y201002D01*
X95393Y201177D01*
X95961Y201746D01*
X96530Y201877D01*
X96968Y202052D01*
X97231Y202315D01*
X97274Y202446D01*
X97449Y202534D01*
X98325Y202884D01*
X98806Y203278D01*
X98937Y203409D01*
X99288Y203497D01*
X99857Y203715D01*
X100338Y204197D01*
X101169Y204503D01*
X101476Y204722D01*
X101738Y205072D01*
X102307Y205204D01*
X102657Y205291D01*
X102789Y205422D01*
X102964Y205510D01*
X103182Y205816D01*
X103664Y206035D01*
X104233Y206254D01*
X104539Y206473D01*
X104802Y206735D01*
X105283Y206867D01*
X105983Y207304D01*
X106202Y207523D01*
X106640Y207698D01*
X106990Y207786D01*
X107165Y207961D01*
X107296Y208004D01*
X107384Y208179D01*
X107603Y208398D01*
X108215Y208573D01*
X108565Y208661D01*
X109178Y209274D01*
X110010Y209580D01*
X110404Y209886D01*
X110579Y209974D01*
X111366Y210324D01*
X111541Y210411D01*
X112023Y210805D01*
X112154Y210936D01*
X112767Y211111D01*
X113380Y211462D01*
X113730Y211812D01*
X114211Y211943D01*
X114692Y212249D01*
X115130Y212687D01*
X115611Y212818D01*
X116049Y212993D01*
X116443Y213387D01*
X116881Y213562D01*
X117449Y213781D01*
X117581Y213912D01*
X117712Y213956D01*
X117800Y214131D01*
X118281Y214350D01*
X119113Y214656D01*
X119594Y215138D01*
X120032Y215313D01*
X120382Y215400D01*
X120863Y215794D01*
X120994Y215926D01*
X122132Y216538D01*
X122307Y216713D01*
X122745Y216888D01*
X123533Y217326D01*
X123795Y217589D01*
X124233Y217764D01*
X124583Y217851D01*
X125021Y218114D01*
X125371Y218464D01*
X125808Y218639D01*
X126158Y218726D01*
X126771Y219164D01*
X126946Y219339D01*
X127384Y219514D01*
X127997Y219864D01*
X128172Y220039D01*
X128347Y220127D01*
X129222Y220477D01*
X129703Y220871D01*
X130185Y221090D01*
X130754Y221308D01*
X131235Y221790D01*
X131410Y221877D01*
X131673Y221965D01*
X132242Y222184D01*
X132373Y222315D01*
X132548Y222403D01*
X132898Y222753D01*
X133379Y222884D01*
X133817Y223059D01*
X134299Y223540D01*
X135130Y223847D01*
X135261Y223978D01*
X135436Y224066D01*
X135699Y224328D01*
X136530Y224635D01*
X136837Y224853D01*
X137187Y225203D01*
X137800Y225378D01*
X138412Y225729D01*
X138762Y226079D01*
X139594Y226385D01*
X139900Y226604D01*
X140163Y226867D01*
X140601Y227042D01*
X141388Y227479D01*
X141651Y227742D01*
X142482Y228048D01*
X142789Y228267D01*
X143226Y228705D01*
X143839Y229055D01*
X143970Y229274D01*
X143533Y229974D01*
X143445Y230149D01*
X143314Y230368D01*
X142789Y230543D01*
X142001Y230105D01*
X141213Y229755D01*
X140644Y229624D01*
X140207Y229449D01*
X139288Y228967D01*
X138937Y228880D01*
X137843Y228486D01*
X136662Y228004D01*
X135962Y227829D01*
X135349Y227479D01*
X134561Y227129D01*
X133642Y226910D01*
X133161Y226604D01*
X132548Y226341D01*
X132198Y226254D01*
X131498Y226166D01*
X130973Y225641D01*
X130360Y225466D01*
X129484Y225554D01*
X129441Y225860D01*
X129660Y226079D01*
X130535Y226166D01*
X131104Y226385D01*
X131191Y226560D01*
X131498Y226867D01*
X132110Y227042D01*
X132679Y227173D01*
X133511Y227742D01*
X134124Y227917D01*
X134692Y228136D01*
X135086Y228442D01*
X135699Y228705D01*
X136793Y229099D01*
X137012Y229317D01*
X138369Y229799D01*
X138675Y230017D01*
X139288Y230280D01*
X140119Y230586D01*
X140250Y230718D01*
X140426Y230805D01*
X141038Y231068D01*
X141870Y231374D01*
X142176Y231593D01*
X142395Y231724D01*
X142570Y232337D01*
Y232600D01*
X142526Y232643D01*
X142395Y232950D01*
X142001Y233431D01*
X141782Y233650D01*
X141695Y234263D01*
X141607Y235313D01*
X141476Y235444D01*
X140951Y235619D01*
X140688Y235532D01*
X139813Y235444D01*
X138369Y235313D01*
X136005Y234963D01*
X135305Y234788D01*
X134868Y234700D01*
X133117Y234613D01*
X131542Y234525D01*
X130841Y234438D01*
X129966Y234350D01*
X129266Y234175D01*
X128259Y233869D01*
X126859Y233781D01*
X124933Y233869D01*
X124320Y233956D01*
X124145Y234044D01*
X124014Y234175D01*
X124233Y234394D01*
X124583Y234481D01*
X125196Y234569D01*
X127296Y234656D01*
X127559Y234744D01*
X128128Y234875D01*
X129222Y235357D01*
X129835Y235444D01*
X131892Y235576D01*
X132592Y235663D01*
X133029Y235751D01*
X133467Y235926D01*
X133817Y236013D01*
X134299Y236144D01*
X134911Y236232D01*
X136530Y236363D01*
X137231Y236451D01*
X138106Y236626D01*
X138587Y236757D01*
X139200Y236932D01*
X139550Y237020D01*
X140688Y237107D01*
X141170Y237414D01*
X141257Y237764D01*
X141126Y238245D01*
X140907Y238814D01*
X140994Y239164D01*
X141170Y239777D01*
X141344Y240477D01*
X141257Y241527D01*
X141038Y241746D01*
X140601Y241921D01*
X140032Y242053D01*
X139594Y242140D01*
X138894Y242228D01*
X138019Y242315D01*
X136968Y242490D01*
X135218Y242840D01*
X134692Y242928D01*
X133992Y243015D01*
X132417Y243190D01*
X131979Y243278D01*
X131629Y243365D01*
X131148Y243497D01*
X130272Y243759D01*
X129660Y243847D01*
X127384Y244022D01*
X127121Y244109D01*
X126640Y244241D01*
X126552Y244416D01*
X127034Y244547D01*
X128959Y244635D01*
X130360Y244547D01*
X130622Y244460D01*
X131454Y244328D01*
X131804Y244241D01*
X132242Y244153D01*
X132942Y244066D01*
X133730Y243978D01*
X134430Y243891D01*
X136443Y243716D01*
X137143Y243628D01*
X137931Y243541D01*
X139725Y243322D01*
X140075Y243234D01*
X140732Y243103D01*
X141388Y243059D01*
X141607Y243190D01*
X141782Y243628D01*
X141957Y245554D01*
X142045Y245816D01*
X142439Y246298D01*
X142570Y246691D01*
X142307Y247129D01*
X142176Y247260D01*
X141607Y247392D01*
X141126Y247698D01*
X140688Y247961D01*
X139988Y248136D01*
X139550Y248311D01*
X139375Y248486D01*
X139200Y248573D01*
X138587Y248836D01*
X137756Y249142D01*
X137625Y249273D01*
X137450Y249361D01*
X137012Y249536D01*
X135918Y249930D01*
X135611Y250236D01*
X135174Y250411D01*
X134474Y250587D01*
X134036Y250762D01*
X133773Y251024D01*
X133598Y251112D01*
X132986Y251374D01*
X132285Y251462D01*
X131892Y251768D01*
X131804Y251943D01*
X131323Y252162D01*
X130404Y252293D01*
X130053Y252556D01*
X129791Y252993D01*
X129003Y253081D01*
X128566Y253169D01*
X128303Y253344D01*
X128215Y253694D01*
X128303Y253869D01*
X128741Y253956D01*
X129484Y254000D01*
X129922Y253737D01*
X130053Y253606D01*
X130141Y253431D01*
X130272Y253300D01*
X130841Y253169D01*
X131629Y253081D01*
X132067Y252906D01*
X132460Y252512D01*
X133161Y252337D01*
X133861Y252250D01*
X134474Y251812D01*
X135086Y251549D01*
X135436Y251462D01*
X136093Y251330D01*
X136399Y251112D01*
X136837Y250849D01*
X137450Y250674D01*
X137800Y250587D01*
X138369Y250368D01*
X139288Y249886D01*
X139988Y249711D01*
X140469Y249580D01*
X140994Y249230D01*
X141563Y249011D01*
X141913Y248923D01*
X142701Y248573D01*
X143139Y248661D01*
X143358Y249055D01*
X143664Y249624D01*
X143839Y249711D01*
X144145Y250017D01*
X144320Y250455D01*
X144583Y250893D01*
X144933Y251243D01*
X145021Y251418D01*
X145371Y252206D01*
X145283Y252818D01*
X145152Y252950D01*
X144977Y253037D01*
X144495Y253431D01*
X143839Y254088D01*
X143664Y254175D01*
X143226Y254613D01*
X143051Y254700D01*
X142876Y254875D01*
X142701Y254963D01*
X142264Y255400D01*
X142088Y255488D01*
X141913Y255663D01*
X141738Y255751D01*
X141388Y256101D01*
X141213Y256188D01*
X140951Y256451D01*
X140776Y256538D01*
X140163Y257151D01*
X139988Y257239D01*
X139200Y258026D01*
X139025Y258114D01*
X138544Y258508D01*
X138062Y258989D01*
X137887Y259077D01*
X137581Y259295D01*
X137493Y259471D01*
X137187Y259777D01*
X136749Y260039D01*
X136530Y260258D01*
X136443Y260433D01*
X136312Y260565D01*
X135699Y260915D01*
X135349Y261440D01*
X134736Y261790D01*
X134517Y262009D01*
X134430Y262184D01*
X134211Y262403D01*
X133642Y262709D01*
X133555Y262972D01*
X133686Y263103D01*
X134036Y263015D01*
X134255Y262884D01*
X134342Y262709D01*
X134561Y262403D01*
X135043Y262271D01*
X135349Y262053D01*
X135568Y261834D01*
X135655Y261659D01*
X136137Y261440D01*
X136312Y261352D01*
X136618Y261046D01*
X136706Y260871D01*
X136837Y260740D01*
X137406Y260521D01*
X137668Y260258D01*
X137756Y260083D01*
X138719Y259471D01*
X139113Y259077D01*
X139288Y258989D01*
X139769Y258595D01*
X140075Y258289D01*
X140250Y258201D01*
X140863Y257764D01*
X141213Y257414D01*
X141826Y257064D01*
X142264Y256626D01*
X142701Y256363D01*
X143183Y255969D01*
X143489Y255663D01*
X143664Y255575D01*
X143839Y255400D01*
X144014Y255313D01*
X144452Y254875D01*
X144627Y254788D01*
X145721Y253956D01*
X145940Y253737D01*
X146290Y253650D01*
X146728Y253737D01*
X146990Y254000D01*
X147165Y254088D01*
X147296Y254219D01*
X147384Y254394D01*
X147690Y254700D01*
X147865Y254788D01*
X148259Y255094D01*
X148347Y255269D01*
X148741Y255751D01*
X149353Y256363D01*
X149528Y256451D01*
X150141Y256888D01*
X150404Y257151D01*
X151366Y257676D01*
X151716Y258026D01*
X152198Y258158D01*
X152636Y258333D01*
X153117Y258814D01*
X153817Y258989D01*
X153992Y259077D01*
X154211Y259295D01*
X154124Y259821D01*
X153686Y260433D01*
X153598Y260783D01*
X153467Y261352D01*
X153380Y261702D01*
X153117Y262403D01*
X152811Y262972D01*
X152636Y263584D01*
X152504Y264066D01*
X152417Y264416D01*
X152242Y264854D01*
X151848Y265510D01*
X151716Y266254D01*
X151629Y266604D01*
X151366Y267304D01*
X151235Y267436D01*
X151148Y267611D01*
X150885Y268223D01*
X150797Y269186D01*
X150360Y269799D01*
X150185Y269974D01*
X150097Y270324D01*
X150010Y271637D01*
X149616Y272118D01*
X149310Y272425D01*
X149222Y273037D01*
X149353Y274219D01*
X149791Y274131D01*
X150010Y273913D01*
X150097Y273562D01*
X150185Y272512D01*
X150491Y272206D01*
X150666Y272118D01*
X150797Y271987D01*
X150973Y271287D01*
X151060Y270674D01*
X151673Y269711D01*
X151760Y269361D01*
X151979Y268442D01*
X152242Y268004D01*
X152417Y267917D01*
X152636Y267436D01*
X152723Y266648D01*
X153073Y266035D01*
X153423Y265247D01*
X153817Y264153D01*
X154211Y263497D01*
X154299Y262884D01*
X154517Y262315D01*
X154736Y262009D01*
X155086Y261221D01*
X155218Y260740D01*
X155393Y260302D01*
X155612Y259996D01*
X156005Y259864D01*
X156706Y259952D01*
X157843Y260477D01*
X159244Y260565D01*
X159594Y260652D01*
X160995Y260740D01*
X161607Y260827D01*
X162570Y260740D01*
X162832Y260652D01*
X165633Y260565D01*
X165896Y260477D01*
X166815Y260346D01*
X167296Y260214D01*
X168128Y259908D01*
X168872Y259689D01*
X169310Y259777D01*
X169703Y260083D01*
X170229Y261221D01*
X170623Y262315D01*
X171104Y263409D01*
X171191Y263759D01*
X171410Y264328D01*
X171542Y264460D01*
X171629Y264635D01*
X171892Y265247D01*
X171979Y265597D01*
X172198Y266166D01*
X172679Y267085D01*
X172811Y267654D01*
X172898Y268004D01*
X173073Y268442D01*
X173467Y268836D01*
X173642Y269536D01*
X173730Y270149D01*
X174036Y270630D01*
X174211Y270718D01*
X174342Y270849D01*
X174518Y271462D01*
X174649Y272293D01*
X174824Y272643D01*
X175174Y272731D01*
X175218Y271549D01*
X175130Y271287D01*
X175043Y270937D01*
X174692Y270586D01*
X174518Y270149D01*
X174299Y268880D01*
X173949Y268355D01*
X173730Y267786D01*
X173598Y267217D01*
X173511Y266779D01*
X173423Y266429D01*
X173029Y265685D01*
X172679Y264460D01*
X172461Y263891D01*
X172067Y262972D01*
X171892Y262359D01*
X171804Y262009D01*
X171673Y261527D01*
X171016Y260083D01*
X170929Y259733D01*
X171016Y259120D01*
X171148Y258989D01*
X172285Y258376D01*
X173073Y258026D01*
X173511Y257764D01*
X173861Y257414D01*
X174299Y257239D01*
X174474Y257151D01*
X174955Y256757D01*
X175174Y256538D01*
X175787Y256188D01*
X175918Y256057D01*
X176005Y255882D01*
X176224Y255663D01*
X177012Y255225D01*
X177450Y254788D01*
X177625Y254700D01*
X177843Y254481D01*
X177931Y254306D01*
X178150Y254000D01*
X178587Y253825D01*
X179200Y253912D01*
X179900Y254613D01*
X180076Y254700D01*
X180688Y255138D01*
X181038Y255488D01*
X181213Y255575D01*
X181826Y256013D01*
X182920Y256845D01*
X183314Y257239D01*
X183489Y257326D01*
X184145Y257807D01*
X184233Y257982D01*
X184364Y258114D01*
X184539Y258201D01*
X185152Y258552D01*
X185590Y258989D01*
X186027Y259252D01*
X186553Y259777D01*
X187165Y260127D01*
X187778Y260740D01*
X188347Y261046D01*
X188434Y261221D01*
X188653Y261440D01*
X189222Y261659D01*
X189485Y261834D01*
X189572Y262009D01*
X189791Y262228D01*
X190447Y262534D01*
X190535Y262709D01*
X190841Y263103D01*
X191323Y263234D01*
X191629Y263453D01*
X191848Y263759D01*
X191979Y263891D01*
X192592Y264066D01*
X192723Y264022D01*
X192636Y263584D01*
X192329Y263278D01*
X191717Y262928D01*
X191410Y262446D01*
X190710Y262096D01*
X190622Y261921D01*
X190316Y261527D01*
X190141Y261440D01*
X189660Y261046D01*
X189572Y260871D01*
X189353Y260652D01*
X188916Y260389D01*
X188391Y259864D01*
X187953Y259602D01*
X187253Y258902D01*
X187078Y258814D01*
X186596Y258420D01*
X186202Y258026D01*
X186027Y257939D01*
X185809Y257807D01*
X185721Y257632D01*
X185327Y257239D01*
X184889Y256976D01*
X184452Y256538D01*
X184277Y256451D01*
X184102Y256276D01*
X183927Y256188D01*
X183226Y255488D01*
X183051Y255400D01*
X182614Y254963D01*
X182439Y254875D01*
X182176Y254613D01*
X182001Y254525D01*
X181870Y254394D01*
X181782Y254219D01*
X181651Y254088D01*
X181476Y254000D01*
X180994Y253606D01*
X180688Y253300D01*
X180513Y253212D01*
X180338Y253037D01*
X180163Y252950D01*
X179857Y252643D01*
X179769Y252293D01*
X180032Y251856D01*
X180207Y251681D01*
X180732Y250718D01*
X180994Y250455D01*
X181170Y249755D01*
X181388Y249186D01*
X181738Y248748D01*
X181913Y248661D01*
X182351Y248486D01*
X182701Y248573D01*
X183314Y248836D01*
X184145Y249142D01*
X184627Y249361D01*
X185064Y249536D01*
X186421Y250017D01*
X186990Y250324D01*
X188609Y250893D01*
X189353Y251287D01*
X190054Y251462D01*
X190535Y251593D01*
X190841Y251812D01*
X191367Y252162D01*
X192198Y252293D01*
X192636Y252381D01*
X192942Y252512D01*
X193380Y252950D01*
X193992Y253037D01*
X194911Y252993D01*
X194649Y252556D01*
X194518Y252425D01*
X193905Y252337D01*
X193205Y252162D01*
X192986Y251943D01*
X192898Y251768D01*
X192767Y251637D01*
X192154Y251462D01*
X191454Y251287D01*
X190579Y250674D01*
X189922Y250543D01*
X189485Y250368D01*
X189178Y250149D01*
X189003Y249974D01*
X188391Y249799D01*
X187690Y249536D01*
X187165Y249186D01*
X186071Y248792D01*
X184977Y248223D01*
X184145Y247917D01*
X182876Y247173D01*
X182570Y246866D01*
X182658Y246254D01*
X182833Y245816D01*
X182920Y245466D01*
X183533Y244503D01*
X183620Y243716D01*
X183839Y243322D01*
X184189Y243234D01*
X184889Y243322D01*
X185152Y243409D01*
X185765Y243497D01*
X186815Y243672D01*
X187428Y243759D01*
X190447Y243978D01*
X191848Y244153D01*
X192898Y244328D01*
X193336Y244416D01*
X193817Y244547D01*
X194167Y244635D01*
X198456Y244722D01*
X199594Y244635D01*
X199638Y244591D01*
X199419Y244197D01*
X198719Y244022D01*
X197887Y243891D01*
X196049Y243803D01*
X194911Y243628D01*
X194211Y243365D01*
X193467Y243147D01*
X193117Y243059D01*
X191191Y242972D01*
X190929Y242884D01*
X190054Y242796D01*
X189791Y242709D01*
X189441Y242621D01*
X188566Y242359D01*
X188215Y242271D01*
X186377Y242184D01*
X186115Y242096D01*
X185458Y241965D01*
X185108Y241878D01*
X184408Y241790D01*
X184102Y241659D01*
X183883Y241440D01*
X183795Y240827D01*
X183883Y239689D01*
X183795Y239427D01*
X183664Y238158D01*
X183620Y237501D01*
X184014Y237020D01*
X184889Y236932D01*
X185502Y236845D01*
X186071Y236713D01*
X186421Y236626D01*
X187296Y236451D01*
X187822Y236363D01*
X188522Y236276D01*
X189310Y236188D01*
X190360Y236013D01*
X190710Y235926D01*
X191148Y235838D01*
X191848Y235663D01*
X192329Y235532D01*
X193730Y235444D01*
X195218Y235269D01*
X195655Y235094D01*
X196268Y234744D01*
X196706Y234569D01*
X198325Y234438D01*
X199025Y234350D01*
X199288Y234263D01*
X199244Y234131D01*
X198894Y234044D01*
X198106Y233956D01*
X197844Y234044D01*
X197100Y234175D01*
X196749Y234263D01*
X196005Y234569D01*
X194955Y234656D01*
X194693Y234569D01*
X192767Y234656D01*
X191585Y234788D01*
X190885Y234875D01*
X189704Y235007D01*
X189091Y235094D01*
X188741Y235182D01*
X187253Y235357D01*
X186903Y235444D01*
X185502Y235532D01*
X184496Y235663D01*
X184189Y235707D01*
X183927Y235619D01*
X183752Y235532D01*
X183533Y235313D01*
X183008Y233562D01*
X182833Y232862D01*
X182920Y231812D01*
X183139Y231593D01*
X183927Y231243D01*
X184627Y230980D01*
X185152Y230630D01*
X186027Y230368D01*
X186815Y229930D01*
X187428Y229667D01*
X187778Y229580D01*
X188215Y229405D01*
X188828Y228967D01*
X189178Y228880D01*
X189747Y228748D01*
X190054Y228617D01*
X190491Y228179D01*
X191191Y228004D01*
X191892Y227742D01*
X192504Y227304D01*
X193117Y227129D01*
X193686Y226998D01*
X193817Y226867D01*
X193992Y226779D01*
X194124Y226648D01*
X194167Y226516D01*
X194342Y226429D01*
X194780Y226254D01*
X195612Y226122D01*
X195918Y225904D01*
X196137Y225597D01*
X196268Y225466D01*
X197493Y225291D01*
X197712Y225072D01*
X197625Y224722D01*
X197493Y224591D01*
X196180Y224678D01*
X195874Y224985D01*
X195787Y225160D01*
X195655Y225291D01*
X195043Y225378D01*
X194080Y225466D01*
X193555Y225991D01*
X192854Y226166D01*
X192242Y226254D01*
X191629Y226604D01*
X191367Y226867D01*
X191016Y226954D01*
X190404Y227042D01*
X189922Y227173D01*
X189791Y227304D01*
X189616Y227392D01*
X188828Y227742D01*
X188215Y227917D01*
X187647Y228136D01*
X186990Y228530D01*
X185765Y228880D01*
X184277Y229580D01*
X183358Y229711D01*
X182876Y230192D01*
X182526Y230280D01*
X182001Y230192D01*
X181651Y229842D01*
X181476Y229755D01*
X181257Y229536D01*
X181213Y229230D01*
X181345Y228923D01*
X181476Y228792D01*
X181826Y228705D01*
X182264Y228530D01*
X182614Y228179D01*
X183489Y227829D01*
X184102Y227217D01*
X185021Y226998D01*
X185677Y226341D01*
X186246Y226210D01*
X186684Y226035D01*
X187165Y225554D01*
X187603Y225378D01*
X187953Y225291D01*
X188434Y224897D01*
X188566Y224766D01*
X189003Y224591D01*
X189353Y224503D01*
X189835Y224109D01*
X189966Y223978D01*
X190404Y223803D01*
X190973Y223584D01*
X191104Y223453D01*
X191279Y223365D01*
X191542Y223103D01*
X191979Y222928D01*
X192723Y222534D01*
X192811Y222359D01*
X192942Y222228D01*
X193380Y222053D01*
X193861Y221921D01*
X194386Y221484D01*
X194868Y221265D01*
X195437Y221046D01*
X195830Y220652D01*
X196005Y220565D01*
X196881Y220214D01*
X197143Y219952D01*
X197318Y219864D01*
X197493Y219689D01*
X197844Y219602D01*
X198456Y219252D01*
X198806Y218901D01*
X199244Y218726D01*
X199725Y218595D01*
X200032Y218376D01*
X200382Y218026D01*
X201213Y217720D01*
X201739Y217282D01*
X202220Y217063D01*
X202789Y216845D01*
X203183Y216451D01*
X203795Y216188D01*
X204408Y215838D01*
X204758Y215488D01*
X205371Y215313D01*
X205809Y215138D01*
X206246Y214700D01*
X206684Y214525D01*
X207165Y214394D01*
X207734Y213825D01*
X208566Y213519D01*
X208872Y213300D01*
X209135Y213037D01*
X210229Y212643D01*
X210491Y212381D01*
X210579Y212206D01*
X211060Y211987D01*
X211542Y211856D01*
X212067Y211418D01*
X212198Y211287D01*
X212548Y211199D01*
X213117Y210980D01*
X213686Y210411D01*
X214167Y210280D01*
X214474Y210149D01*
X214955Y209755D01*
X215087Y209624D01*
X215568Y209492D01*
X216005Y209317D01*
X216268Y209142D01*
X216356Y208967D01*
X216574Y208748D01*
X217187Y208573D01*
X217756Y208267D01*
X217844Y208092D01*
X218237Y207873D01*
X218588Y207786D01*
X219200Y207435D01*
X219550Y207085D01*
X220382Y206779D01*
X220601Y206560D01*
X220776Y206473D01*
X220951Y206297D01*
X221914Y205947D01*
X222439Y205422D01*
X223052Y205247D01*
X223489Y204985D01*
X223839Y204634D01*
X224277Y204460D01*
X224758Y204328D01*
X224889Y204197D01*
X225021Y204153D01*
X225108Y203978D01*
X225240Y203847D01*
X225677Y203672D01*
X226027Y203584D01*
X226596Y203278D01*
X226684Y203103D01*
X226903Y202884D01*
X227515Y202709D01*
X227953Y202446D01*
X228303Y202096D01*
X228741Y201921D01*
X229091Y201834D01*
X229704Y201483D01*
X230054Y201133D01*
X230535Y201002D01*
X230973Y200827D01*
X231367Y200433D01*
X232242Y200083D01*
X232767Y199558D01*
X233205Y199383D01*
X233555Y199295D01*
X234036Y198901D01*
X234255Y198683D01*
X234868Y198508D01*
X235305Y198245D01*
X235743Y197807D01*
X236312Y197676D01*
X236618Y197545D01*
X237143Y197020D01*
X237844Y196845D01*
X238281Y196582D01*
X238719Y196144D01*
X239332Y195969D01*
X239769Y195707D01*
X240207Y195269D01*
X240776Y195138D01*
X241213Y194963D01*
X241389Y194875D01*
X241476Y194700D01*
X241607Y194569D01*
X241782Y194481D01*
X242658Y194131D01*
X243139Y193737D01*
X243270Y193606D01*
X243752Y193475D01*
X244233Y193168D01*
X244364Y193037D01*
X244408Y192906D01*
X244583Y192818D01*
X245021Y192643D01*
X245371Y192556D01*
X245765Y192249D01*
X245852Y192074D01*
X246334Y191856D01*
X246684Y191768D01*
X247122Y191593D01*
X247559Y191155D01*
X247997Y190980D01*
X248566Y190761D01*
X248872Y190455D01*
X249047Y190367D01*
X249660Y190105D01*
X250097Y189842D01*
X250360Y189492D01*
X250798Y189317D01*
X251148Y189230D01*
X251542Y189011D01*
X251629Y188836D01*
X251848Y188617D01*
X252461Y188442D01*
X253030Y188223D01*
X253511Y187742D01*
X254474Y187392D01*
X254824Y187041D01*
X254999Y186954D01*
X255437Y186779D01*
X255874Y186516D01*
X256312Y186079D01*
X257012Y185904D01*
X257450Y185641D01*
X257887Y185203D01*
X258500Y185028D01*
X259113Y184678D01*
X259463Y184328D01*
X259944Y184197D01*
X260382Y184022D01*
X260776Y183628D01*
X261213Y183453D01*
X261782Y183234D01*
X261958Y183147D01*
X262045Y182972D01*
X262614Y182665D01*
X263183Y182446D01*
X263533Y182096D01*
X263577Y181965D01*
X263752Y181877D01*
X264189Y181702D01*
X264671Y181571D01*
X264977Y181352D01*
X265065Y181177D01*
X265240Y181090D01*
X265852Y180827D01*
X266465Y180477D01*
X266728Y180214D01*
X267690Y179864D01*
X268041Y179514D01*
X268216Y179427D01*
X268653Y179252D01*
X269266Y178901D01*
X269485Y178595D01*
X269966Y178376D01*
X270448Y178245D01*
X270973Y177807D01*
X271367Y177588D01*
X272067Y177326D01*
X272548Y176932D01*
X272680Y176801D01*
X273161Y176670D01*
X273599Y176494D01*
X273992Y176101D01*
X274430Y175926D01*
X275043Y175575D01*
X275393Y175225D01*
X275831Y175050D01*
X276662Y174744D01*
X277144Y174525D01*
X277319Y174613D01*
X277362Y175181D01*
X277275Y175444D01*
X277231Y206385D01*
X277450Y207129D01*
X277362Y239777D01*
X277275Y240039D01*
X277362Y271899D01*
X277450Y272162D01*
X277362Y304547D01*
X276881Y304766D01*
X273380Y304679D01*
X221082Y304722D01*
X220251Y304679D01*
X219813Y304854D01*
X219463Y304941D01*
X161957Y304854D01*
X161695Y304766D01*
X161082Y304679D01*
X160075Y304722D01*
X106115Y304679D01*
X105852Y304766D01*
X105239Y304854D01*
X104364Y304941D01*
X47646Y304854D01*
D02*
G37*
G36*
X162789Y236013D02*
X162526Y235576D01*
X162395Y235444D01*
X161957Y235182D01*
X161738Y234613D01*
X161826Y233825D01*
X161914Y233562D01*
X161826Y233125D01*
X161695Y232993D01*
X161257Y233081D01*
X161126Y233212D01*
X160776Y233825D01*
X160469Y233869D01*
X160250Y233650D01*
X160163Y233300D01*
X160250Y232687D01*
X160338Y232424D01*
X160469Y231768D01*
X160688Y231462D01*
X160951Y231199D01*
X161126Y230762D01*
X161301Y230061D01*
X161170Y229317D01*
X161082Y228967D01*
X160995Y228792D01*
X160644Y228705D01*
X160207Y228792D01*
X160075Y228923D01*
X159988Y230236D01*
X159550Y230849D01*
X158938Y231462D01*
X158850Y231812D01*
X158938Y232162D01*
X159113Y232600D01*
X158894Y232993D01*
X158587Y232687D01*
X158456Y232206D01*
X158150Y231637D01*
X158194Y230805D01*
X158019Y230630D01*
X157537Y230762D01*
X157231Y230805D01*
X156749Y230411D01*
X156662Y230061D01*
X156749Y229536D01*
X156924Y229099D01*
X157012Y228398D01*
X156662Y227785D01*
X156618Y227742D01*
X156574Y227698D01*
X156268Y227567D01*
X155787Y227961D01*
X155699Y228311D01*
X155787Y229099D01*
X155874Y229361D01*
X155962Y229711D01*
X155874Y229886D01*
X155568Y229930D01*
X155174Y229536D01*
X155086Y229186D01*
X154999Y228136D01*
X154605Y228004D01*
X154124Y228398D01*
X153905Y228442D01*
X153773Y228311D01*
X153861Y227610D01*
X154036Y227435D01*
X154124Y227260D01*
X154692Y226516D01*
X154867Y226429D01*
X155086Y226210D01*
X155349Y225335D01*
X155261Y224547D01*
X154867Y224066D01*
X154430Y224153D01*
X153948Y224635D01*
X153861Y224810D01*
X153555Y224853D01*
X153073Y224460D01*
X152986Y224197D01*
X153073Y223934D01*
X153336Y223672D01*
X153423Y223497D01*
X153861Y222884D01*
X154342Y222403D01*
X154780Y222228D01*
X155393Y221877D01*
X155612Y221659D01*
X155787Y221046D01*
X155699Y220871D01*
X155568Y220740D01*
X154342Y220827D01*
X154036Y221046D01*
X153992Y221177D01*
X153861Y221133D01*
X153948Y220783D01*
X154124Y220608D01*
X154561Y219820D01*
X154692Y219689D01*
X155305Y219514D01*
X157231Y219339D01*
X157712Y218945D01*
X158237Y218595D01*
X158412Y218420D01*
X158544Y217939D01*
X158719Y217501D01*
X158894Y217238D01*
X159331Y216976D01*
X159375Y216494D01*
X159288Y216232D01*
X158850Y215444D01*
X158675Y215269D01*
X158325Y214131D01*
X158412Y213781D01*
X158850Y213168D01*
X159331Y212950D01*
X160294Y212424D01*
X160907Y212162D01*
X161476Y212031D01*
X161957Y211899D01*
X162307Y211812D01*
X163927Y211943D01*
X164452Y212031D01*
X164889Y212293D01*
X164977Y212468D01*
X165371Y212599D01*
X165940Y212818D01*
X166509Y213562D01*
X166946Y213825D01*
X166990Y214219D01*
X166509Y214700D01*
X166071Y214788D01*
X165940Y214656D01*
X165852Y214131D01*
X165633Y213912D01*
X164758Y213825D01*
X164496Y213387D01*
X163183Y212775D01*
X161432Y212862D01*
X161038Y213168D01*
X161126Y215094D01*
X161213Y215357D01*
X161301Y215707D01*
X161476Y216144D01*
X161607Y216276D01*
X163708Y216188D01*
X164233Y215838D01*
X164408Y215926D01*
X164671Y216013D01*
X165327Y215707D01*
X165633Y215838D01*
X165852Y216407D01*
X165940Y216845D01*
X166246Y217151D01*
X166509Y217238D01*
X166640Y217370D01*
X166727Y217720D01*
X166596Y218201D01*
X166465Y218508D01*
X166071Y218551D01*
X165852Y218420D01*
X165765Y218070D01*
X165633Y217501D01*
X165196Y217326D01*
X164539Y217632D01*
X164364Y217457D01*
X164146Y216888D01*
X163970Y216713D01*
X163708Y216801D01*
X162132Y216888D01*
X161870Y216801D01*
X161388Y216670D01*
X161257Y216538D01*
X160907Y216451D01*
X160513Y216670D01*
X160601Y216932D01*
X160907Y217151D01*
X161038Y217545D01*
X160951Y218595D01*
X160513Y219558D01*
X160382Y220390D01*
X160338Y220958D01*
X160425Y221221D01*
X160513Y221571D01*
X160469Y222490D01*
X160557Y222840D01*
X161038Y223847D01*
X161126Y224197D01*
X161038Y224547D01*
X160338Y224635D01*
X160032Y224853D01*
X159900Y224985D01*
X159813Y225160D01*
X159375Y225510D01*
X159288Y225860D01*
X159375Y226560D01*
X159725Y227173D01*
X160163Y226210D01*
X160557Y225466D01*
X160732Y225378D01*
X161126Y224985D01*
X161170Y224853D01*
X161607Y224941D01*
X161738Y225072D01*
X161914Y225685D01*
X162132Y226079D01*
X163008Y225991D01*
X163314Y225685D01*
X163664Y224897D01*
X164277Y223584D01*
X164408Y223103D01*
X165065Y222009D01*
X165196Y221877D01*
X165721Y221790D01*
X165852Y221659D01*
X165765Y221396D01*
X165458Y221352D01*
X165196Y221440D01*
X164889Y221308D01*
X164714Y220608D01*
X164802Y219295D01*
X165108Y218726D01*
X165458Y218814D01*
X165502Y219208D01*
X165327Y219646D01*
X165546Y220127D01*
X165896Y220214D01*
X166071Y220127D01*
X166465Y219383D01*
X166552Y219033D01*
X166684Y218726D01*
X167384Y218814D01*
X167603Y218945D01*
X167690Y219120D01*
X167909Y219427D01*
X168609Y219602D01*
X170272Y219689D01*
X171060Y220302D01*
X171367Y220608D01*
X171454Y220783D01*
X171629Y220958D01*
X171804Y221484D01*
X171673Y221790D01*
X171498Y221702D01*
X171279Y221484D01*
X171191Y221308D01*
X171060Y221177D01*
X170447Y221090D01*
X170054Y221396D01*
X170010Y221790D01*
X170097Y222228D01*
X170404Y222709D01*
X170535Y222840D01*
X170710Y222928D01*
X171016Y223147D01*
X171104Y223322D01*
X171498Y223803D01*
X171717Y224022D01*
X171892Y224460D01*
X171804Y225685D01*
X171585Y225904D01*
X171279Y225597D01*
X171148Y225116D01*
X170710Y224591D01*
X170447Y224678D01*
X170316Y224810D01*
X170185Y225291D01*
X170141Y226122D01*
X170579Y227085D01*
X170666Y228223D01*
X170579Y228398D01*
X170229Y229186D01*
X170141Y229361D01*
X169922Y229667D01*
X169747Y229755D01*
X169222Y230105D01*
X169091Y229974D01*
X169178Y229361D01*
X169091Y228748D01*
X168522Y228705D01*
X167734Y229142D01*
X167603Y229274D01*
X167515Y230674D01*
X167296Y230980D01*
X166684Y231330D01*
X166552Y231462D01*
X166465Y231637D01*
X165896Y232731D01*
X165546Y232818D01*
X165327Y232600D01*
X165371Y230543D01*
X165196Y230280D01*
X164671Y230368D01*
X164277Y230762D01*
X164189Y230937D01*
X163927Y231374D01*
X163883Y231593D01*
X164058Y232031D01*
X164277Y232512D01*
X164233Y232993D01*
X163883Y233081D01*
X163270Y233169D01*
X162876Y233562D01*
X162701Y234000D01*
X162789Y235050D01*
X163095Y235357D01*
X163270Y235444D01*
X163489Y235663D01*
X163401Y236101D01*
X163183Y236232D01*
X162789Y236013D01*
D02*
G37*
G36*
X152986Y226473D02*
X153073Y225947D01*
Y225860D01*
X153380Y225554D01*
X153642Y225466D01*
X153686Y225860D01*
X153423Y226122D01*
X153336Y226298D01*
X153117Y226516D01*
X152986Y226473D01*
D02*
G37*
G36*
X179507Y217457D02*
X179332Y217020D01*
X179419Y216670D01*
X179594Y216232D01*
X179682Y215882D01*
X179594Y215444D01*
X179463Y215313D01*
X178850Y215225D01*
X178544Y215006D01*
X178456Y214831D01*
X178325Y214700D01*
X177975Y214788D01*
X177668Y215094D01*
X177581Y215269D01*
X177275Y215576D01*
X176662Y215488D01*
X176181Y215182D01*
X175874Y214525D01*
X175699Y214438D01*
X175393Y214131D01*
X175480Y213519D01*
X175787Y213212D01*
X176224Y213037D01*
X176268Y213256D01*
X176093Y213694D01*
X176005Y214044D01*
X176093Y214394D01*
X176662Y214438D01*
X177056Y214131D01*
X177143Y213956D01*
X177362Y213737D01*
X178062Y213475D01*
X178194Y213344D01*
X178106Y212993D01*
X177887Y212775D01*
X177406Y212643D01*
X176968Y212468D01*
X176881Y212118D01*
X177275Y211637D01*
X177450Y211549D01*
X178237Y211199D01*
X178544Y211330D01*
X178631Y211681D01*
X178587Y212249D01*
X178719Y212556D01*
X179244Y212906D01*
X179419Y213081D01*
X179332Y213431D01*
X179200Y213562D01*
X178631Y213781D01*
X178544Y214044D01*
X178631Y214394D01*
X179069Y214481D01*
X179375Y214613D01*
X179594Y214831D01*
X179682Y215357D01*
X180163Y215400D01*
X180688Y215225D01*
X180951Y214788D01*
X182439Y215488D01*
X183051Y215400D01*
X183270Y215182D01*
X183358Y215006D01*
X183664Y214700D01*
X184277Y214525D01*
X184627Y214613D01*
X184758Y214744D01*
X184846Y215269D01*
X185064Y215488D01*
X185415Y215400D01*
X185546Y215269D01*
X185458Y214744D01*
X185327Y214613D01*
X185152Y214525D01*
X185021Y214394D01*
X185108Y213956D01*
X185240Y213825D01*
X185940Y213562D01*
X186771Y212993D01*
X186859Y212818D01*
X187121Y212206D01*
X187253Y211724D01*
X187909Y210455D01*
X188347Y209492D01*
X188259Y208967D01*
X187997Y208529D01*
X187778Y208311D01*
X187603Y208223D01*
X187209Y207829D01*
X187078Y207348D01*
X187340Y206998D01*
X187778Y206735D01*
X187909Y206341D01*
X188172Y205466D01*
X188084Y204591D01*
X187647Y203890D01*
X187559Y203540D01*
X187603Y203322D01*
X188215Y203234D01*
X188697Y203103D01*
X189003Y202884D01*
X189310Y202578D01*
X189222Y202140D01*
X189047Y201702D01*
X189266Y201396D01*
X189922Y201177D01*
X189966Y200696D01*
X189922Y200127D01*
X190141Y200083D01*
X190404Y200171D01*
X190754Y200258D01*
X191235Y200127D01*
X191542Y199908D01*
X192067Y199558D01*
X193642Y199645D01*
X193905Y199733D01*
X195043Y199645D01*
X195655Y199733D01*
X195787Y199864D01*
X195699Y200389D01*
X195568Y200521D01*
X193817Y200608D01*
X193380Y200783D01*
X192854Y200871D01*
X192767Y201308D01*
X192592Y201746D01*
X192286Y202052D01*
X192198Y202403D01*
X192461Y202840D01*
X192636Y203015D01*
X192723Y203365D01*
X192373Y203715D01*
X192461Y204066D01*
X192854Y204109D01*
X193073Y203890D01*
X193117Y203497D01*
X193905Y203147D01*
X194255Y203059D01*
X194693Y203147D01*
X194868Y203322D01*
X195262Y203453D01*
X195174Y203978D01*
X194955Y204197D01*
X194605Y204109D01*
X193992Y203847D01*
X193686Y204066D01*
X193467Y204547D01*
X193029Y204722D01*
X192417Y204897D01*
X191848Y205028D01*
X191542Y205247D01*
X191235Y205554D01*
X191148Y205729D01*
X191060Y205991D01*
X191016Y206385D01*
X191104Y206823D01*
X191279Y206998D01*
X192286Y207129D01*
X192636Y207217D01*
X193205Y207523D01*
X194255Y207435D01*
X194518Y207348D01*
X194693D01*
X194868Y207435D01*
X194911Y207654D01*
X194693Y208048D01*
X194518Y208136D01*
X194255Y208223D01*
X193905Y208311D01*
X193117Y208223D01*
X192679Y208048D01*
X192067Y208136D01*
X191892Y208311D01*
X191760Y208354D01*
X191848Y208529D01*
X192286Y208617D01*
X192461Y208705D01*
X192373Y209142D01*
X191935Y209580D01*
X191848Y210192D01*
X191935Y210893D01*
X193161Y211505D01*
X193642Y211637D01*
X194955Y211549D01*
X195437Y211943D01*
X195568Y212249D01*
X195130Y212424D01*
X193467Y212337D01*
X193205Y212249D01*
X192242Y212337D01*
X192111Y212468D01*
X192198Y212906D01*
X192286Y213168D01*
X192198Y213344D01*
X191935Y213606D01*
X191892Y213825D01*
X192242Y214350D01*
X192417Y214438D01*
X193029Y214700D01*
X193467Y214875D01*
X193511Y215094D01*
X192942Y215138D01*
X192679Y215050D01*
X192329Y214963D01*
X191104Y214875D01*
X190841Y214788D01*
X190491Y214875D01*
X190360Y215006D01*
X190272Y215532D01*
X190141Y215751D01*
X189791Y215838D01*
X189397Y215794D01*
X189266Y215313D01*
X189091Y215138D01*
X188916Y215225D01*
X188872Y215619D01*
X189135Y216232D01*
X188828Y216626D01*
X187865Y216538D01*
X187253Y216276D01*
X185940Y216363D01*
X185152Y216713D01*
X184539Y217063D01*
X184102Y217501D01*
X183752Y217589D01*
X183139Y217676D01*
X182614Y217501D01*
X182483Y217370D01*
X182176Y216801D01*
X181038Y216626D01*
X180776Y216363D01*
X180557Y216407D01*
X180469Y216670D01*
X180557Y216932D01*
X180644Y217545D01*
X180557Y217807D01*
X180076Y217851D01*
X179507Y217457D01*
D02*
G37*
G36*
X196137Y212381D02*
X196268Y212249D01*
X196531Y212337D01*
X196574Y212381D01*
X196443Y212512D01*
X196268D01*
X196137Y212381D01*
D02*
G37*
G36*
X128522Y212424D02*
X128478Y212381D01*
X128609Y212249D01*
X129047Y212162D01*
X129309Y212337D01*
X128872Y212512D01*
X128697D01*
X128522Y212424D01*
D02*
G37*
G36*
X182526Y212862D02*
X182220Y212556D01*
X182132Y212206D01*
X182351Y211812D01*
X182614Y211724D01*
X182701D01*
X183139Y211812D01*
X183620Y212206D01*
X183533Y212818D01*
X183314Y213037D01*
X182964Y213125D01*
X182526Y212862D01*
D02*
G37*
G36*
X144583Y217807D02*
X144495Y217545D01*
X144583Y217282D01*
X144671Y216494D01*
X144364Y216188D01*
X143970Y216144D01*
X143664Y216451D01*
X143489Y216538D01*
X142701Y217151D01*
X142439Y217501D01*
X142001Y217676D01*
X141038Y217589D01*
X140863Y217413D01*
X140732Y217370D01*
X140644Y217195D01*
X140426Y216888D01*
X139813Y216713D01*
X138850Y216276D01*
X138500Y216188D01*
X138237Y216276D01*
X137537Y216451D01*
X136312Y216538D01*
X136093Y216319D01*
X136005Y216144D01*
X135874Y216013D01*
X135436Y215838D01*
X135043Y215619D01*
X134955Y215269D01*
X135043Y214831D01*
X135130Y214569D01*
X135086Y214350D01*
X134736Y214438D01*
X134386Y214788D01*
X133686Y214963D01*
X132460Y215050D01*
X132198Y215138D01*
X131804Y215094D01*
X131892Y214831D01*
X132592Y214569D01*
X132767Y214394D01*
X132854Y214219D01*
X133248Y213737D01*
X133467Y213344D01*
X133379Y212993D01*
X132986Y212862D01*
X132635Y213212D01*
X132110Y213125D01*
X131979Y212993D01*
X132110Y212862D01*
X132548Y212687D01*
X132679Y212556D01*
X132592Y212206D01*
X132373Y211987D01*
X131760Y212074D01*
X131498Y212337D01*
X131148Y212424D01*
X130929Y212468D01*
X130141Y212381D01*
X129791Y212293D01*
X129616Y212206D01*
X129878Y211768D01*
X130185Y211462D01*
X131235Y211549D01*
X131323Y211637D01*
X131585Y211549D01*
X131935Y211462D01*
X132767Y211330D01*
X132942Y211243D01*
X132986Y210849D01*
X132898Y210149D01*
X132811Y209799D01*
X132767Y208880D01*
X133029Y208267D01*
X132942Y208092D01*
X132548Y208048D01*
X131935Y208311D01*
X131060Y208223D01*
X130885Y208311D01*
X130622Y208223D01*
X130447Y208136D01*
X130316Y208004D01*
X130097Y207523D01*
X129660Y207348D01*
X129528Y207217D01*
X129484Y206910D01*
X129660Y206473D01*
X129835Y206385D01*
X129966Y206516D01*
X130141Y206954D01*
X130228Y207392D01*
X130360Y207523D01*
X131191Y207479D01*
X131673Y207523D01*
X131935Y207435D01*
X132417Y207304D01*
X132811Y207173D01*
X133161Y207085D01*
X134167Y206867D01*
X134342Y206779D01*
X134255Y206341D01*
X133817Y205904D01*
X133730Y205729D01*
X133336Y205160D01*
X133161Y205072D01*
X132723Y204897D01*
X132154Y204766D01*
X131804Y204591D01*
X131717Y204241D01*
X131629Y204066D01*
X131498Y203934D01*
X131279Y203890D01*
X131235Y203934D01*
X131148Y203847D01*
X131060Y203934D01*
X130973Y203847D01*
X130885Y203934D01*
X130622Y203847D01*
X130010Y203759D01*
X129091Y202840D01*
X129003Y202665D01*
X128653Y202140D01*
X128609Y202009D01*
X127734Y201921D01*
X127471Y201834D01*
X126640Y201702D01*
X126334Y201571D01*
X126290Y201440D01*
X126684Y201308D01*
X128259Y201396D01*
X128478Y201527D01*
X128741Y201965D01*
X129484Y202184D01*
X129922Y202446D01*
X130053Y202578D01*
X130141Y202928D01*
X130228Y203190D01*
X130360Y203322D01*
X130973Y203059D01*
X131673Y203147D01*
X131935Y203234D01*
X132504Y202928D01*
X132592Y202753D01*
X132767Y202315D01*
X132811Y202096D01*
X132723Y201746D01*
X132460Y201483D01*
X132285Y201396D01*
X132067Y201265D01*
X131979Y201090D01*
X131673Y200783D01*
X131323Y200696D01*
X130710Y200521D01*
X130360Y200433D01*
X129397Y200346D01*
X129266Y200214D01*
X129134Y199733D01*
X128872Y199645D01*
X128172Y199820D01*
X127647Y199733D01*
X127340Y199427D01*
X127253Y199252D01*
X126859Y199120D01*
X126027Y199252D01*
X125590Y199339D01*
X124671Y199383D01*
X124452Y199164D01*
X124539Y198901D01*
X125196Y198508D01*
X126596Y198595D01*
X126859Y198683D01*
X127296Y198595D01*
X127428Y198201D01*
X127647Y197632D01*
X127734Y197545D01*
X127953Y198114D01*
X128084Y198595D01*
X129047Y199120D01*
X129309Y199558D01*
X130185Y199645D01*
X130535Y199733D01*
X131673Y199645D01*
X131935Y199558D01*
X132548Y199470D01*
X132986Y199558D01*
X133292Y199864D01*
X133379Y200039D01*
X133773Y200171D01*
X134824Y200083D01*
X135130Y200302D01*
X135218Y200652D01*
X135349Y201133D01*
X135524Y201308D01*
X136049Y201396D01*
X136268Y201615D01*
X136312Y201921D01*
X136137Y202184D01*
X135962Y202271D01*
X135918Y202490D01*
X136355Y202928D01*
X136399Y203059D01*
X137012Y203234D01*
X137625Y203322D01*
X137887Y203234D01*
X138194Y202928D01*
X138281Y202753D01*
X138500Y202534D01*
X138850Y202446D01*
X139069Y202315D01*
X138981Y202052D01*
X138587Y202009D01*
X138325Y202096D01*
X137887Y202009D01*
X137800Y201308D01*
X137581Y201002D01*
X137143Y200827D01*
X136968Y200477D01*
X137100Y200346D01*
X137537Y200433D01*
X137756Y200652D01*
X137843Y200827D01*
X137975Y200958D01*
X138762Y201308D01*
X139375Y201221D01*
X139638Y201133D01*
X140513Y201221D01*
X140776Y201133D01*
X141738Y201221D01*
X142132Y201527D01*
X142395Y201965D01*
X142614Y202184D01*
X143051Y202446D01*
X143139Y202796D01*
X143226Y203234D01*
X143358Y203715D01*
X143270Y203978D01*
X142876Y204109D01*
X141651Y204197D01*
X140732Y204766D01*
X140557Y205466D01*
X140469Y205991D01*
X140294Y206429D01*
X140382Y206604D01*
X140819Y207567D01*
X141082Y208004D01*
X141257Y208179D01*
X141432Y208792D01*
X141344Y209142D01*
X141213Y209274D01*
X140776Y209186D01*
X140644Y209055D01*
X140469Y208354D01*
X140032Y207742D01*
X139944Y207392D01*
X139988Y206385D01*
X139506Y205904D01*
X139419Y205729D01*
X139113Y205422D01*
X138937Y205335D01*
X138719Y205116D01*
X138631Y204766D01*
X138719Y204241D01*
X139069Y204066D01*
X139025Y203847D01*
X138587Y203759D01*
X137975Y204022D01*
X137493Y204153D01*
X137012Y204460D01*
X136793Y204678D01*
X136706Y204853D01*
X136618Y205116D01*
X136706Y205554D01*
X137012Y205772D01*
X137318Y206079D01*
X137493Y206867D01*
X138106Y207217D01*
X138194Y207479D01*
X137975Y207786D01*
X137625Y207873D01*
X137450Y207786D01*
X137362Y207260D01*
X137275Y207085D01*
X136662Y207173D01*
X136443Y207392D01*
X136530Y207829D01*
X136662Y207961D01*
X137231Y208179D01*
X137318Y208442D01*
X137231Y209930D01*
X137318Y210192D01*
X137406Y210543D01*
X137362Y211549D01*
X137975Y211899D01*
X138106Y212293D01*
X138325Y212862D01*
X138937Y213212D01*
X139069Y213344D01*
X139156Y213519D01*
X139288Y213650D01*
X139725Y213825D01*
X139900Y213912D01*
X140032Y214044D01*
X140119Y214306D01*
X139857Y214744D01*
X139594Y215006D01*
X139506Y215269D01*
X139638Y215488D01*
X139988Y215576D01*
X140426Y215313D01*
X140776Y214788D01*
X141213Y214613D01*
X141563Y214700D01*
X142045Y215094D01*
X142132Y215269D01*
X142526Y215400D01*
X143314Y215313D01*
X143577Y215050D01*
X143927Y214963D01*
X144102Y215050D01*
X144364Y215313D01*
X145152Y215225D01*
X145633Y214831D01*
X145765Y214700D01*
X146596Y214306D01*
X146684Y213956D01*
Y213869D01*
X146640Y213737D01*
X146159Y213606D01*
X145896Y213344D01*
X145984Y212906D01*
X146115Y212775D01*
X146290Y212687D01*
X146509Y212556D01*
X146596Y212206D01*
X146640Y211199D01*
X147515Y211287D01*
X147822Y211593D01*
X147734Y212381D01*
X147515Y212599D01*
X147078Y212775D01*
X146859Y212993D01*
X146815Y213562D01*
X146903Y213737D01*
X147778Y213825D01*
X148128Y214175D01*
X148478Y214263D01*
X149047Y214394D01*
X149222Y214831D01*
X148959Y215269D01*
X148215Y215488D01*
X147778Y215400D01*
X147340Y214963D01*
X147078Y214875D01*
X146465Y215138D01*
X146115Y215225D01*
X145721Y215444D01*
X145633Y216057D01*
X145721Y216319D01*
X145808Y216670D01*
X145721Y217370D01*
X145502Y217676D01*
X144889Y217851D01*
X144583Y217807D01*
D02*
G37*
G36*
X155962Y211418D02*
X155874Y211068D01*
X156093Y210499D01*
X156268Y210324D01*
X156881Y209974D01*
X157231Y209624D01*
X157668Y209449D01*
X158019Y209361D01*
X158675Y209230D01*
X159113Y208617D01*
X160863Y208529D01*
X161520Y208486D01*
X161782Y208573D01*
X162132Y208661D01*
X162570Y208836D01*
X163008Y208661D01*
X163358Y208573D01*
X164802Y208529D01*
X165983Y208661D01*
X166334Y208748D01*
X166684Y209098D01*
X167778Y209492D01*
X168216Y209755D01*
X168391Y210368D01*
X168434Y210761D01*
X169134Y210849D01*
X169266Y210980D01*
X169353Y211243D01*
X169266Y211505D01*
X169178Y211681D01*
X168959Y211899D01*
X168434Y211812D01*
X168347Y211462D01*
X168259Y210936D01*
X167997Y211024D01*
X167515Y211505D01*
X167472Y211637D01*
X167121Y211724D01*
X166684Y211637D01*
X166465Y211418D01*
X166552Y211068D01*
X166640Y210805D01*
X166552Y210192D01*
X166159Y209624D01*
X165371Y209711D01*
X164977Y210017D01*
X165065Y210630D01*
X164933Y210761D01*
X164321Y210936D01*
X163445Y210849D01*
X163051Y210543D01*
X163314Y209930D01*
X163226Y209580D01*
X163008Y209361D01*
X162657Y209274D01*
X162307Y209361D01*
X161695Y209711D01*
X161563Y209842D01*
X161782Y210061D01*
X162220Y210324D01*
X162351Y210455D01*
X162264Y210630D01*
X162045Y210849D01*
X161782Y210936D01*
X161695D01*
X161345Y211024D01*
X161082Y210936D01*
X160513Y210718D01*
X160207Y210586D01*
X160075Y210455D01*
X159988Y209930D01*
X159681Y209624D01*
X159069Y209449D01*
X158806Y209536D01*
X158763Y210893D01*
X158850Y211155D01*
X158806Y211462D01*
X158369Y211637D01*
X157843Y211549D01*
X157406Y211111D01*
X157056Y211199D01*
X156749Y211505D01*
X156662Y211856D01*
X156749Y212031D01*
X156618Y212074D01*
X155962Y211418D01*
D02*
G37*
G36*
X141607Y212906D02*
X141257Y212556D01*
X141344Y212118D01*
X141651Y211899D01*
X141870Y211681D01*
X141782Y211243D01*
X141476Y210936D01*
X140863Y210849D01*
X140382Y210893D01*
X139944Y210805D01*
X139506Y210543D01*
X139419Y210192D01*
X139506Y209842D01*
X139638Y209711D01*
X140250Y209799D01*
X140688Y210236D01*
X141651Y209974D01*
X142439Y209624D01*
X142964Y209711D01*
X143095Y209842D01*
X143008Y210280D01*
X142789Y210499D01*
X142614Y210586D01*
X142482Y210718D01*
X142307Y211155D01*
X142220Y211418D01*
X142307Y211593D01*
X142351Y211637D01*
X142526Y211812D01*
X143008Y211943D01*
X143183Y212031D01*
X143270Y212381D01*
X143051Y212687D01*
X142439Y212950D01*
X142088Y213037D01*
X141607Y212906D01*
D02*
G37*
G36*
X150579Y209974D02*
X150491D01*
X150360Y209842D01*
X150447Y209580D01*
X150666Y209536D01*
X150885Y209755D01*
X150797Y210017D01*
X150666Y210061D01*
X150579Y209974D01*
D02*
G37*
G36*
X173992Y209930D02*
X174080Y209667D01*
X174561Y209536D01*
X174824Y209624D01*
X174868Y209755D01*
X174649Y209974D01*
X174299Y210061D01*
X174124D01*
X173992Y209930D01*
D02*
G37*
G36*
X183051Y211024D02*
X182701Y210674D01*
X182264Y210586D01*
X182001Y210674D01*
X181782Y210718D01*
X181913Y210149D01*
X182089Y209711D01*
X182701Y209449D01*
X183051Y209536D01*
X183139Y209886D01*
X183314Y210149D01*
X183664Y210236D01*
X184102Y209974D01*
X184364Y209886D01*
X184539D01*
X184583Y209930D01*
X185458Y210017D01*
X185371Y210455D01*
X184977Y210849D01*
X183839Y210936D01*
X183664Y211111D01*
X183051Y211024D01*
D02*
G37*
G36*
X143708Y208442D02*
X143795Y208004D01*
X143839Y207961D01*
X144189Y208048D01*
X144233Y208617D01*
X143927Y208661D01*
X143708Y208442D01*
D02*
G37*
G36*
X156224D02*
X156180Y208398D01*
X156137Y208092D01*
X156268Y207961D01*
X157362Y208004D01*
X157274Y208354D01*
X156881Y208486D01*
X156224Y208442D01*
D02*
G37*
G36*
X168128D02*
X167822Y208223D01*
X167778Y208179D01*
X167822Y207961D01*
X168172Y207873D01*
X168653Y208004D01*
X168916Y208267D01*
X168828Y208442D01*
X168478Y208529D01*
X168128Y208442D01*
D02*
G37*
G36*
X180469Y208880D02*
X180994Y208004D01*
X181126Y207873D01*
X181388Y207786D01*
X181607Y208004D01*
X181520Y208267D01*
Y208354D01*
X181213Y208661D01*
X181038Y208748D01*
X180601Y208923D01*
X180469Y208880D01*
D02*
G37*
G36*
X175699Y209536D02*
X175174Y209449D01*
X175130Y209142D01*
X175480Y208529D01*
X175655Y208179D01*
X175393Y207567D01*
X175349Y207260D01*
X175480Y206954D01*
X175874Y206823D01*
X176443Y206604D01*
X176574Y206473D01*
X176749Y206385D01*
X177012Y206297D01*
X177625Y206473D01*
X178150Y206560D01*
X178762Y206823D01*
X179463Y206735D01*
X180688Y206035D01*
X181301Y205772D01*
X181738Y205860D01*
X181870Y205991D01*
X181957Y206166D01*
Y206254D01*
X182001Y206473D01*
X181870Y206779D01*
X181651Y206998D01*
X181038Y207085D01*
X180776Y207173D01*
X180163Y207610D01*
X179288Y207698D01*
X177493Y207654D01*
X177143Y207742D01*
X176881Y208004D01*
X176793Y208354D01*
X176706Y209842D01*
X176312Y209974D01*
X175699Y209536D01*
D02*
G37*
G36*
X157975Y207479D02*
X157800Y207042D01*
X157887Y206691D01*
X158019Y206648D01*
X158325Y206867D01*
X158412Y207217D01*
X158369Y207523D01*
X158019D01*
X157975Y207479D01*
D02*
G37*
G36*
X167253Y206691D02*
X167296Y206648D01*
X167340Y206691D01*
Y206779D01*
X167296Y206823D01*
X167253Y206691D01*
D02*
G37*
G36*
X193073Y207042D02*
X193161Y206604D01*
X193292Y206473D01*
X193773Y206341D01*
X194080Y206473D01*
X194124Y206604D01*
X194080Y206648D01*
X193861Y206954D01*
X193730Y207085D01*
X193073Y207042D01*
D02*
G37*
G36*
X130754Y206779D02*
X130622Y206297D01*
X130885Y206210D01*
X131148Y206297D01*
X131585Y206560D01*
X131717Y206691D01*
X131629Y206867D01*
X131498Y206998D01*
X131060D01*
X130754Y206779D01*
D02*
G37*
G36*
X195174Y206954D02*
X195086Y206166D01*
Y206079D01*
X195043Y205947D01*
X194736Y205904D01*
X194780Y205772D01*
X195086Y205816D01*
X195830Y205772D01*
X195962Y205904D01*
X196049Y206254D01*
X195962Y206516D01*
X195874Y206691D01*
X195655Y206910D01*
X195305Y206998D01*
X195174Y206954D01*
D02*
G37*
G36*
X129747Y206122D02*
X129616Y206079D01*
X129660Y205772D01*
X130185Y205685D01*
X130404Y205904D01*
X130316Y206079D01*
X130272Y206122D01*
X130185D01*
X129835Y206297D01*
X129747Y206122D01*
D02*
G37*
G36*
X148522Y210105D02*
X148347Y209492D01*
X148434Y209142D01*
X148347Y208092D01*
X148040Y207786D01*
X147603Y207610D01*
X145590Y207698D01*
X145502D01*
X144495Y207567D01*
X144189Y207348D01*
X143839Y206998D01*
X143270Y206779D01*
X143095Y206604D01*
X143183Y206254D01*
X143577Y205772D01*
X143839Y205685D01*
X145064Y206385D01*
X145590Y206735D01*
X146377Y206823D01*
X146640Y206735D01*
X147603Y206297D01*
X148084Y206429D01*
X148478Y206648D01*
X148828Y206735D01*
X149528Y206823D01*
X149660Y206954D01*
X149747Y207217D01*
X149572Y207654D01*
X149485Y208004D01*
X149572Y208354D01*
X149922Y208880D01*
X150010Y209230D01*
X149879Y209361D01*
X149703Y209449D01*
X149397Y209755D01*
X149310Y209930D01*
X149178Y210149D01*
X148828Y210236D01*
X148522Y210105D01*
D02*
G37*
G36*
X128434Y205510D02*
X127471Y204985D01*
X127428Y204853D01*
X127471Y204810D01*
X127515Y204766D01*
X128172Y204722D01*
X128434Y204810D01*
X129003Y205116D01*
X129091Y205466D01*
X129047Y205597D01*
X128434Y205510D01*
D02*
G37*
G36*
X196180Y205422D02*
X196049Y205291D01*
X196093Y204985D01*
X196531Y204810D01*
X196881Y204722D01*
X197975Y204766D01*
X197887Y204941D01*
X197187Y205204D01*
X197056Y205335D01*
X196968D01*
X196924Y205379D01*
X196443Y205510D01*
X196180Y205422D01*
D02*
G37*
G36*
X148215Y205597D02*
X147997Y205379D01*
X147909Y205204D01*
X147778Y205072D01*
X146859Y205204D01*
X146815Y205247D01*
X146728D01*
X146027Y205160D01*
X145546Y204766D01*
X145677Y204634D01*
X146290Y204547D01*
X147340Y204634D01*
X147865Y204985D01*
X148303Y204810D01*
X148653Y204722D01*
X148784Y204853D01*
X148872Y205379D01*
X148741Y205597D01*
X148390Y205685D01*
X148215Y205597D01*
D02*
G37*
G36*
X178062Y205160D02*
X177975D01*
X177843Y205028D01*
X177931Y204678D01*
X178150Y204460D01*
X178631Y204591D01*
X179069Y204853D01*
X178981Y205116D01*
X178587Y205247D01*
X178062Y205160D01*
D02*
G37*
G36*
X179594Y204678D02*
X179638Y204460D01*
X179682Y204416D01*
X179769Y204241D01*
X179900Y204022D01*
X180338Y204109D01*
X180469Y204328D01*
X180163Y204722D01*
X179857Y204766D01*
X179594Y204678D01*
D02*
G37*
G36*
X152767Y205860D02*
X152154Y205510D01*
X152023Y205116D01*
Y205028D01*
X152110Y204766D01*
X152461Y204678D01*
X152767Y204547D01*
X152898Y204066D01*
X152986Y203715D01*
X153336Y203190D01*
X153423Y202928D01*
X152986Y202315D01*
X152854Y201834D01*
X152636Y201527D01*
X152504Y201396D01*
X152329Y201308D01*
X152110Y201090D01*
X152067Y200958D01*
X151629Y200783D01*
X151279Y200696D01*
X150666Y200608D01*
X150360Y200389D01*
X150185Y199952D01*
X150229Y199820D01*
X150579Y199908D01*
X151673Y199777D01*
X151848Y199689D01*
X151892Y199033D01*
X152154Y199120D01*
X152504Y199470D01*
X153030Y199558D01*
X153467Y199295D01*
X153817Y198770D01*
X153948Y198814D01*
X154124Y199427D01*
X154211Y199777D01*
X154124Y199952D01*
X153686Y200127D01*
X153205Y200346D01*
X152592Y200433D01*
X152548Y200740D01*
X152942Y201133D01*
X153380Y201308D01*
X153642Y201221D01*
X154167Y200696D01*
X154386Y200652D01*
X154692Y200783D01*
X154999Y201090D01*
X154955Y202446D01*
X155130Y202709D01*
X155480Y202796D01*
X155874Y202578D01*
X156093Y202009D01*
X156268Y201746D01*
X156531Y201834D01*
X156662Y201965D01*
X156574Y202753D01*
X156049Y203278D01*
X155874Y203715D01*
X155568Y204022D01*
X155043Y204109D01*
X154736Y203453D01*
X154430Y203409D01*
X154036Y203803D01*
X154124Y204066D01*
X154474Y204153D01*
X154692Y204197D01*
X154867Y204109D01*
X154999Y204241D01*
X154911Y205028D01*
X154780Y205160D01*
X154342Y205335D01*
X154167Y205422D01*
X153948Y205641D01*
X153905Y205772D01*
X153730Y205860D01*
X153467Y205947D01*
X152767Y205860D01*
D02*
G37*
G36*
X178894Y202928D02*
X178938Y202796D01*
X179156Y202840D01*
Y202928D01*
X179025Y203059D01*
X178894Y202928D01*
D02*
G37*
G36*
X188128Y202534D02*
X188084Y202403D01*
X188128Y202359D01*
X188215D01*
X188391Y202446D01*
X188434Y202490D01*
X188303Y202621D01*
X188128Y202534D01*
D02*
G37*
G36*
X195174Y203190D02*
X195086Y202928D01*
X194911Y202578D01*
X195043Y202359D01*
X195393Y202271D01*
X196005Y202359D01*
X196137Y202227D01*
X196356Y201659D01*
X196618Y201396D01*
X197493Y201308D01*
X198806Y201396D01*
X198938Y201527D01*
X198806Y201659D01*
X197581Y201746D01*
X197275Y201965D01*
X197231Y202009D01*
X197056Y202096D01*
X196881Y202271D01*
X196443Y202446D01*
X196268Y202534D01*
X195830Y203234D01*
X195568Y203322D01*
X195349Y203365D01*
X195174Y203190D01*
D02*
G37*
G36*
X151104Y204284D02*
X151060Y204241D01*
Y204153D01*
X150885Y203715D01*
X150797Y203278D01*
X150447Y202753D01*
X150535Y202315D01*
X150666Y202184D01*
X151191Y202271D01*
X151323Y202403D01*
X151410Y202753D01*
X151629Y203322D01*
X151673Y204066D01*
X151454Y204372D01*
X151104Y204284D01*
D02*
G37*
G36*
X173730Y203803D02*
X173642Y203628D01*
X173292Y203278D01*
X173380Y203015D01*
X173730Y202665D01*
X173905Y202315D01*
X173949Y202271D01*
X174299Y202184D01*
X174692Y202403D01*
X174780Y202753D01*
X174518Y203190D01*
X174342Y203365D01*
X174255Y203890D01*
X174036Y204109D01*
X173730Y203803D01*
D02*
G37*
G36*
X147690Y203234D02*
X147559Y203103D01*
X147646Y202665D01*
X147997Y202140D01*
X148215Y201746D01*
X148478Y201834D01*
X148653Y201921D01*
X148784Y202315D01*
X148609Y202753D01*
X148522Y202928D01*
Y203015D01*
X148303Y203322D01*
X147997Y203365D01*
X147690Y203234D01*
D02*
G37*
G36*
X171542Y206079D02*
X171148Y205335D01*
X170579Y205204D01*
X170404Y205116D01*
X170316Y204766D01*
X170054Y204328D01*
X169572Y204022D01*
X169353Y203803D01*
X169266Y203628D01*
X169047Y203409D01*
X168872Y203322D01*
X168653Y202840D01*
X168741Y201790D01*
X168959Y201483D01*
X169266Y201527D01*
X169353Y201877D01*
X169441Y202403D01*
X169835Y202972D01*
X170185Y203059D01*
X170666Y202753D01*
X170754Y202578D01*
X170841Y202315D01*
X170754Y202140D01*
X170404Y201790D01*
X170316Y201440D01*
X170404Y201090D01*
X170754Y201002D01*
X171191Y200827D01*
X171367Y200389D01*
X171410Y199996D01*
X171323Y199820D01*
X171279Y199777D01*
X171104Y199339D01*
X171191Y198376D01*
X171410Y198158D01*
X171629Y198201D01*
X171804Y198814D01*
X171892Y199252D01*
X172110Y199470D01*
X172461Y199558D01*
X172898Y199645D01*
X173029Y199777D01*
X173073Y199996D01*
X173686Y199908D01*
X173949Y199820D01*
X174561Y199908D01*
X174868Y200127D01*
X174780Y200389D01*
X174561Y200608D01*
X173642Y200740D01*
X173205Y200827D01*
X173161Y200871D01*
X172942Y200740D01*
X172854Y200302D01*
X172373Y200258D01*
X171979Y200477D01*
X172067Y200915D01*
X172592Y201002D01*
X172767Y201090D01*
X172679Y201440D01*
X172285Y201834D01*
X171848Y202096D01*
X171717Y202227D01*
X171629Y203103D01*
X171717Y203365D01*
X171979Y203803D01*
X172110Y203934D01*
X172285Y204022D01*
X172417Y204153D01*
X172679Y204591D01*
X173117Y204853D01*
X173029Y205204D01*
X172373Y205860D01*
X171760Y206122D01*
X171542Y206079D01*
D02*
G37*
G36*
X176487Y203322D02*
X176356Y203190D01*
X176443Y201615D01*
X176574Y201483D01*
X176837D01*
X177100Y201571D01*
X177231Y201965D01*
X177318Y202665D01*
X177406Y202928D01*
X177318Y203190D01*
X176837Y203409D01*
X176487Y203322D01*
D02*
G37*
G36*
X113992Y202096D02*
X113029Y201659D01*
X111979Y201571D01*
X111585Y201177D01*
X111498Y201002D01*
X111366Y200871D01*
X111191Y200783D01*
X110885Y200477D01*
X110797Y199164D01*
X110622Y198639D01*
X110491Y198508D01*
X110316Y198420D01*
X110097Y198289D01*
X109966Y197807D01*
X110053Y197545D01*
X110491Y197282D01*
X110535Y197151D01*
X110229Y196845D01*
X109616Y196932D01*
X109178Y197107D01*
X108128Y197020D01*
X107997Y196888D01*
X107822Y196188D01*
X107690Y196057D01*
X107253Y195882D01*
X106903Y195794D01*
X106333Y195663D01*
X106421Y195400D01*
X106684Y194788D01*
X106771Y194087D01*
X106990Y193869D01*
X107603Y193781D01*
X108172Y194087D01*
X108215Y194306D01*
X108040Y194481D01*
X107690Y194569D01*
X107471Y194788D01*
X107559Y195050D01*
X107690Y195182D01*
X107953Y195269D01*
X108740Y194919D01*
X109528Y194831D01*
X109747Y194613D01*
X109835Y194438D01*
X110097Y193825D01*
X110010Y192950D01*
X110053Y192381D01*
X110579Y192468D01*
X110885Y192774D01*
X110972Y193387D01*
X110885Y193650D01*
X110710Y194350D01*
X110622Y194963D01*
X110141Y195182D01*
X109966Y195269D01*
X109835Y195400D01*
X109922Y195750D01*
X110053Y195882D01*
X110579Y195794D01*
X110710Y195663D01*
X110885Y195225D01*
X111104Y195007D01*
X111716Y194656D01*
X111760Y194438D01*
X111410Y193650D01*
X111498Y193387D01*
X111585Y193037D01*
X111498Y192774D01*
X111410Y192249D01*
X110885Y191899D01*
X110710Y191724D01*
X110622Y191549D01*
X110404Y191330D01*
X109528Y191243D01*
X109353Y191155D01*
X109134Y190937D01*
X109222Y190586D01*
X109441Y190367D01*
X109791Y190280D01*
X110404Y190367D01*
X110622Y190499D01*
X110972Y191112D01*
X111104Y191243D01*
X111279Y191330D01*
X111804Y191680D01*
X112504Y191593D01*
X113029Y191243D01*
X113642Y191068D01*
X113992Y190980D01*
X114386Y191199D01*
X114605Y191680D01*
X114780Y191768D01*
X115042Y191856D01*
X115655Y192206D01*
X115918Y192468D01*
X116268Y192556D01*
X116968Y192643D01*
X117187Y193125D01*
X117099Y193562D01*
X116881Y193781D01*
X116706Y193869D01*
X116574Y194000D01*
X116837Y194613D01*
X116618Y194919D01*
X115393Y195094D01*
X115261Y195225D01*
X115174Y195663D01*
X114867Y195969D01*
X114517Y196057D01*
X114080Y195969D01*
X113861Y195750D01*
X113773Y195488D01*
X113861Y195225D01*
X113948Y194875D01*
X113861Y194350D01*
X113467Y194219D01*
X113117Y194306D01*
X112986Y194438D01*
X113117Y197282D01*
X113292Y197457D01*
X113642Y197545D01*
X113730D01*
X114167Y197632D01*
X114649Y197238D01*
X114736Y197063D01*
X114955Y196845D01*
X115393Y196669D01*
X115524Y196538D01*
X115611Y196188D01*
X116005Y196057D01*
X116443Y196144D01*
X116574Y196451D01*
X116355Y196669D01*
X115655Y196757D01*
X115524Y196888D01*
X115611Y197501D01*
X115743Y197632D01*
X116093Y197720D01*
X116706Y197632D01*
X116924Y197414D01*
X116968Y197282D01*
X117231Y197195D01*
X117668Y197370D01*
X117931Y197282D01*
X118150Y196976D01*
X118281Y196845D01*
X118631Y196932D01*
X118762Y197676D01*
X119331Y197895D01*
X119550Y198114D01*
X119682Y198683D01*
X119813Y199164D01*
X119725Y199952D01*
X119813Y200214D01*
X119725Y200565D01*
X119463Y201002D01*
X119156Y201221D01*
X118894Y201483D01*
X118456Y201659D01*
X117843Y201396D01*
X117406Y201483D01*
X116968Y201659D01*
X116093Y201746D01*
X115655Y201834D01*
X115042Y202096D01*
X114692Y202184D01*
X113992Y202096D01*
D02*
G37*
G36*
X178019Y201265D02*
X178062Y201221D01*
X178194Y201265D01*
X178062Y201396D01*
X178019Y201265D01*
D02*
G37*
G36*
X183358Y209230D02*
X183445Y208967D01*
X183708Y208705D01*
X183883Y208092D01*
X184102Y207698D01*
X184277Y207610D01*
X184583Y207304D01*
X184671Y206954D01*
X184714Y205597D01*
X184583Y205291D01*
X184452Y205160D01*
X184277Y205072D01*
X184058Y204941D01*
X183970Y204766D01*
X183795Y204591D01*
X183752Y204460D01*
X183314Y204284D01*
X182614Y204197D01*
X182176Y204022D01*
X181738Y203934D01*
X181695Y203803D01*
X182132Y203190D01*
X182220Y202227D01*
X182526Y201921D01*
X182701Y201834D01*
X182833Y201702D01*
X182920Y201527D01*
X183226Y201221D01*
X183577Y201133D01*
X185765Y201221D01*
X186027Y201308D01*
X186465D01*
X186727Y201221D01*
X187428Y200521D01*
X187778Y200433D01*
X187997Y200389D01*
X188172Y200477D01*
X187909Y200915D01*
X187734Y201090D01*
X187471Y201702D01*
X187384Y202052D01*
X187165Y202359D01*
X187034Y202403D01*
X186946Y202578D01*
X186859Y202840D01*
X186903Y203497D01*
X186815Y204022D01*
X186727Y204372D01*
X186553Y204810D01*
X186334Y205116D01*
X186159Y205204D01*
X186071Y205379D01*
X185896Y205554D01*
X185633Y205991D01*
X185283Y206779D01*
X185108Y207217D01*
X184758Y208004D01*
X184671Y208354D01*
X184364Y208661D01*
X183927Y208923D01*
X183577Y209274D01*
X183358Y209230D01*
D02*
G37*
G36*
X175043Y199952D02*
X174955Y199339D01*
X175043Y199076D01*
X175086Y198858D01*
X175787Y199033D01*
X176005Y199076D01*
Y199164D01*
X175918Y199689D01*
X175699Y199908D01*
X175349Y199996D01*
X175043Y199952D01*
D02*
G37*
G36*
X199069Y199295D02*
X198806Y199208D01*
X198456Y199120D01*
X198281Y199033D01*
X198194D01*
X198150Y198814D01*
X198281Y198683D01*
X198631Y198595D01*
X199244Y198508D01*
X200382Y198595D01*
X200863Y198989D01*
X200644Y199295D01*
X200294Y199383D01*
X199069Y199295D01*
D02*
G37*
G36*
X196093Y199645D02*
X195962Y199252D01*
X196356Y198770D01*
X197056Y198420D01*
X197143D01*
X197406Y198333D01*
X197712Y198639D01*
X197800Y198989D01*
X197669Y199470D01*
X197493Y199645D01*
X196881Y199733D01*
X196093Y199645D01*
D02*
G37*
G36*
X123358Y198770D02*
X123314Y198376D01*
X123445Y198245D01*
X123708Y198333D01*
X123751Y198551D01*
X123795Y198595D01*
X123839Y198639D01*
X123620Y198858D01*
X123358Y198770D01*
D02*
G37*
G36*
X173029Y199164D02*
X173117Y198114D01*
X173336Y197720D01*
X173949Y197807D01*
X174561Y198070D01*
X174999Y198333D01*
X175043Y198639D01*
X174824Y198683D01*
X174474Y198333D01*
X174211Y198245D01*
X173730Y198639D01*
X173598Y199033D01*
X173555Y199076D01*
X173467Y199252D01*
X173336Y199383D01*
X173117Y199427D01*
X173029Y199164D01*
D02*
G37*
G36*
X148959Y199339D02*
X148872Y199164D01*
X148697Y198726D01*
Y198289D01*
X148741Y198245D01*
X149003Y198158D01*
X149266Y198245D01*
X149397Y198376D01*
X149616Y198945D01*
X149747Y199252D01*
X149922Y199602D01*
X149528Y199645D01*
X148959Y199339D01*
D02*
G37*
G36*
X176137Y198770D02*
X176093Y198289D01*
X176137Y198245D01*
X176181Y198201D01*
X176268Y198026D01*
X176312Y197982D01*
X176531Y198114D01*
X176443Y198726D01*
X176312Y198858D01*
X176137Y198770D01*
D02*
G37*
G36*
X201476Y198464D02*
X201564Y197851D01*
X201695Y197720D01*
X201826Y197851D01*
X201914Y198464D01*
X201870Y198508D01*
X201826Y198551D01*
X201607Y198595D01*
X201476Y198464D01*
D02*
G37*
G36*
X162220Y199295D02*
X162001Y199076D01*
X161914Y198201D01*
X162001Y198026D01*
X162570Y197720D01*
X162920Y197632D01*
X163270Y197720D01*
X163445Y197895D01*
X163489Y197939D01*
X163401Y198551D01*
X163008Y199033D01*
X162657Y199383D01*
X162220Y199295D01*
D02*
G37*
G36*
X209747Y202096D02*
X209222Y201746D01*
X208084Y201659D01*
X207822Y201571D01*
X207209Y201483D01*
X206859Y201571D01*
X206159Y201483D01*
X205940Y201352D01*
X205852Y201177D01*
X205502Y200565D01*
X205327Y200389D01*
X205240Y200214D01*
X205065Y199777D01*
X205152Y198989D01*
X205283Y198858D01*
X205458Y198770D01*
X205677Y198551D01*
X205809Y198070D01*
X205984Y197807D01*
X206465Y197676D01*
X206640Y197501D01*
X206771Y197020D01*
X207034Y196932D01*
X207559Y197020D01*
X208172Y197457D01*
X208872Y197632D01*
X209747Y197545D01*
X210185Y197370D01*
X211848Y197457D01*
X212023Y197370D01*
X212067Y196888D01*
X211979Y196626D01*
X212067Y195925D01*
X212242Y195488D01*
X212329Y195138D01*
Y195050D01*
X212242Y194350D01*
X212110Y194219D01*
X211498Y194306D01*
X211279Y194525D01*
X211367Y195050D01*
X211542Y195488D01*
X211454Y195838D01*
X211060Y195969D01*
X210010Y195882D01*
X209791Y195313D01*
X209485Y195007D01*
X208259Y194919D01*
X207865Y194263D01*
X207953Y193562D01*
X208391Y192774D01*
X208872Y192293D01*
X209222Y192206D01*
X210316Y191812D01*
X210491Y191637D01*
X210798Y191068D01*
X211410Y190980D01*
X211673Y191068D01*
X212110Y191243D01*
X212723Y191680D01*
X213686Y191243D01*
X214124Y191068D01*
X214430Y190761D01*
X214517Y190586D01*
X214736Y190367D01*
X215087Y190280D01*
X215699Y190367D01*
X216005Y190586D01*
X216093Y190937D01*
X215874Y191155D01*
X215524Y191243D01*
X214868Y191374D01*
X214561Y191505D01*
X214211Y192031D01*
X213992Y192249D01*
X213949Y192468D01*
X214211Y192556D01*
X215043Y192599D01*
X215130Y193212D01*
X215043Y193562D01*
X214999Y193869D01*
X215218Y194087D01*
X215305Y194263D01*
X215480Y194438D01*
X215568Y194613D01*
X215699Y194744D01*
X216137Y194919D01*
X216706Y195050D01*
X217056Y195138D01*
X217625Y195182D01*
X217931Y194963D01*
X217887Y194569D01*
X217406Y194438D01*
X217100Y194481D01*
X216881Y194350D01*
X216968Y194175D01*
X217100Y194044D01*
X218325Y193869D01*
X218456Y194000D01*
X218500Y195357D01*
X218281Y195663D01*
X217975Y195882D01*
X217581Y196276D01*
X217494Y196451D01*
X217187Y196932D01*
X217012Y197020D01*
X216750Y197107D01*
X215699Y197020D01*
X215437Y196932D01*
X214911Y197020D01*
X214780Y197326D01*
X214911Y197545D01*
X215218Y197676D01*
X215130Y197851D01*
X214911Y197895D01*
X214824Y197545D01*
X214736Y197457D01*
X214342Y197676D01*
X214255Y198026D01*
X214342Y198464D01*
X214517Y198901D01*
X214430Y199952D01*
X214036Y200433D01*
X213861Y200608D01*
X213686Y200696D01*
X213467Y201002D01*
X213073Y201483D01*
X212373Y201659D01*
X211935Y201834D01*
X211454Y201965D01*
X210623Y202096D01*
X210360Y202184D01*
X209747Y202096D01*
D02*
G37*
G36*
X218019Y197414D02*
X218062Y197370D01*
X218106Y197501D01*
X218062Y197545D01*
X218019Y197414D01*
D02*
G37*
G36*
X106202Y197282D02*
X106071Y197151D01*
X106115Y196932D01*
X106202D01*
X106552Y197020D01*
X106684Y197238D01*
X106552Y197370D01*
X106202Y197282D01*
D02*
G37*
G36*
X149353Y197807D02*
X149310Y196976D01*
X149441Y196845D01*
X149616Y196932D01*
X149703Y197020D01*
X149747Y197063D01*
X149703Y197895D01*
X149353Y197807D01*
D02*
G37*
G36*
X161170Y196757D02*
X160995Y196669D01*
X160863Y196538D01*
X160776Y196363D01*
X160557Y196144D01*
X159681Y196057D01*
X159288Y195750D01*
X159200Y195575D01*
X159069Y195357D01*
X158500Y195050D01*
X158412Y194875D01*
X158106Y194481D01*
X157931Y194394D01*
X157712Y194175D01*
X157406Y193343D01*
X156924Y192862D01*
X156837Y192512D01*
X156749Y191112D01*
X156793Y191068D01*
X156837Y191024D01*
X156793Y189580D01*
X156881Y189230D01*
X157012Y188923D01*
X157625Y188311D01*
X157712Y187961D01*
X158106Y187479D01*
X158325Y187260D01*
X158587Y186823D01*
X159069Y186516D01*
X159375Y186210D01*
X159463Y186035D01*
X159944Y185904D01*
X160469Y185816D01*
X161082Y185379D01*
X161432Y185291D01*
X162045Y185203D01*
X163708Y185291D01*
X164146Y185379D01*
X164496Y185729D01*
X164933Y185904D01*
X165677Y186035D01*
X165852Y186123D01*
X166115Y186560D01*
X166246Y186691D01*
X166684Y186954D01*
X166903Y187173D01*
X166990Y187435D01*
X167209Y187654D01*
X167515Y187785D01*
X167690Y188223D01*
X167778Y189011D01*
X168172Y189492D01*
X168391Y189974D01*
X168478Y190324D01*
X168391Y191287D01*
X168303Y191549D01*
X168216Y192424D01*
X168084Y192556D01*
X167953Y192599D01*
X167865Y192950D01*
X167778Y193562D01*
X167603Y194000D01*
X167384Y194219D01*
X167209Y194306D01*
X166990Y194525D01*
X166771Y195007D01*
X166596Y195094D01*
X166027Y195488D01*
X165765Y195925D01*
X164977Y196013D01*
X164671Y196144D01*
X164452Y196363D01*
X164233Y196757D01*
X163883Y196845D01*
X162832Y196669D01*
X161826Y196801D01*
X161432Y196845D01*
X161170Y196757D01*
D02*
G37*
G36*
X129441Y197238D02*
X129353Y196976D01*
X129572Y196669D01*
X130185Y196582D01*
X130710Y196669D01*
X130754Y197063D01*
X130360Y197545D01*
X129835D01*
X129441Y197238D01*
D02*
G37*
G36*
X147428Y197370D02*
X147209Y197151D01*
X147296Y196626D01*
X147515Y196582D01*
X147909Y196888D01*
Y197238D01*
Y197326D01*
X147778Y197457D01*
X147428Y197370D01*
D02*
G37*
G36*
X180513Y197895D02*
X180294Y197414D01*
X180382Y196713D01*
X180513Y196582D01*
X180863Y196494D01*
X181170Y196801D01*
X181257Y197326D01*
X181170Y197589D01*
X181082Y197764D01*
X180907Y197939D01*
X180863Y197982D01*
X180513Y197895D01*
D02*
G37*
G36*
X197362Y197589D02*
X197231Y197107D01*
X197143Y196757D01*
X197100Y196626D01*
X197231Y196494D01*
X197625Y196713D01*
X197712Y197326D01*
Y197414D01*
X197581Y197632D01*
X197362Y197589D01*
D02*
G37*
G36*
X150097Y198464D02*
X150010Y198201D01*
X150141Y198070D01*
X150666Y197982D01*
X151060Y197676D01*
X151148Y197063D01*
X151060Y196801D01*
X151148Y196363D01*
X151366Y196319D01*
X151673Y196626D01*
X151760Y197501D01*
X151673Y197764D01*
X151279Y198420D01*
X151104Y198508D01*
X150666Y198683D01*
X150404D01*
X150097Y198464D01*
D02*
G37*
G36*
X173730Y196801D02*
X173642Y196451D01*
X173861Y196144D01*
X174080Y196101D01*
X174255Y196188D01*
X174342Y196538D01*
X174124Y196845D01*
X174036D01*
X173992Y196888D01*
X173949Y196932D01*
X173730Y196801D01*
D02*
G37*
G36*
X175743Y197063D02*
X175830Y196188D01*
X175962Y196057D01*
X176181Y196101D01*
Y196276D01*
Y196363D01*
X176093Y196713D01*
X175874Y197107D01*
X175743Y197063D01*
D02*
G37*
G36*
X200032Y196669D02*
X199900Y196276D01*
X199988Y195750D01*
X200207Y195532D01*
X200557Y195444D01*
X201432Y195532D01*
X201520Y195619D01*
X201564Y195663D01*
X201739Y195838D01*
X201695Y196232D01*
X201126Y196101D01*
X201082Y196057D01*
X200601Y196451D01*
X200382Y196757D01*
X200032Y196669D01*
D02*
G37*
G36*
X122745Y197282D02*
X122614Y197151D01*
X122701Y196626D01*
X123314Y196013D01*
Y195925D01*
X123358Y195882D01*
X123489Y195750D01*
X123576Y195575D01*
X123795Y195357D01*
X124583Y195444D01*
X125021Y195882D01*
X125196Y195969D01*
X125415Y196188D01*
X125371Y196494D01*
X125021Y196407D01*
X124802Y196101D01*
X124671Y195969D01*
X124058Y196057D01*
X123489Y196451D01*
X123314Y196888D01*
X123095Y197370D01*
X122745Y197282D01*
D02*
G37*
G36*
X209266Y196976D02*
X208828Y196801D01*
X208741Y196451D01*
X208828Y196188D01*
X208960Y196057D01*
X209660Y195882D01*
X209835Y195969D01*
X209966Y196101D01*
X209879Y196801D01*
X209747Y196932D01*
X209397Y197020D01*
X209310D01*
X209266Y196976D01*
D02*
G37*
G36*
X104977Y196232D02*
X104714Y195969D01*
X104539Y195882D01*
X104408Y195750D01*
X104452Y195619D01*
X104671Y195575D01*
X105808Y195750D01*
X105677Y196057D01*
X105633Y196101D01*
X105414Y196319D01*
X104977Y196232D01*
D02*
G37*
G36*
X146903Y196057D02*
X146859Y195575D01*
X146903Y195532D01*
X146990D01*
X147078Y195444D01*
X147384Y195663D01*
X147471Y196013D01*
X147340Y196319D01*
X146903Y196057D01*
D02*
G37*
G36*
X127690Y196451D02*
X128040Y196101D01*
X128084Y196057D01*
X128697Y195619D01*
X129134Y195444D01*
X129922Y195357D01*
X130316Y195663D01*
X130272Y195969D01*
X129922Y196057D01*
X129397Y196144D01*
X128434Y196669D01*
X127953Y197063D01*
X127734Y197107D01*
X127690Y196451D01*
D02*
G37*
G36*
X148609Y196013D02*
X148697Y195400D01*
X148741Y195357D01*
X148828D01*
X148959Y195400D01*
X149047Y195750D01*
X148959Y196101D01*
X148741Y196144D01*
X148609Y196013D01*
D02*
G37*
G36*
X220207Y195838D02*
X220294Y195663D01*
X220513Y195444D01*
X220688D01*
X220776Y195357D01*
X221213Y195619D01*
X221257Y195663D01*
X221038Y195882D01*
X220207Y195838D01*
D02*
G37*
G36*
X177537Y197282D02*
X177318Y197063D01*
X177581Y196626D01*
X177756Y196363D01*
Y196276D01*
X177712Y195882D01*
X177800Y195532D01*
X178062Y195269D01*
X178412Y195357D01*
X178456Y196101D01*
X178281Y196538D01*
X178194Y197238D01*
X178062Y197370D01*
X177537Y197282D01*
D02*
G37*
G36*
X194780Y197370D02*
X193992Y196757D01*
X193949Y196363D01*
X194080Y196144D01*
X194518Y195882D01*
X194736Y195663D01*
X194824Y195488D01*
X195043Y195269D01*
X195655Y195357D01*
X196093Y195532D01*
X196443Y195619D01*
X196662Y195750D01*
X196837Y196188D01*
X196706Y196319D01*
X196093Y196669D01*
X196049Y196713D01*
X195655Y197195D01*
X195218Y197457D01*
X194780Y197370D01*
D02*
G37*
G36*
X106071Y193650D02*
X106027Y193606D01*
X105721Y193300D01*
X105765Y193168D01*
X106290Y193256D01*
X106421Y193387D01*
X106377Y193694D01*
X106071Y193650D01*
D02*
G37*
G36*
X218631Y193475D02*
Y193387D01*
X218675Y193256D01*
X219025Y193168D01*
X219200Y193256D01*
X219244Y193300D01*
X219113Y193431D01*
X218763Y193518D01*
X218631Y193475D01*
D02*
G37*
G36*
X139244Y196626D02*
X139200Y196407D01*
X139419Y196101D01*
X139638Y195882D01*
X139813Y195794D01*
X140119Y195488D01*
X140207Y195138D01*
X140382Y194087D01*
X139988Y194044D01*
X139813Y194131D01*
X139419Y193825D01*
X139200Y193431D01*
X138631Y193212D01*
X138719Y192950D01*
X138850Y192818D01*
X139681Y192862D01*
X140163Y192731D01*
X140513Y192818D01*
X140732Y193037D01*
X140907Y193475D01*
X141432Y194000D01*
X141520Y194350D01*
Y194438D01*
X141563Y194481D01*
X141607Y194963D01*
X141257Y195575D01*
X141126Y195707D01*
X140951Y195794D01*
X140469Y196276D01*
X140382Y196451D01*
X139988Y196669D01*
X139244Y196626D01*
D02*
G37*
G36*
X185152Y196582D02*
X184671Y196188D01*
X184058Y195838D01*
X183970Y195663D01*
X183620Y195050D01*
X183445Y194875D01*
X183402Y194656D01*
X183620Y194350D01*
X183795Y194175D01*
X183927Y193606D01*
X184233Y193125D01*
X184714Y192906D01*
X185064Y192818D01*
X185327Y192906D01*
X185677Y193256D01*
X186027Y192993D01*
X186071Y192950D01*
X186553Y192906D01*
X186771Y193125D01*
X186684Y193300D01*
X186290Y193431D01*
X185677Y193518D01*
X185502Y193694D01*
X185108Y193912D01*
X185021Y194263D01*
X185108Y194788D01*
X185021Y195050D01*
X185108Y195663D01*
X185240Y195882D01*
X185415Y195969D01*
X185896Y196363D01*
X185852Y196669D01*
X185152Y196582D01*
D02*
G37*
G36*
X170316Y193125D02*
X170404Y192862D01*
X170623Y192731D01*
X170841Y192862D01*
X170929Y193125D01*
X170885Y193168D01*
X170841Y193212D01*
X170710Y193343D01*
X170316Y193125D01*
D02*
G37*
G36*
X107515Y192206D02*
X107296Y191987D01*
X107121Y191549D01*
X106859Y191287D01*
X106903Y190893D01*
X107078Y190805D01*
X107253Y190630D01*
X107690Y190718D01*
X107734Y190937D01*
X107471Y191199D01*
X107515Y191505D01*
X107690D01*
X108697Y191462D01*
X109441Y191593D01*
X109835Y191987D01*
X109922Y192249D01*
X108828Y192293D01*
X108565Y192206D01*
X108215Y192293D01*
X107515Y192206D01*
D02*
G37*
G36*
X215524D02*
X215480Y191987D01*
X215655Y191812D01*
X215699Y191680D01*
X215874Y191593D01*
X216137Y191505D01*
X216487Y191418D01*
X216925D01*
X216968Y191462D01*
X217318Y191549D01*
X217756Y191724D01*
X217669Y192162D01*
X217275Y192293D01*
X216662Y192206D01*
X216399Y192293D01*
X215524Y192206D01*
D02*
G37*
G36*
X182920Y192074D02*
X182745Y191724D01*
Y191637D01*
X182833Y191374D01*
X183139Y191243D01*
X183445Y191462D01*
X183533Y191724D01*
X183270Y192162D01*
X183139Y192206D01*
X182920Y192074D01*
D02*
G37*
G36*
X142745Y194000D02*
X142701Y193606D01*
X142789Y193256D01*
X143139Y193081D01*
X143183Y193037D01*
X143445Y192774D01*
X143533Y192424D01*
X143270Y191987D01*
X143051Y191768D01*
X142701Y191680D01*
X142088Y191593D01*
X142045Y191549D01*
X142264Y191330D01*
X142614Y191243D01*
X143445Y191199D01*
X143795Y191287D01*
X143970Y191462D01*
X144277Y192293D01*
X144714Y192731D01*
X145064Y192818D01*
X145239Y192906D01*
X145283Y192950D01*
X144408Y193037D01*
X143970Y193300D01*
X143620Y193912D01*
X143401Y194131D01*
X143008Y194175D01*
X142745Y194000D01*
D02*
G37*
G36*
X155043Y191593D02*
X154999Y191549D01*
Y191462D01*
X155086Y191287D01*
X155218Y191155D01*
X155699Y191199D01*
X155612Y191549D01*
X155480Y191680D01*
X155043Y191593D01*
D02*
G37*
G36*
X181345Y193912D02*
X181126Y193431D01*
X180951Y193343D01*
X180513Y193081D01*
X180382Y192950D01*
X180469Y192337D01*
X180863Y191856D01*
X181082Y191637D01*
X181170Y191462D01*
X181476Y191155D01*
X182089Y191243D01*
X182132Y191287D01*
X182176Y191330D01*
X182220Y191637D01*
X181695Y192162D01*
X181607Y192512D01*
X181695Y192950D01*
X182089Y193081D01*
X182264Y193168D01*
X182395Y193300D01*
X182483Y193650D01*
X182220Y194087D01*
X181651Y194131D01*
X181345Y193912D01*
D02*
G37*
G36*
X169660Y191593D02*
X169528Y191462D01*
X169616Y191199D01*
X169747Y191068D01*
X170185Y191155D01*
X170272D01*
X170404Y191374D01*
X170272Y191593D01*
X169922Y191680D01*
X169660Y191593D01*
D02*
G37*
G36*
X189485Y191374D02*
X189572Y191024D01*
X189704Y190893D01*
X189966Y190980D01*
X190010Y191112D01*
Y191199D01*
X189791Y191418D01*
X189485Y191374D01*
D02*
G37*
G36*
X217887Y191505D02*
X217844Y191462D01*
Y191374D01*
X217669Y190761D01*
X217756Y190586D01*
X217887Y190455D01*
X218412Y190543D01*
X218631Y190761D01*
X218719Y191112D01*
X218631Y191374D01*
X218500Y191505D01*
X218150Y191593D01*
X217887Y191505D01*
D02*
G37*
G36*
X134605Y190411D02*
X134649Y190192D01*
X134692Y190236D01*
X134780Y190499D01*
X134736Y190543D01*
X134605Y190411D01*
D02*
G37*
G36*
X135874Y191680D02*
X135393Y191287D01*
X135480Y190937D01*
X136049Y190192D01*
X136268Y190236D01*
X136355Y190586D01*
X136268Y190937D01*
X136224Y190980D01*
X136137Y191418D01*
X136049Y191768D01*
X135874Y191680D01*
D02*
G37*
G36*
X146859Y191637D02*
X146684Y191024D01*
X146377Y190192D01*
X146334Y189974D01*
X146552Y189930D01*
X147165Y190280D01*
X147471Y190586D01*
X147646Y190937D01*
Y191024D01*
X147734Y191287D01*
X147646Y191462D01*
X147515Y191593D01*
X147165Y191680D01*
X146859Y191637D01*
D02*
G37*
G36*
X178325Y192206D02*
X177931Y191899D01*
X177843Y191724D01*
X177493Y191374D01*
X177450Y191243D01*
X177406Y191199D01*
X177581Y190761D01*
X178500Y189842D01*
X178938Y189930D01*
X178981Y190411D01*
X178631Y190937D01*
X178544Y191549D01*
X178719Y192162D01*
X178675Y192293D01*
X178325Y192206D01*
D02*
G37*
G36*
X102832Y189711D02*
X102876Y189580D01*
X103226Y189667D01*
X103270Y189711D01*
X103051Y189755D01*
X102964D01*
X102832Y189711D01*
D02*
G37*
G36*
X106115Y190543D02*
X105983Y190411D01*
X105852Y189930D01*
X106115Y189667D01*
X106377D01*
X106421Y189624D01*
X106465Y189580D01*
X106859Y189799D01*
X106771Y190411D01*
X106552Y190630D01*
X106115Y190543D01*
D02*
G37*
G36*
X113380Y189755D02*
X113336Y189536D01*
X113730Y189492D01*
X113773Y189536D01*
Y189624D01*
X113555Y189842D01*
X113380Y189755D01*
D02*
G37*
G36*
X201038Y189624D02*
X201082Y189492D01*
X201126Y189624D01*
X201082Y189667D01*
X201038Y189624D01*
D02*
G37*
G36*
X218281Y190236D02*
X218369Y189799D01*
X218412Y189755D01*
X218456Y189711D01*
X218588Y189580D01*
X218938Y189492D01*
X219332Y189711D01*
X219244Y190061D01*
X218763Y190280D01*
X218456Y190324D01*
X218281Y190236D01*
D02*
G37*
G36*
X211148Y189580D02*
X211016Y189448D01*
X211060Y189317D01*
X211323Y189405D01*
X211367Y189448D01*
X211542Y189536D01*
X211498Y189667D01*
X211148Y189580D01*
D02*
G37*
G36*
X188215Y189755D02*
X188084Y189624D01*
X188172Y189273D01*
X188566Y189230D01*
X188784Y189448D01*
Y189624D01*
X188741Y189667D01*
X188653Y189842D01*
X188215Y189755D01*
D02*
G37*
G36*
X183183Y189273D02*
X183270Y189098D01*
X183314Y189055D01*
X183402Y189142D01*
X183489D01*
X183883Y189186D01*
X183795Y189361D01*
X183402Y189405D01*
X183183Y189273D01*
D02*
G37*
G36*
X210666Y189011D02*
Y188836D01*
Y188748D01*
X210710Y188617D01*
X210841Y188661D01*
X210929Y189011D01*
X210885Y189142D01*
X210666Y189011D01*
D02*
G37*
G36*
X114386Y188661D02*
X114430Y188354D01*
X114605Y188442D01*
X114649Y188486D01*
X114605Y188705D01*
X114386Y188661D01*
D02*
G37*
G36*
X122745Y189492D02*
X122701Y189098D01*
X123095Y188617D01*
X123314Y188398D01*
X123401Y188223D01*
X123576Y188048D01*
X123620Y187917D01*
X124058Y187742D01*
X124408Y187654D01*
X125633Y187742D01*
X126115Y188136D01*
X126202Y188486D01*
X125983Y188529D01*
X125546Y188354D01*
X125196Y188267D01*
X124320Y188354D01*
X123489Y188923D01*
X123314Y189098D01*
X123226Y189273D01*
X123051Y189536D01*
X123008Y189580D01*
X122745Y189492D01*
D02*
G37*
G36*
X143358Y189011D02*
X143445Y188573D01*
X143577Y188442D01*
X143664D01*
X143708Y188398D01*
X144277Y188179D01*
X144802Y188092D01*
X145590Y187654D01*
X145721Y187523D01*
X145808Y187348D01*
X146027Y187129D01*
X146815Y187216D01*
X147253Y187392D01*
X147428Y187479D01*
X147559Y187873D01*
X147471Y188398D01*
X147253Y188442D01*
X146815Y188267D01*
X146465Y188179D01*
X145852Y188267D01*
X145633Y188486D01*
X145546Y188661D01*
X145415Y188792D01*
X144977Y188967D01*
X144102Y189055D01*
X143358Y189011D01*
D02*
G37*
G36*
X173861Y190718D02*
X173555Y190411D01*
X173642Y189448D01*
X173730Y189186D01*
X173861Y188529D01*
X174080Y188223D01*
X174299Y188004D01*
X175086Y187917D01*
X175393Y187610D01*
X175655Y187173D01*
X175874Y186954D01*
X176049Y186866D01*
X176443Y186035D01*
X176793Y185685D01*
X176881Y185510D01*
X177187Y185203D01*
X177668Y185247D01*
X177581Y185685D01*
X177143Y186123D01*
X177056Y186473D01*
X176968Y186910D01*
X177406Y187085D01*
X177450Y187129D01*
X177800Y187216D01*
X178237Y187392D01*
X179419Y186823D01*
X179682Y186123D01*
X179988Y185816D01*
X180163Y185729D01*
X180688Y185379D01*
X180994Y185422D01*
X180907Y185597D01*
X180776Y185729D01*
X180601Y185816D01*
X180469Y186210D01*
X180382Y186560D01*
X180338Y186954D01*
X179725Y187041D01*
X179594Y187173D01*
X179550Y187917D01*
X179638Y188092D01*
X180776Y188179D01*
X180951Y188354D01*
X181126Y188442D01*
X181345Y188661D01*
X181257Y188836D01*
X181126Y188967D01*
X179725Y188880D01*
X179594Y188748D01*
X179507Y188398D01*
X179463Y188179D01*
X179113Y188092D01*
X178281Y188223D01*
X177931Y188311D01*
X177493Y188486D01*
X177100Y188880D01*
X176662Y189055D01*
X176312Y189142D01*
X175874Y189317D01*
X175743Y189448D01*
X175918Y190149D01*
X175830Y190674D01*
X175699Y190805D01*
X173861Y190718D01*
D02*
G37*
G36*
X133949Y188529D02*
X133905Y188486D01*
Y188398D01*
X133949Y188092D01*
X134299Y188004D01*
X134649Y188092D01*
X134692Y188311D01*
X134561Y188442D01*
X134124Y188617D01*
X133949Y188529D01*
D02*
G37*
G36*
X190272Y188311D02*
X190360Y188048D01*
X190491Y187917D01*
X190754D01*
X190929Y188004D01*
X191060Y188136D01*
X190973Y188486D01*
X190579Y188617D01*
X190272Y188311D01*
D02*
G37*
G36*
X127559Y188179D02*
X127253Y187961D01*
X127165Y187698D01*
X127296Y187567D01*
X128259Y187654D01*
X128391Y187785D01*
Y187873D01*
Y187961D01*
X128303Y188136D01*
X127909Y188267D01*
X127559Y188179D01*
D02*
G37*
G36*
X200907Y188354D02*
X200294Y188267D01*
X199813Y188398D01*
X199331Y188617D01*
X199113Y188573D01*
X199025Y188223D01*
X199113Y187610D01*
X199769Y187567D01*
X200032Y187654D01*
X200426Y187698D01*
X200469Y187742D01*
X201126Y187873D01*
X201564Y188048D01*
X201739Y188223D01*
X201826Y188573D01*
X201739Y188748D01*
X201520Y188792D01*
X200907Y188354D01*
D02*
G37*
G36*
X140557Y187873D02*
X140513Y187829D01*
X140119Y187523D01*
X140163Y187304D01*
X141038Y187392D01*
X141257Y187610D01*
X141038Y187917D01*
X140557Y187873D01*
D02*
G37*
G36*
X187253Y187392D02*
X187209Y187348D01*
X187296Y187260D01*
X187340Y187216D01*
X187647Y187348D01*
X187603Y187479D01*
X187253Y187392D01*
D02*
G37*
G36*
X211192Y188048D02*
X211279Y187523D01*
X211454Y187348D01*
X211498Y187216D01*
X211760Y187304D01*
X212242Y187698D01*
X212417Y187873D01*
X212329Y188048D01*
X211673Y188092D01*
X211585D01*
X211192Y188048D01*
D02*
G37*
G36*
X137231Y187610D02*
X137187Y187567D01*
X137056Y187435D01*
X137143Y187260D01*
X137275Y187129D01*
X137887Y187216D01*
X137931Y187435D01*
X137712Y187654D01*
X137231Y187610D01*
D02*
G37*
G36*
X142789Y187829D02*
X142657Y187698D01*
X142570Y187085D01*
X143139Y187041D01*
X143401Y187129D01*
X144364Y187041D01*
X144758Y186735D01*
X144671Y186210D01*
X144233Y185772D01*
X144145Y185422D01*
X144364Y185203D01*
X144802Y185291D01*
X144933Y185422D01*
X145283Y186035D01*
X145546Y186298D01*
X145590Y186691D01*
X145415Y186866D01*
X144977Y187129D01*
X144846Y187260D01*
X144758Y187435D01*
X144539Y187654D01*
X143970Y187785D01*
X143489Y187917D01*
X143226D01*
X142789Y187829D01*
D02*
G37*
G36*
X180863D02*
X180557Y187523D01*
X180469Y187085D01*
X181388Y187041D01*
X181651Y187129D01*
X181738D01*
X181782Y187173D01*
X182045Y187348D01*
X181957Y187698D01*
X181826Y187829D01*
X181213Y187917D01*
X180863Y187829D01*
D02*
G37*
G36*
X184539Y187917D02*
X184408Y187785D01*
X184496Y187435D01*
X184627Y187216D01*
X185064Y187041D01*
X185240Y187129D01*
X185283Y187348D01*
X185021Y187785D01*
X184802Y188004D01*
X184714D01*
X184539Y187917D01*
D02*
G37*
G36*
X203139Y187085D02*
X203183Y186954D01*
X203401Y186998D01*
X203358Y187129D01*
X203183D01*
X203139Y187085D01*
D02*
G37*
G36*
X183139Y187654D02*
X183008Y187523D01*
X182920Y187348D01*
X182833Y187085D01*
Y186998D01*
X182920Y186560D01*
X183139Y186516D01*
X183270Y186648D01*
X183445Y187085D01*
X183533Y187523D01*
X183402Y187742D01*
X183139Y187654D01*
D02*
G37*
G36*
X112898Y187961D02*
X113117Y187742D01*
X113292Y187654D01*
X113598Y187435D01*
X113686Y187173D01*
Y187085D01*
X113642Y186604D01*
X113730Y186429D01*
X113861Y186473D01*
X113948Y186823D01*
X113861Y187085D01*
X113773Y187785D01*
X113292Y188004D01*
X112898Y187961D01*
D02*
G37*
G36*
X135743Y186473D02*
X136049Y186429D01*
X136093Y186560D01*
X136049Y186604D01*
X135786Y186691D01*
X135743Y186473D01*
D02*
G37*
G36*
X142132Y186910D02*
X141957Y186735D01*
X142045Y186298D01*
X142176Y186254D01*
X142395Y186473D01*
X142482Y186910D01*
X142176Y186954D01*
X142132Y186910D01*
D02*
G37*
G36*
X189178Y186954D02*
X189091D01*
X188872Y186823D01*
X188784Y186560D01*
X188916Y186341D01*
X189266Y186254D01*
X189791Y186341D01*
X189922Y186473D01*
X189835Y186910D01*
X189704Y187041D01*
X189178Y186954D01*
D02*
G37*
G36*
X211104Y186648D02*
X211192Y186298D01*
X211673Y186254D01*
X211717Y186385D01*
Y186473D01*
X211629Y186910D01*
X211498Y187041D01*
X211104Y186648D01*
D02*
G37*
G36*
X115174Y190149D02*
X115261Y189273D01*
X115655Y189142D01*
X116093Y188967D01*
X116224Y188573D01*
X116312Y187523D01*
X116399Y187348D01*
X116137Y186735D01*
X116224Y186210D01*
X116618Y186079D01*
X117056Y186166D01*
X117143Y186254D01*
X117187Y186298D01*
X117318Y186779D01*
X117231Y187216D01*
X117099Y187610D01*
X117143Y188442D01*
X117056Y188880D01*
X116837Y189186D01*
X116531Y189405D01*
X116312Y189711D01*
X116005Y190017D01*
X115393Y190192D01*
X115174Y190149D01*
D02*
G37*
G36*
X197056Y188179D02*
X196793Y187917D01*
X196662Y187873D01*
X196574Y187523D01*
X196662Y187173D01*
X196574Y186823D01*
Y186735D01*
X196662Y186210D01*
X197056Y186079D01*
X197493Y186166D01*
X197625Y186298D01*
X197537Y186648D01*
X197406Y186779D01*
X197231Y186866D01*
X197100Y187173D01*
X197318Y187479D01*
X197800Y187698D01*
X197887Y187961D01*
X197756Y188179D01*
X197406Y188267D01*
X197056Y188179D01*
D02*
G37*
G36*
X208785Y189930D02*
X208566Y189711D01*
X208434Y189230D01*
X208259Y188792D01*
X208128Y188661D01*
X208040Y188486D01*
X207865Y188311D01*
X207690Y187873D01*
X207603Y187260D01*
X207690Y186560D01*
X207997Y186254D01*
X208347Y186166D01*
X208609Y186079D01*
X209091Y185947D01*
X209178Y186210D01*
X209091Y186560D01*
X209047Y186779D01*
X208609Y186866D01*
X208391Y187085D01*
X208478Y187610D01*
X208828Y188136D01*
X209047Y188705D01*
X209528Y189186D01*
X209572Y189492D01*
X209528Y189536D01*
X209441Y189799D01*
X209310Y189930D01*
X208960Y190017D01*
X208785Y189930D01*
D02*
G37*
G36*
X129003Y186210D02*
X129047Y185991D01*
X129397Y185904D01*
X129572Y185991D01*
X129616Y186035D01*
X129528Y186210D01*
X129222Y186341D01*
X129003Y186210D01*
D02*
G37*
G36*
X138762Y186691D02*
X138631Y186298D01*
X138587Y185904D01*
X138675D01*
X138719Y185947D01*
X139025Y186079D01*
X139244Y186298D01*
X139331Y186648D01*
X139288Y186779D01*
X138762Y186691D01*
D02*
G37*
G36*
X185677Y186604D02*
X185633Y186560D01*
X185852Y186166D01*
X186027Y186079D01*
X186465Y185904D01*
X186553D01*
X186596Y186298D01*
X186377Y186691D01*
X185984Y186735D01*
X185677Y186604D01*
D02*
G37*
G36*
X195086Y186035D02*
X195218Y185904D01*
X195393D01*
X195524Y186035D01*
X195437Y186298D01*
X195130Y186341D01*
X195086Y186035D01*
D02*
G37*
G36*
X121607Y187041D02*
X121563Y186998D01*
X121476Y186823D01*
X121344Y186691D01*
X121169Y186604D01*
X121038Y186210D01*
X121126Y185860D01*
X121257Y185729D01*
X121607Y185641D01*
X121651Y185772D01*
X121476Y186210D01*
X121563Y186648D01*
X121913Y186998D01*
X121870Y187129D01*
X121607Y187041D01*
D02*
G37*
G36*
X138281Y185685D02*
X138237Y185641D01*
X138194Y185597D01*
X138237Y185554D01*
X138369Y185685D01*
X138325Y185729D01*
X138281Y185685D01*
D02*
G37*
G36*
X112679Y185641D02*
X112592D01*
X112548Y185422D01*
X112942Y185291D01*
X113248Y185335D01*
X113336Y185597D01*
X113204Y185729D01*
X112679Y185641D01*
D02*
G37*
G36*
X149528Y190718D02*
X149310Y190499D01*
X149353Y189405D01*
X149135Y189098D01*
X148434Y188923D01*
X147997Y188661D01*
X148084Y188398D01*
X148390Y188179D01*
X148434Y187785D01*
X148303Y187654D01*
X148128Y187567D01*
X147909Y187348D01*
X147953Y186341D01*
X147559Y185685D01*
X147646Y185247D01*
X147953Y185203D01*
X148259Y185422D01*
X148347Y185597D01*
X148784Y186210D01*
X148959Y186385D01*
X149135Y186823D01*
X149353Y187392D01*
X149528Y187654D01*
X149879Y187742D01*
X150666Y187829D01*
X150973Y188136D01*
X151148Y188573D01*
X151498Y189361D01*
X151673Y189974D01*
X151716Y190367D01*
X151629Y190718D01*
X151454Y190805D01*
X151366D01*
X149528Y190718D01*
D02*
G37*
G36*
X202526Y185860D02*
X202439Y185510D01*
X202526Y185335D01*
X202658Y185203D01*
X203183Y185291D01*
X203226Y185335D01*
X203401Y185510D01*
X203314Y185685D01*
X203095Y185904D01*
X202745Y185991D01*
X202526Y185860D01*
D02*
G37*
G36*
X210054Y184547D02*
X210185Y184328D01*
X210535Y184241D01*
X210579Y184722D01*
X210491Y184810D01*
Y184897D01*
X210404Y185072D01*
X210097Y185379D01*
X210054Y184547D01*
D02*
G37*
G36*
X199857Y185729D02*
X199813Y185335D01*
X199988Y185160D01*
X200076Y184985D01*
X200251Y184810D01*
X200601Y184197D01*
X200951Y184109D01*
X201345Y184066D01*
X201564Y184284D01*
X201476Y184985D01*
X201257Y185203D01*
X200644Y185554D01*
X200557Y185641D01*
X200513Y185685D01*
X200119Y185816D01*
X199857Y185729D01*
D02*
G37*
G36*
X118500Y184372D02*
Y184284D01*
X118587Y184109D01*
X118719Y183978D01*
X118938Y184022D01*
X118850Y184547D01*
X118719Y184591D01*
X118500Y184372D01*
D02*
G37*
G36*
X193817Y184941D02*
X193555Y184766D01*
X193511Y184722D01*
X193423Y184459D01*
X194036Y183672D01*
X194255Y183453D01*
X194693Y183278D01*
X195130Y183015D01*
X195305Y182840D01*
X195655Y182753D01*
X196093Y182665D01*
X196399Y182009D01*
X196793Y181877D01*
X196968Y181965D01*
X197100Y182096D01*
X197275Y182796D01*
X198237Y183059D01*
X198631Y183453D01*
X199419Y183365D01*
X199813Y183147D01*
X199725Y182796D01*
X199244Y182578D01*
X199069Y182490D01*
X198938Y182359D01*
X199025Y182096D01*
X199156Y181965D01*
X199507Y181877D01*
X199857Y181965D01*
X200163Y182271D01*
X200251Y182446D01*
X200426Y182621D01*
X200513Y182972D01*
X200251Y183234D01*
X200163Y183584D01*
X200032Y183803D01*
X199682Y183890D01*
X198719Y183803D01*
X198456Y183715D01*
X198019Y183803D01*
X197581Y183978D01*
X196706Y184066D01*
X196443Y183978D01*
X195218Y184066D01*
X194736Y184459D01*
X194342Y185028D01*
X193817Y184941D01*
D02*
G37*
G36*
X205152Y184459D02*
X205240Y184022D01*
X205371Y183890D01*
X205502Y184022D01*
X205415Y184459D01*
X205371Y184503D01*
X205283Y184591D01*
X205152Y184459D01*
D02*
G37*
G36*
X211367Y184634D02*
X211279Y184459D01*
X211060Y184241D01*
X210973D01*
X210841Y184109D01*
X210973Y183890D01*
X211323Y183803D01*
X211935Y183890D01*
X212067Y184197D01*
X211979Y184459D01*
X211892Y184810D01*
X211585Y184853D01*
X211367Y184634D01*
D02*
G37*
G36*
X115086Y185860D02*
X114955Y185291D01*
X114780Y184853D01*
X114605Y184503D01*
X114080Y184591D01*
X113817Y184678D01*
X113511Y184547D01*
X113423Y184372D01*
X113336Y184284D01*
X113292Y184241D01*
X113248Y183934D01*
X113380Y183803D01*
X113730Y183715D01*
X114167Y183890D01*
X114386Y184022D01*
X114474Y184197D01*
X114517Y184241D01*
X114605Y184153D01*
X114999Y184284D01*
X115086Y184634D01*
X115524Y185422D01*
X115699Y185860D01*
X115611Y186035D01*
X115305Y186079D01*
X115086Y185860D01*
D02*
G37*
G36*
X124233Y185379D02*
X123795Y185116D01*
X123708Y184766D01*
X123620Y184328D01*
X123401Y184109D01*
X123226Y183672D01*
X123314Y183497D01*
X123445Y183365D01*
X123533D01*
X123751Y183584D01*
X123839Y183847D01*
X123970Y183978D01*
X124320Y184066D01*
X124758Y184241D01*
X124889Y184634D01*
X124977Y185247D01*
X124889Y185422D01*
X124495Y185466D01*
X124233Y185379D01*
D02*
G37*
G36*
X130447Y184941D02*
X130228Y184459D01*
X130141Y184284D01*
X129922Y184066D01*
X129660D01*
X129397Y183978D01*
X128478Y184022D01*
X127778Y183934D01*
X126946Y183890D01*
X126684Y183978D01*
X125633Y183890D01*
X125240Y183672D01*
X125283Y183278D01*
X125633Y183365D01*
X125896Y183453D01*
X126290Y183497D01*
X126596Y183278D01*
X126727Y183147D01*
X126815Y182972D01*
X126946Y182840D01*
X127296Y182753D01*
X127865Y182884D01*
X128434Y183190D01*
X128872Y183103D01*
X129309Y182840D01*
X129616Y182796D01*
X129966Y182884D01*
X130272Y183103D01*
X130447Y183278D01*
X130885Y183453D01*
X131323Y183715D01*
X131542Y183934D01*
X131717Y184372D01*
X131629Y184722D01*
X131060Y184941D01*
X130710Y185028D01*
X130447Y184941D01*
D02*
G37*
G36*
X204977Y183234D02*
X205021Y183103D01*
X205196Y183190D01*
X205240Y183234D01*
X205196Y183278D01*
X205108D01*
X204977Y183234D01*
D02*
G37*
G36*
X119463Y183322D02*
Y182972D01*
X119506Y182928D01*
X119725Y182884D01*
X120032Y183103D01*
X120075Y183147D01*
X119857Y183365D01*
X119463Y183322D01*
D02*
G37*
G36*
X208609Y182928D02*
X208478Y182796D01*
X208522Y182578D01*
X208697D01*
X208741Y182621D01*
X208916Y182796D01*
X208960Y183015D01*
X208609Y182928D01*
D02*
G37*
G36*
X162482Y184153D02*
X161914Y183759D01*
X162001Y183059D01*
X162264Y182621D01*
X162395Y182490D01*
X163008Y182840D01*
X163314Y183147D01*
X163489Y183584D01*
Y183759D01*
Y183847D01*
X163358Y184153D01*
X163008Y184241D01*
X162482Y184153D01*
D02*
G37*
G36*
X115393Y183278D02*
X115349Y182884D01*
Y182796D01*
X115436Y182534D01*
X115568Y182403D01*
X116355Y182490D01*
X116399Y182709D01*
X116005Y183278D01*
X115655Y183365D01*
X115393Y183278D01*
D02*
G37*
G36*
X209397Y183715D02*
X209178Y183497D01*
X209135Y183190D01*
X209178Y183147D01*
X209222Y183103D01*
X209485Y183015D01*
X209616Y182884D01*
X209879Y182446D01*
X210010Y182315D01*
X210185Y182403D01*
X210316Y182796D01*
X210229Y183147D01*
X210054Y183322D01*
X209966Y183497D01*
X209660Y183803D01*
X209397Y183715D01*
D02*
G37*
G36*
X128303Y182359D02*
X128522Y182052D01*
X128872Y182140D01*
X128916Y182184D01*
Y182271D01*
X128828Y182534D01*
X128609Y182578D01*
X128303Y182359D01*
D02*
G37*
G36*
X113686Y182009D02*
X113817Y181965D01*
X113861Y182096D01*
X113817Y182140D01*
X113730D01*
X113686Y182009D01*
D02*
G37*
G36*
X124539Y182796D02*
X124889Y182446D01*
X124933Y182403D01*
X125371Y181965D01*
X125721Y181877D01*
X126071Y181965D01*
X126290Y182184D01*
X126246Y182403D01*
X125808Y182578D01*
X125458Y182665D01*
X125240Y182796D01*
X125152Y182972D01*
X124758Y183015D01*
X124539Y182796D01*
D02*
G37*
G36*
X115042Y181877D02*
X114824Y181658D01*
X114911Y181308D01*
X115042Y181177D01*
X115130D01*
X115568Y181265D01*
X115611Y181658D01*
X115305Y181965D01*
X115042Y181877D01*
D02*
G37*
G36*
X117099Y181658D02*
X117012Y181308D01*
Y181133D01*
Y181046D01*
X116924Y180783D01*
X116837Y180608D01*
X116662Y180433D01*
X116531Y179952D01*
X116662Y179645D01*
X116793Y179514D01*
X117493Y179602D01*
X117712Y179821D01*
X117800Y179996D01*
X118018Y180214D01*
X118412Y179908D01*
X118369Y178901D01*
X118544Y178814D01*
X118894Y179164D01*
X119769Y179514D01*
X120075Y179821D01*
X120163Y179996D01*
X120294Y180127D01*
X120732Y180302D01*
X120951Y180521D01*
X120513Y181308D01*
X120382Y181440D01*
X120032Y181527D01*
X119725Y181308D01*
X119550Y180871D01*
X119463Y180696D01*
X119331Y180564D01*
X118719Y180652D01*
X118237Y181046D01*
X118150Y181221D01*
X117843Y181527D01*
X117406Y181702D01*
X117099Y181658D01*
D02*
G37*
G36*
X207734Y182052D02*
X207340Y181658D01*
X207253Y181483D01*
X206815Y181133D01*
X206903Y180783D01*
X207253Y180696D01*
X207428Y180521D01*
X207296Y180039D01*
X207253Y179733D01*
X207472Y179427D01*
X208434Y179514D01*
X208653Y179645D01*
X208741Y179996D01*
X208522Y180564D01*
X208478Y180783D01*
Y180871D01*
X208215Y181308D01*
X208084Y182140D01*
X207734Y182052D01*
D02*
G37*
G36*
X204889Y181483D02*
X204802Y181308D01*
X204321Y180827D01*
X204146Y180739D01*
X204014Y180433D01*
X204321Y180127D01*
X204802Y179996D01*
X205371Y179427D01*
X205809Y179252D01*
X205940Y179208D01*
X205984Y179164D01*
X206421Y179252D01*
X206553Y179383D01*
X206465Y180258D01*
X206071Y180652D01*
X205896Y180739D01*
X205677Y180958D01*
X205371Y181527D01*
X205108Y181615D01*
X204889Y181483D01*
D02*
G37*
G36*
X202701Y177720D02*
X203008Y177676D01*
X203051Y177720D01*
Y177807D01*
X202833Y177851D01*
X202701Y177720D01*
D02*
G37*
%LPC*%
G36*
X148653Y276145D02*
X148916Y276057D01*
X149047Y275926D01*
X149135Y275138D01*
X149222Y274875D01*
X149266Y274306D01*
X148784Y274438D01*
X148609Y274613D01*
X148522Y275225D01*
X148609Y275576D01*
Y275663D01*
X148653Y276145D01*
D02*
G37*
G36*
X175699Y274482D02*
X175830Y274438D01*
X175918Y274088D01*
X175830Y273387D01*
X175787Y273344D01*
X175699D01*
X175612Y273256D01*
X175568Y274263D01*
X175699Y274482D01*
D02*
G37*
G36*
X132986Y263716D02*
X133073Y263628D01*
X133117Y263584D01*
X132898Y263541D01*
X132767Y263672D01*
X132986Y263716D01*
D02*
G37*
G36*
X127121Y254700D02*
X127209D01*
X127734Y254613D01*
X127953Y254394D01*
X127865Y254044D01*
X127296Y254000D01*
X127034Y254088D01*
X126727Y254219D01*
X126640Y254481D01*
X127121Y254700D01*
D02*
G37*
G36*
X196093Y253825D02*
X196180D01*
X196618Y253737D01*
X196662Y253519D01*
X196531Y253387D01*
X196180Y253300D01*
X195305Y253212D01*
X195086Y253256D01*
X195174Y253519D01*
X195393Y253737D01*
X196093Y253825D01*
D02*
G37*
G36*
X200819Y245335D02*
X201432Y245247D01*
X201564Y245116D01*
X201432Y244985D01*
X200819Y244897D01*
X200163Y244941D01*
X200251Y245116D01*
X200382Y245247D01*
X200557D01*
X200819Y245335D01*
D02*
G37*
G36*
X127909Y225203D02*
X128741Y225160D01*
X128784Y225116D01*
X128828Y224985D01*
X128609Y224766D01*
X128172Y224678D01*
X127909Y224766D01*
X127734Y224853D01*
X127690Y224985D01*
X127909Y225203D01*
D02*
G37*
G36*
X198631Y224416D02*
X198981Y224328D01*
X199200Y224109D01*
X199156Y224066D01*
X199113Y224022D01*
X198981Y223891D01*
X198369Y223978D01*
X198237Y224109D01*
X198281Y224328D01*
X198631Y224416D01*
D02*
G37*
G36*
X162395Y232031D02*
X162526Y231899D01*
X162570Y231505D01*
X162482Y231418D01*
X162089Y231637D01*
Y231899D01*
X162132Y231943D01*
X162395Y232031D01*
D02*
G37*
G36*
X162920Y231330D02*
X163401Y231112D01*
X163489Y230499D01*
X163401Y229974D01*
X163008Y229492D01*
X162832Y229405D01*
X162395Y229230D01*
X162264Y229274D01*
X162220Y229317D01*
X162001Y229536D01*
X161914Y229886D01*
X162001Y230149D01*
X162526Y230674D01*
X162745Y231243D01*
X162920Y231330D01*
D02*
G37*
G36*
X166071Y230192D02*
X166246Y230105D01*
X166377Y229974D01*
X166290Y229449D01*
X165896Y228705D01*
X165371Y228792D01*
X165283D01*
X164977Y229099D01*
X165065Y229536D01*
X165458Y230017D01*
X165721Y230105D01*
X166071Y230192D01*
D02*
G37*
G36*
X158369Y229667D02*
X158631Y229580D01*
X158763Y229449D01*
X158675Y228836D01*
X158456Y228617D01*
X158019Y228705D01*
X157887Y228836D01*
X157800Y229186D01*
X157931Y229492D01*
X157975Y229536D01*
X158369Y229667D01*
D02*
G37*
G36*
X164058Y228880D02*
X164277Y228748D01*
X164452Y228048D01*
Y227961D01*
Y227873D01*
X164364Y227260D01*
X164233Y227129D01*
X163358Y227217D01*
X163139Y227348D01*
X163095Y227654D01*
X163270Y228092D01*
X163708Y228792D01*
X164058Y228880D01*
D02*
G37*
G36*
X168259Y227917D02*
X168653Y227610D01*
X168566Y227085D01*
X168259Y226779D01*
X167778Y226648D01*
X167296Y226604D01*
X167253Y226823D01*
X167734Y227742D01*
X167778Y227785D01*
X168259Y227917D01*
D02*
G37*
G36*
X161345Y227392D02*
X161607Y227304D01*
X161651Y227260D01*
Y227173D01*
X161738Y226910D01*
X161651Y226473D01*
X161432Y226429D01*
X161213Y226648D01*
X161126Y226998D01*
X161345Y227392D01*
D02*
G37*
G36*
X164758Y226691D02*
X164889Y226648D01*
X164977Y226298D01*
X164889Y226122D01*
X164758Y226079D01*
X164627Y226210D01*
Y226473D01*
Y226560D01*
X164758Y226691D01*
D02*
G37*
G36*
X157056Y226954D02*
X157143D01*
X157493Y226867D01*
X157625Y226735D01*
X157537Y225947D01*
X157318Y225729D01*
X156968Y225641D01*
X156618Y225729D01*
X156574Y226385D01*
X156881Y226867D01*
X157056Y226954D01*
D02*
G37*
G36*
X168784Y225554D02*
X169134Y225466D01*
X169353Y225247D01*
Y224985D01*
X169397Y224941D01*
X169441Y224722D01*
X169222Y224328D01*
X168697Y224416D01*
X168566Y224810D01*
X168653Y225422D01*
X168784Y225554D01*
D02*
G37*
G36*
X166684Y226429D02*
X166990Y226385D01*
X167078Y225247D01*
X167253Y225072D01*
X167340Y224810D01*
X166990Y224460D01*
X166903Y224109D01*
X166815Y223847D01*
X166246Y223803D01*
X166115Y223934D01*
X166377Y224372D01*
X166815Y224635D01*
X166727Y224985D01*
X166552Y225072D01*
X166509Y225116D01*
X166159Y225203D01*
X166027Y225335D01*
X165940Y225685D01*
X166027Y226035D01*
X166334Y226341D01*
X166684Y226429D01*
D02*
G37*
G36*
X167121Y223628D02*
X167472Y223540D01*
X167603Y223147D01*
X167472Y222928D01*
X167034Y223015D01*
X166990Y223409D01*
X167034Y223453D01*
X167078Y223497D01*
X167121Y223628D01*
D02*
G37*
G36*
X166071Y223715D02*
X166115Y223059D01*
X166071Y223015D01*
X166027Y222972D01*
X165983Y222840D01*
X165633Y222928D01*
X165502Y223322D01*
X165721Y223628D01*
X166071Y223715D01*
D02*
G37*
G36*
X156180Y223628D02*
X156399Y223497D01*
Y223409D01*
X156574Y222972D01*
X156487Y222359D01*
X156268Y222315D01*
X155962Y222621D01*
X155699Y223234D01*
X155743Y223453D01*
X156180Y223628D01*
D02*
G37*
G36*
X166334Y222665D02*
X166771Y222578D01*
X166815Y222534D01*
X166596Y222228D01*
X166334D01*
X166290Y222271D01*
X166202Y222534D01*
X166334Y222665D01*
D02*
G37*
G36*
X167121Y221177D02*
X167428Y220958D01*
X167472Y220915D01*
X167515Y220346D01*
X167296Y220039D01*
X166990Y219996D01*
X166509Y220302D01*
X166377Y220433D01*
X166334Y220652D01*
X166465Y220958D01*
X167121Y221177D01*
D02*
G37*
G36*
X188303Y208048D02*
X188741Y207961D01*
X188872Y207567D01*
X188784Y207217D01*
X188391Y207085D01*
X188172Y207129D01*
X188128Y207173D01*
X188084Y207742D01*
X188303Y208048D01*
D02*
G37*
G36*
X191367Y201921D02*
X191498Y201790D01*
Y201702D01*
Y201615D01*
X191279Y201571D01*
X191060Y201702D01*
X191148Y201877D01*
X191367Y201921D01*
D02*
G37*
G36*
X136837Y211987D02*
X137100Y211899D01*
X137143Y211768D01*
X136924Y211724D01*
X136837Y211812D01*
X136793Y211856D01*
X136837Y211987D01*
D02*
G37*
G36*
X139900Y204634D02*
X139944Y204503D01*
X139900Y204460D01*
X139857Y204591D01*
X139900Y204634D01*
D02*
G37*
G36*
X134036Y203059D02*
X134124D01*
X134167Y203015D01*
X134124Y202709D01*
X133949Y202796D01*
X133905Y202928D01*
X134036Y203059D01*
D02*
G37*
G36*
X153555Y204810D02*
X153598Y204766D01*
X153555Y204722D01*
X153511Y204766D01*
X153555Y204810D01*
D02*
G37*
G36*
X153642Y204722D02*
X153686Y204678D01*
X153642Y204634D01*
X153598Y204678D01*
X153642Y204722D01*
D02*
G37*
G36*
Y202709D02*
X154080Y202621D01*
X154211Y202490D01*
Y202140D01*
X154167Y202096D01*
X153992Y201834D01*
X153730Y201746D01*
X153598Y202140D01*
X153642Y202709D01*
D02*
G37*
G36*
X170710Y204197D02*
X171235Y204109D01*
X171279Y203890D01*
X171060Y203584D01*
X170710Y203497D01*
X170491Y203715D01*
Y203803D01*
X170579Y204066D01*
X170710Y204197D01*
D02*
G37*
G36*
X112067Y200521D02*
X112417Y200433D01*
X112548Y200302D01*
X112460Y199689D01*
X112154Y199208D01*
X111716Y199295D01*
X111673Y199427D01*
Y199514D01*
X111804Y199996D01*
X111891Y200346D01*
X112067Y200521D01*
D02*
G37*
G36*
X118369Y200696D02*
X118719Y200608D01*
X118894Y199558D01*
X118938Y199164D01*
X118762Y198726D01*
X118675Y197939D01*
X118544Y197807D01*
X118062Y197851D01*
Y197939D01*
X117975Y198114D01*
X118412Y199076D01*
X118325Y200127D01*
X118237Y200389D01*
X118369Y200696D01*
D02*
G37*
G36*
X110841Y198508D02*
X111104Y198420D01*
X111235Y198026D01*
X111016Y197632D01*
X110797Y197676D01*
X110710Y198026D01*
Y198201D01*
X110754Y198245D01*
X110841Y198508D01*
D02*
G37*
G36*
X111716Y196932D02*
X111848Y196801D01*
X111716Y196582D01*
X111629D01*
X111498Y196626D01*
X111585Y196888D01*
X111716Y196932D01*
D02*
G37*
G36*
X113380Y192731D02*
X113773Y192687D01*
X113730Y192468D01*
X113336Y192512D01*
Y192687D01*
X113380Y192731D01*
D02*
G37*
G36*
X185415Y204634D02*
X185852Y204547D01*
X185984Y204416D01*
X186071Y203978D01*
X185940Y203847D01*
X185458Y203890D01*
X185415Y203934D01*
X185283Y204066D01*
X185196Y204416D01*
X185415Y204634D01*
D02*
G37*
G36*
X183402Y202972D02*
X183795Y202928D01*
X183883Y202753D01*
Y202665D01*
X183795Y202490D01*
X183402Y202446D01*
X183270Y202840D01*
X183402Y202972D01*
D02*
G37*
G36*
X186027Y202446D02*
X186159Y202315D01*
X186071Y202140D01*
X185940Y202009D01*
X185852D01*
X185677Y201921D01*
X185371Y202140D01*
X185458Y202403D01*
X186027Y202446D01*
D02*
G37*
G36*
X206859Y200783D02*
X206990Y200652D01*
X207034Y200433D01*
X206903Y200127D01*
X206596Y200083D01*
X206378Y200214D01*
X206465Y200565D01*
X206509Y200608D01*
X206553Y200652D01*
X206859Y200783D01*
D02*
G37*
G36*
X213248Y200171D02*
X213380Y200039D01*
X213423Y199996D01*
X213642Y199777D01*
X213817Y199339D01*
X213730Y198901D01*
X213423Y198858D01*
X213205Y199076D01*
X212986Y199645D01*
X212811Y200083D01*
X212767Y200127D01*
X213248Y200171D01*
D02*
G37*
G36*
X207209Y198595D02*
X207340Y198464D01*
X207428Y198201D01*
Y198114D01*
X207209Y197895D01*
X206903Y197851D01*
X206728Y197939D01*
X206815Y198551D01*
X207209Y198595D01*
D02*
G37*
G36*
X214911Y195969D02*
X215437Y195882D01*
X215568Y195488D01*
X215480Y195313D01*
X215349Y195182D01*
X214911Y195269D01*
X214736Y195444D01*
X214693Y195488D01*
X214780Y195838D01*
X214911Y195969D01*
D02*
G37*
G36*
X213861Y195007D02*
X214080Y194788D01*
X214342Y194350D01*
X214474Y194219D01*
X214649Y194131D01*
X214780Y194000D01*
X214693Y193737D01*
X214561Y193606D01*
X214342Y193562D01*
X214299Y193606D01*
X214211D01*
X213992Y193825D01*
X213905Y194000D01*
X213773Y194131D01*
X213511Y194219D01*
X213380Y194350D01*
X213467Y194788D01*
X213598Y194919D01*
X213861Y195007D01*
D02*
G37*
G36*
X211848Y192818D02*
X211935D01*
X212067Y192687D01*
X212023Y192468D01*
X211673Y192381D01*
X211410Y192468D01*
X211367Y192599D01*
X211498Y192731D01*
X211848Y192818D01*
D02*
G37*
G36*
X161607Y195444D02*
X162526Y195400D01*
X163008Y195444D01*
X163489Y195050D01*
X163883Y194919D01*
X164846Y194831D01*
X165458Y194481D01*
X165502Y194438D01*
X165852Y193912D01*
X165765Y193737D01*
X165108Y193694D01*
X164846Y193781D01*
X163708Y193694D01*
X163576Y193562D01*
X163226Y192950D01*
X163008Y192731D01*
X162439Y192424D01*
X162351Y191812D01*
X162264Y191024D01*
X161826Y190061D01*
X161738Y189886D01*
X161563Y189711D01*
X161520Y189580D01*
X161388Y189536D01*
X161345Y189405D01*
X161170Y189317D01*
X160907Y189055D01*
X160294Y188880D01*
X159681Y188967D01*
X159200Y189361D01*
X158412Y189886D01*
X158325Y190236D01*
X158062Y191112D01*
X157975Y191462D01*
X158106Y191943D01*
X158412Y192337D01*
X158500Y192512D01*
X158763Y193125D01*
X158894Y193694D01*
X159156Y193956D01*
X159594Y194219D01*
X159900Y194700D01*
X160294Y194831D01*
X160819Y194919D01*
X161607Y195444D01*
D02*
G37*
G36*
X165021Y190980D02*
X165065Y190937D01*
X165021Y190893D01*
X164977Y190937D01*
X165021Y190980D01*
D02*
G37*
%LPD*%
G36*
X159419Y192031D02*
X159113Y191724D01*
X159025Y190849D01*
X159113Y190236D01*
X159244Y190017D01*
X159288Y189974D01*
X159419Y189842D01*
X160032Y189755D01*
X160819Y189842D01*
X161038Y190061D01*
X161126Y190236D01*
X161301Y190411D01*
X161388Y190761D01*
X161301Y191724D01*
X160995Y192031D01*
X160119Y192118D01*
X159419Y192031D01*
D02*
G37*
%LPC*%
G36*
X195043Y196845D02*
X195393D01*
X195568Y196757D01*
X195699Y196626D01*
X195612Y196276D01*
X195218Y196144D01*
X194911Y196188D01*
X194824Y196538D01*
X195043Y196845D01*
D02*
G37*
G36*
X176574Y188179D02*
X177012Y188004D01*
X177143Y187785D01*
X177056Y187523D01*
X176968Y187085D01*
X176837Y186954D01*
X176574Y187041D01*
X176399D01*
X176356Y187085D01*
X176093Y187698D01*
X176181Y188048D01*
X176574Y188179D01*
D02*
G37*
%LPD*%
D14*
X116443Y115100D02*
X111112D01*
X116443Y120432D01*
Y121765D01*
X115110Y123097D01*
X112445D01*
X111112Y121765D01*
X119109D02*
X120442Y123097D01*
X123108D01*
X124441Y121765D01*
Y116433D01*
X123108Y115100D01*
X120442D01*
X119109Y116433D01*
Y121765D01*
X132438Y115100D02*
X127106D01*
X132438Y120432D01*
Y121765D01*
X131105Y123097D01*
X128439D01*
X127106Y121765D01*
X140436Y123097D02*
X135104D01*
Y119099D01*
X137770Y120432D01*
X139103D01*
X140436Y119099D01*
Y116433D01*
X139103Y115100D01*
X136437D01*
X135104Y116433D01*
X151099Y123097D02*
Y117766D01*
X153764Y115100D01*
X156430Y117766D01*
Y123097D01*
X159096Y115100D02*
X161762D01*
X160429D01*
Y123097D01*
X159096Y121765D01*
X165761Y115100D02*
Y116433D01*
X167094D01*
Y115100D01*
X165761D01*
X172425Y121765D02*
X173758Y123097D01*
X176424D01*
X177757Y121765D01*
Y116433D01*
X176424Y115100D01*
X173758D01*
X172425Y116433D01*
Y121765D01*
X180423Y115100D02*
X183088D01*
X181755D01*
Y123097D01*
X180423Y121765D01*
X89421Y138497D02*
Y137164D01*
X92087Y134499D01*
X94753Y137164D01*
Y138497D01*
X92087Y134499D02*
Y130500D01*
X97419D02*
Y135832D01*
X100085Y138497D01*
X102750Y135832D01*
Y130500D01*
Y134499D01*
X97419D01*
X105416Y130500D02*
Y138497D01*
X110748Y130500D01*
Y138497D01*
X118745Y137164D02*
X117412Y138497D01*
X114746D01*
X113414Y137164D01*
Y131833D01*
X114746Y130500D01*
X117412D01*
X118745Y131833D01*
Y134499D01*
X116079D01*
X121411Y138497D02*
X126743D01*
X124077D01*
Y130500D01*
X134740Y137164D02*
X133407Y138497D01*
X130741D01*
X129408Y137164D01*
Y135832D01*
X130741Y134499D01*
X133407D01*
X134740Y133166D01*
Y131833D01*
X133407Y130500D01*
X130741D01*
X129408Y131833D01*
X142737Y138497D02*
X137406D01*
Y130500D01*
X142737D01*
X137406Y134499D02*
X140072D01*
X153401Y130500D02*
Y138497D01*
X157399D01*
X158732Y137164D01*
Y134499D01*
X157399Y133166D01*
X153401D01*
X156067D02*
X158732Y130500D01*
X161398Y138497D02*
X164064D01*
X162731D01*
Y130500D01*
X161398D01*
X164064D01*
X168063Y138497D02*
Y133166D01*
X170728Y130500D01*
X173394Y133166D01*
Y138497D01*
X181392D02*
X176060D01*
Y130500D01*
X181392D01*
X176060Y134499D02*
X178726D01*
X184057Y130500D02*
Y138497D01*
X188056D01*
X189389Y137164D01*
Y134499D01*
X188056Y133166D01*
X184057D01*
X186723D02*
X189389Y130500D01*
X200052Y138497D02*
X205384D01*
X202718D01*
Y130500D01*
X212048Y138497D02*
X209383D01*
X208050Y137164D01*
Y131833D01*
X209383Y130500D01*
X212048D01*
X213381Y131833D01*
Y137164D01*
X212048Y138497D01*
X216047D02*
Y137164D01*
X218713Y134499D01*
X221379Y137164D01*
Y138497D01*
X218713Y134499D02*
Y130500D01*
X56134Y159296D02*
Y147300D01*
Y151299D01*
X64132Y159296D01*
X58134Y153298D01*
X64132Y147300D01*
X74129Y159296D02*
X70130D01*
X68130Y157297D01*
Y149299D01*
X70130Y147300D01*
X74129D01*
X76128Y149299D01*
Y157297D01*
X74129Y159296D01*
X80127Y147300D02*
Y159296D01*
X88124Y147300D01*
Y159296D01*
X100120Y157297D02*
X98121Y159296D01*
X94122D01*
X92123Y157297D01*
Y149299D01*
X94122Y147300D01*
X98121D01*
X100120Y149299D01*
Y153298D01*
X96121D01*
X104119Y147300D02*
Y159296D01*
X110117D01*
X112116Y157297D01*
Y153298D01*
X110117Y151299D01*
X104119D01*
X122113Y159296D02*
X118114D01*
X116115Y157297D01*
Y149299D01*
X118114Y147300D01*
X122113D01*
X124112Y149299D01*
Y157297D01*
X122113Y159296D01*
X140107D02*
Y147300D01*
X146105D01*
X148105Y149299D01*
Y151299D01*
X146105Y153298D01*
X140107D01*
X146105D01*
X148105Y155297D01*
Y157297D01*
X146105Y159296D01*
X140107D01*
X152103D02*
Y147300D01*
Y153298D01*
X160101D01*
Y159296D01*
Y147300D01*
X164099Y159296D02*
Y149299D01*
X166099Y147300D01*
X170097D01*
X172097Y149299D01*
Y159296D01*
X188092D02*
Y147300D01*
X196089D01*
X206086Y159296D02*
X202087D01*
X200088Y157297D01*
Y149299D01*
X202087Y147300D01*
X206086D01*
X208085Y149299D01*
Y157297D01*
X206086Y159296D01*
X212084D02*
Y147300D01*
X218082D01*
X220081Y149299D01*
Y151299D01*
X218082Y153298D01*
X212084D01*
X218082D01*
X220081Y155297D01*
Y157297D01*
X218082Y159296D01*
X212084D01*
X232077Y157297D02*
X230078Y159296D01*
X226079D01*
X224080Y157297D01*
Y155297D01*
X226079Y153298D01*
X230078D01*
X232077Y151299D01*
Y149299D01*
X230078Y147300D01*
X226079D01*
X224080Y149299D01*
X236076Y147300D02*
Y155297D01*
X240075Y159296D01*
X244074Y155297D01*
Y147300D01*
Y153298D01*
X236076D01*
X248072Y147300D02*
Y159296D01*
X256070Y147300D01*
Y159296D01*
X268066Y157297D02*
X266066Y159296D01*
X262068D01*
X260068Y157297D01*
Y149299D01*
X262068Y147300D01*
X266066D01*
X268066Y149299D01*
Y153298D01*
X264067D01*
X255742Y50830D02*
Y44166D01*
X257075Y42833D01*
X259741D01*
X261074Y44166D01*
Y50830D01*
X269071Y49497D02*
X267738Y50830D01*
X265072D01*
X263739Y49497D01*
Y48164D01*
X265072Y46832D01*
X267738D01*
X269071Y45499D01*
Y44166D01*
X267738Y42833D01*
X265072D01*
X263739Y44166D01*
X271737Y50830D02*
Y42833D01*
X275735D01*
X277068Y44166D01*
Y45499D01*
X275735Y46832D01*
X271737D01*
X275735D01*
X277068Y48164D01*
Y49497D01*
X275735Y50830D01*
X271737D01*
X279734Y41500D02*
X285066D01*
X293063Y49497D02*
X291730Y50830D01*
X289065D01*
X287732Y49497D01*
Y44166D01*
X289065Y42833D01*
X291730D01*
X293063Y44166D01*
X295729Y50830D02*
Y42833D01*
Y46832D01*
X301061D01*
Y50830D01*
Y42833D01*
X309058Y49497D02*
X307725Y50830D01*
X305059D01*
X303726Y49497D01*
Y44166D01*
X305059Y42833D01*
X307725D01*
X309058Y44166D01*
Y46832D01*
X306392D01*
X23500Y94800D02*
X27499D01*
X53300Y94199D02*
X57299D01*
X55299Y96199D02*
Y92200D01*
X10944Y13697D02*
X5612D01*
Y9699D01*
X8278D01*
X5612D01*
Y5700D01*
X13610D02*
Y13697D01*
X17608D01*
X18941Y12365D01*
Y9699D01*
X17608Y8366D01*
X13610D01*
X16275D02*
X18941Y5700D01*
X26939Y13697D02*
X21607D01*
Y5700D01*
X26939D01*
X21607Y9699D02*
X24273D01*
X34936Y13697D02*
X29605D01*
Y5700D01*
X34936D01*
X29605Y9699D02*
X32270D01*
X45599Y13697D02*
X50931D01*
X48265D01*
Y5700D01*
X53597Y13697D02*
X56263D01*
X54930D01*
Y5700D01*
X53597D01*
X56263D01*
X60261Y13697D02*
Y5700D01*
X64260D01*
X65593Y7033D01*
Y8366D01*
X64260Y9699D01*
X60261D01*
X64260D01*
X65593Y11032D01*
Y12365D01*
X64260Y13697D01*
X60261D01*
X73590D02*
X68259D01*
Y5700D01*
X73590D01*
X68259Y9699D02*
X70925D01*
X76256Y13697D02*
X81588D01*
X78922D01*
Y5700D01*
D15*
X320000Y-1102D02*
X317400D01*
X320000D02*
Y-0D01*
X320000Y0D02*
Y320000D01*
X318898Y-1102D02*
X-0D01*
X-0Y320000D02*
X-0Y-1102D01*
X320000Y320000D02*
X-0D01*
M02*
