G04*
G04 #@! TF.GenerationSoftware,Altium Limited,Altium Designer,21.4.1 (30)*
G04*
G04 Layer_Physical_Order=1*
G04 Layer_Color=255*
%FSLAX25Y25*%
%MOIN*%
G70*
G04*
G04 #@! TF.SameCoordinates,D269AA73-D9A8-4935-BD87-F3DB80CB49AA*
G04*
G04*
G04 #@! TF.FilePolarity,Positive*
G04*
G01*
G75*
%ADD13C,0.00600*%
%ADD14C,0.01000*%
%ADD15R,0.05512X0.02362*%
%ADD16R,0.03150X0.01575*%
%ADD17R,0.01575X0.03150*%
%ADD18R,0.05709X0.05709*%
%ADD19R,0.02756X0.02756*%
%ADD20R,0.03701X0.02874*%
%ADD21R,0.02874X0.03701*%
%ADD22R,0.03543X0.03740*%
%ADD23R,0.02362X0.02441*%
%ADD24R,0.06535X0.03110*%
%ADD25R,0.05709X0.03937*%
%ADD26R,0.03425X0.04409*%
%ADD27R,0.07087X0.03543*%
%ADD28R,0.07087X0.12598*%
%ADD29R,0.04724X0.02362*%
%ADD30R,0.02992X0.03858*%
%ADD31R,0.06102X0.08661*%
%ADD32R,0.06004X0.02756*%
%ADD33R,0.03740X0.03543*%
%ADD34R,0.05512X0.01772*%
%ADD35R,0.08268X0.05512*%
%ADD36R,0.03858X0.02992*%
%ADD37R,0.04134X0.03347*%
%ADD38R,0.01575X0.01890*%
%ADD39R,0.02362X0.04488*%
%ADD40R,0.01181X0.04488*%
%ADD41R,0.04528X0.02362*%
%ADD42R,0.03937X0.05709*%
%ADD43R,0.09894X0.13394*%
%ADD44R,0.05807X0.01772*%
%ADD82C,0.01500*%
%ADD83C,0.03000*%
%ADD84C,0.02000*%
%ADD85C,0.00603*%
%ADD86C,0.02500*%
%ADD87R,0.06496X0.06496*%
%ADD88C,0.06496*%
%ADD89C,0.12000*%
%ADD90C,0.05937*%
%ADD91O,0.03543X0.06693*%
%ADD92O,0.03543X0.07874*%
%ADD93C,0.02362*%
%ADD94C,0.02400*%
G36*
X95982Y28257D02*
Y25156D01*
X95782D01*
Y20016D01*
X95982D01*
Y5619D01*
X82015D01*
X81904Y5508D01*
X81804Y5608D01*
Y28322D01*
X95918D01*
X95982Y28257D01*
D02*
G37*
G36*
X148767Y11071D02*
Y5119D01*
Y4459D01*
X137749D01*
X136433Y4524D01*
X136267Y4548D01*
X129742Y5043D01*
X116508D01*
Y26200D01*
X148767D01*
Y11071D01*
D02*
G37*
G36*
X196355Y24450D02*
X156019D01*
X154855Y25614D01*
X154855Y59700D01*
X196355D01*
Y24450D01*
D02*
G37*
G36*
X32300Y146700D02*
X38103D01*
Y143304D01*
X38070Y143271D01*
Y143413D01*
X32142D01*
Y143200D01*
X16041D01*
Y151814D01*
X15906Y151949D01*
X27051D01*
X32300Y146700D01*
D02*
G37*
G36*
X101700Y136000D02*
X87800Y122100D01*
X87700Y122200D01*
X60045D01*
Y146488D01*
X73000Y154900D01*
X87600D01*
Y169346D01*
X88054Y169800D01*
X101700D01*
Y136000D01*
D02*
G37*
G36*
X85700Y196900D02*
Y181900D01*
X85200Y181400D01*
X65000D01*
Y193000D01*
X65228Y192772D01*
X79900D01*
Y196900D01*
X82800Y199800D01*
X85700Y196900D01*
D02*
G37*
G36*
X18100Y258557D02*
X18154Y258611D01*
X18621D01*
Y257523D01*
X18657Y257488D01*
Y256017D01*
X18923Y255752D01*
Y253766D01*
X19954D01*
X20000Y253700D01*
X20000Y251200D01*
X18300Y249500D01*
X15600D01*
X13700Y251400D01*
Y254100D01*
X15300Y255700D01*
Y261707D01*
X14900Y262107D01*
X5307D01*
X5300Y262100D01*
X4700Y262700D01*
Y267100D01*
X5300Y267700D01*
X18100D01*
Y258557D01*
D02*
G37*
D13*
X104685Y256686D02*
X105367Y257367D01*
X104685Y256686D02*
Y261737D01*
X112835Y263587D02*
Y263686D01*
X110559Y260913D02*
Y261410D01*
X111265Y262116D01*
X110559Y260913D02*
X112785Y258686D01*
X111363Y262116D02*
X112835Y263587D01*
X111265Y262116D02*
X111363D01*
X31877Y174887D02*
Y191613D01*
X47551Y159213D02*
X56883D01*
X31877Y174887D02*
X47551Y159213D01*
X23954Y199536D02*
X31877Y191613D01*
X23804Y199686D02*
X23954Y199536D01*
X23804Y199686D02*
X23804D01*
X23804Y199386D02*
Y199686D01*
Y167086D02*
Y199386D01*
X47471Y126406D02*
X55508D01*
X41405Y141532D02*
X47058D01*
X48344Y137663D02*
X61283Y150601D01*
X35106Y137663D02*
X48344D01*
X61283Y150601D02*
Y154813D01*
X33420Y140651D02*
X34301Y141532D01*
X33420Y139349D02*
X35106Y137663D01*
X34301Y141532D02*
X35106D01*
X33420Y139349D02*
Y140651D01*
X172896Y79200D02*
Y81600D01*
X179008Y87713D01*
X172708Y79013D02*
X172896Y79200D01*
X78854Y48436D02*
X130730Y100313D01*
X197575D01*
X198784Y99104D01*
X198814D01*
X247708Y50209D01*
X200908Y94513D02*
X230908Y64513D01*
X169908Y94513D02*
X200908D01*
X246908Y30013D02*
Y30113D01*
X165522Y90126D02*
X169908Y94513D01*
X165522Y78013D02*
Y90126D01*
X172646Y66991D02*
Y78950D01*
X172708Y79013D01*
X172583Y66929D02*
X172646Y66991D01*
X230908Y46113D02*
Y64513D01*
X168808Y111813D02*
Y194591D01*
X184404Y210186D01*
X165522Y72117D02*
Y78013D01*
X182032Y66929D02*
X182120Y67017D01*
Y75025D02*
X182208Y75113D01*
X182120Y67017D02*
Y75025D01*
X115404Y69886D02*
X130930Y85413D01*
X156008D01*
X217758Y57686D02*
X218123Y58051D01*
X225908D01*
X247208Y162881D02*
X247404D01*
X246990D02*
X247208D01*
Y180343D01*
X225908Y87813D02*
Y141386D01*
X245853Y161744D02*
X246990Y162881D01*
X245853Y161331D02*
Y161744D01*
X225908Y141386D02*
X245853Y161331D01*
X247708Y42313D02*
Y50209D01*
X291767Y18174D02*
X299908D01*
X230908Y46113D02*
X246908Y30113D01*
X204308Y61007D02*
Y75113D01*
X199110Y44339D02*
X207005D01*
X207357Y44690D01*
Y57958D01*
X198961Y44488D02*
X199110Y44339D01*
X204308Y61007D02*
X207357Y57958D01*
X194719Y67018D02*
Y78824D01*
X194808Y78913D01*
X198961Y47637D02*
X204017D01*
X167804Y231286D02*
Y243786D01*
X194630Y66929D02*
X194719Y67018D01*
X191481Y66929D02*
Y73213D01*
X253653Y42313D02*
X256104Y44763D01*
Y55007D01*
X175733Y66929D02*
Y73213D01*
X169434Y66929D02*
Y73213D01*
X166284Y66929D02*
Y71354D01*
X165522Y72117D02*
X166284Y71354D01*
X113654Y43686D02*
Y43784D01*
Y43587D02*
Y43686D01*
X50159Y150971D02*
Y154813D01*
X56883Y159213D02*
X61283Y154813D01*
X41405Y145272D02*
X44460D01*
X50159Y150971D01*
X38104Y156686D02*
X41405Y153384D01*
X38103Y156685D02*
X38104Y156686D01*
X41405Y149012D02*
Y153384D01*
X8863Y151315D02*
X12166Y148012D01*
X60654Y154813D02*
X61283D01*
X247208Y180343D02*
X248019Y181154D01*
X308908Y161113D02*
Y163345D01*
X311677Y166113D01*
X310019Y167770D02*
X311677Y166113D01*
X306717Y181154D02*
Y183828D01*
X310019Y167770D02*
Y181154D01*
X308908Y161113D02*
X309322D01*
X303519Y155522D02*
X308908D01*
X217004Y50541D02*
X217358Y50186D01*
X266057Y45067D02*
X272603D01*
X272657Y45012D01*
X266057Y29110D02*
Y45067D01*
X272657Y45012D02*
Y45111D01*
X269404Y48364D02*
X272657Y45111D01*
X269404Y48364D02*
Y52586D01*
X291767Y25851D02*
X295156D01*
X295508Y26202D02*
Y29099D01*
X295156Y25851D02*
X295508Y26202D01*
X292106Y32500D02*
Y45012D01*
Y32500D02*
X295508Y29099D01*
X292106Y45012D02*
Y51735D01*
X291755Y52086D02*
X292106Y51735D01*
X287560Y52086D02*
X291755D01*
X287108Y52537D02*
X287560Y52086D01*
X287108Y52537D02*
Y60363D01*
Y66663D02*
Y70861D01*
X286757Y71213D02*
X287108Y70861D01*
X278360Y71213D02*
X286757D01*
X278008Y70861D02*
X278360Y71213D01*
X278008Y66663D02*
Y70861D01*
X277657Y55886D02*
X278008Y56237D01*
X256982Y55886D02*
X277657D01*
X278008Y56237D02*
Y60363D01*
X267963Y19086D02*
X268876Y18174D01*
X274445D01*
X269031Y21010D02*
X269169Y20871D01*
X272979D01*
X273117Y20733D01*
X262404Y19086D02*
X267963D01*
X269317Y25851D02*
X276209D01*
X266057Y29110D02*
X269317Y25851D01*
X8863Y151315D02*
Y162146D01*
X13804Y167086D02*
X18141D01*
X8863Y162146D02*
X13804Y167086D01*
X78854Y43780D02*
Y48436D01*
X68115Y173726D02*
X68997Y174607D01*
X68115Y173726D02*
X85746D01*
X100806Y188786D01*
X66934Y173726D02*
X68115D01*
X244717Y183828D02*
X245904Y182641D01*
X104685Y261737D02*
X106536Y263587D01*
Y263686D01*
X32030Y258812D02*
Y263609D01*
X31904Y258686D02*
X32030Y258812D01*
X31953Y263686D02*
X32030Y263609D01*
X46704Y50583D02*
X48804Y52683D01*
X100806Y188786D02*
X112204D01*
X31904Y258686D02*
X73604Y216986D01*
X124604D01*
X127704Y213886D01*
X305134Y20217D02*
X309960D01*
X35804Y51284D02*
Y56545D01*
Y51245D02*
Y51284D01*
X13804Y46088D02*
Y46678D01*
Y41378D02*
Y46088D01*
X265704Y94086D02*
X265773Y94156D01*
X98253Y22586D02*
X102104D01*
X270953Y258736D02*
Y263686D01*
X191953Y257736D02*
Y262686D01*
X152953Y258736D02*
Y263686D01*
X48804Y52683D02*
Y56545D01*
X24804Y42107D02*
Y45536D01*
X256104Y55007D02*
X256982Y55886D01*
X152904Y258686D02*
X167804Y243786D01*
X127704Y197386D02*
Y213886D01*
X43693Y29387D02*
Y33576D01*
X98725Y35946D02*
X105418D01*
X98725Y39686D02*
X109752D01*
X31882Y29387D02*
Y35028D01*
X24804Y42107D02*
X31882Y35028D01*
X88882Y39686D02*
X89473D01*
X84173D02*
X88882D01*
X102104Y22586D02*
X105418Y25900D01*
X109752Y39686D02*
X113654Y43587D01*
X105418Y25900D02*
Y35946D01*
X54804Y86386D02*
Y95631D01*
X78854Y43426D02*
X88882D01*
X72953Y259736D02*
Y264686D01*
D14*
X217719Y35313D02*
Y41200D01*
X198961Y53936D02*
X199023Y53875D01*
X217719Y41200D02*
X223664D01*
X217533Y41386D02*
X217719Y41200D01*
X34673Y145705D02*
X35106Y145272D01*
X153508Y73213D02*
X156008Y70713D01*
X158508D01*
X159697Y67216D02*
Y69524D01*
Y67216D02*
X159985Y66929D01*
X158508Y70713D02*
X159697Y69524D01*
X163134Y66929D02*
Y72117D01*
X162008Y73243D02*
Y73621D01*
Y73243D02*
X163134Y72117D01*
X156494Y73621D02*
X162008D01*
X154103Y76013D02*
X156494Y73621D01*
X145882Y76013D02*
X154103D01*
X113853Y43983D02*
X145882Y76013D01*
X199158Y63582D02*
Y67125D01*
X198961Y63385D02*
X199158Y63582D01*
X195216Y63385D02*
X198961D01*
X192508Y60677D02*
X195216Y63385D01*
X192508Y60413D02*
Y60677D01*
X204047Y53875D02*
X204108Y53813D01*
X199023Y53875D02*
X204047D01*
X260554Y23410D02*
X270025D01*
X260551Y23413D02*
X260554Y23410D01*
X220706Y22827D02*
X221292Y23413D01*
X260551D01*
X220706Y15075D02*
Y22827D01*
X159908Y112813D02*
Y235313D01*
Y112813D02*
X160208Y112513D01*
X188331Y62800D02*
Y66929D01*
X190582Y210186D02*
X193704D01*
X171808Y191413D02*
X190582Y210186D01*
X171808Y114413D02*
X176208Y110013D01*
X171808Y114413D02*
Y191413D01*
X291767Y20733D02*
Y23292D01*
X216824Y29286D02*
X223008D01*
X211706Y15075D02*
X220706D01*
X211234Y15547D02*
X211706Y15075D01*
X211234Y15547D02*
Y29286D01*
X201029Y37030D02*
X205654Y32405D01*
X199749Y38188D02*
X200907Y37030D01*
X198961Y38188D02*
X199749D01*
X200907Y37030D02*
X201029D01*
X205654Y29872D02*
X206240Y29286D01*
X211234D01*
X205654Y29872D02*
Y32405D01*
X83204Y158686D02*
Y158784D01*
X17082Y123086D02*
X17844Y123847D01*
X24337D01*
X16704Y123086D02*
X17082D01*
X11454Y127406D02*
X11722Y127138D01*
X14030D01*
X14762Y126406D02*
X24337D01*
X14030Y127138D02*
X14762Y126406D01*
X109652Y192186D02*
X112204Y189635D01*
Y188786D02*
Y189635D01*
X96632Y196086D02*
X100806D01*
X78904Y207653D02*
X79900Y206657D01*
X80057D01*
X90628Y196086D02*
Y196913D01*
X90104Y197436D02*
X90628Y196913D01*
X89277Y197436D02*
X90104D01*
X80057Y206657D02*
X89277Y197436D01*
X83183Y158806D02*
X83204Y158784D01*
X83183Y158806D02*
Y166246D01*
X89168Y172644D02*
X112204D01*
X83183Y166246D02*
Y166659D01*
X89168Y172644D01*
X90628Y196086D02*
X91978Y194736D01*
X92564Y192186D02*
X109652D01*
X91978Y192772D02*
Y194736D01*
Y192772D02*
X92564Y192186D01*
X156638Y28149D02*
X156835Y28346D01*
X152308Y28149D02*
X156638D01*
X156835Y28346D02*
X159985D01*
X163134D01*
X166284D01*
X169434D01*
X172583D01*
X175733D01*
X178882D01*
X182032D01*
X185182D01*
X188331D01*
X191481D01*
X194630D01*
X194827Y28149D01*
X199158D01*
X198961Y31889D02*
X199158Y31692D01*
Y28149D02*
Y31692D01*
X198961Y31889D02*
Y35039D01*
X152308Y25013D02*
Y28149D01*
X211234Y41386D02*
X211413Y41566D01*
Y57640D02*
X211459Y57686D01*
X291767Y23292D02*
X296352D01*
X304948Y25966D02*
X305106Y25807D01*
X270143Y23292D02*
X274445D01*
X270025Y23410D02*
X270143Y23292D01*
X297008Y25380D02*
X297593Y25966D01*
X296352Y23292D02*
X297008Y23947D01*
Y25380D01*
X297593Y25966D02*
X304948D01*
D15*
X98725Y43426D02*
D03*
Y39686D02*
D03*
Y35946D02*
D03*
X88882D02*
D03*
Y39686D02*
D03*
Y43426D02*
D03*
D16*
X198961Y31889D02*
D03*
Y35039D02*
D03*
Y38188D02*
D03*
Y41338D02*
D03*
Y44488D02*
D03*
Y47637D02*
D03*
Y50787D02*
D03*
Y53936D02*
D03*
Y57086D02*
D03*
Y60236D02*
D03*
Y63385D02*
D03*
X152504D02*
D03*
Y60236D02*
D03*
Y57086D02*
D03*
Y53936D02*
D03*
Y50787D02*
D03*
Y47637D02*
D03*
Y44488D02*
D03*
Y41338D02*
D03*
Y38188D02*
D03*
Y35039D02*
D03*
Y31889D02*
D03*
D17*
X194630Y66929D02*
D03*
X191481D02*
D03*
X188331D02*
D03*
X185182D02*
D03*
X182032D02*
D03*
X178882D02*
D03*
X175733D02*
D03*
X172583D02*
D03*
X169434D02*
D03*
X166284D02*
D03*
X163134D02*
D03*
X159985D02*
D03*
X156835D02*
D03*
Y28346D02*
D03*
X159985D02*
D03*
X163134D02*
D03*
X166284D02*
D03*
X169434D02*
D03*
X172583D02*
D03*
X175733D02*
D03*
X178882D02*
D03*
X182032D02*
D03*
X185182D02*
D03*
X188331D02*
D03*
X191481D02*
D03*
X194630D02*
D03*
D18*
X175733Y47637D02*
D03*
X167957Y39862D02*
D03*
X175733D02*
D03*
X183508D02*
D03*
Y47637D02*
D03*
Y55413D02*
D03*
X175733D02*
D03*
X167957D02*
D03*
Y47637D02*
D03*
D19*
X199158Y28149D02*
D03*
Y67125D02*
D03*
X152308D02*
D03*
Y28149D02*
D03*
D20*
X308908Y161113D02*
D03*
Y155522D02*
D03*
X78854Y43426D02*
D03*
Y37836D02*
D03*
X220706Y15075D02*
D03*
Y9484D02*
D03*
X247404Y157291D02*
D03*
Y162881D02*
D03*
X305106Y25807D02*
D03*
Y20217D02*
D03*
D21*
X83183Y166246D02*
D03*
X88774D02*
D03*
X18141Y167086D02*
D03*
X23732D02*
D03*
X253299Y42313D02*
D03*
X247708D02*
D03*
X91041Y196086D02*
D03*
X96632D02*
D03*
X211413Y50186D02*
D03*
X217004D02*
D03*
X113708Y7986D02*
D03*
X119299D02*
D03*
X217719Y35313D02*
D03*
X223309D02*
D03*
D22*
X31953Y263686D02*
D03*
X25654D02*
D03*
X83204Y158686D02*
D03*
X89504D02*
D03*
X119953Y43686D02*
D03*
X113654D02*
D03*
X98253Y22586D02*
D03*
X91954D02*
D03*
X292106Y45012D02*
D03*
X285807D02*
D03*
X278956D02*
D03*
X272657D02*
D03*
X66654Y264686D02*
D03*
X72953D02*
D03*
X146654Y263686D02*
D03*
X152953D02*
D03*
X106536D02*
D03*
X112835D02*
D03*
X264654D02*
D03*
X270953D02*
D03*
X224654D02*
D03*
X230953D02*
D03*
X185654Y262686D02*
D03*
X191953D02*
D03*
X211459Y57686D02*
D03*
X217758D02*
D03*
X217533Y41386D02*
D03*
X211234D02*
D03*
X27256Y95012D02*
D03*
X20956D02*
D03*
X25658Y78813D02*
D03*
X19359D02*
D03*
X50159Y154813D02*
D03*
X56458D02*
D03*
X86956Y88012D02*
D03*
X93256D02*
D03*
X26256Y103012D02*
D03*
X19956D02*
D03*
X25858Y87113D02*
D03*
X19559D02*
D03*
D23*
X20804Y255686D02*
D03*
X17182D02*
D03*
X257993Y256686D02*
D03*
X261615D02*
D03*
X58182D02*
D03*
X61804D02*
D03*
X140993D02*
D03*
X144615D02*
D03*
X101063D02*
D03*
X104685D02*
D03*
X217993D02*
D03*
X221615D02*
D03*
X178993D02*
D03*
X182615D02*
D03*
D24*
X25330Y297829D02*
D03*
X41078D02*
D03*
Y290742D02*
D03*
X25330D02*
D03*
X67830D02*
D03*
X83578D02*
D03*
Y297829D02*
D03*
X67830D02*
D03*
X153030Y290742D02*
D03*
X168778D02*
D03*
Y297829D02*
D03*
X153030D02*
D03*
X110430Y290742D02*
D03*
X126178D02*
D03*
Y297829D02*
D03*
X110430D02*
D03*
X280530Y290742D02*
D03*
X296278D02*
D03*
Y297829D02*
D03*
X280530D02*
D03*
X238030Y290742D02*
D03*
X253778D02*
D03*
Y297829D02*
D03*
X238030D02*
D03*
X195530Y290742D02*
D03*
X211278D02*
D03*
Y297829D02*
D03*
X195530D02*
D03*
D25*
X14804Y271426D02*
D03*
Y263946D02*
D03*
X54804Y271686D02*
D03*
Y264206D02*
D03*
X135804Y263946D02*
D03*
Y271426D02*
D03*
X94685Y263946D02*
D03*
Y271426D02*
D03*
X253804Y264206D02*
D03*
Y271686D02*
D03*
X213804Y263946D02*
D03*
Y271426D02*
D03*
X174804Y263206D02*
D03*
Y270686D02*
D03*
D26*
X88204Y189486D02*
D03*
X82534D02*
D03*
D27*
X69015Y189731D02*
D03*
Y198786D02*
D03*
Y207841D02*
D03*
D28*
X45393Y198786D02*
D03*
D29*
X66934Y166246D02*
D03*
Y173726D02*
D03*
X58273Y169986D02*
D03*
D30*
X84494Y208086D02*
D03*
X78904D02*
D03*
X211234Y29286D02*
D03*
X216824D02*
D03*
X119599Y21686D02*
D03*
X114008D02*
D03*
X84161Y108686D02*
D03*
X89752D02*
D03*
X24901Y112012D02*
D03*
X19311D02*
D03*
D31*
X112204Y188786D02*
D03*
Y172644D02*
D03*
D32*
X47429Y104512D02*
D03*
X68783Y89512D02*
D03*
Y94512D02*
D03*
Y99512D02*
D03*
Y104512D02*
D03*
X47429Y99512D02*
D03*
Y94512D02*
D03*
Y89512D02*
D03*
D33*
X287108Y60363D02*
D03*
Y66663D02*
D03*
X278008Y60363D02*
D03*
Y66663D02*
D03*
X24804Y45536D02*
D03*
Y51836D02*
D03*
X62804Y45536D02*
D03*
Y51836D02*
D03*
D34*
X291767Y18174D02*
D03*
Y20733D02*
D03*
Y23292D02*
D03*
Y25851D02*
D03*
X274445D02*
D03*
Y23292D02*
D03*
Y20733D02*
D03*
Y18174D02*
D03*
D35*
X310019Y181154D02*
D03*
X274193D02*
D03*
X310019Y198871D02*
D03*
X274193D02*
D03*
X248019Y181154D02*
D03*
X212193D02*
D03*
X248019Y198871D02*
D03*
X212193D02*
D03*
D36*
X211706Y15075D02*
D03*
Y9484D02*
D03*
D37*
X33239Y72129D02*
D03*
X47412D02*
D03*
D38*
X13804Y51284D02*
D03*
Y46088D02*
D03*
X35804D02*
D03*
Y51284D02*
D03*
X46704Y45386D02*
D03*
Y50583D02*
D03*
D39*
X49402Y29387D02*
D03*
X46252D02*
D03*
X27355D02*
D03*
X24205D02*
D03*
D40*
X43693D02*
D03*
X41725D02*
D03*
X39756D02*
D03*
X37788D02*
D03*
X29914D02*
D03*
X31882D02*
D03*
X33851D02*
D03*
X35819D02*
D03*
D41*
X41405Y141532D02*
D03*
Y145272D02*
D03*
Y149012D02*
D03*
X35106D02*
D03*
Y145272D02*
D03*
Y141532D02*
D03*
D42*
X19646Y148012D02*
D03*
X12166D02*
D03*
D43*
X58106Y97012D02*
D03*
D44*
X24337Y131525D02*
D03*
Y128966D02*
D03*
Y126406D02*
D03*
Y123847D02*
D03*
X47471D02*
D03*
Y126406D02*
D03*
Y128966D02*
D03*
Y131525D02*
D03*
D82*
X225676Y264708D02*
Y265161D01*
X244200Y283686D01*
X224654Y263686D02*
X225676Y264708D01*
X278956Y45012D02*
X285807D01*
X183508Y52000D02*
Y55413D01*
X183246Y47900D02*
X183508Y47637D01*
X179800Y47900D02*
X183246D01*
X168085Y47509D02*
X171700D01*
X167957Y47637D02*
X168085Y47509D01*
X175605Y52000D02*
Y55285D01*
X175733Y55413D01*
X175600Y44000D02*
X175605Y44005D01*
Y47509D01*
X175733Y47637D01*
X171700Y39600D02*
X175471D01*
X175733Y39862D01*
X167957Y55413D02*
X175733D01*
X20380Y137663D02*
X35106D01*
X17976Y135258D02*
X20380Y137663D01*
X47429Y104512D02*
X47717D01*
X37685D02*
X47429D01*
X26138Y148032D02*
X28898Y145272D01*
X35106D01*
X19666Y148032D02*
X26138D01*
X19646Y148012D02*
X19666Y148032D01*
X14004Y174586D02*
Y199643D01*
X13961Y199686D02*
X14004Y199643D01*
X211413Y50186D02*
Y57640D01*
X68783Y104512D02*
X74951D01*
X28295Y72686D02*
X28852Y72129D01*
X33239D01*
X28052Y72686D02*
X28295D01*
X47412Y67795D02*
Y68979D01*
X47517Y72313D02*
X47890Y72686D01*
X47517Y69084D02*
Y72313D01*
X47412Y68979D02*
X47517Y69084D01*
X45704Y66086D02*
X47412Y67795D01*
X15904Y66086D02*
X45704D01*
X74951Y94113D02*
X80950Y88115D01*
X68088Y94113D02*
X74951D01*
X80950Y88115D02*
X86261D01*
X42765Y89512D02*
X47429D01*
X38791Y85538D02*
X42765Y89512D01*
X37685Y99512D02*
X47429D01*
X26256Y103012D02*
X34185D01*
X37685Y99512D01*
X35011Y107186D02*
X37685Y104512D01*
X36708Y95413D02*
X40806D01*
X41707Y94512D02*
X47429D01*
X40806Y95413D02*
X41707Y94512D01*
X25858Y87211D02*
X30470Y91823D01*
X33119D01*
X36708Y95413D01*
X25858Y87113D02*
Y87211D01*
X27256Y95012D02*
X31030D01*
X33204Y97186D01*
X26288Y74693D02*
Y78183D01*
Y74693D02*
X28052Y72930D01*
X25658Y78813D02*
X26288Y78183D01*
X28052Y72686D02*
Y72930D01*
X19459Y78913D02*
Y87013D01*
X19559Y87113D01*
X19359Y78813D02*
X19459Y78913D01*
X14608Y96135D02*
X15487Y95256D01*
X19444D01*
X19651Y95463D01*
X14608Y96135D02*
Y102585D01*
X15487Y103463D02*
X18651D01*
X14608Y102585D02*
X15487Y103463D01*
X28408Y112891D02*
Y113193D01*
X24901Y112012D02*
X27530D01*
X29504Y114288D02*
Y114532D01*
X28408Y113193D02*
X29504Y114288D01*
X27530Y112012D02*
X28408Y112891D01*
X47606Y123712D02*
X49978D01*
X47471Y123847D02*
X47606Y123712D01*
X49978D02*
X54104Y119586D01*
X264654Y263686D02*
Y267534D01*
X265533Y268413D02*
X268008D01*
X264654Y267534D02*
X265533Y268413D01*
X268008D02*
X272508Y272913D01*
X301508D01*
X310708Y282113D01*
Y296413D01*
X309292Y297829D02*
X310708Y296413D01*
X296278Y297829D02*
X309292D01*
X261615Y256686D02*
X262037Y257109D01*
X263775D01*
X264654Y257987D01*
Y263686D01*
X223309Y35313D02*
X227508D01*
X144808Y18913D02*
X148647Y15075D01*
X211706D01*
X144808Y18913D02*
Y23181D01*
X124404Y43586D02*
X144808Y23181D01*
X220706Y5113D02*
Y9484D01*
X211706Y5113D02*
Y9484D01*
X217358Y50186D02*
X221408D01*
X217004D02*
X217358D01*
X265773Y94156D02*
X265811Y94193D01*
Y102876D02*
X265848Y102913D01*
X265811Y94193D02*
Y102876D01*
X295769Y102913D02*
X295836Y102846D01*
Y95053D02*
Y102846D01*
Y95053D02*
X295904Y94986D01*
X211413Y41566D02*
Y50186D01*
X211234Y29286D02*
Y41386D01*
X183508Y47637D02*
X188331D01*
X162108Y39862D02*
X167957D01*
X162108Y47637D02*
X167957D01*
Y35039D02*
Y39862D01*
X175733Y34013D02*
Y39862D01*
X183508D02*
X188331D01*
X183508Y55413D02*
X188331D01*
X175733D02*
Y60087D01*
X162008Y55513D02*
X162108Y55413D01*
X167957D01*
X147108Y67013D02*
X152195D01*
X152308Y67125D01*
X73404Y37586D02*
X73528Y37711D01*
X78729D02*
X78854Y37836D01*
X73528Y37711D02*
X78729D01*
X89504Y153886D02*
Y158686D01*
X89461Y162849D02*
Y165559D01*
X88774Y166246D02*
X89461Y165559D01*
Y162849D02*
X89504Y162806D01*
Y158686D02*
Y162806D01*
X66883Y173726D02*
X66934D01*
X66452Y174157D02*
X66883Y173726D01*
X75743Y166246D02*
X83183Y158806D01*
X103725Y297808D02*
X103747Y297829D01*
X103704Y297786D02*
X103725Y297808D01*
X48782Y290764D02*
X48804Y290786D01*
X48760Y290742D02*
X48782Y290764D01*
X253249Y157136D02*
X253404Y156981D01*
X247404Y157291D02*
X247558Y157136D01*
X253249D01*
X244200Y283686D02*
X263646D01*
X265404Y285443D01*
Y296072D01*
X253778Y297829D02*
X263646D01*
X265404Y296072D01*
X147904Y291186D02*
X152586D01*
X153030Y290742D01*
X136704Y279986D02*
X147904Y291186D01*
X135804Y279107D02*
X136682Y279986D01*
X136704D01*
X135804Y271426D02*
Y279107D01*
X137025Y297829D02*
X137904Y296951D01*
Y284865D02*
Y296951D01*
X126178Y297829D02*
X137025D01*
X126737Y283986D02*
X137025D01*
X137904Y284865D01*
X106536Y263686D02*
Y263784D01*
X126737Y283986D01*
X105804Y290586D02*
X110273D01*
X110430Y290742D01*
X94685Y279468D02*
X105804Y290586D01*
X94685Y271426D02*
Y279468D01*
X85674Y275235D02*
X95104Y284665D01*
Y296951D01*
X77105Y275235D02*
X85674D01*
X66654Y264686D02*
Y264784D01*
X77105Y275235D01*
X83578Y297829D02*
X94225D01*
X95104Y296951D01*
X83578Y290742D02*
X92174D01*
X66654Y257836D02*
Y264686D01*
X65504Y256686D02*
X66654Y257836D01*
X61804Y256686D02*
X65504D01*
X55682Y291186D02*
X67386D01*
X54804Y271686D02*
Y290307D01*
X67386Y291186D02*
X67830Y290742D01*
X54804Y290307D02*
X55682Y291186D01*
X25654Y263784D02*
X34066Y272196D01*
X44314D01*
X25654Y263686D02*
Y263784D01*
X51804Y279686D02*
Y296951D01*
X44314Y272196D02*
X51804Y279686D01*
X50925Y297829D02*
X51804Y296951D01*
X41078Y297829D02*
X50925D01*
X41078Y290742D02*
X48760D01*
X25654Y256565D02*
Y263686D01*
X24775Y255686D02*
X25654Y256565D01*
X20804Y255686D02*
X24775D01*
X14404Y271826D02*
Y289864D01*
X15282Y290742D02*
X25330D01*
X14404Y271826D02*
X14804Y271426D01*
X14404Y289864D02*
X15282Y290742D01*
X304047D02*
X304104Y290686D01*
X296278Y290742D02*
X304047D01*
X273304Y297829D02*
X280530D01*
X253778Y290742D02*
X262004D01*
X231404Y297886D02*
X231460Y297829D01*
X238030D01*
X211278Y290742D02*
X218804D01*
X188304Y297829D02*
X195530D01*
X168778Y290742D02*
X177315D01*
X146104Y297829D02*
X153030D01*
X126178Y290742D02*
X133292D01*
X103747Y297829D02*
X110430D01*
X61004Y297886D02*
X61060Y297829D01*
X67830D01*
X19430Y297986D02*
X19473Y298029D01*
X19204Y297786D02*
X19247Y297829D01*
X25330D01*
X14804Y271426D02*
X14880Y271503D01*
X82534Y189486D02*
Y194632D01*
X88204Y184786D02*
Y189486D01*
X84494Y208086D02*
X88204D01*
X51904Y169986D02*
X58273D01*
X12604Y132403D02*
X16041Y128966D01*
X24337D01*
X17976Y132403D02*
X18855Y131525D01*
X17976Y132403D02*
Y135258D01*
X18855Y131525D02*
X24337D01*
X112204Y142547D02*
Y171853D01*
X109902Y169552D02*
X112204Y171853D01*
Y172644D01*
X66934Y166246D02*
X75743D01*
X78343Y108686D02*
X112204Y142547D01*
X119667Y8000D02*
X126900D01*
X119653Y7986D02*
X119667Y8000D01*
X126900D02*
X126914Y8014D01*
X119599Y21686D02*
X127214D01*
X41978Y22786D02*
X45734Y26542D01*
X29097Y25693D02*
X32004Y22786D01*
X41978D01*
X27786Y26629D02*
X28723Y25693D01*
X27786Y26629D02*
Y28956D01*
X28723Y25693D02*
X29097D01*
X120003Y43636D02*
X124354D01*
X124404Y43586D01*
X119953Y43686D02*
X120003Y43636D01*
X19776Y43986D02*
X27355Y36408D01*
Y29387D02*
Y36408D01*
Y29387D02*
X27786Y28956D01*
X45734Y26542D02*
Y27014D01*
X45821Y27101D01*
Y27893D01*
X46252Y28324D01*
Y29387D01*
X13804Y51284D02*
Y63986D01*
X15904Y66086D01*
X43693Y33576D02*
X48504Y38386D01*
X55555D01*
X62705Y45536D02*
X62804D01*
X55555Y38386D02*
X62705Y45536D01*
X230953Y263686D02*
X236619D01*
X19776Y43986D02*
Y50406D01*
X13804Y51284D02*
X18897D01*
X19776Y50406D01*
X86289Y22586D02*
X91954D01*
X78343Y108686D02*
X84008D01*
D83*
X49127Y263997D02*
X54595D01*
X262451Y271686D02*
X265404Y274639D01*
X253804Y271686D02*
X262451D01*
X265404Y274639D02*
Y277329D01*
X278817Y290742D02*
X280530D01*
X265404Y277329D02*
X278817Y290742D01*
X213804Y271426D02*
X214689D01*
X233951Y290687D01*
X237975D02*
X238030Y290742D01*
X233951Y290687D02*
X237975D01*
X7333Y263957D02*
X14793D01*
X7304Y263986D02*
X7333Y263957D01*
X14793D02*
X14804Y263946D01*
X54595Y263997D02*
X54804Y264206D01*
Y264009D02*
Y264206D01*
X213335Y271895D02*
X213804Y271426D01*
X224654Y263587D02*
Y263686D01*
X101063Y256686D02*
X101204Y256546D01*
X174804Y263206D02*
X175244D01*
X175713Y262737D01*
X248138Y264206D02*
X253804D01*
X130138Y263946D02*
X135804D01*
X167938Y263086D02*
X173604D01*
X208138Y263946D02*
X213804D01*
D84*
X84163Y35946D02*
X88882D01*
X81804Y33586D02*
X84163Y35946D01*
X70206Y89587D02*
X75031D01*
X70206Y99512D02*
X76600D01*
X56458Y154813D02*
X60654D01*
X221138Y283286D02*
X223404Y285552D01*
X206156Y283286D02*
X221138D01*
X223404Y285552D02*
Y296658D01*
X185654Y262784D02*
X206156Y283286D01*
X222232Y297829D02*
X223404Y296658D01*
X211278Y297829D02*
X222232D01*
X185654Y262686D02*
Y262784D01*
X189475Y290742D02*
X195530D01*
X188304Y289571D02*
X189475Y290742D01*
X188304Y283300D02*
Y289571D01*
X174804Y270686D02*
X175689D01*
X188304Y283300D01*
X181604Y284258D02*
Y296658D01*
X168778Y297829D02*
X180432D01*
X181604Y296658D01*
X150204Y283086D02*
X180432D01*
X181604Y284258D01*
X147104Y279986D02*
X150204Y283086D01*
X146654Y263686D02*
X147104Y264136D01*
Y279986D01*
X17204Y251386D02*
X17269Y251451D01*
X17182Y255686D02*
X17269Y255598D01*
Y251451D02*
Y255598D01*
X78904Y207653D02*
Y208086D01*
X69015Y207841D02*
X78715D01*
X69015Y198786D02*
X76604D01*
X146654Y263686D02*
X147104Y263236D01*
Y259214D02*
Y263236D01*
X144615Y256725D02*
X147104Y259214D01*
X144615Y256686D02*
Y256725D01*
X185622Y262654D02*
X185654Y262686D01*
X185622Y259733D02*
Y262654D01*
X182615Y256686D02*
Y256725D01*
X185622Y259733D01*
X113708Y8014D02*
Y12840D01*
X49402Y30203D02*
Y35028D01*
X24204Y30986D02*
Y35811D01*
X221615Y256686D02*
Y260548D01*
X224654Y263587D01*
X116778Y250586D02*
X130138Y263946D01*
X101204Y252343D02*
X102961Y250586D01*
X116778D01*
X101204Y252343D02*
Y256546D01*
X59353Y251486D02*
X74644D01*
X58182Y252658D02*
X59353Y251486D01*
X58182Y252658D02*
Y256686D01*
X74644Y251486D02*
X87104Y263946D01*
X94685D01*
X253804Y258443D02*
X255561Y256686D01*
X257993D01*
X253804Y258443D02*
Y264206D01*
X213804Y258586D02*
X215704Y256686D01*
X213804Y258586D02*
Y263946D01*
X215704Y256686D02*
X217993D01*
X175713Y258928D02*
X177955Y256686D01*
X175713Y258928D02*
Y262737D01*
X177955Y256686D02*
X178993D01*
X137561D02*
X140993D01*
X135804Y258443D02*
Y263946D01*
Y258443D02*
X137561Y256686D01*
X94685Y258443D02*
Y263946D01*
Y258443D02*
X96443Y256686D01*
X101063D01*
X56561D02*
X58182D01*
X54804Y258443D02*
X56561Y256686D01*
X54804Y258443D02*
Y264009D01*
X262914Y199012D02*
X271606D01*
X201314Y198812D02*
X210006D01*
X201106Y198912D02*
X201214D01*
X201314Y198812D01*
X14131Y112012D02*
X18956D01*
X90106Y108686D02*
X94931D01*
X93256Y88012D02*
X98081D01*
X24804Y53017D02*
Y57842D01*
X62804Y51836D02*
X67629D01*
X114008Y21793D02*
Y26618D01*
D85*
X138944Y54110D02*
Y57727D01*
X140695Y58979D02*
X141048Y58626D01*
Y60735D02*
Y64380D01*
Y54982D02*
Y58626D01*
X140695Y60382D02*
X141048Y60735D01*
X137541Y53529D02*
X139595Y51474D01*
X137541Y53529D02*
Y58309D01*
X140196Y58979D02*
X140695D01*
X137541Y58309D02*
X139614Y60382D01*
X140695D01*
X138944Y57727D02*
X140196Y58979D01*
X138944Y54110D02*
X140177Y52877D01*
X139595Y51474D02*
X142501D01*
X141920Y52877D02*
X148405Y59362D01*
X150878D01*
X142501Y51474D02*
X148986Y57959D01*
X140177Y52877D02*
X141920D01*
X148986Y57959D02*
X150878D01*
X151231Y57606D01*
Y57572D02*
X151717Y57086D01*
X152504D01*
X151231Y57572D02*
Y57606D01*
X46704Y45386D02*
X48804Y43286D01*
Y43174D02*
Y43286D01*
X44073Y43174D02*
X48804D01*
X43005Y37154D02*
Y42107D01*
X44073Y43174D01*
X39756Y33905D02*
X43005Y37154D01*
X35819Y29387D02*
X36108Y29676D01*
X39756Y26629D02*
Y29387D01*
X39268Y26141D02*
X39756Y26629D01*
Y29387D02*
Y33905D01*
X35819Y29387D02*
X36108Y29098D01*
Y26815D02*
X36782Y26141D01*
X39268D01*
X36108Y26815D02*
Y29098D01*
X151717Y60236D02*
X152504D01*
X151231Y59750D02*
X151717Y60236D01*
X151231Y59716D02*
Y59750D01*
X150878Y59362D02*
X151231Y59716D01*
X40534Y43174D02*
X41602Y42107D01*
X35804Y43174D02*
X40534D01*
X41602Y37735D02*
Y42107D01*
X37788Y33920D02*
X41602Y37735D01*
X35804Y43174D02*
Y46088D01*
X37771Y32632D02*
X37788Y32615D01*
X34221Y32632D02*
X37771D01*
X37499Y29098D02*
X37788Y29387D01*
Y32615D02*
Y33920D01*
Y29387D02*
Y32615D01*
X33851Y32262D02*
X34221Y32632D01*
X33851Y29387D02*
Y32262D01*
Y29387D02*
X34140Y29098D01*
D86*
X69015Y189731D02*
X69137Y189608D01*
X82412D01*
X82534Y189486D01*
D87*
X13961Y199686D02*
D03*
D88*
X23804D02*
D03*
D89*
X26604Y235986D02*
D03*
X74104Y68886D02*
D03*
X308504Y52086D02*
D03*
X304204Y237286D02*
D03*
D90*
X265848Y102913D02*
D03*
X295769D02*
D03*
D91*
X53831Y10686D02*
D03*
X19776D02*
D03*
D92*
X53831Y27103D02*
D03*
X19776D02*
D03*
D93*
X48182Y25174D02*
D03*
X25426D02*
D03*
D94*
X183508Y52000D02*
D03*
X175605D02*
D03*
X175600Y44000D02*
D03*
X179800Y47900D02*
D03*
X171700Y47509D02*
D03*
Y39600D02*
D03*
X81804Y33586D02*
D03*
X55508Y126406D02*
D03*
X47058Y141532D02*
D03*
X35106Y137663D02*
D03*
X26138Y148032D02*
D03*
X61283Y154813D02*
D03*
X179008Y87713D02*
D03*
X176208Y110013D02*
D03*
X168808Y111813D02*
D03*
X188331Y62800D02*
D03*
X182208Y75113D02*
D03*
X156008Y85413D02*
D03*
X172708Y79013D02*
D03*
X160208Y112513D02*
D03*
X225908Y58051D02*
D03*
Y87813D02*
D03*
X299908Y18174D02*
D03*
X246908Y30113D02*
D03*
X204308Y75113D02*
D03*
X194808Y78913D02*
D03*
X204108Y53813D02*
D03*
X204017Y47637D02*
D03*
X192508Y60413D02*
D03*
X153308Y226713D02*
D03*
X159908Y235313D02*
D03*
X167804Y231286D02*
D03*
X191481Y73213D02*
D03*
X175733D02*
D03*
X169434D02*
D03*
X153508D02*
D03*
X74951Y104512D02*
D03*
X75031Y89587D02*
D03*
X76600Y99512D02*
D03*
X38791Y85538D02*
D03*
X32636Y80388D02*
D03*
X33204Y97186D02*
D03*
X29504Y114532D02*
D03*
X311677Y166113D02*
D03*
X223664Y41200D02*
D03*
X227508Y35313D02*
D03*
X220706Y5113D02*
D03*
X211706D02*
D03*
X221408Y50186D02*
D03*
X223008Y29286D02*
D03*
X165522Y78013D02*
D03*
X303519Y155522D02*
D03*
X269031Y21010D02*
D03*
X262404Y19086D02*
D03*
X188331Y47637D02*
D03*
X152308Y25013D02*
D03*
X162108Y39862D02*
D03*
Y47637D02*
D03*
X167957Y35039D02*
D03*
X175733Y34013D02*
D03*
X188331Y39862D02*
D03*
Y55413D02*
D03*
X175733Y60087D02*
D03*
X147108Y67013D02*
D03*
X162108Y55413D02*
D03*
X141048Y54982D02*
D03*
Y64380D02*
D03*
X48804Y43174D02*
D03*
X35804D02*
D03*
X162008Y73621D02*
D03*
X100806Y196086D02*
D03*
X253404Y156981D02*
D03*
X92174Y290742D02*
D03*
X48782Y290764D02*
D03*
X61060Y297829D02*
D03*
X103725Y297808D02*
D03*
X133292Y290742D02*
D03*
X146104Y297829D02*
D03*
X177315Y290742D02*
D03*
X188304Y297829D02*
D03*
X218804Y290742D02*
D03*
X231460Y297829D02*
D03*
X262004Y290742D02*
D03*
X273304Y297829D02*
D03*
X304047Y290742D02*
D03*
X19204Y297786D02*
D03*
X31904Y258686D02*
D03*
X7304Y263986D02*
D03*
X82534Y194632D02*
D03*
X87504Y213386D02*
D03*
X88204Y184786D02*
D03*
Y208086D02*
D03*
X76604Y198786D02*
D03*
X51904Y169986D02*
D03*
X81704Y151586D02*
D03*
X76204Y151860D02*
D03*
X97204Y142547D02*
D03*
Y147286D02*
D03*
X98904Y153486D02*
D03*
X92304Y146786D02*
D03*
X94204Y153886D02*
D03*
X92304Y142547D02*
D03*
X87504Y146786D02*
D03*
X81704D02*
D03*
X76204D02*
D03*
X70768D02*
D03*
X64904D02*
D03*
X76204Y132786D02*
D03*
X81704Y133086D02*
D03*
X87837D02*
D03*
Y137486D02*
D03*
X81704D02*
D03*
X76204D02*
D03*
X70768Y132886D02*
D03*
Y137686D02*
D03*
X92304Y137486D02*
D03*
Y133086D02*
D03*
X87504Y128486D02*
D03*
X81704Y127386D02*
D03*
X76204Y127486D02*
D03*
X70768D02*
D03*
X64904D02*
D03*
Y132886D02*
D03*
Y137686D02*
D03*
Y142886D02*
D03*
X97204Y137486D02*
D03*
X85978Y151586D02*
D03*
X87837Y142686D02*
D03*
X81704D02*
D03*
X76204D02*
D03*
X70768D02*
D03*
X54104Y119586D02*
D03*
X11454Y127406D02*
D03*
X12604Y132403D02*
D03*
X89504Y153886D02*
D03*
X14004Y174586D02*
D03*
X35011Y107186D02*
D03*
X126914Y8014D02*
D03*
X127214Y21686D02*
D03*
X49375Y263749D02*
D03*
X72904Y259686D02*
D03*
X130138Y263946D02*
D03*
X167938Y263086D02*
D03*
X54804Y86386D02*
D03*
X113708Y12840D02*
D03*
X49402Y35028D02*
D03*
X105418Y35946D02*
D03*
X84073Y39586D02*
D03*
X73404Y37586D02*
D03*
X124404Y43586D02*
D03*
X115404Y69886D02*
D03*
X102104Y22586D02*
D03*
X24204Y35811D02*
D03*
X184404Y210186D02*
D03*
X193704D02*
D03*
X105804Y200586D02*
D03*
X127704Y197386D02*
D03*
X16704Y123086D02*
D03*
X38104Y156686D02*
D03*
X112785Y258686D02*
D03*
X87104Y263946D02*
D03*
X236619Y263686D02*
D03*
X48804Y56545D02*
D03*
X269404Y52586D02*
D03*
X265773Y94156D02*
D03*
X295904Y94986D02*
D03*
X86289Y22586D02*
D03*
X78343Y108686D02*
D03*
X270904Y258686D02*
D03*
X191904Y257686D02*
D03*
X152904Y258686D02*
D03*
X248138Y264206D02*
D03*
X208138Y263946D02*
D03*
X28052Y72686D02*
D03*
X17204Y251386D02*
D03*
X35704Y56645D02*
D03*
X13904Y41278D02*
D03*
X262706Y199112D02*
D03*
X201106Y198912D02*
D03*
X14131Y112012D02*
D03*
X94931Y108686D02*
D03*
X98081Y88012D02*
D03*
X24804Y57842D02*
D03*
X67629Y51836D02*
D03*
X114008Y26618D02*
D03*
X309960Y20217D02*
D03*
M02*
