G04*
G04 #@! TF.GenerationSoftware,Altium Limited,Altium Designer,21.4.1 (30)*
G04*
G04 Layer_Color=128*
%FSLAX25Y25*%
%MOIN*%
G70*
G04*
G04 #@! TF.SameCoordinates,D9FEFEF5-AAB3-451E-8F25-013EF5C99318*
G04*
G04*
G04 #@! TF.FilePolarity,Positive*
G04*
G01*
G75*
%ADD13C,0.00600*%
D13*
X162100Y56200D02*
Y121300D01*
X162000Y56100D02*
X162100Y56200D01*
X34150Y153969D02*
X37181Y157000D01*
X37300D01*
X15900Y123400D02*
X34150Y141650D01*
Y153969D01*
X215146Y40205D02*
X229405D01*
X249400Y60200D01*
Y142914D02*
X249986Y143500D01*
X294276D01*
X249400Y60200D02*
Y142914D01*
X294276Y143500D02*
X312809Y162033D01*
X189921Y29299D02*
X202999D01*
X214879Y39937D02*
X215146Y40205D01*
X213637Y39937D02*
X214879D01*
X202999Y29299D02*
X213637Y39937D01*
X169181Y9688D02*
X169449Y9956D01*
X172402Y7100D02*
X172498D01*
X169449Y9956D02*
X169546D01*
X175382Y9184D02*
X175650Y9452D01*
X178630Y7366D02*
X178898Y7098D01*
X179148Y7348D01*
Y10051D02*
X179399Y10302D01*
X188091Y6924D02*
Y7302D01*
X234068Y10272D02*
X234300Y10040D01*
X26461Y115000D02*
X33961Y107500D01*
X34207D01*
X156888Y49812D02*
X156900Y49800D01*
X156876Y127555D02*
X156888Y127543D01*
Y49812D02*
Y127543D01*
X150900Y50700D02*
Y51079D01*
X154350Y119850D02*
X154400Y119900D01*
X154175Y119675D02*
X154350Y119850D01*
X154000Y58300D02*
X154175Y58475D01*
Y119675D01*
X177950Y121550D02*
X178100Y121400D01*
X171500Y128000D02*
X177950Y121550D01*
X163200Y128000D02*
X171500D01*
X105000Y186200D02*
X163200Y128000D01*
X105000Y186200D02*
Y200900D01*
X190000Y89800D02*
Y126600D01*
Y89800D02*
X193500Y86300D01*
X196000Y120600D02*
X200836Y125436D01*
X196000Y95800D02*
Y120600D01*
X178100Y51500D02*
Y121400D01*
X129040Y197700D02*
X185800Y140940D01*
X126900Y197700D02*
X129040D01*
X185800Y51700D02*
Y140940D01*
M02*
