G04*
G04 #@! TF.GenerationSoftware,Altium Limited,Altium Designer,21.4.1 (30)*
G04*
G04 Layer_Color=2752767*
%FSLAX25Y25*%
%MOIN*%
G70*
G04*
G04 #@! TF.SameCoordinates,A3E2D9BC-5F1E-461B-91C0-85596CD5DA70*
G04*
G04*
G04 #@! TF.FilePolarity,Positive*
G04*
G01*
G75*
%ADD15C,0.02000*%
%ADD105C,0.00200*%
%ADD106C,0.00267*%
D15*
X-0Y-1102D02*
X2600D01*
X-0D02*
Y-0D01*
X0Y0D02*
Y320000D01*
X1102Y-1102D02*
X320000D01*
X320000Y320000D02*
X320000Y-1102D01*
X-0Y320000D02*
X320000D01*
D105*
X25000Y235500D02*
Y237100D01*
X26600D01*
Y235500D01*
X25000D01*
X72500Y68400D02*
Y70000D01*
X74100D01*
Y68400D01*
X72500D01*
X306900Y51600D02*
Y53200D01*
X308500D01*
Y51600D01*
X306900D01*
X302600Y236800D02*
Y238400D01*
X304200D01*
Y236800D01*
X302600D01*
X265039Y105200D02*
X264239Y106800D01*
X265839D01*
X265039Y105200D01*
X294961D02*
X294161Y106800D01*
X295761D01*
X294961Y105200D01*
X53028Y10200D02*
X53428Y10600D01*
X53828D01*
X53428Y11000D01*
X53828Y11400D01*
X53428D01*
X53028Y11800D01*
X52628Y11400D01*
X52228D01*
X52628Y11000D01*
X52228Y10600D01*
X52628D01*
X53028Y10200D01*
X18972D02*
X19372Y10600D01*
X19772D01*
X19372Y11000D01*
X19772Y11400D01*
X19372D01*
X18972Y11800D01*
X18572Y11400D01*
X18172D01*
X18572Y11000D01*
X18172Y10600D01*
X18572D01*
X18972Y10200D01*
X52228Y26617D02*
X52628Y27417D01*
X52228Y28217D01*
X53028Y27817D01*
X53828Y28217D01*
X53428Y27417D01*
X53828Y26617D01*
X53028Y27017D01*
X52228Y26617D01*
X18172D02*
X18572Y27417D01*
X18172Y28217D01*
X18972Y27817D01*
X19772Y28217D01*
X19372Y27417D01*
X19772Y26617D01*
X18972Y27017D01*
X18172Y26617D01*
X46978Y25088D02*
Y24688D01*
X47778D01*
Y25088D01*
X48178D01*
Y25888D01*
X47778D01*
Y26288D01*
X46978D01*
Y25888D01*
X46578D01*
Y25088D01*
X46978D01*
X24222D02*
Y24688D01*
X25022D01*
Y25088D01*
X25422D01*
Y25888D01*
X25022D01*
Y26288D01*
X24222D01*
Y25888D01*
X23822D01*
Y25088D01*
X24222D01*
X12400Y174100D02*
X12800D01*
X13200Y174500D01*
X13600Y174100D01*
X14000D01*
Y174500D01*
X13600Y174900D01*
X14000Y175300D01*
Y175700D01*
X13600D01*
X13200Y175300D01*
X12800Y175700D01*
X12400D01*
Y175300D01*
X12800Y174900D01*
X12400Y174500D01*
Y174100D01*
X33407Y106700D02*
X33807D01*
X34207Y107100D01*
X34607Y106700D01*
X35007D01*
Y107100D01*
X34607Y107500D01*
X35007Y107900D01*
Y108300D01*
X34607D01*
X34207Y107900D01*
X33807Y108300D01*
X33407D01*
Y107900D01*
X33807Y107500D01*
X33407Y107100D01*
Y106700D01*
X148900Y238600D02*
X149300D01*
X149700Y239000D01*
X150100Y238600D01*
X150500D01*
Y239000D01*
X150100Y239400D01*
X150500Y239800D01*
Y240200D01*
X150100D01*
X149700Y239800D01*
X149300Y240200D01*
X148900D01*
Y239800D01*
X149300Y239400D01*
X148900Y239000D01*
Y238600D01*
X60300Y176100D02*
X60700D01*
X61100Y176500D01*
X61500Y176100D01*
X61900D01*
Y176500D01*
X61500Y176900D01*
X61900Y177300D01*
Y177700D01*
X61500D01*
X61100Y177300D01*
X60700Y177700D01*
X60300D01*
Y177300D01*
X60700Y176900D01*
X60300Y176500D01*
Y176100D01*
Y166900D02*
X60700D01*
X61100Y167300D01*
X61500Y166900D01*
X61900D01*
Y167300D01*
X61500Y167700D01*
X61900Y168100D01*
Y168500D01*
X61500D01*
X61100Y168100D01*
X60700Y168500D01*
X60300D01*
Y168100D01*
X60700Y167700D01*
X60300Y167300D01*
Y166900D01*
Y157400D02*
X60700D01*
X61100Y157800D01*
X61500Y157400D01*
X61900D01*
Y157800D01*
X61500Y158200D01*
X61900Y158600D01*
Y159000D01*
X61500D01*
X61100Y158600D01*
X60700Y159000D01*
X60300D01*
Y158600D01*
X60700Y158200D01*
X60300Y157800D01*
Y157400D01*
X97500Y176100D02*
X97900D01*
X98300Y176500D01*
X98700Y176100D01*
X99100D01*
Y176500D01*
X98700Y176900D01*
X99100Y177300D01*
Y177700D01*
X98700D01*
X98300Y177300D01*
X97900Y177700D01*
X97500D01*
Y177300D01*
X97900Y176900D01*
X97500Y176500D01*
Y176100D01*
X85300D02*
X85700D01*
X86100Y176500D01*
X86500Y176100D01*
X86900D01*
Y176500D01*
X86500Y176900D01*
X86900Y177300D01*
Y177700D01*
X86500D01*
X86100Y177300D01*
X85700Y177700D01*
X85300D01*
Y177300D01*
X85700Y176900D01*
X85300Y176500D01*
Y176100D01*
X85100Y166900D02*
X85500D01*
X85900Y167300D01*
X86300Y166900D01*
X86700D01*
Y167300D01*
X86300Y167700D01*
X86700Y168100D01*
Y168500D01*
X86300D01*
X85900Y168100D01*
X85500Y168500D01*
X85100D01*
Y168100D01*
X85500Y167700D01*
X85100Y167300D01*
Y166900D01*
X97500D02*
X97900D01*
X98300Y167300D01*
X98700Y166900D01*
X99100D01*
Y167300D01*
X98700Y167700D01*
X99100Y168100D01*
Y168500D01*
X98700D01*
X98300Y168100D01*
X97900Y168500D01*
X97500D01*
Y168100D01*
X97900Y167700D01*
X97500Y167300D01*
Y166900D01*
X96500Y157300D02*
X96900D01*
X97300Y157700D01*
X97700Y157300D01*
X98100D01*
Y157700D01*
X97700Y158100D01*
X98100Y158500D01*
Y158900D01*
X97700D01*
X97300Y158500D01*
X96900Y158900D01*
X96500D01*
Y158500D01*
X96900Y158100D01*
X96500Y157700D01*
Y157300D01*
X85100Y157600D02*
X85500D01*
X85900Y158000D01*
X86300Y157600D01*
X86700D01*
Y158000D01*
X86300Y158400D01*
X86700Y158800D01*
Y159200D01*
X86300D01*
X85900Y158800D01*
X85500Y159200D01*
X85100D01*
Y158800D01*
X85500Y158400D01*
X85100Y158000D01*
Y157600D01*
X72800Y157900D02*
X73200D01*
X73600Y158300D01*
X74000Y157900D01*
X74400D01*
Y158300D01*
X74000Y158700D01*
X74400Y159100D01*
Y159500D01*
X74000D01*
X73600Y159100D01*
X73200Y159500D01*
X72800D01*
Y159100D01*
X73200Y158700D01*
X72800Y158300D01*
Y157900D01*
X73300Y166900D02*
X73700D01*
X74100Y167300D01*
X74500Y166900D01*
X74900D01*
Y167300D01*
X74500Y167700D01*
X74900Y168100D01*
Y168500D01*
X74500D01*
X74100Y168100D01*
X73700Y168500D01*
X73300D01*
Y168100D01*
X73700Y167700D01*
X73300Y167300D01*
Y166900D01*
Y176100D02*
X73700D01*
X74100Y176500D01*
X74500Y176100D01*
X74900D01*
Y176500D01*
X74500Y176900D01*
X74900Y177300D01*
Y177700D01*
X74500D01*
X74100Y177300D01*
X73700Y177700D01*
X73300D01*
Y177300D01*
X73700Y176900D01*
X73300Y176500D01*
Y176100D01*
X125310Y7528D02*
X125710D01*
X126110Y7928D01*
X126510Y7528D01*
X126910D01*
Y7928D01*
X126510Y8328D01*
X126910Y8728D01*
Y9128D01*
X126510D01*
X126110Y8728D01*
X125710Y9128D01*
X125310D01*
Y8728D01*
X125710Y8328D01*
X125310Y7928D01*
Y7528D01*
X125610Y21200D02*
X126010D01*
X126410Y21600D01*
X126810Y21200D01*
X127210D01*
Y21600D01*
X126810Y22000D01*
X127210Y22400D01*
Y22800D01*
X126810D01*
X126410Y22400D01*
X126010Y22800D01*
X125610D01*
Y22400D01*
X126010Y22000D01*
X125610Y21600D01*
Y21200D01*
X159300Y35900D02*
X159700D01*
X160100Y36300D01*
X160500Y35900D01*
X160900D01*
Y36300D01*
X160500Y36700D01*
X160900Y37100D01*
Y37500D01*
X160500D01*
X160100Y37100D01*
X159700Y37500D01*
X159300D01*
Y37100D01*
X159700Y36700D01*
X159300Y36300D01*
Y35900D01*
X152901Y7450D02*
X153301D01*
X153701Y7850D01*
X154101Y7450D01*
X154501D01*
Y7850D01*
X154101Y8250D01*
X154501Y8650D01*
Y9050D01*
X154101D01*
X153701Y8650D01*
X153301Y9050D01*
X152901D01*
Y8650D01*
X153301Y8250D01*
X152901Y7850D01*
Y7450D01*
X310800Y291700D02*
X311200D01*
X311600Y292100D01*
X312000Y291700D01*
X312400D01*
Y292100D01*
X312000Y292500D01*
X312400Y292900D01*
Y293300D01*
X312000D01*
X311600Y292900D01*
X311200Y293300D01*
X310800D01*
Y292900D01*
X311200Y292500D01*
X310800Y292100D01*
Y291700D01*
X156053Y8098D02*
X156453D01*
X156853Y8498D01*
X157253Y8098D01*
X157653D01*
Y8498D01*
X157253Y8898D01*
X157653Y9298D01*
Y9698D01*
X157253D01*
X156853Y9298D01*
X156453Y9698D01*
X156053D01*
Y9298D01*
X156453Y8898D01*
X156053Y8498D01*
Y8098D01*
X162352Y8950D02*
X162752D01*
X163152Y9350D01*
X163552Y8950D01*
X163952D01*
Y9350D01*
X163552Y9750D01*
X163952Y10150D01*
Y10550D01*
X163552D01*
X163152Y10150D01*
X162752Y10550D01*
X162352D01*
Y10150D01*
X162752Y9750D01*
X162352Y9350D01*
Y8950D01*
X159102Y9681D02*
X159502D01*
X159902Y10081D01*
X160302Y9681D01*
X160702D01*
Y10081D01*
X160302Y10481D01*
X160702Y10881D01*
Y11281D01*
X160302D01*
X159902Y10881D01*
X159502Y11281D01*
X159102D01*
Y10881D01*
X159502Y10481D01*
X159102Y10081D01*
Y9681D01*
X159200Y6598D02*
X159600D01*
X160000Y6998D01*
X160400Y6598D01*
X160800D01*
Y6998D01*
X160400Y7398D01*
X160800Y7798D01*
Y8198D01*
X160400D01*
X160000Y7798D01*
X159600Y8198D01*
X159200D01*
Y7798D01*
X159600Y7398D01*
X159200Y6998D01*
Y6598D01*
X165499D02*
X165899D01*
X166299Y6998D01*
X166699Y6598D01*
X167099D01*
Y6998D01*
X166699Y7398D01*
X167099Y7798D01*
Y8198D01*
X166699D01*
X166299Y7798D01*
X165899Y8198D01*
X165499D01*
Y7798D01*
X165899Y7398D01*
X165499Y6998D01*
Y6598D01*
X149751Y8888D02*
X150151D01*
X150551Y9288D01*
X150951Y8888D01*
X151351D01*
Y9288D01*
X150951Y9688D01*
X151351Y10088D01*
Y10488D01*
X150951D01*
X150551Y10088D01*
X150151Y10488D01*
X149751D01*
Y10088D01*
X150151Y9688D01*
X149751Y9288D01*
Y8888D01*
X272300Y291577D02*
X272700D01*
X273100Y291976D01*
X273500Y291577D01*
X273900D01*
Y291976D01*
X273500Y292376D01*
X273900Y292776D01*
Y293177D01*
X273500D01*
X273100Y292776D01*
X272700Y293177D01*
X272300D01*
Y292776D01*
X272700Y292376D01*
X272300Y291976D01*
Y291577D01*
X210050Y90000D02*
X210450D01*
X210850Y90400D01*
X211250Y90000D01*
X211650D01*
Y90400D01*
X211250Y90800D01*
X211650Y91200D01*
Y91600D01*
X211250D01*
X210850Y91200D01*
X210450Y91600D01*
X210050D01*
Y91200D01*
X210450Y90800D01*
X210050Y90400D01*
Y90000D01*
X216350Y98165D02*
X216750D01*
X217150Y98565D01*
X217550Y98165D01*
X217950D01*
Y98565D01*
X217550Y98965D01*
X217950Y99365D01*
Y99765D01*
X217550D01*
X217150Y99365D01*
X216750Y99765D01*
X216350D01*
Y99365D01*
X216750Y98965D01*
X216350Y98565D01*
Y98165D01*
X193137Y12751D02*
X193537D01*
X193937Y13151D01*
X194337Y12751D01*
X194737D01*
Y13151D01*
X194337Y13551D01*
X194737Y13951D01*
Y14351D01*
X194337D01*
X193937Y13951D01*
X193537Y14351D01*
X193137D01*
Y13951D01*
X193537Y13551D01*
X193137Y13151D01*
Y12751D01*
X47772Y263263D02*
X48172D01*
X48572Y263663D01*
X48972Y263263D01*
X49372D01*
Y263663D01*
X48972Y264063D01*
X49372Y264463D01*
Y264863D01*
X48972D01*
X48572Y264463D01*
X48172Y264863D01*
X47772D01*
Y264463D01*
X48172Y264063D01*
X47772Y263663D01*
Y263263D01*
X71300Y259200D02*
X71700D01*
X72100Y259600D01*
X72500Y259200D01*
X72900D01*
Y259600D01*
X72500Y260000D01*
X72900Y260400D01*
Y260800D01*
X72500D01*
X72100Y260400D01*
X71700Y260800D01*
X71300D01*
Y260400D01*
X71700Y260000D01*
X71300Y259600D01*
Y259200D01*
X128535Y263460D02*
X128935D01*
X129335Y263860D01*
X129735Y263460D01*
X130135D01*
Y263860D01*
X129735Y264260D01*
X130135Y264660D01*
Y265060D01*
X129735D01*
X129335Y264660D01*
X128935Y265060D01*
X128535D01*
Y264660D01*
X128935Y264260D01*
X128535Y263860D01*
Y263460D01*
X166335Y262600D02*
X166735D01*
X167135Y263000D01*
X167535Y262600D01*
X167935D01*
Y263000D01*
X167535Y263400D01*
X167935Y263800D01*
Y264200D01*
X167535D01*
X167135Y263800D01*
X166735Y264200D01*
X166335D01*
Y263800D01*
X166735Y263400D01*
X166335Y263000D01*
Y262600D01*
X53200Y85900D02*
X53600D01*
X54000Y86300D01*
X54400Y85900D01*
X54800D01*
Y86300D01*
X54400Y86700D01*
X54800Y87100D01*
Y87500D01*
X54400D01*
X54000Y87100D01*
X53600Y87500D01*
X53200D01*
Y87100D01*
X53600Y86700D01*
X53200Y86300D01*
Y85900D01*
X112105Y12354D02*
X112505D01*
X112905Y12754D01*
X113305Y12354D01*
X113705D01*
Y12754D01*
X113305Y13154D01*
X113705Y13554D01*
Y13954D01*
X113305D01*
X112905Y13554D01*
X112505Y13954D01*
X112105D01*
Y13554D01*
X112505Y13154D01*
X112105Y12754D01*
Y12354D01*
X129279Y29976D02*
X129679D01*
X130079Y30376D01*
X130479Y29976D01*
X130879D01*
Y30376D01*
X130479Y30776D01*
X130879Y31176D01*
Y31576D01*
X130479D01*
X130079Y31176D01*
X129679Y31576D01*
X129279D01*
Y31176D01*
X129679Y30776D01*
X129279Y30376D01*
Y29976D01*
Y35460D02*
X129679D01*
X130079Y35860D01*
X130479Y35460D01*
X130879D01*
Y35860D01*
X130479Y36260D01*
X130879Y36660D01*
Y37060D01*
X130479D01*
X130079Y36660D01*
X129679Y37060D01*
X129279D01*
Y36660D01*
X129679Y36260D01*
X129279Y35860D01*
Y35460D01*
X131000Y2909D02*
X131400D01*
X131800Y3309D01*
X132200Y2909D01*
X132600D01*
Y3309D01*
X132200Y3709D01*
X132600Y4109D01*
Y4509D01*
X132200D01*
X131800Y4109D01*
X131400Y4509D01*
X131000D01*
Y4109D01*
X131400Y3709D01*
X131000Y3309D01*
Y2909D01*
X187291Y2750D02*
X187691D01*
X188091Y3150D01*
X188491Y2750D01*
X188891D01*
Y3150D01*
X188491Y3550D01*
X188891Y3950D01*
Y4350D01*
X188491D01*
X188091Y3950D01*
X187691Y4350D01*
X187291D01*
Y3950D01*
X187691Y3550D01*
X187291Y3150D01*
Y2750D01*
X187670Y41761D02*
X188070D01*
X188470Y42161D01*
X188870Y41761D01*
X189270D01*
Y42161D01*
X188870Y42561D01*
X189270Y42961D01*
Y43361D01*
X188870D01*
X188470Y42961D01*
X188070Y43361D01*
X187670D01*
Y42961D01*
X188070Y42561D01*
X187670Y42161D01*
Y41761D01*
X34200Y42688D02*
X34600D01*
X35000Y43088D01*
X35400Y42688D01*
X35800D01*
Y43088D01*
X35400Y43488D01*
X35800Y43888D01*
Y44288D01*
X35400D01*
X35000Y43888D01*
X34600Y44288D01*
X34200D01*
Y43888D01*
X34600Y43488D01*
X34200Y43088D01*
Y42688D01*
X47200D02*
X47600D01*
X48000Y43088D01*
X48400Y42688D01*
X48800D01*
Y43088D01*
X48400Y43488D01*
X48800Y43888D01*
Y44288D01*
X48400D01*
X48000Y43888D01*
X47600Y44288D01*
X47200D01*
Y43888D01*
X47600Y43488D01*
X47200Y43088D01*
Y42688D01*
X47798Y34542D02*
X48198D01*
X48598Y34942D01*
X48998Y34542D01*
X49398D01*
Y34942D01*
X48998Y35342D01*
X49398Y35742D01*
Y36142D01*
X48998D01*
X48598Y35742D01*
X48198Y36142D01*
X47798D01*
Y35742D01*
X48198Y35342D01*
X47798Y34942D01*
Y34542D01*
X103814Y35460D02*
X104214D01*
X104614Y35860D01*
X105014Y35460D01*
X105414D01*
Y35860D01*
X105014Y36260D01*
X105414Y36660D01*
Y37060D01*
X105014D01*
X104614Y36660D01*
X104214Y37060D01*
X103814D01*
Y36660D01*
X104214Y36260D01*
X103814Y35860D01*
Y35460D01*
X80200Y33100D02*
X80600D01*
X81000Y33500D01*
X81400Y33100D01*
X81800D01*
Y33500D01*
X81400Y33900D01*
X81800Y34300D01*
Y34700D01*
X81400D01*
X81000Y34300D01*
X80600Y34700D01*
X80200D01*
Y34300D01*
X80600Y33900D01*
X80200Y33500D01*
Y33100D01*
X82469Y39100D02*
X82869D01*
X83269Y39500D01*
X83669Y39100D01*
X84069D01*
Y39500D01*
X83669Y39900D01*
X84069Y40300D01*
Y40700D01*
X83669D01*
X83269Y40300D01*
X82869Y40700D01*
X82469D01*
Y40300D01*
X82869Y39900D01*
X82469Y39500D01*
Y39100D01*
X72391Y40167D02*
X72791D01*
X73191Y40567D01*
X73591Y40167D01*
X73991D01*
Y40567D01*
X73591Y40967D01*
X73991Y41367D01*
Y41767D01*
X73591D01*
X73191Y41367D01*
X72791Y41767D01*
X72391D01*
Y41367D01*
X72791Y40967D01*
X72391Y40567D01*
Y40167D01*
X122800Y43100D02*
X123200D01*
X123600Y43500D01*
X124000Y43100D01*
X124400D01*
Y43500D01*
X124000Y43900D01*
X124400Y44300D01*
Y44700D01*
X124000D01*
X123600Y44300D01*
X123200Y44700D01*
X122800D01*
Y44300D01*
X123200Y43900D01*
X122800Y43500D01*
Y43100D01*
X172013Y14300D02*
X172413D01*
X172813Y14700D01*
X173213Y14300D01*
X173613D01*
Y14700D01*
X173213Y15100D01*
X173613Y15500D01*
Y15900D01*
X173213D01*
X172813Y15500D01*
X172413Y15900D01*
X172013D01*
Y15500D01*
X172413Y15100D01*
X172013Y14700D01*
Y14300D01*
X171913Y22300D02*
X172313D01*
X172713Y22700D01*
X173113Y22300D01*
X173513D01*
Y22700D01*
X173113Y23100D01*
X173513Y23500D01*
Y23900D01*
X173113D01*
X172713Y23500D01*
X172313Y23900D01*
X171913D01*
Y23500D01*
X172313Y23100D01*
X171913Y22700D01*
Y22300D01*
X113800Y69400D02*
X114200D01*
X114600Y69800D01*
X115000Y69400D01*
X115400D01*
Y69800D01*
X115000Y70200D01*
X115400Y70600D01*
Y71000D01*
X115000D01*
X114600Y70600D01*
X114200Y71000D01*
X113800D01*
Y70600D01*
X114200Y70200D01*
X113800Y69800D01*
Y69400D01*
X144100Y55800D02*
X144500D01*
X144900Y56200D01*
X145300Y55800D01*
X145700D01*
Y56200D01*
X145300Y56600D01*
X145700Y57000D01*
Y57400D01*
X145300D01*
X144900Y57000D01*
X144500Y57400D01*
X144100D01*
Y57000D01*
X144500Y56600D01*
X144100Y56200D01*
Y55800D01*
X177300Y50700D02*
X177700D01*
X178100Y51100D01*
X178500Y50700D01*
X178900D01*
Y51100D01*
X178500Y51500D01*
X178900Y51900D01*
Y52300D01*
X178500D01*
X178100Y51900D01*
X177700Y52300D01*
X177300D01*
Y51900D01*
X177700Y51500D01*
X177300Y51100D01*
Y50700D01*
X144100Y70800D02*
X144500D01*
X144900Y71200D01*
X145300Y70800D01*
X145700D01*
Y71200D01*
X145300Y71600D01*
X145700Y72000D01*
Y72400D01*
X145300D01*
X144900Y72000D01*
X144500Y72400D01*
X144100D01*
Y72000D01*
X144500Y71600D01*
X144100Y71200D01*
Y70800D01*
X161200Y55300D02*
X161600D01*
X162000Y55700D01*
X162400Y55300D01*
X162800D01*
Y55700D01*
X162400Y56100D01*
X162800Y56500D01*
Y56900D01*
X162400D01*
X162000Y56500D01*
X161600Y56900D01*
X161200D01*
Y56500D01*
X161600Y56100D01*
X161200Y55700D01*
Y55300D01*
X141200Y49500D02*
X141600D01*
X142000Y49900D01*
X142400Y49500D01*
X142800D01*
Y49900D01*
X142400Y50300D01*
X142800Y50700D01*
Y51100D01*
X142400D01*
X142000Y50700D01*
X141600Y51100D01*
X141200D01*
Y50700D01*
X141600Y50300D01*
X141200Y49900D01*
Y49500D01*
X185000Y50900D02*
X185400D01*
X185800Y51300D01*
X186200Y50900D01*
X186600D01*
Y51300D01*
X186200Y51700D01*
X186600Y52100D01*
Y52500D01*
X186200D01*
X185800Y52100D01*
X185400Y52500D01*
X185000D01*
Y52100D01*
X185400Y51700D01*
X185000Y51300D01*
Y50900D01*
X156100Y49000D02*
X156500D01*
X156900Y49400D01*
X157300Y49000D01*
X157700D01*
Y49400D01*
X157300Y49800D01*
X157700Y50200D01*
Y50600D01*
X157300D01*
X156900Y50200D01*
X156500Y50600D01*
X156100D01*
Y50200D01*
X156500Y49800D01*
X156100Y49400D01*
Y49000D01*
X167900Y47000D02*
X168300D01*
X168700Y47400D01*
X169100Y47000D01*
X169500D01*
Y47400D01*
X169100Y47800D01*
X169500Y48200D01*
Y48600D01*
X169100D01*
X168700Y48200D01*
X168300Y48600D01*
X167900D01*
Y48200D01*
X168300Y47800D01*
X167900Y47400D01*
Y47000D01*
X153200Y57500D02*
X153600D01*
X154000Y57900D01*
X154400Y57500D01*
X154800D01*
Y57900D01*
X154400Y58300D01*
X154800Y58700D01*
Y59100D01*
X154400D01*
X154000Y58700D01*
X153600Y59100D01*
X153200D01*
Y58700D01*
X153600Y58300D01*
X153200Y57900D01*
Y57500D01*
X150100Y49900D02*
X150500D01*
X150900Y50300D01*
X151300Y49900D01*
X151700D01*
Y50300D01*
X151300Y50700D01*
X151700Y51100D01*
Y51500D01*
X151300D01*
X150900Y51100D01*
X150500Y51500D01*
X150100D01*
Y51100D01*
X150500Y50700D01*
X150100Y50300D01*
Y49900D01*
X189121Y28499D02*
X189521D01*
X189921Y28899D01*
X190321Y28499D01*
X190721D01*
Y28899D01*
X190321Y29299D01*
X190721Y29699D01*
Y30099D01*
X190321D01*
X189921Y29699D01*
X189521Y30099D01*
X189121D01*
Y29699D01*
X189521Y29299D01*
X189121Y28899D01*
Y28499D01*
X187772Y22150D02*
X188172D01*
X188572Y22550D01*
X188972Y22150D01*
X189372D01*
Y22550D01*
X188972Y22950D01*
X189372Y23350D01*
Y23750D01*
X188972D01*
X188572Y23350D01*
X188172Y23750D01*
X187772D01*
Y23350D01*
X188172Y22950D01*
X187772Y22550D01*
Y22150D01*
X213535Y20050D02*
X213935D01*
X214335Y20450D01*
X214735Y20050D01*
X215135D01*
Y20450D01*
X214735Y20850D01*
X215135Y21250D01*
Y21650D01*
X214735D01*
X214335Y21250D01*
X213935Y21650D01*
X213535D01*
Y21250D01*
X213935Y20850D01*
X213535Y20450D01*
Y20050D01*
X193137Y19050D02*
X193537D01*
X193937Y19450D01*
X194337Y19050D01*
X194737D01*
Y19450D01*
X194337Y19850D01*
X194737Y20250D01*
Y20650D01*
X194337D01*
X193937Y20250D01*
X193537Y20650D01*
X193137D01*
Y20250D01*
X193537Y19850D01*
X193137Y19450D01*
Y19050D01*
X232535Y15062D02*
X232935D01*
X233335Y15462D01*
X233735Y15062D01*
X234135D01*
Y15462D01*
X233735Y15862D01*
X234135Y16262D01*
Y16662D01*
X233735D01*
X233335Y16262D01*
X232935Y16662D01*
X232535D01*
Y16262D01*
X232935Y15862D01*
X232535Y15462D01*
Y15062D01*
X202535Y8995D02*
X202935D01*
X203335Y9395D01*
X203735Y8995D01*
X204135D01*
Y9395D01*
X203735Y9795D01*
X204135Y10195D01*
Y10595D01*
X203735D01*
X203335Y10195D01*
X202935Y10595D01*
X202535D01*
Y10195D01*
X202935Y9795D01*
X202535Y9395D01*
Y8995D01*
X213535Y7200D02*
X213935D01*
X214335Y7600D01*
X214735Y7200D01*
X215135D01*
Y7600D01*
X214735Y8000D01*
X215135Y8400D01*
Y8800D01*
X214735D01*
X214335Y8400D01*
X213935Y8800D01*
X213535D01*
Y8400D01*
X213935Y8000D01*
X213535Y7600D01*
Y7200D01*
X100500Y22100D02*
X100900D01*
X101300Y22500D01*
X101700Y22100D01*
X102100D01*
Y22500D01*
X101700Y22900D01*
X102100Y23300D01*
Y23700D01*
X101700D01*
X101300Y23300D01*
X100900Y23700D01*
X100500D01*
Y23300D01*
X100900Y22900D01*
X100500Y22500D01*
Y22100D01*
X22600Y35325D02*
X23000D01*
X23400Y35725D01*
X23800Y35325D01*
X24200D01*
Y35725D01*
X23800Y36125D01*
X24200Y36525D01*
Y36925D01*
X23800D01*
X23400Y36525D01*
X23000Y36925D01*
X22600D01*
Y36525D01*
X23000Y36125D01*
X22600Y35725D01*
Y35325D01*
X182800Y209700D02*
X183200D01*
X183600Y210100D01*
X184000Y209700D01*
X184400D01*
Y210100D01*
X184000Y210500D01*
X184400Y210900D01*
Y211300D01*
X184000D01*
X183600Y210900D01*
X183200Y211300D01*
X182800D01*
Y210900D01*
X183200Y210500D01*
X182800Y210100D01*
Y209700D01*
X192100D02*
X192500D01*
X192900Y210100D01*
X193300Y209700D01*
X193700D01*
Y210100D01*
X193300Y210500D01*
X193700Y210900D01*
Y211300D01*
X193300D01*
X192900Y210900D01*
X192500Y211300D01*
X192100D01*
Y210900D01*
X192500Y210500D01*
X192100Y210100D01*
Y209700D01*
X166200Y230800D02*
X166600D01*
X167000Y231200D01*
X167400Y230800D01*
X167800D01*
Y231200D01*
X167400Y231600D01*
X167800Y232000D01*
Y232400D01*
X167400D01*
X167000Y232000D01*
X166600Y232400D01*
X166200D01*
Y232000D01*
X166600Y231600D01*
X166200Y231200D01*
Y230800D01*
X156076Y126755D02*
X156476D01*
X156876Y127155D01*
X157276Y126755D01*
X157676D01*
Y127155D01*
X157276Y127555D01*
X157676Y127955D01*
Y128355D01*
X157276D01*
X156876Y127955D01*
X156476Y128355D01*
X156076D01*
Y127955D01*
X156476Y127555D01*
X156076Y127155D01*
Y126755D01*
X200036Y124636D02*
X200436D01*
X200836Y125036D01*
X201236Y124636D01*
X201636D01*
Y125036D01*
X201236Y125436D01*
X201636Y125836D01*
Y126236D01*
X201236D01*
X200836Y125836D01*
X200436Y126236D01*
X200036D01*
Y125836D01*
X200436Y125436D01*
X200036Y125036D01*
Y124636D01*
X189200Y125800D02*
X189600D01*
X190000Y126200D01*
X190400Y125800D01*
X190800D01*
Y126200D01*
X190400Y126600D01*
X190800Y127000D01*
Y127400D01*
X190400D01*
X190000Y127000D01*
X189600Y127400D01*
X189200D01*
Y127000D01*
X189600Y126600D01*
X189200Y126200D01*
Y125800D01*
X195200Y95000D02*
X195600D01*
X196000Y95400D01*
X196400Y95000D01*
X196800D01*
Y95400D01*
X196400Y95800D01*
X196800Y96200D01*
Y96600D01*
X196400D01*
X196000Y96200D01*
X195600Y96600D01*
X195200D01*
Y96200D01*
X195600Y95800D01*
X195200Y95400D01*
Y95000D01*
X154500Y145000D02*
X154900D01*
X155300Y145400D01*
X155700Y145000D01*
X156100D01*
Y145400D01*
X155700Y145800D01*
X156100Y146200D01*
Y146600D01*
X155700D01*
X155300Y146200D01*
X154900Y146600D01*
X154500D01*
Y146200D01*
X154900Y145800D01*
X154500Y145400D01*
Y145000D01*
X177150Y120750D02*
X177550D01*
X177950Y121150D01*
X178350Y120750D01*
X178750D01*
Y121150D01*
X178350Y121550D01*
X178750Y121950D01*
Y122350D01*
X178350D01*
X177950Y121950D01*
X177550Y122350D01*
X177150D01*
Y121950D01*
X177550Y121550D01*
X177150Y121150D01*
Y120750D01*
X161300Y120500D02*
X161700D01*
X162100Y120900D01*
X162500Y120500D01*
X162900D01*
Y120900D01*
X162500Y121300D01*
X162900Y121700D01*
Y122100D01*
X162500D01*
X162100Y121700D01*
X161700Y122100D01*
X161300D01*
Y121700D01*
X161700Y121300D01*
X161300Y120900D01*
Y120500D01*
X153550Y119050D02*
X153950D01*
X154350Y119450D01*
X154750Y119050D01*
X155150D01*
Y119450D01*
X154750Y119850D01*
X155150Y120250D01*
Y120650D01*
X154750D01*
X154350Y120250D01*
X153950Y120650D01*
X153550D01*
Y120250D01*
X153950Y119850D01*
X153550Y119450D01*
Y119050D01*
X148400Y110500D02*
X148800D01*
X149200Y110900D01*
X149600Y110500D01*
X150000D01*
Y110900D01*
X149600Y111300D01*
X150000Y111700D01*
Y112100D01*
X149600D01*
X149200Y111700D01*
X148800Y112100D01*
X148400D01*
Y111700D01*
X148800Y111300D01*
X148400Y110900D01*
Y110500D01*
X192700Y85500D02*
X193100D01*
X193500Y85900D01*
X193900Y85500D01*
X194300D01*
Y85900D01*
X193900Y86300D01*
X194300Y86700D01*
Y87100D01*
X193900D01*
X193500Y86700D01*
X193100Y87100D01*
X192700D01*
Y86700D01*
X193100Y86300D01*
X192700Y85900D01*
Y85500D01*
X104200Y200100D02*
X104600D01*
X105000Y200500D01*
X105400Y200100D01*
X105800D01*
Y200500D01*
X105400Y200900D01*
X105800Y201300D01*
Y201700D01*
X105400D01*
X105000Y201300D01*
X104600Y201700D01*
X104200D01*
Y201300D01*
X104600Y200900D01*
X104200Y200500D01*
Y200100D01*
X126100Y196900D02*
X126500D01*
X126900Y197300D01*
X127300Y196900D01*
X127700D01*
Y197300D01*
X127300Y197700D01*
X127700Y198100D01*
Y198500D01*
X127300D01*
X126900Y198100D01*
X126500Y198500D01*
X126100D01*
Y198100D01*
X126500Y197700D01*
X126100Y197300D01*
Y196900D01*
X15100Y122600D02*
X15500D01*
X15900Y123000D01*
X16300Y122600D01*
X16700D01*
Y123000D01*
X16300Y123400D01*
X16700Y123800D01*
Y124200D01*
X16300D01*
X15900Y123800D01*
X15500Y124200D01*
X15100D01*
Y123800D01*
X15500Y123400D01*
X15100Y123000D01*
Y122600D01*
X36500Y156200D02*
X36900D01*
X37300Y156600D01*
X37700Y156200D01*
X38100D01*
Y156600D01*
X37700Y157000D01*
X38100Y157400D01*
Y157800D01*
X37700D01*
X37300Y157400D01*
X36900Y157800D01*
X36500D01*
Y157400D01*
X36900Y157000D01*
X36500Y156600D01*
Y156200D01*
X79281Y208216D02*
X79681D01*
X80081Y208616D01*
X80481Y208216D01*
X80881D01*
Y208616D01*
X80481Y209016D01*
X80881Y209416D01*
Y209816D01*
X80481D01*
X80081Y209416D01*
X79681Y209816D01*
X79281D01*
Y209416D01*
X79681Y209016D01*
X79281Y208616D01*
Y208216D01*
X111182Y258200D02*
X111582D01*
X111982Y258600D01*
X112382Y258200D01*
X112782D01*
Y258600D01*
X112382Y259000D01*
X112782Y259400D01*
Y259800D01*
X112382D01*
X111982Y259400D01*
X111582Y259800D01*
X111182D01*
Y259400D01*
X111582Y259000D01*
X111182Y258600D01*
Y258200D01*
X85500Y263460D02*
X85900D01*
X86300Y263860D01*
X86700Y263460D01*
X87100D01*
Y263860D01*
X86700Y264260D01*
X87100Y264660D01*
Y265060D01*
X86700D01*
X86300Y264660D01*
X85900Y265060D01*
X85500D01*
Y264660D01*
X85900Y264260D01*
X85500Y263860D01*
Y263460D01*
X235015Y263200D02*
X235415D01*
X235815Y263600D01*
X236215Y263200D01*
X236615D01*
Y263600D01*
X236215Y264000D01*
X236615Y264400D01*
Y264800D01*
X236215D01*
X235815Y264400D01*
X235415Y264800D01*
X235015D01*
Y264400D01*
X235415Y264000D01*
X235015Y263600D01*
Y263200D01*
X47200Y56059D02*
X47600D01*
X48000Y56459D01*
X48400Y56059D01*
X48800D01*
Y56459D01*
X48400Y56859D01*
X48800Y57259D01*
Y57659D01*
X48400D01*
X48000Y57259D01*
X47600Y57659D01*
X47200D01*
Y57259D01*
X47600Y56859D01*
X47200Y56459D01*
Y56059D01*
X312009Y161233D02*
X312409D01*
X312809Y161633D01*
X313209Y161233D01*
X313609D01*
Y161633D01*
X313209Y162033D01*
X313609Y162433D01*
Y162833D01*
X313209D01*
X312809Y162433D01*
X312409Y162833D01*
X312009D01*
Y162433D01*
X312409Y162033D01*
X312009Y161633D01*
Y161233D01*
X260800Y18600D02*
X261200D01*
X261600Y19000D01*
X262000Y18600D01*
X262400D01*
Y19000D01*
X262000Y19400D01*
X262400Y19800D01*
Y20200D01*
X262000D01*
X261600Y19800D01*
X261200Y20200D01*
X260800D01*
Y19800D01*
X261200Y19400D01*
X260800Y19000D01*
Y18600D01*
X267800Y52100D02*
X268200D01*
X268600Y52500D01*
X269000Y52100D01*
X269400D01*
Y52500D01*
X269000Y52900D01*
X269400Y53300D01*
Y53700D01*
X269000D01*
X268600Y53300D01*
X268200Y53700D01*
X267800D01*
Y53300D01*
X268200Y52900D01*
X267800Y52500D01*
Y52100D01*
X264170Y93670D02*
X264570D01*
X264970Y94070D01*
X265370Y93670D01*
X265770D01*
Y94070D01*
X265370Y94470D01*
X265770Y94870D01*
Y95270D01*
X265370D01*
X264970Y94870D01*
X264570Y95270D01*
X264170D01*
Y94870D01*
X264570Y94470D01*
X264170Y94070D01*
Y93670D01*
X294300Y94500D02*
X294700D01*
X295100Y94900D01*
X295500Y94500D01*
X295900D01*
Y94900D01*
X295500Y95300D01*
X295900Y95700D01*
Y96100D01*
X295500D01*
X295100Y95700D01*
X294700Y96100D01*
X294300D01*
Y95700D01*
X294700Y95300D01*
X294300Y94900D01*
Y94500D01*
X84685Y22100D02*
X85085D01*
X85485Y22500D01*
X85885Y22100D01*
X86285D01*
Y22500D01*
X85885Y22900D01*
X86285Y23300D01*
Y23700D01*
X85885D01*
X85485Y23300D01*
X85085Y23700D01*
X84685D01*
Y23300D01*
X85085Y22900D01*
X84685Y22500D01*
Y22100D01*
X76739Y108200D02*
X77139D01*
X77539Y108600D01*
X77939Y108200D01*
X78339D01*
Y108600D01*
X77939Y109000D01*
X78339Y109400D01*
Y109800D01*
X77939D01*
X77539Y109400D01*
X77139Y109800D01*
X76739D01*
Y109400D01*
X77139Y109000D01*
X76739Y108600D01*
Y108200D01*
X69543Y106700D02*
X69943D01*
X70343Y107100D01*
X70743Y106700D01*
X71143D01*
Y107100D01*
X70743Y107500D01*
X71143Y107900D01*
Y108300D01*
X70743D01*
X70343Y107900D01*
X69943Y108300D01*
X69543D01*
Y107900D01*
X69943Y107500D01*
X69543Y107100D01*
Y106700D01*
X28015Y97200D02*
X28415D01*
X28815Y97600D01*
X29215Y97200D01*
X29615D01*
Y97600D01*
X29215Y98000D01*
X29615Y98400D01*
Y98800D01*
X29215D01*
X28815Y98400D01*
X28415Y98800D01*
X28015D01*
Y98400D01*
X28415Y98000D01*
X28015Y97600D01*
Y97200D01*
X308300Y257200D02*
X308700D01*
X309100Y257600D01*
X309500Y257200D01*
X309900D01*
Y257600D01*
X309500Y258000D01*
X309900Y258400D01*
Y258800D01*
X309500D01*
X309100Y258400D01*
X308700Y258800D01*
X308300D01*
Y258400D01*
X308700Y258000D01*
X308300Y257600D01*
Y257200D01*
X269300Y258200D02*
X269700D01*
X270100Y258600D01*
X270500Y258200D01*
X270900D01*
Y258600D01*
X270500Y259000D01*
X270900Y259400D01*
Y259800D01*
X270500D01*
X270100Y259400D01*
X269700Y259800D01*
X269300D01*
Y259400D01*
X269700Y259000D01*
X269300Y258600D01*
Y258200D01*
X190300Y257200D02*
X190700D01*
X191100Y257600D01*
X191500Y257200D01*
X191900D01*
Y257600D01*
X191500Y258000D01*
X191900Y258400D01*
Y258800D01*
X191500D01*
X191100Y258400D01*
X190700Y258800D01*
X190300D01*
Y258400D01*
X190700Y258000D01*
X190300Y257600D01*
Y257200D01*
X151300Y258200D02*
X151700D01*
X152100Y258600D01*
X152500Y258200D01*
X152900D01*
Y258600D01*
X152500Y259000D01*
X152900Y259400D01*
Y259800D01*
X152500D01*
X152100Y259400D01*
X151700Y259800D01*
X151300D01*
Y259400D01*
X151700Y259000D01*
X151300Y258600D01*
Y258200D01*
X30300D02*
X30700D01*
X31100Y258600D01*
X31500Y258200D01*
X31900D01*
Y258600D01*
X31500Y259000D01*
X31900Y259400D01*
Y259800D01*
X31500D01*
X31100Y259400D01*
X30700Y259800D01*
X30300D01*
Y259400D01*
X30700Y259000D01*
X30300Y258600D01*
Y258200D01*
X205800Y298600D02*
X206200D01*
X206600Y299000D01*
X207000Y298600D01*
X207400D01*
Y299000D01*
X207000Y299400D01*
X207400Y299800D01*
Y300200D01*
X207000D01*
X206600Y299800D01*
X206200Y300200D01*
X205800D01*
Y299800D01*
X206200Y299400D01*
X205800Y299000D01*
Y298600D01*
X192200Y291500D02*
X192600D01*
X193000Y291900D01*
X193400Y291500D01*
X193800D01*
Y291900D01*
X193400Y292300D01*
X193800Y292700D01*
Y293100D01*
X193400D01*
X193000Y292700D01*
X192600Y293100D01*
X192200D01*
Y292700D01*
X192600Y292300D01*
X192200Y291900D01*
Y291500D01*
X166500Y298700D02*
X166900D01*
X167300Y299100D01*
X167700Y298700D01*
X168100D01*
Y299100D01*
X167700Y299500D01*
X168100Y299900D01*
Y300300D01*
X167700D01*
X167300Y299900D01*
X166900Y300300D01*
X166500D01*
Y299900D01*
X166900Y299500D01*
X166500Y299100D01*
Y298700D01*
X152700Y291800D02*
X153100D01*
X153500Y292200D01*
X153900Y291800D01*
X154300D01*
Y292200D01*
X153900Y292600D01*
X154300Y293000D01*
Y293400D01*
X153900D01*
X153500Y293000D01*
X153100Y293400D01*
X152700D01*
Y293000D01*
X153100Y292600D01*
X152700Y292200D01*
Y291800D01*
X11200Y304400D02*
X11600D01*
X12000Y304800D01*
X12400Y304400D01*
X12800D01*
Y304800D01*
X12400Y305200D01*
X12800Y305600D01*
Y306000D01*
X12400D01*
X12000Y305600D01*
X11600Y306000D01*
X11200D01*
Y305600D01*
X11600Y305200D01*
X11200Y304800D01*
Y304400D01*
X32300Y291400D02*
X32700D01*
X33100Y291800D01*
X33500Y291400D01*
X33900D01*
Y291800D01*
X33500Y292200D01*
X33900Y292600D01*
Y293000D01*
X33500D01*
X33100Y292600D01*
X32700Y293000D01*
X32300D01*
Y292600D01*
X32700Y292200D01*
X32300Y291800D01*
Y291400D01*
X46145Y298743D02*
X46545D01*
X46945Y299143D01*
X47345Y298743D01*
X47745D01*
Y299143D01*
X47345Y299543D01*
X47745Y299943D01*
Y300343D01*
X47345D01*
X46945Y299943D01*
X46545Y300343D01*
X46145D01*
Y299943D01*
X46545Y299543D01*
X46145Y299143D01*
Y298743D01*
X85700Y298900D02*
X86100D01*
X86500Y299300D01*
X86900Y298900D01*
X87300D01*
Y299300D01*
X86900Y299700D01*
X87300Y300100D01*
Y300500D01*
X86900D01*
X86500Y300100D01*
X86100Y300500D01*
X85700D01*
Y300100D01*
X86100Y299700D01*
X85700Y299300D01*
Y298900D01*
X72800Y291800D02*
X73200D01*
X73600Y292200D01*
X74000Y291800D01*
X74400D01*
Y292200D01*
X74000Y292600D01*
X74400Y293000D01*
Y293400D01*
X74000D01*
X73600Y293000D01*
X73200Y293400D01*
X72800D01*
Y293000D01*
X73200Y292600D01*
X72800Y292200D01*
Y291800D01*
X125500Y298900D02*
X125900D01*
X126300Y299300D01*
X126700Y298900D01*
X127100D01*
Y299300D01*
X126700Y299700D01*
X127100Y300100D01*
Y300500D01*
X126700D01*
X126300Y300100D01*
X125900Y300500D01*
X125500D01*
Y300100D01*
X125900Y299700D01*
X125500Y299300D01*
Y298900D01*
X113200Y291800D02*
X113600D01*
X114000Y292200D01*
X114400Y291800D01*
X114800D01*
Y292200D01*
X114400Y292600D01*
X114800Y293000D01*
Y293400D01*
X114400D01*
X114000Y293000D01*
X113600Y293400D01*
X113200D01*
Y293000D01*
X113600Y292600D01*
X113200Y292200D01*
Y291800D01*
X232600Y291657D02*
X233000D01*
X233400Y292057D01*
X233800Y291657D01*
X234200D01*
Y292057D01*
X233800Y292457D01*
X234200Y292857D01*
Y293257D01*
X233800D01*
X233400Y292857D01*
X233000Y293257D01*
X232600D01*
Y292857D01*
X233000Y292457D01*
X232600Y292057D01*
Y291657D01*
X245700Y298900D02*
X246100D01*
X246500Y299300D01*
X246900Y298900D01*
X247300D01*
Y299300D01*
X246900Y299700D01*
X247300Y300100D01*
Y300500D01*
X246900D01*
X246500Y300100D01*
X246100Y300500D01*
X245700D01*
Y300100D01*
X246100Y299700D01*
X245700Y299300D01*
Y298900D01*
X284100Y298743D02*
X284500D01*
X284900Y299143D01*
X285300Y298743D01*
X285700D01*
Y299143D01*
X285300Y299543D01*
X285700Y299943D01*
Y300343D01*
X285300D01*
X284900Y299943D01*
X284500Y300343D01*
X284100D01*
Y299943D01*
X284500Y299543D01*
X284100Y299143D01*
Y298743D01*
X285535Y262460D02*
X285935D01*
X286335Y262860D01*
X286735Y262460D01*
X287135D01*
Y262860D01*
X286735Y263260D01*
X287135Y263660D01*
Y264060D01*
X286735D01*
X286335Y263660D01*
X285935Y264060D01*
X285535D01*
Y263660D01*
X285935Y263260D01*
X285535Y262860D01*
Y262460D01*
X246535Y263720D02*
X246935D01*
X247335Y264120D01*
X247735Y263720D01*
X248135D01*
Y264120D01*
X247735Y264520D01*
X248135Y264920D01*
Y265320D01*
X247735D01*
X247335Y264920D01*
X246935Y265320D01*
X246535D01*
Y264920D01*
X246935Y264520D01*
X246535Y264120D01*
Y263720D01*
X206535Y263460D02*
X206935D01*
X207335Y263860D01*
X207735Y263460D01*
X208135D01*
Y263860D01*
X207735Y264260D01*
X208135Y264660D01*
Y265060D01*
X207735D01*
X207335Y264660D01*
X206935Y265060D01*
X206535D01*
Y264660D01*
X206935Y264260D01*
X206535Y263860D01*
Y263460D01*
X259800Y25600D02*
X260200D01*
X260600Y26000D01*
X261000Y25600D01*
X261400D01*
Y26000D01*
X261000Y26400D01*
X261400Y26800D01*
Y27200D01*
X261000D01*
X260600Y26800D01*
X260200Y27200D01*
X259800D01*
Y26800D01*
X260200Y26400D01*
X259800Y26000D01*
Y25600D01*
X247200Y18114D02*
X247600D01*
X248000Y18514D01*
X248400Y18114D01*
X248800D01*
Y18514D01*
X248400Y18914D01*
X248800Y19314D01*
Y19714D01*
X248400D01*
X248000Y19314D01*
X247600Y19714D01*
X247200D01*
Y19314D01*
X247600Y18914D01*
X247200Y18514D01*
Y18114D01*
X28015Y79200D02*
X28415D01*
X28815Y79600D01*
X29215Y79200D01*
X29615D01*
Y79600D01*
X29215Y80000D01*
X29615Y80400D01*
Y80800D01*
X29215D01*
X28815Y80400D01*
X28415Y80800D01*
X28015D01*
Y80400D01*
X28415Y80000D01*
X28015Y79600D01*
Y79200D01*
X26448Y72200D02*
X26848D01*
X27248Y72600D01*
X27648Y72200D01*
X28048D01*
Y72600D01*
X27648Y73000D01*
X28048Y73400D01*
Y73800D01*
X27648D01*
X27248Y73400D01*
X26848Y73800D01*
X26448D01*
Y73400D01*
X26848Y73000D01*
X26448Y72600D01*
Y72200D01*
X36857Y91700D02*
X37257D01*
X37657Y92100D01*
X38057Y91700D01*
X38457D01*
Y92100D01*
X38057Y92500D01*
X38457Y92900D01*
Y93300D01*
X38057D01*
X37657Y92900D01*
X37257Y93300D01*
X36857D01*
Y92900D01*
X37257Y92500D01*
X36857Y92100D01*
Y91700D01*
X25661Y114200D02*
X26061D01*
X26461Y114600D01*
X26861Y114200D01*
X27261D01*
Y114600D01*
X26861Y115000D01*
X27261Y115400D01*
Y115800D01*
X26861D01*
X26461Y115400D01*
X26061Y115800D01*
X25661D01*
Y115400D01*
X26061Y115000D01*
X25661Y114600D01*
Y114200D01*
X16200Y129480D02*
X16600D01*
X17000Y129880D01*
X17400Y129480D01*
X17800D01*
Y129880D01*
X17400Y130280D01*
X17800Y130680D01*
Y131080D01*
X17400D01*
X17000Y130680D01*
X16600Y131080D01*
X16200D01*
Y130680D01*
X16600Y130280D01*
X16200Y129880D01*
Y129480D01*
X10800Y126900D02*
X11200D01*
X11600Y127300D01*
X12000Y126900D01*
X12400D01*
Y127300D01*
X12000Y127700D01*
X12400Y128100D01*
Y128500D01*
X12000D01*
X11600Y128100D01*
X11200Y128500D01*
X10800D01*
Y128100D01*
X11200Y127700D01*
X10800Y127300D01*
Y126900D01*
X24535Y147460D02*
X24935D01*
X25335Y147860D01*
X25735Y147460D01*
X26135D01*
Y147860D01*
X25735Y148260D01*
X26135Y148660D01*
Y149060D01*
X25735D01*
X25335Y148660D01*
X24935Y149060D01*
X24535D01*
Y148660D01*
X24935Y148260D01*
X24535Y147860D01*
Y147460D01*
X14937Y144535D02*
X15337D01*
X15737Y144935D01*
X16137Y144535D01*
X16537D01*
Y144935D01*
X16137Y145335D01*
X16537Y145735D01*
Y146135D01*
X16137D01*
X15737Y145735D01*
X15337Y146135D01*
X14937D01*
Y145735D01*
X15337Y145335D01*
X14937Y144935D01*
Y144535D01*
X80865Y199200D02*
X81265D01*
X81665Y199600D01*
X82065Y199200D01*
X82465D01*
Y199600D01*
X82065Y200000D01*
X82465Y200400D01*
Y200800D01*
X82065D01*
X81665Y200400D01*
X81265Y200800D01*
X80865D01*
Y200400D01*
X81265Y200000D01*
X80865Y199600D01*
Y199200D01*
X90535Y195035D02*
X90935D01*
X91335Y195435D01*
X91735Y195035D01*
X92135D01*
Y195435D01*
X91735Y195835D01*
X92135Y196235D01*
Y196635D01*
X91735D01*
X91335Y196235D01*
X90935Y196635D01*
X90535D01*
Y196235D01*
X90935Y195835D01*
X90535Y195435D01*
Y195035D01*
X89434Y212077D02*
X89834D01*
X90234Y212477D01*
X90634Y212077D01*
X91034D01*
Y212477D01*
X90634Y212877D01*
X91034Y213277D01*
Y213677D01*
X90634D01*
X90234Y213277D01*
X89834Y213677D01*
X89434D01*
Y213277D01*
X89834Y212877D01*
X89434Y212477D01*
Y212077D01*
X51995Y226281D02*
X52395D01*
X52795Y226681D01*
X53195Y226281D01*
X53595D01*
Y226681D01*
X53195Y227081D01*
X53595Y227481D01*
Y227881D01*
X53195D01*
X52795Y227481D01*
X52395Y227881D01*
X51995D01*
Y227481D01*
X52395Y227081D01*
X51995Y226681D01*
Y226281D01*
X15600Y250900D02*
X16000D01*
X16400Y251300D01*
X16800Y250900D01*
X17200D01*
Y251300D01*
X16800Y251700D01*
X17200Y252100D01*
Y252500D01*
X16800D01*
X16400Y252100D01*
X16000Y252500D01*
X15600D01*
Y252100D01*
X16000Y251700D01*
X15600Y251300D01*
Y250900D01*
X5700Y263500D02*
X6100D01*
X6500Y263900D01*
X6900Y263500D01*
X7300D01*
Y263900D01*
X6900Y264300D01*
X7300Y264700D01*
Y265100D01*
X6900D01*
X6500Y264700D01*
X6100Y265100D01*
X5700D01*
Y264700D01*
X6100Y264300D01*
X5700Y263900D01*
Y263500D01*
X34100Y56159D02*
X34500D01*
X34900Y56559D01*
X35300Y56159D01*
X35700D01*
Y56559D01*
X35300Y56959D01*
X35700Y57359D01*
Y57759D01*
X35300D01*
X34900Y57359D01*
X34500Y57759D01*
X34100D01*
Y57359D01*
X34500Y56959D01*
X34100Y56559D01*
Y56159D01*
X12300Y40792D02*
X12700D01*
X13100Y41192D01*
X13500Y40792D01*
X13900D01*
Y41192D01*
X13500Y41592D01*
X13900Y41992D01*
Y42392D01*
X13500D01*
X13100Y41992D01*
X12700Y42392D01*
X12300D01*
Y41992D01*
X12700Y41592D01*
X12300Y41192D01*
Y40792D01*
X302391Y159167D02*
X302791D01*
X303191Y159567D01*
X303591Y159167D01*
X303991D01*
Y159567D01*
X303591Y159967D01*
X303991Y160367D01*
Y160767D01*
X303591D01*
X303191Y160367D01*
X302791Y160767D01*
X302391D01*
Y160367D01*
X302791Y159967D01*
X302391Y159567D01*
Y159167D01*
X248600Y159367D02*
X249000D01*
X249400Y159767D01*
X249800Y159367D01*
X250200D01*
Y159767D01*
X249800Y160167D01*
X250200Y160567D01*
Y160967D01*
X249800D01*
X249400Y160567D01*
X249000Y160967D01*
X248600D01*
Y160567D01*
X249000Y160167D01*
X248600Y159767D01*
Y159367D01*
X100600Y210300D02*
X101000D01*
X101400Y210700D01*
X101800Y210300D01*
X102200D01*
Y210700D01*
X101800Y211100D01*
X102200Y211500D01*
Y211900D01*
X101800D01*
X101400Y211500D01*
X101000Y211900D01*
X100600D01*
Y211500D01*
X101000Y211100D01*
X100600Y210700D01*
Y210300D01*
X53780Y126920D02*
X54180D01*
X54580Y127320D01*
X54980Y126920D01*
X55380D01*
Y127320D01*
X54980Y127720D01*
X55380Y128120D01*
Y128520D01*
X54980D01*
X54580Y128120D01*
X54180Y128520D01*
X53780D01*
Y128120D01*
X54180Y127720D01*
X53780Y127320D01*
Y126920D01*
X257800Y201300D02*
X258200D01*
X258600Y201700D01*
X259000Y201300D01*
X259400D01*
Y201700D01*
X259000Y202100D01*
X259400Y202500D01*
Y202900D01*
X259000D01*
X258600Y202500D01*
X258200Y202900D01*
X257800D01*
Y202500D01*
X258200Y202100D01*
X257800Y201700D01*
Y201300D01*
X196200Y201100D02*
X196600D01*
X197000Y201500D01*
X197400Y201100D01*
X197800D01*
Y201500D01*
X197400Y201900D01*
X197800Y202300D01*
Y202700D01*
X197400D01*
X197000Y202300D01*
X196600Y202700D01*
X196200D01*
Y202300D01*
X196600Y201900D01*
X196200Y201500D01*
Y201100D01*
X46405Y227025D02*
X46805D01*
X47205Y227425D01*
X47605Y227025D01*
X48005D01*
Y227425D01*
X47605Y227825D01*
X48005Y228225D01*
Y228625D01*
X47605D01*
X47205Y228225D01*
X46805Y228625D01*
X46405D01*
Y228225D01*
X46805Y227825D01*
X46405Y227425D01*
Y227025D01*
X96200Y184225D02*
X96600D01*
X97000Y184625D01*
X97400Y184225D01*
X97800D01*
Y184625D01*
X97400Y185025D01*
X97800Y185425D01*
Y185825D01*
X97400D01*
X97000Y185425D01*
X96600Y185825D01*
X96200D01*
Y185425D01*
X96600Y185025D01*
X96200Y184625D01*
Y184225D01*
X80025Y190200D02*
X80425D01*
X80825Y190600D01*
X81225Y190200D01*
X81625D01*
Y190600D01*
X81225Y191000D01*
X81625Y191400D01*
Y191800D01*
X81225D01*
X80825Y191400D01*
X80425Y191800D01*
X80025D01*
Y191400D01*
X80425Y191000D01*
X80025Y190600D01*
Y190200D01*
X57175Y151200D02*
X57575D01*
X57975Y151600D01*
X58375Y151200D01*
X58775D01*
Y151600D01*
X58375Y152000D01*
X58775Y152400D01*
Y152800D01*
X58375D01*
X57975Y152400D01*
X57575Y152800D01*
X57175D01*
Y152400D01*
X57575Y152000D01*
X57175Y151600D01*
Y151200D01*
X50592Y129480D02*
X50992D01*
X51392Y129880D01*
X51792Y129480D01*
X52192D01*
Y129880D01*
X51792Y130280D01*
X52192Y130680D01*
Y131080D01*
X51792D01*
X51392Y130680D01*
X50992Y131080D01*
X50592D01*
Y130680D01*
X50992Y130280D01*
X50592Y129880D01*
Y129480D01*
X9225Y114200D02*
X9625D01*
X10025Y114600D01*
X10425Y114200D01*
X10825D01*
Y114600D01*
X10425Y115000D01*
X10825Y115400D01*
Y115800D01*
X10425D01*
X10025Y115400D01*
X9625Y115800D01*
X9225D01*
Y115400D01*
X9625Y115000D01*
X9225Y114600D01*
Y114200D01*
X70125Y91775D02*
X70525D01*
X70925Y92175D01*
X71325Y91775D01*
X71725D01*
Y92175D01*
X71325Y92575D01*
X71725Y92975D01*
Y93375D01*
X71325D01*
X70925Y92975D01*
X70525Y93375D01*
X70125D01*
Y92975D01*
X70525Y92575D01*
X70125Y92175D01*
Y91775D01*
Y101700D02*
X70525D01*
X70925Y102100D01*
X71325Y101700D01*
X71725D01*
Y102100D01*
X71325Y102500D01*
X71725Y102900D01*
Y103300D01*
X71325D01*
X70925Y102900D01*
X70525Y103300D01*
X70125D01*
Y102900D01*
X70525Y102500D01*
X70125Y102100D01*
Y101700D01*
X93175Y108200D02*
X93575D01*
X93975Y108600D01*
X94375Y108200D01*
X94775D01*
Y108600D01*
X94375Y109000D01*
X94775Y109400D01*
Y109800D01*
X94375D01*
X93975Y109400D01*
X93575Y109800D01*
X93175D01*
Y109400D01*
X93575Y109000D01*
X93175Y108600D01*
Y108200D01*
Y90200D02*
X93575D01*
X93975Y90600D01*
X94375Y90200D01*
X94775D01*
Y90600D01*
X94375Y91000D01*
X94775Y91400D01*
Y91800D01*
X94375D01*
X93975Y91400D01*
X93575Y91800D01*
X93175D01*
Y91400D01*
X93575Y91000D01*
X93175Y90600D01*
Y90200D01*
X23200Y57356D02*
X23600D01*
X24000Y57756D01*
X24400Y57356D01*
X24800D01*
Y57756D01*
X24400Y58156D01*
X24800Y58556D01*
Y58956D01*
X24400D01*
X24000Y58556D01*
X23600Y58956D01*
X23200D01*
Y58556D01*
X23600Y58156D01*
X23200Y57756D01*
Y57356D01*
X66025Y51350D02*
X66425D01*
X66825Y51750D01*
X67225Y51350D01*
X67625D01*
Y51750D01*
X67225Y52150D01*
X67625Y52550D01*
Y52950D01*
X67225D01*
X66825Y52550D01*
X66425Y52950D01*
X66025D01*
Y52550D01*
X66425Y52150D01*
X66025Y51750D01*
Y51350D01*
X112405Y26132D02*
X112805D01*
X113205Y26532D01*
X113605Y26132D01*
X114005D01*
Y26532D01*
X113605Y26932D01*
X114005Y27332D01*
Y27732D01*
X113605D01*
X113205Y27332D01*
X112805Y27732D01*
X112405D01*
Y27332D01*
X112805Y26932D01*
X112405Y26532D01*
Y26132D01*
X224172Y5334D02*
X224572D01*
X224972Y5734D01*
X225372Y5334D01*
X225772D01*
Y5734D01*
X225372Y6134D01*
X225772Y6534D01*
Y6934D01*
X225372D01*
X224972Y6534D01*
X224572Y6934D01*
X224172D01*
Y6534D01*
X224572Y6134D01*
X224172Y5734D01*
Y5334D01*
X305054Y22405D02*
X305454D01*
X305854Y22805D01*
X306254Y22405D01*
X306654D01*
Y22805D01*
X306254Y23205D01*
X306654Y23605D01*
Y24005D01*
X306254D01*
X305854Y23605D01*
X305454Y24005D01*
X305054D01*
Y23605D01*
X305454Y23205D01*
X305054Y22805D01*
Y22405D01*
X263386Y22920D02*
X263786D01*
X264186Y23320D01*
X264586Y22920D01*
X264986D01*
Y23320D01*
X264586Y23720D01*
X264986Y24120D01*
Y24520D01*
X264586D01*
X264186Y24120D01*
X263786Y24520D01*
X263386D01*
Y24120D01*
X263786Y23720D01*
X263386Y23320D01*
Y22920D01*
X265882Y7200D02*
X266282D01*
X266682Y7600D01*
X267082Y7200D01*
X267482D01*
Y7600D01*
X267082Y8000D01*
X267482Y8400D01*
Y8800D01*
X267082D01*
X266682Y8400D01*
X266282Y8800D01*
X265882D01*
Y8400D01*
X266282Y8000D01*
X265882Y7600D01*
Y7200D01*
X252172Y10334D02*
X252572D01*
X252972Y10734D01*
X253372Y10334D01*
X253772D01*
Y10734D01*
X253372Y11134D01*
X253772Y11534D01*
Y11934D01*
X253372D01*
X252972Y11534D01*
X252572Y11934D01*
X252172D01*
Y11534D01*
X252572Y11134D01*
X252172Y10734D01*
Y10334D01*
X233268Y9472D02*
X233668D01*
X234068Y9872D01*
X234468Y9472D01*
X234868D01*
Y9872D01*
X234468Y10272D01*
X234868Y10672D01*
Y11072D01*
X234468D01*
X234068Y10672D01*
X233668Y11072D01*
X233268D01*
Y10672D01*
X233668Y10272D01*
X233268Y9872D01*
Y9472D01*
X203268Y3405D02*
X203668D01*
X204068Y3805D01*
X204468Y3405D01*
X204868D01*
Y3805D01*
X204468Y4205D01*
X204868Y4605D01*
Y5005D01*
X204468D01*
X204068Y4605D01*
X203668Y5005D01*
X203268D01*
Y4605D01*
X203668Y4205D01*
X203268Y3805D01*
Y3405D01*
X214346Y39405D02*
X214746D01*
X215146Y39805D01*
X215546Y39405D01*
X215946D01*
Y39805D01*
X215546Y40205D01*
X215946Y40605D01*
Y41005D01*
X215546D01*
X215146Y40605D01*
X214746Y41005D01*
X214346D01*
Y40605D01*
X214746Y40205D01*
X214346Y39805D01*
Y39405D01*
Y44995D02*
X214746D01*
X215146Y45395D01*
X215546Y44995D01*
X215946D01*
Y45395D01*
X215546Y45795D01*
X215946Y46195D01*
Y46595D01*
X215546D01*
X215146Y46195D01*
X214746Y46595D01*
X214346D01*
Y46195D01*
X214746Y45795D01*
X214346Y45395D01*
Y44995D01*
X135972Y46660D02*
X136372D01*
X136772Y47060D01*
X137172Y46660D01*
X137572D01*
Y47060D01*
X137172Y47460D01*
X137572Y47860D01*
Y48260D01*
X137172D01*
X136772Y47860D01*
X136372Y48260D01*
X135972D01*
Y47860D01*
X136372Y47460D01*
X135972Y47060D01*
Y46660D01*
X178187Y37900D02*
X178587D01*
X178987Y38300D01*
X179387Y37900D01*
X179787D01*
Y38300D01*
X179387Y38700D01*
X179787Y39100D01*
Y39500D01*
X179387D01*
X178987Y39100D01*
X178587Y39500D01*
X178187D01*
Y39100D01*
X178587Y38700D01*
X178187Y38300D01*
Y37900D01*
X171800Y36987D02*
X172200D01*
X172600Y37387D01*
X173000Y36987D01*
X173400D01*
Y37387D01*
X173000Y37787D01*
X173400Y38187D01*
Y38587D01*
X173000D01*
X172600Y38187D01*
X172200Y38587D01*
X171800D01*
Y38187D01*
X172200Y37787D01*
X171800Y37387D01*
Y36987D01*
X167100Y34913D02*
X167500D01*
X167900Y35313D01*
X168300Y34913D01*
X168700D01*
Y35313D01*
X168300Y35713D01*
X168700Y36113D01*
Y36513D01*
X168300D01*
X167900Y36113D01*
X167500Y36513D01*
X167100D01*
Y36113D01*
X167500Y35713D01*
X167100Y35313D01*
Y34913D01*
X145387Y29976D02*
X145787D01*
X146187Y30376D01*
X146587Y29976D01*
X146987D01*
Y30376D01*
X146587Y30776D01*
X146987Y31176D01*
Y31576D01*
X146587D01*
X146187Y31176D01*
X145787Y31576D01*
X145387D01*
Y31176D01*
X145787Y30776D01*
X145387Y30376D01*
Y29976D01*
X145487Y22200D02*
X145887D01*
X146287Y22600D01*
X146687Y22200D01*
X147087D01*
Y22600D01*
X146687Y23000D01*
X147087Y23400D01*
Y23800D01*
X146687D01*
X146287Y23400D01*
X145887Y23800D01*
X145487D01*
Y23400D01*
X145887Y23000D01*
X145487Y22600D01*
Y22200D01*
X146599Y14424D02*
X146999D01*
X147399Y14824D01*
X147799Y14424D01*
X148199D01*
Y14824D01*
X147799Y15224D01*
X148199Y15624D01*
Y16024D01*
X147799D01*
X147399Y15624D01*
X146999Y16024D01*
X146599D01*
Y15624D01*
X146999Y15224D01*
X146599Y14824D01*
Y14424D01*
X187291Y6502D02*
X187691D01*
X188091Y6902D01*
X188491Y6502D01*
X188891D01*
Y6902D01*
X188491Y7302D01*
X188891Y7702D01*
Y8102D01*
X188491D01*
X188091Y7702D01*
X187691Y8102D01*
X187291D01*
Y7702D01*
X187691Y7302D01*
X187291Y6902D01*
Y6502D01*
X178098Y6298D02*
X178498D01*
X178898Y6698D01*
X179298Y6298D01*
X179698D01*
Y6698D01*
X179298Y7098D01*
X179698Y7498D01*
Y7898D01*
X179298D01*
X178898Y7498D01*
X178498Y7898D01*
X178098D01*
Y7498D01*
X178498Y7098D01*
X178098Y6698D01*
Y6298D01*
X178599Y9502D02*
X178999D01*
X179399Y9902D01*
X179799Y9502D01*
X180199D01*
Y9902D01*
X179799Y10302D01*
X180199Y10702D01*
Y11102D01*
X179799D01*
X179399Y10702D01*
X178999Y11102D01*
X178599D01*
Y10702D01*
X178999Y10302D01*
X178599Y9902D01*
Y9502D01*
X171698Y6300D02*
X172098D01*
X172498Y6700D01*
X172898Y6300D01*
X173298D01*
Y6700D01*
X172898Y7100D01*
X173298Y7500D01*
Y7900D01*
X172898D01*
X172498Y7500D01*
X172098Y7900D01*
X171698D01*
Y7500D01*
X172098Y7100D01*
X171698Y6700D01*
Y6300D01*
X174850Y8652D02*
X175250D01*
X175650Y9052D01*
X176050Y8652D01*
X176450D01*
Y9052D01*
X176050Y9452D01*
X176450Y9852D01*
Y10252D01*
X176050D01*
X175650Y9852D01*
X175250Y10252D01*
X174850D01*
Y9852D01*
X175250Y9452D01*
X174850Y9052D01*
Y8652D01*
X168649Y9156D02*
X169049D01*
X169449Y9556D01*
X169849Y9156D01*
X170249D01*
Y9556D01*
X169849Y9956D01*
X170249Y10356D01*
Y10756D01*
X169849D01*
X169449Y10356D01*
X169049Y10756D01*
X168649D01*
Y10356D01*
X169049Y9956D01*
X168649Y9556D01*
Y9156D01*
X146599Y7452D02*
X146999D01*
X147399Y7852D01*
X147799Y7452D01*
X148199D01*
Y7852D01*
X147799Y8252D01*
X148199Y8652D01*
Y9052D01*
X147799D01*
X147399Y8652D01*
X146999Y9052D01*
X146599D01*
Y8652D01*
X146999Y8252D01*
X146599Y7852D01*
Y7452D01*
X143452Y8952D02*
X143852D01*
X144252Y9352D01*
X144652Y8952D01*
X145052D01*
Y9352D01*
X144652Y9752D01*
X145052Y10152D01*
Y10552D01*
X144652D01*
X144252Y10152D01*
X143852Y10552D01*
X143452D01*
Y10152D01*
X143852Y9752D01*
X143452Y9352D01*
Y8952D01*
X140300Y6600D02*
X140700D01*
X141100Y7000D01*
X141500Y6600D01*
X141900D01*
Y7000D01*
X141500Y7400D01*
X141900Y7800D01*
Y8200D01*
X141500D01*
X141100Y7800D01*
X140700Y8200D01*
X140300D01*
Y7800D01*
X140700Y7400D01*
X140300Y7000D01*
Y6600D01*
D106*
X23800Y200000D02*
G03*
X23800Y200000I-800J0D01*
G01*
X13957D02*
G03*
X13957Y200000I-800J0D01*
G01*
M02*
