G04*
G04 #@! TF.GenerationSoftware,Altium Limited,Altium Designer,21.4.1 (30)*
G04*
G04 Layer_Color=65535*
%FSLAX25Y25*%
%MOIN*%
G70*
G04*
G04 #@! TF.SameCoordinates,D9FEFEF5-AAB3-451E-8F25-013EF5C99318*
G04*
G04*
G04 #@! TF.FilePolarity,Positive*
G04*
G01*
G75*
%ADD10C,0.00394*%
%ADD11C,0.00787*%
%ADD12C,0.00500*%
%ADD13C,0.00600*%
%ADD14C,0.01000*%
D10*
X90277Y196203D02*
G03*
X90277Y196597I0J197D01*
G01*
D02*
G03*
X90277Y196203I0J-197D01*
G01*
X83344Y167897D02*
G03*
X83344Y167503I0J-197D01*
G01*
D02*
G03*
X83344Y167897I0J197D01*
G01*
X78197Y44756D02*
G03*
X77803Y44756I-197J0D01*
G01*
D02*
G03*
X78197Y44756I197J0D01*
G01*
X307803Y158244D02*
G03*
X308197Y158244I197J0D01*
G01*
D02*
G03*
X307803Y158244I-197J0D01*
G01*
X243803D02*
G03*
X244197Y158244I197J0D01*
G01*
D02*
G03*
X243803Y158244I-197J0D01*
G01*
X220597Y9756D02*
G03*
X220203Y9756I-197J0D01*
G01*
D02*
G03*
X220597Y9756I197J0D01*
G01*
X248197Y14823D02*
G03*
X247803Y14823I-197J0D01*
G01*
D02*
G03*
X248197Y14823I197J0D01*
G01*
X247803Y42311D02*
G03*
X248197Y42311I197J0D01*
G01*
D02*
G03*
X247803Y42311I-197J0D01*
G01*
X13394Y53331D02*
G03*
X13000Y53331I-197J0D01*
G01*
D02*
G03*
X13394Y53331I197J0D01*
G01*
X34606Y44669D02*
G03*
X35000Y44669I197J0D01*
G01*
D02*
G03*
X34606Y44669I-197J0D01*
G01*
X45506Y43968D02*
G03*
X45900Y43968I197J0D01*
G01*
D02*
G03*
X45506Y43968I-197J0D01*
G01*
X16444Y167597D02*
G03*
X16444Y167203I0J-197D01*
G01*
D02*
G03*
X16444Y167597I0J197D01*
G01*
X14575Y46638D02*
Y51362D01*
X11425Y46638D02*
Y51362D01*
X33425Y46638D02*
Y51362D01*
X36575Y46638D02*
Y51362D01*
X44325Y45936D02*
Y50661D01*
X47475Y45936D02*
Y50661D01*
D11*
X188347Y7252D02*
G03*
X187559Y7252I-394J0D01*
G01*
D02*
G03*
X188347Y7252I394J0D01*
G01*
X47067Y292646D02*
G03*
X47067Y292646I-122J0D01*
G01*
X127067D02*
G03*
X127067Y292646I-122J0D01*
G01*
X87067D02*
G03*
X87067Y292646I-122J0D01*
G01*
X7067D02*
G03*
X7067Y292646I-122J0D01*
G01*
X247067D02*
G03*
X247067Y292646I-122J0D01*
G01*
X207067D02*
G03*
X207067Y292646I-122J0D01*
G01*
X167067D02*
G03*
X167067Y292646I-122J0D01*
G01*
X270284Y206386D02*
G03*
X270284Y206780I0J197D01*
G01*
D02*
G03*
X270284Y206386I0J-197D01*
G01*
D02*
G03*
X270284Y206780I0J197D01*
G01*
X208283Y206386D02*
G03*
X208283Y206780I0J197D01*
G01*
D02*
G03*
X208283Y206386I0J-197D01*
G01*
D02*
G03*
X208283Y206780I0J197D01*
G01*
X23795Y34622D02*
G03*
X23795Y34622I-394J0D01*
G01*
X49510Y186305D02*
X63290D01*
X49510D02*
Y211895D01*
X63290D01*
Y186305D02*
Y211895D01*
X64668Y186895D02*
X71754D01*
X13157Y190748D02*
X32291D01*
Y213386D01*
X3157D02*
X32291D01*
X3157Y200000D02*
Y213386D01*
X61209Y164552D02*
X62391D01*
X61209D02*
Y176048D01*
X62391D01*
Y164552D02*
Y176048D01*
X63769Y164394D02*
X68493D01*
X116565Y171108D02*
Y192151D01*
X106235Y171108D02*
Y190950D01*
X85550Y157819D02*
Y160181D01*
X51882Y268260D02*
X56118D01*
X134016Y559D02*
Y45047D01*
X185984D01*
Y559D02*
Y45047D01*
X134016Y-20307D02*
Y559D01*
Y-20307D02*
X185984D01*
Y559D01*
X116000Y42819D02*
Y45181D01*
X94300Y21719D02*
Y24081D01*
X92213Y45709D02*
X93787D01*
Y34291D02*
Y45709D01*
X92213Y34291D02*
X93787D01*
X92213D02*
Y45709D01*
X85323Y46299D02*
X90835D01*
X285000Y61819D02*
Y64181D01*
X274472Y19094D02*
X283528D01*
X274472D02*
Y30906D01*
X283528D01*
Y19094D02*
Y30906D01*
X284906Y18898D02*
X290417D01*
X284850Y46819D02*
Y49181D01*
X272000Y61819D02*
Y64181D01*
X271701Y46819D02*
Y49181D01*
X69000Y263819D02*
Y266181D01*
X54685Y302693D02*
X65315D01*
X54685Y289307D02*
X65315D01*
X28000Y262819D02*
Y265181D01*
X11882Y268000D02*
X16118D01*
X134685Y302693D02*
X145315D01*
X134685Y289307D02*
X145315D01*
X149000Y262819D02*
Y265181D01*
X94685Y302693D02*
X105315D01*
X94685Y289307D02*
X105315D01*
X132882Y268000D02*
X137118D01*
X108882Y262819D02*
Y265181D01*
X91764Y268000D02*
X96000D01*
X14685Y302693D02*
X25315D01*
X14685Y289307D02*
X25315D01*
X254685Y302693D02*
X265315D01*
X254685Y289307D02*
X265315D01*
X267000Y262819D02*
Y265181D01*
X214685Y302693D02*
X225315D01*
X214685Y289307D02*
X225315D01*
X250882Y268260D02*
X255118D01*
X227000Y262819D02*
Y265181D01*
X174685Y302693D02*
X185315D01*
X174685Y289307D02*
X185315D01*
X210882Y268000D02*
X215118D01*
X188000Y261819D02*
Y264181D01*
X171882Y267260D02*
X176118D01*
X214000Y93819D02*
Y96181D01*
X276189Y181189D02*
X299811D01*
Y204811D01*
X276189D02*
X299811D01*
X276189Y181189D02*
Y204811D01*
X214189Y181189D02*
X237811D01*
Y204811D01*
X214189D02*
X237811D01*
X214189Y181189D02*
Y204811D01*
X218819Y24000D02*
X221181D01*
X30846Y76150D02*
X45315D01*
X34685Y69850D02*
X45315D01*
X22819Y49000D02*
X25181D01*
X60819D02*
X63181D01*
X35035Y141961D02*
X39563D01*
X11800Y148882D02*
Y153118D01*
X20000Y96819D02*
Y99181D01*
Y78819D02*
Y81181D01*
X61677Y89744D02*
X67681D01*
X50000Y150819D02*
Y153181D01*
X86000Y89819D02*
Y92181D01*
X15850Y102752D02*
X25299D01*
Y109248D01*
X15850D02*
X25299D01*
X12701Y92248D02*
X22150D01*
X12701Y85752D02*
Y92248D01*
Y85752D02*
X22150D01*
X27817Y133768D02*
X42383D01*
Y122232D02*
Y133768D01*
X27817Y122232D02*
X42383D01*
X27817D02*
Y133768D01*
X20632Y134102D02*
X26439D01*
D12*
X309528Y106000D02*
G03*
X309528Y106000I-29528J0D01*
G01*
X18402Y764D02*
X53598D01*
X18402D02*
Y6394D01*
Y15606D02*
Y22220D01*
X53598Y764D02*
Y6394D01*
Y15606D02*
Y22220D01*
D13*
X4500Y223199D02*
Y219200D01*
X6499D01*
X7166Y219866D01*
Y220533D01*
X6499Y221199D01*
X4500D01*
X6499D01*
X7166Y221866D01*
Y222532D01*
X6499Y223199D01*
X4500D01*
X8499Y219200D02*
Y221866D01*
X9832Y223199D01*
X11164Y221866D01*
Y219200D01*
Y221199D01*
X8499D01*
X12497Y223199D02*
X15163D01*
X13830D01*
Y219200D01*
X23161Y222532D02*
X22494Y223199D01*
X21161D01*
X20495Y222532D01*
Y219866D01*
X21161Y219200D01*
X22494D01*
X23161Y219866D01*
X26493Y223199D02*
X25160D01*
X24494Y222532D01*
Y219866D01*
X25160Y219200D01*
X26493D01*
X27159Y219866D01*
Y222532D01*
X26493Y223199D01*
X28492Y219200D02*
Y223199D01*
X31158Y219200D01*
Y223199D01*
X32491Y219200D02*
Y223199D01*
X35157Y219200D01*
Y223199D01*
X12000Y187111D02*
X14666D01*
X13333Y188444D02*
Y185778D01*
X263400Y34800D02*
Y38799D01*
X264733Y37466D01*
X266066Y38799D01*
Y34800D01*
X267399D02*
Y37466D01*
X268732Y38799D01*
X270064Y37466D01*
Y34800D01*
Y36799D01*
X267399D01*
X274063Y38132D02*
X273397Y38799D01*
X272064D01*
X271397Y38132D01*
Y35466D01*
X272064Y34800D01*
X273397D01*
X274063Y35466D01*
Y36799D01*
X272730D01*
X275396Y34800D02*
Y38799D01*
X278062Y34800D01*
Y38799D01*
X279395D02*
X280728D01*
X280061D01*
Y34800D01*
X279395D01*
X280728D01*
X285393Y38799D02*
X282727D01*
Y36799D01*
X284060D01*
X282727D01*
Y34800D01*
X286726Y38799D02*
X288059D01*
X287392D01*
Y34800D01*
X286726D01*
X288059D01*
X292724Y38799D02*
X290058D01*
Y34800D01*
X292724D01*
X290058Y36799D02*
X291391D01*
X294057Y34800D02*
Y38799D01*
X296056D01*
X296723Y38132D01*
Y36799D01*
X296056Y36133D01*
X294057D01*
X295390D02*
X296723Y34800D01*
X85600Y55499D02*
Y51500D01*
X87599D01*
X88266Y52166D01*
Y54832D01*
X87599Y55499D01*
X85600D01*
X89599Y51500D02*
Y54166D01*
X90932Y55499D01*
X92264Y54166D01*
Y51500D01*
Y53499D01*
X89599D01*
X96263Y54832D02*
X95597Y55499D01*
X94264D01*
X93597Y54832D01*
Y52166D01*
X94264Y51500D01*
X95597D01*
X96263Y52166D01*
X293400Y312299D02*
X294733D01*
X294066D01*
Y308300D01*
X293400D01*
X294733D01*
X296732D02*
Y312299D01*
X298732D01*
X299398Y311632D01*
Y310299D01*
X298732Y309633D01*
X296732D01*
X298065D02*
X299398Y308300D01*
X300731Y311632D02*
X301397Y312299D01*
X302730D01*
X303397Y311632D01*
Y310966D01*
X302730Y310299D01*
X303397Y309633D01*
Y308966D01*
X302730Y308300D01*
X301397D01*
X300731Y308966D01*
Y309633D01*
X301397Y310299D01*
X300731Y310966D01*
Y311632D01*
X301397Y310299D02*
X302730D01*
X255200Y312499D02*
X256533D01*
X255866D01*
Y308500D01*
X255200D01*
X256533D01*
X258532D02*
Y312499D01*
X260532D01*
X261198Y311832D01*
Y310499D01*
X260532Y309833D01*
X258532D01*
X259865D02*
X261198Y308500D01*
X262531Y312499D02*
X265197D01*
Y311832D01*
X262531Y309166D01*
Y308500D01*
X215200Y312199D02*
X216533D01*
X215866D01*
Y308200D01*
X215200D01*
X216533D01*
X218532D02*
Y312199D01*
X220532D01*
X221198Y311532D01*
Y310199D01*
X220532Y309533D01*
X218532D01*
X219865D02*
X221198Y308200D01*
X225197Y312199D02*
X223864Y311532D01*
X222531Y310199D01*
Y308866D01*
X223197Y308200D01*
X224530D01*
X225197Y308866D01*
Y309533D01*
X224530Y310199D01*
X222531D01*
X175400Y312399D02*
X176733D01*
X176067D01*
Y308400D01*
X175400D01*
X176733D01*
X178732D02*
Y312399D01*
X180732D01*
X181398Y311732D01*
Y310399D01*
X180732Y309733D01*
X178732D01*
X180065D02*
X181398Y308400D01*
X185397Y312399D02*
X182731D01*
Y310399D01*
X184064Y311066D01*
X184730D01*
X185397Y310399D01*
Y309066D01*
X184730Y308400D01*
X183397D01*
X182731Y309066D01*
X135600Y312299D02*
X136933D01*
X136267D01*
Y308300D01*
X135600D01*
X136933D01*
X138932D02*
Y312299D01*
X140932D01*
X141598Y311632D01*
Y310299D01*
X140932Y309633D01*
X138932D01*
X140265D02*
X141598Y308300D01*
X144930D02*
Y312299D01*
X142931Y310299D01*
X145597D01*
X95500Y312499D02*
X96833D01*
X96166D01*
Y308500D01*
X95500D01*
X96833D01*
X98832D02*
Y312499D01*
X100832D01*
X101498Y311832D01*
Y310499D01*
X100832Y309833D01*
X98832D01*
X100165D02*
X101498Y308500D01*
X102831Y311832D02*
X103497Y312499D01*
X104830D01*
X105497Y311832D01*
Y311166D01*
X104830Y310499D01*
X104164D01*
X104830D01*
X105497Y309833D01*
Y309166D01*
X104830Y308500D01*
X103497D01*
X102831Y309166D01*
X56000Y312199D02*
X57333D01*
X56666D01*
Y308200D01*
X56000D01*
X57333D01*
X59332D02*
Y312199D01*
X61332D01*
X61998Y311532D01*
Y310199D01*
X61332Y309533D01*
X59332D01*
X60665D02*
X61998Y308200D01*
X65997D02*
X63331D01*
X65997Y310866D01*
Y311532D01*
X65330Y312199D01*
X63997D01*
X63331Y311532D01*
X16100Y311999D02*
X17433D01*
X16767D01*
Y308000D01*
X16100D01*
X17433D01*
X19432D02*
Y311999D01*
X21432D01*
X22098Y311332D01*
Y309999D01*
X21432Y309333D01*
X19432D01*
X20765D02*
X22098Y308000D01*
X23431D02*
X24764D01*
X24097D01*
Y311999D01*
X23431Y311332D01*
X57500Y219232D02*
X58166Y219899D01*
X59499D01*
X60166Y219232D01*
Y218566D01*
X59499Y217899D01*
X58833D01*
X59499D01*
X60166Y217233D01*
Y216566D01*
X59499Y215900D01*
X58166D01*
X57500Y216566D01*
X61499Y219899D02*
Y217233D01*
X62832Y215900D01*
X64165Y217233D01*
Y219899D01*
X65497Y219232D02*
X66164Y219899D01*
X67497D01*
X68163Y219232D01*
Y218566D01*
X67497Y217899D01*
X66830D01*
X67497D01*
X68163Y217233D01*
Y216566D01*
X67497Y215900D01*
X66164D01*
X65497Y216566D01*
X47800Y179700D02*
Y183699D01*
X49799D01*
X50466Y183032D01*
Y181699D01*
X49799Y181033D01*
X47800D01*
X49133D02*
X50466Y179700D01*
X54465Y183699D02*
X51799D01*
Y179700D01*
X54465D01*
X51799Y181699D02*
X53132D01*
X58463Y183032D02*
X57797Y183699D01*
X56464D01*
X55797Y183032D01*
Y180367D01*
X56464Y179700D01*
X57797D01*
X58463Y180367D01*
Y181699D01*
X57130D01*
X130666Y53699D02*
X128000D01*
Y49700D01*
X130666D01*
X128000Y51699D02*
X129333D01*
X134664Y53032D02*
X133998Y53699D01*
X132665D01*
X131999Y53032D01*
Y52366D01*
X132665Y51699D01*
X133998D01*
X134664Y51033D01*
Y50366D01*
X133998Y49700D01*
X132665D01*
X131999Y50366D01*
X135997Y49700D02*
Y53699D01*
X137997D01*
X138663Y53032D01*
Y51699D01*
X137997Y51033D01*
X135997D01*
X139996Y53032D02*
X140663Y53699D01*
X141996D01*
X142662Y53032D01*
Y52366D01*
X141996Y51699D01*
X141329D01*
X141996D01*
X142662Y51033D01*
Y50366D01*
X141996Y49700D01*
X140663D01*
X139996Y50366D01*
X146661Y49700D02*
X143995D01*
X146661Y52366D01*
Y53032D01*
X145994Y53699D01*
X144661D01*
X143995Y53032D01*
X147994Y51699D02*
X150659D01*
X154658Y53032D02*
X153992Y53699D01*
X152659D01*
X151992Y53032D01*
Y50366D01*
X152659Y49700D01*
X153992D01*
X154658Y50366D01*
X155991Y53032D02*
X156657Y53699D01*
X157990D01*
X158657Y53032D01*
Y52366D01*
X157990Y51699D01*
X157324D01*
X157990D01*
X158657Y51033D01*
Y50366D01*
X157990Y49700D01*
X156657D01*
X155991Y50366D01*
X159990Y51699D02*
X162655D01*
X163988Y49700D02*
Y53699D01*
X165321Y52366D01*
X166654Y53699D01*
Y49700D01*
X167987Y53699D02*
X169320D01*
X168654D01*
Y49700D01*
X167987D01*
X169320D01*
X171319D02*
Y53699D01*
X173985Y49700D01*
Y53699D01*
X175318D02*
X176651D01*
X175985D01*
Y49700D01*
X175318D01*
X176651D01*
X178650Y51699D02*
X181316D01*
X182649Y49700D02*
X183982D01*
X183316D01*
Y53699D01*
X182649Y53032D01*
X185981Y51699D02*
X188647D01*
X189980Y49700D02*
Y53699D01*
X192646Y49700D01*
Y53699D01*
X195978Y49700D02*
Y53699D01*
X193979Y51699D01*
X196644D01*
X23200Y184900D02*
Y187566D01*
X270766Y71732D02*
X270099Y72399D01*
X268766D01*
X268100Y71732D01*
Y71066D01*
X268766Y70399D01*
X270099D01*
X270766Y69733D01*
Y69066D01*
X270099Y68400D01*
X268766D01*
X268100Y69066D01*
X272099Y68400D02*
Y72399D01*
X274098D01*
X274764Y71732D01*
Y70399D01*
X274098Y69733D01*
X272099D01*
X278763Y72399D02*
X276097D01*
Y68400D01*
X278763D01*
X276097Y70399D02*
X277430D01*
X280096Y68400D02*
Y71066D01*
X281429Y72399D01*
X282762Y71066D01*
Y68400D01*
Y70399D01*
X280096D01*
X284095Y72399D02*
Y68400D01*
Y69733D01*
X286761Y72399D01*
X284761Y70399D01*
X286761Y68400D01*
X290759Y72399D02*
X288094D01*
Y68400D01*
X290759D01*
X288094Y70399D02*
X289426D01*
X292092Y68400D02*
Y72399D01*
X294092D01*
X294758Y71732D01*
Y70399D01*
X294092Y69733D01*
X292092D01*
X293425D02*
X294758Y68400D01*
X58600Y8665D02*
Y5333D01*
X59266Y4666D01*
X60599D01*
X61266Y5333D01*
Y8665D01*
X65264Y7999D02*
X64598Y8665D01*
X63265D01*
X62599Y7999D01*
Y7332D01*
X63265Y6666D01*
X64598D01*
X65264Y5999D01*
Y5333D01*
X64598Y4666D01*
X63265D01*
X62599Y5333D01*
X66597Y8665D02*
Y4666D01*
X68597D01*
X69263Y5333D01*
Y5999D01*
X68597Y6666D01*
X66597D01*
X68597D01*
X69263Y7332D01*
Y7999D01*
X68597Y8665D01*
X66597D01*
X70596Y4000D02*
X73262D01*
X77261Y7999D02*
X76594Y8665D01*
X75261D01*
X74595Y7999D01*
Y5333D01*
X75261Y4666D01*
X76594D01*
X77261Y5333D01*
X78594Y8665D02*
Y4666D01*
Y6666D01*
X81259D01*
Y8665D01*
Y4666D01*
X85258Y7999D02*
X84592Y8665D01*
X83259D01*
X82592Y7999D01*
Y5333D01*
X83259Y4666D01*
X84592D01*
X85258Y5333D01*
Y6666D01*
X83925D01*
X285234Y213033D02*
X284567Y213699D01*
X283234D01*
X282568Y213033D01*
Y212366D01*
X283234Y211700D01*
X284567D01*
X285234Y211034D01*
Y210367D01*
X284567Y209701D01*
X283234D01*
X282568Y210367D01*
X289232Y209701D02*
X286566D01*
X289232Y212366D01*
Y213033D01*
X288566Y213699D01*
X287233D01*
X286566Y213033D01*
X278670Y173301D02*
Y177299D01*
X280669D01*
X281335Y176633D01*
Y175300D01*
X280669Y174634D01*
X278670D01*
X280003D02*
X281335Y173301D01*
X285334Y177299D02*
X282668D01*
Y173301D01*
X285334D01*
X282668Y175300D02*
X284001D01*
X289333Y176633D02*
X288666Y177299D01*
X287334D01*
X286667Y176633D01*
Y175967D01*
X287334Y175300D01*
X288666D01*
X289333Y174634D01*
Y173967D01*
X288666Y173301D01*
X287334D01*
X286667Y173967D01*
X293332Y177299D02*
X290666D01*
Y173301D01*
X293332D01*
X290666Y175300D02*
X291999D01*
X294665Y177299D02*
X297330D01*
X295997D01*
Y173301D01*
X224700Y213833D02*
X224034Y214499D01*
X222701D01*
X222034Y213833D01*
Y213166D01*
X222701Y212500D01*
X224034D01*
X224700Y211834D01*
Y211167D01*
X224034Y210501D01*
X222701D01*
X222034Y211167D01*
X226033Y210501D02*
X227366D01*
X226699D01*
Y214499D01*
X226033Y213833D01*
X216869Y177599D02*
Y173601D01*
X218868D01*
X219535Y174267D01*
Y174934D01*
X218868Y175600D01*
X216869D01*
X218868D01*
X219535Y176267D01*
Y176933D01*
X218868Y177599D01*
X216869D01*
X222867D02*
X221534D01*
X220868Y176933D01*
Y174267D01*
X221534Y173601D01*
X222867D01*
X223534Y174267D01*
Y176933D01*
X222867Y177599D01*
X226866D02*
X225533D01*
X224867Y176933D01*
Y174267D01*
X225533Y173601D01*
X226866D01*
X227532Y174267D01*
Y176933D01*
X226866Y177599D01*
X228865D02*
X231531D01*
X230198D01*
Y173601D01*
X4367Y102234D02*
X3701Y101568D01*
Y100235D01*
X4367Y99568D01*
X5034D01*
X5700Y100235D01*
Y101568D01*
X6366Y102234D01*
X7033D01*
X7699Y101568D01*
Y100235D01*
X7033Y99568D01*
X3701Y103567D02*
Y106233D01*
Y104900D01*
X7699D01*
X3701Y107566D02*
X7699D01*
Y109565D01*
X7033Y110232D01*
X6366D01*
X5700Y109565D01*
Y107566D01*
Y109565D01*
X5034Y110232D01*
X4367D01*
X3701Y109565D01*
Y107566D01*
X4967Y86434D02*
X4301Y85768D01*
Y84435D01*
X4967Y83768D01*
X7633D01*
X8299Y84435D01*
Y85768D01*
X7633Y86434D01*
X4301Y87767D02*
X8299D01*
X6300D01*
Y90433D01*
X4301D01*
X8299D01*
X4967Y94432D02*
X4301Y93765D01*
Y92432D01*
X4967Y91766D01*
X7633D01*
X8299Y92432D01*
Y93765D01*
X7633Y94432D01*
X6300D01*
Y93099D01*
D14*
X244026Y108508D02*
X247370D01*
X245698Y110180D02*
Y106836D01*
X311616Y108008D02*
X314961D01*
X79000Y151701D02*
X76000D01*
Y153201D01*
X76500Y153701D01*
X77500D01*
X78000Y153201D01*
Y151701D01*
Y152701D02*
X79000Y153701D01*
X76500Y154700D02*
X76000Y155200D01*
Y156200D01*
X76500Y156700D01*
X77000D01*
X77500Y156200D01*
Y155700D01*
Y156200D01*
X78000Y156700D01*
X78500D01*
X79000Y156200D01*
Y155200D01*
X78500Y154700D01*
X76500Y157699D02*
X76000Y158199D01*
Y159199D01*
X76500Y159699D01*
X77000D01*
X77500Y159199D01*
Y158699D01*
Y159199D01*
X78000Y159699D01*
X78500D01*
X79000Y159199D01*
Y158199D01*
X78500Y157699D01*
X64500Y159400D02*
Y161400D01*
X64000Y161899D01*
X63001D01*
X62501Y161400D01*
Y159400D01*
X63001Y158900D01*
X64000D01*
X63500Y159900D02*
X64500Y158900D01*
X64000D02*
X64500Y159400D01*
X67499Y158900D02*
X65500D01*
X67499Y160900D01*
Y161400D01*
X66999Y161899D01*
X66000D01*
X65500Y161400D01*
X98782Y175723D02*
X102780D01*
Y177722D01*
X102114Y178389D01*
X101448D01*
X100781Y177722D01*
Y175723D01*
Y177722D01*
X100115Y178389D01*
X99448D01*
X98782Y177722D01*
Y175723D01*
Y179722D02*
Y182387D01*
Y181055D01*
X102780D01*
Y183720D02*
Y185053D01*
Y184387D01*
X98782D01*
X99448Y183720D01*
M02*
