G04*
G04 #@! TF.GenerationSoftware,Altium Limited,Altium Designer,21.4.1 (30)*
G04*
G04 Layer_Physical_Order=1*
G04 Layer_Color=255*
%FSLAX25Y25*%
%MOIN*%
G70*
G04*
G04 #@! TF.SameCoordinates,A3E2D9BC-5F1E-461B-91C0-85596CD5DA70*
G04*
G04*
G04 #@! TF.FilePolarity,Positive*
G04*
G01*
G75*
%ADD13C,0.00600*%
%ADD15C,0.02000*%
%ADD16R,0.06004X0.02756*%
%ADD17R,0.05709X0.03937*%
%ADD18R,0.02874X0.03701*%
%ADD19R,0.02756X0.02756*%
%ADD20R,0.05709X0.05709*%
%ADD21R,0.01575X0.03150*%
%ADD22R,0.03150X0.01575*%
%ADD23R,0.03543X0.03740*%
%ADD24R,0.02362X0.02441*%
%ADD25R,0.01378X0.00984*%
%ADD26R,0.05512X0.02362*%
%ADD27R,0.03701X0.02874*%
%ADD28R,0.05512X0.01772*%
%ADD29R,0.06535X0.03110*%
%ADD30R,0.08268X0.05512*%
%ADD31R,0.03740X0.03543*%
%ADD32R,0.03858X0.02992*%
%ADD33R,0.04134X0.03347*%
%ADD34R,0.01575X0.01890*%
%ADD35R,0.02362X0.04488*%
%ADD36R,0.01181X0.04488*%
%ADD37R,0.05709X0.03740*%
%ADD38R,0.05709X0.12795*%
%ADD39R,0.04409X0.03425*%
%ADD40R,0.02992X0.03858*%
%ADD41R,0.04528X0.02362*%
%ADD42R,0.03937X0.05709*%
%ADD43R,0.09894X0.13394*%
%ADD44R,0.00984X0.01378*%
%ADD45R,0.05807X0.01772*%
%ADD83C,0.04000*%
%ADD84C,0.01500*%
%ADD85C,0.03000*%
%ADD86C,0.00603*%
%ADD87C,0.02500*%
%ADD88C,0.12000*%
%ADD89C,0.06496*%
%ADD90R,0.06496X0.06496*%
%ADD91C,0.05937*%
%ADD92O,0.03543X0.06693*%
%ADD93O,0.03543X0.07874*%
%ADD94C,0.02362*%
%ADD95C,0.02400*%
G36*
X130079Y26150D02*
Y4518D01*
X129900Y4087D01*
Y3512D01*
X116112D01*
X116000Y3400D01*
X115900Y3500D01*
Y26214D01*
X130014D01*
X130079Y26150D01*
D02*
G37*
G36*
X180800Y4800D02*
X140464D01*
X139300Y5964D01*
X139300Y40050D01*
X139615D01*
Y40017D01*
X142590D01*
Y40050D01*
X142765D01*
Y40017D01*
X145739D01*
Y40050D01*
X145914D01*
Y40017D01*
X148889D01*
Y40050D01*
X149064D01*
Y40017D01*
X152039D01*
Y40050D01*
X152213D01*
Y40017D01*
X155188D01*
Y40050D01*
X155363D01*
Y40017D01*
X158338D01*
Y40050D01*
X158513D01*
Y40017D01*
X161487D01*
Y40050D01*
X161662D01*
Y40017D01*
X164637D01*
Y40050D01*
X164812D01*
Y40017D01*
X167787D01*
Y40050D01*
X167961D01*
Y40017D01*
X170936D01*
Y40050D01*
X174261D01*
Y40017D01*
X177235D01*
Y40050D01*
X177410D01*
Y40017D01*
X180385D01*
Y40050D01*
X180800D01*
Y4800D01*
D02*
G37*
G36*
X226641Y17535D02*
X223100Y13100D01*
Y7153D01*
X221789D01*
Y7259D01*
X219011D01*
Y7150D01*
X217979Y7151D01*
X217125Y6081D01*
Y5348D01*
X213222D01*
X212083Y6488D01*
X211766D01*
X210627Y6549D01*
X210600Y6577D01*
X204076Y7072D01*
X190841D01*
Y15692D01*
X192641Y16472D01*
X206341D01*
X214217Y24348D01*
X226641D01*
Y17535D01*
D02*
G37*
G36*
X17200Y257757D02*
X17254Y257811D01*
X17721D01*
Y256723D01*
X17757Y256688D01*
Y255217D01*
X18119Y254855D01*
Y254247D01*
Y254080D01*
X18266D01*
X19100Y252900D01*
X19100Y250400D01*
X17400Y248700D01*
X14700D01*
X12800Y250600D01*
Y253300D01*
X14400Y254900D01*
Y260907D01*
X14000Y261307D01*
X4407D01*
X4400Y261300D01*
X3800Y261900D01*
Y266300D01*
X4400Y266900D01*
X17200D01*
Y257757D01*
D02*
G37*
G36*
X93600Y198600D02*
X99998D01*
Y193202D01*
X90234D01*
X88586Y194850D01*
X84150D01*
X82200Y196800D01*
X71400D01*
Y203500D01*
X88700D01*
X93600Y198600D01*
D02*
G37*
G36*
X83175Y193202D02*
Y189850D01*
X93055D01*
X94205Y191000D01*
X94200Y191005D01*
Y192200D01*
X100500D01*
X102700Y190000D01*
Y150700D01*
X57600D01*
X55947Y149047D01*
X50000D01*
Y155600D01*
X56700Y162300D01*
Y181000D01*
X59100Y183400D01*
X71400D01*
Y194026D01*
X82351D01*
X83175Y193202D01*
D02*
G37*
G36*
X91150Y29282D02*
X93800Y26632D01*
Y14800D01*
X86600D01*
X82900Y18500D01*
Y22100D01*
X77300Y27700D01*
Y34900D01*
X80300Y37900D01*
X91150D01*
Y29282D01*
D02*
G37*
D13*
X287661Y28839D02*
X288000Y29177D01*
Y62850D01*
X220146Y6134D02*
X224972D01*
X301028Y23205D02*
X305854D01*
X264186Y23720D02*
X269011D01*
X266682Y8000D02*
X271507D01*
X248146Y11134D02*
X252972D01*
X234068Y10272D02*
X238893D01*
X204068Y4205D02*
X208893D01*
X215146Y40205D02*
X219972D01*
X215146Y45795D02*
X219972D01*
X183572Y42488D02*
X188397D01*
X136772Y42635D02*
Y47460D01*
X183180Y38700D02*
X183228Y38748D01*
X178987Y38700D02*
X183180D01*
X167900Y30887D02*
Y35713D01*
X146187Y30776D02*
X151013D01*
X146287Y23000D02*
X151113D01*
X147399Y15224D02*
X152224D01*
X184400Y7300D02*
X188089D01*
X178898Y4101D02*
Y7098D01*
X179402Y10304D02*
X183091D01*
X169449Y3913D02*
Y9956D01*
X147402Y4561D02*
Y8250D01*
X144252Y3709D02*
Y9752D01*
X144300Y9800D01*
X141100Y7400D02*
X141102Y7398D01*
Y3709D02*
Y7398D01*
X248000Y13248D02*
Y18914D01*
X93423Y212866D02*
X95811D01*
X90234Y212877D02*
X93412D01*
X93423Y212866D01*
X160000Y30776D02*
Y35413D01*
Y30587D02*
Y30776D01*
X35000Y51598D02*
Y56859D01*
Y51559D02*
Y51598D01*
X13000Y46402D02*
Y46992D01*
Y41692D02*
Y46402D01*
X303291Y160067D02*
X308000D01*
X303191Y159967D02*
X303291Y160067D01*
X249300D02*
X249400Y160167D01*
X244000Y160067D02*
X249300D01*
X96000Y211000D02*
X101300D01*
X101400Y211100D01*
X54580Y127720D02*
X54600Y127700D01*
X269186Y68200D02*
X281265D01*
X268600Y63250D02*
X268850Y63000D01*
X254034Y44134D02*
X255300Y45400D01*
X248000Y44134D02*
X254034D01*
X273600Y56200D02*
X275150Y57750D01*
Y63000D01*
X264970Y94470D02*
X265039Y94539D01*
X264900Y94400D02*
X264970Y94470D01*
X261600Y19400D02*
X263361Y21161D01*
X270339D01*
X268551Y48000D02*
Y52851D01*
X268600Y52900D01*
X294961Y95439D02*
X295100Y95300D01*
X278150Y8000D02*
X293114D01*
X293700Y8586D02*
Y20100D01*
X293114Y8000D02*
X293700Y8586D01*
X292639Y21161D02*
X293700Y20100D01*
X287661Y21161D02*
X292639D01*
X265254Y29424D02*
Y44604D01*
X265840Y28839D02*
X270339D01*
X265254Y29424D02*
X265840Y28839D01*
X265254Y44604D02*
X268551Y47902D01*
Y48000D01*
X281265Y68200D02*
X281850Y67614D01*
Y63000D02*
Y67614D01*
X287661Y23720D02*
Y26280D01*
X97450Y22900D02*
X101300D01*
X309150Y258050D02*
Y263000D01*
X270150Y259050D02*
Y264000D01*
X191150Y258050D02*
Y263000D01*
X152150Y259050D02*
Y264000D01*
X31100Y259000D02*
X31150Y259050D01*
Y264000D01*
X48000Y51598D02*
Y56859D01*
X24000Y42421D02*
Y45850D01*
X307908Y161933D02*
X308000D01*
X307900Y161941D02*
X307908Y161933D01*
X307900Y161941D02*
Y169400D01*
X305913Y171387D02*
X307900Y169400D01*
X305913Y171387D02*
Y184142D01*
X308000Y161933D02*
X312709D01*
X255300Y45400D02*
Y55321D01*
X256179Y56200D01*
X273600D01*
X268600Y67614D02*
X269186Y68200D01*
X268600Y63250D02*
Y67614D01*
X21610Y144520D02*
X31000D01*
X20133Y145997D02*
X21610Y144520D01*
X78050Y42941D02*
Y48750D01*
X78042Y42933D02*
X78050Y42941D01*
Y48750D02*
X78100Y48800D01*
X227800Y62800D02*
X244600Y46000D01*
X248000D01*
X243921Y161933D02*
X244000D01*
X240400D02*
X243921D01*
X243913Y161941D02*
X243921Y161933D01*
X243913Y161941D02*
Y184142D01*
X104563Y257681D02*
Y259461D01*
X105732Y260630D01*
X103882Y257000D02*
X104563Y257681D01*
X105732Y260630D02*
Y264000D01*
X112031Y259050D02*
Y264000D01*
X183600Y154279D02*
Y210500D01*
X156876Y127555D02*
X183600Y154279D01*
X192900Y158400D02*
Y210300D01*
X154350Y119850D02*
X192900Y158400D01*
X200568Y125704D02*
X200836Y125436D01*
X198196Y125704D02*
X200568D01*
X197900Y126000D02*
X198196Y125704D01*
X196900Y126000D02*
X197900D01*
X159400Y106600D02*
X177500D01*
X196900Y126000D01*
X148000Y118000D02*
X159400Y106600D01*
X148000Y118000D02*
Y138500D01*
X155300Y145800D01*
X140700Y119421D02*
Y213500D01*
Y119421D02*
X148821Y111300D01*
X148300Y221100D02*
X272200D01*
X140700Y213500D02*
X148300Y221100D01*
X272200D02*
X309100Y258000D01*
X148821Y111300D02*
X149200D01*
X167000Y231600D02*
Y244100D01*
X152100Y259000D02*
X167000Y244100D01*
X126900Y197700D02*
Y214200D01*
X123800Y217300D02*
X126900Y214200D01*
X31100Y259000D02*
X72800Y217300D01*
X123800D01*
X42890Y29701D02*
Y33890D01*
X97921Y36260D02*
X104614D01*
X97921Y40000D02*
X108949D01*
X78100Y48800D02*
X107087D01*
X23000Y173700D02*
Y200000D01*
X20133Y145997D02*
Y167400D01*
Y170833D01*
X23000Y173700D01*
X37299Y152000D02*
Y156999D01*
X37300Y157000D01*
X15900Y123400D02*
X17661Y125161D01*
X23433D01*
X37299Y148260D02*
X37459Y148100D01*
X46850Y151902D02*
Y152000D01*
X43049Y148100D02*
X46850Y151902D01*
X37459Y148100D02*
X43049D01*
X18267Y167219D02*
Y167400D01*
X8060Y157012D02*
X18267Y167219D01*
X8060Y151000D02*
Y157012D01*
X31079Y29701D02*
Y35342D01*
X24000Y42421D02*
X31079Y35342D01*
X88079Y40000D02*
X88669D01*
X83369D02*
X88079D01*
X73291Y41067D02*
X78000D01*
X160000Y15224D02*
Y23000D01*
X167987Y15100D02*
X172813D01*
X167887Y23100D02*
X172713D01*
X214335Y8000D02*
X220000D01*
X183572Y19850D02*
X193937D01*
X183228Y29299D02*
X189921D01*
X183572Y23000D02*
X188522D01*
X156850Y42635D02*
X156875Y42659D01*
X150551Y42635D02*
X150726Y42809D01*
X153701Y42291D02*
X153850Y42441D01*
X166299Y45399D02*
X168700Y47800D01*
X166299Y42635D02*
Y45399D01*
X144252Y42635D02*
Y48048D01*
X101300Y22900D02*
X104614Y26214D01*
X112850Y44000D02*
Y44098D01*
Y43902D02*
Y44000D01*
X108949Y40000D02*
X112850Y43902D01*
X107087Y48800D02*
X121087Y62800D01*
X104614Y26214D02*
Y36260D01*
X143121Y70200D02*
X144521Y71600D01*
X144900D01*
X114600Y70200D02*
X143121D01*
X150726Y50526D02*
X150900Y50700D01*
X160000Y54100D02*
X162000Y56100D01*
X144900Y56600D02*
X147402Y54098D01*
X112850Y44098D02*
X125352Y56600D01*
X121087Y62800D02*
X227800D01*
X125352Y56600D02*
X144900D01*
X142000Y50300D02*
X144252Y48048D01*
X160000Y42635D02*
Y54100D01*
X175748Y42635D02*
Y49148D01*
X178898Y44798D02*
X185800Y51700D01*
X178898Y42635D02*
Y44798D01*
X175748Y49148D02*
X178100Y51500D01*
X150726Y42809D02*
Y50526D01*
X147402Y42635D02*
Y54098D01*
X156875Y49775D02*
X156900Y49800D01*
X156875Y42659D02*
Y49775D01*
X153850Y58150D02*
X154000Y58300D01*
X153850Y42441D02*
Y58150D01*
X188397Y42635D02*
X188543Y42488D01*
X188397D02*
X188543D01*
X172600Y37787D02*
Y42613D01*
X175650Y3409D02*
Y9452D01*
X159900Y10687D02*
Y15513D01*
X172501Y3409D02*
Y7098D01*
X131909Y3600D02*
X137513D01*
X54000Y86700D02*
Y95945D01*
X131800Y3709D02*
X131909Y3600D01*
X183425Y3512D02*
X183463Y3550D01*
X188091D01*
X188397Y42488D02*
X188470Y42561D01*
X156850Y3709D02*
X156852Y3710D01*
X160000Y3913D02*
Y7398D01*
X166299Y3913D02*
Y7398D01*
X159902Y10481D02*
Y10685D01*
X156852Y8896D02*
X156853Y8898D01*
X150551Y4561D02*
Y9688D01*
X217150Y138683D02*
X240400Y161933D01*
X217150Y95000D02*
Y138683D01*
X210850Y90800D02*
Y95000D01*
X183228Y13551D02*
X193937D01*
X78042Y42933D02*
X78181D01*
X78000D02*
X78042D01*
X78988Y43740D02*
X88079D01*
X78181Y42933D02*
X78988Y43740D01*
X219972Y40205D02*
X220000Y40176D01*
Y27150D02*
Y40176D01*
X72150Y260050D02*
Y265000D01*
X287661Y26280D02*
X293333D01*
X295848Y28795D01*
X301000D01*
X160000Y35413D02*
Y36600D01*
X160100Y36700D01*
X153701Y3709D02*
Y8250D01*
X163151Y3914D02*
Y9748D01*
X163150Y3913D02*
X163151Y3914D01*
X156852Y3710D02*
Y8896D01*
X163151Y9748D02*
X163152Y9750D01*
X159900Y10687D02*
X159902Y10685D01*
D15*
X199579Y13551D02*
X203335Y9795D01*
X193937Y13551D02*
X199579D01*
X305874Y292457D02*
X305896Y292478D01*
X311578D02*
X311600Y292500D01*
X305896Y292478D02*
X311578D01*
X273060Y292417D02*
X273100Y292376D01*
X267874Y292457D02*
X267914Y292417D01*
X273060D01*
X145850Y264000D02*
X146300Y263550D01*
Y259528D02*
Y263550D01*
X143811Y257039D02*
X146300Y259528D01*
X143811Y257000D02*
Y257039D01*
X184819Y262968D02*
X184850Y263000D01*
X184819Y260047D02*
Y262968D01*
X181811Y257000D02*
Y257039D01*
X184819Y260047D01*
X112905Y8328D02*
Y13154D01*
X48598Y30517D02*
Y35342D01*
X81000Y33900D02*
X83360Y36260D01*
X88079D01*
X23400Y31300D02*
Y36125D01*
X220811Y257000D02*
Y260862D01*
X223850Y263902D01*
X115975Y250900D02*
X129335Y264260D01*
X100400Y252657D02*
X102157Y250900D01*
X115975D01*
X100400Y252657D02*
Y256860D01*
X58550Y251800D02*
X73840D01*
X57378Y252972D02*
X58550Y251800D01*
X57378Y252972D02*
Y257000D01*
X73840Y251800D02*
X86300Y264260D01*
X93882D01*
X296849Y256900D02*
X302850Y262902D01*
X295700Y256900D02*
X296849D01*
X292000Y256978D02*
X292078Y256900D01*
X292000Y256978D02*
Y263260D01*
X253000Y258757D02*
X254757Y257000D01*
X257189D01*
X253000Y258757D02*
Y264520D01*
X213000Y258900D02*
X214900Y257000D01*
X213000Y258900D02*
Y264260D01*
X214900Y257000D02*
X217189D01*
X174909Y259242D02*
X177151Y257000D01*
X174909Y259242D02*
Y263051D01*
X177151Y257000D02*
X178189D01*
X136757D02*
X140189D01*
X135000Y258757D02*
Y264260D01*
Y258757D02*
X136757Y257000D01*
X93882Y258757D02*
Y264260D01*
Y258757D02*
X95639Y257000D01*
X100260D01*
X55757D02*
X57378D01*
X54000Y258757D02*
X55757Y257000D01*
X54000Y258757D02*
Y264323D01*
X206600Y299400D02*
X206708D01*
X206852Y299543D02*
X212126D01*
X206708Y299400D02*
X206852Y299543D01*
X187874Y292457D02*
X187954Y292376D01*
X192923D01*
X193000Y292300D01*
X167322Y299522D02*
X172104D01*
X167300Y299500D02*
X167322Y299522D01*
X172104D02*
X172126Y299543D01*
X147874Y292457D02*
X153248D01*
X153392Y292600D01*
X153500D01*
X12000Y299669D02*
Y305200D01*
Y299669D02*
X12126Y299543D01*
X27874Y292457D02*
X28054Y292277D01*
X33024D01*
X33100Y292200D01*
X46945Y299543D02*
X52126D01*
X86500Y299700D02*
X86608D01*
X86765Y299543D02*
X92126D01*
X86608Y299700D02*
X86765Y299543D01*
X73348Y292457D02*
X73492Y292600D01*
X73600D01*
X67874Y292457D02*
X73348D01*
X126300Y299700D02*
X126408D01*
X126565Y299543D02*
X132126D01*
X126408Y299700D02*
X126565Y299543D01*
X113748Y292457D02*
X113892Y292600D01*
X114000D01*
X107874Y292457D02*
X113748D01*
X227874D02*
X233400D01*
X246765Y299543D02*
X252126D01*
X246500Y299700D02*
X246608D01*
X246765Y299543D01*
X16389Y251711D02*
Y255770D01*
X258808Y202000D02*
X267500D01*
X197208Y201800D02*
X205900D01*
X197000Y201900D02*
X197108D01*
X197208Y201800D01*
X47205Y223000D02*
Y227825D01*
X97000Y185025D02*
Y189850D01*
X76000Y191000D02*
X80825D01*
X53150Y152000D02*
X57975D01*
X10025Y115000D02*
X14850D01*
X66100Y92575D02*
X70925D01*
X66100Y102500D02*
X70925D01*
X89150Y109000D02*
X93975D01*
X89150Y91000D02*
X93975D01*
X24000Y53331D02*
Y58156D01*
X62000Y52150D02*
X66825D01*
X113205Y22107D02*
Y26932D01*
X-0Y-1102D02*
X2600D01*
X-0D02*
Y-0D01*
X0Y0D02*
Y320000D01*
X1102Y-1102D02*
X320000D01*
X320000Y320000D02*
X320000Y-1102D01*
X-0Y320000D02*
X320000D01*
D16*
X43323Y107500D02*
D03*
X64677Y92500D02*
D03*
Y97500D02*
D03*
Y102500D02*
D03*
Y107500D02*
D03*
X43323Y102500D02*
D03*
Y97500D02*
D03*
Y92500D02*
D03*
D17*
X54000Y272000D02*
D03*
Y264520D02*
D03*
X14000Y264260D02*
D03*
Y271740D02*
D03*
X135000Y264260D02*
D03*
Y271740D02*
D03*
X93882Y264260D02*
D03*
Y271740D02*
D03*
X292000Y263260D02*
D03*
Y270740D02*
D03*
X253000Y264520D02*
D03*
Y272000D02*
D03*
X213000Y264260D02*
D03*
Y271740D02*
D03*
X174000Y263520D02*
D03*
Y271000D02*
D03*
D18*
X112905Y8300D02*
D03*
X118495D02*
D03*
D19*
X136575Y3512D02*
D03*
Y42488D02*
D03*
X183425D02*
D03*
Y3512D02*
D03*
D20*
X152224Y23000D02*
D03*
Y30776D02*
D03*
X160000D02*
D03*
X167776D02*
D03*
Y23000D02*
D03*
Y15224D02*
D03*
X160000D02*
D03*
X152224D02*
D03*
X160000Y23000D02*
D03*
D21*
X178898Y3709D02*
D03*
X175748D02*
D03*
X172598D02*
D03*
X169449D02*
D03*
X166299D02*
D03*
X163150D02*
D03*
X160000D02*
D03*
X156850D02*
D03*
X153701D02*
D03*
X150551D02*
D03*
X147402D02*
D03*
X144252D02*
D03*
X141102D02*
D03*
Y42291D02*
D03*
X144252D02*
D03*
X147402D02*
D03*
X150551D02*
D03*
X153701D02*
D03*
X156850D02*
D03*
X160000D02*
D03*
X163150D02*
D03*
X166299D02*
D03*
X169449D02*
D03*
X172598D02*
D03*
X175748D02*
D03*
X178898D02*
D03*
D22*
X136772Y7252D02*
D03*
Y10402D02*
D03*
Y13551D02*
D03*
Y16701D02*
D03*
Y19850D02*
D03*
Y23000D02*
D03*
Y26150D02*
D03*
Y29299D02*
D03*
Y32449D02*
D03*
Y35598D02*
D03*
Y38748D02*
D03*
X183228D02*
D03*
Y35598D02*
D03*
Y32449D02*
D03*
Y29299D02*
D03*
Y26150D02*
D03*
Y23000D02*
D03*
Y19850D02*
D03*
Y16701D02*
D03*
Y13551D02*
D03*
Y10402D02*
D03*
Y7252D02*
D03*
D23*
X119150Y44000D02*
D03*
X112850D02*
D03*
X97450Y22900D02*
D03*
X91150D02*
D03*
X288150Y63000D02*
D03*
X281850D02*
D03*
X278150Y8000D02*
D03*
X271850D02*
D03*
X288000Y48000D02*
D03*
X281701D02*
D03*
X275150Y63000D02*
D03*
X268850D02*
D03*
X274850Y48000D02*
D03*
X268551D02*
D03*
X65850Y265000D02*
D03*
X72150D02*
D03*
X24850Y264000D02*
D03*
X31150D02*
D03*
X145850D02*
D03*
X152150D02*
D03*
X105732D02*
D03*
X112031D02*
D03*
X302850Y263000D02*
D03*
X309150D02*
D03*
X263850Y264000D02*
D03*
X270150D02*
D03*
X223850D02*
D03*
X230150D02*
D03*
X184850Y263000D02*
D03*
X191150D02*
D03*
X210850Y95000D02*
D03*
X217150D02*
D03*
X23150Y98000D02*
D03*
X16850D02*
D03*
X23150Y80000D02*
D03*
X16850D02*
D03*
X46850Y152000D02*
D03*
X53150D02*
D03*
X82850Y91000D02*
D03*
X89150D02*
D03*
X22150Y106000D02*
D03*
X15850D02*
D03*
Y89000D02*
D03*
X22150D02*
D03*
D24*
X257189Y257000D02*
D03*
X260811D02*
D03*
X57378D02*
D03*
X61000D02*
D03*
X16378Y256000D02*
D03*
X20000D02*
D03*
X140189Y257000D02*
D03*
X143811D02*
D03*
X100260D02*
D03*
X103882D02*
D03*
X292078Y256900D02*
D03*
X295700D02*
D03*
X217189Y257000D02*
D03*
X220811D02*
D03*
X178189D02*
D03*
X181811D02*
D03*
D25*
X78000Y42933D02*
D03*
Y41067D02*
D03*
X308000Y160067D02*
D03*
Y161933D02*
D03*
X244000Y160067D02*
D03*
Y161933D02*
D03*
X220400Y7933D02*
D03*
Y6067D02*
D03*
X248000Y13000D02*
D03*
Y11134D02*
D03*
Y44134D02*
D03*
Y46000D02*
D03*
X96000Y212866D02*
D03*
Y211000D02*
D03*
D26*
X88079Y43740D02*
D03*
Y40000D02*
D03*
Y36260D02*
D03*
X97921D02*
D03*
Y40000D02*
D03*
Y43740D02*
D03*
D27*
X301000Y28795D02*
D03*
Y23205D02*
D03*
X220000Y40205D02*
D03*
Y45795D02*
D03*
D28*
X287661Y21161D02*
D03*
Y23720D02*
D03*
Y26280D02*
D03*
Y28839D02*
D03*
X270339D02*
D03*
Y26280D02*
D03*
Y23720D02*
D03*
Y21161D02*
D03*
D29*
X52126Y292457D02*
D03*
X67874D02*
D03*
Y299543D02*
D03*
X52126D02*
D03*
X132126Y292457D02*
D03*
X147874D02*
D03*
Y299543D02*
D03*
X132126D02*
D03*
X92126Y292457D02*
D03*
X107874D02*
D03*
Y299543D02*
D03*
X92126D02*
D03*
X12126Y292457D02*
D03*
X27874D02*
D03*
Y299543D02*
D03*
X12126D02*
D03*
X290126Y292457D02*
D03*
X305874D02*
D03*
Y299543D02*
D03*
X290126D02*
D03*
X252126Y292457D02*
D03*
X267874D02*
D03*
Y299543D02*
D03*
X252126D02*
D03*
X212126Y292457D02*
D03*
X227874D02*
D03*
Y299543D02*
D03*
X212126D02*
D03*
X172126Y292457D02*
D03*
X187874D02*
D03*
Y299543D02*
D03*
X172126D02*
D03*
D30*
X305913Y184142D02*
D03*
X270087D02*
D03*
X305913Y201858D02*
D03*
X270087D02*
D03*
X243913Y184142D02*
D03*
X208087D02*
D03*
X243913Y201858D02*
D03*
X208087D02*
D03*
D31*
X220000Y27150D02*
D03*
Y20850D02*
D03*
X24000Y45850D02*
D03*
Y52150D02*
D03*
X62000Y45850D02*
D03*
Y52150D02*
D03*
D32*
X209000Y9795D02*
D03*
Y4205D02*
D03*
X239000Y15862D02*
D03*
Y10272D02*
D03*
D33*
X32913Y73000D02*
D03*
X47087D02*
D03*
D34*
X13000Y51598D02*
D03*
Y46402D02*
D03*
X35000D02*
D03*
Y51598D02*
D03*
X48000Y46402D02*
D03*
Y51598D02*
D03*
D35*
X48598Y29701D02*
D03*
X45449D02*
D03*
X26551D02*
D03*
X23402D02*
D03*
D36*
X42890D02*
D03*
X40921D02*
D03*
X38953D02*
D03*
X36984D02*
D03*
X29110D02*
D03*
X31079D02*
D03*
X33047D02*
D03*
X35016D02*
D03*
D37*
X74992Y190984D02*
D03*
Y200000D02*
D03*
Y209016D02*
D03*
D38*
X49008Y200000D02*
D03*
D39*
X97000Y190165D02*
D03*
Y195835D02*
D03*
D40*
X52795Y223000D02*
D03*
X47205D02*
D03*
X118795Y22000D02*
D03*
X113205D02*
D03*
X83205Y109000D02*
D03*
X88795D02*
D03*
X20795Y115000D02*
D03*
X15205D02*
D03*
D41*
X37299Y144520D02*
D03*
Y148260D02*
D03*
Y152000D02*
D03*
X31000D02*
D03*
Y148260D02*
D03*
Y144520D02*
D03*
D42*
X15540Y151000D02*
D03*
X8060D02*
D03*
D43*
X54000Y100000D02*
D03*
D44*
X18267Y167400D02*
D03*
X20133D02*
D03*
D45*
X23433Y132839D02*
D03*
Y130280D02*
D03*
Y127720D02*
D03*
Y125161D02*
D03*
X46567D02*
D03*
Y127720D02*
D03*
Y130280D02*
D03*
Y132839D02*
D03*
D83*
X13200Y174900D02*
Y200970D01*
D84*
X34207Y107500D02*
X43323D01*
X118864Y8314D02*
X126096D01*
X118850Y8300D02*
X118864Y8314D01*
X126096D02*
X126110Y8328D01*
X118795Y22000D02*
X126410D01*
X274850Y48000D02*
X281701D01*
X14000Y271740D02*
Y281800D01*
X12126Y283674D02*
Y292457D01*
Y283674D02*
X14000Y281800D01*
X46945Y291578D02*
X47824Y292457D01*
X46945Y272879D02*
Y291578D01*
X47824Y292457D02*
X52126D01*
X46945Y272879D02*
X47824Y272000D01*
X54000D01*
X41174Y23100D02*
X44930Y26856D01*
X28293Y26007D02*
X31200Y23100D01*
X41174D01*
X26982Y26943D02*
X27919Y26007D01*
X26982Y26943D02*
Y29270D01*
X27919Y26007D02*
X28293D01*
X119200Y43950D02*
X123550D01*
X123600Y43900D01*
X119150Y44000D02*
X119200Y43950D01*
X214335Y20850D02*
X220000D01*
X18972Y44300D02*
X26551Y36722D01*
Y29701D02*
Y36722D01*
Y29701D02*
X26982Y29270D01*
X44930Y26856D02*
Y27328D01*
X45018Y27415D01*
Y28207D01*
X45449Y28638D01*
Y29701D01*
X13000Y51598D02*
Y64300D01*
X15100Y66400D01*
X44900D01*
X47087Y68587D01*
Y73000D01*
X42890Y33890D02*
X47700Y38700D01*
X54751D01*
X61902Y45850D02*
X62000D01*
X54751Y38700D02*
X61902Y45850D01*
X52915Y125161D02*
X53006Y125070D01*
X57201D01*
X46567Y125161D02*
X52915D01*
X57201Y125070D02*
X58170Y126040D01*
Y143641D01*
X37299Y144520D02*
X57292D01*
X58170Y143641D01*
X77539Y91000D02*
X82850D01*
X71039Y97500D02*
X77539Y91000D01*
X64677Y97500D02*
X71039D01*
X17970Y81120D02*
X22150Y85299D01*
X17872Y81120D02*
X17970D01*
X22150Y85299D02*
Y89000D01*
X16850Y80098D02*
X17872Y81120D01*
X16850Y80000D02*
Y80098D01*
X32950Y94450D02*
X36000Y97500D01*
X43323D01*
X17493Y94450D02*
X32950D01*
X15850Y92807D02*
X17493Y94450D01*
X15850Y89000D02*
Y92807D01*
X32400Y102300D02*
X43123D01*
X43323Y102500D01*
X28700Y106000D02*
X32400Y102300D01*
X22150Y106000D02*
X28700D01*
X12686D02*
X15850D01*
X12686Y97793D02*
X16643D01*
X11807Y98671D02*
X12686Y97793D01*
X11807Y105121D02*
X12686Y106000D01*
X11807Y98671D02*
Y105121D01*
X16643Y97793D02*
X16850Y98000D01*
X20700Y139100D02*
X30121D01*
X31000Y139979D01*
X17172Y135572D02*
X20700Y139100D01*
X31000Y139979D02*
Y144520D01*
X17172Y130452D02*
Y135572D01*
X17000Y130280D02*
X17172Y130452D01*
X11674Y127710D02*
X14072Y130107D01*
X11664Y127700D02*
X11674Y127710D01*
X23423D01*
X14072Y130107D02*
X16828D01*
X17000Y130280D01*
X11600Y127700D02*
X11664D01*
X230150Y264000D02*
X235815D01*
X18972Y44300D02*
Y50720D01*
X13000Y51598D02*
X18094D01*
X18972Y50720D01*
X265039Y94539D02*
Y106000D01*
X294961Y95439D02*
Y106000D01*
X85485Y22900D02*
X91150D01*
X77539Y109000D02*
X83205D01*
X64677Y107500D02*
X70343D01*
X23150Y98000D02*
X28815D01*
X15737Y145335D02*
Y151000D01*
X284900Y299543D02*
X290126D01*
X265254Y26400D02*
X265374Y26280D01*
X260600Y26400D02*
X265254D01*
X265374Y26280D02*
X270339D01*
X23150Y80000D02*
X28815D01*
X27248Y73000D02*
X32913D01*
X37657Y92500D02*
X43323D01*
X20795Y115000D02*
X26461D01*
X17000Y130280D02*
X20795D01*
X23423Y127710D02*
X23433Y127720D01*
X25335Y148260D02*
X31000D01*
X76000Y200000D02*
X81665D01*
X91300Y195800D02*
X91335Y195835D01*
X97000D01*
X52806Y223011D02*
Y227070D01*
X16389Y255770D02*
X16400Y255781D01*
X16389Y251711D02*
X16400Y251700D01*
X6500Y264300D02*
X6540Y264260D01*
X46567Y127720D02*
X54580D01*
X46567Y130280D02*
X51392D01*
D85*
X263850Y260039D02*
Y264000D01*
X263579Y264272D02*
X263850Y264000D01*
X260811Y257000D02*
X263850Y260039D01*
X61000Y257000D02*
X65579Y261579D01*
Y264630D02*
X65850Y264902D01*
X65579Y261579D02*
Y264630D01*
X65850Y264902D02*
Y272879D01*
X24850Y257757D02*
Y264000D01*
X20000Y256000D02*
X23093D01*
X24850Y257757D01*
X53792Y264311D02*
X54000Y264520D01*
X48323Y264311D02*
X53792D01*
X88057Y292402D02*
X92071D01*
X88057Y271740D02*
X93882D01*
X86300Y273498D02*
Y290644D01*
X88057Y292402D01*
X92071D02*
X92126Y292457D01*
X86300Y273498D02*
X88057Y271740D01*
X54000Y264323D02*
Y264520D01*
X125100Y273498D02*
Y290644D01*
X126857Y292402D02*
X132071D01*
X125100Y290644D02*
X126857Y292402D01*
Y271740D02*
X135000D01*
X125100Y273498D02*
X126857Y271740D01*
X132071Y292402D02*
X132126Y292457D01*
X165100Y290699D02*
X166857Y292457D01*
X165100Y273157D02*
Y290699D01*
X173600Y271400D02*
X174000Y271000D01*
X166857Y292457D02*
X172126D01*
X165100Y273157D02*
X166857Y271400D01*
X173600D01*
X205757Y292457D02*
X212126D01*
X204000Y290699D02*
X205757Y292457D01*
X204000Y274057D02*
Y290699D01*
Y274057D02*
X205849Y272209D01*
X212531D01*
X213000Y271740D01*
X243500Y290600D02*
X245357Y292457D01*
X252126D01*
X243500Y273757D02*
Y290600D01*
Y273757D02*
X245257Y272000D01*
X253000D01*
X284100Y272498D02*
Y290699D01*
X285857Y292457D02*
X290126D01*
X284100Y290699D02*
X285857Y292457D01*
X284100Y272498D02*
X285857Y270740D01*
X292000D01*
X223850Y263902D02*
Y264000D01*
X100260Y257000D02*
X100400Y256860D01*
X302850Y262902D02*
Y263000D01*
Y272150D01*
X315500Y284800D02*
Y297786D01*
X302850Y272150D02*
X315500Y284800D01*
X305874Y299543D02*
X313743D01*
X315500Y297786D01*
X267874Y299543D02*
X274743D01*
X276500Y297786D01*
Y282600D02*
Y297786D01*
X263579Y269679D02*
X276500Y282600D01*
X263579Y264272D02*
Y269679D01*
X237600Y285800D02*
Y297786D01*
X235843Y299543D02*
X237600Y297786D01*
X223850Y272050D02*
X237600Y285800D01*
X227874Y299543D02*
X235843D01*
X223850Y264000D02*
Y272050D01*
X184850Y263000D02*
Y271400D01*
X197500Y284050D01*
Y297600D01*
X195557Y299543D02*
X197500Y297600D01*
X187874Y299543D02*
X195557D01*
X151050Y278300D02*
X157900Y285150D01*
X147874Y299543D02*
X156143D01*
X157900Y285150D02*
Y297786D01*
X156143Y299543D02*
X157900Y297786D01*
X151050Y278300D02*
X151050D01*
X145850Y273100D02*
X151050Y278300D01*
X145850Y264000D02*
Y273100D01*
X105732Y264000D02*
Y268732D01*
X119500Y282500D02*
Y297786D01*
X105732Y268732D02*
X119500Y282500D01*
X117743Y299543D02*
X119500Y297786D01*
X107874Y299543D02*
X117743D01*
X65850Y272879D02*
X80400Y287428D01*
X78643Y299543D02*
X80400Y297786D01*
Y287428D02*
Y297786D01*
X67874Y299543D02*
X78643D01*
X24850Y264000D02*
Y271650D01*
X36243Y299543D02*
X38000Y297786D01*
X27874Y299543D02*
X36243D01*
X38000Y284800D02*
Y297786D01*
X24850Y271650D02*
X38000Y284800D01*
X174000Y263520D02*
X174441D01*
X174909Y263051D01*
X286335Y263260D02*
X292000D01*
X247335Y264520D02*
X253000D01*
X129335Y264260D02*
X135000D01*
X167135Y263400D02*
X172800D01*
X207335Y264260D02*
X213000D01*
X6540D02*
X14000D01*
D86*
X130079Y30776D02*
X130135D01*
X131808Y32449D01*
X136428D01*
X131227Y35598D02*
X136772D01*
X130079Y36260D02*
X130565D01*
X131227Y35598D01*
X38953Y26943D02*
Y29701D01*
X35305Y27129D02*
X35979Y26455D01*
X38465D01*
X38953Y26943D01*
X35016Y29701D02*
X35305Y29412D01*
Y27129D02*
Y29412D01*
X36984Y32929D02*
Y34234D01*
Y29701D02*
Y32929D01*
X33047Y32576D02*
X33418Y32946D01*
X36967D01*
X36984Y32929D01*
X33047Y29701D02*
Y32576D01*
X38953Y29701D02*
Y34219D01*
X33047Y29701D02*
X33336Y29412D01*
X36695D02*
X36984Y29701D01*
X40799Y38049D02*
Y42421D01*
X35000Y43488D02*
X39731D01*
X40799Y42421D01*
X35000Y43488D02*
Y46402D01*
X36984Y34234D02*
X40799Y38049D01*
X48000Y43488D02*
Y46402D01*
X42202Y42421D02*
X43269Y43488D01*
X48000D01*
X42202Y37468D02*
Y42421D01*
X38953Y34219D02*
X42202Y37468D01*
X35016Y29701D02*
X35305Y29990D01*
D87*
X203335Y9795D02*
X209000D01*
X76011Y209005D02*
X80070D01*
X233335Y15862D02*
X239000D01*
D88*
X25800Y236300D02*
D03*
X73300Y69200D02*
D03*
X307700Y52400D02*
D03*
X303400Y237600D02*
D03*
D89*
X23000Y200000D02*
D03*
D90*
X13157D02*
D03*
D91*
X265039Y106000D02*
D03*
X294961D02*
D03*
D92*
X53028Y11000D02*
D03*
X18972D02*
D03*
D93*
X53028Y27417D02*
D03*
X18972D02*
D03*
D94*
X47378Y25488D02*
D03*
X24622D02*
D03*
D95*
X13200Y174900D02*
D03*
X34207Y107500D02*
D03*
X149700Y239400D02*
D03*
X61100Y176900D02*
D03*
Y167700D02*
D03*
Y158200D02*
D03*
X98300Y176900D02*
D03*
X86100D02*
D03*
X85900Y167700D02*
D03*
X98300D02*
D03*
X97300Y158100D02*
D03*
X85900Y158400D02*
D03*
X73600Y158700D02*
D03*
X74100Y167700D02*
D03*
Y176900D02*
D03*
X126110Y8328D02*
D03*
X126410Y22000D02*
D03*
X160100Y36700D02*
D03*
X153701Y8250D02*
D03*
X311600Y292500D02*
D03*
X156853Y8898D02*
D03*
X163152Y9750D02*
D03*
X159902Y10481D02*
D03*
X160000Y7398D02*
D03*
X166299D02*
D03*
X150551Y9688D02*
D03*
X273100Y292376D02*
D03*
X210850Y90800D02*
D03*
X217150Y98965D02*
D03*
X193937Y13551D02*
D03*
X48572Y264063D02*
D03*
X72100Y260000D02*
D03*
X129335Y264260D02*
D03*
X167135Y263400D02*
D03*
X54000Y86700D02*
D03*
X112905Y13154D02*
D03*
X130079Y30776D02*
D03*
Y36260D02*
D03*
X131800Y3709D02*
D03*
X188091Y3550D02*
D03*
X188470Y42561D02*
D03*
X35000Y43488D02*
D03*
X48000D02*
D03*
X48598Y35342D02*
D03*
X104614Y36260D02*
D03*
X81000Y33900D02*
D03*
X83269Y39900D02*
D03*
X73191Y40967D02*
D03*
X123600Y43900D02*
D03*
X172813Y15100D02*
D03*
X172713Y23100D02*
D03*
X114600Y70200D02*
D03*
X144900Y56600D02*
D03*
X178100Y51500D02*
D03*
X144900Y71600D02*
D03*
X162000Y56100D02*
D03*
X142000Y50300D02*
D03*
X185800Y51700D02*
D03*
X156900Y49800D02*
D03*
X168700Y47800D02*
D03*
X154000Y58300D02*
D03*
X150900Y50700D02*
D03*
X189921Y29299D02*
D03*
X188572Y22950D02*
D03*
X214335Y20850D02*
D03*
X193937Y19850D02*
D03*
X233335Y15862D02*
D03*
X203335Y9795D02*
D03*
X214335Y8000D02*
D03*
X101300Y22900D02*
D03*
X23400Y36125D02*
D03*
X183600Y210500D02*
D03*
X192900D02*
D03*
X167000Y231600D02*
D03*
X156876Y127555D02*
D03*
X200836Y125436D02*
D03*
X190000Y126600D02*
D03*
X196000Y95800D02*
D03*
X155300Y145800D02*
D03*
X177950Y121550D02*
D03*
X162100Y121300D02*
D03*
X154350Y119850D02*
D03*
X149200Y111300D02*
D03*
X193500Y86300D02*
D03*
X105000Y200900D02*
D03*
X126900Y197700D02*
D03*
X15900Y123400D02*
D03*
X37300Y157000D02*
D03*
X80081Y209016D02*
D03*
X111982Y259000D02*
D03*
X86300Y264260D02*
D03*
X235815Y264000D02*
D03*
X48000Y56859D02*
D03*
X312809Y162033D02*
D03*
X261600Y19400D02*
D03*
X268600Y52900D02*
D03*
X264970Y94470D02*
D03*
X295100Y95300D02*
D03*
X85485Y22900D02*
D03*
X77539Y109000D02*
D03*
X70343Y107500D02*
D03*
X28815Y98000D02*
D03*
X309100Y258000D02*
D03*
X270100Y259000D02*
D03*
X191100Y258000D02*
D03*
X152100Y259000D02*
D03*
X31100D02*
D03*
X206600Y299400D02*
D03*
X193000Y292300D02*
D03*
X167300Y299500D02*
D03*
X153500Y292600D02*
D03*
X12000Y305200D02*
D03*
X33100Y292200D02*
D03*
X46945Y299543D02*
D03*
X86500Y299700D02*
D03*
X73600Y292600D02*
D03*
X126300Y299700D02*
D03*
X114000Y292600D02*
D03*
X233400Y292457D02*
D03*
X246500Y299700D02*
D03*
X284900Y299543D02*
D03*
X286335Y263260D02*
D03*
X247335Y264520D02*
D03*
X207335Y264260D02*
D03*
X260600Y26400D02*
D03*
X248000Y18914D02*
D03*
X28815Y80000D02*
D03*
X27248Y73000D02*
D03*
X37657Y92500D02*
D03*
X26461Y115000D02*
D03*
X17000Y130280D02*
D03*
X11600Y127700D02*
D03*
X25335Y148260D02*
D03*
X15737Y145335D02*
D03*
X81665Y200000D02*
D03*
X91335Y195835D02*
D03*
X90234Y212877D02*
D03*
X52795Y227081D02*
D03*
X16400Y251700D02*
D03*
X6500Y264300D02*
D03*
X34900Y56959D02*
D03*
X13100Y41592D02*
D03*
X303191Y159967D02*
D03*
X249400Y160167D02*
D03*
X101400Y211100D02*
D03*
X54580Y127720D02*
D03*
X258600Y202100D02*
D03*
X197000Y201900D02*
D03*
X47205Y227825D02*
D03*
X97000Y185025D02*
D03*
X80825Y191000D02*
D03*
X57975Y152000D02*
D03*
X51392Y130280D02*
D03*
X10025Y115000D02*
D03*
X70925Y92575D02*
D03*
Y102500D02*
D03*
X93975Y109000D02*
D03*
Y91000D02*
D03*
X24000Y58156D02*
D03*
X66825Y52150D02*
D03*
X113205Y26932D02*
D03*
X224972Y6134D02*
D03*
X305854Y23205D02*
D03*
X264186Y23720D02*
D03*
X266682Y8000D02*
D03*
X252972Y11134D02*
D03*
X234068Y10272D02*
D03*
X204068Y4205D02*
D03*
X215146Y40205D02*
D03*
Y45795D02*
D03*
X136772Y47460D02*
D03*
X178987Y38700D02*
D03*
X172600Y37787D02*
D03*
X167900Y35713D02*
D03*
X146187Y30776D02*
D03*
X146287Y23000D02*
D03*
X147399Y15224D02*
D03*
X188091Y7302D02*
D03*
X178898Y7098D02*
D03*
X179399Y10302D02*
D03*
X172498Y7100D02*
D03*
X175650Y9452D02*
D03*
X169449Y9956D02*
D03*
X147399Y8252D02*
D03*
X144252Y9752D02*
D03*
X141100Y7400D02*
D03*
M02*
