G04*
G04 #@! TF.GenerationSoftware,Altium Limited,Altium Designer,21.4.1 (30)*
G04*
G04 Layer_Physical_Order=4*
G04 Layer_Color=16711680*
%FSLAX25Y25*%
%MOIN*%
G70*
G04*
G04 #@! TF.SameCoordinates,33869DAC-2610-4982-977A-49529E3958AE*
G04*
G04*
G04 #@! TF.FilePolarity,Positive*
G04*
G01*
G75*
%ADD13C,0.00600*%
%ADD14C,0.01000*%
%ADD82C,0.01500*%
%ADD85C,0.00603*%
%ADD87R,0.06496X0.06496*%
%ADD88C,0.06496*%
%ADD89C,0.12000*%
%ADD90C,0.05937*%
%ADD91O,0.03543X0.06693*%
%ADD92O,0.03543X0.07874*%
%ADD93C,0.02362*%
%ADD94C,0.02400*%
%ADD103C,0.01606*%
G36*
X62050Y-67D02*
X62012Y-106D01*
X13512D01*
Y23194D01*
X14412Y24094D01*
X17423Y24096D01*
X17448Y23974D01*
X17994Y23156D01*
X18812Y22610D01*
X19776Y22418D01*
X20740Y22610D01*
X21558Y23156D01*
X22104Y23974D01*
X22129Y24099D01*
X23840Y24100D01*
X24360Y23579D01*
X25051Y23293D01*
X25800D01*
X26491Y23579D01*
X27013Y24102D01*
X46585Y24114D01*
X46587Y24109D01*
X47116Y23579D01*
X47807Y23293D01*
X48556D01*
X49247Y23579D01*
X49776Y24109D01*
X49779Y24116D01*
X51474Y24117D01*
X51503Y23974D01*
X52049Y23156D01*
X52867Y22610D01*
X53831Y22418D01*
X54796Y22610D01*
X55613Y23156D01*
X56159Y23974D01*
X56188Y24119D01*
X62050Y24123D01*
Y-67D01*
D02*
G37*
G36*
X17400Y226900D02*
Y170300D01*
X3100D01*
X3900Y171100D01*
Y227300D01*
X3700Y227500D01*
X16600D01*
X16700Y227600D01*
X17400Y226900D01*
D02*
G37*
%LPC*%
G36*
X53831Y14781D02*
X52867Y14589D01*
X52049Y14043D01*
X51503Y13225D01*
X51311Y12261D01*
Y9111D01*
X51503Y8147D01*
X52049Y7329D01*
X52867Y6783D01*
X53831Y6591D01*
X54796Y6783D01*
X55613Y7329D01*
X56159Y8147D01*
X56351Y9111D01*
Y12261D01*
X56159Y13225D01*
X55613Y14043D01*
X54796Y14589D01*
X53831Y14781D01*
D02*
G37*
G36*
X19776D02*
X18812Y14589D01*
X17994Y14043D01*
X17448Y13225D01*
X17256Y12261D01*
Y9111D01*
X17448Y8147D01*
X17994Y7329D01*
X18812Y6783D01*
X19776Y6591D01*
X20740Y6783D01*
X21558Y7329D01*
X22104Y8147D01*
X22296Y9111D01*
Y12261D01*
X22104Y13225D01*
X21558Y14043D01*
X20740Y14589D01*
X19776Y14781D01*
D02*
G37*
%LPD*%
D13*
X30542Y136925D02*
Y156334D01*
X16704Y123086D02*
X30542Y136925D01*
Y156334D02*
X30894Y156686D01*
X38104D01*
X211008Y72913D02*
X225908Y87813D01*
X198760Y72913D02*
X211008D01*
X196808Y70961D02*
X198760Y72913D01*
X196808Y65064D02*
Y70961D01*
X196457Y64713D02*
X196808Y65064D01*
X193508Y64713D02*
X196457D01*
X189395Y60599D02*
X193508Y64713D01*
X187382Y60599D02*
X189395D01*
X184399Y63582D02*
X187382Y60599D01*
X170681Y63582D02*
X184399D01*
X167984Y60885D02*
X170681Y63582D01*
X158508Y60885D02*
X167984D01*
X154103Y65291D02*
Y69684D01*
Y65291D02*
X158508Y60885D01*
X153508Y70279D02*
Y73213D01*
Y70279D02*
X154103Y69684D01*
X299908Y9764D02*
Y18174D01*
X248608Y9413D02*
X299557D01*
X299908Y9764D01*
X246908Y11113D02*
Y30113D01*
Y11113D02*
X248608Y9413D01*
X29504Y114532D02*
X34750Y109286D01*
Y107447D02*
X35011Y107186D01*
X34750Y107447D02*
Y109286D01*
X311677Y166113D02*
X313607Y164183D01*
Y153489D02*
Y164183D01*
X303304Y143186D02*
X313607Y153489D01*
X231518Y41200D02*
X245304Y54986D01*
X223664Y41200D02*
X231518D01*
X245304Y54986D02*
Y137700D01*
X250789Y143186D01*
X303304D01*
D14*
X211808Y46113D02*
X222008D01*
X223664Y41200D02*
Y44458D01*
X222008Y46113D02*
X223664Y44458D01*
X204108Y53813D02*
X211808Y46113D01*
X168608Y87113D02*
X176208Y94713D01*
Y110013D01*
X169434Y73213D02*
Y79940D01*
X168608Y80765D02*
Y87113D01*
Y80765D02*
X169434Y79940D01*
D82*
X38791Y107195D02*
X43108Y111513D01*
X67951D02*
X74951Y104512D01*
X43108Y111513D02*
X67951D01*
X38791Y91726D02*
Y107195D01*
Y85538D02*
Y91726D01*
X33331Y97186D02*
X38791Y91726D01*
X256904Y20886D02*
Y34807D01*
X258704Y19086D02*
X262404D01*
X256904Y20886D02*
X258704Y19086D01*
X78171Y108514D02*
X78343Y108686D01*
X74951Y104512D02*
X78171Y107732D01*
Y108514D01*
X32463Y80215D02*
X32636Y80388D01*
Y84683D01*
X28052Y72686D02*
X32463Y77098D01*
Y80215D01*
X32636Y84683D02*
X33968Y86016D01*
Y90068D01*
X32636Y96374D02*
X33204Y96942D01*
X32636Y91400D02*
X33968Y90068D01*
X33204Y96942D02*
Y97186D01*
X32636Y91400D02*
Y96374D01*
X33204Y97186D02*
X33331D01*
X256904Y34807D02*
X257782Y35686D01*
X294204D01*
X8804Y120465D02*
X9682Y119586D01*
X8804Y120465D02*
Y128603D01*
X9682Y119586D02*
X54104D01*
X8804Y128603D02*
X12604Y132403D01*
X86289Y16965D02*
Y22586D01*
X87167Y16086D02*
X121614D01*
X86289Y16965D02*
X87167Y16086D01*
X121614D02*
X127214Y21686D01*
X295904Y37386D02*
Y94986D01*
X294204Y35686D02*
X295904Y37386D01*
X265773Y56216D02*
Y94156D01*
Y56216D02*
X269404Y52586D01*
D85*
X138396Y65223D02*
X139559Y64059D01*
X141048Y54982D02*
Y60586D01*
X139559Y64059D02*
X140727D01*
X141048Y64380D01*
X137815Y63819D02*
X141048Y60586D01*
X136734Y65223D02*
X138396D01*
X128308Y36991D02*
Y56797D01*
X136734Y65223D01*
X122347Y31030D02*
X128308Y36991D01*
X74947Y31030D02*
X122347D01*
X45114Y39485D02*
X48804Y43174D01*
X45468Y38632D02*
X52287D01*
X45114Y38985D02*
Y39485D01*
Y38985D02*
X45468Y38632D01*
X52287D02*
X63533Y27386D01*
X71304D02*
X74947Y31030D01*
X63533Y27386D02*
X71304D01*
X129711Y36410D02*
Y56216D01*
X137315Y63819D02*
X137815D01*
X129711Y56216D02*
X137315Y63819D01*
X75528Y29627D02*
X122929D01*
X129711Y36410D01*
X38231Y43174D02*
X44176Y37229D01*
X51706D01*
X35804Y43174D02*
X38231D01*
X51706Y37229D02*
X62952Y25983D01*
X71885D02*
X75528Y29627D01*
X62952Y25983D02*
X71885D01*
D87*
X13961Y199686D02*
D03*
D88*
X23804D02*
D03*
D89*
X26604Y235986D02*
D03*
X74104Y68886D02*
D03*
X308504Y52086D02*
D03*
X304204Y237286D02*
D03*
D90*
X265848Y102913D02*
D03*
X295769D02*
D03*
D91*
X53831Y10686D02*
D03*
X19776D02*
D03*
D92*
X53831Y27103D02*
D03*
X19776D02*
D03*
D93*
X48182Y25174D02*
D03*
X25426D02*
D03*
D94*
X183508Y52000D02*
D03*
X175605D02*
D03*
X175600Y44000D02*
D03*
X179800Y47900D02*
D03*
X171700Y47509D02*
D03*
Y39600D02*
D03*
X81804Y33586D02*
D03*
X55508Y126406D02*
D03*
X47058Y141532D02*
D03*
X35106Y137663D02*
D03*
X26138Y148032D02*
D03*
X61283Y154813D02*
D03*
X179008Y87713D02*
D03*
X176208Y110013D02*
D03*
X168808Y111813D02*
D03*
X188331Y62800D02*
D03*
X182208Y75113D02*
D03*
X156008Y85413D02*
D03*
X172708Y79013D02*
D03*
X160208Y112513D02*
D03*
X225908Y58051D02*
D03*
Y87813D02*
D03*
X299908Y18174D02*
D03*
X246908Y30113D02*
D03*
X204308Y75113D02*
D03*
X194808Y78913D02*
D03*
X204108Y53813D02*
D03*
X204017Y47637D02*
D03*
X192508Y60413D02*
D03*
X153308Y226713D02*
D03*
X159908Y235313D02*
D03*
X167804Y231286D02*
D03*
X191481Y73213D02*
D03*
X175733D02*
D03*
X169434D02*
D03*
X153508D02*
D03*
X74951Y104512D02*
D03*
X75031Y89587D02*
D03*
X76600Y99512D02*
D03*
X38791Y85538D02*
D03*
X32636Y80388D02*
D03*
X33204Y97186D02*
D03*
X29504Y114532D02*
D03*
X311677Y166113D02*
D03*
X223664Y41200D02*
D03*
X227508Y35313D02*
D03*
X220706Y5113D02*
D03*
X211706D02*
D03*
X221408Y50186D02*
D03*
X223008Y29286D02*
D03*
X165522Y78013D02*
D03*
X303519Y155522D02*
D03*
X269031Y21010D02*
D03*
X262404Y19086D02*
D03*
X188331Y47637D02*
D03*
X152308Y25013D02*
D03*
X162108Y39862D02*
D03*
Y47637D02*
D03*
X167957Y35039D02*
D03*
X175733Y34013D02*
D03*
X188331Y39862D02*
D03*
Y55413D02*
D03*
X175733Y60087D02*
D03*
X147108Y67013D02*
D03*
X162108Y55413D02*
D03*
X141048Y54982D02*
D03*
Y64380D02*
D03*
X48804Y43174D02*
D03*
X35804D02*
D03*
X162008Y73621D02*
D03*
X100806Y196086D02*
D03*
X253404Y156981D02*
D03*
X92174Y290742D02*
D03*
X48782Y290764D02*
D03*
X61060Y297829D02*
D03*
X103725Y297808D02*
D03*
X133292Y290742D02*
D03*
X146104Y297829D02*
D03*
X177315Y290742D02*
D03*
X188304Y297829D02*
D03*
X218804Y290742D02*
D03*
X231460Y297829D02*
D03*
X262004Y290742D02*
D03*
X273304Y297829D02*
D03*
X304047Y290742D02*
D03*
X19204Y297786D02*
D03*
X31904Y258686D02*
D03*
X7304Y263986D02*
D03*
X82534Y194632D02*
D03*
X87504Y213386D02*
D03*
X88204Y184786D02*
D03*
Y208086D02*
D03*
X76604Y198786D02*
D03*
X51904Y169986D02*
D03*
X81704Y151586D02*
D03*
X76204Y151860D02*
D03*
X97204Y142547D02*
D03*
Y147286D02*
D03*
X98904Y153486D02*
D03*
X92304Y146786D02*
D03*
X94204Y153886D02*
D03*
X92304Y142547D02*
D03*
X87504Y146786D02*
D03*
X81704D02*
D03*
X76204D02*
D03*
X70768D02*
D03*
X64904D02*
D03*
X76204Y132786D02*
D03*
X81704Y133086D02*
D03*
X87837D02*
D03*
Y137486D02*
D03*
X81704D02*
D03*
X76204D02*
D03*
X70768Y132886D02*
D03*
Y137686D02*
D03*
X92304Y137486D02*
D03*
Y133086D02*
D03*
X87504Y128486D02*
D03*
X81704Y127386D02*
D03*
X76204Y127486D02*
D03*
X70768D02*
D03*
X64904D02*
D03*
Y132886D02*
D03*
Y137686D02*
D03*
Y142886D02*
D03*
X97204Y137486D02*
D03*
X85978Y151586D02*
D03*
X87837Y142686D02*
D03*
X81704D02*
D03*
X76204D02*
D03*
X70768D02*
D03*
X54104Y119586D02*
D03*
X11454Y127406D02*
D03*
X12604Y132403D02*
D03*
X89504Y153886D02*
D03*
X14004Y174586D02*
D03*
X35011Y107186D02*
D03*
X126914Y8014D02*
D03*
X127214Y21686D02*
D03*
X49375Y263749D02*
D03*
X72904Y259686D02*
D03*
X130138Y263946D02*
D03*
X167938Y263086D02*
D03*
X54804Y86386D02*
D03*
X113708Y12840D02*
D03*
X49402Y35028D02*
D03*
X105418Y35946D02*
D03*
X84073Y39586D02*
D03*
X73404Y37586D02*
D03*
X124404Y43586D02*
D03*
X115404Y69886D02*
D03*
X102104Y22586D02*
D03*
X24204Y35811D02*
D03*
X184404Y210186D02*
D03*
X193704D02*
D03*
X105804Y200586D02*
D03*
X127704Y197386D02*
D03*
X16704Y123086D02*
D03*
X38104Y156686D02*
D03*
X112785Y258686D02*
D03*
X87104Y263946D02*
D03*
X236619Y263686D02*
D03*
X48804Y56545D02*
D03*
X269404Y52586D02*
D03*
X265773Y94156D02*
D03*
X295904Y94986D02*
D03*
X86289Y22586D02*
D03*
X78343Y108686D02*
D03*
X270904Y258686D02*
D03*
X191904Y257686D02*
D03*
X152904Y258686D02*
D03*
X248138Y264206D02*
D03*
X208138Y263946D02*
D03*
X28052Y72686D02*
D03*
X17204Y251386D02*
D03*
X35704Y56645D02*
D03*
X13904Y41278D02*
D03*
X262706Y199112D02*
D03*
X201106Y198912D02*
D03*
X14131Y112012D02*
D03*
X94931Y108686D02*
D03*
X98081Y88012D02*
D03*
X24804Y57842D02*
D03*
X67629Y51836D02*
D03*
X114008Y26618D02*
D03*
X309960Y20217D02*
D03*
D103*
X82534Y194632D02*
Y196826D01*
X92404Y206695D01*
Y208486D01*
X87504Y213386D02*
X92404Y208486D01*
X87504Y213386D02*
Y238390D01*
X87104Y238790D02*
X87504Y238390D01*
X87104Y238790D02*
Y263946D01*
M02*
