G04*
G04 #@! TF.GenerationSoftware,Altium Limited,Altium Designer,21.4.1 (30)*
G04*
G04 Layer_Physical_Order=3*
G04 Layer_Color=10964583*
%FSLAX25Y25*%
%MOIN*%
G70*
G04*
G04 #@! TF.SameCoordinates,33869DAC-2610-4982-977A-49529E3958AE*
G04*
G04*
G04 #@! TF.FilePolarity,Negative*
G04*
G01*
G75*
%ADD95C,0.00010*%
%ADD96C,0.08331*%
%ADD97C,0.16000*%
%ADD98C,0.07937*%
%AMTHOVALD99*
21,1,0.03150,0.08362,0,0,90.0*
1,1,0.08362,0.00000,-0.01575*
1,1,0.08362,0.00000,0.01575*
21,0,0.03150,0.06362,0,0,90.0*
1,0,0.06362,0.00000,-0.01575*
1,0,0.06362,0.00000,0.01575*
4,0,4,0.00354,-0.01221,0.03310,-0.04178,0.02603,-0.04885,-0.00354,-0.01928,0.00354,-0.01221,0.0*
4,0,4,0.00354,0.01928,-0.02603,0.04885,-0.03310,0.04178,-0.00354,0.01221,0.00354,0.01928,0.0*
4,0,4,0.00354,-0.01928,-0.02603,-0.04885,-0.03310,-0.04178,-0.00354,-0.01221,0.00354,-0.01928,0.0*
4,0,4,0.00354,0.01221,0.03310,0.04178,0.02603,0.04885,-0.00354,0.01928,0.00354,0.01221,0.0*
%
%ADD99THOVALD99*%

%AMTHOVALD100*
21,1,0.04331,0.08362,0,0,90.0*
1,1,0.08362,0.00000,-0.02165*
1,1,0.08362,0.00000,0.02165*
21,0,0.04331,0.06362,0,0,90.0*
1,0,0.06362,0.00000,-0.02165*
1,0,0.06362,0.00000,0.02165*
4,0,4,0.00354,-0.01812,0.03310,-0.04768,0.02603,-0.05475,-0.00354,-0.02519,0.00354,-0.01812,0.0*
4,0,4,0.00354,0.02519,-0.02603,0.05475,-0.03310,0.04768,-0.00354,0.01812,0.00354,0.02519,0.0*
4,0,4,0.00354,-0.02519,-0.02603,-0.05475,-0.03310,-0.04768,-0.00354,-0.01812,0.00354,-0.02519,0.0*
4,0,4,0.00354,0.01812,0.03310,0.04768,0.02603,0.05475,-0.00354,0.02519,0.00354,0.01812,0.0*
%
%ADD100THOVALD100*%

%ADD101C,0.06362*%
%ADD102C,0.05200*%
D95*
X804Y-314D02*
Y319686D01*
X320804D01*
Y-314D02*
Y319686D01*
X804Y-314D02*
X320804D01*
D96*
X13961Y199686D02*
D03*
X23804D02*
D03*
D97*
X26604Y235986D02*
D03*
X74104Y68886D02*
D03*
X308504Y52086D02*
D03*
X304204Y237286D02*
D03*
D98*
X265848Y102913D02*
D03*
X295769D02*
D03*
D99*
X53831Y10686D02*
D03*
X19776D02*
D03*
D100*
X53831Y27103D02*
D03*
X19776D02*
D03*
D101*
X48182Y25174D02*
D03*
X25426D02*
D03*
D102*
X81804Y33586D02*
D03*
X55508Y126406D02*
D03*
X47058Y141532D02*
D03*
X35106Y137663D02*
D03*
X26138Y148032D02*
D03*
X61283Y154813D02*
D03*
X179008Y87713D02*
D03*
X176208Y110013D02*
D03*
X168808Y111813D02*
D03*
X182208Y75113D02*
D03*
X156008Y85413D02*
D03*
X172708Y79013D02*
D03*
X160208Y112513D02*
D03*
X225908Y58051D02*
D03*
Y87813D02*
D03*
X299908Y18174D02*
D03*
X246908Y30113D02*
D03*
X204308Y75113D02*
D03*
X194808Y78913D02*
D03*
X204108Y53813D02*
D03*
X204017Y47637D02*
D03*
X153308Y226713D02*
D03*
X159908Y235313D02*
D03*
X167804Y231286D02*
D03*
X191481Y73213D02*
D03*
X175733D02*
D03*
X169434D02*
D03*
X153508D02*
D03*
X74951Y104512D02*
D03*
X38791Y85538D02*
D03*
X32636Y80388D02*
D03*
X33204Y97186D02*
D03*
X29504Y114532D02*
D03*
X311677Y166113D02*
D03*
X223664Y41200D02*
D03*
X165522Y78013D02*
D03*
X262404Y19086D02*
D03*
X141048Y54982D02*
D03*
Y64380D02*
D03*
X48804Y43174D02*
D03*
X35804D02*
D03*
X162008Y73621D02*
D03*
X31904Y258686D02*
D03*
X7304Y263986D02*
D03*
X82534Y194632D02*
D03*
X87504Y213386D02*
D03*
X51904Y169986D02*
D03*
X54104Y119586D02*
D03*
X12604Y132403D02*
D03*
X14004Y174586D02*
D03*
X35011Y107186D02*
D03*
X126914Y8014D02*
D03*
X127214Y21686D02*
D03*
X49375Y263749D02*
D03*
X72904Y259686D02*
D03*
X130138Y263946D02*
D03*
X167938Y263086D02*
D03*
X105418Y35946D02*
D03*
X124404Y43586D02*
D03*
X115404Y69886D02*
D03*
X102104Y22586D02*
D03*
X184404Y210186D02*
D03*
X193704D02*
D03*
X105804Y200586D02*
D03*
X127704Y197386D02*
D03*
X16704Y123086D02*
D03*
X38104Y156686D02*
D03*
X112785Y258686D02*
D03*
X87104Y263946D02*
D03*
X236619Y263686D02*
D03*
X269404Y52586D02*
D03*
X265773Y94156D02*
D03*
X295904Y94986D02*
D03*
X86289Y22586D02*
D03*
X78343Y108686D02*
D03*
X270904Y258686D02*
D03*
X191904Y257686D02*
D03*
X152904Y258686D02*
D03*
X248138Y264206D02*
D03*
X208138Y263946D02*
D03*
X28052Y72686D02*
D03*
X17204Y251386D02*
D03*
M02*
