G04*
G04 #@! TF.GenerationSoftware,Altium Limited,Altium Designer,21.4.1 (30)*
G04*
G04 Layer_Color=65535*
%FSLAX25Y25*%
%MOIN*%
G70*
G04*
G04 #@! TF.SameCoordinates,33869DAC-2610-4982-977A-49529E3958AE*
G04*
G04*
G04 #@! TF.FilePolarity,Positive*
G04*
G01*
G75*
%ADD10C,0.00787*%
%ADD11C,0.00500*%
%ADD12C,0.00394*%
%ADD13C,0.00600*%
%ADD14C,0.01000*%
D10*
X203292Y31889D02*
G03*
X204079Y31889I394J0D01*
G01*
D02*
G03*
X203292Y31889I-394J0D01*
G01*
X20270Y290932D02*
G03*
X20270Y290932I-122J0D01*
G01*
X62770D02*
G03*
X62770Y290932I-122J0D01*
G01*
X147970D02*
G03*
X147970Y290932I-122J0D01*
G01*
X105370D02*
G03*
X105370Y290932I-122J0D01*
G01*
X275470D02*
G03*
X275470Y290932I-122J0D01*
G01*
X232970D02*
G03*
X232970Y290932I-122J0D01*
G01*
X190471D02*
G03*
X190471Y290932I-122J0D01*
G01*
X274390Y203398D02*
G03*
X274390Y203792I0J197D01*
G01*
D02*
G03*
X274390Y203398I0J-197D01*
G01*
D02*
G03*
X274390Y203792I0J197D01*
G01*
X212389Y203398D02*
G03*
X212389Y203792I0J197D01*
G01*
D02*
G03*
X212389Y203398I0J-197D01*
G01*
D02*
G03*
X212389Y203792I0J197D01*
G01*
X24599Y34308D02*
G03*
X24599Y34308I-394J0D01*
G01*
X86126Y45985D02*
X91638D01*
X93016Y33977D02*
Y45395D01*
Y33977D02*
X94591D01*
Y45395D01*
X93016D02*
X94591D01*
X201717Y4330D02*
Y25196D01*
X149749Y4330D02*
X201717D01*
X149749D02*
Y25196D01*
X201717D02*
Y69684D01*
X149749D02*
X201717D01*
X149749Y25196D02*
Y69684D01*
X28804Y262505D02*
Y264867D01*
X27889Y287593D02*
X38519D01*
X27889Y300979D02*
X38519D01*
X12685Y267686D02*
X16922D01*
X50314Y185991D02*
X64093D01*
X50314D02*
Y211581D01*
X64093D01*
Y185991D02*
Y211581D01*
X65471Y186581D02*
X72558D01*
X13961Y190434D02*
X33095D01*
Y213072D01*
X3961D02*
X33095D01*
X3961Y199686D02*
Y213072D01*
X62013Y164238D02*
X63194D01*
X62013D02*
Y175734D01*
X63194D01*
Y164238D02*
Y175734D01*
X64572Y164080D02*
X69296D01*
X117369Y170794D02*
Y191837D01*
X107038Y170794D02*
Y190636D01*
X86354Y157505D02*
Y159867D01*
X52685Y267946D02*
X56922D01*
X116804Y42505D02*
Y44867D01*
X95104Y21405D02*
Y23767D01*
X285927Y63513D02*
X288290D01*
X278578Y16107D02*
X287634D01*
X278578D02*
Y27918D01*
X287634D01*
Y16107D02*
Y27918D01*
X289012Y15910D02*
X294523D01*
X288956Y43831D02*
Y46194D01*
X276827Y63513D02*
X279190D01*
X275807Y43831D02*
Y46194D01*
X69804Y263505D02*
Y265867D01*
X70389Y300979D02*
X81019D01*
X70389Y287593D02*
X81019D01*
X155589Y300979D02*
X166219D01*
X155589Y287593D02*
X166219D01*
X149804Y262505D02*
Y264867D01*
X112989Y300979D02*
X123619D01*
X112989Y287593D02*
X123619D01*
X133685Y267686D02*
X137922D01*
X109685Y262505D02*
Y264867D01*
X92567Y267686D02*
X96804D01*
X283089Y300979D02*
X293719D01*
X283089Y287593D02*
X293719D01*
X267804Y262505D02*
Y264867D01*
X240589Y300979D02*
X251219D01*
X240589Y287593D02*
X251219D01*
X251685Y267946D02*
X255922D01*
X227804Y262505D02*
Y264867D01*
X198089Y300979D02*
X208719D01*
X198089Y287593D02*
X208719D01*
X211685Y267686D02*
X215922D01*
X188804Y261505D02*
Y263867D01*
X172685Y266946D02*
X176922D01*
X214608Y56505D02*
Y58867D01*
X280295Y178201D02*
X303917D01*
Y201823D01*
X280295D02*
X303917D01*
X280295Y178201D02*
Y201823D01*
X218295Y178201D02*
X241917D01*
Y201823D01*
X218295D02*
X241917D01*
X218295Y178201D02*
Y201823D01*
X214383Y40205D02*
Y42567D01*
X31172Y75279D02*
X45641D01*
X35010Y68979D02*
X45641D01*
X23623Y48686D02*
X25985D01*
X61622D02*
X63985D01*
X39141Y138973D02*
X43669D01*
X15906Y145894D02*
Y150130D01*
X24106Y93831D02*
Y96194D01*
X22508Y77632D02*
Y79994D01*
X65783Y86756D02*
X71787D01*
X53308Y153632D02*
Y155994D01*
X90106Y86831D02*
Y89193D01*
X19956Y99764D02*
X29405D01*
Y106260D01*
X19956D02*
X29405D01*
X19559Y83865D02*
X29008D01*
Y90361D01*
X19559D02*
X29008D01*
X28620Y133454D02*
X43187D01*
Y121918D02*
Y133454D01*
X28620Y121918D02*
X43187D01*
X28620D02*
Y133454D01*
X21435Y133788D02*
X27242D01*
D11*
X310336Y102913D02*
G03*
X310336Y102913I-29528J0D01*
G01*
X19205Y450D02*
X54402D01*
X19205D02*
Y6080D01*
Y15292D02*
Y21906D01*
X54402Y450D02*
Y6080D01*
Y15292D02*
Y21906D01*
D12*
X14197Y53017D02*
G03*
X13804Y53017I-197J0D01*
G01*
D02*
G03*
X14197Y53017I197J0D01*
G01*
X35410Y44355D02*
G03*
X35804Y44355I197J0D01*
G01*
D02*
G03*
X35410Y44355I-197J0D01*
G01*
X46310Y43654D02*
G03*
X46704Y43654I197J0D01*
G01*
D02*
G03*
X46310Y43654I-197J0D01*
G01*
X15378Y46324D02*
Y51048D01*
X12229Y46324D02*
Y51048D01*
X34229Y46324D02*
Y51048D01*
X37378Y46324D02*
Y51048D01*
X45129Y45622D02*
Y50347D01*
X48278Y45622D02*
Y50347D01*
D13*
X59900Y182333D02*
X62566D01*
X61233Y183666D02*
Y181000D01*
X91354Y9165D02*
Y5833D01*
X90688Y5166D01*
X89355D01*
X88688Y5833D01*
Y9165D01*
X84689Y8499D02*
X85356Y9165D01*
X86689D01*
X87355Y8499D01*
Y7832D01*
X86689Y7166D01*
X85356D01*
X84689Y6499D01*
Y5833D01*
X85356Y5166D01*
X86689D01*
X87355Y5833D01*
X83357Y9165D02*
Y5166D01*
X81357D01*
X80691Y5833D01*
Y6499D01*
X81357Y7166D01*
X83357D01*
X81357D01*
X80691Y7832D01*
Y8499D01*
X81357Y9165D01*
X83357D01*
X79358Y4500D02*
X76692D01*
X72693Y8499D02*
X73360Y9165D01*
X74693D01*
X75359Y8499D01*
Y5833D01*
X74693Y5166D01*
X73360D01*
X72693Y5833D01*
X71360Y9165D02*
Y5166D01*
Y7166D01*
X68695D01*
Y9165D01*
Y5166D01*
X64696Y8499D02*
X65362Y9165D01*
X66695D01*
X67362Y8499D01*
Y5833D01*
X66695Y5166D01*
X65362D01*
X64696Y5833D01*
Y7166D01*
X66029D01*
X5800Y221999D02*
Y218000D01*
X7799D01*
X8466Y218666D01*
Y219333D01*
X7799Y219999D01*
X5800D01*
X7799D01*
X8466Y220666D01*
Y221332D01*
X7799Y221999D01*
X5800D01*
X9799Y218000D02*
Y220666D01*
X11132Y221999D01*
X12465Y220666D01*
Y218000D01*
Y219999D01*
X9799D01*
X13797Y221999D02*
X16463D01*
X15130D01*
Y218000D01*
X24461Y221332D02*
X23794Y221999D01*
X22461D01*
X21795Y221332D01*
Y218666D01*
X22461Y218000D01*
X23794D01*
X24461Y218666D01*
X27793Y221999D02*
X26460D01*
X25793Y221332D01*
Y218666D01*
X26460Y218000D01*
X27793D01*
X28459Y218666D01*
Y221332D01*
X27793Y221999D01*
X29792Y218000D02*
Y221999D01*
X32458Y218000D01*
Y221999D01*
X33791Y218000D02*
Y221999D01*
X36457Y218000D01*
Y221999D01*
X274200Y31800D02*
Y35799D01*
X275533Y34466D01*
X276866Y35799D01*
Y31800D01*
X278199D02*
Y34466D01*
X279532Y35799D01*
X280865Y34466D01*
Y31800D01*
Y33799D01*
X278199D01*
X284863Y35132D02*
X284197Y35799D01*
X282864D01*
X282197Y35132D01*
Y32466D01*
X282864Y31800D01*
X284197D01*
X284863Y32466D01*
Y33799D01*
X283530D01*
X286196Y31800D02*
Y35799D01*
X288862Y31800D01*
Y35799D01*
X290195D02*
X291528D01*
X290861D01*
Y31800D01*
X290195D01*
X291528D01*
X296193Y35799D02*
X293527D01*
Y33799D01*
X294860D01*
X293527D01*
Y31800D01*
X297526Y35799D02*
X298859D01*
X298192D01*
Y31800D01*
X297526D01*
X298859D01*
X303524Y35799D02*
X300858D01*
Y31800D01*
X303524D01*
X300858Y33799D02*
X302191D01*
X304857Y31800D02*
Y35799D01*
X306856D01*
X307523Y35132D01*
Y33799D01*
X306856Y33133D01*
X304857D01*
X306190D02*
X307523Y31800D01*
X89482Y53035D02*
Y49036D01*
X91482D01*
X92148Y49702D01*
Y52368D01*
X91482Y53035D01*
X89482D01*
X93481Y49036D02*
Y51702D01*
X94814Y53035D01*
X96147Y51702D01*
Y49036D01*
Y51035D01*
X93481D01*
X100146Y52368D02*
X99479Y53035D01*
X98146D01*
X97480Y52368D01*
Y49702D01*
X98146Y49036D01*
X99479D01*
X100146Y49702D01*
X279900Y312799D02*
X281233D01*
X280566D01*
Y308800D01*
X279900D01*
X281233D01*
X283232D02*
Y312799D01*
X285232D01*
X285898Y312132D01*
Y310799D01*
X285232Y310133D01*
X283232D01*
X284565D02*
X285898Y308800D01*
X287231Y312799D02*
X289897D01*
Y312132D01*
X287231Y309466D01*
Y308800D01*
X240400Y313399D02*
X241733D01*
X241066D01*
Y309400D01*
X240400D01*
X241733D01*
X243732D02*
Y313399D01*
X245732D01*
X246398Y312732D01*
Y311399D01*
X245732Y310733D01*
X243732D01*
X245065D02*
X246398Y309400D01*
X250397Y313399D02*
X249064Y312732D01*
X247731Y311399D01*
Y310066D01*
X248397Y309400D01*
X249730D01*
X250397Y310066D01*
Y310733D01*
X249730Y311399D01*
X247731D01*
X197400Y312799D02*
X198733D01*
X198066D01*
Y308800D01*
X197400D01*
X198733D01*
X200732D02*
Y312799D01*
X202732D01*
X203398Y312132D01*
Y310799D01*
X202732Y310133D01*
X200732D01*
X202065D02*
X203398Y308800D01*
X207397Y312799D02*
X204731D01*
Y310799D01*
X206064Y311466D01*
X206730D01*
X207397Y310799D01*
Y309466D01*
X206730Y308800D01*
X205397D01*
X204731Y309466D01*
X153500Y313699D02*
X154833D01*
X154166D01*
Y309700D01*
X153500D01*
X154833D01*
X156832D02*
Y313699D01*
X158832D01*
X159498Y313032D01*
Y311699D01*
X158832Y311033D01*
X156832D01*
X158165D02*
X159498Y309700D01*
X162830D02*
Y313699D01*
X160831Y311699D01*
X163497D01*
X109700Y313099D02*
X111033D01*
X110366D01*
Y309100D01*
X109700D01*
X111033D01*
X113032D02*
Y313099D01*
X115032D01*
X115698Y312432D01*
Y311099D01*
X115032Y310433D01*
X113032D01*
X114365D02*
X115698Y309100D01*
X117031Y312432D02*
X117697Y313099D01*
X119030D01*
X119697Y312432D01*
Y311766D01*
X119030Y311099D01*
X118364D01*
X119030D01*
X119697Y310433D01*
Y309766D01*
X119030Y309100D01*
X117697D01*
X117031Y309766D01*
X66700Y312799D02*
X68033D01*
X67366D01*
Y308800D01*
X66700D01*
X68033D01*
X70032D02*
Y312799D01*
X72032D01*
X72698Y312132D01*
Y310799D01*
X72032Y310133D01*
X70032D01*
X71365D02*
X72698Y308800D01*
X76697D02*
X74031D01*
X76697Y311466D01*
Y312132D01*
X76030Y312799D01*
X74697D01*
X74031Y312132D01*
X30000Y313099D02*
X31333D01*
X30666D01*
Y309100D01*
X30000D01*
X31333D01*
X33332D02*
Y313099D01*
X35332D01*
X35998Y312432D01*
Y311099D01*
X35332Y310433D01*
X33332D01*
X34665D02*
X35998Y309100D01*
X37331D02*
X38664D01*
X37997D01*
Y313099D01*
X37331Y312432D01*
X53300Y219132D02*
X53966Y219799D01*
X55299D01*
X55966Y219132D01*
Y218466D01*
X55299Y217799D01*
X54633D01*
X55299D01*
X55966Y217133D01*
Y216466D01*
X55299Y215800D01*
X53966D01*
X53300Y216466D01*
X57299Y219799D02*
Y217133D01*
X58632Y215800D01*
X59965Y217133D01*
Y219799D01*
X61297Y219132D02*
X61964Y219799D01*
X63297D01*
X63963Y219132D01*
Y218466D01*
X63297Y217799D01*
X62630D01*
X63297D01*
X63963Y217133D01*
Y216466D01*
X63297Y215800D01*
X61964D01*
X61297Y216466D01*
X90061Y179900D02*
Y183899D01*
X92060D01*
X92726Y183232D01*
Y181899D01*
X92060Y181233D01*
X90061D01*
X91394D02*
X92726Y179900D01*
X96725Y183899D02*
X94059D01*
Y179900D01*
X96725D01*
X94059Y181899D02*
X95392D01*
X100724Y183232D02*
X100057Y183899D01*
X98725D01*
X98058Y183232D01*
Y180567D01*
X98725Y179900D01*
X100057D01*
X100724Y180567D01*
Y181899D01*
X99391D01*
X147409Y78873D02*
X144744D01*
Y74874D01*
X147409D01*
X144744Y76873D02*
X146076D01*
X151408Y78206D02*
X150742Y78873D01*
X149409D01*
X148742Y78206D01*
Y77540D01*
X149409Y76873D01*
X150742D01*
X151408Y76207D01*
Y75540D01*
X150742Y74874D01*
X149409D01*
X148742Y75540D01*
X152741Y74874D02*
Y78873D01*
X154740D01*
X155407Y78206D01*
Y76873D01*
X154740Y76207D01*
X152741D01*
X156740Y78206D02*
X157406Y78873D01*
X158739D01*
X159406Y78206D01*
Y77540D01*
X158739Y76873D01*
X158073D01*
X158739D01*
X159406Y76207D01*
Y75540D01*
X158739Y74874D01*
X157406D01*
X156740Y75540D01*
X163404Y74874D02*
X160738D01*
X163404Y77540D01*
Y78206D01*
X162738Y78873D01*
X161405D01*
X160738Y78206D01*
X164737Y76873D02*
X167403D01*
X171402Y78206D02*
X170735Y78873D01*
X169402D01*
X168736Y78206D01*
Y75540D01*
X169402Y74874D01*
X170735D01*
X171402Y75540D01*
X172734Y78206D02*
X173401Y78873D01*
X174734D01*
X175400Y78206D01*
Y77540D01*
X174734Y76873D01*
X174067D01*
X174734D01*
X175400Y76207D01*
Y75540D01*
X174734Y74874D01*
X173401D01*
X172734Y75540D01*
X176733Y76873D02*
X179399D01*
X180732Y74874D02*
Y78873D01*
X182065Y77540D01*
X183398Y78873D01*
Y74874D01*
X184731Y78873D02*
X186064D01*
X185397D01*
Y74874D01*
X184731D01*
X186064D01*
X188063D02*
Y78873D01*
X190729Y74874D01*
Y78873D01*
X192062D02*
X193394D01*
X192728D01*
Y74874D01*
X192062D01*
X193394D01*
X195394Y76873D02*
X198060D01*
X199393Y74874D02*
X200726D01*
X200059D01*
Y78873D01*
X199393Y78206D01*
X202725Y76873D02*
X205391D01*
X206723Y74874D02*
Y78873D01*
X209389Y74874D01*
Y78873D01*
X212722Y74874D02*
Y78873D01*
X210722Y76873D01*
X213388D01*
X271566Y146032D02*
X270899Y146699D01*
X269566D01*
X268900Y146032D01*
Y145366D01*
X269566Y144699D01*
X270899D01*
X271566Y144033D01*
Y143367D01*
X270899Y142700D01*
X269566D01*
X268900Y143367D01*
X272899Y142700D02*
Y146699D01*
X274898D01*
X275565Y146032D01*
Y144699D01*
X274898Y144033D01*
X272899D01*
X279563Y146699D02*
X276897D01*
Y142700D01*
X279563D01*
X276897Y144699D02*
X278230D01*
X280896Y142700D02*
Y145366D01*
X282229Y146699D01*
X283562Y145366D01*
Y142700D01*
Y144699D01*
X280896D01*
X284895Y146699D02*
Y142700D01*
Y144033D01*
X287561Y146699D01*
X285561Y144699D01*
X287561Y142700D01*
X291559Y146699D02*
X288894D01*
Y142700D01*
X291559D01*
X288894Y144699D02*
X290227D01*
X292892Y142700D02*
Y146699D01*
X294892D01*
X295558Y146032D01*
Y144699D01*
X294892Y144033D01*
X292892D01*
X294225D02*
X295558Y142700D01*
X292134Y210333D02*
X291467Y210999D01*
X290134D01*
X289468Y210333D01*
Y209666D01*
X290134Y209000D01*
X291467D01*
X292134Y208334D01*
Y207667D01*
X291467Y207001D01*
X290134D01*
X289468Y207667D01*
X296132Y207001D02*
X293466D01*
X296132Y209666D01*
Y210333D01*
X295466Y210999D01*
X294133D01*
X293466Y210333D01*
X282776Y170313D02*
Y174312D01*
X284775D01*
X285441Y173645D01*
Y172312D01*
X284775Y171646D01*
X282776D01*
X284109D02*
X285441Y170313D01*
X289440Y174312D02*
X286774D01*
Y170313D01*
X289440D01*
X286774Y172312D02*
X288107D01*
X293439Y173645D02*
X292772Y174312D01*
X291440D01*
X290773Y173645D01*
Y172979D01*
X291440Y172312D01*
X292772D01*
X293439Y171646D01*
Y170979D01*
X292772Y170313D01*
X291440D01*
X290773Y170979D01*
X297438Y174312D02*
X294772D01*
Y170313D01*
X297438D01*
X294772Y172312D02*
X296105D01*
X298770Y174312D02*
X301436D01*
X300103D01*
Y170313D01*
X230400Y209833D02*
X229734Y210499D01*
X228401D01*
X227734Y209833D01*
Y209166D01*
X228401Y208500D01*
X229734D01*
X230400Y207834D01*
Y207167D01*
X229734Y206501D01*
X228401D01*
X227734Y207167D01*
X231733Y206501D02*
X233066D01*
X232399D01*
Y210499D01*
X231733Y209833D01*
X223969Y173999D02*
Y170001D01*
X225968D01*
X226635Y170667D01*
Y171334D01*
X225968Y172000D01*
X223969D01*
X225968D01*
X226635Y172667D01*
Y173333D01*
X225968Y173999D01*
X223969D01*
X229967D02*
X228634D01*
X227968Y173333D01*
Y170667D01*
X228634Y170001D01*
X229967D01*
X230634Y170667D01*
Y173333D01*
X229967Y173999D01*
X233966D02*
X232633D01*
X231966Y173333D01*
Y170667D01*
X232633Y170001D01*
X233966D01*
X234632Y170667D01*
Y173333D01*
X233966Y173999D01*
X235965D02*
X238631D01*
X237298D01*
Y170001D01*
X7667Y98434D02*
X7001Y97768D01*
Y96435D01*
X7667Y95768D01*
X8333D01*
X9000Y96435D01*
Y97768D01*
X9667Y98434D01*
X10333D01*
X10999Y97768D01*
Y96435D01*
X10333Y95768D01*
X7001Y99767D02*
Y102433D01*
Y101100D01*
X10999D01*
X7001Y103766D02*
X10999D01*
Y105765D01*
X10333Y106432D01*
X9667D01*
X9000Y105765D01*
Y103766D01*
Y105765D01*
X8333Y106432D01*
X7667D01*
X7001Y105765D01*
Y103766D01*
X8367Y83134D02*
X7701Y82468D01*
Y81135D01*
X8367Y80468D01*
X11033D01*
X11699Y81135D01*
Y82468D01*
X11033Y83134D01*
X7701Y84467D02*
X11699D01*
X9700D01*
Y87133D01*
X7701D01*
X11699D01*
X8367Y91132D02*
X7701Y90465D01*
Y89132D01*
X8367Y88466D01*
X11033D01*
X11699Y89132D01*
Y90465D01*
X11033Y91132D01*
X9700D01*
Y89799D01*
D14*
X244834Y105421D02*
X248178D01*
X246506Y107093D02*
Y103749D01*
X312425Y104921D02*
X315770D01*
X82501Y169800D02*
Y172800D01*
X84001D01*
X84501Y172300D01*
Y171300D01*
X84001Y170800D01*
X82501D01*
X83501D02*
X84501Y169800D01*
X85500Y172300D02*
X86000Y172800D01*
X87000D01*
X87500Y172300D01*
Y171800D01*
X87000Y171300D01*
X86500D01*
X87000D01*
X87500Y170800D01*
Y170300D01*
X87000Y169800D01*
X86000D01*
X85500Y170300D01*
X88499Y172300D02*
X88999Y172800D01*
X89999D01*
X90499Y172300D01*
Y171800D01*
X89999Y171300D01*
X89499D01*
X89999D01*
X90499Y170800D01*
Y170300D01*
X89999Y169800D01*
X88999D01*
X88499Y170300D01*
X65304Y159086D02*
Y161086D01*
X64804Y161585D01*
X63804D01*
X63304Y161086D01*
Y159086D01*
X63804Y158586D01*
X64804D01*
X64304Y159586D02*
X65304Y158586D01*
X64804D02*
X65304Y159086D01*
X68303Y158586D02*
X66303D01*
X68303Y160586D01*
Y161086D01*
X67803Y161585D01*
X66803D01*
X66303Y161086D01*
X95204Y158357D02*
X99203D01*
Y160356D01*
X98536Y161022D01*
X97870D01*
X97204Y160356D01*
Y158357D01*
Y160356D01*
X96537Y161022D01*
X95871D01*
X95204Y160356D01*
Y158357D01*
Y162355D02*
Y165021D01*
Y163688D01*
X99203D01*
Y166354D02*
Y167687D01*
Y167020D01*
X95204D01*
X95871Y166354D01*
M02*
