G04*
G04 #@! TF.GenerationSoftware,Altium Limited,Altium Designer,21.4.1 (30)*
G04*
G04 Layer_Color=8421504*
%FSLAX25Y25*%
%MOIN*%
G70*
G04*
G04 #@! TF.SameCoordinates,685BF032-01BA-41A8-8713-D9B93D2C9BCE*
G04*
G04*
G04 #@! TF.FilePolarity,Positive*
G04*
G01*
G75*
%ADD15R,0.06004X0.02756*%
%ADD16R,0.05709X0.03937*%
%ADD17R,0.02874X0.03701*%
%ADD18R,0.02756X0.02756*%
%ADD19R,0.05709X0.05709*%
%ADD20R,0.01575X0.03150*%
%ADD21R,0.03150X0.01575*%
%ADD22R,0.03543X0.03740*%
%ADD23R,0.02362X0.02441*%
%ADD24R,0.01378X0.00984*%
%ADD25R,0.05512X0.02362*%
%ADD26R,0.03701X0.02874*%
%ADD27R,0.05512X0.01772*%
%ADD28R,0.06535X0.03110*%
%ADD29R,0.08268X0.05512*%
%ADD30R,0.03740X0.03543*%
%ADD31R,0.03858X0.02992*%
%ADD32R,0.04134X0.03347*%
%ADD33R,0.01575X0.01890*%
%ADD34R,0.02362X0.04488*%
%ADD35R,0.01181X0.04488*%
%ADD36R,0.05709X0.03740*%
%ADD37R,0.05709X0.12795*%
%ADD38R,0.04409X0.03425*%
%ADD39R,0.02992X0.03858*%
%ADD40R,0.04528X0.02362*%
%ADD41R,0.03937X0.05709*%
%ADD42R,0.09894X0.13394*%
%ADD43R,0.00984X0.01378*%
%ADD44R,0.05807X0.01772*%
D15*
X43323Y107500D02*
D03*
X64677Y92500D02*
D03*
Y97500D02*
D03*
Y102500D02*
D03*
Y107500D02*
D03*
X43323Y102500D02*
D03*
Y97500D02*
D03*
Y92500D02*
D03*
D16*
X54000Y272000D02*
D03*
Y264520D02*
D03*
X14000Y264260D02*
D03*
Y271740D02*
D03*
X135000Y264260D02*
D03*
Y271740D02*
D03*
X93882Y264260D02*
D03*
Y271740D02*
D03*
X292000Y263260D02*
D03*
Y270740D02*
D03*
X253000Y264520D02*
D03*
Y272000D02*
D03*
X213000Y264260D02*
D03*
Y271740D02*
D03*
X174000Y263520D02*
D03*
Y271000D02*
D03*
D17*
X112905Y8300D02*
D03*
X118495D02*
D03*
D18*
X136575Y3512D02*
D03*
Y42488D02*
D03*
X183425D02*
D03*
Y3512D02*
D03*
D19*
X152224Y23000D02*
D03*
Y30776D02*
D03*
X160000D02*
D03*
X167776D02*
D03*
Y23000D02*
D03*
Y15224D02*
D03*
X160000D02*
D03*
X152224D02*
D03*
X160000Y23000D02*
D03*
D20*
X178898Y3709D02*
D03*
X175748D02*
D03*
X172598D02*
D03*
X169449D02*
D03*
X166299D02*
D03*
X163150D02*
D03*
X160000D02*
D03*
X156850D02*
D03*
X153701D02*
D03*
X150551D02*
D03*
X147402D02*
D03*
X144252D02*
D03*
X141102D02*
D03*
Y42291D02*
D03*
X144252D02*
D03*
X147402D02*
D03*
X150551D02*
D03*
X153701D02*
D03*
X156850D02*
D03*
X160000D02*
D03*
X163150D02*
D03*
X166299D02*
D03*
X169449D02*
D03*
X172598D02*
D03*
X175748D02*
D03*
X178898D02*
D03*
D21*
X136772Y7252D02*
D03*
Y10402D02*
D03*
Y13551D02*
D03*
Y16701D02*
D03*
Y19850D02*
D03*
Y23000D02*
D03*
Y26150D02*
D03*
Y29299D02*
D03*
Y32449D02*
D03*
Y35598D02*
D03*
Y38748D02*
D03*
X183228D02*
D03*
Y35598D02*
D03*
Y32449D02*
D03*
Y29299D02*
D03*
Y26150D02*
D03*
Y23000D02*
D03*
Y19850D02*
D03*
Y16701D02*
D03*
Y13551D02*
D03*
Y10402D02*
D03*
Y7252D02*
D03*
D22*
X119150Y44000D02*
D03*
X112850D02*
D03*
X97450Y22900D02*
D03*
X91150D02*
D03*
X288150Y63000D02*
D03*
X281850D02*
D03*
X278150Y8000D02*
D03*
X271850D02*
D03*
X288000Y48000D02*
D03*
X281701D02*
D03*
X275150Y63000D02*
D03*
X268850D02*
D03*
X274850Y48000D02*
D03*
X268551D02*
D03*
X65850Y265000D02*
D03*
X72150D02*
D03*
X24850Y264000D02*
D03*
X31150D02*
D03*
X145850D02*
D03*
X152150D02*
D03*
X105732D02*
D03*
X112031D02*
D03*
X302850Y263000D02*
D03*
X309150D02*
D03*
X263850Y264000D02*
D03*
X270150D02*
D03*
X223850D02*
D03*
X230150D02*
D03*
X184850Y263000D02*
D03*
X191150D02*
D03*
X210850Y95000D02*
D03*
X217150D02*
D03*
X23150Y98000D02*
D03*
X16850D02*
D03*
X23150Y80000D02*
D03*
X16850D02*
D03*
X46850Y152000D02*
D03*
X53150D02*
D03*
X82850Y91000D02*
D03*
X89150D02*
D03*
X22150Y106000D02*
D03*
X15850D02*
D03*
Y89000D02*
D03*
X22150D02*
D03*
D23*
X257189Y257000D02*
D03*
X260811D02*
D03*
X57378D02*
D03*
X61000D02*
D03*
X16378Y256000D02*
D03*
X20000D02*
D03*
X140189Y257000D02*
D03*
X143811D02*
D03*
X100260D02*
D03*
X103882D02*
D03*
X292078Y256900D02*
D03*
X295700D02*
D03*
X217189Y257000D02*
D03*
X220811D02*
D03*
X178189D02*
D03*
X181811D02*
D03*
D24*
X78000Y42933D02*
D03*
Y41067D02*
D03*
X308000Y160067D02*
D03*
Y161933D02*
D03*
X244000Y160067D02*
D03*
Y161933D02*
D03*
X220400Y7933D02*
D03*
Y6067D02*
D03*
X248000Y13000D02*
D03*
Y11134D02*
D03*
Y44134D02*
D03*
Y46000D02*
D03*
X96000Y212866D02*
D03*
Y211000D02*
D03*
D25*
X88079Y43740D02*
D03*
Y40000D02*
D03*
Y36260D02*
D03*
X97921D02*
D03*
Y40000D02*
D03*
Y43740D02*
D03*
D26*
X301000Y28795D02*
D03*
Y23205D02*
D03*
X220000Y40205D02*
D03*
Y45795D02*
D03*
D27*
X287661Y21161D02*
D03*
Y23720D02*
D03*
Y26280D02*
D03*
Y28839D02*
D03*
X270339D02*
D03*
Y26280D02*
D03*
Y23720D02*
D03*
Y21161D02*
D03*
D28*
X52126Y292457D02*
D03*
X67874D02*
D03*
Y299543D02*
D03*
X52126D02*
D03*
X132126Y292457D02*
D03*
X147874D02*
D03*
Y299543D02*
D03*
X132126D02*
D03*
X92126Y292457D02*
D03*
X107874D02*
D03*
Y299543D02*
D03*
X92126D02*
D03*
X12126Y292457D02*
D03*
X27874D02*
D03*
Y299543D02*
D03*
X12126D02*
D03*
X290126Y292457D02*
D03*
X305874D02*
D03*
Y299543D02*
D03*
X290126D02*
D03*
X252126Y292457D02*
D03*
X267874D02*
D03*
Y299543D02*
D03*
X252126D02*
D03*
X212126Y292457D02*
D03*
X227874D02*
D03*
Y299543D02*
D03*
X212126D02*
D03*
X172126Y292457D02*
D03*
X187874D02*
D03*
Y299543D02*
D03*
X172126D02*
D03*
D29*
X305913Y184142D02*
D03*
X270087D02*
D03*
X305913Y201858D02*
D03*
X270087D02*
D03*
X243913Y184142D02*
D03*
X208087D02*
D03*
X243913Y201858D02*
D03*
X208087D02*
D03*
D30*
X220000Y27150D02*
D03*
Y20850D02*
D03*
X24000Y45850D02*
D03*
Y52150D02*
D03*
X62000Y45850D02*
D03*
Y52150D02*
D03*
D31*
X209000Y9795D02*
D03*
Y4205D02*
D03*
X239000Y15862D02*
D03*
Y10272D02*
D03*
D32*
X32913Y73000D02*
D03*
X47087D02*
D03*
D33*
X13000Y51598D02*
D03*
Y46402D02*
D03*
X35000D02*
D03*
Y51598D02*
D03*
X48000Y46402D02*
D03*
Y51598D02*
D03*
D34*
X48598Y29701D02*
D03*
X45449D02*
D03*
X26551D02*
D03*
X23402D02*
D03*
D35*
X42890D02*
D03*
X40921D02*
D03*
X38953D02*
D03*
X36984D02*
D03*
X29110D02*
D03*
X31079D02*
D03*
X33047D02*
D03*
X35016D02*
D03*
D36*
X74992Y190984D02*
D03*
Y200000D02*
D03*
Y209016D02*
D03*
D37*
X49008Y200000D02*
D03*
D38*
X97000Y190165D02*
D03*
Y195835D02*
D03*
D39*
X52795Y223000D02*
D03*
X47205D02*
D03*
X118795Y22000D02*
D03*
X113205D02*
D03*
X83205Y109000D02*
D03*
X88795D02*
D03*
X20795Y115000D02*
D03*
X15205D02*
D03*
D40*
X37299Y144520D02*
D03*
Y148260D02*
D03*
Y152000D02*
D03*
X31000D02*
D03*
Y148260D02*
D03*
Y144520D02*
D03*
D41*
X15540Y151000D02*
D03*
X8060D02*
D03*
D42*
X54000Y100000D02*
D03*
D43*
X18267Y167400D02*
D03*
X20133D02*
D03*
D44*
X23433Y132839D02*
D03*
Y130280D02*
D03*
Y127720D02*
D03*
Y125161D02*
D03*
X46567D02*
D03*
Y127720D02*
D03*
Y130280D02*
D03*
Y132839D02*
D03*
M02*
