M48
;Layer_Color=9474304
;FILE_FORMAT=2:5
INCH,LZ
;TYPE=PLATED
T1F00S00C0.01200
T3F00S00C0.03937
T4F00S00C0.04331
T5F00S00C0.12000
;TYPE=NON_PLATED
T6F00S00C0.02362
%
T01
X0013904Y0041278
X0024204Y0035811
X0035804Y0043174
X0048804
X0049402Y0035028
X0073404Y0037586
X0081804Y0033586
X0084073Y0039586
X0086289Y0022586
X0102104
X0114008Y0026618
X0113708Y001284
X0126914Y0008014
X0127214Y0021686
X0124404Y0043586
X0105418Y0035946
X0067629Y0051836
X0141048Y0054982
X0162108Y0055413
Y0047637
Y0039862
X01717Y00396
Y0047509
X01756Y0044
X0175605Y0052
X0183508
X01798Y00479
X0188331Y0047637
Y0039862
Y0055413
X0175733Y0034013
X0167957Y0035039
X0152308Y0025013
X0204017Y0047637
X0204108Y0053813
X0221408Y0050186
X0223664Y00412
X0227508Y0035313
X0223008Y0029286
X0246908Y0030113
X0262404Y0019086
X0269031Y002101
X0269404Y0052586
X0299908Y0018174
X030996Y0020217
X0220706Y0005113
X0211706
X0225908Y0058051
Y0087813
X0204308Y0075113
X0265773Y0094156
X0295904Y0094986
X0303519Y0155522
X0311677Y0166113
X0253404Y0156981
X0262706Y0199112
X0201106Y0198912
X0193704Y0210186
X0184404
X0127704Y0197386
X0105804Y0200586
X0100806Y0196086
X0082534Y0194632
X0076604Y0198786
X0088204Y0208086
Y0184786
X0089504Y0153886
X0094204
X0098904Y0153486
X0097204Y0147286
Y0142547
X0092304
Y0146786
X0087504
X0087837Y0142686
Y0137486
Y0133086
X0092304
Y0137486
X0097204
X0081704
Y0133086
Y0127386
X0076204Y0127486
Y0132786
Y0137486
Y0142686
Y0146786
Y015186
X0081704Y0151586
X0085978
X0081704Y0146786
Y0142686
X0070768
Y0146786
X0064904
Y0142886
Y0137686
Y0132886
Y0127486
X0070768
Y0132886
Y0137686
X0087504Y0128486
X0094931Y0108686
X0078343
X0074951Y0104512
X00766Y0099512
X0075031Y0089587
X0054804Y0086386
X0054104Y0119586
X0055508Y0126406
X0047058Y0141532
X0061283Y0154813
X0051904Y0169986
X0048804Y0056545
X0115404Y0069886
X0141048Y006438
X0147108Y0067013
X0153508Y0073213
X0162008Y0073621
X0169434Y0073213
X0175733
X0182208Y0075113
X0191481Y0073213
X0194808Y0078913
X0192508Y0060413
X0188331Y00628
X0175733Y0060087
X0172708Y0079013
X0165522Y0078013
X0156008Y0085413
X0179008Y0087713
X0176208Y0110013
X0168808Y0111813
X0160208Y0112513
X0098081Y0088012
X0038791Y0085538
X0032636Y0080388
X0028052Y0072686
X0024804Y0057842
X0035704Y0056645
X0033204Y0097186
X0035011Y0107186
X0029504Y0114532
X0014131Y0112012
X0016704Y0123086
X0011454Y0127406
X0012604Y0132403
X0035106Y0137663
X0026138Y0148032
X0038104Y0156686
X0014004Y0174586
X0017204Y0251386
X0031904Y0258686
X0007304Y0263986
X0019204Y0297786
X0048782Y0290764
X006106Y0297829
X0092174Y0290742
X0103725Y0297808
X0133292Y0290742
X0146104Y0297829
X0177315Y0290742
X0188304Y0297829
X0191904Y0257686
X0167938Y0263086
X0152904Y0258686
X0130138Y0263946
X0112785Y0258686
X0087104Y0263946
X0072904Y0259686
X0049375Y0263749
X0087504Y0213386
X0153308Y0226713
X0159908Y0235313
X0167804Y0231286
X0208138Y0263946
X0236619Y0263686
X0248138Y0264206
X0270904Y0258686
X0262004Y0290742
X0273304Y0297829
X0304047Y0290742
X023146Y0297829
X0218804Y0290742
T03
X0265848Y0102913
X0295769
T04
X0013961Y0199686
X0023804
T05
X0308504Y0052086
X0074104Y0068886
X0026604Y0235986
X0304204Y0237286
T06
X0025426Y0025174
X0048182
M30
