M48
;Layer_Color=9474304
;FILE_FORMAT=2:5
INCH,LZ
;TYPE=PLATED
T1F00S00C0.01200
T3F00S00C0.03937
T4F00S00C0.04331
T5F00S00C0.12000
;TYPE=NON_PLATED
T6F00S00C0.02362
%
T01
X00131Y0041592
X00234Y0036125
X0035Y0043488
X0048
X0048598Y0035342
X0073191Y0040967
X0083269Y00399
X0081Y00339
X0085485Y00229
X01013
X0113205Y0026932
X0112905Y0013154
X012611Y0008328
X01318Y0003709
X01411Y00074
X0144252Y0009752
X0147399Y0008252
X0150551Y0009688
X0153701Y000825
X0156853Y0008898
X0159902Y0010481
X016Y0007398
X0163152Y000975
X0166299Y0007398
X0169449Y0009956
X0172498Y00071
X017565Y0009452
X0179399Y0010302
X0178898Y0007098
X0188091Y0007302
Y000355
X0193937Y0013551
Y001985
X0188572Y002295
X0189921Y0029299
X018847Y0042561
X01858Y00517
X01781Y00515
X01687Y00478
X01679Y0035713
X01726Y0037787
X0178987Y00387
X01601Y00367
X01569Y00498
X01509Y00507
X0142Y00503
X0136772Y004746
X01236Y00439
X0130079Y0035598
Y0032498
X012641Y0022
X0146287Y0023
X0146187Y0030776
X0147399Y0015224
X0172813Y00151
X0172713Y00231
X0162Y00561
X0104614Y003626
X0066825Y005215
X0215146Y0045795
Y0040205
X0214335Y002085
Y0008
X0224972Y0006134
X0234068Y0010272
X0252972Y0011134
X0248Y0018914
X02616Y00194
X0264186Y002372
X02686Y00529
X0305854Y0023205
X0203335Y0009795
X0204068Y0004205
X021085Y00908
X021715Y0098965
X0200836Y0125436
X02494Y0160167
X02586Y02021
X0303191Y0159967
X0312809Y0162033
X02951Y00953
X026497Y009447
X0196Y00958
X01935Y00863
X019Y01266
X017795Y012155
X01621Y01213
X015435Y011985
X0156876Y0127555
X01553Y01458
X00964Y01476
Y0142861
X00915
Y01471
X00867
X0087033Y0143
Y01378
Y01334
X00915
Y01378
X00964
X00809
Y01334
Y01277
X00754Y01278
Y01331
Y01378
Y0143
Y01471
X0069965
Y0143
Y0138
Y01332
Y01278
X00641
Y01332
Y0138
Y01432
Y01471
X0069965Y0152
X00809Y01519
X0085175
X00887Y01542
X00934
X00981Y01538
X00809Y01471
Y0143
X00867Y01288
X0093975Y0109
X0077539
X0070343Y01075
X0070925Y01025
Y0092575
X0054Y00867
X00533Y01199
X0057975Y0152
X00511Y01703
X00874Y01851
X0081731Y0194946
X00758Y01991
X0095175Y0198125
X0105Y02009
X00874Y02084
X01269Y01977
X01836Y02105
X01929
X0197Y02019
X01449Y00716
Y00566
X0154Y00583
X01146Y00702
X0093975Y0091
X0048Y0056859
X00349Y0056959
X0024Y0058156
X0027248Y0073
X0028815Y008
Y0098
X0037657Y00925
X0034207Y01075
X0026461Y0115
X0010025
X001065Y012772
X00118Y0132717
X00159Y01234
X0015737Y0145335
X0025335Y014826
X00373Y0157
X00132Y01749
X00164Y02517
X00311Y0259
X00065Y02643
X0012Y03052
X00331Y02922
X0046945Y0299543
X00736Y02926
X00865Y02997
X0114Y02926
X01263Y02997
X01535Y02926
X01673Y02995
X0193Y02923
X01911Y0258
X0167135Y02634
X01521Y0259
X01497Y02394
X0167Y02316
X0129335Y026426
X0111982Y0259
X00863Y026426
X00721Y026
X0048572Y0264063
X00867Y02137
X0207335Y026426
X0235815Y0264
X0247335Y026452
X02701Y0259
X02731Y0292376
X02465Y02997
X02334Y0292457
X02066Y02994
T03
X0265039Y0106
X0294961
T04
X0013157Y02
X0023
T05
X03077Y00524
X00733Y00692
X00258Y02363
X03034Y02376
T06
X0024622Y0025488
X0047378
M30
