G04*
G04 #@! TF.GenerationSoftware,Altium Limited,Altium Designer,21.4.1 (30)*
G04*
G04 Layer_Physical_Order=1*
G04 Layer_Color=255*
%FSLAX25Y25*%
%MOIN*%
G70*
G04*
G04 #@! TF.SameCoordinates,5C0C8886-D3A0-4CA8-B86F-26C28C7FE488*
G04*
G04*
G04 #@! TF.FilePolarity,Positive*
G04*
G01*
G75*
%ADD13C,0.00600*%
%ADD14C,0.01000*%
%ADD15R,0.02874X0.03701*%
%ADD16R,0.03701X0.02874*%
%ADD17R,0.03543X0.03740*%
%ADD18R,0.02362X0.02441*%
%ADD19R,0.06535X0.03110*%
%ADD20R,0.05709X0.03937*%
%ADD21R,0.03425X0.04409*%
%ADD22R,0.07087X0.03543*%
%ADD23R,0.07087X0.12598*%
%ADD24R,0.04724X0.02362*%
%ADD25R,0.02992X0.03858*%
%ADD26R,0.06102X0.08661*%
%ADD27R,0.06004X0.02756*%
%ADD28R,0.02756X0.02756*%
%ADD29R,0.05709X0.05709*%
%ADD30R,0.01575X0.03150*%
%ADD31R,0.03150X0.01575*%
%ADD32R,0.05512X0.02362*%
%ADD33R,0.05512X0.01772*%
%ADD34R,0.08268X0.05512*%
%ADD35R,0.03740X0.03543*%
%ADD36R,0.03858X0.02992*%
%ADD37R,0.04134X0.03347*%
%ADD38R,0.01575X0.01890*%
%ADD39R,0.02362X0.04488*%
%ADD40R,0.01181X0.04488*%
%ADD41R,0.04528X0.02362*%
%ADD42R,0.03937X0.05709*%
%ADD43R,0.09894X0.13394*%
%ADD44R,0.05807X0.01772*%
%ADD82C,0.04000*%
%ADD83C,0.01500*%
%ADD84C,0.03000*%
%ADD85C,0.02000*%
%ADD86C,0.02500*%
%ADD87C,0.00603*%
%ADD88R,0.06496X0.06496*%
%ADD89C,0.06496*%
%ADD90C,0.12000*%
%ADD91C,0.05937*%
%ADD92O,0.03543X0.06693*%
%ADD93O,0.03543X0.07874*%
%ADD94C,0.02362*%
%ADD95C,0.02400*%
G36*
X17200Y257757D02*
X17254Y257811D01*
X17721D01*
Y256723D01*
X17757Y256688D01*
Y255217D01*
X18119Y254855D01*
Y254247D01*
Y254080D01*
X18266D01*
X19100Y252900D01*
X19100Y250400D01*
X17400Y248700D01*
X14700D01*
X12800Y250600D01*
Y253300D01*
X14400Y254900D01*
Y260907D01*
X14000Y261307D01*
X4407D01*
X4400Y261300D01*
X3800Y261900D01*
Y266300D01*
X4400Y266900D01*
X17200D01*
Y257757D01*
D02*
G37*
G36*
X101100Y138950D02*
X100900D01*
X87000Y125050D01*
X61900D01*
Y150678D01*
X74654Y156600D01*
X86228D01*
Y156430D01*
X87222D01*
Y155409D01*
X87089Y155276D01*
X86800Y154578D01*
Y153822D01*
X87089Y153124D01*
X87624Y152589D01*
X88322Y152300D01*
X89078D01*
X89776Y152589D01*
X90311Y153124D01*
X90600Y153822D01*
Y154578D01*
X90311Y155276D01*
X90178Y155409D01*
Y156430D01*
X91172D01*
Y156600D01*
X101100D01*
Y138950D01*
D02*
G37*
G36*
X180800Y4800D02*
X140464D01*
X139300Y5964D01*
X139300Y40050D01*
X139615D01*
Y40017D01*
X142590D01*
Y40050D01*
X142765D01*
Y40017D01*
X145739D01*
Y40050D01*
X145914D01*
Y40017D01*
X148889D01*
Y40050D01*
X149064D01*
Y40017D01*
X152039D01*
Y40050D01*
X152213D01*
Y40017D01*
X155188D01*
Y40050D01*
X155363D01*
Y40017D01*
X158338D01*
Y40050D01*
X158513D01*
Y40017D01*
X161487D01*
Y40050D01*
X161662D01*
Y40017D01*
X164637D01*
Y40050D01*
X164812D01*
Y40017D01*
X167787D01*
Y40050D01*
X167961D01*
Y40017D01*
X170936D01*
Y40050D01*
X174261D01*
Y40017D01*
X177235D01*
Y40050D01*
X177410D01*
Y40017D01*
X180385D01*
Y40050D01*
X180800D01*
Y4800D01*
D02*
G37*
G36*
X91150Y29282D02*
X93800Y26632D01*
Y14800D01*
X86600D01*
X82900Y18500D01*
Y22100D01*
X77300Y27700D01*
Y34900D01*
X78413Y36013D01*
X80600D01*
Y37900D01*
X91150D01*
Y29282D01*
D02*
G37*
G36*
X226641Y17535D02*
X223776Y13947D01*
X221902Y15821D01*
X221571Y16042D01*
X221181Y16120D01*
X211822D01*
X208905Y19037D01*
X214217Y24348D01*
X226641D01*
Y17535D01*
D02*
G37*
G36*
X210679Y14379D02*
X211010Y14158D01*
X211400Y14080D01*
X220759D01*
X223100Y11739D01*
Y7148D01*
X217979Y7151D01*
X217125Y6081D01*
Y5348D01*
X213222D01*
X212083Y6488D01*
X211766D01*
X210627Y6549D01*
X210600Y6577D01*
X204076Y7072D01*
X190841D01*
Y15692D01*
X192641Y16472D01*
X206341D01*
X207464Y17595D01*
X210679Y14379D01*
D02*
G37*
G36*
X130079Y26150D02*
Y4518D01*
X129900Y4087D01*
Y3512D01*
X116112D01*
X116000Y3400D01*
X115900Y3500D01*
Y26214D01*
X130014D01*
X130079Y26150D01*
D02*
G37*
%LPC*%
G36*
X93778Y156100D02*
X93022D01*
X92324Y155811D01*
X91789Y155276D01*
X91500Y154578D01*
Y153822D01*
X91789Y153124D01*
X92324Y152589D01*
X93022Y152300D01*
X93778D01*
X94476Y152589D01*
X95011Y153124D01*
X95300Y153822D01*
Y154578D01*
X95011Y155276D01*
X94476Y155811D01*
X93778Y156100D01*
D02*
G37*
G36*
X98478Y155700D02*
X97722D01*
X97024Y155411D01*
X96489Y154876D01*
X96200Y154178D01*
Y153422D01*
X96489Y152724D01*
X97024Y152189D01*
X97722Y151900D01*
X98478D01*
X99176Y152189D01*
X99711Y152724D01*
X100000Y153422D01*
Y154178D01*
X99711Y154876D01*
X99176Y155411D01*
X98478Y155700D01*
D02*
G37*
G36*
X70343Y153900D02*
X69587D01*
X68888Y153611D01*
X68354Y153076D01*
X68065Y152378D01*
Y151622D01*
X68354Y150924D01*
X68888Y150389D01*
X69587Y150100D01*
X70343D01*
X71041Y150389D01*
X71575Y150924D01*
X71865Y151622D01*
Y152378D01*
X71575Y153076D01*
X71041Y153611D01*
X70343Y153900D01*
D02*
G37*
G36*
X85553Y153800D02*
X84797D01*
X84099Y153511D01*
X83564Y152976D01*
X83275Y152278D01*
Y151522D01*
X83564Y150824D01*
X84099Y150289D01*
X84797Y150000D01*
X85553D01*
X86251Y150289D01*
X86786Y150824D01*
X87075Y151522D01*
Y152278D01*
X86786Y152976D01*
X86251Y153511D01*
X85553Y153800D01*
D02*
G37*
G36*
X81278D02*
X80522D01*
X79824Y153511D01*
X79289Y152976D01*
X79000Y152278D01*
Y151522D01*
X79289Y150824D01*
X79824Y150289D01*
X80522Y150000D01*
X81278D01*
X81976Y150289D01*
X82511Y150824D01*
X82800Y151522D01*
Y152278D01*
X82511Y152976D01*
X81976Y153511D01*
X81278Y153800D01*
D02*
G37*
G36*
X96778Y149500D02*
X96022D01*
X95324Y149211D01*
X94789Y148676D01*
X94500Y147978D01*
Y147222D01*
X94789Y146524D01*
X95324Y145989D01*
X96022Y145700D01*
X96778D01*
X97476Y145989D01*
X98011Y146524D01*
X98300Y147222D01*
Y147978D01*
X98011Y148676D01*
X97476Y149211D01*
X96778Y149500D01*
D02*
G37*
G36*
X91878Y149000D02*
X91122D01*
X90424Y148711D01*
X89889Y148176D01*
X89600Y147478D01*
Y146722D01*
X89889Y146024D01*
X90424Y145489D01*
X91122Y145200D01*
X91878D01*
X92576Y145489D01*
X93111Y146024D01*
X93400Y146722D01*
Y147478D01*
X93111Y148176D01*
X92576Y148711D01*
X91878Y149000D01*
D02*
G37*
G36*
X87078D02*
X86322D01*
X85624Y148711D01*
X85089Y148176D01*
X84800Y147478D01*
Y146722D01*
X85089Y146024D01*
X85624Y145489D01*
X86322Y145200D01*
X87078D01*
X87776Y145489D01*
X88311Y146024D01*
X88600Y146722D01*
Y147478D01*
X88311Y148176D01*
X87776Y148711D01*
X87078Y149000D01*
D02*
G37*
G36*
X81278D02*
X80522D01*
X79824Y148711D01*
X79289Y148176D01*
X79000Y147478D01*
Y146722D01*
X79289Y146024D01*
X79824Y145489D01*
X80522Y145200D01*
X81278D01*
X81976Y145489D01*
X82511Y146024D01*
X82800Y146722D01*
Y147478D01*
X82511Y148176D01*
X81976Y148711D01*
X81278Y149000D01*
D02*
G37*
G36*
X75778D02*
X75022D01*
X74324Y148711D01*
X73789Y148176D01*
X73500Y147478D01*
Y146722D01*
X73789Y146024D01*
X74324Y145489D01*
X75022Y145200D01*
X75778D01*
X76476Y145489D01*
X77011Y146024D01*
X77300Y146722D01*
Y147478D01*
X77011Y148176D01*
X76476Y148711D01*
X75778Y149000D01*
D02*
G37*
G36*
X70343D02*
X69587D01*
X68888Y148711D01*
X68354Y148176D01*
X68065Y147478D01*
Y146722D01*
X68354Y146024D01*
X68888Y145489D01*
X69587Y145200D01*
X70343D01*
X71041Y145489D01*
X71575Y146024D01*
X71865Y146722D01*
Y147478D01*
X71575Y148176D01*
X71041Y148711D01*
X70343Y149000D01*
D02*
G37*
G36*
X64478D02*
X63722D01*
X63024Y148711D01*
X62489Y148176D01*
X62200Y147478D01*
Y146722D01*
X62489Y146024D01*
X63024Y145489D01*
X63722Y145200D01*
X64478D01*
X65176Y145489D01*
X65711Y146024D01*
X66000Y146722D01*
Y147478D01*
X65711Y148176D01*
X65176Y148711D01*
X64478Y149000D01*
D02*
G37*
G36*
Y145100D02*
X63722D01*
X63024Y144811D01*
X62489Y144276D01*
X62200Y143578D01*
Y142822D01*
X62489Y142124D01*
X63024Y141589D01*
X63722Y141300D01*
X64478D01*
X65176Y141589D01*
X65711Y142124D01*
X66000Y142822D01*
Y143578D01*
X65711Y144276D01*
X65176Y144811D01*
X64478Y145100D01*
D02*
G37*
G36*
X87411Y144900D02*
X86655D01*
X85957Y144611D01*
X85422Y144076D01*
X85133Y143378D01*
Y142622D01*
X85422Y141924D01*
X85957Y141389D01*
X86655Y141100D01*
X87411D01*
X88109Y141389D01*
X88644Y141924D01*
X88933Y142622D01*
Y143378D01*
X88644Y144076D01*
X88109Y144611D01*
X87411Y144900D01*
D02*
G37*
G36*
X81278D02*
X80522D01*
X79824Y144611D01*
X79289Y144076D01*
X79000Y143378D01*
Y142622D01*
X79289Y141924D01*
X79824Y141389D01*
X80522Y141100D01*
X81278D01*
X81976Y141389D01*
X82511Y141924D01*
X82800Y142622D01*
Y143378D01*
X82511Y144076D01*
X81976Y144611D01*
X81278Y144900D01*
D02*
G37*
G36*
X75778D02*
X75022D01*
X74324Y144611D01*
X73789Y144076D01*
X73500Y143378D01*
Y142622D01*
X73789Y141924D01*
X74324Y141389D01*
X75022Y141100D01*
X75778D01*
X76476Y141389D01*
X77011Y141924D01*
X77300Y142622D01*
Y143378D01*
X77011Y144076D01*
X76476Y144611D01*
X75778Y144900D01*
D02*
G37*
G36*
X70343D02*
X69587D01*
X68888Y144611D01*
X68354Y144076D01*
X68065Y143378D01*
Y142622D01*
X68354Y141924D01*
X68888Y141389D01*
X69587Y141100D01*
X70343D01*
X71041Y141389D01*
X71575Y141924D01*
X71865Y142622D01*
Y143378D01*
X71575Y144076D01*
X71041Y144611D01*
X70343Y144900D01*
D02*
G37*
G36*
X96778Y144761D02*
X96022D01*
X95324Y144471D01*
X94789Y143937D01*
X94500Y143238D01*
Y142483D01*
X94789Y141784D01*
X95324Y141250D01*
X96022Y140961D01*
X96778D01*
X97476Y141250D01*
X98011Y141784D01*
X98300Y142483D01*
Y143238D01*
X98011Y143937D01*
X97476Y144471D01*
X96778Y144761D01*
D02*
G37*
G36*
X91878D02*
X91122D01*
X90424Y144471D01*
X89889Y143937D01*
X89600Y143238D01*
Y142483D01*
X89889Y141784D01*
X90424Y141250D01*
X91122Y140961D01*
X91878D01*
X92576Y141250D01*
X93111Y141784D01*
X93400Y142483D01*
Y143238D01*
X93111Y143937D01*
X92576Y144471D01*
X91878Y144761D01*
D02*
G37*
G36*
X70343Y139900D02*
X69587D01*
X68888Y139611D01*
X68354Y139076D01*
X68065Y138378D01*
Y137622D01*
X68354Y136924D01*
X68888Y136389D01*
X69587Y136100D01*
X70343D01*
X71041Y136389D01*
X71575Y136924D01*
X71865Y137622D01*
Y138378D01*
X71575Y139076D01*
X71041Y139611D01*
X70343Y139900D01*
D02*
G37*
G36*
X64478D02*
X63722D01*
X63024Y139611D01*
X62489Y139076D01*
X62200Y138378D01*
Y137622D01*
X62489Y136924D01*
X63024Y136389D01*
X63722Y136100D01*
X64478D01*
X65176Y136389D01*
X65711Y136924D01*
X66000Y137622D01*
Y138378D01*
X65711Y139076D01*
X65176Y139611D01*
X64478Y139900D01*
D02*
G37*
G36*
X96778Y139700D02*
X96022D01*
X95324Y139411D01*
X94789Y138876D01*
X94500Y138178D01*
Y137422D01*
X94789Y136724D01*
X95324Y136189D01*
X96022Y135900D01*
X96778D01*
X97476Y136189D01*
X98011Y136724D01*
X98300Y137422D01*
Y138178D01*
X98011Y138876D01*
X97476Y139411D01*
X96778Y139700D01*
D02*
G37*
G36*
X91878D02*
X91122D01*
X90424Y139411D01*
X89889Y138876D01*
X89600Y138178D01*
Y137422D01*
X89889Y136724D01*
X90424Y136189D01*
X91122Y135900D01*
X91878D01*
X92576Y136189D01*
X93111Y136724D01*
X93400Y137422D01*
Y138178D01*
X93111Y138876D01*
X92576Y139411D01*
X91878Y139700D01*
D02*
G37*
G36*
X87411D02*
X86655D01*
X85957Y139411D01*
X85422Y138876D01*
X85133Y138178D01*
Y137422D01*
X85422Y136724D01*
X85957Y136189D01*
X86655Y135900D01*
X87411D01*
X88109Y136189D01*
X88644Y136724D01*
X88933Y137422D01*
Y138178D01*
X88644Y138876D01*
X88109Y139411D01*
X87411Y139700D01*
D02*
G37*
G36*
X81278D02*
X80522D01*
X79824Y139411D01*
X79289Y138876D01*
X79000Y138178D01*
Y137422D01*
X79289Y136724D01*
X79824Y136189D01*
X80522Y135900D01*
X81278D01*
X81976Y136189D01*
X82511Y136724D01*
X82800Y137422D01*
Y138178D01*
X82511Y138876D01*
X81976Y139411D01*
X81278Y139700D01*
D02*
G37*
G36*
X75778D02*
X75022D01*
X74324Y139411D01*
X73789Y138876D01*
X73500Y138178D01*
Y137422D01*
X73789Y136724D01*
X74324Y136189D01*
X75022Y135900D01*
X75778D01*
X76476Y136189D01*
X77011Y136724D01*
X77300Y137422D01*
Y138178D01*
X77011Y138876D01*
X76476Y139411D01*
X75778Y139700D01*
D02*
G37*
G36*
X91878Y135300D02*
X91122D01*
X90424Y135011D01*
X89889Y134476D01*
X89600Y133778D01*
Y133022D01*
X89889Y132324D01*
X90424Y131789D01*
X91122Y131500D01*
X91878D01*
X92576Y131789D01*
X93111Y132324D01*
X93400Y133022D01*
Y133778D01*
X93111Y134476D01*
X92576Y135011D01*
X91878Y135300D01*
D02*
G37*
G36*
X87411D02*
X86655D01*
X85957Y135011D01*
X85422Y134476D01*
X85133Y133778D01*
Y133022D01*
X85422Y132324D01*
X85957Y131789D01*
X86655Y131500D01*
X87411D01*
X88109Y131789D01*
X88644Y132324D01*
X88933Y133022D01*
Y133778D01*
X88644Y134476D01*
X88109Y135011D01*
X87411Y135300D01*
D02*
G37*
G36*
X81278D02*
X80522D01*
X79824Y135011D01*
X79289Y134476D01*
X79000Y133778D01*
Y133022D01*
X79289Y132324D01*
X79824Y131789D01*
X80522Y131500D01*
X81278D01*
X81976Y131789D01*
X82511Y132324D01*
X82800Y133022D01*
Y133778D01*
X82511Y134476D01*
X81976Y135011D01*
X81278Y135300D01*
D02*
G37*
G36*
X70343Y135100D02*
X69587D01*
X68888Y134811D01*
X68354Y134276D01*
X68065Y133578D01*
Y132822D01*
X68354Y132124D01*
X68888Y131589D01*
X69587Y131300D01*
X70343D01*
X71041Y131589D01*
X71575Y132124D01*
X71865Y132822D01*
Y133578D01*
X71575Y134276D01*
X71041Y134811D01*
X70343Y135100D01*
D02*
G37*
G36*
X64478D02*
X63722D01*
X63024Y134811D01*
X62489Y134276D01*
X62200Y133578D01*
Y132822D01*
X62489Y132124D01*
X63024Y131589D01*
X63722Y131300D01*
X64478D01*
X65176Y131589D01*
X65711Y132124D01*
X66000Y132822D01*
Y133578D01*
X65711Y134276D01*
X65176Y134811D01*
X64478Y135100D01*
D02*
G37*
G36*
X75778Y135000D02*
X75022D01*
X74324Y134711D01*
X73789Y134176D01*
X73500Y133478D01*
Y132722D01*
X73789Y132024D01*
X74324Y131489D01*
X75022Y131200D01*
X75778D01*
X76476Y131489D01*
X77011Y132024D01*
X77300Y132722D01*
Y133478D01*
X77011Y134176D01*
X76476Y134711D01*
X75778Y135000D01*
D02*
G37*
G36*
X87078Y130700D02*
X86322D01*
X85624Y130411D01*
X85089Y129876D01*
X84800Y129178D01*
Y128422D01*
X85089Y127724D01*
X85624Y127189D01*
X86322Y126900D01*
X87078D01*
X87776Y127189D01*
X88311Y127724D01*
X88600Y128422D01*
Y129178D01*
X88311Y129876D01*
X87776Y130411D01*
X87078Y130700D01*
D02*
G37*
G36*
X75778Y129700D02*
X75022D01*
X74324Y129411D01*
X73789Y128876D01*
X73500Y128178D01*
Y127422D01*
X73789Y126724D01*
X74324Y126189D01*
X75022Y125900D01*
X75778D01*
X76476Y126189D01*
X77011Y126724D01*
X77300Y127422D01*
Y128178D01*
X77011Y128876D01*
X76476Y129411D01*
X75778Y129700D01*
D02*
G37*
G36*
X70343D02*
X69587D01*
X68888Y129411D01*
X68354Y128876D01*
X68065Y128178D01*
Y127422D01*
X68354Y126724D01*
X68888Y126189D01*
X69587Y125900D01*
X70343D01*
X71041Y126189D01*
X71575Y126724D01*
X71865Y127422D01*
Y128178D01*
X71575Y128876D01*
X71041Y129411D01*
X70343Y129700D01*
D02*
G37*
G36*
X64478D02*
X63722D01*
X63024Y129411D01*
X62489Y128876D01*
X62200Y128178D01*
Y127422D01*
X62489Y126724D01*
X63024Y126189D01*
X63722Y125900D01*
X64478D01*
X65176Y126189D01*
X65711Y126724D01*
X66000Y127422D01*
Y128178D01*
X65711Y128876D01*
X65176Y129411D01*
X64478Y129700D01*
D02*
G37*
G36*
X81278Y129600D02*
X80522D01*
X79824Y129311D01*
X79289Y128776D01*
X79000Y128078D01*
Y127322D01*
X79289Y126624D01*
X79824Y126089D01*
X80522Y125800D01*
X81278D01*
X81976Y126089D01*
X82511Y126624D01*
X82800Y127322D01*
Y128078D01*
X82511Y128776D01*
X81976Y129311D01*
X81278Y129600D01*
D02*
G37*
%LPD*%
D13*
X23000Y144871D02*
X23351Y144520D01*
X23000Y144871D02*
Y199700D01*
X23351Y144520D02*
X31000D01*
X23000Y199700D02*
Y200000D01*
X8060Y151000D02*
Y162460D01*
X13000Y167400D02*
X17338D01*
X8060Y162460D02*
X13000Y167400D01*
X242800Y47800D02*
X248000D01*
X78050Y44094D02*
Y48750D01*
X247237Y8917D02*
X247420Y9100D01*
X252900D01*
X251817Y41917D02*
X255300Y45400D01*
X248000Y41917D02*
X251817D01*
X227800Y62800D02*
X242800Y47800D01*
X215174Y9795D02*
X219925D01*
X220400Y3850D02*
X220754Y4205D01*
X226641D01*
X188397Y42635D02*
X188543Y42488D01*
X188397D02*
X188543D01*
X172600Y37787D02*
Y42613D01*
X175650Y3409D02*
Y9452D01*
X159900Y10687D02*
Y15513D01*
X172501Y3409D02*
Y7098D01*
X131909Y3600D02*
X137513D01*
X67312Y174040D02*
X68193Y174921D01*
X67312Y174040D02*
X84943D01*
X100002Y189100D01*
X66131Y174040D02*
X67312D01*
X217150Y138850D02*
X242701Y164401D01*
X217150Y98965D02*
Y138850D01*
X242701Y164401D02*
X244269D01*
X245100Y165232D01*
Y182955D01*
X243913Y184142D02*
X245100Y182955D01*
X307900Y163795D02*
X308095Y163600D01*
X313000D01*
X307900Y163795D02*
Y169400D01*
X303000Y158500D02*
X307705D01*
X308000Y158205D01*
X103882Y262051D02*
X105732Y263902D01*
X103882Y257000D02*
Y262051D01*
X105732Y263902D02*
Y264000D01*
X31226Y259126D02*
Y263924D01*
X31100Y259000D02*
X31226Y259126D01*
X31150Y264000D02*
X31226Y263924D01*
X219972Y40205D02*
X220000Y40176D01*
X136772Y42635D02*
Y47460D01*
X45900Y50897D02*
X48000Y52997D01*
X265840Y28839D02*
X270339D01*
X265254Y29424D02*
X265840Y28839D01*
X265254Y29424D02*
Y44604D01*
X261600Y19400D02*
X263361Y21161D01*
X270339D01*
X221181Y15100D02*
X230481Y5800D01*
X275950D01*
X278150Y8000D01*
X150400Y56418D02*
Y61149D01*
X150751Y61500D02*
X192049D01*
X150900Y50700D02*
Y55918D01*
X150400Y56418D02*
X150900Y55918D01*
X150400Y61149D02*
X150751Y61500D01*
X192049D02*
X192900Y60649D01*
Y33600D02*
Y60649D01*
Y33600D02*
X211400Y15100D01*
X221181D01*
X43389Y166585D02*
Y185459D01*
X23300Y199700D02*
X29149D01*
X43389Y166585D02*
X57975Y152000D01*
X29149Y199700D02*
X43389Y185459D01*
X23000Y200000D02*
X23300Y199700D01*
X100002Y189100D02*
X111400D01*
X31100Y259000D02*
X72800Y217300D01*
X123800D01*
X126900Y214200D01*
X192900Y158400D02*
Y210300D01*
X154350Y119850D02*
X192900Y158400D01*
X217150Y95000D02*
Y98965D01*
X288000Y48000D02*
Y62850D01*
Y29177D02*
Y48000D01*
X287661Y28839D02*
X288000Y29177D01*
X301028Y23205D02*
X305854D01*
X264186Y23720D02*
X269011D01*
X234068Y10272D02*
X238893D01*
X204068Y4205D02*
X208893D01*
X215146Y40205D02*
X219972D01*
X215146Y45795D02*
X219972D01*
X183572Y42488D02*
X188397D01*
X183180Y38700D02*
X183228Y38748D01*
X178987Y38700D02*
X183180D01*
X167900Y30887D02*
Y35713D01*
X146187Y30776D02*
X151013D01*
X146287Y23000D02*
X151113D01*
X147399Y15224D02*
X152224D01*
X184400Y7300D02*
X188089D01*
X178898Y4101D02*
Y7098D01*
X179402Y10304D02*
X183091D01*
X169449Y3913D02*
Y9956D01*
X147402Y4561D02*
Y8250D01*
X144252Y3709D02*
Y9752D01*
X144300Y9800D01*
X141100Y7400D02*
X141102Y7398D01*
Y3709D02*
Y7398D01*
X160000Y30776D02*
Y35413D01*
Y30587D02*
Y30776D01*
X35000Y51598D02*
Y56859D01*
Y51559D02*
Y51598D01*
X13000Y46402D02*
Y46992D01*
Y41692D02*
Y46402D01*
X269186Y68200D02*
X281265D01*
X268600Y63250D02*
X268850Y63000D01*
X273600Y56200D02*
X275150Y57750D01*
Y63000D01*
X264970Y94470D02*
X265039Y94539D01*
X264900Y94400D02*
X264970Y94470D01*
X268551Y48000D02*
Y52851D01*
X268600Y52900D01*
X294961Y95439D02*
X295100Y95300D01*
X278150Y8000D02*
X293114D01*
X293700Y8586D02*
Y20100D01*
X293114Y8000D02*
X293700Y8586D01*
X292639Y21161D02*
X293700Y20100D01*
X287661Y21161D02*
X292639D01*
X265254Y44604D02*
X268551Y47902D01*
Y48000D01*
X281265Y68200D02*
X281850Y67614D01*
Y63000D02*
Y67614D01*
X287661Y23720D02*
Y26280D01*
X97450Y22900D02*
X101300D01*
X270150Y259050D02*
Y264000D01*
X191150Y258050D02*
Y263000D01*
X152150Y259050D02*
Y264000D01*
X48000Y52997D02*
Y56859D01*
X24000Y42421D02*
Y45850D01*
X305913Y171387D02*
X307900Y169400D01*
X305913Y171387D02*
Y184142D01*
X255300Y45400D02*
Y55321D01*
X256179Y56200D01*
X273600D01*
X268600Y67614D02*
X269186Y68200D01*
X268600Y63250D02*
Y67614D01*
X78050Y48750D02*
X78100Y48800D01*
X103882Y257000D02*
X104563Y257681D01*
X112031Y259050D02*
Y264000D01*
X183600Y154279D02*
Y210500D01*
X156876Y127555D02*
X183600Y154279D01*
X200568Y125704D02*
X200836Y125436D01*
X198196Y125704D02*
X200568D01*
X197900Y126000D02*
X198196Y125704D01*
X196900Y126000D02*
X197900D01*
X159400Y106600D02*
X177500D01*
X196900Y126000D01*
X148000Y118000D02*
X159400Y106600D01*
X148000Y118000D02*
Y138500D01*
X155300Y145800D01*
X167000Y231600D02*
Y244100D01*
X152100Y259000D02*
X167000Y244100D01*
X126900Y197700D02*
Y214200D01*
X42890Y29701D02*
Y33890D01*
X97921Y36260D02*
X104614D01*
X97921Y40000D02*
X108949D01*
X78100Y48800D02*
X107087D01*
X37299Y152000D02*
Y156999D01*
X37300Y157000D01*
X37299Y148260D02*
X37459Y148100D01*
X46850Y151902D02*
Y152000D01*
X43049Y148100D02*
X46850Y151902D01*
X37459Y148100D02*
X43049D01*
X31079Y29701D02*
Y35342D01*
X24000Y42421D02*
X31079Y35342D01*
X88079Y40000D02*
X88669D01*
X83369D02*
X88079D01*
X160000Y15224D02*
Y23000D01*
X167987Y15100D02*
X172813D01*
X167887Y23100D02*
X172713D01*
X183572Y19850D02*
X193937D01*
X183228Y29299D02*
X189921D01*
X183572Y23000D02*
X188522D01*
X156850Y42635D02*
X156875Y42659D01*
X150551Y42635D02*
X150726Y42809D01*
X153701Y42291D02*
X153850Y42441D01*
X166299Y45399D02*
X168700Y47800D01*
X166299Y42635D02*
Y45399D01*
X144252Y42635D02*
Y48048D01*
X101300Y22900D02*
X104614Y26214D01*
X112850Y44000D02*
Y44098D01*
Y43902D02*
Y44000D01*
X108949Y40000D02*
X112850Y43902D01*
X107087Y48800D02*
X121087Y62800D01*
X104614Y26214D02*
Y36260D01*
X143121Y70200D02*
X144521Y71600D01*
X144900D01*
X114600Y70200D02*
X143121D01*
X150726Y50526D02*
X150900Y50700D01*
X160000Y54100D02*
X162000Y56100D01*
X144900Y56600D02*
X147402Y54098D01*
X112850Y44098D02*
X125352Y56600D01*
X121087Y62800D02*
X227800D01*
X125352Y56600D02*
X144900D01*
X142000Y50300D02*
X144252Y48048D01*
X160000Y42635D02*
Y54100D01*
X175748Y42635D02*
Y49148D01*
X178898Y44798D02*
X185800Y51700D01*
X178898Y42635D02*
Y44798D01*
X175748Y49148D02*
X178100Y51500D01*
X150726Y42809D02*
Y50526D01*
X147402Y42635D02*
Y54098D01*
X156875Y49775D02*
X156900Y49800D01*
X156875Y42659D02*
Y49775D01*
X153850Y58150D02*
X154000Y58300D01*
X153850Y42441D02*
Y58150D01*
X54000Y86700D02*
Y95945D01*
X131800Y3709D02*
X131909Y3600D01*
X183425Y3512D02*
X183463Y3550D01*
X188091D01*
X188397Y42488D02*
X188470Y42561D01*
X156850Y3709D02*
X156852Y3710D01*
X160000Y3913D02*
Y7398D01*
X166299Y3913D02*
Y7398D01*
X159902Y10481D02*
Y10685D01*
X156852Y8896D02*
X156853Y8898D01*
X150551Y4561D02*
Y9688D01*
X210850Y90800D02*
Y95000D01*
X183228Y13551D02*
X193937D01*
X78050Y43740D02*
X88079D01*
X220000Y27150D02*
Y40176D01*
X72150Y260050D02*
Y265000D01*
X287661Y26280D02*
X293333D01*
X295848Y28795D01*
X301000D01*
X160000Y35413D02*
Y36600D01*
X160100Y36700D01*
X153701Y3709D02*
Y8250D01*
X163151Y3914D02*
Y9748D01*
X163150Y3913D02*
X163151Y3914D01*
X156852Y3710D02*
Y8896D01*
X163151Y9748D02*
X163152Y9750D01*
X159900Y10687D02*
X159902Y10685D01*
D14*
X91175Y193086D02*
X91760Y192500D01*
X91175Y193086D02*
Y195050D01*
X91760Y192500D02*
X108849D01*
X89824Y196400D02*
X91175Y195050D01*
X249350Y15799D02*
Y16213D01*
X259417Y26280D01*
X245062Y14862D02*
X248413D01*
X259417Y26280D02*
X270339D01*
X248413Y14862D02*
X249350Y15799D01*
X239000Y15862D02*
X244062D01*
X245062Y14862D01*
X238567Y15862D02*
X239000D01*
X82380Y166973D02*
X88364Y172958D01*
X82380Y166560D02*
Y166973D01*
X88364Y172958D02*
X111400D01*
X82380Y159120D02*
Y166560D01*
Y159120D02*
X82401Y159098D01*
X79254Y206971D02*
X88474Y197750D01*
X89301D01*
X89824Y197227D01*
Y196400D02*
Y197227D01*
X79096Y206971D02*
X79254D01*
X78100Y207967D02*
X79096Y206971D01*
X95828Y196400D02*
X100002D01*
X111400Y189100D02*
Y189949D01*
X108849Y192500D02*
X111400Y189949D01*
X220000Y20850D02*
X233579D01*
X238567Y15862D01*
X13226Y127453D02*
X13958Y126720D01*
X23533D01*
X10918Y127453D02*
X13226D01*
X10650Y127720D02*
X10918Y127453D01*
X15900Y123400D02*
X16279D01*
X17040Y124161D02*
X23533D01*
X16279Y123400D02*
X17040Y124161D01*
X82401Y159000D02*
Y159098D01*
D15*
X82380Y166560D02*
D03*
X87970D02*
D03*
X17338Y167400D02*
D03*
X22928D02*
D03*
X90238Y196400D02*
D03*
X95828D02*
D03*
X112905Y8300D02*
D03*
X118495D02*
D03*
D16*
X78050Y43740D02*
D03*
Y38150D02*
D03*
X248000Y42272D02*
D03*
Y47862D02*
D03*
Y14862D02*
D03*
Y9272D02*
D03*
X220400Y9795D02*
D03*
Y4205D02*
D03*
X245100Y158505D02*
D03*
Y164095D02*
D03*
X308000Y158205D02*
D03*
Y163795D02*
D03*
X301000Y28795D02*
D03*
Y23205D02*
D03*
X220000Y40205D02*
D03*
Y45795D02*
D03*
D17*
X31150Y264000D02*
D03*
X24850D02*
D03*
X82401Y159000D02*
D03*
X88700D02*
D03*
X119150Y44000D02*
D03*
X112850D02*
D03*
X97450Y22900D02*
D03*
X91150D02*
D03*
X288150Y63000D02*
D03*
X281850D02*
D03*
X288000Y48000D02*
D03*
X281701D02*
D03*
X275150Y63000D02*
D03*
X268850D02*
D03*
X274850Y48000D02*
D03*
X268551D02*
D03*
X65850Y265000D02*
D03*
X72150D02*
D03*
X145850Y264000D02*
D03*
X152150D02*
D03*
X105732D02*
D03*
X112031D02*
D03*
X263850D02*
D03*
X270150D02*
D03*
X223850D02*
D03*
X230150D02*
D03*
X184850Y263000D02*
D03*
X191150D02*
D03*
X210850Y95000D02*
D03*
X217150D02*
D03*
X23150Y98000D02*
D03*
X16850D02*
D03*
X23150Y80000D02*
D03*
X16850D02*
D03*
X46850Y152000D02*
D03*
X53150D02*
D03*
X82850Y91000D02*
D03*
X89150D02*
D03*
X22150Y106000D02*
D03*
X15850D02*
D03*
Y89000D02*
D03*
X22150D02*
D03*
D18*
X20000Y256000D02*
D03*
X16378D02*
D03*
X257189Y257000D02*
D03*
X260811D02*
D03*
X57378D02*
D03*
X61000D02*
D03*
X140189D02*
D03*
X143811D02*
D03*
X100260D02*
D03*
X103882D02*
D03*
X217189D02*
D03*
X220811D02*
D03*
X178189D02*
D03*
X181811D02*
D03*
D19*
X24526Y298143D02*
D03*
X40274D02*
D03*
Y291057D02*
D03*
X24526D02*
D03*
X67026D02*
D03*
X82774D02*
D03*
Y298143D02*
D03*
X67026D02*
D03*
X152226Y291057D02*
D03*
X167974D02*
D03*
Y298143D02*
D03*
X152226D02*
D03*
X109626Y291057D02*
D03*
X125374D02*
D03*
Y298143D02*
D03*
X109626D02*
D03*
X279726Y291057D02*
D03*
X295474D02*
D03*
Y298143D02*
D03*
X279726D02*
D03*
X237226Y291057D02*
D03*
X252974D02*
D03*
Y298143D02*
D03*
X237226D02*
D03*
X194726Y291057D02*
D03*
X210474D02*
D03*
Y298143D02*
D03*
X194726D02*
D03*
D20*
X14000Y271740D02*
D03*
Y264260D02*
D03*
X54000Y272000D02*
D03*
Y264520D02*
D03*
X135000Y264260D02*
D03*
Y271740D02*
D03*
X93882Y264260D02*
D03*
Y271740D02*
D03*
X253000Y264520D02*
D03*
Y272000D02*
D03*
X213000Y264260D02*
D03*
Y271740D02*
D03*
X174000Y263520D02*
D03*
Y271000D02*
D03*
D21*
X87400Y189800D02*
D03*
X81731D02*
D03*
D22*
X68211Y190045D02*
D03*
Y199100D02*
D03*
Y208155D02*
D03*
D23*
X44589Y199100D02*
D03*
D24*
X66131Y166560D02*
D03*
Y174040D02*
D03*
X57469Y170300D02*
D03*
D25*
X83691Y208400D02*
D03*
X78100D02*
D03*
X118795Y22000D02*
D03*
X113205D02*
D03*
X83205Y109000D02*
D03*
X88795D02*
D03*
X20795Y115000D02*
D03*
X15205D02*
D03*
D26*
X111400Y189100D02*
D03*
Y172958D02*
D03*
D27*
X43323Y107500D02*
D03*
X64677Y92500D02*
D03*
Y97500D02*
D03*
Y102500D02*
D03*
Y107500D02*
D03*
X43323Y102500D02*
D03*
Y97500D02*
D03*
Y92500D02*
D03*
D28*
X136575Y3512D02*
D03*
Y42488D02*
D03*
X183425D02*
D03*
Y3512D02*
D03*
D29*
X152224Y23000D02*
D03*
Y30776D02*
D03*
X160000D02*
D03*
X167776D02*
D03*
Y23000D02*
D03*
Y15224D02*
D03*
X160000D02*
D03*
X152224D02*
D03*
X160000Y23000D02*
D03*
D30*
X178898Y3709D02*
D03*
X175748D02*
D03*
X172598D02*
D03*
X169449D02*
D03*
X166299D02*
D03*
X163150D02*
D03*
X160000D02*
D03*
X156850D02*
D03*
X153701D02*
D03*
X150551D02*
D03*
X147402D02*
D03*
X144252D02*
D03*
X141102D02*
D03*
Y42291D02*
D03*
X144252D02*
D03*
X147402D02*
D03*
X150551D02*
D03*
X153701D02*
D03*
X156850D02*
D03*
X160000D02*
D03*
X163150D02*
D03*
X166299D02*
D03*
X169449D02*
D03*
X172598D02*
D03*
X175748D02*
D03*
X178898D02*
D03*
D31*
X136772Y7252D02*
D03*
Y10402D02*
D03*
Y13551D02*
D03*
Y16701D02*
D03*
Y19850D02*
D03*
Y23000D02*
D03*
Y26150D02*
D03*
Y29299D02*
D03*
Y32449D02*
D03*
Y35598D02*
D03*
Y38748D02*
D03*
X183228D02*
D03*
Y35598D02*
D03*
Y32449D02*
D03*
Y29299D02*
D03*
Y26150D02*
D03*
Y23000D02*
D03*
Y19850D02*
D03*
Y16701D02*
D03*
Y13551D02*
D03*
Y10402D02*
D03*
Y7252D02*
D03*
D32*
X88079Y43740D02*
D03*
Y40000D02*
D03*
Y36260D02*
D03*
X97921D02*
D03*
Y40000D02*
D03*
Y43740D02*
D03*
D33*
X287661Y21161D02*
D03*
Y23720D02*
D03*
Y26280D02*
D03*
Y28839D02*
D03*
X270339D02*
D03*
Y26280D02*
D03*
Y23720D02*
D03*
Y21161D02*
D03*
D34*
X305913Y184142D02*
D03*
X270087D02*
D03*
X305913Y201858D02*
D03*
X270087D02*
D03*
X243913Y184142D02*
D03*
X208087D02*
D03*
X243913Y201858D02*
D03*
X208087D02*
D03*
D35*
X220000Y27150D02*
D03*
Y20850D02*
D03*
X24000Y45850D02*
D03*
Y52150D02*
D03*
X62000Y45850D02*
D03*
Y52150D02*
D03*
D36*
X209000Y9795D02*
D03*
Y4205D02*
D03*
X239000Y15862D02*
D03*
Y10272D02*
D03*
D37*
X32913Y73000D02*
D03*
X47087D02*
D03*
D38*
X13000Y51598D02*
D03*
Y46402D02*
D03*
X35000D02*
D03*
Y51598D02*
D03*
X45900Y45700D02*
D03*
Y50897D02*
D03*
D39*
X48598Y29701D02*
D03*
X45449D02*
D03*
X26551D02*
D03*
X23402D02*
D03*
D40*
X42890D02*
D03*
X40921D02*
D03*
X38953D02*
D03*
X36984D02*
D03*
X29110D02*
D03*
X31079D02*
D03*
X33047D02*
D03*
X35016D02*
D03*
D41*
X37299Y144520D02*
D03*
Y148260D02*
D03*
Y152000D02*
D03*
X31000D02*
D03*
Y148260D02*
D03*
Y144520D02*
D03*
D42*
X15540Y151000D02*
D03*
X8060D02*
D03*
D43*
X54000Y100000D02*
D03*
D44*
X23533Y131839D02*
D03*
Y129280D02*
D03*
Y126720D02*
D03*
Y124161D02*
D03*
X46667D02*
D03*
Y126720D02*
D03*
Y129280D02*
D03*
Y131839D02*
D03*
D82*
X13200Y174900D02*
Y200970D01*
D83*
X15737Y145335D02*
Y151000D01*
X72600Y37900D02*
X72725Y38025D01*
X77925D02*
X78050Y38150D01*
X72725Y38025D02*
X77925D01*
X88700Y154200D02*
Y159000D01*
X88657Y163163D02*
Y165873D01*
X87970Y166560D02*
X88657Y165873D01*
Y163163D02*
X88700Y163120D01*
Y159000D02*
Y163120D01*
X66080Y174040D02*
X66131D01*
X65649Y174471D02*
X66080Y174040D01*
X74939Y166560D02*
X82380Y159120D01*
X102922Y298122D02*
X102943Y298143D01*
X102900Y298100D02*
X102922Y298122D01*
X47978Y291078D02*
X48000Y291100D01*
X47957Y291057D02*
X47978Y291078D01*
X250945Y158350D02*
X251100Y158195D01*
X245100Y158505D02*
X245255Y158350D01*
X250945D01*
X147100Y291500D02*
X151783D01*
X152226Y291057D01*
X135900Y280300D02*
X147100Y291500D01*
X135000Y279421D02*
X135879Y280300D01*
X135900D01*
X135000Y271740D02*
Y279421D01*
X136221Y298143D02*
X137100Y297265D01*
Y285179D02*
Y297265D01*
X125374Y298143D02*
X136221D01*
X125934Y284300D02*
X136221D01*
X137100Y285179D01*
X105732Y264000D02*
Y264098D01*
X125934Y284300D01*
X105000Y290900D02*
X109469D01*
X109626Y291057D01*
X93882Y279782D02*
X105000Y290900D01*
X93882Y271740D02*
Y279782D01*
X84871Y275549D02*
X94300Y284979D01*
Y297265D01*
X76301Y275549D02*
X84871D01*
X65850Y265000D02*
Y265098D01*
X76301Y275549D01*
X82774Y298143D02*
X93421D01*
X94300Y297265D01*
X82774Y291057D02*
X91370D01*
X65850Y258150D02*
Y265000D01*
X64700Y257000D02*
X65850Y258150D01*
X61000Y257000D02*
X64700D01*
X54879Y291500D02*
X66583D01*
X54000Y272000D02*
Y290621D01*
X66583Y291500D02*
X67026Y291057D01*
X54000Y290621D02*
X54879Y291500D01*
X24850Y264098D02*
X33262Y272510D01*
X43510D01*
X24850Y264000D02*
Y264098D01*
X51000Y280000D02*
Y297265D01*
X43510Y272510D02*
X51000Y280000D01*
X50121Y298143D02*
X51000Y297265D01*
X40274Y298143D02*
X50121D01*
X40274Y291057D02*
X47957D01*
X24850Y256879D02*
Y264000D01*
X23972Y256000D02*
X24850Y256879D01*
X20000Y256000D02*
X23972D01*
X13600Y272140D02*
Y290178D01*
X14479Y291057D02*
X24526D01*
X13600Y272140D02*
X14000Y271740D01*
X13600Y290178D02*
X14479Y291057D01*
X303243D02*
X303300Y291000D01*
X295474Y291057D02*
X303243D01*
X272500Y298143D02*
X279726D01*
X252974Y291057D02*
X261200D01*
X230600Y298200D02*
X230657Y298143D01*
X237226D01*
X210474Y291057D02*
X218000D01*
X187500Y298143D02*
X194726D01*
X167974Y291057D02*
X176512D01*
X145300Y298143D02*
X152226D01*
X125374Y291057D02*
X132488D01*
X102943Y298143D02*
X109626D01*
X60200Y298200D02*
X60257Y298143D01*
X67026D01*
X18626Y298300D02*
X18669Y298343D01*
X18400Y298100D02*
X18443Y298143D01*
X24526D01*
X14000Y271740D02*
X14076Y271817D01*
X81731Y189800D02*
Y194946D01*
X87400Y185100D02*
Y189800D01*
X83691Y208400D02*
X87400D01*
X51100Y170300D02*
X57469D01*
X11800Y132717D02*
X15238Y129280D01*
X23533D01*
X52774Y120072D02*
X53128D01*
X53300Y119900D01*
X48685Y124161D02*
X52774Y120072D01*
X46667Y124161D02*
X48685D01*
X17172Y132717D02*
X18051Y131839D01*
X17172Y132717D02*
Y135572D01*
X18051Y131839D02*
X23533D01*
X17172Y135572D02*
X20700Y139100D01*
X46667Y126720D02*
X57220D01*
X58300Y127800D01*
Y143641D01*
X57421Y144520D02*
X58300Y143641D01*
X37299Y144520D02*
X57421D01*
X111400Y142861D02*
Y172167D01*
X109099Y169866D02*
X111400Y172167D01*
Y172958D01*
X66131Y166560D02*
X74939D01*
X77539Y109000D02*
X111400Y142861D01*
X34207Y107500D02*
X43323D01*
X118864Y8314D02*
X126096D01*
X118850Y8300D02*
X118864Y8314D01*
X126096D02*
X126110Y8328D01*
X118795Y22000D02*
X126410D01*
X274850Y48000D02*
X281701D01*
X41174Y23100D02*
X44930Y26856D01*
X28293Y26007D02*
X31200Y23100D01*
X41174D01*
X26982Y26943D02*
X27919Y26007D01*
X26982Y26943D02*
Y29270D01*
X27919Y26007D02*
X28293D01*
X119200Y43950D02*
X123550D01*
X123600Y43900D01*
X119150Y44000D02*
X119200Y43950D01*
X214335Y20850D02*
X220000D01*
X18972Y44300D02*
X26551Y36722D01*
Y29701D02*
Y36722D01*
Y29701D02*
X26982Y29270D01*
X44930Y26856D02*
Y27328D01*
X45018Y27415D01*
Y28207D01*
X45449Y28638D01*
Y29701D01*
X13000Y51598D02*
Y64300D01*
X15100Y66400D01*
X44900D01*
X47087Y68587D01*
Y73000D01*
X42890Y33890D02*
X47700Y38700D01*
X54751D01*
X61902Y45850D02*
X62000D01*
X54751Y38700D02*
X61902Y45850D01*
X77539Y91000D02*
X82850D01*
X71039Y97500D02*
X77539Y91000D01*
X64677Y97500D02*
X71039D01*
X17970Y81120D02*
X22150Y85299D01*
X17872Y81120D02*
X17970D01*
X22150Y85299D02*
Y89000D01*
X16850Y80098D02*
X17872Y81120D01*
X16850Y80000D02*
Y80098D01*
X32950Y94450D02*
X36000Y97500D01*
X43323D01*
X17493Y94450D02*
X32950D01*
X15850Y92807D02*
X17493Y94450D01*
X15850Y89000D02*
Y92807D01*
X32400Y102300D02*
X43123D01*
X43323Y102500D01*
X28700Y106000D02*
X32400Y102300D01*
X22150Y106000D02*
X28700D01*
X12686D02*
X15850D01*
X12686Y97793D02*
X16643D01*
X11807Y98671D02*
X12686Y97793D01*
X11807Y105121D02*
X12686Y106000D01*
X11807Y98671D02*
Y105121D01*
X16643Y97793D02*
X16850Y98000D01*
X20700Y139100D02*
X30121D01*
X31000Y139979D01*
Y144520D01*
X230150Y264000D02*
X235815D01*
X18972Y44300D02*
Y50720D01*
X13000Y51598D02*
X18094D01*
X18972Y50720D01*
X265039Y94539D02*
Y106000D01*
X294961Y95439D02*
Y106000D01*
X85485Y22900D02*
X91150D01*
X77539Y109000D02*
X83205D01*
X64677Y107500D02*
X70343D01*
X23150Y98000D02*
X28815D01*
X23150Y80000D02*
X28815D01*
X27248Y73000D02*
X32913D01*
X37657Y92500D02*
X43323D01*
X20795Y115000D02*
X26461D01*
X25335Y148260D02*
X31000D01*
D84*
X48323Y264311D02*
X53792D01*
X295474Y298143D02*
X309399D01*
X311400Y296143D01*
Y283657D02*
Y296143D01*
X309643Y281900D02*
X311400Y283657D01*
X281297Y281900D02*
X309643D01*
X263850Y264098D02*
X266178Y266426D01*
Y266781D02*
X281297Y281900D01*
X263850Y264000D02*
Y264098D01*
X266178Y266426D02*
Y266781D01*
X278013Y291057D02*
X279726D01*
X264600Y277643D02*
X278013Y291057D01*
X264600Y274953D02*
Y277643D01*
X261647Y272000D02*
X264600Y274953D01*
X253000Y272000D02*
X261647D01*
X243397Y284000D02*
X262843D01*
X264600Y285757D01*
Y296386D01*
X226178Y266781D02*
X243397Y284000D01*
X252974Y298143D02*
X262843D01*
X264600Y296386D01*
X223850Y264098D02*
X226178Y266426D01*
Y266781D01*
X223850Y264000D02*
Y264098D01*
X213000Y271740D02*
X213886D01*
X233147Y291002D01*
X237171D02*
X237226Y291057D01*
X233147Y291002D02*
X237171D01*
X6529Y264271D02*
X13989D01*
X6500Y264300D02*
X6529Y264271D01*
X13989D02*
X14000Y264260D01*
X263850Y260039D02*
Y264000D01*
X260811Y257000D02*
X263850Y260039D01*
X53792Y264311D02*
X54000Y264520D01*
Y264323D02*
Y264520D01*
X212531Y272209D02*
X213000Y271740D01*
X223850Y263902D02*
Y264000D01*
X100260Y257000D02*
X100400Y256860D01*
X174000Y263520D02*
X174441D01*
X174909Y263051D01*
X247335Y264520D02*
X253000D01*
X129335Y264260D02*
X135000D01*
X167135Y263400D02*
X172800D01*
X207335Y264260D02*
X213000D01*
D85*
X220334Y283600D02*
X222600Y285866D01*
X205352Y283600D02*
X220334D01*
X222600Y285866D02*
Y296972D01*
X184850Y263098D02*
X205352Y283600D01*
X221428Y298143D02*
X222600Y296972D01*
X210474Y298143D02*
X221428D01*
X184850Y263000D02*
Y263098D01*
X188672Y291057D02*
X194726D01*
X187500Y289885D02*
X188672Y291057D01*
X187500Y283614D02*
Y289885D01*
X174000Y271000D02*
X174886D01*
X187500Y283614D01*
X180800Y284572D02*
Y296972D01*
X167974Y298143D02*
X179628D01*
X180800Y296972D01*
X149400Y283400D02*
X179628D01*
X180800Y284572D01*
X146300Y280300D02*
X149400Y283400D01*
X145850Y264000D02*
X146300Y264450D01*
Y280300D01*
X16400Y251700D02*
X16465Y251765D01*
X16378Y256000D02*
X16465Y255912D01*
Y251765D02*
Y255912D01*
X78100Y207967D02*
Y208400D01*
X68211Y208155D02*
X77912D01*
X68211Y199100D02*
X75800D01*
X199579Y13551D02*
X203335Y9795D01*
X193937Y13551D02*
X199579D01*
X145850Y264000D02*
X146300Y263550D01*
Y259528D02*
Y263550D01*
X143811Y257039D02*
X146300Y259528D01*
X143811Y257000D02*
Y257039D01*
X184819Y262968D02*
X184850Y263000D01*
X184819Y260047D02*
Y262968D01*
X181811Y257000D02*
Y257039D01*
X184819Y260047D01*
X112905Y8328D02*
Y13154D01*
X48598Y30517D02*
Y35342D01*
X81000Y33900D02*
X83360Y36260D01*
X88079D01*
X23400Y31300D02*
Y36125D01*
X220811Y257000D02*
Y260862D01*
X223850Y263902D01*
X115975Y250900D02*
X129335Y264260D01*
X100400Y252657D02*
X102157Y250900D01*
X115975D01*
X100400Y252657D02*
Y256860D01*
X58550Y251800D02*
X73840D01*
X57378Y252972D02*
X58550Y251800D01*
X57378Y252972D02*
Y257000D01*
X73840Y251800D02*
X86300Y264260D01*
X93882D01*
X253000Y258757D02*
X254757Y257000D01*
X257189D01*
X253000Y258757D02*
Y264520D01*
X213000Y258900D02*
X214900Y257000D01*
X213000Y258900D02*
Y264260D01*
X214900Y257000D02*
X217189D01*
X174909Y259242D02*
X177151Y257000D01*
X174909Y259242D02*
Y263051D01*
X177151Y257000D02*
X178189D01*
X136757D02*
X140189D01*
X135000Y258757D02*
Y264260D01*
Y258757D02*
X136757Y257000D01*
X93882Y258757D02*
Y264260D01*
Y258757D02*
X95639Y257000D01*
X100260D01*
X55757D02*
X57378D01*
X54000Y258757D02*
X55757Y257000D01*
X54000Y258757D02*
Y264323D01*
X258808Y202000D02*
X267500D01*
X197208Y201800D02*
X205900D01*
X197000Y201900D02*
X197108D01*
X197208Y201800D01*
X53150Y152000D02*
X57975D01*
X10025Y115000D02*
X14850D01*
X66100Y92575D02*
X70925D01*
X66100Y102500D02*
X70925D01*
X89150Y109000D02*
X93975D01*
X89150Y91000D02*
X93975D01*
X24000Y53331D02*
Y58156D01*
X62000Y52150D02*
X66825D01*
X113205Y22107D02*
Y26932D01*
D86*
X68211Y190045D02*
X68334Y189922D01*
X81608D01*
X81731Y189800D01*
X203335Y9795D02*
X209000D01*
D87*
X130104Y32474D02*
X136747D01*
X136772Y32449D01*
X130079Y32498D02*
X130104Y32474D01*
X130079Y35598D02*
X136772D01*
X45900Y45700D02*
X48000Y43600D01*
X38953Y26943D02*
Y29701D01*
X35305Y27129D02*
X35979Y26455D01*
X38465D01*
X38953Y26943D01*
X35016Y29701D02*
X35305Y29412D01*
Y27129D02*
Y29412D01*
X36984Y32929D02*
Y34234D01*
Y29701D02*
Y32929D01*
X33047Y32576D02*
X33418Y32946D01*
X36967D01*
X36984Y32929D01*
X33047Y29701D02*
Y32576D01*
X38953Y29701D02*
Y34219D01*
X33047Y29701D02*
X33336Y29412D01*
X36695D02*
X36984Y29701D01*
X40799Y38049D02*
Y42421D01*
X35000Y43488D02*
X39731D01*
X40799Y42421D01*
X35000Y43488D02*
Y46402D01*
X36984Y34234D02*
X40799Y38049D01*
X48000Y43488D02*
Y43600D01*
X42202Y42421D02*
X43269Y43488D01*
X48000D01*
X42202Y37468D02*
Y42421D01*
X38953Y34219D02*
X42202Y37468D01*
X35016Y29701D02*
X35305Y29990D01*
D88*
X13157Y200000D02*
D03*
D89*
X23000D02*
D03*
D90*
X25800Y236300D02*
D03*
X73300Y69200D02*
D03*
X307700Y52400D02*
D03*
X303400Y237600D02*
D03*
D91*
X265039Y106000D02*
D03*
X294961D02*
D03*
D92*
X53028Y11000D02*
D03*
X18972D02*
D03*
D93*
X53028Y27417D02*
D03*
X18972D02*
D03*
D94*
X47378Y25488D02*
D03*
X24622D02*
D03*
D95*
X252900Y9100D02*
D03*
X215174Y9795D02*
D03*
X226641Y4205D02*
D03*
X100002Y196400D02*
D03*
X251100Y158195D02*
D03*
X313000Y163600D02*
D03*
X303000Y158500D02*
D03*
X91370Y291057D02*
D03*
X47978Y291078D02*
D03*
X60257Y298143D02*
D03*
X102922Y298122D02*
D03*
X132488Y291057D02*
D03*
X145300Y298143D02*
D03*
X176512Y291057D02*
D03*
X187500Y298143D02*
D03*
X218000Y291057D02*
D03*
X230657Y298143D02*
D03*
X261200Y291057D02*
D03*
X272500Y298143D02*
D03*
X303243Y291057D02*
D03*
X18400Y298100D02*
D03*
X31100Y259000D02*
D03*
X6500Y264300D02*
D03*
X81731Y194946D02*
D03*
X86700Y213700D02*
D03*
X87400Y185100D02*
D03*
Y208400D02*
D03*
X75800Y199100D02*
D03*
X51100Y170300D02*
D03*
X130079Y32498D02*
D03*
Y35598D02*
D03*
X261600Y19400D02*
D03*
X80900Y151900D02*
D03*
X69965Y152000D02*
D03*
X96400Y142861D02*
D03*
Y147600D02*
D03*
X98100Y153800D02*
D03*
X91500Y147100D02*
D03*
X93400Y154200D02*
D03*
X91500Y142861D02*
D03*
X86700Y147100D02*
D03*
X80900D02*
D03*
X75400D02*
D03*
X69965D02*
D03*
X64100D02*
D03*
X75400Y133100D02*
D03*
X80900Y133400D02*
D03*
X87033D02*
D03*
Y137800D02*
D03*
X80900D02*
D03*
X75400D02*
D03*
X69965Y133200D02*
D03*
Y138000D02*
D03*
X91500Y137800D02*
D03*
Y133400D02*
D03*
X86700Y128800D02*
D03*
X80900Y127700D02*
D03*
X75400Y127800D02*
D03*
X69965D02*
D03*
X64100D02*
D03*
Y133200D02*
D03*
Y138000D02*
D03*
Y143200D02*
D03*
X96400Y137800D02*
D03*
X85175Y151900D02*
D03*
X87033Y143000D02*
D03*
X80900D02*
D03*
X75400D02*
D03*
X69965D02*
D03*
X53300Y119900D02*
D03*
X10650Y127720D02*
D03*
X11800Y132717D02*
D03*
X88700Y154200D02*
D03*
X13200Y174900D02*
D03*
X34207Y107500D02*
D03*
X149700Y239400D02*
D03*
X126110Y8328D02*
D03*
X126410Y22000D02*
D03*
X160100Y36700D02*
D03*
X153701Y8250D02*
D03*
X156853Y8898D02*
D03*
X163152Y9750D02*
D03*
X159902Y10481D02*
D03*
X160000Y7398D02*
D03*
X166299D02*
D03*
X150551Y9688D02*
D03*
X210850Y90800D02*
D03*
X217150Y98965D02*
D03*
X193937Y13551D02*
D03*
X48572Y264063D02*
D03*
X72100Y260000D02*
D03*
X129335Y264260D02*
D03*
X167135Y263400D02*
D03*
X54000Y86700D02*
D03*
X112905Y13154D02*
D03*
X131800Y3709D02*
D03*
X188091Y3550D02*
D03*
X188470Y42561D02*
D03*
X35000Y43488D02*
D03*
X48000D02*
D03*
X48598Y35342D02*
D03*
X104614Y36260D02*
D03*
X81000Y33900D02*
D03*
X83269Y39900D02*
D03*
X72600Y37900D02*
D03*
X123600Y43900D02*
D03*
X172813Y15100D02*
D03*
X172713Y23100D02*
D03*
X114600Y70200D02*
D03*
X144900Y56600D02*
D03*
X178100Y51500D02*
D03*
X144900Y71600D02*
D03*
X162000Y56100D02*
D03*
X142000Y50300D02*
D03*
X185800Y51700D02*
D03*
X156900Y49800D02*
D03*
X168700Y47800D02*
D03*
X154000Y58300D02*
D03*
X150900Y50700D02*
D03*
X189921Y29299D02*
D03*
X188572Y22950D02*
D03*
X214335Y20850D02*
D03*
X193937Y19850D02*
D03*
X203335Y9795D02*
D03*
X101300Y22900D02*
D03*
X23400Y36125D02*
D03*
X183600Y210500D02*
D03*
X192900D02*
D03*
X167000Y231600D02*
D03*
X156876Y127555D02*
D03*
X200836Y125436D02*
D03*
X190000Y126600D02*
D03*
X196000Y95800D02*
D03*
X155300Y145800D02*
D03*
X177950Y121550D02*
D03*
X162100Y121300D02*
D03*
X154350Y119850D02*
D03*
X193500Y86300D02*
D03*
X105000Y200900D02*
D03*
X126900Y197700D02*
D03*
X15900Y123400D02*
D03*
X37300Y157000D02*
D03*
X111982Y259000D02*
D03*
X86300Y264260D02*
D03*
X235815Y264000D02*
D03*
X48000Y56859D02*
D03*
X268600Y52900D02*
D03*
X264970Y94470D02*
D03*
X295100Y95300D02*
D03*
X85485Y22900D02*
D03*
X77539Y109000D02*
D03*
X70343Y107500D02*
D03*
X28815Y98000D02*
D03*
X270100Y259000D02*
D03*
X191100Y258000D02*
D03*
X152100Y259000D02*
D03*
X247335Y264520D02*
D03*
X207335Y264260D02*
D03*
X28815Y80000D02*
D03*
X27248Y73000D02*
D03*
X37657Y92500D02*
D03*
X26461Y115000D02*
D03*
X25335Y148260D02*
D03*
X15737Y145335D02*
D03*
X16400Y251700D02*
D03*
X34900Y56959D02*
D03*
X13100Y41592D02*
D03*
X258600Y202100D02*
D03*
X197000Y201900D02*
D03*
X57975Y152000D02*
D03*
X10025Y115000D02*
D03*
X70925Y92575D02*
D03*
Y102500D02*
D03*
X93975Y109000D02*
D03*
Y91000D02*
D03*
X24000Y58156D02*
D03*
X66825Y52150D02*
D03*
X113205Y26932D02*
D03*
X305854Y23205D02*
D03*
X264186Y23720D02*
D03*
X234068Y10272D02*
D03*
X204068Y4205D02*
D03*
X215146Y40205D02*
D03*
Y45795D02*
D03*
X136772Y47460D02*
D03*
X178987Y38700D02*
D03*
X172600Y37787D02*
D03*
X167900Y35713D02*
D03*
X146187Y30776D02*
D03*
X146287Y23000D02*
D03*
X147399Y15224D02*
D03*
X188091Y7302D02*
D03*
X178898Y7098D02*
D03*
X179399Y10302D02*
D03*
X172498Y7100D02*
D03*
X175650Y9452D02*
D03*
X169449Y9956D02*
D03*
X147399Y8252D02*
D03*
X144252Y9752D02*
D03*
X141100Y7400D02*
D03*
M02*
