G04*
G04 #@! TF.GenerationSoftware,Altium Limited,Altium Designer,21.4.1 (30)*
G04*
G04 Layer_Color=8421504*
%FSLAX25Y25*%
%MOIN*%
G70*
G04*
G04 #@! TF.SameCoordinates,5C0C8886-D3A0-4CA8-B86F-26C28C7FE488*
G04*
G04*
G04 #@! TF.FilePolarity,Positive*
G04*
G01*
G75*
%ADD13C,0.00600*%
%ADD14C,0.01000*%
%ADD15R,0.02874X0.03701*%
%ADD16R,0.03701X0.02874*%
%ADD17R,0.03543X0.03740*%
%ADD18R,0.02362X0.02441*%
%ADD19R,0.06535X0.03110*%
%ADD20R,0.05709X0.03937*%
%ADD21R,0.03425X0.04409*%
%ADD22R,0.07087X0.03543*%
%ADD23R,0.07087X0.12598*%
%ADD24R,0.04724X0.02362*%
%ADD25R,0.02992X0.03858*%
%ADD26R,0.06102X0.08661*%
%ADD27R,0.06004X0.02756*%
%ADD28R,0.02756X0.02756*%
%ADD29R,0.05709X0.05709*%
%ADD30R,0.01575X0.03150*%
%ADD31R,0.03150X0.01575*%
%ADD32R,0.05512X0.02362*%
%ADD33R,0.05512X0.01772*%
%ADD34R,0.08268X0.05512*%
%ADD35R,0.03740X0.03543*%
%ADD36R,0.03858X0.02992*%
%ADD37R,0.04134X0.03347*%
%ADD38R,0.01575X0.01890*%
%ADD39R,0.02362X0.04488*%
%ADD40R,0.01181X0.04488*%
%ADD41R,0.04528X0.02362*%
%ADD42R,0.03937X0.05709*%
%ADD43R,0.09894X0.13394*%
%ADD44R,0.05807X0.01772*%
D13*
X23000Y144871D02*
X23351Y144520D01*
X23000Y144871D02*
Y199700D01*
X23351Y144520D02*
X31000D01*
X23000Y199700D02*
Y200000D01*
X8060Y151000D02*
Y162460D01*
X13000Y167400D02*
X17338D01*
X8060Y162460D02*
X13000Y167400D01*
X242800Y47800D02*
X248000D01*
X78050Y44094D02*
Y48750D01*
X247237Y8917D02*
X247420Y9100D01*
X252900D01*
X251817Y41917D02*
X255300Y45400D01*
X248000Y41917D02*
X251817D01*
X227800Y62800D02*
X242800Y47800D01*
X215174Y9795D02*
X219925D01*
X220400Y3850D02*
X220754Y4205D01*
X226641D01*
X188397Y42635D02*
X188543Y42488D01*
X188397D02*
X188543D01*
X172600Y37787D02*
Y42613D01*
X175650Y3409D02*
Y9452D01*
X159900Y10687D02*
Y15513D01*
X172501Y3409D02*
Y7098D01*
X131909Y3600D02*
X137513D01*
X67312Y174040D02*
X68193Y174921D01*
X67312Y174040D02*
X84943D01*
X100002Y189100D01*
X66131Y174040D02*
X67312D01*
X217150Y138850D02*
X242701Y164401D01*
X217150Y98965D02*
Y138850D01*
X242701Y164401D02*
X244269D01*
X245100Y165232D01*
Y182955D01*
X243913Y184142D02*
X245100Y182955D01*
X307900Y163795D02*
X308095Y163600D01*
X313000D01*
X307900Y163795D02*
Y169400D01*
X303000Y158500D02*
X307705D01*
X308000Y158205D01*
X31226Y259126D02*
Y263924D01*
X31100Y259000D02*
X31226Y259126D01*
X31150Y264000D02*
X31226Y263924D01*
X219972Y40205D02*
X220000Y40176D01*
X136772Y42635D02*
Y47460D01*
X45900Y50897D02*
X48000Y52997D01*
X265840Y28839D02*
X270339D01*
X265254Y29424D02*
X265840Y28839D01*
X265254Y29424D02*
Y44604D01*
X261600Y19400D02*
X263361Y21161D01*
X270339D01*
X221181Y15100D02*
X230481Y5800D01*
X275950D01*
X278150Y8000D01*
X150400Y56418D02*
Y61149D01*
X150751Y61500D02*
X192049D01*
X150900Y50700D02*
Y55918D01*
X150400Y56418D02*
X150900Y55918D01*
X150400Y61149D02*
X150751Y61500D01*
X192049D02*
X192900Y60649D01*
Y33600D02*
Y60649D01*
Y33600D02*
X211400Y15100D01*
X221181D01*
X43389Y166585D02*
Y185459D01*
X23300Y199700D02*
X29149D01*
X43389Y166585D02*
X57975Y152000D01*
X29149Y199700D02*
X43389Y185459D01*
X23000Y200000D02*
X23300Y199700D01*
X100002Y189100D02*
X111400D01*
X31100Y259000D02*
X72800Y217300D01*
X123800D01*
X126900Y214200D01*
X192900Y158400D02*
Y210300D01*
X154350Y119850D02*
X192900Y158400D01*
X217150Y95000D02*
Y98965D01*
X288000Y48000D02*
Y62850D01*
Y29177D02*
Y48000D01*
X287661Y28839D02*
X288000Y29177D01*
X301028Y23205D02*
X305854D01*
X264186Y23720D02*
X269011D01*
X234068Y10272D02*
X238893D01*
X204068Y4205D02*
X208893D01*
X215146Y40205D02*
X219972D01*
X215146Y45795D02*
X219972D01*
X183572Y42488D02*
X188397D01*
X183180Y38700D02*
X183228Y38748D01*
X178987Y38700D02*
X183180D01*
X167900Y30887D02*
Y35713D01*
X146187Y30776D02*
X151013D01*
X146287Y23000D02*
X151113D01*
X147399Y15224D02*
X152224D01*
X184400Y7300D02*
X188089D01*
X178898Y4101D02*
Y7098D01*
X179402Y10304D02*
X183091D01*
X169449Y3913D02*
Y9956D01*
X147402Y4561D02*
Y8250D01*
X144252Y3709D02*
Y9752D01*
X144300Y9800D01*
X141100Y7400D02*
X141102Y7398D01*
Y3709D02*
Y7398D01*
X160000Y30776D02*
Y35413D01*
Y30587D02*
Y30776D01*
X35000Y51598D02*
Y56859D01*
Y51559D02*
Y51598D01*
X13000Y46402D02*
Y46992D01*
Y41692D02*
Y46402D01*
X269186Y68200D02*
X281265D01*
X268600Y63250D02*
X268850Y63000D01*
X273600Y56200D02*
X275150Y57750D01*
Y63000D01*
X264970Y94470D02*
X265039Y94539D01*
X264900Y94400D02*
X264970Y94470D01*
X268551Y48000D02*
Y52851D01*
X268600Y52900D01*
X294961Y95439D02*
X295100Y95300D01*
X278150Y8000D02*
X293114D01*
X293700Y8586D02*
Y20100D01*
X293114Y8000D02*
X293700Y8586D01*
X292639Y21161D02*
X293700Y20100D01*
X287661Y21161D02*
X292639D01*
X265254Y44604D02*
X268551Y47902D01*
Y48000D01*
X281265Y68200D02*
X281850Y67614D01*
Y63000D02*
Y67614D01*
X287661Y23720D02*
Y26280D01*
X97450Y22900D02*
X101300D01*
X270150Y259050D02*
Y264000D01*
X191150Y258050D02*
Y263000D01*
X152150Y259050D02*
Y264000D01*
X48000Y52997D02*
Y56859D01*
X24000Y42421D02*
Y45850D01*
X305913Y171387D02*
X307900Y169400D01*
X305913Y171387D02*
Y184142D01*
X255300Y45400D02*
Y55321D01*
X256179Y56200D01*
X273600D01*
X268600Y67614D02*
X269186Y68200D01*
X268600Y63250D02*
Y67614D01*
X78050Y48750D02*
X78100Y48800D01*
X103882Y257000D02*
X104563Y257681D01*
X112031Y259050D02*
Y264000D01*
X183600Y154279D02*
Y210500D01*
X156876Y127555D02*
X183600Y154279D01*
X200568Y125704D02*
X200836Y125436D01*
X198196Y125704D02*
X200568D01*
X197900Y126000D02*
X198196Y125704D01*
X196900Y126000D02*
X197900D01*
X159400Y106600D02*
X177500D01*
X196900Y126000D01*
X148000Y118000D02*
X159400Y106600D01*
X148000Y118000D02*
Y138500D01*
X155300Y145800D01*
X167000Y231600D02*
Y244100D01*
X152100Y259000D02*
X167000Y244100D01*
X126900Y197700D02*
Y214200D01*
X42890Y29701D02*
Y33890D01*
X97921Y36260D02*
X104614D01*
X97921Y40000D02*
X108949D01*
X78100Y48800D02*
X107087D01*
X37299Y152000D02*
Y156999D01*
X37300Y157000D01*
X37299Y148260D02*
X37459Y148100D01*
X46850Y151902D02*
Y152000D01*
X43049Y148100D02*
X46850Y151902D01*
X37459Y148100D02*
X43049D01*
X31079Y29701D02*
Y35342D01*
X24000Y42421D02*
X31079Y35342D01*
X88079Y40000D02*
X88669D01*
X83369D02*
X88079D01*
X160000Y15224D02*
Y23000D01*
X167987Y15100D02*
X172813D01*
X167887Y23100D02*
X172713D01*
X183572Y19850D02*
X193937D01*
X183228Y29299D02*
X189921D01*
X183572Y23000D02*
X188522D01*
X156850Y42635D02*
X156875Y42659D01*
X150551Y42635D02*
X150726Y42809D01*
X153701Y42291D02*
X153850Y42441D01*
X166299Y45399D02*
X168700Y47800D01*
X166299Y42635D02*
Y45399D01*
X144252Y42635D02*
Y48048D01*
X101300Y22900D02*
X104614Y26214D01*
X112850Y44000D02*
Y44098D01*
Y43902D02*
Y44000D01*
X108949Y40000D02*
X112850Y43902D01*
X107087Y48800D02*
X121087Y62800D01*
X104614Y26214D02*
Y36260D01*
X143121Y70200D02*
X144521Y71600D01*
X144900D01*
X114600Y70200D02*
X143121D01*
X150726Y50526D02*
X150900Y50700D01*
X160000Y54100D02*
X162000Y56100D01*
X144900Y56600D02*
X147402Y54098D01*
X112850Y44098D02*
X125352Y56600D01*
X121087Y62800D02*
X227800D01*
X125352Y56600D02*
X144900D01*
X142000Y50300D02*
X144252Y48048D01*
X160000Y42635D02*
Y54100D01*
X175748Y42635D02*
Y49148D01*
X178898Y44798D02*
X185800Y51700D01*
X178898Y42635D02*
Y44798D01*
X175748Y49148D02*
X178100Y51500D01*
X150726Y42809D02*
Y50526D01*
X147402Y42635D02*
Y54098D01*
X156875Y49775D02*
X156900Y49800D01*
X156875Y42659D02*
Y49775D01*
X153850Y58150D02*
X154000Y58300D01*
X153850Y42441D02*
Y58150D01*
X54000Y86700D02*
Y95945D01*
X131800Y3709D02*
X131909Y3600D01*
X183425Y3512D02*
X183463Y3550D01*
X188091D01*
X188397Y42488D02*
X188470Y42561D01*
X156850Y3709D02*
X156852Y3710D01*
X160000Y3913D02*
Y7398D01*
X166299Y3913D02*
Y7398D01*
X159902Y10481D02*
Y10685D01*
X156852Y8896D02*
X156853Y8898D01*
X150551Y4561D02*
Y9688D01*
X210850Y90800D02*
Y95000D01*
X183228Y13551D02*
X193937D01*
X78050Y43740D02*
X88079D01*
X220000Y27150D02*
Y40176D01*
X72150Y260050D02*
Y265000D01*
X287661Y26280D02*
X293333D01*
X295848Y28795D01*
X301000D01*
X160000Y35413D02*
Y36600D01*
X160100Y36700D01*
X153701Y3709D02*
Y8250D01*
X163151Y3914D02*
Y9748D01*
X163150Y3913D02*
X163151Y3914D01*
X156852Y3710D02*
Y8896D01*
X163151Y9748D02*
X163152Y9750D01*
X159900Y10687D02*
X159902Y10685D01*
D14*
X88474Y197750D02*
X89301D01*
X79096Y206971D02*
X79254D01*
D15*
X82380Y166560D02*
D03*
X87970D02*
D03*
X17338Y167400D02*
D03*
X22928D02*
D03*
X90238Y196400D02*
D03*
X95828D02*
D03*
X112905Y8300D02*
D03*
X118495D02*
D03*
D16*
X78050Y43740D02*
D03*
Y38150D02*
D03*
X248000Y42272D02*
D03*
Y47862D02*
D03*
Y14862D02*
D03*
Y9272D02*
D03*
X220400Y9795D02*
D03*
Y4205D02*
D03*
X245100Y158505D02*
D03*
Y164095D02*
D03*
X308000Y158205D02*
D03*
Y163795D02*
D03*
X301000Y28795D02*
D03*
Y23205D02*
D03*
X220000Y40205D02*
D03*
Y45795D02*
D03*
D17*
X31150Y264000D02*
D03*
X24850D02*
D03*
X82401Y159000D02*
D03*
X88700D02*
D03*
X119150Y44000D02*
D03*
X112850D02*
D03*
X97450Y22900D02*
D03*
X91150D02*
D03*
X288150Y63000D02*
D03*
X281850D02*
D03*
X288000Y48000D02*
D03*
X281701D02*
D03*
X275150Y63000D02*
D03*
X268850D02*
D03*
X274850Y48000D02*
D03*
X268551D02*
D03*
X65850Y265000D02*
D03*
X72150D02*
D03*
X145850Y264000D02*
D03*
X152150D02*
D03*
X105732D02*
D03*
X112031D02*
D03*
X263850D02*
D03*
X270150D02*
D03*
X223850D02*
D03*
X230150D02*
D03*
X184850Y263000D02*
D03*
X191150D02*
D03*
X210850Y95000D02*
D03*
X217150D02*
D03*
X23150Y98000D02*
D03*
X16850D02*
D03*
X23150Y80000D02*
D03*
X16850D02*
D03*
X46850Y152000D02*
D03*
X53150D02*
D03*
X82850Y91000D02*
D03*
X89150D02*
D03*
X22150Y106000D02*
D03*
X15850D02*
D03*
Y89000D02*
D03*
X22150D02*
D03*
D18*
X20000Y256000D02*
D03*
X16378D02*
D03*
X257189Y257000D02*
D03*
X260811D02*
D03*
X57378D02*
D03*
X61000D02*
D03*
X140189D02*
D03*
X143811D02*
D03*
X100260D02*
D03*
X103882D02*
D03*
X217189D02*
D03*
X220811D02*
D03*
X178189D02*
D03*
X181811D02*
D03*
D19*
X24526Y298143D02*
D03*
X40274D02*
D03*
Y291057D02*
D03*
X24526D02*
D03*
X67026D02*
D03*
X82774D02*
D03*
Y298143D02*
D03*
X67026D02*
D03*
X152226Y291057D02*
D03*
X167974D02*
D03*
Y298143D02*
D03*
X152226D02*
D03*
X109626Y291057D02*
D03*
X125374D02*
D03*
Y298143D02*
D03*
X109626D02*
D03*
X279726Y291057D02*
D03*
X295474D02*
D03*
Y298143D02*
D03*
X279726D02*
D03*
X237226Y291057D02*
D03*
X252974D02*
D03*
Y298143D02*
D03*
X237226D02*
D03*
X194726Y291057D02*
D03*
X210474D02*
D03*
Y298143D02*
D03*
X194726D02*
D03*
D20*
X14000Y271740D02*
D03*
Y264260D02*
D03*
X54000Y272000D02*
D03*
Y264520D02*
D03*
X135000Y264260D02*
D03*
Y271740D02*
D03*
X93882Y264260D02*
D03*
Y271740D02*
D03*
X253000Y264520D02*
D03*
Y272000D02*
D03*
X213000Y264260D02*
D03*
Y271740D02*
D03*
X174000Y263520D02*
D03*
Y271000D02*
D03*
D21*
X87400Y189800D02*
D03*
X81731D02*
D03*
D22*
X68211Y190045D02*
D03*
Y199100D02*
D03*
Y208155D02*
D03*
D23*
X44589Y199100D02*
D03*
D24*
X66131Y166560D02*
D03*
Y174040D02*
D03*
X57469Y170300D02*
D03*
D25*
X83691Y208400D02*
D03*
X78100D02*
D03*
X118795Y22000D02*
D03*
X113205D02*
D03*
X83205Y109000D02*
D03*
X88795D02*
D03*
X20795Y115000D02*
D03*
X15205D02*
D03*
D26*
X111400Y189100D02*
D03*
Y172958D02*
D03*
D27*
X43323Y107500D02*
D03*
X64677Y92500D02*
D03*
Y97500D02*
D03*
Y102500D02*
D03*
Y107500D02*
D03*
X43323Y102500D02*
D03*
Y97500D02*
D03*
Y92500D02*
D03*
D28*
X136575Y3512D02*
D03*
Y42488D02*
D03*
X183425D02*
D03*
Y3512D02*
D03*
D29*
X152224Y23000D02*
D03*
Y30776D02*
D03*
X160000D02*
D03*
X167776D02*
D03*
Y23000D02*
D03*
Y15224D02*
D03*
X160000D02*
D03*
X152224D02*
D03*
X160000Y23000D02*
D03*
D30*
X178898Y3709D02*
D03*
X175748D02*
D03*
X172598D02*
D03*
X169449D02*
D03*
X166299D02*
D03*
X163150D02*
D03*
X160000D02*
D03*
X156850D02*
D03*
X153701D02*
D03*
X150551D02*
D03*
X147402D02*
D03*
X144252D02*
D03*
X141102D02*
D03*
Y42291D02*
D03*
X144252D02*
D03*
X147402D02*
D03*
X150551D02*
D03*
X153701D02*
D03*
X156850D02*
D03*
X160000D02*
D03*
X163150D02*
D03*
X166299D02*
D03*
X169449D02*
D03*
X172598D02*
D03*
X175748D02*
D03*
X178898D02*
D03*
D31*
X136772Y7252D02*
D03*
Y10402D02*
D03*
Y13551D02*
D03*
Y16701D02*
D03*
Y19850D02*
D03*
Y23000D02*
D03*
Y26150D02*
D03*
Y29299D02*
D03*
Y32449D02*
D03*
Y35598D02*
D03*
Y38748D02*
D03*
X183228D02*
D03*
Y35598D02*
D03*
Y32449D02*
D03*
Y29299D02*
D03*
Y26150D02*
D03*
Y23000D02*
D03*
Y19850D02*
D03*
Y16701D02*
D03*
Y13551D02*
D03*
Y10402D02*
D03*
Y7252D02*
D03*
D32*
X88079Y43740D02*
D03*
Y40000D02*
D03*
Y36260D02*
D03*
X97921D02*
D03*
Y40000D02*
D03*
Y43740D02*
D03*
D33*
X287661Y21161D02*
D03*
Y23720D02*
D03*
Y26280D02*
D03*
Y28839D02*
D03*
X270339D02*
D03*
Y26280D02*
D03*
Y23720D02*
D03*
Y21161D02*
D03*
D34*
X305913Y184142D02*
D03*
X270087D02*
D03*
X305913Y201858D02*
D03*
X270087D02*
D03*
X243913Y184142D02*
D03*
X208087D02*
D03*
X243913Y201858D02*
D03*
X208087D02*
D03*
D35*
X220000Y27150D02*
D03*
Y20850D02*
D03*
X24000Y45850D02*
D03*
Y52150D02*
D03*
X62000Y45850D02*
D03*
Y52150D02*
D03*
D36*
X209000Y9795D02*
D03*
Y4205D02*
D03*
X239000Y15862D02*
D03*
Y10272D02*
D03*
D37*
X32913Y73000D02*
D03*
X47087D02*
D03*
D38*
X13000Y51598D02*
D03*
Y46402D02*
D03*
X35000D02*
D03*
Y51598D02*
D03*
X45900Y45700D02*
D03*
Y50897D02*
D03*
D39*
X48598Y29701D02*
D03*
X45449D02*
D03*
X26551D02*
D03*
X23402D02*
D03*
D40*
X42890D02*
D03*
X40921D02*
D03*
X38953D02*
D03*
X36984D02*
D03*
X29110D02*
D03*
X31079D02*
D03*
X33047D02*
D03*
X35016D02*
D03*
D41*
X37299Y144520D02*
D03*
Y148260D02*
D03*
Y152000D02*
D03*
X31000D02*
D03*
Y148260D02*
D03*
Y144520D02*
D03*
D42*
X15540Y151000D02*
D03*
X8060D02*
D03*
D43*
X54000Y100000D02*
D03*
D44*
X23533Y131839D02*
D03*
Y129280D02*
D03*
Y126720D02*
D03*
Y124161D02*
D03*
X46667D02*
D03*
Y126720D02*
D03*
Y129280D02*
D03*
Y131839D02*
D03*
M02*
