G04*
G04 #@! TF.GenerationSoftware,Altium Limited,Altium Designer,21.4.1 (30)*
G04*
G04 Layer_Color=32896*
%FSLAX25Y25*%
%MOIN*%
G70*
G04*
G04 #@! TF.SameCoordinates,5C0C8886-D3A0-4CA8-B86F-26C28C7FE488*
G04*
G04*
G04 #@! TF.FilePolarity,Positive*
G04*
G01*
G75*
%ADD14C,0.01000*%
G36*
X25496Y293675D02*
X25452Y162953D01*
X25846Y162909D01*
X26327Y163215D01*
X26415Y163390D01*
X26721Y163697D01*
X27202Y163828D01*
X27640Y164003D01*
X28034Y164397D01*
X28472Y164572D01*
X29259Y165010D01*
X29522Y165272D01*
X29960Y165447D01*
X30310Y165535D01*
X30791Y165929D01*
X31010Y166147D01*
X31623Y166323D01*
X32235Y166673D01*
X32585Y167023D01*
X33548Y167373D01*
X33986Y167810D01*
X34817Y168117D01*
X34949Y168248D01*
X35124Y168336D01*
X35386Y168598D01*
X35824Y168773D01*
X36393Y168992D01*
X36874Y169474D01*
X37312Y169649D01*
X37793Y169780D01*
X37925Y169911D01*
X38100Y169999D01*
X38275Y170261D01*
X38888Y170524D01*
X39238Y170611D01*
X39719Y171005D01*
X39850Y171136D01*
X40288Y171312D01*
X41076Y171749D01*
X41338Y172012D01*
X42170Y172318D01*
X42695Y172756D01*
X42826Y172887D01*
X43176Y172975D01*
X43745Y173193D01*
X44227Y173675D01*
X44664Y173850D01*
X45014Y173937D01*
X45627Y174375D01*
X45802Y174550D01*
X46371Y174769D01*
X46677Y174900D01*
X47028Y175250D01*
X47640Y175513D01*
X47990Y175600D01*
X48472Y175994D01*
X48691Y176213D01*
X49128Y176388D01*
X49610Y176520D01*
X50178Y177088D01*
X51141Y177438D01*
X51491Y177789D01*
X51666Y177876D01*
X52104Y178051D01*
X52717Y178401D01*
X52979Y178664D01*
X53417Y178839D01*
X53986Y179058D01*
X54117Y179189D01*
X54248Y179233D01*
X54336Y179408D01*
X54467Y179539D01*
X54905Y179714D01*
X55386Y179845D01*
X55693Y180064D01*
X56043Y180414D01*
X56480Y180589D01*
X56831Y180677D01*
X57312Y181071D01*
X57443Y181202D01*
X57881Y181377D01*
X58669Y181815D01*
X58931Y182078D01*
X59894Y182428D01*
X60332Y182865D01*
X60507Y182953D01*
X60944Y183128D01*
X61295Y183215D01*
X61776Y183609D01*
X61995Y183828D01*
X62607Y184003D01*
X63045Y184266D01*
X63395Y184616D01*
X64227Y184922D01*
X64358Y185053D01*
X64533Y185141D01*
X64796Y185404D01*
X65233Y185579D01*
X65802Y185797D01*
X66284Y186279D01*
X66721Y186454D01*
X67203Y186585D01*
X67509Y186804D01*
X67859Y187154D01*
X68297Y187329D01*
X68647Y187417D01*
X69128Y187811D01*
X69347Y188029D01*
X69828Y188161D01*
X70266Y188336D01*
X70572Y188555D01*
X70835Y188817D01*
X71273Y188992D01*
X71885Y189342D01*
X72235Y189692D01*
X72804Y189824D01*
X73242Y189999D01*
X73811Y190568D01*
X74380Y190699D01*
X74818Y190874D01*
X75080Y191137D01*
X75124Y191268D01*
X75299Y191355D01*
X76174Y191706D01*
X76656Y192099D01*
X76787Y192231D01*
X77137Y192318D01*
X77706Y192537D01*
X78187Y193018D01*
X79019Y193325D01*
X79325Y193544D01*
X79588Y193894D01*
X80157Y194025D01*
X80507Y194113D01*
X80638Y194244D01*
X80813Y194331D01*
X81032Y194638D01*
X81513Y194857D01*
X82082Y195075D01*
X82389Y195294D01*
X82651Y195557D01*
X83133Y195688D01*
X83833Y196126D01*
X84052Y196344D01*
X84489Y196519D01*
X84839Y196607D01*
X85014Y196782D01*
X85146Y196826D01*
X85233Y197001D01*
X85452Y197220D01*
X86065Y197395D01*
X86415Y197482D01*
X87028Y198095D01*
X87859Y198401D01*
X88253Y198708D01*
X88428Y198795D01*
X89216Y199145D01*
X89391Y199233D01*
X89872Y199627D01*
X90004Y199758D01*
X90616Y199933D01*
X91229Y200283D01*
X91579Y200633D01*
X92060Y200765D01*
X92542Y201071D01*
X92979Y201509D01*
X93461Y201640D01*
X93898Y201815D01*
X94292Y202209D01*
X94730Y202384D01*
X95299Y202603D01*
X95430Y202734D01*
X95561Y202778D01*
X95649Y202953D01*
X96130Y203172D01*
X96962Y203478D01*
X97443Y203959D01*
X97881Y204134D01*
X98231Y204222D01*
X98712Y204616D01*
X98844Y204747D01*
X99982Y205360D01*
X100157Y205535D01*
X100594Y205710D01*
X101382Y206148D01*
X101645Y206410D01*
X102082Y206585D01*
X102432Y206673D01*
X102870Y206935D01*
X103220Y207285D01*
X103658Y207460D01*
X104008Y207548D01*
X104621Y207986D01*
X104796Y208161D01*
X105233Y208336D01*
X105846Y208686D01*
X106021Y208861D01*
X106196Y208948D01*
X107071Y209298D01*
X107553Y209692D01*
X108034Y209911D01*
X108603Y210130D01*
X109084Y210612D01*
X109260Y210699D01*
X109522Y210787D01*
X110091Y211005D01*
X110222Y211137D01*
X110397Y211224D01*
X110748Y211574D01*
X111229Y211705D01*
X111667Y211881D01*
X112148Y212362D01*
X112979Y212668D01*
X113111Y212800D01*
X113286Y212887D01*
X113548Y213150D01*
X114380Y213456D01*
X114686Y213675D01*
X115036Y214025D01*
X115649Y214200D01*
X116262Y214550D01*
X116612Y214900D01*
X117443Y215207D01*
X117750Y215425D01*
X118012Y215688D01*
X118450Y215863D01*
X119238Y216301D01*
X119500Y216563D01*
X120332Y216870D01*
X120638Y217089D01*
X121076Y217526D01*
X121688Y217876D01*
X121820Y218095D01*
X121382Y218795D01*
X121295Y218970D01*
X121163Y219189D01*
X120638Y219364D01*
X119850Y218927D01*
X119063Y218577D01*
X118494Y218445D01*
X118056Y218270D01*
X117137Y217789D01*
X116787Y217701D01*
X115693Y217307D01*
X114511Y216826D01*
X113811Y216651D01*
X113198Y216301D01*
X112411Y215951D01*
X111492Y215732D01*
X111010Y215425D01*
X110397Y215163D01*
X110047Y215075D01*
X109347Y214988D01*
X108822Y214463D01*
X108209Y214288D01*
X107334Y214375D01*
X107290Y214682D01*
X107509Y214900D01*
X108384Y214988D01*
X108953Y215207D01*
X109041Y215382D01*
X109347Y215688D01*
X109960Y215863D01*
X110529Y215994D01*
X111360Y216563D01*
X111973Y216738D01*
X112542Y216957D01*
X112936Y217264D01*
X113548Y217526D01*
X114643Y217920D01*
X114861Y218139D01*
X116218Y218620D01*
X116524Y218839D01*
X117137Y219102D01*
X117969Y219408D01*
X118100Y219539D01*
X118275Y219627D01*
X118888Y219889D01*
X119719Y220196D01*
X120026Y220414D01*
X120244Y220546D01*
X120419Y221159D01*
Y221421D01*
X120376Y221465D01*
X120244Y221771D01*
X119850Y222253D01*
X119632Y222471D01*
X119544Y223084D01*
X119457Y224134D01*
X119325Y224266D01*
X118800Y224441D01*
X118537Y224353D01*
X117662Y224266D01*
X116218Y224134D01*
X113855Y223784D01*
X113154Y223609D01*
X112717Y223522D01*
X110966Y223434D01*
X109391Y223347D01*
X108691Y223259D01*
X107815Y223172D01*
X107115Y222997D01*
X106109Y222690D01*
X104708Y222603D01*
X102782Y222690D01*
X102170Y222778D01*
X101995Y222865D01*
X101864Y222997D01*
X102082Y223215D01*
X102432Y223303D01*
X103045Y223391D01*
X105146Y223478D01*
X105408Y223566D01*
X105977Y223697D01*
X107071Y224178D01*
X107684Y224266D01*
X109741Y224397D01*
X110441Y224485D01*
X110879Y224572D01*
X111317Y224747D01*
X111667Y224835D01*
X112148Y224966D01*
X112761Y225054D01*
X114380Y225185D01*
X115080Y225272D01*
X115955Y225447D01*
X116437Y225579D01*
X117050Y225754D01*
X117400Y225841D01*
X118537Y225929D01*
X119019Y226235D01*
X119106Y226585D01*
X118975Y227067D01*
X118756Y227636D01*
X118844Y227986D01*
X119019Y228598D01*
X119194Y229299D01*
X119106Y230349D01*
X118888Y230568D01*
X118450Y230743D01*
X117881Y230874D01*
X117443Y230962D01*
X116743Y231049D01*
X115868Y231137D01*
X114818Y231312D01*
X113067Y231662D01*
X112542Y231749D01*
X111842Y231837D01*
X110266Y232012D01*
X109828Y232099D01*
X109478Y232187D01*
X108997Y232318D01*
X108122Y232581D01*
X107509Y232668D01*
X105233Y232843D01*
X104971Y232931D01*
X104489Y233062D01*
X104402Y233237D01*
X104883Y233369D01*
X106809Y233456D01*
X108209Y233369D01*
X108472Y233281D01*
X109303Y233150D01*
X109653Y233062D01*
X110091Y232975D01*
X110791Y232887D01*
X111579Y232800D01*
X112279Y232712D01*
X114292Y232537D01*
X114993Y232450D01*
X115780Y232362D01*
X117575Y232143D01*
X117925Y232056D01*
X118581Y231924D01*
X119238Y231881D01*
X119457Y232012D01*
X119632Y232450D01*
X119807Y234375D01*
X119894Y234638D01*
X120288Y235119D01*
X120419Y235513D01*
X120157Y235951D01*
X120026Y236082D01*
X119457Y236213D01*
X118975Y236520D01*
X118537Y236782D01*
X117837Y236957D01*
X117400Y237132D01*
X117225Y237307D01*
X117050Y237395D01*
X116437Y237657D01*
X115605Y237964D01*
X115474Y238095D01*
X115299Y238183D01*
X114861Y238358D01*
X113767Y238752D01*
X113461Y239058D01*
X113023Y239233D01*
X112323Y239408D01*
X111885Y239583D01*
X111623Y239846D01*
X111448Y239933D01*
X110835Y240196D01*
X110135Y240283D01*
X109741Y240590D01*
X109653Y240765D01*
X109172Y240984D01*
X108253Y241115D01*
X107903Y241377D01*
X107640Y241815D01*
X106853Y241902D01*
X106415Y241990D01*
X106152Y242165D01*
X106065Y242515D01*
X106152Y242690D01*
X106590Y242778D01*
X107334Y242822D01*
X107772Y242559D01*
X107903Y242428D01*
X107990Y242253D01*
X108122Y242121D01*
X108691Y241990D01*
X109478Y241902D01*
X109916Y241727D01*
X110310Y241334D01*
X111010Y241159D01*
X111710Y241071D01*
X112323Y240633D01*
X112936Y240371D01*
X113286Y240283D01*
X113942Y240152D01*
X114249Y239933D01*
X114686Y239671D01*
X115299Y239495D01*
X115649Y239408D01*
X116218Y239189D01*
X117137Y238708D01*
X117837Y238533D01*
X118319Y238401D01*
X118844Y238051D01*
X119413Y237832D01*
X119763Y237745D01*
X120551Y237395D01*
X120988Y237482D01*
X121207Y237876D01*
X121513Y238445D01*
X121688Y238533D01*
X121995Y238839D01*
X122170Y239277D01*
X122432Y239714D01*
X122783Y240065D01*
X122870Y240240D01*
X123220Y241027D01*
X123133Y241640D01*
X123001Y241771D01*
X122826Y241859D01*
X122345Y242253D01*
X121688Y242909D01*
X121513Y242997D01*
X121076Y243434D01*
X120901Y243522D01*
X120726Y243697D01*
X120551Y243784D01*
X120113Y244222D01*
X119938Y244309D01*
X119763Y244485D01*
X119588Y244572D01*
X119238Y244922D01*
X119063Y245010D01*
X118800Y245272D01*
X118625Y245360D01*
X118012Y245973D01*
X117837Y246060D01*
X117050Y246848D01*
X116875Y246935D01*
X116393Y247329D01*
X115912Y247811D01*
X115737Y247898D01*
X115430Y248117D01*
X115343Y248292D01*
X115036Y248598D01*
X114599Y248861D01*
X114380Y249080D01*
X114292Y249255D01*
X114161Y249386D01*
X113548Y249736D01*
X113198Y250261D01*
X112586Y250611D01*
X112367Y250830D01*
X112279Y251005D01*
X112060Y251224D01*
X111492Y251531D01*
X111404Y251793D01*
X111535Y251924D01*
X111885Y251837D01*
X112104Y251706D01*
X112192Y251531D01*
X112411Y251224D01*
X112892Y251093D01*
X113198Y250874D01*
X113417Y250655D01*
X113505Y250480D01*
X113986Y250261D01*
X114161Y250174D01*
X114468Y249868D01*
X114555Y249693D01*
X114686Y249561D01*
X115255Y249342D01*
X115518Y249080D01*
X115605Y248905D01*
X116568Y248292D01*
X116962Y247898D01*
X117137Y247811D01*
X117619Y247417D01*
X117925Y247110D01*
X118100Y247023D01*
X118712Y246585D01*
X119063Y246235D01*
X119675Y245885D01*
X120113Y245447D01*
X120551Y245185D01*
X121032Y244791D01*
X121338Y244485D01*
X121513Y244397D01*
X121688Y244222D01*
X121863Y244134D01*
X122301Y243697D01*
X122476Y243609D01*
X123570Y242778D01*
X123789Y242559D01*
X124139Y242472D01*
X124577Y242559D01*
X124839Y242822D01*
X125014Y242909D01*
X125146Y243040D01*
X125233Y243215D01*
X125540Y243522D01*
X125715Y243609D01*
X126109Y243916D01*
X126196Y244091D01*
X126590Y244572D01*
X127203Y245185D01*
X127378Y245272D01*
X127990Y245710D01*
X128253Y245973D01*
X129216Y246498D01*
X129566Y246848D01*
X130047Y246979D01*
X130485Y247154D01*
X130966Y247636D01*
X131667Y247811D01*
X131842Y247898D01*
X132061Y248117D01*
X131973Y248642D01*
X131535Y249255D01*
X131448Y249605D01*
X131316Y250174D01*
X131229Y250524D01*
X130966Y251224D01*
X130660Y251793D01*
X130485Y252406D01*
X130354Y252887D01*
X130266Y253237D01*
X130091Y253675D01*
X129697Y254331D01*
X129566Y255075D01*
X129478Y255426D01*
X129216Y256126D01*
X129085Y256257D01*
X128997Y256432D01*
X128734Y257045D01*
X128647Y258008D01*
X128209Y258620D01*
X128034Y258795D01*
X127947Y259145D01*
X127859Y260458D01*
X127465Y260940D01*
X127159Y261246D01*
X127071Y261859D01*
X127203Y263040D01*
X127640Y262953D01*
X127859Y262734D01*
X127947Y262384D01*
X128034Y261334D01*
X128341Y261027D01*
X128516Y260940D01*
X128647Y260808D01*
X128822Y260108D01*
X128910Y259496D01*
X129522Y258533D01*
X129610Y258183D01*
X129829Y257264D01*
X130091Y256826D01*
X130266Y256738D01*
X130485Y256257D01*
X130572Y255469D01*
X130923Y254857D01*
X131273Y254069D01*
X131667Y252975D01*
X132061Y252318D01*
X132148Y251706D01*
X132367Y251137D01*
X132586Y250830D01*
X132936Y250043D01*
X133067Y249561D01*
X133242Y249124D01*
X133461Y248817D01*
X133855Y248686D01*
X134555Y248774D01*
X135693Y249299D01*
X137093Y249386D01*
X137443Y249474D01*
X138844Y249561D01*
X139457Y249649D01*
X140419Y249561D01*
X140682Y249474D01*
X143483Y249386D01*
X143745Y249299D01*
X144665Y249167D01*
X145146Y249036D01*
X145977Y248730D01*
X146721Y248511D01*
X147159Y248598D01*
X147553Y248905D01*
X148078Y250043D01*
X148472Y251137D01*
X148953Y252231D01*
X149041Y252581D01*
X149260Y253150D01*
X149391Y253281D01*
X149478Y253456D01*
X149741Y254069D01*
X149829Y254419D01*
X150047Y254988D01*
X150529Y255907D01*
X150660Y256476D01*
X150748Y256826D01*
X150923Y257264D01*
X151316Y257658D01*
X151492Y258358D01*
X151579Y258970D01*
X151885Y259452D01*
X152060Y259539D01*
X152192Y259671D01*
X152367Y260283D01*
X152498Y261115D01*
X152673Y261465D01*
X153023Y261553D01*
X153067Y260371D01*
X152980Y260108D01*
X152892Y259758D01*
X152542Y259408D01*
X152367Y258970D01*
X152148Y257701D01*
X151798Y257176D01*
X151579Y256607D01*
X151448Y256038D01*
X151360Y255601D01*
X151273Y255251D01*
X150879Y254506D01*
X150529Y253281D01*
X150310Y252712D01*
X149916Y251793D01*
X149741Y251181D01*
X149653Y250830D01*
X149522Y250349D01*
X148866Y248905D01*
X148778Y248555D01*
X148866Y247942D01*
X148997Y247811D01*
X150135Y247198D01*
X150923Y246848D01*
X151360Y246585D01*
X151710Y246235D01*
X152148Y246060D01*
X152323Y245973D01*
X152805Y245579D01*
X153023Y245360D01*
X153636Y245010D01*
X153767Y244879D01*
X153855Y244703D01*
X154074Y244485D01*
X154861Y244047D01*
X155299Y243609D01*
X155474Y243522D01*
X155693Y243303D01*
X155780Y243128D01*
X155999Y242822D01*
X156437Y242647D01*
X157050Y242734D01*
X157750Y243434D01*
X157925Y243522D01*
X158538Y243959D01*
X158888Y244309D01*
X159063Y244397D01*
X159675Y244835D01*
X160769Y245666D01*
X161163Y246060D01*
X161338Y246148D01*
X161995Y246629D01*
X162082Y246804D01*
X162214Y246935D01*
X162389Y247023D01*
X163002Y247373D01*
X163439Y247811D01*
X163877Y248073D01*
X164402Y248598D01*
X165015Y248949D01*
X165627Y249561D01*
X166196Y249868D01*
X166284Y250043D01*
X166503Y250261D01*
X167071Y250480D01*
X167334Y250655D01*
X167422Y250830D01*
X167640Y251049D01*
X168297Y251356D01*
X168384Y251531D01*
X168691Y251924D01*
X169172Y252056D01*
X169478Y252274D01*
X169697Y252581D01*
X169829Y252712D01*
X170441Y252887D01*
X170573Y252843D01*
X170485Y252406D01*
X170179Y252099D01*
X169566Y251749D01*
X169260Y251268D01*
X168560Y250918D01*
X168472Y250743D01*
X168166Y250349D01*
X167991Y250261D01*
X167509Y249868D01*
X167422Y249693D01*
X167203Y249474D01*
X166765Y249211D01*
X166240Y248686D01*
X165802Y248423D01*
X165102Y247723D01*
X164927Y247636D01*
X164446Y247242D01*
X164052Y246848D01*
X163877Y246760D01*
X163658Y246629D01*
X163570Y246454D01*
X163177Y246060D01*
X162739Y245797D01*
X162301Y245360D01*
X162126Y245272D01*
X161951Y245097D01*
X161776Y245010D01*
X161076Y244309D01*
X160901Y244222D01*
X160463Y243784D01*
X160288Y243697D01*
X160026Y243434D01*
X159851Y243347D01*
X159719Y243215D01*
X159632Y243040D01*
X159500Y242909D01*
X159325Y242822D01*
X158844Y242428D01*
X158538Y242121D01*
X158362Y242034D01*
X158187Y241859D01*
X158012Y241771D01*
X157706Y241465D01*
X157618Y241115D01*
X157881Y240677D01*
X158056Y240502D01*
X158581Y239539D01*
X158844Y239277D01*
X159019Y238577D01*
X159238Y238008D01*
X159588Y237570D01*
X159763Y237482D01*
X160201Y237307D01*
X160551Y237395D01*
X161163Y237657D01*
X161995Y237964D01*
X162476Y238183D01*
X162914Y238358D01*
X164271Y238839D01*
X164839Y239145D01*
X166459Y239714D01*
X167203Y240108D01*
X167903Y240283D01*
X168384Y240415D01*
X168691Y240633D01*
X169216Y240984D01*
X170047Y241115D01*
X170485Y241202D01*
X170791Y241334D01*
X171229Y241771D01*
X171842Y241859D01*
X172761Y241815D01*
X172498Y241377D01*
X172367Y241246D01*
X171754Y241159D01*
X171054Y240984D01*
X170835Y240765D01*
X170748Y240590D01*
X170616Y240458D01*
X170004Y240283D01*
X169303Y240108D01*
X168428Y239495D01*
X167772Y239364D01*
X167334Y239189D01*
X167028Y238970D01*
X166853Y238795D01*
X166240Y238620D01*
X165540Y238358D01*
X165015Y238008D01*
X163920Y237614D01*
X162826Y237045D01*
X161995Y236738D01*
X160726Y235994D01*
X160419Y235688D01*
X160507Y235075D01*
X160682Y234638D01*
X160769Y234288D01*
X161382Y233325D01*
X161470Y232537D01*
X161689Y232143D01*
X162039Y232056D01*
X162739Y232143D01*
X163002Y232231D01*
X163614Y232318D01*
X164664Y232493D01*
X165277Y232581D01*
X168297Y232800D01*
X169697Y232975D01*
X170748Y233150D01*
X171185Y233237D01*
X171667Y233369D01*
X172017Y233456D01*
X176306Y233544D01*
X177444Y233456D01*
X177487Y233412D01*
X177269Y233018D01*
X176568Y232843D01*
X175737Y232712D01*
X173899Y232625D01*
X172761Y232450D01*
X172061Y232187D01*
X171317Y231968D01*
X170966Y231881D01*
X169041Y231793D01*
X168778Y231706D01*
X167903Y231618D01*
X167640Y231530D01*
X167290Y231443D01*
X166415Y231180D01*
X166065Y231093D01*
X164227Y231005D01*
X163964Y230918D01*
X163308Y230786D01*
X162958Y230699D01*
X162258Y230611D01*
X161951Y230480D01*
X161732Y230261D01*
X161645Y229649D01*
X161732Y228511D01*
X161645Y228248D01*
X161513Y226979D01*
X161470Y226323D01*
X161864Y225841D01*
X162739Y225754D01*
X163352Y225666D01*
X163920Y225535D01*
X164271Y225447D01*
X165146Y225272D01*
X165671Y225185D01*
X166371Y225097D01*
X167159Y225010D01*
X168209Y224835D01*
X168560Y224747D01*
X168997Y224660D01*
X169697Y224485D01*
X170179Y224353D01*
X171579Y224266D01*
X173067Y224091D01*
X173505Y223916D01*
X174118Y223566D01*
X174555Y223391D01*
X176174Y223259D01*
X176875Y223172D01*
X177137Y223084D01*
X177093Y222953D01*
X176743Y222865D01*
X175955Y222778D01*
X175693Y222865D01*
X174949Y222997D01*
X174599Y223084D01*
X173855Y223391D01*
X172804Y223478D01*
X172542Y223391D01*
X170616Y223478D01*
X169435Y223609D01*
X168735Y223697D01*
X167553Y223828D01*
X166940Y223916D01*
X166590Y224003D01*
X165102Y224178D01*
X164752Y224266D01*
X163352Y224353D01*
X162345Y224485D01*
X162039Y224528D01*
X161776Y224441D01*
X161601Y224353D01*
X161382Y224134D01*
X160857Y222384D01*
X160682Y221684D01*
X160769Y220633D01*
X160988Y220414D01*
X161776Y220064D01*
X162476Y219802D01*
X163002Y219452D01*
X163877Y219189D01*
X164664Y218752D01*
X165277Y218489D01*
X165627Y218401D01*
X166065Y218226D01*
X166678Y217789D01*
X167028Y217701D01*
X167597Y217570D01*
X167903Y217439D01*
X168341Y217001D01*
X169041Y216826D01*
X169741Y216563D01*
X170354Y216126D01*
X170966Y215951D01*
X171535Y215819D01*
X171667Y215688D01*
X171842Y215600D01*
X171973Y215469D01*
X172017Y215338D01*
X172192Y215250D01*
X172629Y215075D01*
X173461Y214944D01*
X173767Y214725D01*
X173986Y214419D01*
X174118Y214288D01*
X175343Y214113D01*
X175562Y213894D01*
X175474Y213544D01*
X175343Y213412D01*
X174030Y213500D01*
X173724Y213806D01*
X173636Y213981D01*
X173505Y214113D01*
X172892Y214200D01*
X171929Y214288D01*
X171404Y214813D01*
X170704Y214988D01*
X170091Y215075D01*
X169478Y215425D01*
X169216Y215688D01*
X168866Y215776D01*
X168253Y215863D01*
X167772Y215994D01*
X167640Y216126D01*
X167465Y216213D01*
X166678Y216563D01*
X166065Y216738D01*
X165496Y216957D01*
X164839Y217351D01*
X163614Y217701D01*
X162126Y218401D01*
X161207Y218533D01*
X160726Y219014D01*
X160376Y219102D01*
X159851Y219014D01*
X159500Y218664D01*
X159325Y218577D01*
X159107Y218358D01*
X159063Y218051D01*
X159194Y217745D01*
X159325Y217614D01*
X159675Y217526D01*
X160113Y217351D01*
X160463Y217001D01*
X161338Y216651D01*
X161951Y216038D01*
X162870Y215819D01*
X163527Y215163D01*
X164096Y215032D01*
X164533Y214857D01*
X165015Y214375D01*
X165452Y214200D01*
X165802Y214113D01*
X166284Y213719D01*
X166415Y213587D01*
X166853Y213412D01*
X167203Y213325D01*
X167684Y212931D01*
X167815Y212800D01*
X168253Y212625D01*
X168822Y212406D01*
X168953Y212275D01*
X169128Y212187D01*
X169391Y211924D01*
X169829Y211749D01*
X170573Y211355D01*
X170660Y211180D01*
X170791Y211049D01*
X171229Y210874D01*
X171710Y210743D01*
X172236Y210305D01*
X172717Y210086D01*
X173286Y209868D01*
X173680Y209474D01*
X173855Y209386D01*
X174730Y209036D01*
X174993Y208773D01*
X175168Y208686D01*
X175343Y208511D01*
X175693Y208423D01*
X176306Y208073D01*
X176656Y207723D01*
X177093Y207548D01*
X177575Y207417D01*
X177881Y207198D01*
X178231Y206848D01*
X179063Y206541D01*
X179588Y206104D01*
X180069Y205885D01*
X180638Y205666D01*
X181032Y205272D01*
X181645Y205010D01*
X182257Y204660D01*
X182608Y204310D01*
X183220Y204134D01*
X183658Y203959D01*
X184096Y203522D01*
X184533Y203347D01*
X185015Y203215D01*
X185584Y202646D01*
X186415Y202340D01*
X186721Y202121D01*
X186984Y201859D01*
X188078Y201465D01*
X188341Y201202D01*
X188428Y201027D01*
X188910Y200808D01*
X189391Y200677D01*
X189916Y200239D01*
X190048Y200108D01*
X190398Y200021D01*
X190966Y199802D01*
X191535Y199233D01*
X192017Y199102D01*
X192323Y198970D01*
X192805Y198576D01*
X192936Y198445D01*
X193417Y198314D01*
X193855Y198139D01*
X194117Y197964D01*
X194205Y197789D01*
X194424Y197570D01*
X195036Y197395D01*
X195606Y197088D01*
X195693Y196913D01*
X196087Y196695D01*
X196437Y196607D01*
X197050Y196257D01*
X197400Y195907D01*
X198231Y195600D01*
X198450Y195382D01*
X198625Y195294D01*
X198800Y195119D01*
X199763Y194769D01*
X200288Y194244D01*
X200901Y194069D01*
X201339Y193806D01*
X201689Y193456D01*
X202126Y193281D01*
X202608Y193150D01*
X202739Y193018D01*
X202870Y192975D01*
X202958Y192800D01*
X203089Y192668D01*
X203527Y192493D01*
X203877Y192406D01*
X204446Y192099D01*
X204533Y191924D01*
X204752Y191706D01*
X205365Y191530D01*
X205802Y191268D01*
X206153Y190918D01*
X206590Y190743D01*
X206940Y190655D01*
X207553Y190305D01*
X207903Y189955D01*
X208384Y189824D01*
X208822Y189649D01*
X209216Y189255D01*
X210091Y188905D01*
X210616Y188380D01*
X211054Y188204D01*
X211404Y188117D01*
X211886Y187723D01*
X212104Y187504D01*
X212717Y187329D01*
X213155Y187067D01*
X213592Y186629D01*
X214161Y186498D01*
X214468Y186366D01*
X214993Y185841D01*
X215693Y185666D01*
X216131Y185404D01*
X216568Y184966D01*
X217181Y184791D01*
X217619Y184528D01*
X218056Y184091D01*
X218625Y183959D01*
X219063Y183784D01*
X219238Y183697D01*
X219325Y183522D01*
X219457Y183390D01*
X219632Y183303D01*
X220507Y182953D01*
X220988Y182559D01*
X221120Y182428D01*
X221601Y182296D01*
X222082Y181990D01*
X222214Y181859D01*
X222258Y181727D01*
X222433Y181640D01*
X222870Y181465D01*
X223220Y181377D01*
X223614Y181071D01*
X223702Y180896D01*
X224183Y180677D01*
X224533Y180589D01*
X224971Y180414D01*
X225409Y179977D01*
X225846Y179802D01*
X226415Y179583D01*
X226722Y179277D01*
X226897Y179189D01*
X227509Y178927D01*
X227947Y178664D01*
X228209Y178314D01*
X228647Y178139D01*
X228997Y178051D01*
X229391Y177832D01*
X229479Y177657D01*
X229697Y177438D01*
X230310Y177263D01*
X230879Y177045D01*
X231360Y176563D01*
X232323Y176213D01*
X232673Y175863D01*
X232848Y175776D01*
X233286Y175600D01*
X233724Y175338D01*
X234161Y174900D01*
X234861Y174725D01*
X235299Y174463D01*
X235737Y174025D01*
X236350Y173850D01*
X236962Y173500D01*
X237312Y173150D01*
X237794Y173018D01*
X238231Y172843D01*
X238625Y172450D01*
X239063Y172274D01*
X239632Y172056D01*
X239807Y171968D01*
X239894Y171793D01*
X240463Y171487D01*
X241032Y171268D01*
X241382Y170918D01*
X241426Y170786D01*
X241601Y170699D01*
X242039Y170524D01*
X242520Y170393D01*
X242827Y170174D01*
X242914Y169999D01*
X243089Y169911D01*
X243702Y169649D01*
X244315Y169299D01*
X244577Y169036D01*
X245540Y168686D01*
X245890Y168336D01*
X246065Y168248D01*
X246503Y168073D01*
X247115Y167723D01*
X247334Y167417D01*
X247816Y167198D01*
X248297Y167067D01*
X248822Y166629D01*
X249216Y166410D01*
X249916Y166147D01*
X250398Y165754D01*
X250529Y165622D01*
X251010Y165491D01*
X251448Y165316D01*
X251842Y164922D01*
X252279Y164747D01*
X252892Y164397D01*
X253242Y164047D01*
X253680Y163872D01*
X254511Y163565D01*
X254993Y163347D01*
X255168Y163434D01*
X255212Y164003D01*
X255124Y164266D01*
X255080Y195207D01*
X255299Y195951D01*
X255212Y228598D01*
X255124Y228861D01*
X255212Y260721D01*
X255299Y260983D01*
X255212Y293369D01*
X254730Y293587D01*
X251229Y293500D01*
X198932Y293544D01*
X198100Y293500D01*
X197662Y293675D01*
X197312Y293763D01*
X139807Y293675D01*
X139544Y293587D01*
X138931Y293500D01*
X137925Y293544D01*
X83964Y293500D01*
X83701Y293587D01*
X83089Y293675D01*
X82214Y293763D01*
X25496Y293675D01*
D02*
G37*
G36*
X140638Y224835D02*
X140376Y224397D01*
X140244Y224266D01*
X139807Y224003D01*
X139588Y223434D01*
X139675Y222646D01*
X139763Y222384D01*
X139675Y221946D01*
X139544Y221815D01*
X139106Y221902D01*
X138975Y222034D01*
X138625Y222646D01*
X138319Y222690D01*
X138100Y222471D01*
X138012Y222121D01*
X138100Y221509D01*
X138187Y221246D01*
X138319Y220590D01*
X138538Y220283D01*
X138800Y220021D01*
X138975Y219583D01*
X139150Y218883D01*
X139019Y218139D01*
X138931Y217789D01*
X138844Y217614D01*
X138494Y217526D01*
X138056Y217614D01*
X137925Y217745D01*
X137837Y219058D01*
X137400Y219671D01*
X136787Y220283D01*
X136699Y220633D01*
X136787Y220984D01*
X136962Y221421D01*
X136743Y221815D01*
X136437Y221509D01*
X136306Y221027D01*
X135999Y220458D01*
X136043Y219627D01*
X135868Y219452D01*
X135387Y219583D01*
X135080Y219627D01*
X134599Y219233D01*
X134511Y218883D01*
X134599Y218358D01*
X134774Y217920D01*
X134861Y217220D01*
X134511Y216607D01*
X134467Y216563D01*
X134424Y216520D01*
X134117Y216388D01*
X133636Y216782D01*
X133548Y217132D01*
X133636Y217920D01*
X133723Y218183D01*
X133811Y218533D01*
X133723Y218708D01*
X133417Y218752D01*
X133023Y218358D01*
X132936Y218007D01*
X132848Y216957D01*
X132454Y216826D01*
X131973Y217220D01*
X131754Y217264D01*
X131623Y217132D01*
X131710Y216432D01*
X131885Y216257D01*
X131973Y216082D01*
X132542Y215338D01*
X132717Y215250D01*
X132936Y215032D01*
X133198Y214156D01*
X133111Y213369D01*
X132717Y212887D01*
X132279Y212975D01*
X131798Y213456D01*
X131710Y213631D01*
X131404Y213675D01*
X130923Y213281D01*
X130835Y213018D01*
X130923Y212756D01*
X131185Y212493D01*
X131273Y212318D01*
X131710Y211705D01*
X132192Y211224D01*
X132629Y211049D01*
X133242Y210699D01*
X133461Y210480D01*
X133636Y209868D01*
X133548Y209692D01*
X133417Y209561D01*
X132192Y209649D01*
X131885Y209868D01*
X131842Y209999D01*
X131710Y209955D01*
X131798Y209605D01*
X131973Y209430D01*
X132411Y208642D01*
X132542Y208511D01*
X133155Y208336D01*
X135080Y208161D01*
X135562Y207767D01*
X136087Y207417D01*
X136262Y207242D01*
X136393Y206760D01*
X136568Y206323D01*
X136743Y206060D01*
X137181Y205797D01*
X137225Y205316D01*
X137137Y205053D01*
X136699Y204266D01*
X136524Y204091D01*
X136174Y202953D01*
X136262Y202603D01*
X136699Y201990D01*
X137181Y201771D01*
X138144Y201246D01*
X138756Y200983D01*
X139325Y200852D01*
X139807Y200721D01*
X140157Y200633D01*
X141776Y200765D01*
X142301Y200852D01*
X142739Y201115D01*
X142826Y201290D01*
X143220Y201421D01*
X143789Y201640D01*
X144358Y202384D01*
X144796Y202646D01*
X144840Y203040D01*
X144358Y203522D01*
X143921Y203609D01*
X143789Y203478D01*
X143702Y202953D01*
X143483Y202734D01*
X142607Y202646D01*
X142345Y202209D01*
X141032Y201596D01*
X139281Y201684D01*
X138888Y201990D01*
X138975Y203916D01*
X139063Y204178D01*
X139150Y204528D01*
X139325Y204966D01*
X139457Y205097D01*
X141557Y205010D01*
X142082Y204660D01*
X142257Y204747D01*
X142520Y204835D01*
X143176Y204528D01*
X143483Y204660D01*
X143702Y205228D01*
X143789Y205666D01*
X144096Y205973D01*
X144358Y206060D01*
X144489Y206191D01*
X144577Y206541D01*
X144446Y207023D01*
X144314Y207329D01*
X143921Y207373D01*
X143702Y207242D01*
X143614Y206891D01*
X143483Y206323D01*
X143045Y206148D01*
X142389Y206454D01*
X142214Y206279D01*
X141995Y205710D01*
X141820Y205535D01*
X141557Y205622D01*
X139982Y205710D01*
X139719Y205622D01*
X139238Y205491D01*
X139106Y205360D01*
X138756Y205272D01*
X138363Y205491D01*
X138450Y205754D01*
X138756Y205973D01*
X138888Y206366D01*
X138800Y207417D01*
X138363Y208380D01*
X138231Y209211D01*
X138187Y209780D01*
X138275Y210043D01*
X138363Y210393D01*
X138319Y211312D01*
X138406Y211662D01*
X138888Y212668D01*
X138975Y213018D01*
X138888Y213369D01*
X138187Y213456D01*
X137881Y213675D01*
X137750Y213806D01*
X137662Y213981D01*
X137225Y214331D01*
X137137Y214682D01*
X137225Y215382D01*
X137575Y215994D01*
X138012Y215032D01*
X138406Y214288D01*
X138581Y214200D01*
X138975Y213806D01*
X139019Y213675D01*
X139457Y213762D01*
X139588Y213894D01*
X139763Y214506D01*
X139982Y214900D01*
X140857Y214813D01*
X141163Y214506D01*
X141514Y213719D01*
X142126Y212406D01*
X142257Y211924D01*
X142914Y210830D01*
X143045Y210699D01*
X143570Y210612D01*
X143702Y210480D01*
X143614Y210218D01*
X143308Y210174D01*
X143045Y210261D01*
X142739Y210130D01*
X142564Y209430D01*
X142651Y208117D01*
X142958Y207548D01*
X143308Y207635D01*
X143351Y208029D01*
X143176Y208467D01*
X143395Y208948D01*
X143745Y209036D01*
X143921Y208948D01*
X144314Y208204D01*
X144402Y207854D01*
X144533Y207548D01*
X145233Y207635D01*
X145452Y207767D01*
X145540Y207942D01*
X145758Y208248D01*
X146459Y208423D01*
X148122Y208511D01*
X148909Y209123D01*
X149216Y209430D01*
X149303Y209605D01*
X149478Y209780D01*
X149653Y210305D01*
X149522Y210612D01*
X149347Y210524D01*
X149128Y210305D01*
X149041Y210130D01*
X148909Y209999D01*
X148297Y209911D01*
X147903Y210218D01*
X147859Y210612D01*
X147947Y211049D01*
X148253Y211530D01*
X148384Y211662D01*
X148559Y211749D01*
X148866Y211968D01*
X148953Y212143D01*
X149347Y212625D01*
X149566Y212843D01*
X149741Y213281D01*
X149653Y214506D01*
X149435Y214725D01*
X149128Y214419D01*
X148997Y213937D01*
X148559Y213412D01*
X148297Y213500D01*
X148166Y213631D01*
X148034Y214113D01*
X147991Y214944D01*
X148428Y215907D01*
X148516Y217045D01*
X148428Y217220D01*
X148078Y218007D01*
X147991Y218183D01*
X147772Y218489D01*
X147597Y218577D01*
X147072Y218927D01*
X146940Y218795D01*
X147028Y218183D01*
X146940Y217570D01*
X146371Y217526D01*
X145583Y217964D01*
X145452Y218095D01*
X145365Y219496D01*
X145146Y219802D01*
X144533Y220152D01*
X144402Y220283D01*
X144314Y220458D01*
X143745Y221552D01*
X143395Y221640D01*
X143176Y221421D01*
X143220Y219364D01*
X143045Y219102D01*
X142520Y219189D01*
X142126Y219583D01*
X142039Y219758D01*
X141776Y220196D01*
X141732Y220414D01*
X141907Y220852D01*
X142126Y221334D01*
X142082Y221815D01*
X141732Y221902D01*
X141120Y221990D01*
X140726Y222384D01*
X140551Y222821D01*
X140638Y223872D01*
X140945Y224178D01*
X141120Y224266D01*
X141338Y224485D01*
X141251Y224922D01*
X141032Y225054D01*
X140638Y224835D01*
D02*
G37*
G36*
X130835Y215294D02*
X130923Y214769D01*
Y214682D01*
X131229Y214375D01*
X131492Y214288D01*
X131535Y214682D01*
X131273Y214944D01*
X131185Y215119D01*
X130966Y215338D01*
X130835Y215294D01*
D02*
G37*
G36*
X157356Y206279D02*
X157181Y205841D01*
X157268Y205491D01*
X157443Y205053D01*
X157531Y204703D01*
X157443Y204266D01*
X157312Y204134D01*
X156700Y204047D01*
X156393Y203828D01*
X156306Y203653D01*
X156174Y203522D01*
X155824Y203609D01*
X155518Y203916D01*
X155430Y204091D01*
X155124Y204397D01*
X154511Y204310D01*
X154030Y204003D01*
X153724Y203347D01*
X153549Y203259D01*
X153242Y202953D01*
X153330Y202340D01*
X153636Y202034D01*
X154074Y201859D01*
X154117Y202078D01*
X153942Y202515D01*
X153855Y202865D01*
X153942Y203215D01*
X154511Y203259D01*
X154905Y202953D01*
X154993Y202778D01*
X155211Y202559D01*
X155912Y202296D01*
X156043Y202165D01*
X155956Y201815D01*
X155737Y201596D01*
X155255Y201465D01*
X154818Y201290D01*
X154730Y200940D01*
X155124Y200458D01*
X155299Y200371D01*
X156087Y200021D01*
X156393Y200152D01*
X156481Y200502D01*
X156437Y201071D01*
X156568Y201377D01*
X157093Y201727D01*
X157268Y201903D01*
X157181Y202253D01*
X157050Y202384D01*
X156481Y202603D01*
X156393Y202865D01*
X156481Y203215D01*
X156918Y203303D01*
X157225Y203434D01*
X157443Y203653D01*
X157531Y204178D01*
X158012Y204222D01*
X158538Y204047D01*
X158800Y203609D01*
X160288Y204310D01*
X160901Y204222D01*
X161120Y204003D01*
X161207Y203828D01*
X161513Y203522D01*
X162126Y203347D01*
X162476Y203434D01*
X162608Y203566D01*
X162695Y204091D01*
X162914Y204310D01*
X163264Y204222D01*
X163395Y204091D01*
X163308Y203566D01*
X163177Y203434D01*
X163002Y203347D01*
X162870Y203215D01*
X162958Y202778D01*
X163089Y202646D01*
X163789Y202384D01*
X164621Y201815D01*
X164708Y201640D01*
X164971Y201027D01*
X165102Y200546D01*
X165759Y199277D01*
X166196Y198314D01*
X166109Y197789D01*
X165846Y197351D01*
X165627Y197132D01*
X165452Y197045D01*
X165058Y196651D01*
X164927Y196169D01*
X165190Y195819D01*
X165627Y195557D01*
X165759Y195163D01*
X166021Y194288D01*
X165934Y193412D01*
X165496Y192712D01*
X165409Y192362D01*
X165452Y192143D01*
X166065Y192056D01*
X166546Y191924D01*
X166853Y191706D01*
X167159Y191399D01*
X167071Y190962D01*
X166896Y190524D01*
X167115Y190217D01*
X167772Y189999D01*
X167815Y189517D01*
X167772Y188948D01*
X167991Y188905D01*
X168253Y188992D01*
X168603Y189080D01*
X169085Y188948D01*
X169391Y188730D01*
X169916Y188380D01*
X171492Y188467D01*
X171754Y188555D01*
X172892Y188467D01*
X173505Y188555D01*
X173636Y188686D01*
X173548Y189211D01*
X173417Y189342D01*
X171667Y189430D01*
X171229Y189605D01*
X170704Y189692D01*
X170616Y190130D01*
X170441Y190568D01*
X170135Y190874D01*
X170047Y191224D01*
X170310Y191662D01*
X170485Y191837D01*
X170573Y192187D01*
X170222Y192537D01*
X170310Y192887D01*
X170704Y192931D01*
X170923Y192712D01*
X170966Y192318D01*
X171754Y191968D01*
X172104Y191881D01*
X172542Y191968D01*
X172717Y192143D01*
X173111Y192274D01*
X173023Y192800D01*
X172804Y193018D01*
X172454Y192931D01*
X171842Y192668D01*
X171535Y192887D01*
X171317Y193368D01*
X170879Y193544D01*
X170266Y193719D01*
X169697Y193850D01*
X169391Y194069D01*
X169085Y194375D01*
X168997Y194550D01*
X168910Y194813D01*
X168866Y195207D01*
X168953Y195644D01*
X169128Y195819D01*
X170135Y195951D01*
X170485Y196038D01*
X171054Y196344D01*
X172104Y196257D01*
X172367Y196169D01*
X172542D01*
X172717Y196257D01*
X172761Y196476D01*
X172542Y196870D01*
X172367Y196957D01*
X172104Y197045D01*
X171754Y197132D01*
X170966Y197045D01*
X170529Y196870D01*
X169916Y196957D01*
X169741Y197132D01*
X169610Y197176D01*
X169697Y197351D01*
X170135Y197439D01*
X170310Y197526D01*
X170222Y197964D01*
X169785Y198401D01*
X169697Y199014D01*
X169785Y199714D01*
X171010Y200327D01*
X171492Y200458D01*
X172804Y200371D01*
X173286Y200765D01*
X173417Y201071D01*
X172980Y201246D01*
X171317Y201158D01*
X171054Y201071D01*
X170091Y201158D01*
X169960Y201290D01*
X170047Y201727D01*
X170135Y201990D01*
X170047Y202165D01*
X169785Y202428D01*
X169741Y202646D01*
X170091Y203172D01*
X170266Y203259D01*
X170879Y203522D01*
X171317Y203697D01*
X171360Y203916D01*
X170791Y203959D01*
X170529Y203872D01*
X170179Y203784D01*
X168953Y203697D01*
X168691Y203609D01*
X168341Y203697D01*
X168209Y203828D01*
X168122Y204353D01*
X167991Y204572D01*
X167640Y204660D01*
X167247Y204616D01*
X167115Y204134D01*
X166940Y203959D01*
X166765Y204047D01*
X166721Y204441D01*
X166984Y205053D01*
X166678Y205447D01*
X165715Y205360D01*
X165102Y205097D01*
X163789Y205185D01*
X163002Y205535D01*
X162389Y205885D01*
X161951Y206323D01*
X161601Y206410D01*
X160988Y206498D01*
X160463Y206323D01*
X160332Y206191D01*
X160026Y205622D01*
X158888Y205447D01*
X158625Y205185D01*
X158406Y205228D01*
X158319Y205491D01*
X158406Y205754D01*
X158494Y206366D01*
X158406Y206629D01*
X157925Y206673D01*
X157356Y206279D01*
D02*
G37*
G36*
X173986Y201202D02*
X174118Y201071D01*
X174380Y201158D01*
X174424Y201202D01*
X174293Y201333D01*
X174118D01*
X173986Y201202D01*
D02*
G37*
G36*
X106371Y201246D02*
X106327Y201202D01*
X106459Y201071D01*
X106896Y200983D01*
X107159Y201158D01*
X106721Y201333D01*
X106546D01*
X106371Y201246D01*
D02*
G37*
G36*
X160376Y201684D02*
X160069Y201377D01*
X159982Y201027D01*
X160201Y200633D01*
X160463Y200546D01*
X160551D01*
X160988Y200633D01*
X161470Y201027D01*
X161382Y201640D01*
X161163Y201859D01*
X160813Y201946D01*
X160376Y201684D01*
D02*
G37*
G36*
X122432Y206629D02*
X122345Y206366D01*
X122432Y206104D01*
X122520Y205316D01*
X122214Y205010D01*
X121820Y204966D01*
X121513Y205272D01*
X121338Y205360D01*
X120551Y205973D01*
X120288Y206323D01*
X119850Y206498D01*
X118888Y206410D01*
X118712Y206235D01*
X118581Y206191D01*
X118494Y206016D01*
X118275Y205710D01*
X117662Y205535D01*
X116699Y205097D01*
X116349Y205010D01*
X116087Y205097D01*
X115386Y205272D01*
X114161Y205360D01*
X113942Y205141D01*
X113855Y204966D01*
X113724Y204835D01*
X113286Y204660D01*
X112892Y204441D01*
X112804Y204091D01*
X112892Y203653D01*
X112979Y203390D01*
X112936Y203172D01*
X112586Y203259D01*
X112235Y203609D01*
X111535Y203784D01*
X110310Y203872D01*
X110047Y203959D01*
X109653Y203916D01*
X109741Y203653D01*
X110441Y203390D01*
X110616Y203215D01*
X110704Y203040D01*
X111098Y202559D01*
X111317Y202165D01*
X111229Y201815D01*
X110835Y201684D01*
X110485Y202034D01*
X109960Y201946D01*
X109828Y201815D01*
X109960Y201684D01*
X110397Y201509D01*
X110529Y201377D01*
X110441Y201027D01*
X110222Y200808D01*
X109610Y200896D01*
X109347Y201158D01*
X108997Y201246D01*
X108778Y201290D01*
X107990Y201202D01*
X107640Y201115D01*
X107465Y201027D01*
X107728Y200590D01*
X108034Y200283D01*
X109084Y200371D01*
X109172Y200458D01*
X109435Y200371D01*
X109785Y200283D01*
X110616Y200152D01*
X110791Y200064D01*
X110835Y199671D01*
X110748Y198970D01*
X110660Y198620D01*
X110616Y197701D01*
X110879Y197088D01*
X110791Y196913D01*
X110397Y196870D01*
X109785Y197132D01*
X108909Y197045D01*
X108734Y197132D01*
X108472Y197045D01*
X108297Y196957D01*
X108166Y196826D01*
X107947Y196344D01*
X107509Y196169D01*
X107378Y196038D01*
X107334Y195732D01*
X107509Y195294D01*
X107684Y195207D01*
X107815Y195338D01*
X107990Y195775D01*
X108078Y196213D01*
X108209Y196344D01*
X109041Y196301D01*
X109522Y196344D01*
X109785Y196257D01*
X110266Y196126D01*
X110660Y195994D01*
X111010Y195907D01*
X112017Y195688D01*
X112192Y195600D01*
X112104Y195163D01*
X111667Y194725D01*
X111579Y194550D01*
X111185Y193981D01*
X111010Y193894D01*
X110573Y193719D01*
X110003Y193587D01*
X109653Y193412D01*
X109566Y193062D01*
X109478Y192887D01*
X109347Y192756D01*
X109128Y192712D01*
X109084Y192756D01*
X108997Y192668D01*
X108909Y192756D01*
X108822Y192668D01*
X108734Y192756D01*
X108472Y192668D01*
X107859Y192581D01*
X106940Y191662D01*
X106853Y191487D01*
X106502Y190962D01*
X106459Y190830D01*
X105583Y190743D01*
X105321Y190655D01*
X104489Y190524D01*
X104183Y190393D01*
X104139Y190261D01*
X104533Y190130D01*
X106109Y190217D01*
X106327Y190349D01*
X106590Y190787D01*
X107334Y191005D01*
X107772Y191268D01*
X107903Y191399D01*
X107990Y191749D01*
X108078Y192012D01*
X108209Y192143D01*
X108822Y191881D01*
X109522Y191968D01*
X109785Y192056D01*
X110354Y191749D01*
X110441Y191574D01*
X110616Y191137D01*
X110660Y190918D01*
X110573Y190568D01*
X110310Y190305D01*
X110135Y190217D01*
X109916Y190086D01*
X109828Y189911D01*
X109522Y189605D01*
X109172Y189517D01*
X108559Y189342D01*
X108209Y189255D01*
X107246Y189167D01*
X107115Y189036D01*
X106984Y188555D01*
X106721Y188467D01*
X106021Y188642D01*
X105496Y188555D01*
X105190Y188248D01*
X105102Y188073D01*
X104708Y187942D01*
X103877Y188073D01*
X103439Y188161D01*
X102520Y188204D01*
X102301Y187986D01*
X102389Y187723D01*
X103045Y187329D01*
X104446Y187417D01*
X104708Y187504D01*
X105146Y187417D01*
X105277Y187023D01*
X105496Y186454D01*
X105583Y186366D01*
X105802Y186935D01*
X105933Y187417D01*
X106896Y187942D01*
X107159Y188380D01*
X108034Y188467D01*
X108384Y188555D01*
X109522Y188467D01*
X109785Y188380D01*
X110397Y188292D01*
X110835Y188380D01*
X111141Y188686D01*
X111229Y188861D01*
X111623Y188992D01*
X112673Y188905D01*
X112979Y189123D01*
X113067Y189474D01*
X113198Y189955D01*
X113373Y190130D01*
X113899Y190217D01*
X114117Y190436D01*
X114161Y190743D01*
X113986Y191005D01*
X113811Y191093D01*
X113767Y191312D01*
X114205Y191749D01*
X114249Y191881D01*
X114861Y192056D01*
X115474Y192143D01*
X115737Y192056D01*
X116043Y191749D01*
X116130Y191574D01*
X116349Y191355D01*
X116699Y191268D01*
X116918Y191137D01*
X116831Y190874D01*
X116437Y190830D01*
X116174Y190918D01*
X115737Y190830D01*
X115649Y190130D01*
X115430Y189824D01*
X114993Y189649D01*
X114818Y189298D01*
X114949Y189167D01*
X115386Y189255D01*
X115605Y189474D01*
X115693Y189649D01*
X115824Y189780D01*
X116612Y190130D01*
X117225Y190042D01*
X117487Y189955D01*
X118362Y190042D01*
X118625Y189955D01*
X119588Y190042D01*
X119982Y190349D01*
X120244Y190787D01*
X120463Y191005D01*
X120901Y191268D01*
X120988Y191618D01*
X121076Y192056D01*
X121207Y192537D01*
X121120Y192800D01*
X120726Y192931D01*
X119500Y193018D01*
X118581Y193587D01*
X118406Y194288D01*
X118319Y194813D01*
X118144Y195250D01*
X118231Y195425D01*
X118669Y196388D01*
X118931Y196826D01*
X119106Y197001D01*
X119281Y197614D01*
X119194Y197964D01*
X119063Y198095D01*
X118625Y198008D01*
X118494Y197876D01*
X118319Y197176D01*
X117881Y196563D01*
X117794Y196213D01*
X117837Y195207D01*
X117356Y194725D01*
X117268Y194550D01*
X116962Y194244D01*
X116787Y194156D01*
X116568Y193938D01*
X116481Y193587D01*
X116568Y193062D01*
X116918Y192887D01*
X116875Y192668D01*
X116437Y192581D01*
X115824Y192843D01*
X115343Y192975D01*
X114861Y193281D01*
X114643Y193500D01*
X114555Y193675D01*
X114468Y193938D01*
X114555Y194375D01*
X114861Y194594D01*
X115168Y194900D01*
X115343Y195688D01*
X115955Y196038D01*
X116043Y196301D01*
X115824Y196607D01*
X115474Y196695D01*
X115299Y196607D01*
X115211Y196082D01*
X115124Y195907D01*
X114511Y195994D01*
X114292Y196213D01*
X114380Y196651D01*
X114511Y196782D01*
X115080Y197001D01*
X115168Y197264D01*
X115080Y198751D01*
X115168Y199014D01*
X115255Y199364D01*
X115211Y200371D01*
X115824Y200721D01*
X115955Y201115D01*
X116174Y201684D01*
X116787Y202034D01*
X116918Y202165D01*
X117006Y202340D01*
X117137Y202471D01*
X117575Y202646D01*
X117750Y202734D01*
X117881Y202865D01*
X117969Y203128D01*
X117706Y203566D01*
X117443Y203828D01*
X117356Y204091D01*
X117487Y204310D01*
X117837Y204397D01*
X118275Y204134D01*
X118625Y203609D01*
X119063Y203434D01*
X119413Y203522D01*
X119894Y203916D01*
X119982Y204091D01*
X120376Y204222D01*
X121163Y204134D01*
X121426Y203872D01*
X121776Y203784D01*
X121951Y203872D01*
X122214Y204134D01*
X123001Y204047D01*
X123483Y203653D01*
X123614Y203522D01*
X124446Y203128D01*
X124533Y202778D01*
Y202690D01*
X124489Y202559D01*
X124008Y202428D01*
X123745Y202165D01*
X123833Y201727D01*
X123964Y201596D01*
X124139Y201509D01*
X124358Y201377D01*
X124446Y201027D01*
X124489Y200021D01*
X125365Y200108D01*
X125671Y200414D01*
X125583Y201202D01*
X125365Y201421D01*
X124927Y201596D01*
X124708Y201815D01*
X124664Y202384D01*
X124752Y202559D01*
X125627Y202646D01*
X125977Y202997D01*
X126327Y203084D01*
X126896Y203215D01*
X127071Y203653D01*
X126809Y204091D01*
X126065Y204310D01*
X125627Y204222D01*
X125190Y203784D01*
X124927Y203697D01*
X124314Y203959D01*
X123964Y204047D01*
X123570Y204266D01*
X123483Y204878D01*
X123570Y205141D01*
X123658Y205491D01*
X123570Y206191D01*
X123352Y206498D01*
X122739Y206673D01*
X122432Y206629D01*
D02*
G37*
G36*
X133811Y200239D02*
X133723Y199889D01*
X133942Y199320D01*
X134117Y199145D01*
X134730Y198795D01*
X135080Y198445D01*
X135518Y198270D01*
X135868Y198182D01*
X136524Y198051D01*
X136962Y197439D01*
X138713Y197351D01*
X139369Y197307D01*
X139632Y197395D01*
X139982Y197482D01*
X140419Y197657D01*
X140857Y197482D01*
X141207Y197395D01*
X142651Y197351D01*
X143833Y197482D01*
X144183Y197570D01*
X144533Y197920D01*
X145627Y198314D01*
X146065Y198576D01*
X146240Y199189D01*
X146284Y199583D01*
X146984Y199671D01*
X147115Y199802D01*
X147203Y200064D01*
X147115Y200327D01*
X147028Y200502D01*
X146809Y200721D01*
X146284Y200633D01*
X146196Y200283D01*
X146109Y199758D01*
X145846Y199846D01*
X145365Y200327D01*
X145321Y200458D01*
X144971Y200546D01*
X144533Y200458D01*
X144314Y200239D01*
X144402Y199889D01*
X144489Y199627D01*
X144402Y199014D01*
X144008Y198445D01*
X143220Y198533D01*
X142826Y198839D01*
X142914Y199452D01*
X142783Y199583D01*
X142170Y199758D01*
X141295Y199671D01*
X140901Y199364D01*
X141163Y198751D01*
X141076Y198401D01*
X140857Y198182D01*
X140507Y198095D01*
X140157Y198182D01*
X139544Y198533D01*
X139413Y198664D01*
X139632Y198883D01*
X140069Y199145D01*
X140200Y199277D01*
X140113Y199452D01*
X139894Y199671D01*
X139632Y199758D01*
X139544D01*
X139194Y199846D01*
X138931Y199758D01*
X138363Y199539D01*
X138056Y199408D01*
X137925Y199277D01*
X137837Y198751D01*
X137531Y198445D01*
X136918Y198270D01*
X136656Y198358D01*
X136612Y199714D01*
X136699Y199977D01*
X136656Y200283D01*
X136218Y200458D01*
X135693Y200371D01*
X135255Y199933D01*
X134905Y200021D01*
X134599Y200327D01*
X134511Y200677D01*
X134599Y200852D01*
X134467Y200896D01*
X133811Y200239D01*
D02*
G37*
G36*
X119457Y201727D02*
X119106Y201377D01*
X119194Y200940D01*
X119500Y200721D01*
X119719Y200502D01*
X119632Y200064D01*
X119325Y199758D01*
X118712Y199671D01*
X118231Y199714D01*
X117794Y199627D01*
X117356Y199364D01*
X117268Y199014D01*
X117356Y198664D01*
X117487Y198533D01*
X118100Y198620D01*
X118537Y199058D01*
X119500Y198795D01*
X120288Y198445D01*
X120813Y198533D01*
X120944Y198664D01*
X120857Y199102D01*
X120638Y199320D01*
X120463Y199408D01*
X120332Y199539D01*
X120157Y199977D01*
X120069Y200239D01*
X120157Y200414D01*
X120201Y200458D01*
X120376Y200633D01*
X120857Y200765D01*
X121032Y200852D01*
X121120Y201202D01*
X120901Y201509D01*
X120288Y201771D01*
X119938Y201859D01*
X119457Y201727D01*
D02*
G37*
G36*
X128428Y198795D02*
X128341D01*
X128209Y198664D01*
X128297Y198401D01*
X128516Y198358D01*
X128734Y198576D01*
X128647Y198839D01*
X128516Y198883D01*
X128428Y198795D01*
D02*
G37*
G36*
X151842Y198751D02*
X151929Y198489D01*
X152411Y198358D01*
X152673Y198445D01*
X152717Y198576D01*
X152498Y198795D01*
X152148Y198883D01*
X151973D01*
X151842Y198751D01*
D02*
G37*
G36*
X160901Y199846D02*
X160551Y199495D01*
X160113Y199408D01*
X159851Y199495D01*
X159632Y199539D01*
X159763Y198970D01*
X159938Y198533D01*
X160551Y198270D01*
X160901Y198358D01*
X160988Y198708D01*
X161163Y198970D01*
X161513Y199058D01*
X161951Y198795D01*
X162214Y198708D01*
X162389D01*
X162433Y198751D01*
X163308Y198839D01*
X163220Y199277D01*
X162826Y199671D01*
X161689Y199758D01*
X161513Y199933D01*
X160901Y199846D01*
D02*
G37*
G36*
X121557Y197264D02*
X121645Y196826D01*
X121688Y196782D01*
X122039Y196870D01*
X122082Y197439D01*
X121776Y197482D01*
X121557Y197264D01*
D02*
G37*
G36*
X134074D02*
X134030Y197220D01*
X133986Y196913D01*
X134117Y196782D01*
X135212Y196826D01*
X135124Y197176D01*
X134730Y197307D01*
X134074Y197264D01*
D02*
G37*
G36*
X145977D02*
X145671Y197045D01*
X145627Y197001D01*
X145671Y196782D01*
X146021Y196695D01*
X146502Y196826D01*
X146765Y197088D01*
X146678Y197264D01*
X146327Y197351D01*
X145977Y197264D01*
D02*
G37*
G36*
X158319Y197701D02*
X158844Y196826D01*
X158975Y196695D01*
X159238Y196607D01*
X159457Y196826D01*
X159369Y197088D01*
Y197176D01*
X159063Y197482D01*
X158888Y197570D01*
X158450Y197745D01*
X158319Y197701D01*
D02*
G37*
G36*
X153549Y198358D02*
X153023Y198270D01*
X152980Y197964D01*
X153330Y197351D01*
X153505Y197001D01*
X153242Y196388D01*
X153198Y196082D01*
X153330Y195775D01*
X153724Y195644D01*
X154293Y195425D01*
X154424Y195294D01*
X154599Y195207D01*
X154861Y195119D01*
X155474Y195294D01*
X155999Y195382D01*
X156612Y195644D01*
X157312Y195557D01*
X158538Y194857D01*
X159150Y194594D01*
X159588Y194681D01*
X159719Y194813D01*
X159807Y194988D01*
Y195075D01*
X159851Y195294D01*
X159719Y195600D01*
X159500Y195819D01*
X158888Y195907D01*
X158625Y195994D01*
X158012Y196432D01*
X157137Y196519D01*
X155343Y196476D01*
X154993Y196563D01*
X154730Y196826D01*
X154643Y197176D01*
X154555Y198664D01*
X154161Y198795D01*
X153549Y198358D01*
D02*
G37*
G36*
X135824Y196301D02*
X135649Y195863D01*
X135737Y195513D01*
X135868Y195469D01*
X136174Y195688D01*
X136262Y196038D01*
X136218Y196344D01*
X135868D01*
X135824Y196301D01*
D02*
G37*
G36*
X145102Y195513D02*
X145146Y195469D01*
X145190Y195513D01*
Y195600D01*
X145146Y195644D01*
X145102Y195513D01*
D02*
G37*
G36*
X170923Y195863D02*
X171010Y195425D01*
X171142Y195294D01*
X171623Y195163D01*
X171929Y195294D01*
X171973Y195425D01*
X171929Y195469D01*
X171710Y195775D01*
X171579Y195907D01*
X170923Y195863D01*
D02*
G37*
G36*
X108603Y195600D02*
X108472Y195119D01*
X108734Y195031D01*
X108997Y195119D01*
X109435Y195382D01*
X109566Y195513D01*
X109478Y195688D01*
X109347Y195819D01*
X108909D01*
X108603Y195600D01*
D02*
G37*
G36*
X173023Y195775D02*
X172936Y194988D01*
Y194900D01*
X172892Y194769D01*
X172586Y194725D01*
X172629Y194594D01*
X172936Y194638D01*
X173680Y194594D01*
X173811Y194725D01*
X173899Y195075D01*
X173811Y195338D01*
X173724Y195513D01*
X173505Y195732D01*
X173155Y195819D01*
X173023Y195775D01*
D02*
G37*
G36*
X107597Y194944D02*
X107465Y194900D01*
X107509Y194594D01*
X108034Y194506D01*
X108253Y194725D01*
X108166Y194900D01*
X108122Y194944D01*
X108034D01*
X107684Y195119D01*
X107597Y194944D01*
D02*
G37*
G36*
X126371Y198926D02*
X126196Y198314D01*
X126284Y197964D01*
X126196Y196913D01*
X125890Y196607D01*
X125452Y196432D01*
X123439Y196519D01*
X123352D01*
X122345Y196388D01*
X122039Y196169D01*
X121688Y195819D01*
X121120Y195600D01*
X120944Y195425D01*
X121032Y195075D01*
X121426Y194594D01*
X121688Y194506D01*
X122914Y195207D01*
X123439Y195557D01*
X124227Y195644D01*
X124489Y195557D01*
X125452Y195119D01*
X125934Y195250D01*
X126327Y195469D01*
X126678Y195557D01*
X127378Y195644D01*
X127509Y195775D01*
X127597Y196038D01*
X127421Y196476D01*
X127334Y196826D01*
X127421Y197176D01*
X127772Y197701D01*
X127859Y198051D01*
X127728Y198182D01*
X127553Y198270D01*
X127246Y198576D01*
X127159Y198751D01*
X127028Y198970D01*
X126678Y199058D01*
X126371Y198926D01*
D02*
G37*
G36*
X106284Y194331D02*
X105321Y193806D01*
X105277Y193675D01*
X105321Y193631D01*
X105365Y193587D01*
X106021Y193544D01*
X106284Y193631D01*
X106853Y193938D01*
X106940Y194288D01*
X106896Y194419D01*
X106284Y194331D01*
D02*
G37*
G36*
X174030Y194244D02*
X173899Y194113D01*
X173942Y193806D01*
X174380Y193631D01*
X174730Y193544D01*
X175824Y193587D01*
X175737Y193762D01*
X175037Y194025D01*
X174905Y194156D01*
X174818D01*
X174774Y194200D01*
X174293Y194331D01*
X174030Y194244D01*
D02*
G37*
G36*
X126065Y194419D02*
X125846Y194200D01*
X125759Y194025D01*
X125627Y193894D01*
X124708Y194025D01*
X124664Y194069D01*
X124577D01*
X123877Y193981D01*
X123395Y193587D01*
X123527Y193456D01*
X124139Y193368D01*
X125190Y193456D01*
X125715Y193806D01*
X126152Y193631D01*
X126503Y193544D01*
X126634Y193675D01*
X126721Y194200D01*
X126590Y194419D01*
X126240Y194506D01*
X126065Y194419D01*
D02*
G37*
G36*
X155912Y193981D02*
X155824D01*
X155693Y193850D01*
X155780Y193500D01*
X155999Y193281D01*
X156481Y193412D01*
X156918Y193675D01*
X156831Y193938D01*
X156437Y194069D01*
X155912Y193981D01*
D02*
G37*
G36*
X157443Y193500D02*
X157487Y193281D01*
X157531Y193237D01*
X157618Y193062D01*
X157750Y192843D01*
X158187Y192931D01*
X158319Y193150D01*
X158012Y193544D01*
X157706Y193587D01*
X157443Y193500D01*
D02*
G37*
G36*
X130616Y194681D02*
X130004Y194331D01*
X129872Y193938D01*
Y193850D01*
X129960Y193587D01*
X130310Y193500D01*
X130616Y193368D01*
X130748Y192887D01*
X130835Y192537D01*
X131185Y192012D01*
X131273Y191749D01*
X130835Y191137D01*
X130704Y190655D01*
X130485Y190349D01*
X130354Y190217D01*
X130179Y190130D01*
X129960Y189911D01*
X129916Y189780D01*
X129478Y189605D01*
X129128Y189517D01*
X128516Y189430D01*
X128209Y189211D01*
X128034Y188773D01*
X128078Y188642D01*
X128428Y188730D01*
X129522Y188598D01*
X129697Y188511D01*
X129741Y187854D01*
X130004Y187942D01*
X130354Y188292D01*
X130879Y188380D01*
X131316Y188117D01*
X131667Y187592D01*
X131798Y187636D01*
X131973Y188248D01*
X132061Y188598D01*
X131973Y188773D01*
X131535Y188948D01*
X131054Y189167D01*
X130441Y189255D01*
X130397Y189561D01*
X130791Y189955D01*
X131229Y190130D01*
X131492Y190042D01*
X132017Y189517D01*
X132236Y189474D01*
X132542Y189605D01*
X132848Y189911D01*
X132805Y191268D01*
X132980Y191530D01*
X133330Y191618D01*
X133723Y191399D01*
X133942Y190830D01*
X134117Y190568D01*
X134380Y190655D01*
X134511Y190787D01*
X134424Y191574D01*
X133899Y192099D01*
X133723Y192537D01*
X133417Y192843D01*
X132892Y192931D01*
X132586Y192274D01*
X132279Y192231D01*
X131885Y192624D01*
X131973Y192887D01*
X132323Y192975D01*
X132542Y193018D01*
X132717Y192931D01*
X132848Y193062D01*
X132761Y193850D01*
X132629Y193981D01*
X132192Y194156D01*
X132017Y194244D01*
X131798Y194463D01*
X131754Y194594D01*
X131579Y194681D01*
X131316Y194769D01*
X130616Y194681D01*
D02*
G37*
G36*
X156743Y191749D02*
X156787Y191618D01*
X157006Y191662D01*
Y191749D01*
X156875Y191881D01*
X156743Y191749D01*
D02*
G37*
G36*
X165977Y191355D02*
X165934Y191224D01*
X165977Y191180D01*
X166065D01*
X166240Y191268D01*
X166284Y191312D01*
X166152Y191443D01*
X165977Y191355D01*
D02*
G37*
G36*
X173023Y192012D02*
X172936Y191749D01*
X172761Y191399D01*
X172892Y191180D01*
X173242Y191093D01*
X173855Y191180D01*
X173986Y191049D01*
X174205Y190480D01*
X174468Y190217D01*
X175343Y190130D01*
X176656Y190217D01*
X176787Y190349D01*
X176656Y190480D01*
X175430Y190568D01*
X175124Y190787D01*
X175080Y190830D01*
X174905Y190918D01*
X174730Y191093D01*
X174293Y191268D01*
X174118Y191355D01*
X173680Y192056D01*
X173417Y192143D01*
X173198Y192187D01*
X173023Y192012D01*
D02*
G37*
G36*
X128953Y193106D02*
X128910Y193062D01*
Y192975D01*
X128734Y192537D01*
X128647Y192099D01*
X128297Y191574D01*
X128384Y191137D01*
X128516Y191005D01*
X129041Y191093D01*
X129172Y191224D01*
X129260Y191574D01*
X129478Y192143D01*
X129522Y192887D01*
X129303Y193193D01*
X128953Y193106D01*
D02*
G37*
G36*
X151579Y192624D02*
X151492Y192449D01*
X151142Y192099D01*
X151229Y191837D01*
X151579Y191487D01*
X151754Y191137D01*
X151798Y191093D01*
X152148Y191005D01*
X152542Y191224D01*
X152629Y191574D01*
X152367Y192012D01*
X152192Y192187D01*
X152104Y192712D01*
X151885Y192931D01*
X151579Y192624D01*
D02*
G37*
G36*
X125540Y192056D02*
X125408Y191924D01*
X125496Y191487D01*
X125846Y190962D01*
X126065Y190568D01*
X126327Y190655D01*
X126503Y190743D01*
X126634Y191137D01*
X126459Y191574D01*
X126371Y191749D01*
Y191837D01*
X126152Y192143D01*
X125846Y192187D01*
X125540Y192056D01*
D02*
G37*
G36*
X149391Y194900D02*
X148997Y194156D01*
X148428Y194025D01*
X148253Y193938D01*
X148166Y193587D01*
X147903Y193150D01*
X147422Y192843D01*
X147203Y192624D01*
X147115Y192449D01*
X146896Y192231D01*
X146721Y192143D01*
X146502Y191662D01*
X146590Y190611D01*
X146809Y190305D01*
X147115Y190349D01*
X147203Y190699D01*
X147290Y191224D01*
X147684Y191793D01*
X148034Y191881D01*
X148516Y191574D01*
X148603Y191399D01*
X148691Y191137D01*
X148603Y190962D01*
X148253Y190611D01*
X148166Y190261D01*
X148253Y189911D01*
X148603Y189824D01*
X149041Y189649D01*
X149216Y189211D01*
X149260Y188817D01*
X149172Y188642D01*
X149128Y188598D01*
X148953Y188161D01*
X149041Y187198D01*
X149260Y186979D01*
X149478Y187023D01*
X149653Y187636D01*
X149741Y188073D01*
X149960Y188292D01*
X150310Y188380D01*
X150748Y188467D01*
X150879Y188598D01*
X150923Y188817D01*
X151535Y188730D01*
X151798Y188642D01*
X152411Y188730D01*
X152717Y188948D01*
X152629Y189211D01*
X152411Y189430D01*
X151492Y189561D01*
X151054Y189649D01*
X151010Y189692D01*
X150791Y189561D01*
X150704Y189123D01*
X150223Y189080D01*
X149829Y189298D01*
X149916Y189736D01*
X150441Y189824D01*
X150616Y189911D01*
X150529Y190261D01*
X150135Y190655D01*
X149697Y190918D01*
X149566Y191049D01*
X149478Y191924D01*
X149566Y192187D01*
X149829Y192624D01*
X149960Y192756D01*
X150135Y192843D01*
X150266Y192975D01*
X150529Y193412D01*
X150966Y193675D01*
X150879Y194025D01*
X150223Y194681D01*
X149610Y194944D01*
X149391Y194900D01*
D02*
G37*
G36*
X154336Y192143D02*
X154205Y192012D01*
X154293Y190436D01*
X154424Y190305D01*
X154686D01*
X154949Y190393D01*
X155080Y190787D01*
X155168Y191487D01*
X155255Y191749D01*
X155168Y192012D01*
X154686Y192231D01*
X154336Y192143D01*
D02*
G37*
G36*
X91842Y190918D02*
X90879Y190480D01*
X89828Y190393D01*
X89435Y189999D01*
X89347Y189824D01*
X89216Y189692D01*
X89041Y189605D01*
X88734Y189298D01*
X88647Y187986D01*
X88472Y187460D01*
X88341Y187329D01*
X88165Y187242D01*
X87947Y187110D01*
X87815Y186629D01*
X87903Y186366D01*
X88341Y186104D01*
X88384Y185972D01*
X88078Y185666D01*
X87465Y185754D01*
X87028Y185929D01*
X85977Y185841D01*
X85846Y185710D01*
X85671Y185010D01*
X85540Y184878D01*
X85102Y184703D01*
X84752Y184616D01*
X84183Y184485D01*
X84271Y184222D01*
X84533Y183609D01*
X84621Y182909D01*
X84839Y182690D01*
X85452Y182603D01*
X86021Y182909D01*
X86065Y183128D01*
X85890Y183303D01*
X85540Y183390D01*
X85321Y183609D01*
X85408Y183872D01*
X85540Y184003D01*
X85802Y184091D01*
X86590Y183740D01*
X87378Y183653D01*
X87596Y183434D01*
X87684Y183259D01*
X87947Y182646D01*
X87859Y181771D01*
X87903Y181202D01*
X88428Y181290D01*
X88734Y181596D01*
X88822Y182209D01*
X88734Y182471D01*
X88559Y183172D01*
X88472Y183784D01*
X87990Y184003D01*
X87815Y184091D01*
X87684Y184222D01*
X87772Y184572D01*
X87903Y184703D01*
X88428Y184616D01*
X88559Y184485D01*
X88734Y184047D01*
X88953Y183828D01*
X89566Y183478D01*
X89610Y183259D01*
X89259Y182471D01*
X89347Y182209D01*
X89435Y181859D01*
X89347Y181596D01*
X89259Y181071D01*
X88734Y180721D01*
X88559Y180546D01*
X88472Y180371D01*
X88253Y180152D01*
X87378Y180064D01*
X87203Y179977D01*
X86984Y179758D01*
X87071Y179408D01*
X87290Y179189D01*
X87640Y179102D01*
X88253Y179189D01*
X88472Y179320D01*
X88822Y179933D01*
X88953Y180064D01*
X89128Y180152D01*
X89653Y180502D01*
X90354Y180414D01*
X90879Y180064D01*
X91492Y179889D01*
X91842Y179802D01*
X92235Y180021D01*
X92454Y180502D01*
X92629Y180589D01*
X92892Y180677D01*
X93505Y181027D01*
X93767Y181290D01*
X94117Y181377D01*
X94818Y181465D01*
X95036Y181946D01*
X94949Y182384D01*
X94730Y182603D01*
X94555Y182690D01*
X94424Y182822D01*
X94686Y183434D01*
X94467Y183740D01*
X93242Y183916D01*
X93111Y184047D01*
X93023Y184485D01*
X92717Y184791D01*
X92367Y184878D01*
X91929Y184791D01*
X91710Y184572D01*
X91623Y184309D01*
X91710Y184047D01*
X91798Y183697D01*
X91710Y183172D01*
X91316Y183040D01*
X90966Y183128D01*
X90835Y183259D01*
X90966Y186104D01*
X91141Y186279D01*
X91492Y186366D01*
X91579D01*
X92017Y186454D01*
X92498Y186060D01*
X92586Y185885D01*
X92804Y185666D01*
X93242Y185491D01*
X93373Y185360D01*
X93461Y185010D01*
X93855Y184878D01*
X94292Y184966D01*
X94424Y185272D01*
X94205Y185491D01*
X93505Y185579D01*
X93373Y185710D01*
X93461Y186323D01*
X93592Y186454D01*
X93942Y186541D01*
X94555Y186454D01*
X94774Y186235D01*
X94818Y186104D01*
X95080Y186016D01*
X95518Y186191D01*
X95780Y186104D01*
X95999Y185797D01*
X96130Y185666D01*
X96481Y185754D01*
X96612Y186498D01*
X97181Y186716D01*
X97400Y186935D01*
X97531Y187504D01*
X97662Y187986D01*
X97575Y188773D01*
X97662Y189036D01*
X97575Y189386D01*
X97312Y189824D01*
X97006Y190042D01*
X96743Y190305D01*
X96306Y190480D01*
X95693Y190217D01*
X95255Y190305D01*
X94818Y190480D01*
X93942Y190568D01*
X93505Y190655D01*
X92892Y190918D01*
X92542Y191005D01*
X91842Y190918D01*
D02*
G37*
G36*
X155868Y190086D02*
X155912Y190042D01*
X156043Y190086D01*
X155912Y190217D01*
X155868Y190086D01*
D02*
G37*
G36*
X161207Y198051D02*
X161295Y197789D01*
X161557Y197526D01*
X161732Y196913D01*
X161951Y196519D01*
X162126Y196432D01*
X162433Y196126D01*
X162520Y195775D01*
X162564Y194419D01*
X162433Y194113D01*
X162301Y193981D01*
X162126Y193894D01*
X161907Y193762D01*
X161820Y193587D01*
X161645Y193412D01*
X161601Y193281D01*
X161163Y193106D01*
X160463Y193018D01*
X160026Y192843D01*
X159588Y192756D01*
X159544Y192624D01*
X159982Y192012D01*
X160069Y191049D01*
X160376Y190743D01*
X160551Y190655D01*
X160682Y190524D01*
X160769Y190349D01*
X161076Y190042D01*
X161426Y189955D01*
X163614Y190042D01*
X163877Y190130D01*
X164314D01*
X164577Y190042D01*
X165277Y189342D01*
X165627Y189255D01*
X165846Y189211D01*
X166021Y189298D01*
X165759Y189736D01*
X165584Y189911D01*
X165321Y190524D01*
X165233Y190874D01*
X165015Y191180D01*
X164883Y191224D01*
X164796Y191399D01*
X164708Y191662D01*
X164752Y192318D01*
X164664Y192843D01*
X164577Y193193D01*
X164402Y193631D01*
X164183Y193938D01*
X164008Y194025D01*
X163920Y194200D01*
X163745Y194375D01*
X163483Y194813D01*
X163133Y195600D01*
X162958Y196038D01*
X162608Y196826D01*
X162520Y197176D01*
X162214Y197482D01*
X161776Y197745D01*
X161426Y198095D01*
X161207Y198051D01*
D02*
G37*
G36*
X152892Y188773D02*
X152805Y188161D01*
X152892Y187898D01*
X152936Y187679D01*
X153636Y187854D01*
X153855Y187898D01*
Y187986D01*
X153767Y188511D01*
X153549Y188730D01*
X153198Y188817D01*
X152892Y188773D01*
D02*
G37*
G36*
X176918Y188117D02*
X176656Y188029D01*
X176306Y187942D01*
X176131Y187854D01*
X176043D01*
X175999Y187636D01*
X176131Y187504D01*
X176481Y187417D01*
X177093Y187329D01*
X178231Y187417D01*
X178713Y187811D01*
X178494Y188117D01*
X178144Y188204D01*
X176918Y188117D01*
D02*
G37*
G36*
X173942Y188467D02*
X173811Y188073D01*
X174205Y187592D01*
X174905Y187242D01*
X174993D01*
X175255Y187154D01*
X175562Y187460D01*
X175649Y187811D01*
X175518Y188292D01*
X175343Y188467D01*
X174730Y188555D01*
X173942Y188467D01*
D02*
G37*
G36*
X101207Y187592D02*
X101163Y187198D01*
X101295Y187067D01*
X101557Y187154D01*
X101601Y187373D01*
X101645Y187417D01*
X101688Y187460D01*
X101470Y187679D01*
X101207Y187592D01*
D02*
G37*
G36*
X150879Y187986D02*
X150966Y186935D01*
X151185Y186541D01*
X151798Y186629D01*
X152411Y186891D01*
X152848Y187154D01*
X152892Y187460D01*
X152673Y187504D01*
X152323Y187154D01*
X152060Y187067D01*
X151579Y187460D01*
X151448Y187854D01*
X151404Y187898D01*
X151316Y188073D01*
X151185Y188204D01*
X150966Y188248D01*
X150879Y187986D01*
D02*
G37*
G36*
X126809Y188161D02*
X126721Y187986D01*
X126546Y187548D01*
Y187110D01*
X126590Y187067D01*
X126853Y186979D01*
X127115Y187067D01*
X127246Y187198D01*
X127465Y187767D01*
X127597Y188073D01*
X127772Y188423D01*
X127378Y188467D01*
X126809Y188161D01*
D02*
G37*
G36*
X153986Y187592D02*
X153942Y187110D01*
X153986Y187067D01*
X154030Y187023D01*
X154117Y186848D01*
X154161Y186804D01*
X154380Y186935D01*
X154293Y187548D01*
X154161Y187679D01*
X153986Y187592D01*
D02*
G37*
G36*
X179325Y187285D02*
X179413Y186673D01*
X179544Y186541D01*
X179675Y186673D01*
X179763Y187285D01*
X179719Y187329D01*
X179675Y187373D01*
X179457Y187417D01*
X179325Y187285D01*
D02*
G37*
G36*
X140069Y188117D02*
X139850Y187898D01*
X139763Y187023D01*
X139850Y186848D01*
X140419Y186541D01*
X140770Y186454D01*
X141120Y186541D01*
X141295Y186716D01*
X141338Y186760D01*
X141251Y187373D01*
X140857Y187854D01*
X140507Y188204D01*
X140069Y188117D01*
D02*
G37*
G36*
X187597Y190918D02*
X187072Y190568D01*
X185934Y190480D01*
X185671Y190393D01*
X185058Y190305D01*
X184708Y190393D01*
X184008Y190305D01*
X183789Y190174D01*
X183702Y189999D01*
X183352Y189386D01*
X183177Y189211D01*
X183089Y189036D01*
X182914Y188598D01*
X183001Y187811D01*
X183133Y187679D01*
X183308Y187592D01*
X183527Y187373D01*
X183658Y186891D01*
X183833Y186629D01*
X184314Y186498D01*
X184490Y186323D01*
X184621Y185841D01*
X184883Y185754D01*
X185408Y185841D01*
X186021Y186279D01*
X186721Y186454D01*
X187597Y186366D01*
X188034Y186191D01*
X189697Y186279D01*
X189872Y186191D01*
X189916Y185710D01*
X189829Y185447D01*
X189916Y184747D01*
X190091Y184309D01*
X190179Y183959D01*
Y183872D01*
X190091Y183172D01*
X189960Y183040D01*
X189347Y183128D01*
X189128Y183347D01*
X189216Y183872D01*
X189391Y184309D01*
X189304Y184660D01*
X188910Y184791D01*
X187859Y184703D01*
X187641Y184134D01*
X187334Y183828D01*
X186109Y183740D01*
X185715Y183084D01*
X185802Y182384D01*
X186240Y181596D01*
X186721Y181115D01*
X187072Y181027D01*
X188166Y180633D01*
X188341Y180458D01*
X188647Y179889D01*
X189260Y179802D01*
X189522Y179889D01*
X189960Y180064D01*
X190573Y180502D01*
X191535Y180064D01*
X191973Y179889D01*
X192279Y179583D01*
X192367Y179408D01*
X192586Y179189D01*
X192936Y179102D01*
X193549Y179189D01*
X193855Y179408D01*
X193942Y179758D01*
X193724Y179977D01*
X193374Y180064D01*
X192717Y180196D01*
X192411Y180327D01*
X192061Y180852D01*
X191842Y181071D01*
X191798Y181290D01*
X192061Y181377D01*
X192892Y181421D01*
X192980Y182034D01*
X192892Y182384D01*
X192848Y182690D01*
X193067Y182909D01*
X193155Y183084D01*
X193330Y183259D01*
X193417Y183434D01*
X193549Y183565D01*
X193986Y183740D01*
X194555Y183872D01*
X194905Y183959D01*
X195474Y184003D01*
X195781Y183784D01*
X195737Y183390D01*
X195255Y183259D01*
X194949Y183303D01*
X194730Y183172D01*
X194818Y182996D01*
X194949Y182865D01*
X196174Y182690D01*
X196306Y182822D01*
X196350Y184178D01*
X196131Y184485D01*
X195824Y184703D01*
X195430Y185097D01*
X195343Y185272D01*
X195036Y185754D01*
X194861Y185841D01*
X194599Y185929D01*
X193549Y185841D01*
X193286Y185754D01*
X192761Y185841D01*
X192630Y186147D01*
X192761Y186366D01*
X193067Y186498D01*
X192980Y186673D01*
X192761Y186716D01*
X192673Y186366D01*
X192586Y186279D01*
X192192Y186498D01*
X192104Y186848D01*
X192192Y187285D01*
X192367Y187723D01*
X192279Y188773D01*
X191885Y189255D01*
X191710Y189430D01*
X191535Y189517D01*
X191317Y189824D01*
X190923Y190305D01*
X190223Y190480D01*
X189785Y190655D01*
X189304Y190787D01*
X188472Y190918D01*
X188209Y191005D01*
X187597Y190918D01*
D02*
G37*
G36*
X195868Y186235D02*
X195912Y186191D01*
X195956Y186323D01*
X195912Y186366D01*
X195868Y186235D01*
D02*
G37*
G36*
X84052Y186104D02*
X83920Y185972D01*
X83964Y185754D01*
X84052D01*
X84402Y185841D01*
X84533Y186060D01*
X84402Y186191D01*
X84052Y186104D01*
D02*
G37*
G36*
X127203Y186629D02*
X127159Y185797D01*
X127290Y185666D01*
X127465Y185754D01*
X127553Y185841D01*
X127597Y185885D01*
X127553Y186716D01*
X127203Y186629D01*
D02*
G37*
G36*
X139019Y185579D02*
X138844Y185491D01*
X138713Y185360D01*
X138625Y185185D01*
X138406Y184966D01*
X137531Y184878D01*
X137137Y184572D01*
X137050Y184397D01*
X136918Y184178D01*
X136349Y183872D01*
X136262Y183697D01*
X135956Y183303D01*
X135780Y183215D01*
X135562Y182996D01*
X135255Y182165D01*
X134774Y181684D01*
X134686Y181333D01*
X134599Y179933D01*
X134643Y179889D01*
X134686Y179845D01*
X134643Y178401D01*
X134730Y178051D01*
X134861Y177745D01*
X135474Y177132D01*
X135562Y176782D01*
X135956Y176301D01*
X136174Y176082D01*
X136437Y175644D01*
X136918Y175338D01*
X137225Y175031D01*
X137312Y174856D01*
X137794Y174725D01*
X138319Y174638D01*
X138931Y174200D01*
X139281Y174112D01*
X139894Y174025D01*
X141557Y174112D01*
X141995Y174200D01*
X142345Y174550D01*
X142783Y174725D01*
X143527Y174856D01*
X143702Y174944D01*
X143964Y175382D01*
X144096Y175513D01*
X144533Y175776D01*
X144752Y175994D01*
X144840Y176257D01*
X145058Y176476D01*
X145365Y176607D01*
X145540Y177045D01*
X145627Y177832D01*
X146021Y178314D01*
X146240Y178795D01*
X146327Y179145D01*
X146240Y180108D01*
X146152Y180371D01*
X146065Y181246D01*
X145934Y181377D01*
X145802Y181421D01*
X145715Y181771D01*
X145627Y182384D01*
X145452Y182822D01*
X145233Y183040D01*
X145058Y183128D01*
X144840Y183347D01*
X144621Y183828D01*
X144446Y183916D01*
X143877Y184309D01*
X143614Y184747D01*
X142826Y184835D01*
X142520Y184966D01*
X142301Y185185D01*
X142082Y185579D01*
X141732Y185666D01*
X140682Y185491D01*
X139675Y185622D01*
X139281Y185666D01*
X139019Y185579D01*
D02*
G37*
G36*
X107290Y186060D02*
X107203Y185797D01*
X107422Y185491D01*
X108034Y185404D01*
X108559Y185491D01*
X108603Y185885D01*
X108209Y186366D01*
X107684D01*
X107290Y186060D01*
D02*
G37*
G36*
X125277Y186191D02*
X125058Y185972D01*
X125146Y185447D01*
X125365Y185404D01*
X125759Y185710D01*
Y186060D01*
Y186147D01*
X125627Y186279D01*
X125277Y186191D01*
D02*
G37*
G36*
X158362Y186716D02*
X158144Y186235D01*
X158231Y185535D01*
X158362Y185404D01*
X158713Y185316D01*
X159019Y185622D01*
X159107Y186147D01*
X159019Y186410D01*
X158931Y186585D01*
X158756Y186760D01*
X158713Y186804D01*
X158362Y186716D01*
D02*
G37*
G36*
X175212Y186410D02*
X175080Y185929D01*
X174993Y185579D01*
X174949Y185447D01*
X175080Y185316D01*
X175474Y185535D01*
X175562Y186147D01*
Y186235D01*
X175430Y186454D01*
X175212Y186410D01*
D02*
G37*
G36*
X127947Y187285D02*
X127859Y187023D01*
X127990Y186891D01*
X128516Y186804D01*
X128910Y186498D01*
X128997Y185885D01*
X128910Y185622D01*
X128997Y185185D01*
X129216Y185141D01*
X129522Y185447D01*
X129610Y186323D01*
X129522Y186585D01*
X129128Y187242D01*
X128953Y187329D01*
X128516Y187504D01*
X128253D01*
X127947Y187285D01*
D02*
G37*
G36*
X151579Y185622D02*
X151492Y185272D01*
X151710Y184966D01*
X151929Y184922D01*
X152104Y185010D01*
X152192Y185360D01*
X151973Y185666D01*
X151885D01*
X151842Y185710D01*
X151798Y185754D01*
X151579Y185622D01*
D02*
G37*
G36*
X153592Y185885D02*
X153680Y185010D01*
X153811Y184878D01*
X154030Y184922D01*
Y185097D01*
Y185185D01*
X153942Y185535D01*
X153724Y185929D01*
X153592Y185885D01*
D02*
G37*
G36*
X177881Y185491D02*
X177750Y185097D01*
X177837Y184572D01*
X178056Y184353D01*
X178406Y184266D01*
X179282Y184353D01*
X179369Y184441D01*
X179413Y184485D01*
X179588Y184660D01*
X179544Y185053D01*
X178975Y184922D01*
X178931Y184878D01*
X178450Y185272D01*
X178231Y185579D01*
X177881Y185491D01*
D02*
G37*
G36*
X100594Y186104D02*
X100463Y185972D01*
X100551Y185447D01*
X101163Y184835D01*
Y184747D01*
X101207Y184703D01*
X101338Y184572D01*
X101426Y184397D01*
X101645Y184178D01*
X102432Y184266D01*
X102870Y184703D01*
X103045Y184791D01*
X103264Y185010D01*
X103220Y185316D01*
X102870Y185229D01*
X102651Y184922D01*
X102520Y184791D01*
X101907Y184878D01*
X101338Y185272D01*
X101163Y185710D01*
X100944Y186191D01*
X100594Y186104D01*
D02*
G37*
G36*
X187115Y185797D02*
X186678Y185622D01*
X186590Y185272D01*
X186678Y185010D01*
X186809Y184878D01*
X187509Y184703D01*
X187684Y184791D01*
X187815Y184922D01*
X187728Y185622D01*
X187597Y185754D01*
X187247Y185841D01*
X187159D01*
X187115Y185797D01*
D02*
G37*
G36*
X82826Y185053D02*
X82564Y184791D01*
X82389Y184703D01*
X82257Y184572D01*
X82301Y184441D01*
X82520Y184397D01*
X83658Y184572D01*
X83526Y184878D01*
X83483Y184922D01*
X83264Y185141D01*
X82826Y185053D01*
D02*
G37*
G36*
X124752Y184878D02*
X124708Y184397D01*
X124752Y184353D01*
X124839D01*
X124927Y184266D01*
X125233Y184485D01*
X125321Y184835D01*
X125190Y185141D01*
X124752Y184878D01*
D02*
G37*
G36*
X105540Y185272D02*
X105890Y184922D01*
X105933Y184878D01*
X106546Y184441D01*
X106984Y184266D01*
X107772Y184178D01*
X108166Y184485D01*
X108122Y184791D01*
X107772Y184878D01*
X107246Y184966D01*
X106284Y185491D01*
X105802Y185885D01*
X105583Y185929D01*
X105540Y185272D01*
D02*
G37*
G36*
X126459Y184835D02*
X126546Y184222D01*
X126590Y184178D01*
X126678D01*
X126809Y184222D01*
X126896Y184572D01*
X126809Y184922D01*
X126590Y184966D01*
X126459Y184835D01*
D02*
G37*
G36*
X198056Y184660D02*
X198144Y184485D01*
X198363Y184266D01*
X198538D01*
X198625Y184178D01*
X199063Y184441D01*
X199107Y184485D01*
X198888Y184703D01*
X198056Y184660D01*
D02*
G37*
G36*
X155387Y186104D02*
X155168Y185885D01*
X155430Y185447D01*
X155605Y185185D01*
Y185097D01*
X155562Y184703D01*
X155649Y184353D01*
X155912Y184091D01*
X156262Y184178D01*
X156306Y184922D01*
X156131Y185360D01*
X156043Y186060D01*
X155912Y186191D01*
X155387Y186104D01*
D02*
G37*
G36*
X172629Y186191D02*
X171842Y185579D01*
X171798Y185185D01*
X171929Y184966D01*
X172367Y184703D01*
X172586Y184485D01*
X172673Y184309D01*
X172892Y184091D01*
X173505Y184178D01*
X173942Y184353D01*
X174293Y184441D01*
X174511Y184572D01*
X174686Y185010D01*
X174555Y185141D01*
X173942Y185491D01*
X173899Y185535D01*
X173505Y186016D01*
X173067Y186279D01*
X172629Y186191D01*
D02*
G37*
G36*
X83920Y182471D02*
X83877Y182428D01*
X83570Y182121D01*
X83614Y181990D01*
X84139Y182078D01*
X84271Y182209D01*
X84227Y182515D01*
X83920Y182471D01*
D02*
G37*
G36*
X196481Y182296D02*
Y182209D01*
X196525Y182078D01*
X196875Y181990D01*
X197050Y182078D01*
X197093Y182121D01*
X196962Y182253D01*
X196612Y182340D01*
X196481Y182296D01*
D02*
G37*
G36*
X117093Y185447D02*
X117050Y185229D01*
X117268Y184922D01*
X117487Y184703D01*
X117662Y184616D01*
X117969Y184309D01*
X118056Y183959D01*
X118231Y182909D01*
X117837Y182865D01*
X117662Y182953D01*
X117268Y182646D01*
X117050Y182253D01*
X116481Y182034D01*
X116568Y181771D01*
X116699Y181640D01*
X117531Y181684D01*
X118012Y181552D01*
X118362Y181640D01*
X118581Y181859D01*
X118756Y182296D01*
X119281Y182822D01*
X119369Y183172D01*
Y183259D01*
X119413Y183303D01*
X119457Y183784D01*
X119106Y184397D01*
X118975Y184528D01*
X118800Y184616D01*
X118319Y185097D01*
X118231Y185272D01*
X117837Y185491D01*
X117093Y185447D01*
D02*
G37*
G36*
X163002Y185404D02*
X162520Y185010D01*
X161907Y184660D01*
X161820Y184485D01*
X161470Y183872D01*
X161295Y183697D01*
X161251Y183478D01*
X161470Y183172D01*
X161645Y182996D01*
X161776Y182428D01*
X162082Y181946D01*
X162564Y181727D01*
X162914Y181640D01*
X163177Y181727D01*
X163527Y182078D01*
X163877Y181815D01*
X163920Y181771D01*
X164402Y181727D01*
X164621Y181946D01*
X164533Y182121D01*
X164139Y182253D01*
X163527Y182340D01*
X163352Y182515D01*
X162958Y182734D01*
X162870Y183084D01*
X162958Y183609D01*
X162870Y183872D01*
X162958Y184485D01*
X163089Y184703D01*
X163264Y184791D01*
X163745Y185185D01*
X163702Y185491D01*
X163002Y185404D01*
D02*
G37*
G36*
X148166Y181946D02*
X148253Y181684D01*
X148472Y181552D01*
X148691Y181684D01*
X148778Y181946D01*
X148734Y181990D01*
X148691Y182034D01*
X148559Y182165D01*
X148166Y181946D01*
D02*
G37*
G36*
X85365Y181027D02*
X85146Y180808D01*
X84971Y180371D01*
X84708Y180108D01*
X84752Y179714D01*
X84927Y179627D01*
X85102Y179452D01*
X85540Y179539D01*
X85583Y179758D01*
X85321Y180021D01*
X85365Y180327D01*
X85540D01*
X86546Y180283D01*
X87290Y180414D01*
X87684Y180808D01*
X87772Y181071D01*
X86677Y181115D01*
X86415Y181027D01*
X86065Y181115D01*
X85365Y181027D01*
D02*
G37*
G36*
X193374D02*
X193330Y180808D01*
X193505Y180633D01*
X193549Y180502D01*
X193724Y180414D01*
X193986Y180327D01*
X194336Y180239D01*
X194774D01*
X194818Y180283D01*
X195168Y180371D01*
X195606Y180546D01*
X195518Y180983D01*
X195124Y181115D01*
X194511Y181027D01*
X194249Y181115D01*
X193374Y181027D01*
D02*
G37*
G36*
X160769Y180896D02*
X160594Y180546D01*
Y180458D01*
X160682Y180196D01*
X160988Y180064D01*
X161295Y180283D01*
X161382Y180546D01*
X161120Y180983D01*
X160988Y181027D01*
X160769Y180896D01*
D02*
G37*
G36*
X120594Y182822D02*
X120551Y182428D01*
X120638Y182078D01*
X120988Y181902D01*
X121032Y181859D01*
X121295Y181596D01*
X121382Y181246D01*
X121120Y180808D01*
X120901Y180589D01*
X120551Y180502D01*
X119938Y180414D01*
X119894Y180371D01*
X120113Y180152D01*
X120463Y180064D01*
X121295Y180021D01*
X121645Y180108D01*
X121820Y180283D01*
X122126Y181115D01*
X122564Y181552D01*
X122914Y181640D01*
X123089Y181727D01*
X123133Y181771D01*
X122257Y181859D01*
X121820Y182121D01*
X121470Y182734D01*
X121251Y182953D01*
X120857Y182996D01*
X120594Y182822D01*
D02*
G37*
G36*
X132892Y180414D02*
X132848Y180371D01*
Y180283D01*
X132936Y180108D01*
X133067Y179977D01*
X133548Y180021D01*
X133461Y180371D01*
X133330Y180502D01*
X132892Y180414D01*
D02*
G37*
G36*
X159194Y182734D02*
X158975Y182253D01*
X158800Y182165D01*
X158362Y181902D01*
X158231Y181771D01*
X158319Y181158D01*
X158713Y180677D01*
X158931Y180458D01*
X159019Y180283D01*
X159325Y179977D01*
X159938Y180064D01*
X159982Y180108D01*
X160026Y180152D01*
X160069Y180458D01*
X159544Y180983D01*
X159457Y181333D01*
X159544Y181771D01*
X159938Y181902D01*
X160113Y181990D01*
X160244Y182121D01*
X160332Y182471D01*
X160069Y182909D01*
X159500Y182953D01*
X159194Y182734D01*
D02*
G37*
G36*
X147509Y180414D02*
X147378Y180283D01*
X147465Y180021D01*
X147597Y179889D01*
X148034Y179977D01*
X148122D01*
X148253Y180196D01*
X148122Y180414D01*
X147772Y180502D01*
X147509Y180414D01*
D02*
G37*
G36*
X167334Y180196D02*
X167422Y179845D01*
X167553Y179714D01*
X167815Y179802D01*
X167859Y179933D01*
Y180021D01*
X167640Y180239D01*
X167334Y180196D01*
D02*
G37*
G36*
X195737Y180327D02*
X195693Y180283D01*
Y180196D01*
X195518Y179583D01*
X195606Y179408D01*
X195737Y179277D01*
X196262Y179364D01*
X196481Y179583D01*
X196568Y179933D01*
X196481Y180196D01*
X196350Y180327D01*
X195999Y180414D01*
X195737Y180327D01*
D02*
G37*
G36*
X112454Y179233D02*
X112498Y179014D01*
X112542Y179058D01*
X112629Y179320D01*
X112586Y179364D01*
X112454Y179233D01*
D02*
G37*
G36*
X113724Y180502D02*
X113242Y180108D01*
X113330Y179758D01*
X113899Y179014D01*
X114117Y179058D01*
X114205Y179408D01*
X114117Y179758D01*
X114074Y179802D01*
X113986Y180239D01*
X113899Y180589D01*
X113724Y180502D01*
D02*
G37*
G36*
X124708Y180458D02*
X124533Y179845D01*
X124227Y179014D01*
X124183Y178795D01*
X124402Y178751D01*
X125014Y179102D01*
X125321Y179408D01*
X125496Y179758D01*
Y179845D01*
X125583Y180108D01*
X125496Y180283D01*
X125365Y180414D01*
X125014Y180502D01*
X124708Y180458D01*
D02*
G37*
G36*
X156174Y181027D02*
X155780Y180721D01*
X155693Y180546D01*
X155343Y180196D01*
X155299Y180064D01*
X155255Y180021D01*
X155430Y179583D01*
X156349Y178664D01*
X156787Y178751D01*
X156831Y179233D01*
X156481Y179758D01*
X156393Y180371D01*
X156568Y180983D01*
X156524Y181115D01*
X156174Y181027D01*
D02*
G37*
G36*
X80682Y178533D02*
X80726Y178401D01*
X81076Y178489D01*
X81120Y178533D01*
X80901Y178576D01*
X80813D01*
X80682Y178533D01*
D02*
G37*
G36*
X83964Y179364D02*
X83833Y179233D01*
X83701Y178751D01*
X83964Y178489D01*
X84227D01*
X84271Y178445D01*
X84314Y178401D01*
X84708Y178620D01*
X84621Y179233D01*
X84402Y179452D01*
X83964Y179364D01*
D02*
G37*
G36*
X91229Y178576D02*
X91185Y178358D01*
X91579Y178314D01*
X91623Y178358D01*
Y178445D01*
X91404Y178664D01*
X91229Y178576D01*
D02*
G37*
G36*
X178888Y178445D02*
X178931Y178314D01*
X178975Y178445D01*
X178931Y178489D01*
X178888Y178445D01*
D02*
G37*
G36*
X196131Y179058D02*
X196218Y178620D01*
X196262Y178576D01*
X196306Y178533D01*
X196437Y178401D01*
X196787Y178314D01*
X197181Y178533D01*
X197093Y178883D01*
X196612Y179102D01*
X196306Y179145D01*
X196131Y179058D01*
D02*
G37*
G36*
X188997Y178401D02*
X188866Y178270D01*
X188910Y178139D01*
X189172Y178226D01*
X189216Y178270D01*
X189391Y178358D01*
X189347Y178489D01*
X188997Y178401D01*
D02*
G37*
G36*
X166065Y178576D02*
X165934Y178445D01*
X166021Y178095D01*
X166415Y178051D01*
X166634Y178270D01*
Y178445D01*
X166590Y178489D01*
X166503Y178664D01*
X166065Y178576D01*
D02*
G37*
G36*
X161032Y178095D02*
X161120Y177920D01*
X161163Y177876D01*
X161251Y177964D01*
X161338D01*
X161732Y178007D01*
X161645Y178182D01*
X161251Y178226D01*
X161032Y178095D01*
D02*
G37*
G36*
X188516Y177832D02*
Y177657D01*
Y177570D01*
X188559Y177438D01*
X188691Y177482D01*
X188778Y177832D01*
X188734Y177964D01*
X188516Y177832D01*
D02*
G37*
G36*
X92235Y177482D02*
X92279Y177176D01*
X92454Y177263D01*
X92498Y177307D01*
X92454Y177526D01*
X92235Y177482D01*
D02*
G37*
G36*
X100594Y178314D02*
X100551Y177920D01*
X100944Y177438D01*
X101163Y177220D01*
X101251Y177045D01*
X101426Y176870D01*
X101470Y176738D01*
X101907Y176563D01*
X102257Y176476D01*
X103483Y176563D01*
X103964Y176957D01*
X104052Y177307D01*
X103833Y177351D01*
X103395Y177176D01*
X103045Y177088D01*
X102170Y177176D01*
X101338Y177745D01*
X101163Y177920D01*
X101076Y178095D01*
X100901Y178358D01*
X100857Y178401D01*
X100594Y178314D01*
D02*
G37*
G36*
X121207Y177832D02*
X121295Y177395D01*
X121426Y177263D01*
X121513D01*
X121557Y177220D01*
X122126Y177001D01*
X122651Y176913D01*
X123439Y176476D01*
X123570Y176344D01*
X123658Y176169D01*
X123877Y175951D01*
X124664Y176038D01*
X125102Y176213D01*
X125277Y176301D01*
X125408Y176695D01*
X125321Y177220D01*
X125102Y177263D01*
X124664Y177088D01*
X124314Y177001D01*
X123702Y177088D01*
X123483Y177307D01*
X123395Y177482D01*
X123264Y177614D01*
X122826Y177789D01*
X121951Y177876D01*
X121207Y177832D01*
D02*
G37*
G36*
X151710Y179539D02*
X151404Y179233D01*
X151492Y178270D01*
X151579Y178007D01*
X151710Y177351D01*
X151929Y177045D01*
X152148Y176826D01*
X152936Y176738D01*
X153242Y176432D01*
X153505Y175994D01*
X153724Y175776D01*
X153899Y175688D01*
X154293Y174856D01*
X154643Y174506D01*
X154730Y174331D01*
X155036Y174025D01*
X155518Y174069D01*
X155430Y174506D01*
X154993Y174944D01*
X154905Y175294D01*
X154818Y175732D01*
X155255Y175907D01*
X155299Y175951D01*
X155649Y176038D01*
X156087Y176213D01*
X157268Y175644D01*
X157531Y174944D01*
X157837Y174638D01*
X158012Y174550D01*
X158538Y174200D01*
X158844Y174244D01*
X158756Y174419D01*
X158625Y174550D01*
X158450Y174638D01*
X158319Y175031D01*
X158231Y175382D01*
X158187Y175776D01*
X157575Y175863D01*
X157443Y175994D01*
X157400Y176738D01*
X157487Y176913D01*
X158625Y177001D01*
X158800Y177176D01*
X158975Y177263D01*
X159194Y177482D01*
X159107Y177657D01*
X158975Y177789D01*
X157575Y177701D01*
X157443Y177570D01*
X157356Y177220D01*
X157312Y177001D01*
X156962Y176913D01*
X156131Y177045D01*
X155780Y177132D01*
X155343Y177307D01*
X154949Y177701D01*
X154511Y177876D01*
X154161Y177964D01*
X153724Y178139D01*
X153592Y178270D01*
X153767Y178970D01*
X153680Y179495D01*
X153549Y179627D01*
X151710Y179539D01*
D02*
G37*
G36*
X111798Y177351D02*
X111754Y177307D01*
Y177220D01*
X111798Y176913D01*
X112148Y176826D01*
X112498Y176913D01*
X112542Y177132D01*
X112411Y177263D01*
X111973Y177438D01*
X111798Y177351D01*
D02*
G37*
G36*
X168122Y177132D02*
X168209Y176870D01*
X168341Y176738D01*
X168603D01*
X168778Y176826D01*
X168910Y176957D01*
X168822Y177307D01*
X168428Y177438D01*
X168122Y177132D01*
D02*
G37*
G36*
X105408Y177001D02*
X105102Y176782D01*
X105015Y176520D01*
X105146Y176388D01*
X106109Y176476D01*
X106240Y176607D01*
Y176695D01*
Y176782D01*
X106152Y176957D01*
X105759Y177088D01*
X105408Y177001D01*
D02*
G37*
G36*
X178756Y177176D02*
X178144Y177088D01*
X177662Y177220D01*
X177181Y177438D01*
X176962Y177395D01*
X176875Y177045D01*
X176962Y176432D01*
X177619Y176388D01*
X177881Y176476D01*
X178275Y176520D01*
X178319Y176563D01*
X178975Y176695D01*
X179413Y176870D01*
X179588Y177045D01*
X179675Y177395D01*
X179588Y177570D01*
X179369Y177614D01*
X178756Y177176D01*
D02*
G37*
G36*
X118406Y176695D02*
X118362Y176651D01*
X117969Y176344D01*
X118012Y176126D01*
X118888Y176213D01*
X119106Y176432D01*
X118888Y176738D01*
X118406Y176695D01*
D02*
G37*
G36*
X165102Y176213D02*
X165058Y176169D01*
X165146Y176082D01*
X165190Y176038D01*
X165496Y176169D01*
X165452Y176301D01*
X165102Y176213D01*
D02*
G37*
G36*
X189041Y176870D02*
X189128Y176344D01*
X189304Y176169D01*
X189347Y176038D01*
X189610Y176126D01*
X190091Y176520D01*
X190266Y176695D01*
X190179Y176870D01*
X189522Y176913D01*
X189435D01*
X189041Y176870D01*
D02*
G37*
G36*
X115080Y176432D02*
X115036Y176388D01*
X114905Y176257D01*
X114993Y176082D01*
X115124Y175951D01*
X115737Y176038D01*
X115780Y176257D01*
X115562Y176476D01*
X115080Y176432D01*
D02*
G37*
G36*
X120638Y176651D02*
X120507Y176520D01*
X120419Y175907D01*
X120988Y175863D01*
X121251Y175951D01*
X122214Y175863D01*
X122608Y175557D01*
X122520Y175031D01*
X122082Y174594D01*
X121995Y174244D01*
X122214Y174025D01*
X122651Y174112D01*
X122783Y174244D01*
X123133Y174856D01*
X123395Y175119D01*
X123439Y175513D01*
X123264Y175688D01*
X122826Y175951D01*
X122695Y176082D01*
X122608Y176257D01*
X122389Y176476D01*
X121820Y176607D01*
X121338Y176738D01*
X121076D01*
X120638Y176651D01*
D02*
G37*
G36*
X158713D02*
X158406Y176344D01*
X158319Y175907D01*
X159238Y175863D01*
X159500Y175951D01*
X159588D01*
X159632Y175994D01*
X159894Y176169D01*
X159807Y176520D01*
X159675Y176651D01*
X159063Y176738D01*
X158713Y176651D01*
D02*
G37*
G36*
X162389Y176738D02*
X162258Y176607D01*
X162345Y176257D01*
X162476Y176038D01*
X162914Y175863D01*
X163089Y175951D01*
X163133Y176169D01*
X162870Y176607D01*
X162651Y176826D01*
X162564D01*
X162389Y176738D01*
D02*
G37*
G36*
X180988Y175907D02*
X181032Y175776D01*
X181251Y175819D01*
X181207Y175951D01*
X181032D01*
X180988Y175907D01*
D02*
G37*
G36*
X160988Y176476D02*
X160857Y176344D01*
X160769Y176169D01*
X160682Y175907D01*
Y175819D01*
X160769Y175382D01*
X160988Y175338D01*
X161120Y175469D01*
X161295Y175907D01*
X161382Y176344D01*
X161251Y176563D01*
X160988Y176476D01*
D02*
G37*
G36*
X90747Y176782D02*
X90966Y176563D01*
X91141Y176476D01*
X91448Y176257D01*
X91535Y175994D01*
Y175907D01*
X91492Y175425D01*
X91579Y175250D01*
X91710Y175294D01*
X91798Y175644D01*
X91710Y175907D01*
X91623Y176607D01*
X91141Y176826D01*
X90747Y176782D01*
D02*
G37*
G36*
X113592Y175294D02*
X113899Y175250D01*
X113942Y175382D01*
X113899Y175425D01*
X113636Y175513D01*
X113592Y175294D01*
D02*
G37*
G36*
X119982Y175732D02*
X119807Y175557D01*
X119894Y175119D01*
X120026Y175075D01*
X120244Y175294D01*
X120332Y175732D01*
X120026Y175776D01*
X119982Y175732D01*
D02*
G37*
G36*
X167028Y175776D02*
X166940D01*
X166721Y175644D01*
X166634Y175382D01*
X166765Y175163D01*
X167115Y175075D01*
X167640Y175163D01*
X167772Y175294D01*
X167684Y175732D01*
X167553Y175863D01*
X167028Y175776D01*
D02*
G37*
G36*
X188953Y175469D02*
X189041Y175119D01*
X189522Y175075D01*
X189566Y175207D01*
Y175294D01*
X189479Y175732D01*
X189347Y175863D01*
X188953Y175469D01*
D02*
G37*
G36*
X93023Y178970D02*
X93111Y178095D01*
X93505Y177964D01*
X93942Y177789D01*
X94074Y177395D01*
X94161Y176344D01*
X94249Y176169D01*
X93986Y175557D01*
X94074Y175031D01*
X94467Y174900D01*
X94905Y174988D01*
X94993Y175075D01*
X95036Y175119D01*
X95168Y175600D01*
X95080Y176038D01*
X94949Y176432D01*
X94993Y177263D01*
X94905Y177701D01*
X94686Y178007D01*
X94380Y178226D01*
X94161Y178533D01*
X93855Y178839D01*
X93242Y179014D01*
X93023Y178970D01*
D02*
G37*
G36*
X174905Y177001D02*
X174643Y176738D01*
X174511Y176695D01*
X174424Y176344D01*
X174511Y175994D01*
X174424Y175644D01*
Y175557D01*
X174511Y175031D01*
X174905Y174900D01*
X175343Y174988D01*
X175474Y175119D01*
X175387Y175469D01*
X175255Y175600D01*
X175080Y175688D01*
X174949Y175994D01*
X175168Y176301D01*
X175649Y176520D01*
X175737Y176782D01*
X175605Y177001D01*
X175255Y177088D01*
X174905Y177001D01*
D02*
G37*
G36*
X186634Y178751D02*
X186415Y178533D01*
X186284Y178051D01*
X186109Y177614D01*
X185977Y177482D01*
X185890Y177307D01*
X185715Y177132D01*
X185540Y176695D01*
X185452Y176082D01*
X185540Y175382D01*
X185846Y175075D01*
X186196Y174988D01*
X186459Y174900D01*
X186940Y174769D01*
X187028Y175031D01*
X186940Y175382D01*
X186897Y175600D01*
X186459Y175688D01*
X186240Y175907D01*
X186328Y176432D01*
X186678Y176957D01*
X186897Y177526D01*
X187378Y178007D01*
X187422Y178314D01*
X187378Y178358D01*
X187290Y178620D01*
X187159Y178751D01*
X186809Y178839D01*
X186634Y178751D01*
D02*
G37*
G36*
X106853Y175031D02*
X106896Y174813D01*
X107246Y174725D01*
X107422Y174813D01*
X107465Y174856D01*
X107378Y175031D01*
X107071Y175163D01*
X106853Y175031D01*
D02*
G37*
G36*
X116612Y175513D02*
X116481Y175119D01*
X116437Y174725D01*
X116524D01*
X116568Y174769D01*
X116875Y174900D01*
X117093Y175119D01*
X117181Y175469D01*
X117137Y175600D01*
X116612Y175513D01*
D02*
G37*
G36*
X163527Y175425D02*
X163483Y175382D01*
X163702Y174988D01*
X163877Y174900D01*
X164314Y174725D01*
X164402D01*
X164446Y175119D01*
X164227Y175513D01*
X163833Y175557D01*
X163527Y175425D01*
D02*
G37*
G36*
X172936Y174856D02*
X173067Y174725D01*
X173242D01*
X173373Y174856D01*
X173286Y175119D01*
X172980Y175163D01*
X172936Y174856D01*
D02*
G37*
G36*
X99457Y175863D02*
X99413Y175819D01*
X99325Y175644D01*
X99194Y175513D01*
X99019Y175425D01*
X98888Y175031D01*
X98975Y174681D01*
X99106Y174550D01*
X99457Y174463D01*
X99500Y174594D01*
X99325Y175031D01*
X99413Y175469D01*
X99763Y175819D01*
X99719Y175951D01*
X99457Y175863D01*
D02*
G37*
G36*
X116130Y174506D02*
X116087Y174463D01*
X116043Y174419D01*
X116087Y174375D01*
X116218Y174506D01*
X116174Y174550D01*
X116130Y174506D01*
D02*
G37*
G36*
X90529Y174463D02*
X90441D01*
X90397Y174244D01*
X90791Y174112D01*
X91098Y174156D01*
X91185Y174419D01*
X91054Y174550D01*
X90529Y174463D01*
D02*
G37*
G36*
X127378Y179539D02*
X127159Y179320D01*
X127203Y178226D01*
X126984Y177920D01*
X126284Y177745D01*
X125846Y177482D01*
X125934Y177220D01*
X126240Y177001D01*
X126284Y176607D01*
X126152Y176476D01*
X125977Y176388D01*
X125759Y176169D01*
X125802Y175163D01*
X125408Y174506D01*
X125496Y174069D01*
X125802Y174025D01*
X126109Y174244D01*
X126196Y174419D01*
X126634Y175031D01*
X126809Y175207D01*
X126984Y175644D01*
X127203Y176213D01*
X127378Y176476D01*
X127728Y176563D01*
X128516Y176651D01*
X128822Y176957D01*
X128997Y177395D01*
X129347Y178182D01*
X129522Y178795D01*
X129566Y179189D01*
X129478Y179539D01*
X129303Y179627D01*
X129216D01*
X127378Y179539D01*
D02*
G37*
G36*
X180376Y174681D02*
X180288Y174331D01*
X180376Y174156D01*
X180507Y174025D01*
X181032Y174112D01*
X181076Y174156D01*
X181251Y174331D01*
X181163Y174506D01*
X180945Y174725D01*
X180595Y174813D01*
X180376Y174681D01*
D02*
G37*
G36*
X187903Y173369D02*
X188034Y173150D01*
X188384Y173062D01*
X188428Y173544D01*
X188341Y173631D01*
Y173719D01*
X188253Y173894D01*
X187947Y174200D01*
X187903Y173369D01*
D02*
G37*
G36*
X177706Y174550D02*
X177662Y174156D01*
X177837Y173981D01*
X177925Y173806D01*
X178100Y173631D01*
X178450Y173018D01*
X178800Y172931D01*
X179194Y172887D01*
X179413Y173106D01*
X179325Y173806D01*
X179106Y174025D01*
X178494Y174375D01*
X178406Y174463D01*
X178363Y174506D01*
X177969Y174638D01*
X177706Y174550D01*
D02*
G37*
G36*
X96349Y173193D02*
Y173106D01*
X96437Y172931D01*
X96568Y172800D01*
X96787Y172843D01*
X96699Y173369D01*
X96568Y173412D01*
X96349Y173193D01*
D02*
G37*
G36*
X171667Y173762D02*
X171404Y173587D01*
X171360Y173544D01*
X171273Y173281D01*
X171886Y172493D01*
X172104Y172274D01*
X172542Y172099D01*
X172980Y171837D01*
X173155Y171662D01*
X173505Y171574D01*
X173942Y171487D01*
X174249Y170830D01*
X174643Y170699D01*
X174818Y170786D01*
X174949Y170918D01*
X175124Y171618D01*
X176087Y171880D01*
X176481Y172274D01*
X177269Y172187D01*
X177662Y171968D01*
X177575Y171618D01*
X177093Y171399D01*
X176918Y171312D01*
X176787Y171180D01*
X176875Y170918D01*
X177006Y170786D01*
X177356Y170699D01*
X177706Y170786D01*
X178012Y171093D01*
X178100Y171268D01*
X178275Y171443D01*
X178363Y171793D01*
X178100Y172056D01*
X178012Y172406D01*
X177881Y172625D01*
X177531Y172712D01*
X176568Y172625D01*
X176306Y172537D01*
X175868Y172625D01*
X175430Y172800D01*
X174555Y172887D01*
X174293Y172800D01*
X173067Y172887D01*
X172586Y173281D01*
X172192Y173850D01*
X171667Y173762D01*
D02*
G37*
G36*
X183001Y173281D02*
X183089Y172843D01*
X183220Y172712D01*
X183352Y172843D01*
X183264Y173281D01*
X183220Y173325D01*
X183133Y173412D01*
X183001Y173281D01*
D02*
G37*
G36*
X189216Y173456D02*
X189128Y173281D01*
X188910Y173062D01*
X188822D01*
X188691Y172931D01*
X188822Y172712D01*
X189172Y172625D01*
X189785Y172712D01*
X189916Y173018D01*
X189829Y173281D01*
X189741Y173631D01*
X189435Y173675D01*
X189216Y173456D01*
D02*
G37*
G36*
X92936Y174681D02*
X92804Y174112D01*
X92629Y173675D01*
X92454Y173325D01*
X91929Y173412D01*
X91667Y173500D01*
X91360Y173369D01*
X91273Y173193D01*
X91185Y173106D01*
X91141Y173062D01*
X91098Y172756D01*
X91229Y172625D01*
X91579Y172537D01*
X92017Y172712D01*
X92235Y172843D01*
X92323Y173018D01*
X92367Y173062D01*
X92454Y172975D01*
X92848Y173106D01*
X92936Y173456D01*
X93373Y174244D01*
X93548Y174681D01*
X93461Y174856D01*
X93155Y174900D01*
X92936Y174681D01*
D02*
G37*
G36*
X102082Y174200D02*
X101645Y173937D01*
X101557Y173587D01*
X101470Y173150D01*
X101251Y172931D01*
X101076Y172493D01*
X101163Y172318D01*
X101295Y172187D01*
X101382D01*
X101601Y172406D01*
X101688Y172668D01*
X101820Y172800D01*
X102170Y172887D01*
X102608Y173062D01*
X102739Y173456D01*
X102826Y174069D01*
X102739Y174244D01*
X102345Y174287D01*
X102082Y174200D01*
D02*
G37*
G36*
X108297Y173762D02*
X108078Y173281D01*
X107990Y173106D01*
X107772Y172887D01*
X107509D01*
X107246Y172800D01*
X106327Y172843D01*
X105627Y172756D01*
X104796Y172712D01*
X104533Y172800D01*
X103483Y172712D01*
X103089Y172493D01*
X103133Y172099D01*
X103483Y172187D01*
X103745Y172274D01*
X104139Y172318D01*
X104446Y172099D01*
X104577Y171968D01*
X104664Y171793D01*
X104796Y171662D01*
X105146Y171574D01*
X105715Y171705D01*
X106284Y172012D01*
X106721Y171924D01*
X107159Y171662D01*
X107465Y171618D01*
X107815Y171705D01*
X108122Y171924D01*
X108297Y172099D01*
X108734Y172274D01*
X109172Y172537D01*
X109391Y172756D01*
X109566Y173193D01*
X109478Y173544D01*
X108909Y173762D01*
X108559Y173850D01*
X108297Y173762D01*
D02*
G37*
G36*
X182826Y172056D02*
X182870Y171924D01*
X183045Y172012D01*
X183089Y172056D01*
X183045Y172099D01*
X182958D01*
X182826Y172056D01*
D02*
G37*
G36*
X97312Y172143D02*
Y171793D01*
X97356Y171749D01*
X97575Y171705D01*
X97881Y171924D01*
X97925Y171968D01*
X97706Y172187D01*
X97312Y172143D01*
D02*
G37*
G36*
X186459Y171749D02*
X186328Y171618D01*
X186371Y171399D01*
X186546D01*
X186590Y171443D01*
X186765Y171618D01*
X186809Y171837D01*
X186459Y171749D01*
D02*
G37*
G36*
X140332Y172975D02*
X139763Y172581D01*
X139850Y171880D01*
X140113Y171443D01*
X140244Y171312D01*
X140857Y171662D01*
X141163Y171968D01*
X141338Y172406D01*
Y172581D01*
Y172668D01*
X141207Y172975D01*
X140857Y173062D01*
X140332Y172975D01*
D02*
G37*
G36*
X93242Y172099D02*
X93198Y171705D01*
Y171618D01*
X93286Y171355D01*
X93417Y171224D01*
X94205Y171312D01*
X94249Y171530D01*
X93855Y172099D01*
X93505Y172187D01*
X93242Y172099D01*
D02*
G37*
G36*
X187247Y172537D02*
X187028Y172318D01*
X186984Y172012D01*
X187028Y171968D01*
X187072Y171924D01*
X187334Y171837D01*
X187465Y171705D01*
X187728Y171268D01*
X187859Y171136D01*
X188034Y171224D01*
X188166Y171618D01*
X188078Y171968D01*
X187903Y172143D01*
X187815Y172318D01*
X187509Y172625D01*
X187247Y172537D01*
D02*
G37*
G36*
X106152Y171180D02*
X106371Y170874D01*
X106721Y170961D01*
X106765Y171005D01*
Y171093D01*
X106677Y171355D01*
X106459Y171399D01*
X106152Y171180D01*
D02*
G37*
G36*
X91535Y170830D02*
X91667Y170786D01*
X91710Y170918D01*
X91667Y170961D01*
X91579D01*
X91535Y170830D01*
D02*
G37*
G36*
X102389Y171618D02*
X102739Y171268D01*
X102782Y171224D01*
X103220Y170786D01*
X103570Y170699D01*
X103920Y170786D01*
X104139Y171005D01*
X104095Y171224D01*
X103658Y171399D01*
X103308Y171487D01*
X103089Y171618D01*
X103001Y171793D01*
X102608Y171837D01*
X102389Y171618D01*
D02*
G37*
G36*
X92892Y170699D02*
X92673Y170480D01*
X92761Y170130D01*
X92892Y169999D01*
X92979D01*
X93417Y170086D01*
X93461Y170480D01*
X93155Y170786D01*
X92892Y170699D01*
D02*
G37*
G36*
X94949Y170480D02*
X94861Y170130D01*
Y169955D01*
Y169867D01*
X94774Y169605D01*
X94686Y169430D01*
X94511Y169255D01*
X94380Y168773D01*
X94511Y168467D01*
X94643Y168336D01*
X95343Y168423D01*
X95561Y168642D01*
X95649Y168817D01*
X95868Y169036D01*
X96262Y168729D01*
X96218Y167723D01*
X96393Y167635D01*
X96743Y167985D01*
X97618Y168336D01*
X97925Y168642D01*
X98012Y168817D01*
X98144Y168948D01*
X98581Y169123D01*
X98800Y169342D01*
X98362Y170130D01*
X98231Y170261D01*
X97881Y170349D01*
X97575Y170130D01*
X97400Y169692D01*
X97312Y169517D01*
X97181Y169386D01*
X96568Y169474D01*
X96087Y169867D01*
X95999Y170043D01*
X95693Y170349D01*
X95255Y170524D01*
X94949Y170480D01*
D02*
G37*
G36*
X185584Y170874D02*
X185190Y170480D01*
X185102Y170305D01*
X184664Y169955D01*
X184752Y169605D01*
X185102Y169517D01*
X185277Y169342D01*
X185146Y168861D01*
X185102Y168554D01*
X185321Y168248D01*
X186284Y168336D01*
X186503Y168467D01*
X186590Y168817D01*
X186371Y169386D01*
X186328Y169605D01*
Y169692D01*
X186065Y170130D01*
X185934Y170961D01*
X185584Y170874D01*
D02*
G37*
G36*
X182739Y170305D02*
X182651Y170130D01*
X182170Y169649D01*
X181995Y169561D01*
X181864Y169255D01*
X182170Y168948D01*
X182651Y168817D01*
X183220Y168248D01*
X183658Y168073D01*
X183789Y168029D01*
X183833Y167985D01*
X184271Y168073D01*
X184402Y168204D01*
X184314Y169080D01*
X183921Y169474D01*
X183746Y169561D01*
X183527Y169780D01*
X183220Y170349D01*
X182958Y170436D01*
X182739Y170305D01*
D02*
G37*
G36*
X180551Y166541D02*
X180857Y166498D01*
X180901Y166541D01*
Y166629D01*
X180682Y166673D01*
X180551Y166541D01*
D02*
G37*
%LPC*%
G36*
X126503Y264966D02*
X126765Y264879D01*
X126896Y264747D01*
X126984Y263960D01*
X127071Y263697D01*
X127115Y263128D01*
X126634Y263259D01*
X126459Y263434D01*
X126371Y264047D01*
X126459Y264397D01*
Y264485D01*
X126503Y264966D01*
D02*
G37*
G36*
X153549Y263303D02*
X153680Y263259D01*
X153767Y262909D01*
X153680Y262209D01*
X153636Y262165D01*
X153549D01*
X153461Y262078D01*
X153417Y263084D01*
X153549Y263303D01*
D02*
G37*
G36*
X110835Y252537D02*
X110923Y252450D01*
X110966Y252406D01*
X110748Y252362D01*
X110616Y252493D01*
X110835Y252537D01*
D02*
G37*
G36*
X104971Y243522D02*
X105058D01*
X105583Y243434D01*
X105802Y243215D01*
X105715Y242865D01*
X105146Y242822D01*
X104883Y242909D01*
X104577Y243040D01*
X104489Y243303D01*
X104971Y243522D01*
D02*
G37*
G36*
X173942Y242647D02*
X174030D01*
X174468Y242559D01*
X174511Y242340D01*
X174380Y242209D01*
X174030Y242121D01*
X173155Y242034D01*
X172936Y242078D01*
X173023Y242340D01*
X173242Y242559D01*
X173942Y242647D01*
D02*
G37*
G36*
X178669Y234156D02*
X179282Y234069D01*
X179413Y233938D01*
X179282Y233806D01*
X178669Y233719D01*
X178012Y233763D01*
X178100Y233938D01*
X178231Y234069D01*
X178406D01*
X178669Y234156D01*
D02*
G37*
G36*
X105759Y214025D02*
X106590Y213981D01*
X106634Y213937D01*
X106677Y213806D01*
X106459Y213587D01*
X106021Y213500D01*
X105759Y213587D01*
X105583Y213675D01*
X105540Y213806D01*
X105759Y214025D01*
D02*
G37*
G36*
X176481Y213237D02*
X176831Y213150D01*
X177050Y212931D01*
X177006Y212887D01*
X176962Y212843D01*
X176831Y212712D01*
X176218Y212800D01*
X176087Y212931D01*
X176131Y213150D01*
X176481Y213237D01*
D02*
G37*
G36*
X140244Y220852D02*
X140376Y220721D01*
X140419Y220327D01*
X140332Y220239D01*
X139938Y220458D01*
Y220721D01*
X139982Y220765D01*
X140244Y220852D01*
D02*
G37*
G36*
X140770Y220152D02*
X141251Y219933D01*
X141338Y219320D01*
X141251Y218795D01*
X140857Y218314D01*
X140682Y218226D01*
X140244Y218051D01*
X140113Y218095D01*
X140069Y218139D01*
X139850Y218358D01*
X139763Y218708D01*
X139850Y218970D01*
X140376Y219496D01*
X140594Y220064D01*
X140770Y220152D01*
D02*
G37*
G36*
X143921Y219014D02*
X144096Y218927D01*
X144227Y218795D01*
X144139Y218270D01*
X143745Y217526D01*
X143220Y217614D01*
X143133D01*
X142826Y217920D01*
X142914Y218358D01*
X143308Y218839D01*
X143570Y218927D01*
X143921Y219014D01*
D02*
G37*
G36*
X136218Y218489D02*
X136481Y218401D01*
X136612Y218270D01*
X136524Y217657D01*
X136306Y217439D01*
X135868Y217526D01*
X135737Y217657D01*
X135649Y218007D01*
X135780Y218314D01*
X135824Y218358D01*
X136218Y218489D01*
D02*
G37*
G36*
X141907Y217701D02*
X142126Y217570D01*
X142301Y216870D01*
Y216782D01*
Y216695D01*
X142214Y216082D01*
X142082Y215951D01*
X141207Y216038D01*
X140988Y216170D01*
X140945Y216476D01*
X141120Y216913D01*
X141557Y217614D01*
X141907Y217701D01*
D02*
G37*
G36*
X146109Y216738D02*
X146502Y216432D01*
X146415Y215907D01*
X146109Y215600D01*
X145627Y215469D01*
X145146Y215425D01*
X145102Y215644D01*
X145583Y216563D01*
X145627Y216607D01*
X146109Y216738D01*
D02*
G37*
G36*
X139194Y216213D02*
X139457Y216126D01*
X139500Y216082D01*
Y215994D01*
X139588Y215732D01*
X139500Y215294D01*
X139281Y215250D01*
X139063Y215469D01*
X138975Y215819D01*
X139194Y216213D01*
D02*
G37*
G36*
X142607Y215513D02*
X142739Y215469D01*
X142826Y215119D01*
X142739Y214944D01*
X142607Y214900D01*
X142476Y215032D01*
Y215294D01*
Y215382D01*
X142607Y215513D01*
D02*
G37*
G36*
X134905Y215776D02*
X134993D01*
X135343Y215688D01*
X135474Y215557D01*
X135387Y214769D01*
X135168Y214550D01*
X134818Y214463D01*
X134467Y214550D01*
X134424Y215207D01*
X134730Y215688D01*
X134905Y215776D01*
D02*
G37*
G36*
X146634Y214375D02*
X146984Y214288D01*
X147203Y214069D01*
Y213806D01*
X147247Y213762D01*
X147290Y213544D01*
X147072Y213150D01*
X146546Y213237D01*
X146415Y213631D01*
X146502Y214244D01*
X146634Y214375D01*
D02*
G37*
G36*
X144533Y215250D02*
X144840Y215207D01*
X144927Y214069D01*
X145102Y213894D01*
X145190Y213631D01*
X144840Y213281D01*
X144752Y212931D01*
X144665Y212668D01*
X144096Y212625D01*
X143964Y212756D01*
X144227Y213193D01*
X144665Y213456D01*
X144577Y213806D01*
X144402Y213894D01*
X144358Y213937D01*
X144008Y214025D01*
X143877Y214156D01*
X143789Y214506D01*
X143877Y214857D01*
X144183Y215163D01*
X144533Y215250D01*
D02*
G37*
G36*
X144971Y212450D02*
X145321Y212362D01*
X145452Y211968D01*
X145321Y211749D01*
X144883Y211837D01*
X144840Y212231D01*
X144883Y212275D01*
X144927Y212318D01*
X144971Y212450D01*
D02*
G37*
G36*
X143921Y212537D02*
X143964Y211881D01*
X143921Y211837D01*
X143877Y211793D01*
X143833Y211662D01*
X143483Y211749D01*
X143351Y212143D01*
X143570Y212450D01*
X143921Y212537D01*
D02*
G37*
G36*
X134030Y212450D02*
X134249Y212318D01*
Y212231D01*
X134424Y211793D01*
X134336Y211180D01*
X134117Y211137D01*
X133811Y211443D01*
X133548Y212056D01*
X133592Y212275D01*
X134030Y212450D01*
D02*
G37*
G36*
X144183Y211487D02*
X144621Y211399D01*
X144665Y211355D01*
X144446Y211049D01*
X144183D01*
X144139Y211093D01*
X144052Y211355D01*
X144183Y211487D01*
D02*
G37*
G36*
X144971Y209999D02*
X145277Y209780D01*
X145321Y209736D01*
X145365Y209167D01*
X145146Y208861D01*
X144840Y208817D01*
X144358Y209123D01*
X144227Y209255D01*
X144183Y209474D01*
X144314Y209780D01*
X144971Y209999D01*
D02*
G37*
G36*
X166152Y196870D02*
X166590Y196782D01*
X166721Y196388D01*
X166634Y196038D01*
X166240Y195907D01*
X166021Y195951D01*
X165977Y195994D01*
X165934Y196563D01*
X166152Y196870D01*
D02*
G37*
G36*
X169216Y190743D02*
X169347Y190611D01*
Y190524D01*
Y190436D01*
X169128Y190393D01*
X168910Y190524D01*
X168997Y190699D01*
X169216Y190743D01*
D02*
G37*
G36*
X114686Y200808D02*
X114949Y200721D01*
X114993Y200590D01*
X114774Y200546D01*
X114686Y200633D01*
X114643Y200677D01*
X114686Y200808D01*
D02*
G37*
G36*
X117750Y193456D02*
X117794Y193325D01*
X117750Y193281D01*
X117706Y193412D01*
X117750Y193456D01*
D02*
G37*
G36*
X111885Y191881D02*
X111973D01*
X112017Y191837D01*
X111973Y191530D01*
X111798Y191618D01*
X111754Y191749D01*
X111885Y191881D01*
D02*
G37*
G36*
X131404Y193631D02*
X131448Y193587D01*
X131404Y193544D01*
X131360Y193587D01*
X131404Y193631D01*
D02*
G37*
G36*
X131492Y193544D02*
X131535Y193500D01*
X131492Y193456D01*
X131448Y193500D01*
X131492Y193544D01*
D02*
G37*
G36*
Y191530D02*
X131929Y191443D01*
X132061Y191312D01*
Y190962D01*
X132017Y190918D01*
X131842Y190655D01*
X131579Y190568D01*
X131448Y190962D01*
X131492Y191530D01*
D02*
G37*
G36*
X148559Y193018D02*
X149085Y192931D01*
X149128Y192712D01*
X148909Y192406D01*
X148559Y192318D01*
X148341Y192537D01*
Y192624D01*
X148428Y192887D01*
X148559Y193018D01*
D02*
G37*
G36*
X89916Y189342D02*
X90266Y189255D01*
X90397Y189123D01*
X90310Y188511D01*
X90004Y188029D01*
X89566Y188117D01*
X89522Y188248D01*
Y188336D01*
X89653Y188817D01*
X89741Y189167D01*
X89916Y189342D01*
D02*
G37*
G36*
X96218Y189517D02*
X96568Y189430D01*
X96743Y188380D01*
X96787Y187986D01*
X96612Y187548D01*
X96524Y186760D01*
X96393Y186629D01*
X95912Y186673D01*
Y186760D01*
X95824Y186935D01*
X96262Y187898D01*
X96174Y188948D01*
X96087Y189211D01*
X96218Y189517D01*
D02*
G37*
G36*
X88691Y187329D02*
X88953Y187242D01*
X89085Y186848D01*
X88866Y186454D01*
X88647Y186498D01*
X88559Y186848D01*
Y187023D01*
X88603Y187067D01*
X88691Y187329D01*
D02*
G37*
G36*
X89566Y185754D02*
X89697Y185622D01*
X89566Y185404D01*
X89478D01*
X89347Y185447D01*
X89435Y185710D01*
X89566Y185754D01*
D02*
G37*
G36*
X91229Y181552D02*
X91623Y181509D01*
X91579Y181290D01*
X91185Y181333D01*
Y181509D01*
X91229Y181552D01*
D02*
G37*
G36*
X163264Y193456D02*
X163702Y193368D01*
X163833Y193237D01*
X163920Y192800D01*
X163789Y192668D01*
X163308Y192712D01*
X163264Y192756D01*
X163133Y192887D01*
X163045Y193237D01*
X163264Y193456D01*
D02*
G37*
G36*
X161251Y191793D02*
X161645Y191749D01*
X161732Y191574D01*
Y191487D01*
X161645Y191312D01*
X161251Y191268D01*
X161120Y191662D01*
X161251Y191793D01*
D02*
G37*
G36*
X163877Y191268D02*
X164008Y191137D01*
X163920Y190962D01*
X163789Y190830D01*
X163702D01*
X163527Y190743D01*
X163220Y190962D01*
X163308Y191224D01*
X163877Y191268D01*
D02*
G37*
G36*
X184708Y189605D02*
X184840Y189474D01*
X184883Y189255D01*
X184752Y188948D01*
X184446Y188905D01*
X184227Y189036D01*
X184314Y189386D01*
X184358Y189430D01*
X184402Y189474D01*
X184708Y189605D01*
D02*
G37*
G36*
X191098Y188992D02*
X191229Y188861D01*
X191273Y188817D01*
X191492Y188598D01*
X191667Y188161D01*
X191579Y187723D01*
X191273Y187679D01*
X191054Y187898D01*
X190835Y188467D01*
X190660Y188905D01*
X190616Y188948D01*
X191098Y188992D01*
D02*
G37*
G36*
X185058Y187417D02*
X185190Y187285D01*
X185277Y187023D01*
Y186935D01*
X185058Y186716D01*
X184752Y186673D01*
X184577Y186760D01*
X184664Y187373D01*
X185058Y187417D01*
D02*
G37*
G36*
X192761Y184791D02*
X193286Y184703D01*
X193417Y184309D01*
X193330Y184134D01*
X193199Y184003D01*
X192761Y184091D01*
X192586Y184266D01*
X192542Y184309D01*
X192630Y184660D01*
X192761Y184791D01*
D02*
G37*
G36*
X191710Y183828D02*
X191929Y183609D01*
X192192Y183172D01*
X192323Y183040D01*
X192498Y182953D01*
X192630Y182822D01*
X192542Y182559D01*
X192411Y182428D01*
X192192Y182384D01*
X192148Y182428D01*
X192061D01*
X191842Y182646D01*
X191754Y182822D01*
X191623Y182953D01*
X191360Y183040D01*
X191229Y183172D01*
X191317Y183609D01*
X191448Y183740D01*
X191710Y183828D01*
D02*
G37*
G36*
X189697Y181640D02*
X189785D01*
X189916Y181509D01*
X189872Y181290D01*
X189522Y181202D01*
X189260Y181290D01*
X189216Y181421D01*
X189347Y181552D01*
X189697Y181640D01*
D02*
G37*
G36*
X139457Y184266D02*
X140376Y184222D01*
X140857Y184266D01*
X141338Y183872D01*
X141732Y183740D01*
X142695Y183653D01*
X143308Y183303D01*
X143351Y183259D01*
X143702Y182734D01*
X143614Y182559D01*
X142958Y182515D01*
X142695Y182603D01*
X141557Y182515D01*
X141426Y182384D01*
X141076Y181771D01*
X140857Y181552D01*
X140288Y181246D01*
X140200Y180633D01*
X140113Y179845D01*
X139675Y178883D01*
X139588Y178708D01*
X139413Y178533D01*
X139369Y178401D01*
X139238Y178358D01*
X139194Y178226D01*
X139019Y178139D01*
X138756Y177876D01*
X138144Y177701D01*
X137531Y177789D01*
X137050Y178182D01*
X136262Y178708D01*
X136174Y179058D01*
X135912Y179933D01*
X135824Y180283D01*
X135956Y180765D01*
X136262Y181158D01*
X136349Y181333D01*
X136612Y181946D01*
X136743Y182515D01*
X137006Y182778D01*
X137443Y183040D01*
X137750Y183522D01*
X138144Y183653D01*
X138669Y183740D01*
X139457Y184266D01*
D02*
G37*
G36*
X142870Y179802D02*
X142914Y179758D01*
X142870Y179714D01*
X142826Y179758D01*
X142870Y179802D01*
D02*
G37*
%LPD*%
G36*
X137268Y180852D02*
X136962Y180546D01*
X136874Y179671D01*
X136962Y179058D01*
X137093Y178839D01*
X137137Y178795D01*
X137268Y178664D01*
X137881Y178576D01*
X138669Y178664D01*
X138888Y178883D01*
X138975Y179058D01*
X139150Y179233D01*
X139238Y179583D01*
X139150Y180546D01*
X138844Y180852D01*
X137969Y180940D01*
X137268Y180852D01*
D02*
G37*
%LPC*%
G36*
X172892Y185666D02*
X173242D01*
X173417Y185579D01*
X173548Y185447D01*
X173461Y185097D01*
X173067Y184966D01*
X172761Y185010D01*
X172673Y185360D01*
X172892Y185666D01*
D02*
G37*
G36*
X154424Y177001D02*
X154861Y176826D01*
X154993Y176607D01*
X154905Y176344D01*
X154818Y175907D01*
X154686Y175776D01*
X154424Y175863D01*
X154249D01*
X154205Y175907D01*
X153942Y176520D01*
X154030Y176870D01*
X154424Y177001D01*
D02*
G37*
%LPD*%
D14*
X179457Y99200D02*
X184788D01*
X179457Y104532D01*
Y105865D01*
X180790Y107197D01*
X183455D01*
X184788Y105865D01*
X176791D02*
X175458Y107197D01*
X172792D01*
X171459Y105865D01*
Y100533D01*
X172792Y99200D01*
X175458D01*
X176791Y100533D01*
Y105865D01*
X163462Y99200D02*
X168793D01*
X163462Y104532D01*
Y105865D01*
X164795Y107197D01*
X167461D01*
X168793Y105865D01*
X155464Y107197D02*
X160796D01*
Y103199D01*
X158130Y104532D01*
X156797D01*
X155464Y103199D01*
Y100533D01*
X156797Y99200D01*
X159463D01*
X160796Y100533D01*
X144801Y107197D02*
Y101866D01*
X142136Y99200D01*
X139470Y101866D01*
Y107197D01*
X136804Y99200D02*
X134138D01*
X135471D01*
Y107197D01*
X136804Y105865D01*
X130139Y99200D02*
Y100533D01*
X128806D01*
Y99200D01*
X130139D01*
X123475Y105865D02*
X122142Y107197D01*
X119476D01*
X118143Y105865D01*
Y100533D01*
X119476Y99200D01*
X122142D01*
X123475Y100533D01*
Y105865D01*
X115477Y99200D02*
X112812D01*
X114145D01*
Y107197D01*
X115477Y105865D01*
X211579Y124897D02*
Y123565D01*
X208913Y120899D01*
X206247Y123565D01*
Y124897D01*
X208913Y120899D02*
Y116900D01*
X203581D02*
Y122232D01*
X200915Y124897D01*
X198250Y122232D01*
Y116900D01*
Y120899D01*
X203581D01*
X195584Y116900D02*
Y124897D01*
X190252Y116900D01*
Y124897D01*
X182255Y123565D02*
X183588Y124897D01*
X186253D01*
X187586Y123565D01*
Y118233D01*
X186253Y116900D01*
X183588D01*
X182255Y118233D01*
Y120899D01*
X184921D01*
X179589Y124897D02*
X174257D01*
X176923D01*
Y116900D01*
X166260Y123565D02*
X167593Y124897D01*
X170259D01*
X171592Y123565D01*
Y122232D01*
X170259Y120899D01*
X167593D01*
X166260Y119566D01*
Y118233D01*
X167593Y116900D01*
X170259D01*
X171592Y118233D01*
X158263Y124897D02*
X163594D01*
Y116900D01*
X158263D01*
X163594Y120899D02*
X160928D01*
X147599Y116900D02*
Y124897D01*
X143601D01*
X142268Y123565D01*
Y120899D01*
X143601Y119566D01*
X147599D01*
X144933D02*
X142268Y116900D01*
X139602Y124897D02*
X136936D01*
X138269D01*
Y116900D01*
X139602D01*
X136936D01*
X132937Y124897D02*
Y119566D01*
X130272Y116900D01*
X127606Y119566D01*
Y124897D01*
X119608D02*
X124940D01*
Y116900D01*
X119608D01*
X124940Y120899D02*
X122274D01*
X116943Y116900D02*
Y124897D01*
X112944D01*
X111611Y123565D01*
Y120899D01*
X112944Y119566D01*
X116943D01*
X114277D02*
X111611Y116900D01*
X100948Y124897D02*
X95616D01*
X98282D01*
Y116900D01*
X88952Y124897D02*
X91618D01*
X92950Y123565D01*
Y118233D01*
X91618Y116900D01*
X88952D01*
X87619Y118233D01*
Y123565D01*
X88952Y124897D01*
X84953D02*
Y123565D01*
X82287Y120899D01*
X79621Y123565D01*
Y124897D01*
X82287Y120899D02*
Y116900D01*
X251966Y149796D02*
Y137800D01*
Y141799D01*
X243968Y149796D01*
X249966Y143798D01*
X243968Y137800D01*
X233972Y149796D02*
X237970D01*
X239970Y147797D01*
Y139799D01*
X237970Y137800D01*
X233972D01*
X231972Y139799D01*
Y147797D01*
X233972Y149796D01*
X227974Y137800D02*
Y149796D01*
X219976Y137800D01*
Y149796D01*
X207980Y147797D02*
X209979Y149796D01*
X213978D01*
X215977Y147797D01*
Y139799D01*
X213978Y137800D01*
X209979D01*
X207980Y139799D01*
Y143798D01*
X211979D01*
X203981Y137800D02*
Y149796D01*
X197983D01*
X195984Y147797D01*
Y143798D01*
X197983Y141799D01*
X203981D01*
X185987Y149796D02*
X189986D01*
X191985Y147797D01*
Y139799D01*
X189986Y137800D01*
X185987D01*
X183988Y139799D01*
Y147797D01*
X185987Y149796D01*
X167993D02*
Y137800D01*
X161995D01*
X159995Y139799D01*
Y141799D01*
X161995Y143798D01*
X167993D01*
X161995D01*
X159995Y145797D01*
Y147797D01*
X161995Y149796D01*
X167993D01*
X155997D02*
Y137800D01*
Y143798D01*
X147999D01*
Y149796D01*
Y137800D01*
X144001Y149796D02*
Y139799D01*
X142001Y137800D01*
X138003D01*
X136003Y139799D01*
Y149796D01*
X120008D02*
Y137800D01*
X112011D01*
X102014Y149796D02*
X106013D01*
X108012Y147797D01*
Y139799D01*
X106013Y137800D01*
X102014D01*
X100015Y139799D01*
Y147797D01*
X102014Y149796D01*
X96016D02*
Y137800D01*
X90018D01*
X88019Y139799D01*
Y141799D01*
X90018Y143798D01*
X96016D01*
X90018D01*
X88019Y145797D01*
Y147797D01*
X90018Y149796D01*
X96016D01*
X76023Y147797D02*
X78022Y149796D01*
X82021D01*
X84020Y147797D01*
Y145797D01*
X82021Y143798D01*
X78022D01*
X76023Y141799D01*
Y139799D01*
X78022Y137800D01*
X82021D01*
X84020Y139799D01*
X72024Y137800D02*
Y145797D01*
X68025Y149796D01*
X64026Y145797D01*
Y137800D01*
Y143798D01*
X72024D01*
X60028Y137800D02*
Y149796D01*
X52030Y137800D01*
Y149796D01*
X40034Y147797D02*
X42034Y149796D01*
X46032D01*
X48032Y147797D01*
Y139799D01*
X46032Y137800D01*
X42034D01*
X40034Y139799D01*
Y143798D01*
X44033D01*
X306458Y47030D02*
Y40366D01*
X305125Y39033D01*
X302459D01*
X301126Y40366D01*
Y47030D01*
X293129Y45697D02*
X294462Y47030D01*
X297128D01*
X298461Y45697D01*
Y44365D01*
X297128Y43032D01*
X294462D01*
X293129Y41699D01*
Y40366D01*
X294462Y39033D01*
X297128D01*
X298461Y40366D01*
X290463Y47030D02*
Y39033D01*
X286465D01*
X285132Y40366D01*
Y41699D01*
X286465Y43032D01*
X290463D01*
X286465D01*
X285132Y44365D01*
Y45697D01*
X286465Y47030D01*
X290463D01*
X282466Y37700D02*
X277134D01*
X269137Y45697D02*
X270470Y47030D01*
X273135D01*
X274468Y45697D01*
Y40366D01*
X273135Y39033D01*
X270470D01*
X269137Y40366D01*
X266471Y47030D02*
Y39033D01*
Y43032D01*
X261139D01*
Y47030D01*
Y39033D01*
X253142Y45697D02*
X254475Y47030D01*
X257141D01*
X258474Y45697D01*
Y40366D01*
X257141Y39033D01*
X254475D01*
X253142Y40366D01*
Y43032D01*
X255808D01*
X23500Y94800D02*
X27499D01*
X53300Y94199D02*
X57299D01*
X55299Y96199D02*
Y92200D01*
X76256Y13697D02*
X81588D01*
Y9699D01*
X78922D01*
X81588D01*
Y5700D01*
X73590D02*
Y13697D01*
X69592D01*
X68259Y12365D01*
Y9699D01*
X69592Y8366D01*
X73590D01*
X70925D02*
X68259Y5700D01*
X60261Y13697D02*
X65593D01*
Y5700D01*
X60261D01*
X65593Y9699D02*
X62927D01*
X52264Y13697D02*
X57595D01*
Y5700D01*
X52264D01*
X57595Y9699D02*
X54930D01*
X41601Y13697D02*
X36269D01*
X38935D01*
Y5700D01*
X33603Y13697D02*
X30937D01*
X32270D01*
Y5700D01*
X33603D01*
X30937D01*
X26939Y13697D02*
Y5700D01*
X22940D01*
X21607Y7033D01*
Y8366D01*
X22940Y9699D01*
X26939D01*
X22940D01*
X21607Y11032D01*
Y12365D01*
X22940Y13697D01*
X26939D01*
X13610D02*
X18941D01*
Y5700D01*
X13610D01*
X18941Y9699D02*
X16275D01*
X10944Y13697D02*
X5612D01*
X8278D01*
Y5700D01*
M02*
