G04*
G04 #@! TF.GenerationSoftware,Altium Limited,Altium Designer,21.4.1 (30)*
G04*
G04 Layer_Physical_Order=2*
G04 Layer_Color=36540*
%FSLAX25Y25*%
%MOIN*%
G70*
G04*
G04 #@! TF.SameCoordinates,685BF032-01BA-41A8-8713-D9B93D2C9BCE*
G04*
G04*
G04 #@! TF.FilePolarity,Positive*
G04*
G01*
G75*
%ADD14C,0.01000*%
%ADD83C,0.03000*%
%ADD85C,0.01500*%
%ADD86C,0.02000*%
%ADD90R,0.06496X0.06496*%
%ADD92O,0.03543X0.06693*%
%ADD93O,0.03543X0.07874*%
%ADD95C,0.02400*%
G36*
X288800Y261500D02*
X248100D01*
X243400Y266200D01*
X212700D01*
X212500Y266400D01*
X209092Y262992D01*
Y261307D01*
X128807D01*
X128800Y261300D01*
X127600D01*
Y267000D01*
X128000Y267400D01*
Y298839D01*
X128200Y299322D01*
Y300078D01*
X128000Y300561D01*
Y318200D01*
X287600D01*
X288800Y319400D01*
Y261500D01*
D02*
G37*
G36*
X4200Y317800D02*
X127286D01*
Y300561D01*
D01*
Y300561D01*
X127341Y300288D01*
X127486Y299936D01*
Y299464D01*
X127341Y299112D01*
X127286Y298839D01*
Y298839D01*
D01*
Y267696D01*
X127095Y267505D01*
X126941Y267273D01*
X126886Y267000D01*
Y261300D01*
X126941Y261027D01*
X127095Y260795D01*
X127327Y260641D01*
X127600Y260586D01*
X128800D01*
X128835Y260593D01*
X151006D01*
X150489Y260076D01*
X150200Y259378D01*
Y258622D01*
X150489Y257924D01*
X151024Y257389D01*
X151722Y257100D01*
X152478D01*
X153176Y257389D01*
X153711Y257924D01*
X154000Y258622D01*
Y259378D01*
X153711Y260076D01*
X153194Y260593D01*
X209092D01*
X209365Y260648D01*
X209597Y260802D01*
X209751Y261034D01*
X209806Y261307D01*
Y262696D01*
X212613Y265504D01*
X212700Y265486D01*
X234614D01*
X234204Y265076D01*
X233915Y264378D01*
Y264191D01*
X182727Y213003D01*
X182406Y212523D01*
X182294Y211957D01*
Y211881D01*
X181989Y211576D01*
X181700Y210878D01*
Y210122D01*
X181989Y209424D01*
X182524Y208889D01*
X183222Y208600D01*
X183978D01*
X184676Y208889D01*
X185211Y209424D01*
X185500Y210122D01*
Y210878D01*
X185290Y211384D01*
X236006Y262100D01*
X236193D01*
X236891Y262389D01*
X237426Y262924D01*
X237715Y263622D01*
Y264378D01*
X237426Y265076D01*
X237016Y265486D01*
X243104D01*
X247595Y260995D01*
X247827Y260841D01*
X248100Y260786D01*
X269448D01*
X269024Y260611D01*
X268636Y260224D01*
X241779D01*
X241311Y260130D01*
X240914Y259865D01*
X193399Y212350D01*
X193278Y212400D01*
X192522D01*
X191824Y212111D01*
X191289Y211576D01*
X191000Y210878D01*
Y210122D01*
X191289Y209424D01*
X191824Y208889D01*
X192522Y208600D01*
X193278D01*
X193976Y208889D01*
X194511Y209424D01*
X194800Y210122D01*
Y210291D01*
X242286Y257776D01*
X268636D01*
X269024Y257389D01*
X269722Y257100D01*
X270478D01*
X271176Y257389D01*
X271711Y257924D01*
X272000Y258622D01*
Y259378D01*
X271711Y260076D01*
X271176Y260611D01*
X270752Y260786D01*
X288800D01*
X289073Y260841D01*
X289305Y260995D01*
X289459Y261227D01*
X289514Y261500D01*
Y317800D01*
X317000D01*
Y1600D01*
X317200Y1400D01*
X317000Y1200D01*
X219114D01*
Y26300D01*
X219059Y26573D01*
X218905Y26805D01*
X207114Y38596D01*
Y84152D01*
X213906Y90944D01*
X214061Y91176D01*
X214115Y91449D01*
X214061Y91722D01*
X213906Y91953D01*
X211930Y93930D01*
X211698Y94085D01*
X211425Y94139D01*
X211152Y94085D01*
X210921Y93930D01*
X202595Y85605D01*
X202441Y85373D01*
X202386Y85100D01*
Y15814D01*
X174713D01*
X174440Y15759D01*
X174208Y15605D01*
X174053Y15373D01*
X173999Y15100D01*
Y14864D01*
X173818Y14428D01*
X173485Y14094D01*
X173049Y13914D01*
X172577D01*
X172141Y14094D01*
X171807Y14428D01*
X171626Y14864D01*
Y15100D01*
X171572Y15373D01*
X171417Y15605D01*
X171186Y15759D01*
X170913Y15814D01*
X163596D01*
X148567Y30842D01*
X148336Y30997D01*
X148063Y31051D01*
X147789Y30997D01*
X147558Y30842D01*
X147403Y30611D01*
Y30611D01*
X147193Y30104D01*
X146859Y29770D01*
X146423Y29589D01*
X145951D01*
X145515Y29770D01*
X145182Y30104D01*
X145001Y30540D01*
Y31012D01*
X145182Y31448D01*
X145515Y31781D01*
X146022Y31991D01*
X146161Y32084D01*
X146254Y32146D01*
X146312Y32233D01*
X146409Y32378D01*
X146463Y32651D01*
X146409Y32924D01*
X146357Y33001D01*
X146254Y33155D01*
X132659Y46751D01*
X132427Y46905D01*
X132154Y46959D01*
X121906D01*
X121633Y46905D01*
X121401Y46751D01*
X121246Y46519D01*
X121192Y46246D01*
Y40201D01*
X117995Y37005D01*
X117841Y36773D01*
X117786Y36500D01*
Y1200D01*
X2600D01*
X2809Y67482D01*
X8895Y61395D01*
X9127Y61241D01*
X9400Y61186D01*
X50286D01*
Y39400D01*
X50341Y39127D01*
X50495Y38895D01*
X55786Y33604D01*
Y32100D01*
X55841Y31827D01*
X55995Y31595D01*
X56227Y31441D01*
X56500Y31386D01*
X63704D01*
X77795Y17295D01*
X78027Y17141D01*
X78300Y17086D01*
X78573Y17141D01*
X78805Y17295D01*
X78896Y17386D01*
X88000D01*
X88273Y17441D01*
X88505Y17595D01*
X88659Y17827D01*
X88714Y18100D01*
Y31385D01*
X88659Y31658D01*
X88505Y31890D01*
X81790Y38605D01*
X81558Y38759D01*
X81285Y38814D01*
X61796D01*
X60114Y40496D01*
Y66000D01*
X60059Y66273D01*
X59905Y66505D01*
X59673Y66659D01*
X59400Y66714D01*
X12696D01*
X9214Y70196D01*
Y113838D01*
X9159Y114111D01*
X9027Y114309D01*
X8839Y114764D01*
Y115236D01*
X9027Y115691D01*
X9159Y115889D01*
X9214Y116162D01*
Y196052D01*
X11976D01*
Y176364D01*
X11589Y175976D01*
X11300Y175278D01*
Y174522D01*
X11589Y173824D01*
X11976Y173436D01*
Y147872D01*
X12070Y147403D01*
X12335Y147006D01*
X13837Y145504D01*
Y144957D01*
X14126Y144258D01*
X14661Y143724D01*
X15359Y143435D01*
X16115D01*
X16813Y143724D01*
X17200Y144111D01*
X22409D01*
X22877Y144204D01*
X23274Y144469D01*
X24111Y145306D01*
Y116505D01*
X24204Y116037D01*
X24469Y115640D01*
X24611Y115499D01*
X24561Y115378D01*
Y114622D01*
X24850Y113924D01*
X25384Y113389D01*
X26083Y113100D01*
X26838D01*
X27537Y113389D01*
X27924Y113777D01*
X227693D01*
X232111Y109359D01*
Y17326D01*
X231724Y16939D01*
X231435Y16240D01*
Y15484D01*
X231724Y14786D01*
X232258Y14252D01*
X232957Y13962D01*
X233713D01*
X234411Y14252D01*
X234945Y14786D01*
X235235Y15484D01*
Y16032D01*
X236893Y17690D01*
X246536D01*
X246924Y17303D01*
X247622Y17014D01*
X248378D01*
X249076Y17303D01*
X249464Y17690D01*
X253114D01*
X253582Y17783D01*
X253979Y18048D01*
X260430Y24500D01*
X260978D01*
X261676Y24789D01*
X262211Y25324D01*
X262500Y26022D01*
Y26778D01*
X262211Y27476D01*
X261676Y28011D01*
X260978Y28300D01*
X260222D01*
X259524Y28011D01*
X258989Y27476D01*
X258700Y26778D01*
Y26230D01*
X252607Y20137D01*
X249464D01*
X249076Y20524D01*
X248378Y20814D01*
X247622D01*
X246924Y20524D01*
X246536Y20137D01*
X236386D01*
X235918Y20044D01*
X235521Y19779D01*
X234558Y18816D01*
Y109865D01*
X234465Y110334D01*
X234200Y110731D01*
X229065Y115865D01*
X228668Y116130D01*
X228200Y116224D01*
X27924D01*
X27537Y116611D01*
X26838Y116900D01*
X26670D01*
X26558Y117012D01*
Y146796D01*
X26945Y147184D01*
X27235Y147882D01*
Y148638D01*
X26945Y149336D01*
X26411Y149871D01*
X25712Y150160D01*
X24957D01*
X24258Y149871D01*
X23724Y149336D01*
X23435Y148638D01*
Y148090D01*
X21903Y146558D01*
X17200D01*
X16813Y146945D01*
X16115Y147235D01*
X15567D01*
X14424Y148378D01*
Y173436D01*
X14811Y173824D01*
X15100Y174522D01*
Y175278D01*
X14811Y175976D01*
X14424Y176364D01*
Y196052D01*
X17105D01*
Y202218D01*
X31577Y216690D01*
X43627D01*
X44095Y216783D01*
X44492Y217048D01*
X52626Y225181D01*
X53173D01*
X53872Y225470D01*
X54259Y225858D01*
X75523D01*
X88334Y213047D01*
Y212707D01*
X85866Y210239D01*
X81545D01*
X81157Y210627D01*
X80459Y210916D01*
X79703D01*
X79005Y210627D01*
X78470Y210092D01*
X78181Y209394D01*
Y208638D01*
X78470Y207940D01*
X79005Y207405D01*
X79703Y207116D01*
X80459D01*
X81157Y207405D01*
X81545Y207792D01*
X86373D01*
X86841Y207885D01*
X87238Y208151D01*
X90064Y210977D01*
X90612D01*
X91310Y211266D01*
X91845Y211801D01*
X92134Y212499D01*
Y213255D01*
X91845Y213953D01*
X91310Y214488D01*
X90612Y214777D01*
X90064D01*
X76895Y227946D01*
X76498Y228212D01*
X76030Y228305D01*
X54259D01*
X53872Y228692D01*
X53173Y228981D01*
X52417D01*
X51719Y228692D01*
X51184Y228157D01*
X50895Y227459D01*
Y226911D01*
X43120Y219137D01*
X31071D01*
X30602Y219043D01*
X30205Y218778D01*
X15375Y203948D01*
X9214D01*
Y246486D01*
X52600D01*
X52873Y246541D01*
X53105Y246695D01*
X53259Y246927D01*
X53314Y247200D01*
Y265100D01*
X53259Y265373D01*
X53105Y265605D01*
X51105Y267605D01*
X50873Y267759D01*
X50600Y267814D01*
X3500D01*
X3441Y267802D01*
X3600Y318400D01*
X4200Y317800D01*
D02*
G37*
G36*
X52600Y265100D02*
Y247200D01*
X8700D01*
X8500Y247000D01*
Y116162D01*
X8415Y116076D01*
X8125Y115378D01*
Y114622D01*
X8415Y113924D01*
X8500Y113838D01*
Y69900D01*
X12400Y66000D01*
X59400D01*
Y40200D01*
X61500Y38100D01*
X81285D01*
X88000Y31385D01*
Y18100D01*
X78600D01*
X78300Y17800D01*
X64000Y32100D01*
X56500D01*
Y33900D01*
X51000Y39400D01*
Y61900D01*
X9400D01*
X3100Y68200D01*
X3500Y68600D01*
Y267100D01*
X50600D01*
X52600Y265100D01*
D02*
G37*
G36*
X213402Y91449D02*
X206400Y84447D01*
Y38300D01*
X218400Y26300D01*
Y900D01*
X118500D01*
Y36500D01*
X121906Y39906D01*
Y46246D01*
X132154D01*
X145749Y32651D01*
X145111Y32386D01*
X144577Y31852D01*
X144287Y31154D01*
Y30398D01*
X144577Y29699D01*
X145111Y29165D01*
X145809Y28876D01*
X146565D01*
X147264Y29165D01*
X147798Y29699D01*
X148063Y30338D01*
X163300Y15100D01*
X170913D01*
Y14722D01*
X171202Y14024D01*
X171736Y13489D01*
X172435Y13200D01*
X173190D01*
X173889Y13489D01*
X174423Y14024D01*
X174713Y14722D01*
Y15100D01*
X203100D01*
Y85100D01*
X211425Y93425D01*
X213402Y91449D01*
D02*
G37*
%LPC*%
G36*
X246878Y301600D02*
X246122D01*
X245424Y301311D01*
X244889Y300776D01*
X244600Y300078D01*
Y299322D01*
X244889Y298624D01*
X245424Y298089D01*
X246122Y297800D01*
X246878D01*
X247576Y298089D01*
X248111Y298624D01*
X248400Y299322D01*
Y300078D01*
X248111Y300776D01*
X247576Y301311D01*
X246878Y301600D01*
D02*
G37*
G36*
X285278Y301443D02*
X284522D01*
X283824Y301154D01*
X283289Y300620D01*
X283000Y299921D01*
Y299166D01*
X283289Y298467D01*
X283824Y297933D01*
X284522Y297643D01*
X285278D01*
X285976Y297933D01*
X286511Y298467D01*
X286800Y299166D01*
Y299921D01*
X286511Y300620D01*
X285976Y301154D01*
X285278Y301443D01*
D02*
G37*
G36*
X167678Y301400D02*
X166922D01*
X166224Y301111D01*
X165689Y300576D01*
X165400Y299878D01*
Y299122D01*
X165689Y298424D01*
X166224Y297889D01*
X166922Y297600D01*
X167678D01*
X168376Y297889D01*
X168911Y298424D01*
X169200Y299122D01*
Y299878D01*
X168911Y300576D01*
X168376Y301111D01*
X167678Y301400D01*
D02*
G37*
G36*
X206978Y301300D02*
X206222D01*
X205524Y301011D01*
X204989Y300476D01*
X204700Y299778D01*
Y299022D01*
X204989Y298324D01*
X205524Y297789D01*
X206222Y297500D01*
X206978D01*
X207676Y297789D01*
X208211Y298324D01*
X208500Y299022D01*
Y299778D01*
X208211Y300476D01*
X207676Y301011D01*
X206978Y301300D01*
D02*
G37*
G36*
X153878Y294500D02*
X153122D01*
X152424Y294211D01*
X151889Y293676D01*
X151600Y292978D01*
Y292222D01*
X151889Y291524D01*
X152424Y290989D01*
X153122Y290700D01*
X153878D01*
X154576Y290989D01*
X155111Y291524D01*
X155400Y292222D01*
Y292978D01*
X155111Y293676D01*
X154576Y294211D01*
X153878Y294500D01*
D02*
G37*
G36*
X233778Y294357D02*
X233022D01*
X232324Y294067D01*
X231789Y293533D01*
X231500Y292834D01*
Y292079D01*
X231789Y291380D01*
X232324Y290846D01*
X233022Y290557D01*
X233778D01*
X234476Y290846D01*
X235011Y291380D01*
X235300Y292079D01*
Y292834D01*
X235011Y293533D01*
X234476Y294067D01*
X233778Y294357D01*
D02*
G37*
G36*
X273478Y294276D02*
X272722D01*
X272024Y293987D01*
X271489Y293453D01*
X271200Y292755D01*
Y291999D01*
X271489Y291300D01*
X272024Y290766D01*
X272722Y290476D01*
X273478D01*
X274176Y290766D01*
X274711Y291300D01*
X275000Y291999D01*
Y292755D01*
X274711Y293453D01*
X274176Y293987D01*
X273478Y294276D01*
D02*
G37*
G36*
X193378Y294200D02*
X192622D01*
X191924Y293911D01*
X191389Y293376D01*
X191100Y292678D01*
Y291922D01*
X191389Y291224D01*
X191924Y290689D01*
X192622Y290400D01*
X193378D01*
X194076Y290689D01*
X194611Y291224D01*
X194900Y291922D01*
Y292678D01*
X194611Y293376D01*
X194076Y293911D01*
X193378Y294200D01*
D02*
G37*
%LPD*%
G36*
X247172Y300706D02*
X247506Y300372D01*
X247686Y299936D01*
Y299464D01*
X247506Y299028D01*
X247172Y298694D01*
X246736Y298514D01*
X246264D01*
X245828Y298694D01*
X245494Y299028D01*
X245314Y299464D01*
Y299936D01*
X245494Y300372D01*
X245828Y300706D01*
X246264Y300886D01*
X246736D01*
X247172Y300706D01*
D02*
G37*
G36*
X285572Y300549D02*
X285906Y300215D01*
X286086Y299779D01*
Y299307D01*
X285906Y298871D01*
X285572Y298538D01*
X285136Y298357D01*
X284664D01*
X284228Y298538D01*
X283894Y298871D01*
X283714Y299307D01*
Y299779D01*
X283894Y300215D01*
X284228Y300549D01*
X284664Y300730D01*
X285136D01*
X285572Y300549D01*
D02*
G37*
G36*
X167972Y300506D02*
X168306Y300172D01*
X168486Y299736D01*
Y299264D01*
X168306Y298828D01*
X167972Y298494D01*
X167536Y298314D01*
X167064D01*
X166628Y298494D01*
X166294Y298828D01*
X166114Y299264D01*
Y299736D01*
X166294Y300172D01*
X166628Y300506D01*
X167064Y300686D01*
X167536D01*
X167972Y300506D01*
D02*
G37*
G36*
X207272Y300406D02*
X207606Y300072D01*
X207786Y299636D01*
Y299164D01*
X207606Y298728D01*
X207272Y298394D01*
X206836Y298214D01*
X206364D01*
X205928Y298394D01*
X205594Y298728D01*
X205414Y299164D01*
Y299636D01*
X205594Y300072D01*
X205928Y300406D01*
X206364Y300586D01*
X206836D01*
X207272Y300406D01*
D02*
G37*
G36*
X154172Y293606D02*
X154506Y293272D01*
X154686Y292836D01*
Y292364D01*
X154506Y291928D01*
X154172Y291594D01*
X153736Y291414D01*
X153264D01*
X152828Y291594D01*
X152494Y291928D01*
X152314Y292364D01*
Y292836D01*
X152494Y293272D01*
X152828Y293606D01*
X153264Y293786D01*
X153736D01*
X154172Y293606D01*
D02*
G37*
G36*
X234072Y293462D02*
X234406Y293129D01*
X234586Y292693D01*
Y292221D01*
X234406Y291785D01*
X234072Y291451D01*
X233636Y291270D01*
X233164D01*
X232728Y291451D01*
X232394Y291785D01*
X232214Y292221D01*
Y292693D01*
X232394Y293129D01*
X232728Y293462D01*
X233164Y293643D01*
X233636D01*
X234072Y293462D01*
D02*
G37*
G36*
X273772Y293382D02*
X274106Y293049D01*
X274286Y292613D01*
Y292141D01*
X274106Y291705D01*
X273772Y291371D01*
X273336Y291190D01*
X272864D01*
X272428Y291371D01*
X272094Y291705D01*
X271914Y292141D01*
Y292613D01*
X272094Y293049D01*
X272428Y293382D01*
X272864Y293563D01*
X273336D01*
X273772Y293382D01*
D02*
G37*
G36*
X193672Y293306D02*
X194006Y292972D01*
X194186Y292536D01*
Y292064D01*
X194006Y291628D01*
X193672Y291294D01*
X193236Y291114D01*
X192764D01*
X192328Y291294D01*
X191994Y291628D01*
X191814Y292064D01*
Y292536D01*
X191994Y292972D01*
X192328Y293306D01*
X192764Y293486D01*
X193236D01*
X193672Y293306D01*
D02*
G37*
%LPC*%
G36*
X86678Y266160D02*
X85922D01*
X85224Y265870D01*
X84689Y265336D01*
X84400Y264638D01*
Y263882D01*
X84689Y263183D01*
X85224Y262649D01*
X85922Y262360D01*
X86678D01*
X87376Y262649D01*
X87911Y263183D01*
X88200Y263882D01*
Y264638D01*
X87911Y265336D01*
X87376Y265870D01*
X86678Y266160D01*
D02*
G37*
G36*
X309478Y259900D02*
X308722D01*
X308024Y259611D01*
X307489Y259076D01*
X307200Y258378D01*
Y257622D01*
X307489Y256924D01*
X308024Y256389D01*
X308722Y256100D01*
X309478D01*
X310176Y256389D01*
X310711Y256924D01*
X311000Y257622D01*
Y258378D01*
X310711Y259076D01*
X310176Y259611D01*
X309478Y259900D01*
D02*
G37*
G36*
X191478D02*
X190722D01*
X190024Y259611D01*
X189489Y259076D01*
X189200Y258378D01*
Y257830D01*
X172093Y240723D01*
X151064D01*
X150776Y241011D01*
X150078Y241300D01*
X149322D01*
X148624Y241011D01*
X148089Y240476D01*
X147800Y239778D01*
Y239022D01*
X148089Y238324D01*
X148477Y237936D01*
Y209200D01*
X148570Y208732D01*
X148835Y208335D01*
X160877Y196293D01*
Y122764D01*
X160489Y122376D01*
X160200Y121678D01*
Y120922D01*
X160489Y120224D01*
X161024Y119689D01*
X161722Y119400D01*
X162478D01*
X163176Y119689D01*
X163711Y120224D01*
X164000Y120922D01*
Y121678D01*
X163711Y122376D01*
X163323Y122764D01*
Y196800D01*
X163230Y197268D01*
X162965Y197665D01*
X150924Y209707D01*
Y237936D01*
X151263Y238277D01*
X172600D01*
X173068Y238370D01*
X173465Y238635D01*
X190930Y256100D01*
X191478D01*
X192176Y256389D01*
X192711Y256924D01*
X193000Y257622D01*
Y258378D01*
X192711Y259076D01*
X192176Y259611D01*
X191478Y259900D01*
D02*
G37*
G36*
X304060Y244300D02*
X302740D01*
X301446Y244042D01*
X300226Y243537D01*
X299129Y242804D01*
X298196Y241871D01*
X297463Y240774D01*
X296957Y239554D01*
X296700Y238260D01*
Y236940D01*
X296957Y235646D01*
X297463Y234426D01*
X298196Y233329D01*
X299129Y232396D01*
X300226Y231663D01*
X301446Y231157D01*
X302740Y230900D01*
X304060D01*
X305354Y231157D01*
X306574Y231663D01*
X307671Y232396D01*
X308604Y233329D01*
X309337Y234426D01*
X309842Y235646D01*
X310100Y236940D01*
Y238260D01*
X309842Y239554D01*
X309337Y240774D01*
X308604Y241871D01*
X307671Y242804D01*
X306574Y243537D01*
X305354Y244042D01*
X304060Y244300D01*
D02*
G37*
G36*
X26460Y243000D02*
X25140D01*
X23846Y242742D01*
X22626Y242237D01*
X21529Y241504D01*
X20596Y240571D01*
X19862Y239474D01*
X19357Y238254D01*
X19100Y236960D01*
Y235640D01*
X19357Y234346D01*
X19862Y233126D01*
X20596Y232029D01*
X21529Y231096D01*
X22626Y230363D01*
X23846Y229857D01*
X25140Y229600D01*
X26460D01*
X27754Y229857D01*
X28974Y230363D01*
X30071Y231096D01*
X31004Y232029D01*
X31738Y233126D01*
X32243Y234346D01*
X32500Y235640D01*
Y236960D01*
X32243Y238254D01*
X31738Y239474D01*
X31004Y240571D01*
X30071Y241504D01*
X28974Y242237D01*
X27754Y242742D01*
X26460Y243000D01*
D02*
G37*
G36*
X72478Y261900D02*
X71722D01*
X71024Y261611D01*
X70489Y261076D01*
X70200Y260378D01*
Y259622D01*
X70489Y258924D01*
X70876Y258537D01*
Y253700D01*
X70970Y253232D01*
X71235Y252835D01*
X103876Y220193D01*
Y202464D01*
X103389Y201976D01*
X103100Y201278D01*
Y200522D01*
X103389Y199824D01*
X103924Y199289D01*
X104622Y199000D01*
X105378D01*
X106076Y199289D01*
X106611Y199824D01*
X106900Y200522D01*
Y201278D01*
X106611Y201976D01*
X106324Y202263D01*
Y220700D01*
X106230Y221168D01*
X105965Y221565D01*
X73324Y254207D01*
Y258537D01*
X73711Y258924D01*
X74000Y259622D01*
Y260378D01*
X73711Y261076D01*
X73176Y261611D01*
X72478Y261900D01*
D02*
G37*
G36*
X82043Y201900D02*
X81287D01*
X80589Y201611D01*
X80055Y201076D01*
X79765Y200378D01*
Y199622D01*
X80055Y198924D01*
X80589Y198389D01*
X81287Y198100D01*
X82043D01*
X82742Y198389D01*
X83276Y198924D01*
X83565Y199622D01*
Y200378D01*
X83276Y201076D01*
X82742Y201611D01*
X82043Y201900D01*
D02*
G37*
G36*
X23520Y203948D02*
X22480D01*
X21476Y203679D01*
X20576Y203159D01*
X19841Y202424D01*
X19321Y201524D01*
X19052Y200520D01*
Y199480D01*
X19321Y198476D01*
X19841Y197576D01*
X20576Y196841D01*
X21476Y196321D01*
X22480Y196052D01*
X23520D01*
X24524Y196321D01*
X25424Y196841D01*
X26159Y197576D01*
X26679Y198476D01*
X26948Y199480D01*
Y200520D01*
X26679Y201524D01*
X26159Y202424D01*
X25424Y203159D01*
X24524Y203679D01*
X23520Y203948D01*
D02*
G37*
G36*
X127278Y199600D02*
X126522D01*
X125824Y199311D01*
X125289Y198776D01*
X125000Y198078D01*
Y197322D01*
X125289Y196624D01*
X125824Y196089D01*
X126522Y195800D01*
X127278D01*
X127976Y196089D01*
X128511Y196624D01*
X128800Y197322D01*
Y198078D01*
X128511Y198776D01*
X127976Y199311D01*
X127278Y199600D01*
D02*
G37*
G36*
X91712Y197735D02*
X90957D01*
X90258Y197445D01*
X89724Y196911D01*
X89435Y196212D01*
Y195457D01*
X89724Y194758D01*
X90258Y194224D01*
X90957Y193935D01*
X91712D01*
X92411Y194224D01*
X92945Y194758D01*
X93235Y195457D01*
Y196212D01*
X92945Y196911D01*
X92411Y197445D01*
X91712Y197735D01*
D02*
G37*
G36*
X313187Y163933D02*
X312432D01*
X311733Y163644D01*
X311199Y163109D01*
X310909Y162411D01*
Y161655D01*
X311199Y160957D01*
X311733Y160422D01*
X312432Y160133D01*
X313187D01*
X313886Y160422D01*
X314420Y160957D01*
X314709Y161655D01*
Y162411D01*
X314420Y163109D01*
X313886Y163644D01*
X313187Y163933D01*
D02*
G37*
G36*
X37678Y158900D02*
X36922D01*
X36224Y158611D01*
X35689Y158076D01*
X35400Y157378D01*
Y156622D01*
X35689Y155924D01*
X36224Y155389D01*
X36922Y155100D01*
X37678D01*
X38376Y155389D01*
X38911Y155924D01*
X39200Y156622D01*
Y157378D01*
X38911Y158076D01*
X38376Y158611D01*
X37678Y158900D01*
D02*
G37*
G36*
X112360Y260900D02*
X111604D01*
X110906Y260611D01*
X110371Y260076D01*
X110082Y259378D01*
Y258622D01*
X110371Y257924D01*
X110758Y257537D01*
Y239918D01*
X110851Y239450D01*
X111117Y239053D01*
X154077Y196093D01*
Y147264D01*
X153689Y146876D01*
X153400Y146178D01*
Y145422D01*
X153689Y144724D01*
X154224Y144189D01*
X154922Y143900D01*
X155678D01*
X156376Y144189D01*
X156911Y144724D01*
X157200Y145422D01*
Y146178D01*
X156911Y146876D01*
X156524Y147264D01*
Y196600D01*
X156430Y197068D01*
X156324Y197227D01*
X156165Y197465D01*
X113205Y240425D01*
Y257537D01*
X113593Y257924D01*
X113882Y258622D01*
Y259378D01*
X113593Y260076D01*
X113058Y260611D01*
X112360Y260900D01*
D02*
G37*
G36*
X17378Y132180D02*
X16622D01*
X15924Y131890D01*
X15389Y131356D01*
X15100Y130657D01*
Y129902D01*
X15389Y129203D01*
X15924Y128669D01*
X16622Y128380D01*
X17378D01*
X18076Y128669D01*
X18611Y129203D01*
X18900Y129902D01*
Y130657D01*
X18611Y131356D01*
X18076Y131890D01*
X17378Y132180D01*
D02*
G37*
G36*
X11978Y129600D02*
X11222D01*
X10524Y129311D01*
X9989Y128776D01*
X9700Y128078D01*
Y127322D01*
X9989Y126624D01*
X10524Y126089D01*
X11222Y125800D01*
X11978D01*
X12676Y126089D01*
X13211Y126624D01*
X13500Y127322D01*
Y128078D01*
X13211Y128776D01*
X12676Y129311D01*
X11978Y129600D01*
D02*
G37*
G36*
X157254Y129455D02*
X156498D01*
X155800Y129166D01*
X155265Y128632D01*
X154976Y127933D01*
Y127177D01*
X155265Y126479D01*
X155800Y125945D01*
X156498Y125655D01*
X157254D01*
X157952Y125945D01*
X158487Y126479D01*
X158776Y127177D01*
Y127933D01*
X158487Y128632D01*
X157952Y129166D01*
X157254Y129455D01*
D02*
G37*
G36*
X167378Y233500D02*
X166622D01*
X165924Y233211D01*
X165389Y232676D01*
X165100Y231978D01*
Y231222D01*
X165389Y230524D01*
X165777Y230136D01*
Y134600D01*
X165870Y134132D01*
X166135Y133735D01*
X168135Y131735D01*
X168532Y131470D01*
X169000Y131377D01*
X183493D01*
X188100Y126770D01*
Y126222D01*
X188389Y125524D01*
X188924Y124989D01*
X189622Y124700D01*
X190378D01*
X191076Y124989D01*
X191611Y125524D01*
X191900Y126222D01*
Y126978D01*
X191611Y127676D01*
X191076Y128211D01*
X190378Y128500D01*
X189830D01*
X184865Y133465D01*
X184468Y133730D01*
X184000Y133824D01*
X169507D01*
X168224Y135107D01*
Y230136D01*
X168611Y230524D01*
X168900Y231222D01*
Y231978D01*
X168611Y232676D01*
X168076Y233211D01*
X167378Y233500D01*
D02*
G37*
G36*
X201214Y127336D02*
X200458D01*
X199759Y127047D01*
X199225Y126512D01*
X198936Y125814D01*
Y125058D01*
X199225Y124360D01*
X199759Y123825D01*
X200458Y123536D01*
X201214D01*
X201912Y123825D01*
X202447Y124360D01*
X202736Y125058D01*
Y125814D01*
X202447Y126512D01*
X201912Y127047D01*
X201214Y127336D01*
D02*
G37*
G36*
X16278Y125300D02*
X15522D01*
X14824Y125011D01*
X14289Y124476D01*
X14000Y123778D01*
Y123022D01*
X14289Y122324D01*
X14824Y121789D01*
X15522Y121500D01*
X16278D01*
X16976Y121789D01*
X17511Y122324D01*
X17800Y123022D01*
Y123778D01*
X17511Y124476D01*
X16976Y125011D01*
X16278Y125300D01*
D02*
G37*
G36*
X178328Y123450D02*
X177572D01*
X176874Y123161D01*
X176339Y122626D01*
X176050Y121928D01*
Y121172D01*
X176339Y120474D01*
X176874Y119939D01*
X177572Y119650D01*
X178328D01*
X179026Y119939D01*
X179561Y120474D01*
X179850Y121172D01*
Y121928D01*
X179561Y122626D01*
X179026Y123161D01*
X178328Y123450D01*
D02*
G37*
G36*
X154728Y121750D02*
X153972D01*
X153274Y121461D01*
X152739Y120926D01*
X152450Y120228D01*
Y119472D01*
X152739Y118774D01*
X153274Y118239D01*
X153972Y117950D01*
X154728D01*
X155426Y118239D01*
X155961Y118774D01*
X156250Y119472D01*
Y120228D01*
X155961Y120926D01*
X155426Y121461D01*
X154728Y121750D01*
D02*
G37*
G36*
X149578Y113200D02*
X148822D01*
X148124Y112911D01*
X147589Y112376D01*
X147300Y111678D01*
Y110922D01*
X147589Y110224D01*
X148124Y109689D01*
X148822Y109400D01*
X149578D01*
X150276Y109689D01*
X150811Y110224D01*
X151100Y110922D01*
Y111678D01*
X150811Y112376D01*
X150276Y112911D01*
X149578Y113200D01*
D02*
G37*
G36*
X77917Y110900D02*
X77162D01*
X76463Y110611D01*
X75929Y110076D01*
X75639Y109378D01*
Y108622D01*
X75929Y107924D01*
X76463Y107389D01*
X77162Y107100D01*
X77917D01*
X78616Y107389D01*
X79150Y107924D01*
X79439Y108622D01*
Y109378D01*
X79150Y110076D01*
X78616Y110611D01*
X77917Y110900D01*
D02*
G37*
G36*
X70720Y109400D02*
X69965D01*
X69266Y109111D01*
X68732Y108576D01*
X68443Y107878D01*
Y107122D01*
X68732Y106424D01*
X69266Y105889D01*
X69965Y105600D01*
X70720D01*
X71419Y105889D01*
X71953Y106424D01*
X72243Y107122D01*
Y107878D01*
X71953Y108576D01*
X71419Y109111D01*
X70720Y109400D01*
D02*
G37*
G36*
X34585D02*
X33830D01*
X33131Y109111D01*
X32597Y108576D01*
X32307Y107878D01*
Y107122D01*
X32597Y106424D01*
X33131Y105889D01*
X33830Y105600D01*
X34585D01*
X35284Y105889D01*
X35818Y106424D01*
X36107Y107122D01*
Y107878D01*
X35818Y108576D01*
X35284Y109111D01*
X34585Y109400D01*
D02*
G37*
G36*
X295444Y109669D02*
X294478D01*
X293545Y109418D01*
X292708Y108935D01*
X292025Y108253D01*
X291542Y107416D01*
X291292Y106483D01*
Y105517D01*
X291542Y104584D01*
X292025Y103747D01*
X292708Y103065D01*
X293545Y102582D01*
X294478Y102331D01*
X295444D01*
X296377Y102582D01*
X297213Y103065D01*
X297896Y103747D01*
X298379Y104584D01*
X298629Y105517D01*
Y106483D01*
X298379Y107416D01*
X297896Y108253D01*
X297213Y108935D01*
X296377Y109418D01*
X295444Y109669D01*
D02*
G37*
G36*
X265522D02*
X264556D01*
X263623Y109418D01*
X262787Y108935D01*
X262104Y108253D01*
X261621Y107416D01*
X261371Y106483D01*
Y105517D01*
X261621Y104584D01*
X262104Y103747D01*
X262787Y103065D01*
X263623Y102582D01*
X264556Y102331D01*
X265522D01*
X266455Y102582D01*
X267292Y103065D01*
X267975Y103747D01*
X268458Y104584D01*
X268708Y105517D01*
Y106483D01*
X268458Y107416D01*
X267975Y108253D01*
X267292Y108935D01*
X266455Y109418D01*
X265522Y109669D01*
D02*
G37*
G36*
X213414Y103923D02*
X159000D01*
X158532Y103830D01*
X158135Y103565D01*
X138835Y84265D01*
X138570Y83868D01*
X138477Y83400D01*
Y52600D01*
X138570Y52132D01*
X138835Y51735D01*
X140100Y50470D01*
Y49922D01*
X140389Y49224D01*
X140924Y48689D01*
X141622Y48400D01*
X142378D01*
X143076Y48689D01*
X143611Y49224D01*
X143900Y49922D01*
Y50678D01*
X143611Y51376D01*
X143076Y51911D01*
X142378Y52200D01*
X141830D01*
X140924Y53107D01*
Y82893D01*
X159507Y101477D01*
X212907D01*
X215250Y99134D01*
Y98587D01*
X215539Y97888D01*
X216073Y97354D01*
X216772Y97065D01*
X217528D01*
X218226Y97354D01*
X218760Y97888D01*
X219050Y98587D01*
Y99343D01*
X218760Y100041D01*
X218226Y100575D01*
X217528Y100865D01*
X216980D01*
X214279Y103565D01*
X213882Y103830D01*
X213414Y103923D01*
D02*
G37*
G36*
X29193Y99900D02*
X28437D01*
X27739Y99611D01*
X27204Y99076D01*
X26915Y98378D01*
Y97622D01*
X27204Y96924D01*
X27739Y96389D01*
X28437Y96100D01*
X29193D01*
X29891Y96389D01*
X30426Y96924D01*
X30715Y97622D01*
Y98378D01*
X30426Y99076D01*
X29891Y99611D01*
X29193Y99900D01*
D02*
G37*
G36*
X295478Y97200D02*
X294722D01*
X294024Y96911D01*
X293489Y96376D01*
X293200Y95678D01*
Y94922D01*
X293489Y94224D01*
X294024Y93689D01*
X294722Y93400D01*
X295478D01*
X296176Y93689D01*
X296711Y94224D01*
X297000Y94922D01*
Y95678D01*
X296711Y96376D01*
X296176Y96911D01*
X295478Y97200D01*
D02*
G37*
G36*
X265348Y96370D02*
X264592D01*
X263893Y96080D01*
X263359Y95546D01*
X263070Y94848D01*
Y94092D01*
X263359Y93393D01*
X263893Y92859D01*
X264592Y92570D01*
X265348D01*
X266046Y92859D01*
X266580Y93393D01*
X266870Y94092D01*
Y94848D01*
X266580Y95546D01*
X266046Y96080D01*
X265348Y96370D01*
D02*
G37*
G36*
X38035Y94400D02*
X37279D01*
X36581Y94111D01*
X36047Y93576D01*
X35757Y92878D01*
Y92122D01*
X36047Y91424D01*
X36581Y90889D01*
X37279Y90600D01*
X38035D01*
X38734Y90889D01*
X39268Y91424D01*
X39557Y92122D01*
Y92878D01*
X39268Y93576D01*
X38734Y94111D01*
X38035Y94400D01*
D02*
G37*
G36*
X196378Y97700D02*
X195622D01*
X194924Y97411D01*
X194389Y96876D01*
X194100Y96178D01*
Y95422D01*
X194389Y94724D01*
X194924Y94189D01*
X195622Y93900D01*
X196170D01*
X199776Y90293D01*
Y81748D01*
X199765Y81765D01*
X195400Y86130D01*
Y86678D01*
X195111Y87376D01*
X194576Y87911D01*
X193878Y88200D01*
X193122D01*
X192424Y87911D01*
X191889Y87376D01*
X191600Y86678D01*
Y85922D01*
X191889Y85224D01*
X192424Y84689D01*
X193122Y84400D01*
X193670D01*
X197677Y80393D01*
Y30807D01*
X191044Y24174D01*
X190035D01*
X189648Y24561D01*
X188950Y24850D01*
X188194D01*
X187495Y24561D01*
X186961Y24027D01*
X186672Y23328D01*
Y22572D01*
X186961Y21874D01*
X187495Y21340D01*
X188194Y21050D01*
X188950D01*
X189648Y21340D01*
X190035Y21727D01*
X191550D01*
X192019Y21820D01*
X192416Y22085D01*
X199765Y29435D01*
X199776Y29452D01*
Y27420D01*
X194107Y21750D01*
X193559D01*
X192861Y21461D01*
X192326Y20927D01*
X192037Y20228D01*
Y19473D01*
X192326Y18774D01*
X192861Y18240D01*
X193559Y17950D01*
X194315D01*
X195013Y18240D01*
X195548Y18774D01*
X195837Y19473D01*
Y20020D01*
X201865Y26048D01*
X202130Y26445D01*
X202223Y26913D01*
Y90800D01*
X202130Y91268D01*
X201865Y91665D01*
X197900Y95630D01*
Y96178D01*
X197611Y96876D01*
X197076Y97411D01*
X196378Y97700D01*
D02*
G37*
G36*
X29193Y81900D02*
X28437D01*
X27739Y81611D01*
X27204Y81076D01*
X26915Y80378D01*
Y79622D01*
X27204Y78924D01*
X27739Y78389D01*
X28437Y78100D01*
X29193D01*
X29891Y78389D01*
X30426Y78924D01*
X30715Y79622D01*
Y80378D01*
X30426Y81076D01*
X29891Y81611D01*
X29193Y81900D01*
D02*
G37*
G36*
X27626Y74900D02*
X26870D01*
X26172Y74611D01*
X25637Y74076D01*
X25348Y73378D01*
Y72622D01*
X25637Y71924D01*
X26172Y71389D01*
X26870Y71100D01*
X27626D01*
X28324Y71389D01*
X28859Y71924D01*
X29148Y72622D01*
Y73378D01*
X28859Y74076D01*
X28324Y74611D01*
X27626Y74900D01*
D02*
G37*
G36*
X73960Y75900D02*
X72640D01*
X71346Y75643D01*
X70126Y75138D01*
X69029Y74404D01*
X68096Y73471D01*
X67362Y72374D01*
X66857Y71154D01*
X66600Y69860D01*
Y68540D01*
X66857Y67246D01*
X67362Y66026D01*
X68096Y64929D01*
X69029Y63996D01*
X70126Y63262D01*
X71346Y62757D01*
X72640Y62500D01*
X73960D01*
X75254Y62757D01*
X76474Y63262D01*
X77571Y63996D01*
X78504Y64929D01*
X79238Y66026D01*
X79742Y67246D01*
X80000Y68540D01*
Y69860D01*
X79742Y71154D01*
X79238Y72374D01*
X78504Y73471D01*
X77571Y74404D01*
X76474Y75138D01*
X75254Y75643D01*
X73960Y75900D01*
D02*
G37*
G36*
X154378Y60200D02*
X153622D01*
X152924Y59911D01*
X152389Y59376D01*
X152100Y58678D01*
Y57922D01*
X152389Y57224D01*
X152924Y56689D01*
X153622Y56400D01*
X154378D01*
X155076Y56689D01*
X155611Y57224D01*
X155900Y57922D01*
Y58678D01*
X155611Y59376D01*
X155076Y59911D01*
X154378Y60200D01*
D02*
G37*
G36*
X145278Y58500D02*
X144522D01*
X143824Y58211D01*
X143289Y57676D01*
X143000Y56978D01*
Y56222D01*
X143289Y55524D01*
X143824Y54989D01*
X144522Y54700D01*
X145278D01*
X145976Y54989D01*
X146511Y55524D01*
X146800Y56222D01*
Y56978D01*
X146511Y57676D01*
X145976Y58211D01*
X145278Y58500D01*
D02*
G37*
G36*
X162378Y58000D02*
X161622D01*
X160924Y57711D01*
X160389Y57176D01*
X160100Y56478D01*
Y55722D01*
X160389Y55024D01*
X160924Y54489D01*
X161622Y54200D01*
X162378D01*
X163076Y54489D01*
X163611Y55024D01*
X163900Y55722D01*
Y56478D01*
X163611Y57176D01*
X163076Y57711D01*
X162378Y58000D01*
D02*
G37*
G36*
X268978Y54800D02*
X268222D01*
X267524Y54511D01*
X266989Y53976D01*
X266700Y53278D01*
Y52522D01*
X266989Y51824D01*
X267524Y51289D01*
X268222Y51000D01*
X268978D01*
X269676Y51289D01*
X270211Y51824D01*
X270500Y52522D01*
Y53278D01*
X270211Y53976D01*
X269676Y54511D01*
X268978Y54800D01*
D02*
G37*
G36*
X186178Y53600D02*
X185422D01*
X184724Y53311D01*
X184189Y52776D01*
X183900Y52078D01*
Y51322D01*
X184189Y50624D01*
X184724Y50089D01*
X185422Y49800D01*
X186178D01*
X186876Y50089D01*
X187411Y50624D01*
X187700Y51322D01*
Y52078D01*
X187411Y52776D01*
X186876Y53311D01*
X186178Y53600D01*
D02*
G37*
G36*
X178478Y53400D02*
X177722D01*
X177024Y53111D01*
X176489Y52576D01*
X176200Y51878D01*
Y51122D01*
X176489Y50424D01*
X177024Y49889D01*
X177722Y49600D01*
X178478D01*
X179176Y49889D01*
X179711Y50424D01*
X180000Y51122D01*
Y51878D01*
X179711Y52576D01*
X179176Y53111D01*
X178478Y53400D01*
D02*
G37*
G36*
X151278Y52600D02*
X150522D01*
X149824Y52311D01*
X149289Y51776D01*
X149000Y51078D01*
Y50322D01*
X149289Y49624D01*
X149824Y49089D01*
X150522Y48800D01*
X151278D01*
X151976Y49089D01*
X152511Y49624D01*
X152800Y50322D01*
Y51078D01*
X152511Y51776D01*
X151976Y52311D01*
X151278Y52600D01*
D02*
G37*
G36*
X157278Y51700D02*
X156522D01*
X155824Y51411D01*
X155289Y50876D01*
X155000Y50178D01*
Y49422D01*
X155289Y48724D01*
X155824Y48189D01*
X156522Y47900D01*
X157278D01*
X157976Y48189D01*
X158511Y48724D01*
X158800Y49422D01*
Y50178D01*
X158511Y50876D01*
X157976Y51411D01*
X157278Y51700D01*
D02*
G37*
G36*
X145278Y73500D02*
X144522D01*
X143824Y73211D01*
X143289Y72676D01*
X143000Y71978D01*
Y71222D01*
X143289Y70524D01*
X143824Y69989D01*
X144522Y69700D01*
X145278D01*
X145976Y69989D01*
X146363Y70376D01*
X171976D01*
Y52607D01*
X169070Y49700D01*
X168322D01*
X167624Y49411D01*
X167089Y48876D01*
X166800Y48178D01*
Y47422D01*
X167089Y46724D01*
X167624Y46189D01*
X168322Y45900D01*
X169078D01*
X169776Y46189D01*
X170311Y46724D01*
X170600Y47422D01*
Y47770D01*
X174065Y51235D01*
X174330Y51632D01*
X174424Y52100D01*
Y71000D01*
X174330Y71468D01*
X174065Y71865D01*
X173465Y72465D01*
X173068Y72730D01*
X172600Y72824D01*
X146363D01*
X145976Y73211D01*
X145278Y73500D01*
D02*
G37*
G36*
X308360Y59100D02*
X307040D01*
X305746Y58842D01*
X304526Y58337D01*
X303429Y57604D01*
X302496Y56671D01*
X301763Y55574D01*
X301257Y54354D01*
X301000Y53060D01*
Y51740D01*
X301257Y50446D01*
X301763Y49226D01*
X302496Y48129D01*
X303429Y47196D01*
X304526Y46463D01*
X305746Y45957D01*
X307040Y45700D01*
X308360D01*
X309654Y45957D01*
X310874Y46463D01*
X311971Y47196D01*
X312904Y48129D01*
X313637Y49226D01*
X314142Y50446D01*
X314400Y51740D01*
Y53060D01*
X314142Y54354D01*
X313637Y55574D01*
X312904Y56671D01*
X311971Y57604D01*
X310874Y58337D01*
X309654Y58842D01*
X308360Y59100D01*
D02*
G37*
G36*
X48378Y45388D02*
X47622D01*
X46924Y45099D01*
X46389Y44565D01*
X46100Y43866D01*
Y43110D01*
X46389Y42412D01*
X46924Y41877D01*
X47622Y41588D01*
X48378D01*
X49076Y41877D01*
X49611Y42412D01*
X49900Y43110D01*
Y43866D01*
X49611Y44565D01*
X49076Y45099D01*
X48378Y45388D01*
D02*
G37*
G36*
X35378D02*
X34622D01*
X33924Y45099D01*
X33389Y44565D01*
X33100Y43866D01*
Y43110D01*
X33389Y42412D01*
X33924Y41877D01*
X34622Y41588D01*
X35378D01*
X36076Y41877D01*
X36611Y42412D01*
X36900Y43110D01*
Y43866D01*
X36611Y44565D01*
X36076Y45099D01*
X35378Y45388D01*
D02*
G37*
G36*
X215524Y42105D02*
X214769D01*
X214070Y41816D01*
X213536Y41281D01*
X213246Y40583D01*
Y39827D01*
X213536Y39129D01*
X214070Y38594D01*
X214769Y38305D01*
X215524D01*
X216223Y38594D01*
X216757Y39129D01*
X217046Y39827D01*
Y40583D01*
X216757Y41281D01*
X216223Y41816D01*
X215524Y42105D01*
D02*
G37*
G36*
X114978Y72100D02*
X114222D01*
X113524Y71811D01*
X112989Y71276D01*
X112700Y70578D01*
Y69822D01*
X112989Y69124D01*
X113376Y68736D01*
Y46753D01*
X104784Y38160D01*
X104236D01*
X103538Y37870D01*
X103003Y37336D01*
X102714Y36638D01*
Y35882D01*
X103003Y35184D01*
X103538Y34649D01*
X104236Y34360D01*
X104992D01*
X105690Y34649D01*
X106225Y35184D01*
X106514Y35882D01*
Y36430D01*
X115465Y45381D01*
X115730Y45778D01*
X115823Y46246D01*
Y68736D01*
X116211Y69124D01*
X116500Y69822D01*
Y70578D01*
X116211Y71276D01*
X115676Y71811D01*
X114978Y72100D01*
D02*
G37*
G36*
X190299Y31199D02*
X189543D01*
X188845Y30910D01*
X188311Y30375D01*
X188021Y29677D01*
Y28921D01*
X188311Y28223D01*
X188845Y27689D01*
X189543Y27399D01*
X190299D01*
X190998Y27689D01*
X191532Y28223D01*
X191821Y28921D01*
Y29677D01*
X191532Y30375D01*
X190998Y30910D01*
X190299Y31199D01*
D02*
G37*
G36*
X47752Y27369D02*
X47004D01*
X46312Y27083D01*
X45783Y26554D01*
X45497Y25862D01*
Y25114D01*
X45783Y24423D01*
X46312Y23893D01*
X47004Y23607D01*
X47752D01*
X48444Y23893D01*
X48973Y24423D01*
X49259Y25114D01*
Y25862D01*
X48973Y26554D01*
X48444Y27083D01*
X47752Y27369D01*
D02*
G37*
G36*
X24996D02*
X24248D01*
X23556Y27083D01*
X23027Y26554D01*
X22741Y25862D01*
Y25114D01*
X23027Y24423D01*
X23556Y23893D01*
X24248Y23607D01*
X24996D01*
X25688Y23893D01*
X26217Y24423D01*
X26503Y25114D01*
Y25862D01*
X26217Y26554D01*
X25688Y27083D01*
X24996Y27369D01*
D02*
G37*
G36*
X101678Y24800D02*
X100922D01*
X100224Y24511D01*
X99689Y23976D01*
X99400Y23278D01*
Y22522D01*
X99689Y21824D01*
X100224Y21289D01*
X100922Y21000D01*
X101678D01*
X102376Y21289D01*
X102911Y21824D01*
X103200Y22522D01*
Y23278D01*
X102911Y23976D01*
X102376Y24511D01*
X101678Y24800D01*
D02*
G37*
G36*
X261978Y21300D02*
X261222D01*
X260524Y21011D01*
X259989Y20476D01*
X259700Y19778D01*
Y19022D01*
X259989Y18324D01*
X260524Y17789D01*
X261222Y17500D01*
X261978D01*
X262676Y17789D01*
X263211Y18324D01*
X263500Y19022D01*
Y19778D01*
X263211Y20476D01*
X262676Y21011D01*
X261978Y21300D01*
D02*
G37*
G36*
X31478Y260900D02*
X30722D01*
X30024Y260611D01*
X29489Y260076D01*
X29200Y259378D01*
Y258622D01*
X29489Y257924D01*
X30024Y257389D01*
X30722Y257100D01*
X31478D01*
X32176Y257389D01*
X32711Y257924D01*
X33000Y258622D01*
Y259378D01*
X32711Y260076D01*
X32176Y260611D01*
X31478Y260900D01*
D02*
G37*
G36*
X131278Y37498D02*
X130522D01*
X129824Y37209D01*
X129289Y36675D01*
X129000Y35976D01*
Y35221D01*
X129289Y34522D01*
X129824Y33988D01*
X130522Y33698D01*
X131278D01*
X131976Y33988D01*
X132511Y34522D01*
X132800Y35221D01*
Y35976D01*
X132511Y36675D01*
X131976Y37209D01*
X131278Y37498D01*
D02*
G37*
G36*
X130457Y32676D02*
X129701D01*
X129002Y32386D01*
X128468Y31852D01*
X128179Y31154D01*
Y30398D01*
X128468Y29699D01*
X129002Y29165D01*
X129701Y28876D01*
X130457D01*
X131155Y29165D01*
X131690Y29699D01*
X131979Y30398D01*
Y31154D01*
X131690Y31852D01*
X131155Y32386D01*
X130457Y32676D01*
D02*
G37*
G36*
X146665Y24900D02*
X145910D01*
X145211Y24611D01*
X144677Y24076D01*
X144387Y23378D01*
Y22622D01*
X144677Y21924D01*
X145211Y21389D01*
X145910Y21100D01*
X146665D01*
X147364Y21389D01*
X147898Y21924D01*
X148187Y22622D01*
Y23378D01*
X147898Y24076D01*
X147364Y24611D01*
X146665Y24900D01*
D02*
G37*
G36*
X147777Y17124D02*
X147021D01*
X146323Y16835D01*
X145789Y16301D01*
X145499Y15602D01*
Y14846D01*
X145789Y14148D01*
X146323Y13614D01*
X147021Y13324D01*
X147777D01*
X148476Y13614D01*
X149010Y14148D01*
X149299Y14846D01*
Y15602D01*
X149010Y16301D01*
X148476Y16835D01*
X147777Y17124D01*
D02*
G37*
G36*
X160280Y12381D02*
X159525D01*
X158826Y12092D01*
X158292Y11557D01*
X158002Y10859D01*
Y10435D01*
X157929Y10508D01*
X157231Y10798D01*
X156475D01*
X155777Y10508D01*
X155242Y9974D01*
X155073Y9565D01*
X154777Y9860D01*
X154079Y10150D01*
X153323D01*
X152624Y9860D01*
X152451Y9687D01*
Y10066D01*
X152162Y10764D01*
X151628Y11299D01*
X150929Y11588D01*
X150173D01*
X149475Y11299D01*
X148941Y10764D01*
X148651Y10066D01*
Y9687D01*
X148476Y9863D01*
X147777Y10152D01*
X147021D01*
X146323Y9863D01*
X146152Y9692D01*
Y10130D01*
X145863Y10828D01*
X145328Y11363D01*
X144630Y11652D01*
X143874D01*
X143176Y11363D01*
X142641Y10828D01*
X142352Y10130D01*
Y9374D01*
X142641Y8676D01*
X143176Y8141D01*
X143874Y7852D01*
X144630D01*
X145328Y8141D01*
X145499Y8312D01*
Y7874D01*
X145789Y7176D01*
X146323Y6641D01*
X147021Y6352D01*
X147777D01*
X148476Y6641D01*
X149010Y7176D01*
X149299Y7874D01*
Y8253D01*
X149475Y8077D01*
X150173Y7788D01*
X150929D01*
X151628Y8077D01*
X151801Y8251D01*
Y7872D01*
X152090Y7173D01*
X152624Y6639D01*
X153323Y6350D01*
X154079D01*
X154777Y6639D01*
X155312Y7173D01*
X155481Y7582D01*
X155777Y7287D01*
X156475Y6998D01*
X157231D01*
X157929Y7287D01*
X158100Y7458D01*
Y7020D01*
X158389Y6321D01*
X158924Y5787D01*
X159622Y5498D01*
X160378D01*
X161076Y5787D01*
X161611Y6321D01*
X161900Y7020D01*
Y7775D01*
X161611Y8474D01*
X161097Y8988D01*
X161319Y9210D01*
X161541Y8673D01*
X162076Y8139D01*
X162774Y7850D01*
X163530D01*
X164228Y8139D01*
X164763Y8673D01*
X165052Y9372D01*
Y10127D01*
X164763Y10826D01*
X164228Y11360D01*
X163530Y11650D01*
X162774D01*
X162076Y11360D01*
X161736Y11020D01*
X161513Y11557D01*
X160979Y12092D01*
X160280Y12381D01*
D02*
G37*
G36*
X179777Y12202D02*
X179021D01*
X178323Y11912D01*
X177788Y11378D01*
X177499Y10679D01*
Y9954D01*
X177261Y10528D01*
X176727Y11063D01*
X176028Y11352D01*
X175273D01*
X174574Y11063D01*
X174040Y10528D01*
X173750Y9830D01*
Y9074D01*
X174040Y8376D01*
X174574Y7841D01*
X175273Y7552D01*
X176028D01*
X176727Y7841D01*
X177261Y8376D01*
X177550Y9074D01*
Y9800D01*
X177788Y9225D01*
X178164Y8850D01*
X177821Y8708D01*
X177287Y8174D01*
X176998Y7475D01*
Y6720D01*
X177287Y6021D01*
X177821Y5487D01*
X178520Y5198D01*
X179276D01*
X179974Y5487D01*
X180508Y6021D01*
X180798Y6720D01*
Y7475D01*
X180508Y8174D01*
X180133Y8549D01*
X180475Y8691D01*
X181010Y9225D01*
X181299Y9924D01*
Y10679D01*
X181010Y11378D01*
X180475Y11912D01*
X179777Y12202D01*
D02*
G37*
G36*
X169827Y11856D02*
X169071D01*
X168372Y11567D01*
X167838Y11032D01*
X167549Y10334D01*
Y9578D01*
X167838Y8880D01*
X168372Y8345D01*
X169071Y8056D01*
X169827D01*
X170525Y8345D01*
X171060Y8880D01*
X171349Y9578D01*
Y10334D01*
X171060Y11032D01*
X170525Y11567D01*
X169827Y11856D01*
D02*
G37*
G36*
X141478Y9300D02*
X140722D01*
X140024Y9011D01*
X139489Y8476D01*
X139200Y7778D01*
Y7022D01*
X139489Y6324D01*
X140024Y5789D01*
X140722Y5500D01*
X141478D01*
X142176Y5789D01*
X142711Y6324D01*
X143000Y7022D01*
Y7778D01*
X142711Y8476D01*
X142176Y9011D01*
X141478Y9300D01*
D02*
G37*
G36*
X166677Y9298D02*
X165921D01*
X165223Y9008D01*
X164689Y8474D01*
X164399Y7775D01*
Y7020D01*
X164689Y6321D01*
X165223Y5787D01*
X165921Y5498D01*
X166677D01*
X167376Y5787D01*
X167910Y6321D01*
X168199Y7020D01*
Y7775D01*
X167910Y8474D01*
X167376Y9008D01*
X166677Y9298D01*
D02*
G37*
G36*
X172876Y9000D02*
X172120D01*
X171422Y8711D01*
X170888Y8176D01*
X170598Y7478D01*
Y6722D01*
X170888Y6024D01*
X171422Y5489D01*
X172120Y5200D01*
X172876D01*
X173575Y5489D01*
X174109Y6024D01*
X174398Y6722D01*
Y7478D01*
X174109Y8176D01*
X173575Y8711D01*
X172876Y9000D01*
D02*
G37*
G36*
X204446Y6105D02*
X203690D01*
X202992Y5816D01*
X202457Y5281D01*
X202168Y4583D01*
Y3827D01*
X202457Y3128D01*
X202992Y2594D01*
X203690Y2305D01*
X204446D01*
X205144Y2594D01*
X205679Y3128D01*
X205968Y3827D01*
Y4583D01*
X205679Y5281D01*
X205144Y5816D01*
X204446Y6105D01*
D02*
G37*
G36*
X132178Y5609D02*
X131422D01*
X130724Y5319D01*
X130189Y4785D01*
X129900Y4087D01*
Y3331D01*
X130189Y2632D01*
X130724Y2098D01*
X131422Y1809D01*
X132178D01*
X132876Y2098D01*
X133411Y2632D01*
X133700Y3331D01*
Y4087D01*
X133411Y4785D01*
X132876Y5319D01*
X132178Y5609D01*
D02*
G37*
G36*
X188469Y9202D02*
X187714D01*
X187015Y8913D01*
X186481Y8379D01*
X186191Y7680D01*
Y6925D01*
X186481Y6226D01*
X187015Y5692D01*
X187656Y5426D01*
X187015Y5160D01*
X186481Y4626D01*
X186191Y3928D01*
Y3172D01*
X186481Y2473D01*
X187015Y1939D01*
X187714Y1650D01*
X188469D01*
X189168Y1939D01*
X189702Y2473D01*
X189991Y3172D01*
Y3928D01*
X189702Y4626D01*
X189168Y5160D01*
X188526Y5426D01*
X189168Y5692D01*
X189702Y6226D01*
X189991Y6925D01*
Y7680D01*
X189702Y8379D01*
X189168Y8913D01*
X188469Y9202D01*
D02*
G37*
%LPD*%
G36*
X146959Y24006D02*
X147293Y23672D01*
X147474Y23236D01*
Y22764D01*
X147293Y22328D01*
X146959Y21994D01*
X146523Y21814D01*
X146051D01*
X145615Y21994D01*
X145282Y22328D01*
X145101Y22764D01*
Y23236D01*
X145282Y23672D01*
X145615Y24006D01*
X146051Y24186D01*
X146523D01*
X146959Y24006D01*
D02*
G37*
G36*
X148071Y16230D02*
X148405Y15896D01*
X148585Y15460D01*
Y14988D01*
X148405Y14552D01*
X148071Y14219D01*
X147635Y14038D01*
X147163D01*
X146727Y14219D01*
X146394Y14552D01*
X146213Y14988D01*
Y15460D01*
X146394Y15896D01*
X146727Y16230D01*
X147163Y16411D01*
X147635D01*
X148071Y16230D01*
D02*
G37*
G36*
X160574Y11487D02*
X160908Y11153D01*
X161076Y10747D01*
X161231Y10515D01*
X161462Y10361D01*
X161736Y10306D01*
D01*
X161736D01*
X162009Y10361D01*
X162240Y10515D01*
X162480Y10755D01*
X162916Y10936D01*
X163388D01*
X163824Y10755D01*
X164158Y10422D01*
X164338Y9986D01*
Y9514D01*
X164158Y9078D01*
X163824Y8744D01*
X163388Y8563D01*
X162916D01*
X162480Y8744D01*
X162146Y9078D01*
X161978Y9483D01*
X161823Y9715D01*
X161592Y9870D01*
X161319Y9924D01*
D01*
X161319D01*
X161046Y9870D01*
X160814Y9715D01*
X160592Y9493D01*
X160437Y9261D01*
X160383Y8988D01*
X160437Y8715D01*
X160592Y8483D01*
X161006Y8070D01*
X161186Y7634D01*
Y7162D01*
X161006Y6726D01*
X160672Y6392D01*
X160236Y6211D01*
X159764D01*
X159328Y6392D01*
X158994Y6726D01*
X158814Y7162D01*
Y7458D01*
X158759Y7731D01*
X158605Y7963D01*
X158373Y8117D01*
X158100Y8172D01*
X157827Y8117D01*
X157595Y7963D01*
X157525Y7892D01*
X157089Y7711D01*
X156617D01*
X156181Y7892D01*
X155986Y8087D01*
X155847Y8180D01*
X155754Y8242D01*
X155481Y8296D01*
X155481D01*
X155481D01*
X155372Y8275D01*
X155208Y8242D01*
X155208Y8242D01*
X155208D01*
X154976Y8087D01*
X154884Y7948D01*
X154822Y7856D01*
X154707Y7578D01*
X154373Y7244D01*
X153937Y7063D01*
X153465D01*
X153029Y7244D01*
X152695Y7578D01*
X152515Y8014D01*
Y8251D01*
X152460Y8524D01*
X152305Y8755D01*
X152074Y8910D01*
X151801Y8964D01*
X151528Y8910D01*
X151296Y8755D01*
X151223Y8682D01*
X150787Y8502D01*
X150315D01*
X149879Y8682D01*
X149804Y8758D01*
X149572Y8912D01*
X149299Y8967D01*
X149026Y8912D01*
X148794Y8758D01*
X148640Y8526D01*
X148585Y8253D01*
Y8016D01*
X148405Y7580D01*
X148071Y7246D01*
X147635Y7066D01*
X147163D01*
X146727Y7246D01*
X146394Y7580D01*
X146213Y8016D01*
Y8312D01*
X146159Y8585D01*
X146004Y8817D01*
X145772Y8972D01*
X145499Y9026D01*
X145226Y8972D01*
X144994Y8817D01*
X144924Y8746D01*
X144488Y8566D01*
X144016D01*
X143580Y8746D01*
X143246Y9080D01*
X143066Y9516D01*
Y9988D01*
X143246Y10424D01*
X143580Y10758D01*
X144016Y10938D01*
X144488D01*
X144924Y10758D01*
X145258Y10424D01*
X145438Y9988D01*
Y9692D01*
X145493Y9419D01*
X145647Y9187D01*
X145879Y9032D01*
X146152Y8978D01*
X146425Y9032D01*
X146657Y9187D01*
X146727Y9258D01*
X147163Y9438D01*
X147635D01*
X148071Y9258D01*
X148146Y9182D01*
X148378Y9028D01*
X148651Y8973D01*
X148924Y9028D01*
X149156Y9182D01*
X149311Y9414D01*
X149365Y9687D01*
Y9924D01*
X149546Y10360D01*
X149879Y10694D01*
X150315Y10874D01*
X150787D01*
X151223Y10694D01*
X151557Y10360D01*
X151737Y9924D01*
Y9687D01*
X151792Y9414D01*
X151946Y9182D01*
X152178Y9028D01*
X152451Y8973D01*
X152724Y9028D01*
X152956Y9182D01*
X153029Y9255D01*
X153465Y9436D01*
X153937D01*
X154373Y9255D01*
X154568Y9060D01*
X154707Y8967D01*
X154799Y8905D01*
X155073Y8851D01*
X155073D01*
X155073D01*
X155181Y8873D01*
X155346Y8905D01*
X155346Y8905D01*
X155346D01*
X155577Y9060D01*
X155670Y9199D01*
X155732Y9292D01*
X155847Y9570D01*
X156181Y9903D01*
X156617Y10084D01*
X157089D01*
X157560Y9889D01*
X157729Y9776D01*
X158002Y9721D01*
X158275Y9776D01*
X158507Y9930D01*
X158662Y10162D01*
X158716Y10435D01*
Y10717D01*
X158897Y11153D01*
X159230Y11487D01*
X159666Y11667D01*
X160138D01*
X160574Y11487D01*
D02*
G37*
%LPC*%
G36*
X158753Y9657D02*
X158480Y9603D01*
X158248Y9448D01*
X158093Y9217D01*
X158039Y8944D01*
Y8837D01*
X158093Y8564D01*
X158248Y8333D01*
X158480Y8178D01*
X158753Y8124D01*
X159026Y8178D01*
X159257Y8333D01*
X159311Y8386D01*
X159465Y8617D01*
X159520Y8890D01*
X159465Y9164D01*
X159311Y9395D01*
X159257Y9448D01*
X159026Y9603D01*
X158753Y9657D01*
D02*
G37*
%LPD*%
G36*
X158806Y8890D02*
X158753Y8837D01*
Y8944D01*
X158806Y8890D01*
D02*
G37*
G36*
X176322Y10458D02*
X176656Y10124D01*
X176837Y9688D01*
Y9216D01*
X176656Y8780D01*
X176322Y8446D01*
X175886Y8266D01*
X175414D01*
X174978Y8446D01*
X174645Y8780D01*
X174464Y9216D01*
Y9688D01*
X174645Y10124D01*
X174978Y10458D01*
X175414Y10638D01*
X175886D01*
X176322Y10458D01*
D02*
G37*
G36*
X180071Y11307D02*
X180405Y10974D01*
X180586Y10538D01*
Y10066D01*
X180405Y9630D01*
X180071Y9296D01*
X179860Y9208D01*
X179728Y9120D01*
X179629Y9054D01*
X179525Y8899D01*
X179474Y8822D01*
X179437Y8640D01*
X179419Y8549D01*
Y8549D01*
Y8549D01*
X179474Y8276D01*
X179536Y8183D01*
X179629Y8044D01*
X179903Y7770D01*
X180084Y7334D01*
Y6862D01*
X179903Y6426D01*
X179570Y6092D01*
X179134Y5911D01*
X178662D01*
X178226Y6092D01*
X177892Y6426D01*
X177711Y6862D01*
Y7334D01*
X177892Y7770D01*
X178226Y8103D01*
X178437Y8191D01*
X178569Y8279D01*
X178668Y8345D01*
X178772Y8500D01*
X178823Y8577D01*
X178859Y8760D01*
X178877Y8850D01*
Y8850D01*
Y8850D01*
X178823Y9123D01*
X178761Y9216D01*
X178668Y9355D01*
X178393Y9630D01*
X178213Y10066D01*
Y10538D01*
X178393Y10974D01*
X178727Y11307D01*
X179163Y11488D01*
X179635D01*
X180071Y11307D01*
D02*
G37*
G36*
X170121Y10962D02*
X170455Y10628D01*
X170635Y10192D01*
Y9720D01*
X170455Y9284D01*
X170121Y8950D01*
X169685Y8770D01*
X169213D01*
X168777Y8950D01*
X168443Y9284D01*
X168263Y9720D01*
Y10192D01*
X168443Y10628D01*
X168777Y10962D01*
X169213Y11142D01*
X169685D01*
X170121Y10962D01*
D02*
G37*
G36*
X141772Y8406D02*
X142106Y8072D01*
X142286Y7636D01*
Y7164D01*
X142106Y6728D01*
X141772Y6394D01*
X141336Y6214D01*
X140864D01*
X140428Y6394D01*
X140094Y6728D01*
X139914Y7164D01*
Y7636D01*
X140094Y8072D01*
X140428Y8406D01*
X140864Y8586D01*
X141336D01*
X141772Y8406D01*
D02*
G37*
G36*
X166971Y8403D02*
X167305Y8070D01*
X167485Y7634D01*
Y7162D01*
X167305Y6726D01*
X166971Y6392D01*
X166535Y6211D01*
X166063D01*
X165627Y6392D01*
X165294Y6726D01*
X165113Y7162D01*
Y7634D01*
X165294Y8070D01*
X165627Y8403D01*
X166063Y8584D01*
X166535D01*
X166971Y8403D01*
D02*
G37*
G36*
X173170Y8106D02*
X173504Y7772D01*
X173685Y7336D01*
Y6864D01*
X173504Y6428D01*
X173170Y6094D01*
X172734Y5914D01*
X172262D01*
X171826Y6094D01*
X171493Y6428D01*
X171312Y6864D01*
Y7336D01*
X171493Y7772D01*
X171826Y8106D01*
X172262Y8286D01*
X172734D01*
X173170Y8106D01*
D02*
G37*
G36*
X204740Y5210D02*
X205073Y4877D01*
X205254Y4441D01*
Y3969D01*
X205073Y3533D01*
X204740Y3199D01*
X204304Y3018D01*
X203832D01*
X203396Y3199D01*
X203062Y3533D01*
X202882Y3969D01*
Y4441D01*
X203062Y4877D01*
X203396Y5210D01*
X203832Y5391D01*
X204304D01*
X204740Y5210D01*
D02*
G37*
G36*
X132472Y4714D02*
X132806Y4381D01*
X132986Y3945D01*
Y3473D01*
X132806Y3037D01*
X132472Y2703D01*
X132036Y2522D01*
X131564D01*
X131128Y2703D01*
X130794Y3037D01*
X130614Y3473D01*
Y3945D01*
X130794Y4381D01*
X131128Y4714D01*
X131564Y4895D01*
X132036D01*
X132472Y4714D01*
D02*
G37*
G36*
X188763Y8308D02*
X189097Y7974D01*
X189278Y7538D01*
Y7066D01*
X189097Y6630D01*
X188763Y6297D01*
X188253Y6085D01*
X188091Y5977D01*
X188084Y5982D01*
X187930Y6085D01*
X187930D01*
X187419Y6297D01*
X187086Y6630D01*
X186905Y7066D01*
Y7538D01*
X187086Y7974D01*
X187419Y8308D01*
X187855Y8489D01*
X188327D01*
X188763Y8308D01*
D02*
G37*
G36*
X188099Y4870D02*
X188253Y4767D01*
X188253D01*
X188763Y4555D01*
X189097Y4222D01*
X189278Y3786D01*
Y3314D01*
X189097Y2878D01*
X188763Y2544D01*
X188327Y2363D01*
X187855D01*
X187419Y2544D01*
X187086Y2878D01*
X186905Y3314D01*
Y3786D01*
X187086Y4222D01*
X187419Y4555D01*
X187930Y4767D01*
X188091Y4875D01*
X188099Y4870D01*
D02*
G37*
D14*
X213871Y8235D02*
X214497D01*
X48335Y253535D02*
Y264300D01*
X16389Y251700D02*
X16395Y251706D01*
X149400Y239500D02*
X172600D01*
X105100Y200600D02*
Y220700D01*
X126410Y22000D02*
Y22190D01*
Y11028D02*
Y22000D01*
X13200Y174900D02*
Y199900D01*
Y147872D02*
Y174900D01*
Y147872D02*
X15737Y145335D01*
X13157Y200000D02*
X31071Y217913D01*
X193937Y13551D02*
X194205Y13283D01*
X203335Y9795D02*
X212311D01*
X126410Y11028D02*
X133672D01*
X141100Y3600D01*
X119900Y28700D02*
X126410Y22190D01*
X204300Y36000D02*
Y84250D01*
X210850Y90800D01*
X217150Y98965D02*
X217200Y98914D01*
X213414Y102700D02*
X217150Y98965D01*
X139700Y83400D02*
X159000Y102700D01*
X213414D01*
X193669Y13283D02*
X193937Y13551D01*
X193669Y12318D02*
Y13283D01*
X193351Y12000D02*
X193669Y12318D01*
X183200Y12000D02*
X193351D01*
X72100Y253700D02*
Y260000D01*
X172600Y239500D02*
X191100Y258000D01*
X167000Y134600D02*
Y231600D01*
Y134600D02*
X169000Y132600D01*
X184000D01*
X190000Y126600D01*
X149700Y209200D02*
Y239400D01*
X241779Y259000D02*
X270100D01*
X193279Y210500D02*
X241779Y259000D01*
X162100Y121300D02*
Y196800D01*
X149700Y209200D02*
X162100Y196800D01*
X31071Y217913D02*
X43627D01*
X52795Y227081D01*
X76030D01*
X104614Y36260D02*
X114600Y46246D01*
X123600Y39960D02*
Y43900D01*
X144900Y71600D02*
X172600D01*
X144700D02*
X144900D01*
X114600Y46246D02*
Y70200D01*
X168700Y47800D02*
X168900D01*
X173200Y52100D01*
X172600Y71600D02*
X173200Y71000D01*
Y52100D02*
Y71000D01*
X139700Y52600D02*
Y83400D01*
Y52600D02*
X142000Y50300D01*
X192900Y210500D02*
X193279D01*
X111982Y239918D02*
X155300Y196600D01*
Y145800D02*
Y196600D01*
X196000Y95800D02*
X201000Y90800D01*
Y26913D02*
Y90800D01*
X198900Y30300D02*
Y80900D01*
X193500Y86300D02*
X198900Y80900D01*
X191550Y22950D02*
X198900Y30300D01*
X188572Y22950D02*
X191550D01*
X193937Y19850D02*
X201000Y26913D01*
X26461Y115000D02*
X228200D01*
X233335Y15862D02*
Y109865D01*
X228200Y115000D02*
X233335Y109865D01*
X111982Y239918D02*
Y259000D01*
X72100Y253700D02*
X105100Y220700D01*
X80081Y209016D02*
X86373D01*
X90234Y212877D01*
X76030Y227081D02*
X90234Y212877D01*
X6511Y264311D02*
X48323D01*
X6500Y264300D02*
X6511Y264311D01*
X46500Y251700D02*
X48335Y253535D01*
X16400Y251700D02*
X46500D01*
X8300D02*
X16389D01*
X6200Y249600D02*
X8300Y251700D01*
X6200Y68500D02*
Y249600D01*
Y68500D02*
X10400Y64300D01*
X53000D01*
X55200Y62100D01*
Y39500D02*
Y62100D01*
Y39500D02*
X60800Y33900D01*
X81000D01*
Y27385D02*
Y33900D01*
Y27385D02*
X85485Y22900D01*
X183200Y4186D02*
Y12000D01*
X204300Y36000D02*
X214335Y25965D01*
Y20850D02*
Y25965D01*
X214497Y8235D02*
Y20687D01*
X214335Y20850D02*
X214497Y20687D01*
X212311Y9795D02*
X213871Y8235D01*
X182614Y3600D02*
X183200Y4186D01*
X141100Y3600D02*
X182614D01*
X248000Y18914D02*
X253114D01*
X260600Y26400D01*
X236386Y18914D02*
X248000D01*
X233335Y15862D02*
X236386Y18914D01*
X119900Y28700D02*
Y36260D01*
X123600Y39960D01*
X25335Y116505D02*
X26461Y115379D01*
Y115000D02*
Y115379D01*
X25335Y116505D02*
Y148260D01*
X22409Y145335D02*
X25335Y148260D01*
X15737Y145335D02*
X22409D01*
D83*
X167135Y263400D02*
X167994Y264260D01*
X48335Y264300D02*
X48572Y264063D01*
X207335Y266843D02*
X209092Y268600D01*
X207335Y264260D02*
Y266843D01*
X48323Y264311D02*
X48335Y264300D01*
D85*
X183772Y210672D02*
Y211957D01*
X235815Y264000D01*
X183600Y210500D02*
X183772Y210672D01*
D86*
X129335Y264260D02*
X130194Y263400D01*
X167135D01*
X167994Y264260D02*
X207335D01*
X209092Y268600D02*
X243254D01*
X247335Y264520D01*
X248594Y263260D01*
X286335D01*
D90*
X13157Y200000D02*
D03*
D92*
X53028Y11000D02*
D03*
X18972D02*
D03*
D93*
X53028Y27417D02*
D03*
X18972D02*
D03*
D95*
X13200Y174900D02*
D03*
X149700Y239400D02*
D03*
X61100Y176900D02*
D03*
Y167700D02*
D03*
Y158200D02*
D03*
X98300Y176900D02*
D03*
X86100D02*
D03*
X85900Y167700D02*
D03*
X98300D02*
D03*
X97300Y158100D02*
D03*
X85900Y158400D02*
D03*
X73600Y158700D02*
D03*
X74100Y167700D02*
D03*
Y176900D02*
D03*
X126110Y8328D02*
D03*
X126410Y22000D02*
D03*
X160100Y36700D02*
D03*
X153701Y8250D02*
D03*
X311600Y292500D02*
D03*
X156853Y8898D02*
D03*
X163152Y9750D02*
D03*
X159902Y10481D02*
D03*
X160000Y7398D02*
D03*
X166299D02*
D03*
X150551Y9688D02*
D03*
X273100Y292376D02*
D03*
X210850Y90800D02*
D03*
X217150Y98965D02*
D03*
X193937Y13551D02*
D03*
X48572Y264063D02*
D03*
X72100Y260000D02*
D03*
X129335Y264260D02*
D03*
X167135Y263400D02*
D03*
X54000Y86700D02*
D03*
X112905Y13154D02*
D03*
X131800Y3709D02*
D03*
X188091Y3550D02*
D03*
X188470Y42561D02*
D03*
X48598Y35342D02*
D03*
X104614Y36260D02*
D03*
X81000Y33900D02*
D03*
X83269Y39900D02*
D03*
X73191Y40967D02*
D03*
X123600Y43900D02*
D03*
X172813Y15100D02*
D03*
X172713Y23100D02*
D03*
X114600Y70200D02*
D03*
X144900Y71600D02*
D03*
X142000Y50300D02*
D03*
X168700Y47800D02*
D03*
X188572Y22950D02*
D03*
X214335Y20850D02*
D03*
X193937Y19850D02*
D03*
X233335Y15862D02*
D03*
X203335Y9795D02*
D03*
X214335Y8000D02*
D03*
X23400Y36125D02*
D03*
X183600Y210500D02*
D03*
X192900D02*
D03*
X167000Y231600D02*
D03*
X190000Y126600D02*
D03*
X196000Y95800D02*
D03*
X155300Y145800D02*
D03*
X162100Y121300D02*
D03*
X193500Y86300D02*
D03*
X105000Y200900D02*
D03*
X80081Y209016D02*
D03*
X111982Y259000D02*
D03*
X235815Y264000D02*
D03*
X48000Y56859D02*
D03*
X85485Y22900D02*
D03*
X270100Y259000D02*
D03*
X191100Y258000D02*
D03*
X206600Y299400D02*
D03*
X193000Y292300D02*
D03*
X167300Y299500D02*
D03*
X153500Y292600D02*
D03*
X12000Y305200D02*
D03*
X33100Y292200D02*
D03*
X46945Y299543D02*
D03*
X86500Y299700D02*
D03*
X73600Y292600D02*
D03*
X126300Y299700D02*
D03*
X114000Y292600D02*
D03*
X233400Y292457D02*
D03*
X246500Y299700D02*
D03*
X284900Y299543D02*
D03*
X286335Y263260D02*
D03*
X247335Y264520D02*
D03*
X207335Y264260D02*
D03*
X260600Y26400D02*
D03*
X248000Y18914D02*
D03*
X26461Y115000D02*
D03*
X25335Y148260D02*
D03*
X15737Y145335D02*
D03*
X90234Y212877D02*
D03*
X52795Y227081D02*
D03*
X16400Y251700D02*
D03*
X6500Y264300D02*
D03*
X34900Y56959D02*
D03*
X13100Y41592D02*
D03*
X303191Y159967D02*
D03*
X249400Y160167D02*
D03*
X101400Y211100D02*
D03*
X54580Y127720D02*
D03*
X258600Y202100D02*
D03*
X197000Y201900D02*
D03*
X47205Y227825D02*
D03*
X97000Y185025D02*
D03*
X80825Y191000D02*
D03*
X57975Y152000D02*
D03*
X51392Y130280D02*
D03*
X10025Y115000D02*
D03*
X70925Y92575D02*
D03*
Y102500D02*
D03*
X93975Y109000D02*
D03*
Y91000D02*
D03*
X24000Y58156D02*
D03*
X66825Y52150D02*
D03*
X113205Y26932D02*
D03*
X224972Y6134D02*
D03*
X305854Y23205D02*
D03*
X264186Y23720D02*
D03*
X266682Y8000D02*
D03*
X252972Y11134D02*
D03*
X234068Y10272D02*
D03*
X204068Y4205D02*
D03*
X215146Y45795D02*
D03*
X136772Y47460D02*
D03*
X178987Y38700D02*
D03*
X172600Y37787D02*
D03*
X167900Y35713D02*
D03*
X146187Y30776D02*
D03*
X146287Y23000D02*
D03*
X147399Y15224D02*
D03*
X188091Y7302D02*
D03*
X178898Y7098D02*
D03*
X179399Y10302D02*
D03*
X172498Y7100D02*
D03*
X175650Y9452D02*
D03*
X169449Y9956D02*
D03*
X147399Y8252D02*
D03*
X144252Y9752D02*
D03*
X141100Y7400D02*
D03*
M02*
